<?xml version="1.0" encoding="UTF-8" standalone="no"?>
<svg
   width="39.251999"
   height="42.269848"
   viewBox="0 0 39.251999 42.269848"
   version="1.1"
   xml:space="preserve"
   style="clip-rule:evenodd;fill-rule:evenodd;stroke-linejoin:round;stroke-miterlimit:2"
   id="svg218"
   sodipodi:docname="abomination.svg"
   inkscape:version="1.1.1 (3bf5ae0d25, 2021-09-20)"
   xmlns:inkscape="http://www.inkscape.org/namespaces/inkscape"
   xmlns:sodipodi="http://sodipodi.sourceforge.net/DTD/sodipodi-0.dtd"
   xmlns="http://www.w3.org/2000/svg"
   xmlns:svg="http://www.w3.org/2000/svg"><defs
   id="defs222" /><sodipodi:namedview
   id="namedview220"
   pagecolor="#ffffff"
   bordercolor="#666666"
   borderopacity="1.0"
   inkscape:pageshadow="2"
   inkscape:pageopacity="0.0"
   inkscape:pagecheckerboard="0"
   showgrid="false"
   inkscape:zoom="19.209302"
   inkscape:cx="20.016344"
   inkscape:cy="21.5"
   inkscape:window-width="1920"
   inkscape:window-height="1012"
   inkscape:window-x="-8"
   inkscape:window-y="-8"
   inkscape:window-maximized="1"
   inkscape:current-layer="svg218" />
    <g
   transform="translate(-842.113,-462.82939)"
   id="g216">
        <g
   transform="rotate(90,990.1495,692.2405)"
   id="g214">
            <g
   transform="matrix(2,0,0,2,781.549,840.277)"
   id="g4">
                <path
   d="m 0,-19.626 c 0.237,0.384 0.51,0.737 0.863,1.02 0.103,0.084 0.201,0.119 0.335,0.109 1.022,-0.081 2.025,0.042 3.007,0.329 0.166,0.048 0.284,0.049 0.389,-0.097 0.035,-0.05 0.087,-0.088 0.134,-0.128 0.274,-0.236 0.34,-0.229 0.598,0.013 0.405,0.38 0.792,0.778 1.159,1.195 0.08,0.091 0.18,0.169 0.28,0.239 1.466,1.042 2.515,2.404 3.147,4.087 0.044,0.116 0.098,0.224 0.167,0.329 0.488,0.738 0.689,1.555 0.644,2.433 -0.008,0.177 -0.004,0.351 0.003,0.527 0.034,0.888 -0.17,1.712 -0.675,2.453 -0.059,0.086 -0.102,0.184 -0.14,0.283 C 9.284,-5.169 8.247,-3.819 6.802,-2.783 6.665,-2.684 6.539,-2.578 6.43,-2.448 6.089,-2.043 5.708,-1.676 5.326,-1.31 5.077,-1.071 4.978,-1.034 4.755,-1.287 4.508,-1.567 4.277,-1.561 3.95,-1.466 3.071,-1.211 2.164,-1.143 1.251,-1.2 1.089,-1.21 0.969,-1.169 0.845,-1.066 0.502,-0.782 0.235,-0.436 -0.038,0 -0.059,-0.397 -0.084,-0.724 -0.091,-1.052 -0.096,-1.29 -0.173,-1.408 -0.432,-1.48 c -2.576,-0.718 -4.451,-2.286 -5.624,-4.692 -0.043,-0.087 -0.051,-0.21 -0.206,-0.194 -0.088,0.008 -0.095,-0.072 -0.064,-0.132 0.078,-0.155 0.009,-0.291 -0.041,-0.432 -0.252,-0.701 -0.416,-1.422 -0.469,-2.164 -0.013,-0.18 -0.062,-0.252 -0.259,-0.265 -1.019,-0.071 -2.038,-0.16 -3.057,-0.245 -0.11,-0.009 -0.246,0.012 -0.253,-0.158 -0.008,-0.193 0.144,-0.168 0.261,-0.18 0.999,-0.099 1.998,-0.206 3,-0.286 0.23,-0.019 0.289,-0.096 0.303,-0.31 0.052,-0.824 0.25,-1.617 0.526,-2.395 0.074,-0.21 0.139,-0.407 0.244,-0.614 1.227,-2.423 3.125,-4.003 5.749,-4.704 0.162,-0.043 0.214,-0.122 0.218,-0.273 0.006,-0.185 0.03,-0.369 0.038,-0.554 0.006,-0.176 0.001,-0.352 0.001,-0.527 0.022,-0.007 0.043,-0.014 0.065,-0.021"
   style="fill:#2f6230;fill-rule:nonzero"
   id="path2" />
            </g>
            <g
   transform="matrix(2,0,0,2,776.8,808.986)"
   id="g8">
                <path
   d="M 0,11.604 C -0.145,11.757 -0.29,11.91 -0.433,12.061 -0.514,12.024 -0.471,11.964 -0.471,11.92 -0.473,10.808 -0.975,9.999 -1.951,9.484 -2.408,9.242 -2.905,9.12 -3.417,9.063 -3.568,9.045 -3.621,9.008 -3.562,8.855 -3.292,8.159 -2.924,7.557 -2.202,7.227 -1.805,7.045 -1.402,6.916 -0.976,6.83 -0.44,6.72 -0.18,6.348 -0.174,5.78 -0.168,5.237 -0.459,4.863 -1.032,4.775 -1.907,4.642 -2.577,4.235 -3.097,3.543 -3.267,3.317 -3.4,3.071 -3.504,2.805 -3.59,2.584 -3.575,2.476 -3.299,2.456 -2.83,2.42 -2.384,2.278 -1.961,2.069 c 1.023,-0.504 1.578,-1.462 1.507,-2.638 0.26,0.273 0.498,0.523 0.735,0.774 C 0.294,0.194 0.307,0.183 0.32,0.172 0.066,-0.134 -0.188,-0.44 -0.462,-0.77 c 1.926,0.463 2.727,-0.366 2.93,-2.07 0.024,0.251 0.057,0.501 0.072,0.752 0.017,0.264 0.03,0.529 0.023,0.793 -0.008,0.263 -0.042,0.525 -0.054,0.788 0.307,-0.838 0.257,-1.695 0.098,-2.58 0.171,0.054 0.245,0.168 0.34,0.251 0.529,0.456 1.162,0.702 1.827,0.847 0.301,0.065 0.343,0.218 0.315,0.457 -0.025,0.224 -0.026,0.441 0.104,0.637 0.052,0.079 0.105,0.2 0.209,0.171 C 5.506,-0.752 5.426,-0.852 5.411,-0.922 5.396,-1 5.464,-1.001 5.51,-1.015 5.807,-1.11 6.08,-1.245 6.329,-1.46 6.234,-0.992 6.174,-0.524 6.01,-0.073 5.599,1.058 4.919,2.038 4.254,3.021 3.293,4.444 3.192,5.963 3.705,7.543 c 0.232,0.715 0.734,1.301 1.138,1.93 0.567,0.885 1.107,1.782 1.347,2.823 0.059,0.253 0.106,0.51 0.166,0.802 C 6.057,12.893 5.831,12.645 5.51,12.554 5.441,12.534 5.441,12.487 5.453,12.429 5.467,12.358 5.478,12.276 5.389,12.254 c -0.078,-0.02 -0.128,0.049 -0.17,0.104 -0.146,0.194 -0.195,0.413 -0.158,0.65 0.074,0.474 0.074,0.467 -0.39,0.6 -0.743,0.213 -1.452,0.495 -2.024,1.083 0.106,-0.876 0.176,-1.739 -0.145,-2.578 0.123,0.784 0.059,1.563 -0.055,2.346 C 2.403,14.106 2.346,13.757 2.271,13.41 2.142,12.804 1.747,12.478 1.196,12.287 0.731,12.125 0.262,12.152 -0.209,12.257 -0.285,12.274 -0.362,12.29 -0.491,12.318 -0.289,12.07 -0.119,11.863 0.051,11.655 0.092,11.537 0.162,11.441 0.268,11.37 0.156,11.424 0.118,11.561 0,11.604"
   style="fill:#ffffff;fill-rule:nonzero"
   id="path6" />
            </g>
            <g
   transform="matrix(2,0,0,2,802.392,820.623)"
   id="g12">
                <path
   d="M 0,-0.017 C 0.01,0.636 0.015,1.288 -0.255,1.906 -0.369,2.168 -0.515,2.409 -0.687,2.631 -1.717,3.952 -2.652,5.345 -3.709,6.645 -4.155,7.193 -4.633,7.712 -5.183,8.159 -5.43,8.36 -5.482,8.357 -5.696,8.115 -5.917,7.867 -6.075,7.579 -6.134,7.253 -6.386,5.846 -6.956,4.58 -7.796,3.43 -8.161,2.93 -8.466,2.397 -8.727,1.835 -9.026,1.192 -9.07,0.516 -9.075,-0.179 c -0.01,-1.245 0.554,-2.258 1.237,-3.227 0.839,-1.187 1.494,-2.449 1.712,-3.91 0.05,-0.333 0.237,-0.62 0.462,-0.878 0.16,-0.183 0.299,-0.153 0.465,-0.02 0.449,0.36 0.852,0.771 1.217,1.211 1.256,1.515 2.39,3.121 3.54,4.715 0.335,0.466 0.416,1.022 0.44,1.583 C 0.008,-0.476 0,-0.246 0,-0.017"
   style="fill:#ffffff;fill-rule:nonzero"
   id="path10" />
            </g>
            <g
   transform="matrix(2,0,0,2,762.672,820.548)"
   id="g16">
                <path
   d="M 0,0.07 C 1.682,-0.094 3.347,-0.258 5.012,-0.416 5.257,-0.44 5.504,-0.435 5.75,-0.447 5.997,-0.458 6.194,-0.311 6.225,-0.087 6.272,0.252 6.148,0.468 5.852,0.496 5.564,0.523 5.27,0.528 4.982,0.506 3.392,0.387 1.804,0.256 0.216,0.129 0.147,0.123 0.075,0.13 0,0.07"
   style="fill:#ffffff;fill-rule:nonzero"
   id="path14" />
            </g>
            <g
   transform="matrix(2,0,0,2,773.698,818.995)"
   id="g20">
                <path
   d="M 0,1.657 C 0.06,1.515 0.171,1.503 0.285,1.478 0.674,1.395 0.867,1.174 0.877,0.819 0.887,0.441 0.767,0.28 0.387,0.188 0.223,0.148 0.083,0.071 -0.081,-0.037 0.95,0.063 1.183,0.26 1.123,0.952 1.084,1.39 0.61,1.694 0,1.657"
   style="fill:#ffffff;fill-rule:nonzero"
   id="path18" />
            </g>
            <g
   transform="matrix(2,0,0,2,776.8,831.496)"
   id="g24">
                <path
   d="M 0,0.349 C 0.103,0.187 0.247,0.065 0.4,-0.051 0.318,0.126 0.192,0.269 0.051,0.4 0.034,0.383 0.017,0.366 0,0.349"
   style="fill:#2f6230;fill-rule:nonzero"
   id="path22" />
            </g>
            <g
   transform="matrix(2,0,0,2,776.121,827.497)"
   id="g28">
                <path
   d="m 0,-0.08 c 0.428,-0.643 1.027,-1.06 1.712,-1.482 -0.905,-0.015 -1.716,0.205 -2.547,0.349 0.124,-0.137 0.125,-0.134 0.288,-0.192 1.202,-0.424 2.446,-0.492 3.704,-0.421 0.249,0.015 0.475,0.113 0.662,0.285 -0.014,0.022 -0.023,0.045 -0.03,0.044 -0.091,-10e-4 -0.214,-0.086 -0.263,0.018 -0.046,0.096 0.081,0.165 0.15,0.222 0.135,0.113 0.28,0.215 0.43,0.305 0.656,0.394 1.151,1.429 1.038,2.23 C 5.05,1.026 4.966,0.802 4.877,0.564 4.85,0.597 4.834,0.607 4.833,0.618 4.812,1.558 4.228,1.817 3.334,1.578 3.025,1.496 2.735,1.305 2.44,1.216 2.185,1.139 1.924,0.979 1.637,1.014 1.413,1.041 1.369,0.918 1.356,0.74 1.34,0.525 1.262,0.329 1.149,0.147 0.917,-0.228 0.632,-0.311 0.234,-0.126 0.174,-0.099 0.121,-0.042 0,-0.08"
   style="fill:#2d612f;fill-rule:nonzero"
   id="path26" />
            </g>
            <g
   transform="matrix(2,0,0,2,775.098,811.469)"
   id="g32">
                <path
   d="M 0,2.364 C 0.03,2.381 0.059,2.409 0.091,2.413 0.78,2.497 1.456,2.687 2.219,2.666 1.551,2.251 0.949,1.83 0.507,1.187 0.64,1.164 0.702,1.221 0.772,1.25 1.145,1.405 1.41,1.33 1.635,0.996 1.766,0.803 1.852,0.591 1.869,0.357 1.882,0.166 1.927,0.044 2.168,0.089 2.37,0.127 2.555,0.026 2.749,-0.033 3.165,-0.16 3.495,-0.491 3.947,-0.522 3.999,-0.526 4.05,-0.543 4.102,-0.549 4.949,-0.635 5.26,-0.371 5.359,0.545 5.495,0.316 5.566,0.087 5.648,-0.171 5.735,-0.003 5.708,0.145 5.677,0.286 5.505,1.062 5.235,1.774 4.455,2.16 4.325,2.225 4.219,2.342 4.108,2.443 4.067,2.481 3.992,2.527 4.029,2.593 4.074,2.675 4.151,2.629 4.215,2.606 4.255,2.591 4.293,2.563 4.349,2.608 4.183,2.817 3.949,2.908 3.706,2.923 2.466,2.999 1.237,2.959 0.052,2.524 0.011,2.478 -0.157,2.474 0,2.364"
   style="fill:#2d612f;fill-rule:nonzero"
   id="path30" />
            </g>
            <g
   transform="matrix(2,0,0,2,786.708,807.216)"
   id="g36">
                <path
   d="M 0,1.472 C -0.125,1.265 -0.246,1.054 -0.378,0.85 -0.67,0.4 -0.756,0.378 -1.228,0.61 -1.607,0.797 -1.976,0.999 -2.317,1.252 -2.411,1.322 -2.505,1.411 -2.683,1.396 -2.529,1.109 -2.302,0.919 -2.068,0.75 -1.692,0.479 -1.323,0.186 -0.861,0.061 -0.755,0.032 -0.654,0 -0.575,0.11 -0.283,0.517 0.021,0.919 0,1.472"
   style="fill:#2e6130;fill-rule:nonzero"
   id="path34" />
            </g>
            <g
   transform="matrix(2,0,0,2,781.419,833.775)"
   id="g40">
                <path
   d="m 0,-1.296 c 0.504,0.295 0.999,0.575 1.512,0.823 0.353,0.171 0.417,0.161 0.663,-0.162 C 2.334,-0.845 2.471,-1.073 2.62,-1.291 2.638,-1.317 2.668,-1.334 2.716,-1.375 2.654,-0.821 2.358,-0.415 2.06,-0.011 2.007,0.061 1.933,0.079 1.849,0.046 1.131,-0.23 0.489,-0.616 0.001,-1.225 -0.007,-1.234 0,-1.255 0,-1.296"
   style="fill:#2f6230;fill-rule:nonzero"
   id="path38" />
            </g>
            <g
   transform="matrix(2,0,0,2,787.045,835.347)"
   id="g44">
                <path
   d="m 0,-1.28 c -0.06,0.409 -0.192,0.787 -0.4,1.137 -0.046,0.078 -0.098,0.143 -0.21,0.108 -0.631,-0.197 -1.208,-0.48 -1.634,-1.008 -0.015,-0.019 -0.019,-0.048 -0.04,-0.106 0.192,0.068 0.338,0.165 0.483,0.266 0.281,0.195 0.574,0.372 0.88,0.527 0.15,0.077 0.24,0.073 0.34,-0.089 C -0.404,-0.733 -0.278,-1.058 0,-1.28"
   style="fill:#306332;fill-rule:nonzero"
   id="path42" />
            </g>
            <g
   transform="matrix(2,0,0,2,782.487,806.359)"
   id="g48">
                <path
   d="M 0,0.858 C 0.071,0.693 0.164,0.604 0.26,0.523 0.634,0.208 1.05,-0.032 1.518,-0.182 c 0.197,-0.063 0.331,-0.041 0.427,0.165 0.16,0.34 0.307,0.68 0.339,1.12 C 2.055,0.895 1.985,0.654 1.858,0.453 1.505,-0.107 1.666,-0.052 1.082,0.236 0.725,0.413 0.388,0.633 0,0.858"
   style="fill:#306332;fill-rule:nonzero"
   id="path46" />
            </g>
            <g
   transform="matrix(2,0,0,2,781.828,818.232)"
   id="g52">
                <path
   d="m 0,-0.328 c 0.321,0.183 0.586,0.134 0.81,-0.134 0.03,-0.035 0.077,-0.05 0.118,-0.02 0.049,0.037 0.039,0.091 0.025,0.144 C 0.841,0.085 0.567,0.184 0.214,-0.073 0.13,-0.134 0.043,-0.192 0,-0.328"
   style="fill:#316434;fill-rule:nonzero"
   id="path50" />
            </g>
            <g
   transform="matrix(2,0,0,2,781.867,822.97)"
   id="g56">
                <path
   d="M 0,0.297 C 0.04,0.17 0.123,0.117 0.196,0.058 0.525,-0.208 0.87,-0.073 0.941,0.348 0.949,0.394 0.95,0.44 0.911,0.467 0.859,0.505 0.818,0.468 0.773,0.436 0.415,0.181 0.415,0.182 0,0.297"
   style="fill:#336536;fill-rule:nonzero"
   id="path54" />
            </g>
            <g
   transform="matrix(2,0,0,2,775.098,816.149)"
   id="g60">
                <path
   d="m 0,0.024 c -0.074,0.083 0.033,0.107 0.052,0.16 -0.297,-0.05 -0.555,-0.191 -0.81,-0.344 0.263,0.023 0.517,0.076 0.758,0.184"
   style="fill:#2d612f;fill-rule:nonzero"
   id="path58" />
            </g>
            <g
   transform="matrix(2,0,0,2,792.465,807.472)"
   id="g64">
                <path
   d="M 0,13.205 C 0.288,12.982 0.538,12.789 0.813,12.577 0.464,12.414 0.134,12.26 -0.207,12.1 c 0.032,0.273 0.063,0.54 0.098,0.836 -0.139,-0.05 -0.144,-0.144 -0.162,-0.222 -0.122,-0.519 -0.385,-0.984 -0.566,-1.48 -0.073,-0.198 -0.26,-0.171 -0.384,-0.261 0.228,0.927 0.823,1.694 1.068,2.605 -0.112,0.05 -0.134,-0.052 -0.218,-0.079 0.073,0.184 0.142,0.357 0.21,0.529 -0.019,0.008 -0.037,0.017 -0.056,0.025 -0.241,-0.383 -0.481,-0.766 -0.732,-1.165 0.152,-0.039 0.232,0.097 0.422,0.103 -0.538,-0.555 -0.642,-1.263 -0.917,-1.894 -0.384,-0.883 -0.858,-1.718 -1.314,-2.562 -0.705,-1.304 -0.716,-2.61 -0.019,-3.916 0.493,-0.924 1.029,-1.827 1.399,-2.813 0.218,-0.58 0.364,-1.194 0.817,-1.669 -0.164,0 -0.259,0.142 -0.447,0.094 0.297,-0.341 0.521,-0.709 0.768,-1.079 0.051,0.112 -0.027,0.171 -0.042,0.245 -0.012,0.061 -0.139,0.168 0.069,0.132 0.061,-0.011 0.014,0.081 0.009,0.127 -0.031,0.306 -0.154,0.585 -0.316,0.833 -0.328,0.502 -0.459,1.086 -0.729,1.633 0.25,-0.031 0.388,-0.143 0.468,-0.38 C -0.633,1.3 -0.451,0.868 -0.279,0.434 -0.244,0.348 -0.224,0.249 -0.101,0.174 -0.105,0.496 -0.287,0.755 -0.302,1.058 0.067,0.885 0.422,0.719 0.805,0.539 0.584,0.363 0.376,0.198 0.122,-0.004 0.375,0.006 0.53,0.119 0.691,0.2 1.26,0.489 1.708,0.931 2.112,1.409 2.726,2.136 3.32,2.88 3.819,3.695 4.131,4.204 4.292,4.768 4.317,5.349 4.357,6.262 4.4,7.181 4.281,8.095 4.177,8.892 3.781,9.558 3.314,10.18 2.711,10.983 2.126,11.804 1.354,12.462 1.018,12.749 0.669,13.017 0.248,13.172 0.183,13.196 0.122,13.231 0,13.205"
   style="fill:#2f6230;fill-rule:nonzero"
   id="path62" />
            </g>
            <g
   transform="matrix(2,0,0,2,781.994,830.611)"
   id="g68">
                <path
   d="m 0,-2.7 c 0.336,-0.043 0.565,0.23 0.857,0.385 0.415,0.222 0.59,0.585 0.738,0.984 0.033,0.09 0.057,0.19 0.054,0.284 -0.021,0.674 -0.378,1.09 -1.117,0.89 -0.652,-0.177 -1.138,-0.59 -1.405,-1.223 -0.156,-0.372 -0.01,-0.901 0.291,-1.163 C -0.425,-2.68 -0.237,-2.709 0,-2.7"
   style="fill:#ffffff;fill-rule:nonzero"
   id="path66" />
            </g>
            <g
   transform="matrix(2,0,0,2,780.48,824.326)"
   id="g72">
                <path
   d="M 0,2.545 C -0.172,2.479 -0.333,2.393 -0.515,2.362 -0.66,2.337 -0.61,2.212 -0.622,2.127 -0.695,1.623 -0.927,1.25 -1.443,1.102 -1.092,0.544 0.093,0 0.642,0.143 c -0.798,0.208 -1.215,0.732 -1.219,1.529 0,0.11 0,0.109 0.138,0.187 0.013,0.007 0.025,0.026 0.027,0.041 0.035,0.279 0.3,0.403 0.412,0.645"
   style="fill:#ffffff;fill-rule:nonzero"
   id="path70" />
            </g>
            <g
   transform="matrix(2,0,0,2,783.605,816.201)"
   id="g76">
                <path
   d="m 0,-2.706 c 0.55,-10e-4 0.944,0.456 0.831,1.023 -0.094,0.468 -0.263,0.913 -0.746,1.146 -0.233,0.112 -0.386,0.346 -0.669,0.401 -0.71,0.137 -1.283,-0.412 -1.15,-1.126 C -1.606,-1.95 -0.7,-2.705 0,-2.706"
   style="fill:#ffffff;fill-rule:nonzero"
   id="path74" />
            </g>
            <g
   transform="matrix(2,0,0,2,781.739,811.822)"
   id="g80">
                <path
   d="m 0,2.383 c -0.87,0.083 -1.473,-0.43 -2.128,-0.949 0.606,-0.181 0.84,-0.598 0.883,-1.15 0.006,-0.083 0.036,-0.13 0.12,-0.142 0.184,-0.027 0.342,-0.12 0.538,-0.225 C -0.753,0.175 -0.941,0.362 -1.056,0.614 -1.184,0.893 -1.252,1.098 -1.101,1.45 -0.89,1.942 -0.555,2.287 0,2.383"
   style="fill:#ffffff;fill-rule:nonzero"
   id="path78" />
            </g>
            <g
   transform="matrix(2,0,0,2,797.974,823.922)"
   id="g84">
                <path
   d="m 0,-3.432 c 0.138,0.04 0.373,-0.124 0.432,0.196 0.027,0.146 -0.004,0.205 -0.127,0.263 -0.334,0.158 -0.666,0.321 -0.994,0.492 -0.083,0.044 -0.239,0.07 -0.199,0.204 0.035,0.116 0.18,0.088 0.279,0.091 0.344,0.011 0.687,0.016 1.031,0.011 0.134,-0.002 0.173,0.036 0.187,0.174 0.08,0.829 0.084,0.828 -0.738,0.841 -0.202,0.004 -0.405,0.008 -0.607,0.021 -0.056,0.003 -0.134,0.002 -0.157,0.073 -0.028,0.09 0.046,0.127 0.108,0.158 0.345,0.175 0.689,0.354 1.039,0.519 0.145,0.068 0.223,0.132 0.174,0.316 C 0.375,0.124 0.25,0.108 0.108,0.093 0.09,0.091 0.073,0.091 0.055,0.089 -0.792,0.003 -0.789,0.003 -0.978,-0.833 -1.125,-1.484 -1.09,-2.126 -0.907,-2.763 -0.72,-3.409 -0.719,-3.408 0,-3.432"
   style="fill:#ffffff;fill-rule:nonzero"
   id="path82" />
            </g>
            <g
   transform="matrix(2,0,0,2,791.098,817.608)"
   id="g88">
                <path
   d="M 0,0.402 C -0.553,0.597 -1.113,0.651 -1.685,0.549 -1.804,0.527 -1.903,0.483 -1.93,0.346 -1.968,0.155 -1.887,-0.001 -1.772,-0.137 -1.676,-0.249 -1.564,-0.182 -1.46,-0.131 -0.994,0.1 -0.511,0.282 0,0.402"
   style="fill:#ffffff;fill-rule:nonzero"
   id="path86" />
            </g>
            <g
   transform="matrix(2,0,0,2,790.981,823.635)"
   id="g92">
                <path
   d="m 0,-0.442 c -0.522,0.15 -1.013,0.347 -1.493,0.579 -0.186,0.089 -0.275,-0.054 -0.337,-0.197 -0.071,-0.166 -0.124,-0.334 0.076,-0.463 0.126,-0.081 0.268,-0.078 0.406,-0.094 0.459,-0.051 0.907,0.01 1.348,0.175"
   style="fill:#ffffff;fill-rule:nonzero"
   id="path90" />
            </g>
            <g
   transform="matrix(2,0,0,2,786.733,818.253)"
   id="g96">
                <path
   d="M 0,2.314 C -0.26,1.543 -0.264,0.771 0.005,0 0.218,0.772 0.234,1.543 0,2.314"
   style="fill:#ffffff;fill-rule:nonzero"
   id="path94" />
            </g>
            <g
   transform="matrix(0.562331,1.91932,1.91932,-0.562331,797.812,817.263)"
   id="g100">
                <path
   d="M 0.843,-0.508 C 0.757,-0.096 0.668,0.314 0.59,0.727 0.553,0.916 0.658,1.001 0.843,1.007 1.056,1.014 1.213,0.892 1.179,0.702 1.102,0.292 1.021,-0.117 0.843,-0.508"
   style="fill:#ffffff;fill-rule:nonzero"
   id="path98" />
            </g>
            <g
   transform="matrix(-0.551005,1.9226,1.9226,0.551005,799.834,821.341)"
   id="g104">
                <path
   d="M 0.669,-1.129 C 0.496,-0.724 0.404,-0.309 0.342,0.109 0.313,0.313 0.473,0.396 0.669,0.392 0.834,0.389 0.96,0.323 0.928,0.144 0.853,-0.283 0.756,-0.705 0.669,-1.129"
   style="fill:#ffffff;fill-rule:nonzero"
   id="path102" />
            </g>
            <g
   transform="matrix(2,0,0,2,800.625,822.037)"
   id="g108">
                <path
   d="M 0,-1.463 V 0 c -0.117,-0.123 -0.207,-0.244 -0.378,-0.216 -0.1,0.016 -0.103,-0.061 -0.102,-0.139 0.002,-0.245 0.003,-0.491 -0.007,-0.737 -0.004,-0.099 0.021,-0.161 0.124,-0.145 0.151,0.023 0.24,-0.067 0.363,-0.226"
   style="fill:#ffffff;fill-rule:nonzero"
   id="path106" />
            </g>
            <g
   transform="matrix(2,0,0,2,790.937,826.698)"
   id="g112">
                <path
   d="m 0,-0.684 c -0.228,0.275 -0.421,0.462 -0.662,0.587 -0.117,0.061 -0.251,0.103 -0.373,0.003 -0.126,-0.104 -0.159,-0.249 -0.147,-0.404 0.008,-0.117 0.06,-0.192 0.2,-0.188 0.304,0.007 0.608,0.002 0.982,0.002"
   style="fill:#ffffff;fill-rule:nonzero"
   id="path110" />
            </g>
            <g
   transform="matrix(2,0,0,2,790.51,814.507)"
   id="g116">
                <path
   d="m 0,0.669 c -0.274,0 -0.511,-0.003 -0.749,0.001 -0.109,0.003 -0.194,-0.019 -0.212,-0.143 -0.026,-0.175 0.002,-0.336 0.147,-0.453 0.083,-0.065 0.168,-0.078 0.262,0.002 0.199,0.171 0.4,0.338 0.552,0.593"
   style="fill:#ffffff;fill-rule:nonzero"
   id="path114" />
            </g>
            <g
   transform="matrix(2,0,0,2,796.509,826.335)"
   id="g120">
                <path
   d="m 0,-0.978 c 0.252,0.25 0.477,0.426 0.712,0.593 0.169,0.12 0.018,0.231 -0.067,0.279 C 0.458,0 0.251,-0.085 0.053,-0.101 0.001,-0.105 0,-0.165 0.006,-0.209 0.039,-0.443 0.001,-0.678 0,-0.978"
   style="fill:#ffffff;fill-rule:nonzero"
   id="path118" />
            </g>
            <g
   transform="matrix(2,0,0,2,796.529,814.909)"
   id="g124">
                <path
   d="M 0,0.944 C -0.011,0.66 0.053,0.443 -0.002,0.225 -0.033,0.104 0.026,0.048 0.15,0.046 0.238,0.044 0.325,0.028 0.412,0.018 0.569,0 0.688,0.052 0.751,0.204 0.821,0.375 0.648,0.385 0.575,0.441 0.389,0.585 0.199,0.723 0,0.944"
   style="fill:#ffffff;fill-rule:nonzero"
   id="path122" />
            </g>
            <g
   transform="matrix(2,0,0,2,800.589,826.988)"
   id="g128">
                <path
   d="m 0,-1.863 c -0.101,0.675 -0.329,1.291 -0.75,1.863 -0.07,-0.152 -0.07,-0.339 -0.256,-0.389 -0.036,-0.009 -0.048,-0.046 -0.028,-0.084 0.028,-0.055 0.069,-0.079 0.128,-0.051 0.154,0.074 0.31,0.105 0.429,-0.049 0.152,-0.195 0.21,-0.424 0.164,-0.669 -0.019,-0.1 -0.081,-0.176 -0.193,-0.188 -0.061,-0.006 -0.133,0.004 -0.113,-0.095 0.016,-0.074 0.044,-0.13 0.14,-0.117 0.201,0.026 0.357,-0.051 0.479,-0.221"
   style="fill:#ffffff;fill-rule:nonzero"
   id="path126" />
            </g>
            <g
   transform="matrix(2,0,0,2,800.59,814.131)"
   id="g132">
                <path
   d="M 0,1.898 C -0.119,1.726 -0.274,1.645 -0.475,1.671 -0.568,1.683 -0.601,1.635 -0.619,1.558 -0.649,1.433 -0.551,1.468 -0.492,1.455 -0.382,1.432 -0.325,1.353 -0.31,1.253 -0.272,1.017 -0.329,0.797 -0.47,0.607 -0.576,0.464 -0.723,0.468 -0.874,0.535 -0.933,0.562 -0.991,0.585 -1.031,0.51 -1.083,0.413 -0.989,0.43 -0.948,0.397 -0.841,0.313 -0.782,0.197 -0.78,0 -0.323,0.591 -0.102,1.216 0,1.898"
   style="fill:#ffffff;fill-rule:nonzero"
   id="path130" />
            </g>
            <g
   transform="matrix(0.607525,-1.9055,-1.9055,-0.607525,792.091,811.636)"
   id="g136">
                <path
   d="M -0.72,-0.338 C -0.814,0.009 -0.894,0.281 -0.959,0.557 -1.003,0.745 -0.902,0.845 -0.72,0.844 -0.554,0.842 -0.404,0.8 -0.409,0.579 -0.416,0.269 -0.592,0.021 -0.72,-0.338"
   style="fill:#ffffff;fill-rule:nonzero"
   id="path134" />
            </g>
            <g
   transform="matrix(2,0,0,2,792.223,829.21)"
   id="g140">
                <path
   d="m 0,-0.623 c -0.279,0.213 -0.432,0.446 -0.694,0.551 -0.114,0.046 -0.22,0.072 -0.309,-0.037 -0.081,-0.098 -0.13,-0.209 -0.087,-0.339 0.042,-0.126 0.155,-0.129 0.259,-0.136 0.25,-0.016 0.5,-0.024 0.831,-0.039"
   style="fill:#ffffff;fill-rule:nonzero"
   id="path138" />
            </g>
            <g
   transform="matrix(2,0,0,2,796.059,827.764)"
   id="g144">
                <path
   d="m 0,-0.569 c 0.351,0.017 0.702,0.031 1.053,0.051 0.073,0.004 0.172,-0.019 0.207,0.075 0.043,0.115 -0.021,0.207 -0.099,0.281 C 1.095,-0.101 1.039,0 0.918,-0.061 0.607,-0.219 0.296,-0.376 -0.015,-0.533 -0.01,-0.545 -0.005,-0.557 0,-0.569"
   style="fill:#ffffff;fill-rule:nonzero"
   id="path142" />
            </g>
            <g
   transform="matrix(2,0,0,2,796.183,813.402)"
   id="g148">
                <path
   d="M 0,0.566 C 0.287,0.292 0.589,0.21 0.856,0.065 0.974,0 1.033,0.1 1.098,0.162 1.174,0.235 1.237,0.327 1.201,0.441 1.17,0.542 1.072,0.515 0.999,0.519 0.689,0.537 0.379,0.549 0,0.566"
   style="fill:#ffffff;fill-rule:nonzero"
   id="path146" />
            </g>
            <g
   transform="matrix(2,0,0,2,797.431,825.678)"
   id="g152">
                <path
   d="m 0,-0.568 h 0.821 c 0.121,0.001 0.243,0.025 0.277,0.154 0.034,0.127 -0.031,0.24 -0.129,0.326 C 0.867,0 0.772,-0.054 0.681,-0.113 0.463,-0.255 0.211,-0.345 0,-0.568"
   style="fill:#ffffff;fill-rule:nonzero"
   id="path150" />
            </g>
            <g
   transform="matrix(0.443165,1.95028,1.95028,-0.443165,797.81,815.089)"
   id="g156">
                <path
   d="M 0.703,-0.344 C 0.521,-0.056 0.454,0.244 0.395,0.536 0.354,0.73 0.551,0.762 0.703,0.771 0.871,0.781 0.922,0.655 0.901,0.526 0.856,0.244 0.814,-0.041 0.703,-0.344"
   style="fill:#ffffff;fill-rule:nonzero"
   id="path154" />
            </g>
            <g
   transform="matrix(2,0,0,2,794.967,811.307)"
   id="g160">
                <path
   d="M 0,0.724 C 0.17,0.438 0.307,0.218 0.546,0.08 0.641,0.025 0.72,0 0.808,0.073 0.913,0.161 0.993,0.271 0.979,0.411 0.968,0.532 0.84,0.501 0.766,0.519 0.531,0.577 0.287,0.599 0,0.724"
   style="fill:#ffffff;fill-rule:nonzero"
   id="path158" />
            </g>
            <g
   transform="matrix(2,0,0,2,796.617,809.041)"
   id="g164">
                <path
   d="M 0,0.966 C -0.225,1.009 -0.405,0.943 -0.539,0.752 -0.721,0.493 -0.936,0.263 -1.165,0.038 -0.954,-0.043 -0.255,0.523 0,0.966"
   style="fill:#ffffff;fill-rule:nonzero"
   id="path162" />
            </g>
            <g
   transform="matrix(2,0,0,2,794.422,830.048)"
   id="g168">
                <path
   d="M 0,1.068 C 0.238,0.749 0.477,0.437 0.714,0.125 0.809,0 0.968,0.136 1.095,0.068 0.788,0.473 0.483,0.868 0,1.068"
   style="fill:#ffffff;fill-rule:nonzero"
   id="path166" />
            </g>
            <g
   transform="matrix(2,0,0,2,795.157,829.964)"
   id="g172">
                <path
   d="m 0,-0.714 c 0.252,0.056 0.503,0.124 0.757,0.165 0.172,0.027 0.147,0.123 0.102,0.223 C 0.798,-0.192 0.699,0 0.546,-0.101 0.324,-0.249 0.156,-0.478 -0.035,-0.672 -0.023,-0.686 -0.012,-0.7 0,-0.714"
   style="fill:#ffffff;fill-rule:nonzero"
   id="path170" />
            </g>
            <g
   transform="matrix(2,0,0,2,797.466,813.368)"
   id="g176">
                <path
   d="m 0,-0.702 c 0.127,0.18 0.236,0.335 0.381,0.541 C 0.198,-0.247 0.107,0 -0.046,-0.146 -0.253,-0.345 -0.026,-0.498 0,-0.702"
   style="fill:#ffffff;fill-rule:nonzero"
   id="path174" />
            </g>
            <g
   transform="matrix(2,0,0,2,797.468,827.758)"
   id="g180">
                <path
   d="M 0,0.727 C -0.029,0.519 -0.246,0.384 -0.056,0.178 0.108,0 0.193,0.301 0.346,0.23 0.239,0.383 0.132,0.537 0,0.727"
   style="fill:#ffffff;fill-rule:nonzero"
   id="path178" />
            </g>
            <g
   transform="matrix(2,0,0,2,789.561,827.032)"
   id="g184">
                <path
   d="M 0,0.736 C -0.128,0.485 -0.251,0.243 -0.374,0 0.023,0.009 0.141,0.236 0,0.736"
   style="fill:#ffffff;fill-rule:nonzero"
   id="path182" />
            </g>
            <g
   transform="matrix(2,0,0,2,788.155,816.979)"
   id="g188">
                <path
   d="M 0,-0.854 C 0.069,-0.397 -0.076,-0.152 -0.486,0 -0.324,-0.285 -0.178,-0.542 0,-0.854"
   style="fill:#ffffff;fill-rule:nonzero"
   id="path186" />
            </g>
            <g
   transform="matrix(2,0,0,2,788.79,812.688)"
   id="g192">
                <path
   d="M 0,0.747 C 0.133,0.485 0.255,0.243 0.378,0 0.546,0.439 0.435,0.676 0,0.747"
   style="fill:#ffffff;fill-rule:nonzero"
   id="path190" />
            </g>
            <g
   transform="matrix(2,0,0,2,787.241,825.819)"
   id="g196">
                <path
   d="M 0,-0.779 C 0.362,-0.687 0.524,-0.416 0.46,0 0.263,-0.246 0.147,-0.512 0,-0.779"
   style="fill:#ffffff;fill-rule:nonzero"
   id="path194" />
            </g>
            <g
   transform="matrix(2,0,0,2,793.845,829.893)"
   id="g200">
                <path
   d="M 0,1.025 C 0.272,0.693 0.548,0.363 0.781,0 0.647,0.436 0.404,0.79 0,1.025"
   style="fill:#ffffff;fill-rule:nonzero"
   id="path198" />
            </g>
            <g
   transform="matrix(0.812676,-1.82745,-1.82745,-0.812676,796.8,812.896)"
   id="g204">
                <path
   d="m -0.213,-0.157 c -0.11,0.002 -0.21,0.096 -0.23,0.171 -0.043,0.159 0.136,0.216 0.23,0.294 0.108,0.086 0.134,-0.063 0.181,-0.12 0.039,-0.049 -0.103,-0.316 -0.181,-0.345"
   style="fill:#ffffff;fill-rule:nonzero"
   id="path202" />
            </g>
            <g
   transform="matrix(-1.99818,0.0853921,0.0853921,1.99818,796.614,828.372)"
   id="g208">
                <path
   d="m 0.088,-0.472 c -0.09,0.074 -0.273,0.083 -0.241,0.182 0.035,0.103 0.063,0.287 0.241,0.287 0.064,-0.001 0.198,-0.01 0.164,-0.11 -0.04,-0.119 -0.053,-0.265 -0.164,-0.359"
   style="fill:#ffffff;fill-rule:nonzero"
   id="path206" />
            </g>
            <g
   transform="matrix(2,0,0,2,794.554,811.342)"
   id="g212">
                <path
   d="M 0,-0.659 C 0.225,-0.497 0.383,-0.293 0.462,-0.04 0.441,-0.026 0.42,-0.013 0.399,0 0.266,-0.22 0.133,-0.439 0,-0.659"
   style="fill:#ffffff;fill-rule:nonzero"
   id="path210" />
            </g>
        </g>
    </g>
</svg>
