<?xml version="1.0" encoding="UTF-8" standalone="no"?>
<svg
   width="40.25906"
   height="35.801582"
   viewBox="0 0 40.25906 35.801582"
   version="1.1"
   xml:space="preserve"
   style="clip-rule:evenodd;fill-rule:evenodd;stroke-linejoin:round;stroke-miterlimit:2"
   id="svg98"
   sodipodi:docname="doom_warrior.svg"
   inkscape:version="1.1.1 (3bf5ae0d25, 2021-09-20)"
   xmlns:inkscape="http://www.inkscape.org/namespaces/inkscape"
   xmlns:sodipodi="http://sodipodi.sourceforge.net/DTD/sodipodi-0.dtd"
   xmlns="http://www.w3.org/2000/svg"
   xmlns:svg="http://www.w3.org/2000/svg"><defs
   id="defs102" /><sodipodi:namedview
   id="namedview100"
   pagecolor="#ffffff"
   bordercolor="#666666"
   borderopacity="1.0"
   inkscape:pageshadow="2"
   inkscape:pageopacity="0.0"
   inkscape:pagecheckerboard="0"
   showgrid="false"
   inkscape:zoom="22.944444"
   inkscape:cx="20.506053"
   inkscape:cy="18"
   inkscape:window-width="1920"
   inkscape:window-height="1012"
   inkscape:window-x="-8"
   inkscape:window-y="-8"
   inkscape:window-maximized="1"
   inkscape:current-layer="svg98" />
    <g
   transform="translate(-841.53542,-868.74413)"
   id="g96">
        <g
   transform="rotate(90,608.5495,912.5605)"
   id="g94">
            <g
   transform="matrix(2,0,0,2,584.661,644.101)"
   id="g4">
                <path
   d="m 0,15.389 c 0.095,0.287 0.18,0.541 0.262,0.797 0.017,0.05 0.043,0.111 -0.019,0.15 -0.06,0.038 -0.106,-0.005 -0.147,-0.043 -0.638,-0.604 -1.439,-0.722 -2.268,-0.758 -0.096,-0.004 -0.184,0.004 -0.265,0.073 -0.599,0.508 -1.212,1.001 -1.744,1.583 -0.059,0.064 -0.118,0.129 -0.173,0.196 -0.34,0.412 -0.338,0.407 -0.845,0.255 -0.802,-0.239 -1.543,-0.615 -2.29,-0.987 -0.365,-0.182 -0.617,-0.436 -0.832,-0.77 -0.653,-1.012 -1.188,-2.078 -1.557,-3.225 -0.038,-0.116 -0.157,-0.282 -0.026,-0.367 0.119,-0.077 0.22,0.092 0.303,0.175 0.328,0.331 0.744,0.471 1.18,0.577 0.098,0.024 0.191,0.014 0.279,-0.024 0.411,-0.178 0.801,-0.387 1.068,-0.767 0.155,-0.221 0.39,-0.419 0.449,-0.663 0.059,-0.24 -0.212,-0.452 -0.302,-0.695 C -6.968,10.785 -7.026,10.68 -7.066,10.568 -7.256,10.048 -7.433,9.523 -7.741,9.054 -7.819,8.936 -7.875,8.804 -7.665,8.743 -7.574,8.716 -7.589,8.642 -7.598,8.567 -7.673,7.974 -7.684,7.38 -7.618,6.785 -7.611,6.718 -7.577,6.628 -7.667,6.597 -7.865,6.527 -7.821,6.406 -7.742,6.281 -7.503,5.902 -7.365,5.482 -7.234,5.057 -7.105,4.639 -6.918,4.244 -6.711,3.859 -6.672,3.786 -6.602,3.718 -6.675,3.623 -6.968,3.241 -7.23,2.846 -7.642,2.555 -8.215,2.151 -8.731,2.296 -9.255,2.603 -9.431,2.706 -9.578,2.858 -9.737,2.989 -9.793,3.035 -9.854,3.096 -9.924,3.042 -9.978,3 -9.948,2.925 -9.931,2.863 c 0.18,-0.635 0.417,-1.25 0.711,-1.838 0.337,-0.674 0.709,-1.329 1.153,-1.942 0.092,-0.126 0.198,-0.21 0.342,-0.277 0.331,-0.152 0.651,-0.327 0.975,-0.496 0.551,-0.287 1.135,-0.488 1.726,-0.675 0.142,-0.045 0.256,-0.041 0.375,0.055 0.474,0.385 0.925,0.796 1.342,1.242 0.272,0.291 0.573,0.548 0.878,0.801 0.074,0.062 0.157,0.067 0.245,0.066 0.833,-0.02 1.625,-0.166 2.275,-0.745 0.041,-0.036 0.081,-0.09 0.143,-0.056 0.076,0.042 0.041,0.111 0.024,0.169 -0.037,0.13 -0.063,0.266 -0.124,0.384 C 0.02,-0.23 0.115,-0.215 0.308,-0.21 1.22,-0.19 2.104,-0.016 2.955,0.317 6.2,1.586 8.204,4.804 7.908,8.269 7.619,11.669 5.13,14.486 1.77,15.216 1.193,15.342 0.61,15.398 0,15.389"
   style="fill:#2f6230;fill-rule:nonzero"
   id="path2" />
            </g>
            <g
   transform="matrix(2,0,0,2,580.557,654.974)"
   id="g8">
                <path
   d="m 0,-2.074 c 0.6,0.027 1.165,0.036 1.731,-0.057 0.382,-0.063 0.711,-0.204 1,-0.453 C 3.159,-2.951 3.202,-3.585 2.813,-4.185 4.77,-4.244 6.452,-3.646 7.87,-2.318 7.507,-2.393 7.147,-2.514 6.779,-2.475 6.144,-2.407 5.534,-2.27 5.125,-1.693 4.919,-1.403 4.674,-1.141 4.446,-0.867 4.392,-0.802 4.341,-0.754 4.25,-0.83 3.752,-1.251 3.144,-1.397 2.522,-1.506 2.359,-1.534 2.197,-1.565 2.032,-1.595 2.312,-0.793 3.294,0.547 4.723,2.08 4.699,2.158 4.633,2.128 4.585,2.129 3.411,2.142 2.236,2.151 1.062,2.168 0.926,2.17 0.839,2.124 0.762,2.018 0.405,1.525 -0.009,1.068 -0.208,0.476 -0.233,0.404 -0.279,0.351 -0.341,0.313 -0.803,0.027 -0.948,-0.505 -1.28,-0.893 c -0.101,-0.116 0.039,-0.128 0.097,-0.15 0.413,-0.162 0.828,-0.318 1.244,-0.474 0.276,-0.104 0.283,-0.123 0.1,-0.35 C 0.113,-1.926 0.067,-1.988 0,-2.074"
   style="fill:#ffffff;fill-rule:nonzero"
   id="path6" />
            </g>
            <g
   transform="matrix(2,0,0,2,596.3,663.381)"
   id="g12">
                <path
   d="M 0,2.578 C -1.415,3.897 -3.095,4.5 -5.098,4.446 -4.846,4.208 -4.772,3.96 -4.786,3.674 -4.796,3.467 -4.842,3.279 -4.969,3.12 -5.275,2.735 -5.663,2.484 -6.155,2.392 -6.713,2.287 -7.274,2.304 -7.837,2.333 -7.835,2.308 -7.84,2.289 -7.833,2.279 -7.461,1.82 -7.508,1.892 -8.007,1.703 -8.348,1.574 -8.687,1.44 -9.03,1.315 -9.16,1.268 -9.22,1.232 -9.104,1.094 c 0.596,-0.713 1.1,-1.491 1.589,-2.28 0.104,-0.168 0.24,-0.314 0.356,-0.474 0.126,-0.172 0.28,-0.227 0.501,-0.226 0.889,0.006 1.778,-0.016 2.668,-0.031 0.282,-0.004 0.563,-0.005 0.856,0.091 -0.407,0.387 -0.78,0.793 -1.123,1.226 -0.33,0.417 -0.646,0.844 -0.941,1.287 -0.158,0.239 -0.34,0.455 -0.628,0.614 0.096,0.013 0.152,0.021 0.207,0.029 -0.139,0.614 -0.654,0.436 -1.054,0.513 0.401,0.184 0.613,0.183 0.994,0.034 0.206,-0.081 0.421,-0.145 0.637,-0.194 0.437,-0.099 0.855,-0.239 1.235,-0.482 0.168,-0.108 0.301,-0.127 0.463,0.053 0.219,0.242 0.422,0.495 0.632,0.744 0.494,0.586 1.151,0.746 1.877,0.725 C -0.551,2.715 -0.281,2.622 0,2.578"
   style="fill:#ffffff;fill-rule:nonzero"
   id="path10" />
            </g>
            <g
   transform="matrix(2,0,0,2,569.818,662.153)"
   id="g16">
                <path
   d="m 0,-2.721 c 0.244,-0.538 0.606,-0.987 0.968,-1.438 0.231,-0.288 0.478,-0.448 0.884,-0.403 0.598,0.067 1.205,0.024 1.806,0.094 0.113,0.013 0.188,0.057 0.252,0.149 0.151,0.214 0.312,0.421 0.466,0.632 0.094,0.128 0.19,0.243 0.337,0.323 0.214,0.116 0.354,0.293 0.423,0.545 0.114,0.412 0.413,0.728 0.637,1.082 0.28,0.443 0.252,0.338 -0.006,0.74 C 5.436,-0.483 5.079,0.013 4.775,0.544 4.533,0.967 4.162,1.291 3.858,1.668 3.802,1.738 3.722,1.739 3.643,1.748 3.027,1.818 2.403,1.777 1.79,1.845 1.421,1.886 1.212,1.724 1.006,1.483 0.65,1.065 0.32,0.63 0.062,0.143 0.009,0.044 -0.031,-0.045 0.137,-0.037 0.517,-0.018 0.893,-0.092 1.277,-0.032 1.558,0.011 1.796,0.119 2.001,0.295 2.127,0.404 2.193,0.378 2.284,0.27 2.444,0.083 2.618,-0.092 2.777,-0.28 3.105,-0.67 3.453,-1.035 3.927,-1.255 4.02,-1.298 4.148,-1.389 3.967,-1.462 3.211,-1.763 2.799,-2.442 2.261,-2.982 2.162,-3.081 2.102,-3.121 1.973,-3.027 1.626,-2.775 1.232,-2.686 0.803,-2.717 0.543,-2.736 0.281,-2.721 0,-2.721"
   style="fill:#ffffff;fill-rule:nonzero"
   id="path14" />
            </g>
            <g
   transform="matrix(2,0,0,2,565.978,671.214)"
   id="g20">
                <path
   d="m 0,-0.516 c 0.376,0.124 0.708,0.224 1.055,0.264 0.055,0.006 0.123,0.034 0.162,0.012 C 1.637,-0.469 2.119,-0.6 2.421,-1.011 2.735,-1.439 3,-1.902 3.348,-2.305 3.408,-2.375 3.467,-2.422 3.565,-2.429 4.126,-2.466 4.688,-2.508 5.249,-2.552 5.461,-2.569 5.461,-2.454 5.434,-2.298 5.303,-1.539 4.902,-0.914 4.447,-0.32 4.093,0.143 3.676,0.525 3.076,0.643 3.04,0.65 3.008,0.677 2.962,0.701 3.173,0.716 3.72,0.651 3.892,0.589 4.664,0.314 5.4,-0.037 6.076,-0.503 c 0.154,-0.106 0.271,-0.11 0.43,-0.02 0.303,0.172 0.611,0.338 0.931,0.475 C 7.79,0.103 8.031,0.378 8.256,0.66 8.581,1.067 8.866,1.506 9.113,2.053 8.972,1.94 8.884,1.871 8.797,1.8 8.416,1.489 8.025,1.204 7.542,1.053 6.93,0.861 6.339,0.604 5.705,0.478 5.589,0.455 5.491,0.465 5.385,0.513 4.617,0.863 3.801,1.076 3.001,1.333 2.588,1.465 2.225,1.27 1.875,1.082 1.32,0.785 0.829,0.395 0.347,-0.007 0.193,-0.134 0.153,-0.33 0,-0.516"
   style="fill:#ffffff;fill-rule:nonzero"
   id="path18" />
            </g>
            <g
   transform="matrix(2,0,0,2,566.013,647.907)"
   id="g24">
                <path
   d="m 0,0.376 c 0.478,-0.666 1.07,-1.164 1.763,-1.538 0.427,-0.23 0.858,-0.31 1.362,-0.156 0.743,0.228 1.482,0.467 2.218,0.718 0.087,0.03 0.168,0.04 0.255,0.019 0.842,-0.2 1.667,-0.458 2.456,-0.817 C 8.407,-1.559 8.728,-1.78 9.018,-2.05 8.742,-1.471 8.403,-0.937 7.959,-0.472 7.816,-0.321 7.657,-0.196 7.468,-0.104 7.119,0.065 6.771,0.24 6.43,0.425 6.306,0.492 6.215,0.479 6.104,0.404 5.423,-0.053 4.699,-0.425 3.922,-0.693 3.617,-0.799 3.3,-0.804 2.977,-0.823 3.138,-0.748 3.295,-0.661 3.462,-0.601 3.901,-0.443 4.221,-0.139 4.47,0.237 4.842,0.799 5.206,1.369 5.383,2.032 5.455,2.302 5.44,2.34 5.175,2.367 4.602,2.426 4.034,2.356 3.469,2.266 3.334,2.244 3.264,2.124 3.191,2.023 2.993,1.746 2.784,1.473 2.612,1.18 2.386,0.794 2.051,0.56 1.677,0.335 1.3,0.107 0.945,0.087 0.55,0.222 0.38,0.281 0.202,0.32 0,0.376"
   style="fill:#ffffff;fill-rule:nonzero"
   id="path22" />
            </g>
            <g
   transform="matrix(2,0,0,2,583.247,643.923)"
   id="g28">
                <path
   d="M 0,-0.078 C -0.412,0.267 -0.867,0.535 -1.367,0.723 -1.908,0.926 -2.444,1.15 -3.018,1.251 -3.137,1.272 -3.251,1.295 -3.369,1.252 -4.196,0.956 -5.023,0.66 -5.844,0.365 -5.849,0.263 -5.763,0.232 -5.745,0.161 -5.766,0.129 -5.792,0.139 -5.82,0.154 c -0.932,0.498 -1.922,0.905 -2.656,1.709 -0.008,0.009 -0.025,0.009 -0.068,0.023 0.415,-0.914 0.816,-1.807 1.482,-2.55 0.092,-0.103 0.206,-0.176 0.321,-0.244 0.708,-0.421 1.443,-0.787 2.264,-1.056 -0.076,0.217 -0.218,0.364 -0.233,0.575 0.145,-0.163 0.294,-0.313 0.474,-0.432 0.146,-0.097 0.249,-0.097 0.394,0.024 0.65,0.537 1.19,1.187 1.835,1.73 0.156,0.13 0.279,0.19 0.462,0.182 C -1.283,0.105 -1.022,0.09 -0.761,0.093 -0.492,0.097 -0.252,0 0,-0.078"
   style="fill:#ffffff;fill-rule:nonzero"
   id="path26" />
            </g>
            <g
   transform="matrix(2,0,0,2,571.656,675.46)"
   id="g32">
                <path
   d="m 0,-0.383 c -0.057,-0.153 0.029,-0.201 0.142,-0.238 0.806,-0.26 1.615,-0.514 2.402,-0.83 0.09,-0.035 0.17,-0.021 0.255,0 0.703,0.167 1.393,0.377 2.073,0.614 0.372,0.13 0.635,0.431 0.943,0.669 C 5.263,-0.404 4.684,-0.373 4.107,-0.364 3.992,-0.362 3.861,-0.383 3.836,-0.212 3.834,-0.194 3.804,-0.179 3.785,-0.164 3.097,0.377 2.546,1.065 1.871,1.621 1.749,1.722 1.643,1.755 1.486,1.72 0.55,1.511 -0.272,1.052 -1.082,0.564 -1.148,0.524 -1.207,0.466 -1.26,0.408 -1.934,-0.329 -2.331,-1.226 -2.718,-2.138 -1.955,-1.342 -0.986,-0.875 0,-0.383"
   style="fill:#ffffff;fill-rule:nonzero"
   id="path30" />
            </g>
            <g
   transform="matrix(2,0,0,2,599.341,655.129)"
   id="g36">
                <path
   d="m 0,1.711 h -2.771 c -0.42,0 -0.841,-0.004 -1.261,0.002 C -4.162,1.715 -4.253,1.673 -4.338,1.575 -4.515,1.372 -4.696,1.171 -4.892,0.985 -5.024,0.86 -4.98,0.788 -4.854,0.715 c 0.034,-0.019 0.075,-0.043 0.11,-0.04 0.347,0.029 0.58,-0.168 0.815,-0.382 0.144,-0.13 0.331,-0.184 0.527,-0.195 0.57,-0.034 1.14,-0.065 1.71,-0.098 0.081,-0.004 0.156,-0.002 0.222,0.059 0.525,0.484 1.029,0.986 1.47,1.652"
   style="fill:#ffffff;fill-rule:nonzero"
   id="path34" />
            </g>
            <g
   transform="matrix(2,0,0,2,599.263,663.675)"
   id="g40">
                <path
   d="m 0,-1.631 c -0.209,0.349 -0.471,0.642 -0.74,0.929 -0.701,0.747 -0.702,0.749 -1.719,0.687 -0.355,-0.021 -0.71,-0.044 -1.065,-0.091 -0.256,-0.034 -0.432,-0.158 -0.56,-0.351 -0.078,-0.119 -0.152,-0.157 -0.286,-0.138 -0.143,0.02 -0.286,-0.01 -0.419,-0.065 -0.143,-0.059 -0.204,-0.146 -0.068,-0.285 0.206,-0.209 0.406,-0.424 0.602,-0.641 0.059,-0.066 0.119,-0.092 0.205,-0.092 1.323,0.008 2.647,0.014 3.97,0.021 0.021,0 0.041,0.013 0.08,0.026"
   style="fill:#ffffff;fill-rule:nonzero"
   id="path38" />
            </g>
            <g
   transform="matrix(2,0,0,2,596.41,664.672)"
   id="g44">
                <path
   d="M 0,-0.212 C -0.305,0.163 -0.677,0.468 -1.036,0.786 -1.054,0.802 -1.079,0.821 -1.098,0.819 -1.44,0.774 -1.825,0.883 -2.093,0.565 -2.208,0.429 -2.341,0.363 -2.516,0.338 -2.84,0.293 -3.111,0.128 -3.358,-0.078 -3.409,-0.121 -3.451,-0.162 -3.457,-0.232 -3.48,-0.515 -3.505,-0.797 -3.531,-1.095 c 0.187,0.066 0.354,0.122 0.53,0.118 0.106,-0.002 0.153,0.069 0.208,0.136 0.203,0.248 0.443,0.404 0.782,0.437 0.615,0.058 1.228,0.145 1.848,0.151 0.05,0 0.11,-0.023 0.163,0.041"
   style="fill:#ffffff;fill-rule:nonzero"
   id="path42" />
            </g>
            <g
   transform="matrix(2,0,0,2,589.349,652.443)"
   id="g48">
                <path
   d="M 0,1.962 C 0.024,1.68 0.048,1.406 0.069,1.131 0.076,1.042 0.128,0.99 0.192,0.938 0.449,0.728 0.734,0.579 1.065,0.531 1.197,0.513 1.307,0.469 1.388,0.359 1.526,0.171 1.726,0.153 1.942,0.103 2.384,0 2.662,0.22 2.941,0.482 3.148,0.676 3.35,0.876 3.545,1.064 3.518,1.145 3.475,1.136 3.437,1.136 2.785,1.135 2.141,1.215 1.494,1.287 1.213,1.318 0.988,1.424 0.819,1.635 0.696,1.79 0.558,1.868 0.361,1.876 0.246,1.88 0.133,1.929 0,1.962"
   style="fill:#ffffff;fill-rule:nonzero"
   id="path46" />
            </g>
            <g
   transform="matrix(2,0,0,2,577.255,659.42)"
   id="g52">
                <path
   d="M 0,0.016 C -0.472,0.086 -0.635,0.479 -0.887,0.761 -0.983,0.867 -1.074,0.909 -1.215,0.895 -1.563,0.86 -1.904,0.8 -2.237,0.687 -2.371,0.641 -2.463,0.568 -2.504,0.441 -2.597,0.156 -2.595,-0.135 -2.507,-0.421 c 0.038,-0.125 0.131,-0.201 0.265,-0.247 0.341,-0.117 0.689,-0.18 1.046,-0.214 0.119,-0.011 0.205,0.014 0.287,0.115 0.249,0.308 0.457,0.666 0.909,0.783"
   style="fill:#ffffff;fill-rule:nonzero"
   id="path50" />
            </g>
            <g
   transform="matrix(2,0,0,2,574.756,666.258)"
   id="g56">
                <path
   d="M 0,2.569 C 0.565,1.838 0.995,1.034 1.317,0.171 1.372,0.022 1.473,-0.034 1.652,0.047 1.969,0.189 2.301,0.3 2.629,0.418 2.781,0.473 2.818,0.545 2.7,0.673 2.48,0.914 2.325,1.201 2.15,1.474 2.106,1.543 2.068,1.646 1.952,1.569 1.815,1.479 1.719,1.554 1.614,1.637 1.155,2.004 0.68,2.346 0.125,2.556 0.09,2.57 0.058,2.603 0,2.569"
   style="fill:#ffffff;fill-rule:nonzero"
   id="path54" />
            </g>
            <g
   transform="matrix(2,0,0,2,574.73,652.562)"
   id="g60">
                <path
   d="m 0,-2.58 c 0.633,0.221 1.135,0.574 1.617,0.961 0.11,0.089 0.213,0.171 0.358,0.069 0.072,-0.05 0.118,-0.004 0.156,0.053 0.198,0.295 0.361,0.615 0.604,0.88 0.054,0.059 0.028,0.09 -0.036,0.12 C 2.304,-0.31 1.886,-0.186 1.474,-0.046 1.337,0 1.33,-0.141 1.299,-0.219 1.073,-0.787 0.832,-1.346 0.49,-1.856 0.336,-2.086 0.18,-2.315 0,-2.58"
   style="fill:#ffffff;fill-rule:nonzero"
   id="path58" />
            </g>
            <g
   transform="matrix(2,0,0,2,595.651,665.237)"
   id="g64">
                <path
   d="M 0,1.505 C -0.541,1.649 -1.026,1.626 -1.51,1.501 -1.8,1.427 -2.048,1.295 -2.248,1.057 -2.563,0.682 -2.876,0.307 -3.097,-0.144 c 0.315,0.216 0.665,0.336 1.022,0.446 0.048,0.015 0.088,0.065 0.126,0.104 C -1.424,0.96 -0.806,1.351 0,1.505"
   style="fill:#ffffff;fill-rule:nonzero"
   id="path62" />
            </g>
            <g
   transform="matrix(-0.997447,-1.73352,-1.73352,0.997447,590.014,649.856)"
   id="g68">
                <path
   d="m -1.729,-2.221 c 0.255,0.739 0.232,1.47 0.009,2.2 -0.026,0.085 -0.031,0.167 -0.009,0.256 0.079,0.314 0.125,0.634 0.087,0.971 0.941,-0.932 0.899,-2.54 -0.087,-3.427"
   style="fill:#ffffff;fill-rule:nonzero"
   id="path66" />
            </g>
            <g
   transform="matrix(-0.917532,1.77711,1.77711,0.917532,588.858,651.932)"
   id="g72">
                <path
   d="M 1,-1.559 C 0.666,-0.902 0.561,-0.268 0.715,0.401 0.737,0.499 0.747,0.496 1,0.512 0.919,-0.063 0.977,-0.625 1.156,-1.174 1.206,-1.326 1.08,-1.398 1,-1.559"
   style="fill:#ffffff;fill-rule:nonzero"
   id="path70" />
            </g>
            <g
   transform="matrix(0.968549,1.74983,1.74983,-0.968549,585.493,664.473)"
   id="g76">
                <path
   d="M 0.904,-0.571 C 0.71,-0.42 0.695,-0.275 0.761,-0.073 0.92,0.408 0.978,0.907 0.904,1.416 1.136,1.44 1.188,1.338 1.218,1.137 1.306,0.532 1.165,-0.018 0.904,-0.571"
   style="fill:#ffffff;fill-rule:nonzero"
   id="path74" />
            </g>
            <g
   transform="matrix(2,0,0,2,574.595,661.443)"
   id="g80">
                <path
   d="M 0,0.187 C -0.23,0.5 -0.233,0.506 -0.538,0.368 -0.951,0.182 -1.382,0.113 -1.832,0.146 c -0.087,0.006 -0.174,0.001 -0.303,0.001 0.176,-0.169 0.388,-0.196 0.544,-0.313 0.205,-0.153 0.368,-0.029 0.549,0.043 0.168,0.068 0.343,0.122 0.517,0.173 C -0.359,0.1 -0.191,0.138 0,0.187"
   style="fill:#ffffff;fill-rule:nonzero"
   id="path78" />
            </g>
            <g
   transform="matrix(2,0,0,2,570.277,657.226)"
   id="g84">
                <path
   d="M 0,-0.02 C 0.375,-0.088 0.699,-0.001 1.02,-0.079 1.229,-0.13 1.431,-0.192 1.629,-0.27 1.937,-0.393 1.957,-0.389 2.153,-0.076 1.706,0.012 1.273,0.131 0.869,0.336 0.796,0.373 0.731,0.348 0.667,0.316 0.461,0.214 0.257,0.11 0,-0.02"
   style="fill:#ffffff;fill-rule:nonzero"
   id="path82" />
            </g>
            <g
   transform="matrix(2,0,0,2,588.188,664.713)"
   id="g88">
                <path
   d="M 0,-1.131 C 0.013,-0.514 -0.364,-0.23 -0.882,0 -0.605,-0.42 -0.32,-0.777 0,-1.131"
   style="fill:#ffffff;fill-rule:nonzero"
   id="path86" />
            </g>
            <g
   transform="matrix(2,0,0,2,588.191,654.234)"
   id="g92">
                <path
   d="M 0,1.094 C -0.319,0.738 -0.603,0.384 -0.863,0 -0.356,0.107 -0.026,0.519 0,1.094"
   style="fill:#ffffff;fill-rule:nonzero"
   id="path90" />
            </g>
        </g>
    </g>
</svg>
