<?xml version="1.0" encoding="UTF-8" standalone="no"?>
<svg
   width="39.987999"
   height="41.602421"
   viewBox="0 0 39.987999 41.602421"
   version="1.1"
   xml:space="preserve"
   style="clip-rule:evenodd;fill-rule:evenodd;stroke-linejoin:round;stroke-miterlimit:2"
   id="svg130"
   sodipodi:docname="gargoyle.svg"
   inkscape:version="1.1.1 (3bf5ae0d25, 2021-09-20)"
   xmlns:inkscape="http://www.inkscape.org/namespaces/inkscape"
   xmlns:sodipodi="http://sodipodi.sourceforge.net/DTD/sodipodi-0.dtd"
   xmlns="http://www.w3.org/2000/svg"
   xmlns:svg="http://www.w3.org/2000/svg"><defs
   id="defs134" /><sodipodi:namedview
   id="namedview132"
   pagecolor="#ffffff"
   bordercolor="#666666"
   borderopacity="1.0"
   inkscape:pageshadow="2"
   inkscape:pageopacity="0.0"
   inkscape:pagecheckerboard="0"
   showgrid="false"
   inkscape:zoom="19.666667"
   inkscape:cx="20.008475"
   inkscape:cy="21"
   inkscape:window-width="1920"
   inkscape:window-height="1012"
   inkscape:window-x="-8"
   inkscape:window-y="-8"
   inkscape:window-maximized="1"
   inkscape:current-layer="svg130" />
    <g
   transform="translate(-864.28,-373.3787)"
   id="g128">
        <g
   transform="rotate(90,847.58965,777.20035)"
   id="g126">
            <g
   transform="matrix(2,0,0,2,443.796,720.522)"
   id="g4">
                <path
   d="M 0,19.994 C -0.009,19.964 -0.015,19.954 -0.012,19.95 0.71,18.911 0.653,17.694 0.767,16.518 0.813,16.043 0.877,15.572 0.953,15.102 1.002,14.801 1.236,14.603 1.362,14.344 1.678,13.699 2.145,13.153 2.557,12.57 2.7,12.368 2.965,12.338 3.18,12.243 3.66,12.032 3.664,12.037 3.584,11.53 3.41,10.437 3.436,9.349 3.687,8.271 3.727,8.096 3.697,8.007 3.525,7.966 2.887,7.814 2.475,7.395 2.111,6.868 1.739,6.33 1.425,5.76 1.098,5.199 0.905,4.868 0.911,4.451 0.871,4.066 0.8,3.374 0.777,2.678 0.698,1.985 0.634,1.41 0.477,0.884 0.185,0.39 0.124,0.287 0.076,0.176 -0.014,0 0.466,0.274 0.914,0.407 1.322,0.689 1.961,1.132 2.233,1.784 2.569,2.412 2.806,2.856 3.014,3.314 3.343,3.702 3.405,3.776 3.468,3.847 3.563,3.884 4.137,4.11 4.699,4.368 5.295,4.539 5.43,4.578 5.516,4.577 5.613,4.46 5.917,4.092 6.258,3.757 6.636,3.465 6.79,3.347 6.751,3.272 6.653,3.154 6.41,2.862 6.157,2.582 5.874,2.327 5.819,2.277 5.71,2.236 5.761,2.147 5.828,2.027 5.916,2.145 5.987,2.166 6.527,2.33 7.065,2.498 7.601,2.674 7.737,2.718 7.82,2.637 7.916,2.585 c 1.5,-0.824 3.103,-1.199 4.811,-1.081 4.172,0.289 7.561,3.478 7.999,7.643 0.369,3.499 -0.931,6.34 -3.883,8.254 -2.979,1.932 -6.097,1.908 -9.192,0.161 C 7.502,17.478 7.381,17.445 7.211,17.501 6.784,17.64 6.344,17.739 5.924,17.901 5.877,17.919 5.823,17.967 5.78,17.913 5.722,17.843 5.793,17.803 5.836,17.764 6.1,17.53 6.346,17.278 6.57,17.005 6.65,16.909 6.651,16.856 6.552,16.774 6.129,16.425 5.747,16.034 5.405,15.604 5.332,15.511 5.268,15.505 5.158,15.537 4.572,15.708 4.022,15.972 3.456,16.192 3.351,16.233 3.287,16.316 3.22,16.399 2.913,16.779 2.7,17.215 2.48,17.648 2.289,18.025 2.086,18.396 1.885,18.768 1.772,18.978 1.554,19.076 1.391,19.231 0.994,19.608 0.503,19.791 0,19.994"
   style="fill:#2f6230;fill-rule:nonzero"
   id="path2" />
            </g>
            <g
   transform="matrix(2,0,0,2,460.194,746.095)"
   id="g8">
                <path
   d="m 0,-5.475 c 0.338,0.163 0.625,0.309 0.909,0.575 -0.577,-0.059 -1.103,-0.108 -1.633,-0.087 -0.128,0.005 -0.147,-0.106 -0.098,-0.212 0.252,-0.547 0.547,-1.066 0.964,-1.508 0.107,-0.114 0.155,-0.011 0.211,0.039 0.25,0.221 0.476,0.473 0.807,0.582 0.04,0.014 0.077,0.047 0.146,-0.002 C 0.873,-6.366 0.547,-6.748 0.19,-7.099 -0.135,-7.42 -0.382,-7.785 -0.517,-8.2 c -0.281,-0.871 -0.82,-1.548 -1.509,-2.164 0.982,0.23 1.921,0.485 2.766,0.991 0.316,0.188 0.626,0.403 0.89,0.657 0.368,0.357 0.804,0.474 1.281,0.442 0.558,-0.036 0.951,0.243 1.366,0.611 C 3.889,-7.564 3.528,-7.537 3.168,-7.592 2.865,-7.639 2.56,-7.693 2.275,-7.824 2.185,-7.866 2.071,-7.939 1.979,-7.85 1.891,-7.764 2.024,-7.679 2.019,-7.575 1.859,-7.577 1.655,-7.575 1.586,-7.7 1.511,-7.835 1.735,-7.879 1.811,-7.983 1.706,-8.024 1.609,-7.974 1.547,-7.915 1.324,-7.701 1.137,-7.824 0.943,-7.956 0.638,-8.162 0.464,-8.493 0.196,-8.737 0.068,-8.854 -0.023,-9.012 -0.131,-9.152 l -0.097,0.097 c 0.517,0.494 0.756,1.25 1.536,1.505 0.398,0.13 0.766,0.35 1.184,0.545 C 2.444,-7.231 2.282,-7.35 2.195,-7.511 2.161,-7.573 2.06,-7.637 2.13,-7.713 c 0.055,-0.059 0.129,0.015 0.193,0.038 0.592,0.214 1.187,0.396 1.831,0.278 0.24,-0.044 0.447,-0.133 0.635,-0.296 0.288,-0.25 0.437,-0.247 0.756,-0.037 0.214,0.142 0.461,0.24 0.451,0.58 -0.007,0.242 -0.098,0.43 -0.255,0.581 -0.212,0.202 -0.314,0.175 -0.526,-0.077 -0.013,0.268 0.051,0.388 0.329,0.811 0.432,0.658 1.012,1.173 1.587,1.693 0.384,0.346 0.514,0.764 0.552,1.265 0.05,0.671 -0.143,1.194 -0.671,1.625 -0.638,0.519 -1.2,1.116 -1.627,1.828 C 5.295,0.727 5.205,0.878 5.206,1.102 5.344,0.954 5.466,0.829 5.663,0.975 5.876,1.133 5.985,1.33 6.002,1.593 6.032,2.039 5.661,2.146 5.382,2.314 5.134,2.463 4.924,2.31 4.742,2.146 4.41,1.847 4.002,1.832 3.598,1.851 3.157,1.872 2.729,1.99 2.319,2.16 2.256,2.185 2.182,2.256 2.126,2.195 2.053,2.117 2.155,2.056 2.188,1.992 2.269,1.832 2.423,1.714 2.486,1.497 1.946,1.746 1.437,1.978 0.93,2.215 0.818,2.267 0.726,2.349 0.648,2.449 0.366,2.81 0.08,3.168 -0.191,3.541 0.093,3.321 0.352,3.075 0.57,2.788 0.705,2.608 0.872,2.465 1.058,2.348 1.199,2.259 1.351,2.185 1.501,2.36 1.569,2.438 1.68,2.463 1.806,2.482 1.729,2.354 1.493,2.305 1.576,2.173 1.657,2.045 1.869,2.055 2.032,2.032 2.047,2.148 1.881,2.24 1.999,2.33 2.09,2.399 2.201,2.324 2.298,2.288 2.935,2.048 3.583,1.966 4.311,2.137 3.898,2.461 3.561,2.797 3.028,2.755 2.854,2.741 2.675,2.765 2.501,2.786 2.236,2.817 1.999,2.896 1.786,3.081 1.114,3.66 0.36,4.087 -0.481,4.395 -0.979,4.578 -1.493,4.677 -2.061,4.889 -1.702,4.541 -1.409,4.237 -1.145,3.907 -0.978,3.699 -0.84,3.478 -0.75,3.225 -0.589,2.767 -0.429,2.289 -0.119,1.923 0.226,1.516 0.563,1.088 1.01,0.774 1.081,0.724 1.147,0.665 1.205,0.591 0.939,0.705 0.638,0.742 0.425,0.962 0.349,1.042 0.296,1.078 0.185,1.002 -0.313,0.663 -0.637,0.186 -0.892,-0.344 c -0.091,-0.188 0.041,-0.194 0.183,-0.195 0.571,-0.004 1.144,0.003 1.78,-0.15 -0.373,0.26 -0.689,0.479 -1.024,0.712 0.238,0.089 0.461,0.05 0.691,0.03 C 1.198,0.012 1.643,-0.09 2.084,-0.216 2.265,-0.268 2.43,-0.377 2.407,-0.604 2.367,-1.002 2.247,-1.144 1.967,-1.164 1.788,-1.176 1.618,-1.203 1.584,-1.428 1.581,-1.445 1.571,-1.461 1.563,-1.477 1.313,-2.026 1.316,-2 0.708,-1.944 c -0.336,0.03 -0.597,0.143 -0.855,0.349 -0.218,0.173 -0.488,0.28 -0.729,0.425 -0.203,0.121 -0.31,0.037 -0.378,-0.155 -0.112,-0.32 -0.147,-0.655 -0.174,-0.988 -0.05,-0.612 0.012,-1.216 0.188,-1.805 0.094,-0.316 0.158,-0.342 0.441,-0.186 0.216,0.119 0.459,0.215 0.631,0.382 0.361,0.352 0.809,0.339 1.252,0.383 0.168,0.017 0.268,-0.046 0.33,-0.195 0.028,-0.065 0.079,-0.122 0.095,-0.188 0.076,-0.308 0.27,-0.446 0.583,-0.424 0.104,0.007 0.163,-0.046 0.191,-0.143 0.041,-0.135 0.09,-0.268 0.125,-0.405 C 2.456,-5.078 2.369,-5.22 2.205,-5.271 1.505,-5.487 0.802,-5.696 0,-5.475"
   style="fill:#ffffff;fill-rule:nonzero"
   id="path6" />
            </g>
            <g
   transform="matrix(2,0,0,2,444.377,742.933)"
   id="g12">
                <path
   d="M 0,8.495 C 0.303,8.136 0.383,7.705 0.427,7.262 0.513,6.394 0.56,5.52 0.694,4.659 0.771,4.169 0.857,3.664 1.169,3.23 1.465,2.818 1.713,2.372 2.065,1.942 V 2.38 C 2.076,2.382 2.087,2.383 2.097,2.385 2.181,2.118 2.267,1.852 2.349,1.585 2.393,1.44 2.48,1.349 2.623,1.289 3.787,0.801 4.984,0.409 6.189,0.038 6.31,0 6.371,0.019 6.391,0.148 6.399,0.2 6.412,0.254 6.438,0.299 6.568,0.525 6.574,0.701 6.272,0.777 6.225,0.789 6.16,0.814 6.171,0.878 6.181,0.936 6.247,0.964 6.295,0.959 6.716,0.91 6.808,1.245 6.955,1.516 7.039,1.669 7.12,1.823 7.21,1.99 6.639,2.155 6.083,2.321 5.524,2.475 4.622,2.723 3.742,3.035 2.902,3.443 2.316,3.728 1.911,4.253 1.445,4.694 1.358,4.777 1.329,4.906 1.305,5.031 1.153,5.818 0.996,6.605 0.837,7.39 0.729,7.919 0.417,8.339 0,8.495"
   style="fill:#ffffff;fill-rule:nonzero"
   id="path10" />
            </g>
            <g
   transform="matrix(2,0,0,2,448.528,726.46)"
   id="g16">
                <path
   d="M 0,3.276 C -0.083,3.468 0.017,3.661 -0.013,3.887 -0.283,3.57 -0.465,3.227 -0.698,2.924 -1.252,2.207 -1.386,1.38 -1.392,0.51 -1.397,-0.294 -1.54,-1.086 -1.645,-1.88 c -0.036,-0.274 -0.19,-0.508 -0.352,-0.736 0.387,0.18 0.636,0.488 0.766,0.888 0.216,0.664 0.311,1.356 0.427,2.041 0.026,0.148 0.052,0.295 0.067,0.444 0.026,0.269 0.153,0.464 0.355,0.648 0.482,0.437 0.906,0.958 1.528,1.2 0.778,0.301 1.554,0.614 2.37,0.812 0.504,0.123 1,0.28 1.501,0.415 C 5.114,3.859 5.125,3.896 5.083,3.979 4.947,4.246 4.813,4.514 4.683,4.783 4.647,4.859 4.581,4.872 4.514,4.892 4.388,4.929 4.252,4.936 4.138,5.011 4.146,5.029 4.149,5.049 4.161,5.057 4.266,5.132 4.459,5.158 4.465,5.277 4.472,5.443 4.387,5.614 4.335,5.78 4.299,5.892 4.209,5.854 4.136,5.832 2.935,5.477 1.745,5.094 0.588,4.613 0.456,4.558 0.377,4.469 0.319,4.342 0.165,4.001 0.096,3.638 0,3.276"
   style="fill:#ffffff;fill-rule:nonzero"
   id="path14" />
            </g>
            <g
   transform="matrix(2,0,0,2,453.569,755.98)"
   id="g20">
                <path
   d="m 0,-2.788 c 0.144,0.114 0.287,0.227 0.451,0.356 -0.63,0.25 -1.239,0.496 -1.852,0.731 -0.172,0.067 -0.285,0.173 -0.392,0.327 -0.501,0.718 -0.9,1.493 -1.309,2.264 -0.151,0.284 -0.434,0.417 -0.672,0.609 0.277,-0.976 0.409,-1.973 0.606,-2.956 0.042,-0.211 0.149,-0.36 0.301,-0.508 1.066,-1.036 2.372,-1.596 3.787,-1.948 0.553,-0.138 1.085,-0.374 1.672,-0.365 0.191,0.003 0.743,0.396 0.803,0.572 0.03,0.088 -0.031,0.13 -0.073,0.183 -0.2,0.258 -0.406,0.51 -0.598,0.774 -0.061,0.084 -0.132,0.11 -0.221,0.115 C 1.975,-2.603 1.447,-2.558 0.919,-2.552 0.601,-2.549 0.317,-2.729 0,-2.788"
   style="fill:#ffffff;fill-rule:nonzero"
   id="path18" />
            </g>
            <g
   transform="matrix(2,0,0,2,454.985,725.698)"
   id="g24">
                <path
   d="M 0,2.27 C -0.087,2.381 -0.172,2.491 -0.255,2.598 -0.222,2.659 -0.186,2.626 -0.168,2.61 0.369,2.136 1.036,2.235 1.67,2.193 1.753,2.187 1.797,2.226 1.838,2.292 2.026,2.591 2.226,2.881 2.498,3.112 2.613,3.21 2.625,3.314 2.517,3.429 2.475,3.473 2.432,3.522 2.406,3.576 2.183,4.032 1.806,4.047 1.384,3.942 0.314,3.675 -0.749,3.392 -1.766,2.958 -2.244,2.754 -2.603,2.374 -3.032,2.104 -3.638,1.722 -3.877,1.186 -3.934,0.507 c -0.063,-0.756 -0.269,-1.486 -0.491,-2.284 0.313,0.258 0.588,0.436 0.754,0.759 0.396,0.766 0.822,1.517 1.301,2.236 0.074,0.112 0.168,0.173 0.285,0.218 0.609,0.235 1.217,0.469 1.824,0.707 0.088,0.034 0.19,0.044 0.261,0.127"
   style="fill:#ffffff;fill-rule:nonzero"
   id="path22" />
            </g>
            <g
   transform="matrix(2,0,0,2,478.196,745.128)"
   id="g28">
                <path
   d="m 0,-4.561 c -0.047,-0.186 0.076,-0.369 -0.044,-0.547 -0.201,-0.296 -0.779,-0.48 -1.105,-0.321 -0.122,0.059 -0.286,0.147 -0.361,0.059 -0.079,-0.093 0.056,-0.234 0.116,-0.348 0.068,-0.129 0.142,-0.149 0.293,-0.098 0.603,0.206 1.223,0.344 1.861,0.369 0.148,0.006 0.225,0.051 0.283,0.176 0.058,0.128 0.143,0.245 0.195,0.375 0.303,0.749 0.922,1.073 1.655,1.25 0.058,0.014 0.127,-0.005 0.19,0.089 -0.606,0.213 -0.976,0.633 -0.973,1.28 0.002,0.653 0.379,1.071 0.992,1.314 C 2.683,-0.926 2.362,-0.665 1.97,-0.597 1.822,-0.571 1.692,-0.426 1.608,-0.271 1.427,0.062 1.232,0.386 1.053,0.72 0.983,0.852 0.904,0.901 0.746,0.901 0.195,0.904 -0.337,1.048 -0.865,1.185 c -0.47,0.121 -0.609,0.054 -0.77,-0.436 0.175,0.037 0.338,0.045 0.5,0.141 0.287,0.17 0.564,-0.037 0.837,-0.102 0.231,-0.056 0.308,-0.315 0.287,-0.76 0.091,0.013 0.18,0.033 0.269,0.038 0.371,0.023 0.627,-0.213 0.625,-0.581 0,-0.21 0.096,-0.345 0.276,-0.436 C 1.547,-1.148 1.515,-1.217 1.415,-1.637 1.32,-2.034 1.263,-2.474 1.455,-2.877 1.597,-3.174 1.547,-3.412 1.25,-3.559 1,-3.682 0.883,-3.848 0.888,-4.135 0.894,-4.433 0.543,-4.679 0.23,-4.625 0.154,-4.612 0.081,-4.584 0,-4.561"
   style="fill:#ffffff;fill-rule:nonzero"
   id="path26" />
            </g>
            <g
   transform="matrix(2,0,0,2,470.913,745.777)"
   id="g32">
                <path
   d="M 0,3.327 C 0.456,2.945 0.656,2.474 0.745,1.937 0.81,1.544 0.733,1.199 0.46,0.913 0.362,0.811 0.347,0.739 0.414,0.622 0.58,0.333 0.815,0.129 1.118,0 1.039,0.165 0.862,0.257 0.807,0.466 1.063,0.431 1.301,0.395 1.539,0.365 1.643,0.352 1.717,0.371 1.748,0.502 1.995,1.549 1.315,2.905 0.502,3.207 0.356,3.261 0.211,3.325 0,3.327"
   style="fill:#ffffff;fill-rule:nonzero"
   id="path30" />
            </g>
            <g
   transform="matrix(2,0,0,2,472.519,729.611)"
   id="g36">
                <path
   d="M 0,2.411 C -0.003,2.534 0.09,2.588 0.148,2.661 0.208,2.736 0.281,2.8 0.342,2.864 0.08,2.818 -0.367,2.406 -0.426,2.164 -0.445,2.084 -0.404,2.052 -0.363,2.008 -0.058,1.679 0.022,1.305 -0.069,0.862 -0.171,0.364 -0.354,-0.076 -0.808,-0.453 -0.329,-0.379 0.028,-0.217 0.291,0.102 0.798,0.717 1.069,1.412 0.965,2.225 0.93,2.502 0.88,2.546 0.593,2.506 0.488,2.492 0.385,2.472 0.281,2.451 0.189,2.433 0.099,2.391 0,2.411"
   style="fill:#ffffff;fill-rule:nonzero"
   id="path34" />
            </g>
            <g
   transform="matrix(2,0,0,2,462.262,744.968)"
   id="g40">
                <path
   d="m 0,-1.297 c -0.05,0.144 -0.175,0.164 -0.232,0.25 0.042,0.03 0.082,0.01 0.122,-0.006 0.376,-0.146 0.376,-0.145 0.52,0.231 0.088,0.231 0,0.394 -0.296,0.483 -0.826,0.247 -1.663,0.343 -2.586,0.132 0.682,-0.252 1.219,-0.63 1.772,-0.983 0.175,-0.111 0.444,-0.073 0.7,-0.107"
   style="fill:#ffffff;fill-rule:nonzero"
   id="path38" />
            </g>
            <g
   transform="matrix(2,0,0,2,461.584,736.797)"
   id="g44">
                <path
   d="M 0,0.728 C 0.091,0.805 0.15,0.855 0.235,0.929 0.004,0.972 -0.228,0.973 -0.381,0.87 -0.92,0.509 -1.453,0.142 -2.117,-0.1 c 0.451,-0.145 0.864,-0.131 1.273,-0.113 0.414,0.018 0.821,0.104 1.219,0.218 C 0.823,0.133 0.919,0.532 0.591,0.859 0.527,0.923 0.481,0.877 0.427,0.857 0.305,0.811 0.195,0.732 0,0.728"
   style="fill:#ffffff;fill-rule:nonzero"
   id="path42" />
            </g>
            <g
   transform="matrix(2,0,0,2,473.333,735.603)"
   id="g48">
                <path
   d="m 0,-0.327 c 0.46,-0.034 0.919,-0.002 1.353,-0.186 0.294,-0.124 0.55,-0.034 0.782,0.159 0.11,0.091 0.166,0.206 0.125,0.35 C 2.221,0.13 2.117,0.205 1.989,0.219 1.164,0.31 0.617,0.275 0,-0.327"
   style="fill:#ffffff;fill-rule:nonzero"
   id="path46" />
            </g>
            <g
   transform="matrix(2,0,0,2,473.251,745.44)"
   id="g52">
                <path
   d="m 0,0.384 c 0.629,-0.47 1.289,-0.691 2.044,-0.553 0.125,0.023 0.232,0.093 0.261,0.231 C 2.335,0.203 2.293,0.324 2.176,0.413 1.925,0.606 1.672,0.691 1.348,0.552 0.937,0.376 0.489,0.409 0,0.384"
   style="fill:#ffffff;fill-rule:nonzero"
   id="path50" />
            </g>
            <g
   transform="matrix(2,0,0,2,464.141,745.616)"
   id="g56">
                <path
   d="m 0,-0.676 c 0.106,-0.004 0.202,-0.132 0.257,0.034 0.05,0.149 0.135,0.299 -0.025,0.433 -0.04,0.033 -0.089,0.056 -0.138,0.076 -0.531,0.219 -1.09,0.285 -1.714,0.35 0.163,-0.173 0.321,-0.23 0.455,-0.32 0.255,-0.173 0.507,-0.352 0.693,-0.602 0.107,-0.145 0.247,-0.188 0.414,-0.175 0.059,0.004 0.14,-0.009 0.151,0.066 C 0.099,-0.778 0.04,-0.732 0,-0.676"
   style="fill:#ffffff;fill-rule:nonzero"
   id="path54" />
            </g>
            <g
   transform="matrix(2,0,0,2,464.029,735.72)"
   id="g60">
                <path
   d="M 0,0.547 C 0.041,0.61 0.081,0.67 0.134,0.75 -0.102,0.814 -0.276,0.785 -0.42,0.598 -0.639,0.315 -0.929,0.115 -1.23,-0.072 -1.299,-0.115 -1.403,-0.124 -1.425,-0.267 -0.854,-0.226 -0.298,-0.18 0.213,0.08 0.4,0.175 0.43,0.459 0.281,0.601 0.166,0.711 0.109,0.512 0,0.547"
   style="fill:#ffffff;fill-rule:nonzero"
   id="path58" />
            </g>
            <g
   transform="matrix(2,0,0,2,477.639,745.072)"
   id="g64">
                <path
   d="m 0,-0.861 c 0.352,0.01 0.621,0.079 0.876,0.195 0.116,0.054 0.193,0.144 0.16,0.296 -0.043,0.197 -0.16,0.306 -0.353,0.343 C 0.541,0 0.449,-0.057 0.391,-0.188 0.295,-0.403 0.191,-0.615 0,-0.861"
   style="fill:#ffffff;fill-rule:nonzero"
   id="path62" />
            </g>
            <g
   transform="matrix(2,0,0,2,477.736,736.093)"
   id="g68">
                <path
   d="M 0,0.852 C 0.136,0.59 0.252,0.368 0.366,0.145 0.423,0.035 0.511,0 0.628,0.022 0.796,0.052 0.916,0.137 0.967,0.309 1.002,0.428 1.005,0.538 0.885,0.609 0.62,0.768 0.33,0.825 0,0.852"
   style="fill:#ffffff;fill-rule:nonzero"
   id="path66" />
            </g>
            <g
   transform="matrix(1.26584,1.54843,1.54843,-1.26584,474.525,742.735)"
   id="g72">
                <path
   d="M 0.437,-0.413 C 0.36,-0.152 0.369,0.076 0.35,0.301 0.344,0.366 0.366,0.419 0.437,0.444 0.708,0.54 0.978,0.628 1.32,0.554 1.019,0.225 0.742,-0.078 0.437,-0.413"
   style="fill:#ffffff;fill-rule:nonzero"
   id="path70" />
            </g>
            <g
   transform="matrix(2,0,0,2,474.46,738.639)"
   id="g76">
                <path
   d="m 0,-0.721 c 0.339,-0.016 0.641,-0.034 0.944,-0.043 0.064,-0.001 0.151,0 0.175,0.082 C 1.14,-0.613 1.075,-0.573 1.035,-0.53 0.495,0.044 0.576,-0.073 0.115,-0.544 0.075,-0.584 0.051,-0.641 0,-0.721"
   style="fill:#ffffff;fill-rule:nonzero"
   id="path74" />
            </g>
            <g
   transform="matrix(2,0,0,2,479.693,743.03)"
   id="g80">
                <path
   d="m 0,-0.708 c 0.123,0.034 0.302,0.083 0.48,0.13 0.108,0.029 0.207,0.068 0.199,0.205 C 0.672,-0.246 0.641,-0.127 0.511,-0.066 0.403,-0.015 0.284,0.02 0.196,-0.089 0.069,-0.246 -0.053,-0.409 -0.157,-0.582 -0.229,-0.7 -0.2,-0.728 0,-0.708"
   style="fill:#ffffff;fill-rule:nonzero"
   id="path78" />
            </g>
            <g
   transform="matrix(2,0,0,2,477.845,740.072)"
   id="g84">
                <path
   d="m 0,-0.626 c -0.19,0.352 -0.511,0.495 -0.856,0.601 -0.082,0.025 -0.11,-0.031 -0.112,-0.103 -0.003,-0.113 -0.004,-0.227 -0.004,-0.341 0,-0.073 0.033,-0.111 0.112,-0.11 0.285,0.004 0.571,0.01 0.86,-0.047"
   style="fill:#ffffff;fill-rule:nonzero"
   id="path82" />
            </g>
            <g
   transform="matrix(0.571934,-1.91648,-1.91648,-0.571934,477.817,740.968)"
   id="g88">
                <path
   d="M -0.691,-0.201 C -0.686,0.086 -0.751,0.324 -0.84,0.55 -0.906,0.718 -0.839,0.757 -0.691,0.795 -0.287,0.9 -0.256,0.881 -0.33,0.457 -0.372,0.216 -0.419,-0.029 -0.691,-0.201"
   style="fill:#ffffff;fill-rule:nonzero"
   id="path86" />
            </g>
            <g
   transform="matrix(2,0,0,2,481.041,738.779)"
   id="g92">
                <path
   d="M 0,0.006 C 0.008,0.12 -0.029,0.189 -0.13,0.22 -0.297,0.272 -0.468,0.307 -0.643,0.324 -0.818,0.342 -0.824,0.245 -0.758,0.139 c 0.087,-0.14 0.193,-0.27 0.303,-0.392 0.075,-0.083 0.173,-0.055 0.268,-0.016 0.133,0.054 0.171,0.164 0.187,0.275"
   style="fill:#ffffff;fill-rule:nonzero"
   id="path90" />
            </g>
            <g
   transform="matrix(2,0,0,2,468.753,743.671)"
   id="g96">
                <path
   d="m 0,-3.016 c 0.479,-0.758 0.399,-1.026 -0.58,-2.016 0.18,0.023 0.279,0.137 0.398,0.22 0.105,0.073 0.125,0.055 0.149,-0.148 0.338,0.457 0.64,0.877 0.413,1.456 -0.106,0.272 -0.119,0.533 0.025,0.81 0.14,0.27 0.226,0.568 0.304,0.87 C 0.628,-1.931 0.556,-2.046 0.465,-2.142 0.378,-2.235 0.281,-2.254 0.228,-2.1 c -0.006,0.017 -0.01,0.036 -0.022,0.048 -0.332,0.35 -0.217,0.683 0.008,1.038 0.111,0.176 0.161,0.126 0.263,0.016 C 0.563,-1.091 0.581,-1.237 0.76,-1.33 0.627,-0.981 0.531,-0.67 0.393,-0.38 0.278,-0.14 0.248,0.086 0.355,0.328 0.556,0.783 0.429,1.189 0.164,1.57 0.116,1.639 0.108,1.782 -0.069,1.676 -0.177,1.61 -0.274,1.839 -0.487,1.862 0.152,1.288 0.586,0.706 0.014,-0.115 c -0.01,0.023 -0.018,0.032 -0.016,0.039 0.218,0.835 -0.087,1.114 -0.787,1.618 -0.079,0.057 -0.162,0.108 -0.25,0.148 -0.1,0.046 -0.168,0.09 -0.085,0.21 0.06,0.087 0.006,0.144 -0.069,0.192 C -1.304,2.164 -1.412,2.24 -1.522,2.314 -2.036,2.66 -2.284,2.58 -2.543,1.957 -2.404,2.07 -2.289,2.17 -2.146,2.23 -1.861,2.351 -1.591,2.256 -1.45,1.988 -1.405,1.902 -1.456,1.863 -1.492,1.803 -1.869,1.163 -1.865,1.166 -1.329,0.659 c 0.328,-0.311 0.678,-0.587 1.062,-0.826 0.442,-0.276 0.435,-0.744 -0.001,-1.041 -0.089,-0.061 -0.182,-0.058 -0.278,-0.046 -0.254,0.033 -0.498,0.104 -0.812,0.198 0.26,-0.254 0.536,-0.347 0.82,-0.487 -0.181,-0.119 -0.342,-0.225 -0.526,-0.345 0.176,-0.07 0.31,0.015 0.447,0.033 0.299,0.038 0.498,-0.083 0.627,-0.399 0.109,-0.271 0.062,-0.468 -0.216,-0.627 -0.519,-0.297 -0.942,-0.709 -1.383,-1.1 -0.232,-0.206 -0.253,-0.351 -0.091,-0.618 0.036,-0.06 0.079,-0.117 0.11,-0.18 0.066,-0.132 0.189,-0.248 0.026,-0.413 -0.16,-0.162 -0.328,-0.236 -0.543,-0.157 -0.194,0.071 -0.35,0.201 -0.526,0.411 0.104,-0.322 0.294,-0.497 0.48,-0.678 0.062,-0.06 0.127,-0.037 0.196,-0.014 0.299,0.098 0.535,0.303 0.793,0.471 0.036,0.023 0.082,0.064 0.052,0.106 -0.151,0.21 0.046,0.242 0.157,0.315 0.177,0.115 0.362,0.216 0.52,0.36 0.408,0.37 0.649,0.788 0.415,1.362"
   style="fill:#2d612f;fill-rule:nonzero"
   id="path94" />
            </g>
            <g
   transform="matrix(2,0,0,2,470.652,741.756)"
   id="g100">
                <path
   d="m 0,-1.242 c -0.177,-0.225 -0.271,-0.451 -0.351,-0.682 -0.046,-0.133 0.042,-0.234 0.129,-0.326 0.144,-0.153 0.38,-0.297 0.4,-0.466 0.017,-0.14 -0.219,-0.312 -0.342,-0.47 -0.042,-0.054 -0.082,-0.11 -0.127,-0.171 -0.056,0.082 0.01,0.171 -0.066,0.248 -0.055,-0.361 -0.25,-0.648 -0.42,-0.945 -0.125,-0.221 -0.104,-0.411 0.073,-0.596 0.145,-0.152 0.275,-0.321 0.5,-0.439 -0.076,0.199 -0.189,0.333 -0.312,0.461 -0.159,0.166 -0.197,0.34 -0.057,0.546 0.5,0.736 0.974,1.49 1.719,2.023 0.306,0.219 0.574,0.492 0.845,0.756 0.296,0.289 0.294,1.19 -0.099,1.518 -0.821,0.687 -1.674,1.357 -2.23,2.307 -0.048,0.083 -0.109,0.16 -0.159,0.243 -0.245,0.404 -0.243,0.403 0.064,0.779 0.076,0.093 0.141,0.196 0.217,0.303 C -0.762,3.659 -0.949,3.194 -0.68,2.726 -0.649,2.673 -0.615,2.621 -0.582,2.569 -0.475,2.404 -0.489,2.159 -0.316,2.052 -0.141,1.943 -0.055,1.756 0.111,1.649 0.223,1.577 0.257,1.502 0.119,1.419 0.09,1.402 0.069,1.37 0.045,1.344 -0.459,0.817 -0.464,0.74 0.004,0.126 -0.05,0.309 -0.093,0.497 -0.16,0.675 -0.237,0.876 -0.122,0.977 0.021,1.056 0.174,1.141 0.294,1.332 0.526,1.162 0.975,0.833 1.402,0.479 1.811,0.104 2.155,-0.212 2.102,-1.034 1.747,-1.34 1.353,-1.678 0.955,-2.013 0.541,-2.327 c -0.234,-0.177 -0.367,0.01 -0.53,0.099 -0.159,0.086 -0.216,0.208 -0.159,0.395 0.055,0.181 0.147,0.355 0.148,0.591"
   style="fill:#2c602f;fill-rule:nonzero"
   id="path98" />
            </g>
            <g
   transform="matrix(1.37714,-1.45034,-1.45034,-1.37714,474.48,738.719)"
   id="g104">
                <path
   d="m -0.555,-0.274 c -0.236,0.358 -0.29,0.76 -0.317,1.16 -0.012,0.173 0.207,0.139 0.317,0.152 0.145,0.015 0.079,-0.131 0.067,-0.198 -0.06,-0.368 -0.214,-0.73 -0.067,-1.114"
   style="fill:#336536;fill-rule:nonzero"
   id="path102" />
            </g>
            <g
   transform="matrix(2,0,0,2,474.104,743.12)"
   id="g108">
                <path
   d="M 0,-0.932 C -0.363,-0.782 -0.523,-0.45 -0.729,-0.16 -0.774,-0.097 -0.823,0 -0.9,-0.013 -1.014,-0.034 -1.021,-0.173 -1.077,-0.257 -1.13,-0.338 -1.05,-0.386 -0.993,-0.423 -0.681,-0.624 -0.396,-0.879 0,-0.932"
   style="fill:#336537;fill-rule:nonzero"
   id="path106" />
            </g>
            <g
   transform="matrix(2,0,0,2,470.942,742.368)"
   id="g112">
                <path
   d="m 0,-1.809 c 0.295,0.246 0.329,0.578 0.314,0.908 C 0.299,-0.593 0.378,-0.243 -0.005,0 0.302,-0.622 0.286,-1.217 0,-1.809"
   style="fill:#2d612f;fill-rule:nonzero"
   id="path110" />
            </g>
            <g
   transform="matrix(2,0,0,2,483.946,738.782)"
   id="g116">
                <path
   d="M 0,2.043 C -0.303,1.648 -0.332,0.485 -0.083,0 -0.046,0.675 -0.095,1.325 0,2.043"
   style="fill:#366739;fill-rule:nonzero"
   id="path114" />
            </g>
            <g
   transform="matrix(2,0,0,2,468.418,745.87)"
   id="g120">
                <path
   d="m 0,-0.676 c -0.005,0.135 -0.051,0.302 -0.169,0.442 -0.183,0.218 -0.415,0.377 -0.662,0.512 -0.087,0.048 -0.187,0.082 -0.276,0.025 -0.101,-0.065 -0.098,-0.179 -0.088,-0.286 0.011,-0.107 0.047,-0.205 0.119,-0.287 0.222,-0.253 0.478,-0.468 0.769,-0.633 0.235,-0.133 0.304,-0.085 0.307,0.227"
   style="fill:#ffffff;fill-rule:nonzero"
   id="path118" />
            </g>
            <g
   transform="matrix(2,0,0,2,468.405,735.227)"
   id="g124">
                <path
   d="M 0,0.742 C -0.003,0.992 -0.078,1.046 -0.293,0.926 -0.593,0.759 -0.855,0.537 -1.078,0.275 -1.172,0.165 -1.199,0.023 -1.18,-0.122 -1.162,-0.247 -1.092,-0.304 -0.961,-0.291 -0.565,-0.254 0.005,0.356 0,0.742"
   style="fill:#ffffff;fill-rule:nonzero"
   id="path122" />
            </g>
        </g>
    </g>
</svg>
