<?xml version="1.0" encoding="UTF-8" standalone="no"?>
<svg
   width="35.792564"
   height="36.131618"
   viewBox="0 0 35.792564 36.131618"
   version="1.1"
   xml:space="preserve"
   style="clip-rule:evenodd;fill-rule:evenodd;stroke-linejoin:round;stroke-miterlimit:2"
   id="svg114"
   sodipodi:docname="orc.svg"
   inkscape:version="1.1.1 (3bf5ae0d25, 2021-09-20)"
   xmlns:inkscape="http://www.inkscape.org/namespaces/inkscape"
   xmlns:sodipodi="http://sodipodi.sourceforge.net/DTD/sodipodi-0.dtd"
   xmlns="http://www.w3.org/2000/svg"
   xmlns:svg="http://www.w3.org/2000/svg"><defs
   id="defs118" /><sodipodi:namedview
   id="namedview116"
   pagecolor="#ffffff"
   bordercolor="#666666"
   borderopacity="1.0"
   inkscape:pageshadow="2"
   inkscape:pageopacity="0.0"
   inkscape:pagecheckerboard="0"
   showgrid="false"
   inkscape:zoom="22.324324"
   inkscape:cx="17.984867"
   inkscape:cy="18.5"
   inkscape:window-width="1920"
   inkscape:window-height="1012"
   inkscape:window-x="-8"
   inkscape:window-y="-8"
   inkscape:window-maximized="1"
   inkscape:current-layer="svg114" />
    <g
   transform="translate(-850.43216,-617.53544)"
   id="g112">
        <g
   transform="rotate(90,463.11165,525.20235)"
   id="g110">
            <g
   transform="matrix(2,0,0,2,591.569,118.384)"
   id="g4">
                <path
   d="m 0,0.663 c 0.001,5.083 -4.256,9.06 -9.241,8.706 -0.582,-0.041 -1.172,-0.096 -1.713,-0.308 -0.55,-0.216 -1.057,-0.107 -1.595,-10e-4 -0.722,0.143 -1.387,0.466 -2.104,0.61 -0.211,0.042 -0.484,0.17 -0.615,-0.031 -0.132,-0.203 0.123,-0.369 0.251,-0.525 0.358,-0.436 0.688,-0.89 0.955,-1.391 0.066,-0.123 0.066,-0.185 -0.049,-0.277 -0.805,-0.649 -1.475,-1.418 -1.993,-2.312 -0.135,-0.235 -0.391,-0.324 -0.55,-0.525 -0.527,-0.667 -0.968,-1.366 -1.189,-2.212 -0.401,-1.532 -0.235,-3 0.362,-4.435 0.241,-0.579 0.666,-1.035 1.145,-1.434 0.124,-0.104 0.225,-0.219 0.309,-0.357 0.499,-0.81 1.113,-1.523 1.852,-2.124 0.13,-0.105 0.14,-0.172 0.05,-0.318 -0.173,-0.278 -0.365,-0.538 -0.579,-0.785 -0.198,-0.228 -0.325,-0.501 -0.452,-0.769 -0.104,-0.219 -0.036,-0.298 0.21,-0.319 0.257,-0.022 0.49,0.068 0.718,0.154 0.711,0.27 1.456,0.41 2.191,0.585 0.16,0.038 0.303,0.024 0.46,-0.032 4.944,-1.74 10.218,1.164 11.377,6.26 0.144,0.63 0.222,1.268 0.2,1.84"
   style="fill:#2f6230;fill-rule:nonzero"
   id="path2" />
            </g>
            <g
   transform="matrix(2,0,0,2,571.968,107.88)"
   id="g8">
                <path
   d="m 0,12.011 c -0.144,-0.177 -0.342,-0.16 -0.531,-0.148 -0.636,0.04 -1.102,0.397 -1.494,0.855 -0.64,0.746 -1.363,1.379 -2.27,1.778 -0.288,0.127 -0.583,0.24 -0.906,0.25 -0.003,-0.025 -0.008,-0.038 -0.004,-0.042 0.707,-0.652 1.022,-1.595 1.69,-2.277 0.152,-0.155 0.227,-0.358 0.284,-0.561 0.042,-0.148 0.103,-0.216 0.269,-0.213 0.149,0.003 0.31,0.002 0.488,-0.109 -0.37,-0.059 -0.695,-0.099 -1.017,-0.163 C -4.568,11.166 -5.509,10.68 -6.342,9.964 -7.252,9.182 -7.716,8.195 -7.86,7.01 -8.001,5.85 -7.923,4.72 -7.552,3.618 -7.229,2.663 -6.521,2.011 -5.716,1.461 -4.769,0.815 -3.731,0.442 -2.564,0.508 -2.473,0.513 -2.373,0.529 -2.254,0.436 -2.555,0.343 -2.835,0.316 -3.115,0.297 -3.255,0.288 -3.337,0.271 -3.332,0.09 -3.326,-0.108 -3.433,-0.296 -3.573,-0.425 -4.042,-0.859 -4.286,-1.448 -4.655,-1.949 -4.797,-2.141 -4.95,-2.322 -5.103,-2.504 -5.14,-2.548 -5.214,-2.592 -5.181,-2.657 c 0.04,-0.078 0.124,-0.051 0.191,-0.032 0.514,0.145 0.985,0.378 1.408,0.705 0.622,0.481 1.177,1.037 1.768,1.552 0.498,0.435 1.065,0.635 1.795,0.49 -0.281,-0.063 -0.501,-0.099 -0.712,-0.163 -0.47,-0.141 -0.54,-0.379 -0.24,-0.772 -0.34,-0.065 -0.408,0.093 -0.378,0.502 -0.712,-0.543 -1.316,-1.145 -2.026,-1.742 0.262,0.034 0.456,0.052 0.648,0.084 0.949,0.161 1.9,0.315 2.65,1.003 0.117,0.107 0.272,0.128 0.418,0.147 0.528,0.066 0.789,0.419 0.962,0.871 C 1.384,0.203 1.195,0.304 1.098,0.437 1.002,0.57 0.905,0.445 0.829,0.396 0.605,0.253 0.406,0.218 0.143,0.349 -0.279,0.56 -0.734,0.6 -1.186,0.398 -1.229,0.379 -1.278,0.337 -1.329,0.388 -1.082,0.732 -0.337,0.883 -0.014,0.661 0.175,0.531 0.38,0.518 0.587,0.615 0.834,0.732 1.087,0.838 1.312,0.997 1.402,1.061 1.499,1.124 1.643,1.137 1.609,0.963 1.425,0.909 1.363,0.731 1.938,0.734 2.482,0.646 3.028,0.572 3.186,0.551 3.346,0.535 3.497,0.492 4.705,0.15 6.022,0.966 6.493,1.763 6.942,2.522 7.448,3.222 8.177,3.736 8.293,3.817 8.34,3.924 8.38,4.058 8.631,4.917 8.517,5.77 8.358,6.623 8.342,6.707 8.291,6.788 8.328,6.879 8.383,6.884 8.407,6.853 8.426,6.809 8.442,6.77 8.464,6.733 8.498,6.701 8.45,7.136 8.393,7.567 8.291,7.992 8.266,8.096 8.191,8.165 8.113,8.213 7.414,8.641 6.972,9.294 6.557,9.973 6.382,10.26 6.151,10.503 5.902,10.73 5.622,10.984 5.31,11.135 4.919,11.087 4.807,11.073 4.692,11.085 4.55,11.085 4.64,11.237 4.81,11.17 4.895,11.264 4.661,11.43 4.126,11.465 3.719,11.334 4.468,11.016 5.156,10.612 5.785,10.109 5.826,10.077 5.875,10.049 5.924,10.035 6.655,9.83 6.871,9.167 7.199,8.603 7.234,8.543 7.232,8.472 7.196,8.401 6.657,7.34 6.623,6.215 6.796,5.072 6.867,4.603 6.958,4.132 7.135,3.687 7.214,3.487 7.155,3.313 7.083,3.13 6.844,2.526 6.52,1.947 5.857,1.806 5.245,1.676 4.683,1.402 4.07,1.291 3.759,1.234 3.456,1.136 3.139,1.101 2.795,1.063 2.473,1.123 2.156,1.246 2.019,1.299 1.882,1.365 1.905,1.539 1.926,1.694 2.043,1.786 2.193,1.812 2.643,1.89 3.044,2.092 3.443,2.301 3.702,2.439 3.71,2.447 3.486,2.646 3.31,2.803 3.222,3.064 2.941,3.112 3.29,3.745 3.429,4.448 3.647,5.118 3.559,5.195 3.522,5.047 3.423,5.127 3.816,5.788 4.004,6.448 3.114,6.931 3.317,6.995 3.45,6.866 3.627,6.862 3.54,7.287 3.437,7.685 2.97,7.854 3.059,7.97 3.162,7.887 3.238,7.945 3.236,7.966 3.24,7.993 3.231,8.015 2.98,8.627 3.082,8.991 3.655,9.363 3.851,9.49 3.856,9.558 3.701,9.718 3.315,10.114 2.876,10.435 2.39,10.691 2.178,10.803 1.941,10.812 1.673,10.831 1.789,10.61 1.949,10.45 2.001,10.163 1.603,10.566 1.22,10.884 0.826,11.191 c -0.22,0.171 -0.43,0.258 -0.697,0.11 -0.387,-0.213 -0.761,-0.117 -1.129,0.085 0.509,-0.052 0.979,0.068 1.441,0.269 0.17,0.075 0.327,-0.088 0.479,-0.17 0.11,-0.059 0.186,-0.191 0.346,-0.17 -0.238,0.362 -0.24,0.364 0.068,0.731 0.061,0.073 0.005,0.115 -0.025,0.16 -0.21,0.311 -0.435,0.603 -0.852,0.643 -0.188,0.019 -0.351,0.101 -0.501,0.217 -0.83,0.642 -1.803,0.901 -2.817,1.047 -0.107,0.015 -0.215,0.066 -0.372,0.015 0.674,-0.483 1.159,-1.124 1.766,-1.695 0.056,0.199 0.038,0.384 0.193,0.487 0.106,0.07 0.223,0.101 0.357,0.074 -0.291,-0.377 -0.282,-0.702 0.04,-0.856 0.213,-0.102 0.448,-0.165 0.693,-0.126 0.058,0.009 0.115,0.05 0.184,-0.001"
   style="fill:#ffffff;fill-rule:nonzero"
   id="path6" />
            </g>
            <g
   transform="matrix(2,0,0,2,584.489,131.061)"
   id="g12">
                <path
   d="m 0,-3.062 c 0.043,0.877 -0.575,1.402 -1.249,1.862 -0.992,0.678 -2.082,1.146 -3.255,1.415 -0.017,0.004 -0.035,0.012 -0.052,0.011 -0.134,-0.008 -0.318,0.073 -0.381,-0.084 -0.064,-0.159 0.126,-0.211 0.228,-0.277 0.578,-0.37 1.184,-0.699 1.725,-1.126 0.666,-0.524 1.208,-1.157 1.61,-1.903 0.08,-0.148 0.158,-0.197 0.327,-0.146 0.29,0.089 0.594,0.094 0.89,0.036 0.156,-0.03 0.197,0.009 0.157,0.212"
   style="fill:#ffffff;fill-rule:nonzero"
   id="path10" />
            </g>
            <g
   transform="matrix(2,0,0,2,577.948,114.772)"
   id="g16">
                <path
   d="m 0,-2.183 c 0.805,0.11 1.675,0.281 2.456,0.742 0.401,0.236 0.615,0.615 0.704,1.066 C 3.193,-0.204 3.152,-0.1 2.944,-0.13 2.712,-0.163 2.491,-0.084 2.27,-0.032 2.132,0 2.055,-0.028 1.959,-0.14 1.249,-0.973 0.381,-1.558 -0.702,-1.793 c -0.075,-0.016 -0.182,-0.021 -0.196,-0.108 -0.016,-0.104 0.093,-0.14 0.17,-0.172 0.206,-0.085 0.426,-0.099 0.728,-0.11"
   style="fill:#ffffff;fill-rule:nonzero"
   id="path14" />
            </g>
            <g
   transform="matrix(2,0,0,2,584.874,112.456)"
   id="g20">
                <path
   d="M 0,6.967 C 0.288,6.272 -0.055,5.643 -0.174,4.996 -0.361,3.977 -0.352,2.969 -0.065,1.966 0.195,1.056 0.166,0.912 -0.344,0 0.208,0.177 0.64,0.924 0.459,1.46 0.061,2.641 0.015,3.839 0.219,5.056 0.254,5.264 0.281,5.482 0.368,5.67 0.619,6.209 0.3,6.578 0,6.967"
   style="fill:#ffffff;fill-rule:nonzero"
   id="path18" />
            </g>
            <g
   transform="matrix(2,0,0,2,583.465,122.594)"
   id="g24">
                <path
   d="M 0,0.827 C -0.232,0.814 -0.538,0.738 -0.834,0.625 -0.9,0.599 -1.053,0.511 -0.924,0.453 -0.563,0.289 -0.228,0.05 0.184,0.009 c 0.139,-0.014 0.215,0.027 0.214,0.18 0,0.05 0.031,0.1 0.046,0.15 C 0.572,0.762 0.522,0.832 0,0.827"
   style="fill:#ffffff;fill-rule:nonzero"
   id="path22" />
            </g>
            <g
   transform="matrix(2,0,0,2,583.949,116.297)"
   id="g28">
                <path
   d="m 0,-0.748 c 0.114,0.017 0.281,-0.024 0.284,0.096 0.005,0.164 0.021,0.378 -0.133,0.487 -0.268,0.189 -0.867,0.144 -1.111,-0.051 -0.206,-0.164 -0.198,-0.236 0.047,-0.34 0.296,-0.125 0.61,-0.168 0.913,-0.192"
   style="fill:#ffffff;fill-rule:nonzero"
   id="path26" />
            </g>
            <g
   transform="matrix(2,0,0,2,580.404,123.582)"
   id="g32">
                <path
   d="m 0,-0.768 c 0.146,0.011 0.295,-0.018 0.435,0.065 0.105,0.063 0.113,0.128 0.033,0.206 -0.264,0.261 -0.603,0.381 -0.946,0.488 -0.084,0.027 -0.113,-0.016 -0.091,-0.098 0.027,-0.101 0.054,-0.202 0.08,-0.304 0.092,-0.374 0.092,-0.374 0.489,-0.357"
   style="fill:#ffffff;fill-rule:nonzero"
   id="path30" />
            </g>
            <g
   transform="matrix(2,0,0,2,580.151,114.393)"
   id="g36">
                <path
   d="M 0,0.848 H -0.026 C -0.534,0.849 -0.705,0.666 -0.675,0.159 -0.669,0.058 -0.622,-0.003 -0.527,0.044 -0.187,0.211 0.104,0.449 0.376,0.709 0.44,0.77 0.422,0.842 0.315,0.847 0.21,0.851 0.105,0.848 0,0.848"
   style="fill:#ffffff;fill-rule:nonzero"
   id="path34" />
            </g>
            <g
   transform="matrix(2,0,0,2,579.293,125.511)"
   id="g40">
                <path
   d="m 0,-0.721 c 0.14,0.038 0.277,0.072 0.411,0.114 0.081,0.025 0.197,0.018 0.22,0.118 0.025,0.114 -0.085,0.173 -0.164,0.215 -0.155,0.082 -0.318,0.152 -0.484,0.209 C -0.207,0 -0.302,-0.108 -0.265,-0.278 -0.229,-0.444 -0.284,-0.692 0,-0.721"
   style="fill:#ffffff;fill-rule:nonzero"
   id="path38" />
            </g>
            <g
   transform="matrix(2,0,0,2,582.209,116.909)"
   id="g44">
                <path
   d="M 0,0.066 C 0.283,-0.147 0.579,-0.224 0.883,-0.281 0.923,-0.288 0.991,-0.31 0.997,-0.259 1.016,-0.083 0.976,0.093 0.914,0.254 0.868,0.376 0.74,0.341 0.636,0.316 0.423,0.265 0.216,0.198 0,0.066"
   style="fill:#ffffff;fill-rule:nonzero"
   id="path42" />
            </g>
            <g
   transform="matrix(2,0,0,2,583.817,120.843)"
   id="g48">
                <path
   d="M 0,0.702 C -0.11,0.68 -0.214,0.664 -0.314,0.638 -0.43,0.608 -0.596,0.608 -0.613,0.471 -0.626,0.35 -0.487,0.266 -0.384,0.209 -0.246,0.133 -0.081,-0.053 0.054,0.064 0.199,0.19 0.141,0.438 0.156,0.633 0.166,0.755 0.046,0.66 0,0.702"
   style="fill:#ffffff;fill-rule:nonzero"
   id="path46" />
            </g>
            <g
   transform="matrix(2,0,0,2,579.859,119.797)"
   id="g52">
                <path
   d="m 0,-0.63 c -0.033,-0.102 0.026,-0.127 0.108,-0.111 0.149,0.029 0.289,0.081 0.408,0.177 0.147,0.12 0.144,0.252 0.021,0.386 C 0.501,-0.14 0.454,-0.112 0.41,-0.084 0.078,0.127 0.04,0.106 0.022,-0.289 0.017,-0.403 0.007,-0.516 0,-0.63"
   style="fill:#ffffff;fill-rule:nonzero"
   id="path50" />
            </g>
            <g
   transform="matrix(2,0,0,2,579.264,118.005)"
   id="g56">
                <path
   d="m 0,-0.794 c 0.256,0.057 0.461,0.148 0.645,0.285 0.092,0.069 0.143,0.157 0.098,0.273 C 0.67,-0.051 0.486,-0.075 0.341,-0.033 0.227,0 0.192,-0.089 0.168,-0.181 0.116,-0.374 0.062,-0.567 0,-0.794"
   style="fill:#ffffff;fill-rule:nonzero"
   id="path54" />
            </g>
            <g
   transform="matrix(-1.95492,-0.422262,-0.422262,1.95492,580.256,121.709)"
   id="g60">
                <path
   d="M 0.192,-0.609 C 0.01,-0.575 -0.19,-0.637 -0.25,-0.418 -0.282,-0.306 0.034,-0.009 0.192,0.031 0.294,0.057 0.306,-0.009 0.29,-0.066 0.235,-0.241 0.442,-0.477 0.192,-0.609"
   style="fill:#ffffff;fill-rule:nonzero"
   id="path58" />
            </g>
            <g
   transform="matrix(-0.10026,-1.99749,-1.99749,0.10026,583.464,118.162)"
   id="g64">
                <path
   d="m -0.187,-0.261 c -0.104,0.085 -0.276,-0.04 -0.308,0.135 -0.021,0.117 0.24,0.422 0.308,0.384 0.165,-0.093 0.262,-0.269 0.258,-0.435 -0.006,-0.215 -0.19,0.026 -0.258,-0.084"
   style="fill:#ffffff;fill-rule:nonzero"
   id="path62" />
            </g>
            <g
   transform="matrix(2,0,0,2,584.081,119.583)"
   id="g68">
                <path
   d="M 0,0.543 C -0.214,0.447 -0.425,0.421 -0.443,0.24 -0.453,0.13 -0.227,0 -0.151,0.032 0.039,0.113 -0.08,0.331 0,0.543"
   style="fill:#ffffff;fill-rule:nonzero"
   id="path66" />
            </g>
            <g
   transform="matrix(2,0,0,2,572.616,112.435)"
   id="g72">
                <path
   d="M 0,7.409 C 0.371,6.794 0.232,6.207 -0.06,5.593 c -0.105,0.121 -0.06,0.232 -0.037,0.334 0.152,0.67 0.022,1.239 -0.582,1.638 -0.137,0.09 -0.232,0.211 -0.317,0.347 -0.145,0.231 -0.314,0.445 -0.488,0.657 -0.17,0.206 -0.347,0.25 -0.574,0.116 -0.222,-0.131 -0.477,-0.206 -0.655,-0.426 0.209,0.059 0.43,0.093 0.623,0.184 0.223,0.104 0.333,0.019 0.418,-0.165 C -1.607,8.135 -1.541,7.99 -1.55,7.821 -1.691,7.787 -1.768,7.976 -1.908,7.919 -1.926,7.849 -1.875,7.816 -1.838,7.784 -1.598,7.583 -1.55,7.32 -1.635,7.041 -1.738,6.703 -1.608,6.471 -1.366,6.255 -1.16,6.073 -0.944,5.909 -0.718,5.754 -0.421,5.55 -0.326,5.089 -0.495,4.774 -0.638,4.509 -0.818,4.375 -1.141,4.417 -1.412,4.453 -1.671,4.519 -1.936,4.586 -1.657,4.338 -1.347,4.149 -0.975,4.083 -0.737,4.042 -0.549,3.972 -0.593,3.665 -0.607,3.566 -0.542,3.478 -0.723,3.473 -0.85,3.47 -0.974,3.37 -1.111,3.308 -1.006,3.201 -0.908,3.329 -0.79,3.243 -1.127,3.121 -1.466,3.046 -1.752,2.78 c 0.217,-0.018 0.373,0.066 0.533,0.113 0.276,0.08 0.503,0.026 0.686,-0.199 C -0.511,2.667 -0.484,2.643 -0.461,2.616 -0.11,2.211 -0.143,1.856 -0.575,1.519 -0.79,1.352 -1.024,1.207 -1.239,1.04 -1.427,0.894 -1.585,1.055 -1.814,1.084 c 0.305,-0.363 0.403,-0.705 0.028,-1.043 0.021,-0.015 0.039,-0.034 0.06,-0.043 0.084,-0.036 0.21,0.109 0.253,-0.029 0.045,-0.142 0.16,-0.263 0.098,-0.446 -0.19,-0.556 -0.56,-0.691 -1.118,-0.39 -0.063,0.035 -0.107,0.123 -0.246,0.076 0.277,-0.262 0.544,-0.489 0.895,-0.595 0.081,-0.024 0.132,0.031 0.18,0.084 0.255,0.279 0.556,0.519 0.718,0.875 0.081,0.175 0.275,0.211 0.41,0.321 C -0.117,0.237 0,0.676 -0.077,1.19 -0.095,1.305 -0.196,1.488 -0.074,1.521 0.087,1.564 0.121,1.357 0.157,1.231 0.246,0.918 0.256,0.606 0.091,0.308 0.041,0.217 0.007,0.117 -0.004,0.003 0.182,0.189 0.354,0.385 0.419,0.648 0.488,0.926 0.525,1.225 0.362,1.469 0.017,1.986 0.145,2.48 0.367,2.984 0.387,3.031 0.428,3.073 0.388,3.142 0.208,3.048 0.138,2.859 0.023,2.712 -0.414,3.158 -0.442,3.879 -0.045,4.338 0.035,4.431 0.035,4.431 0.241,4.242 0.301,4.359 0.228,4.467 0.24,4.572 0.248,4.636 0.255,4.707 0.32,4.724 0.382,4.741 0.397,4.667 0.425,4.625 0.511,4.489 0.586,4.343 0.769,4.241 0.751,4.423 0.667,4.537 0.611,4.662 0.582,4.726 0.52,4.792 0.525,4.852 0.553,5.229 0.91,5.32 1.134,5.527 1.259,5.642 1.396,5.606 1.52,5.513 1.631,5.429 1.737,5.338 1.893,5.212 1.842,5.48 1.717,5.637 1.599,5.793 1.512,5.906 1.515,5.984 1.615,6.084 1.883,6.351 2.142,6.626 2.449,6.943 1.508,6.389 0.665,5.813 0.099,4.898 0.022,5.135 0.016,5.329 0.174,5.522 0.353,5.741 0.449,6.013 0.567,6.269 0.645,6.439 0.624,6.609 0.536,6.777 0.408,7.023 0.239,7.233 0,7.409"
   style="fill:#2e6130;fill-rule:nonzero"
   id="path70" />
            </g>
            <g
   transform="matrix(2,0,0,2,576.6,115.196)"
   id="g76">
                <path
   d="M 0,1.047 C -0.176,0.897 -0.356,0.75 -0.527,0.594 -0.625,0.506 -0.708,0.482 -0.824,0.566 -1.043,0.726 -1.347,0.817 -1.45,1.073 -1.55,1.325 -1.322,1.566 -1.274,1.828 -1.429,1.74 -1.735,1.258 -1.727,1.076 -1.719,0.9 -1.577,0.789 -1.462,0.667 c 0.428,-0.453 0.809,-0.955 1.343,-1.299 0.052,-0.033 0.102,-0.069 0.218,-0.149 -0.204,0.32 -0.354,0.589 -0.539,0.83 -0.094,0.124 -0.066,0.182 0.013,0.284 C -0.26,0.547 -0.11,0.774 0.048,0.996 0.032,1.013 0.016,1.03 0,1.047"
   style="fill:#2e6231;fill-rule:nonzero"
   id="path74" />
            </g>
            <g
   transform="matrix(2,0,0,2,577.398,122.928)"
   id="g80">
                <path
   d="m 0,-1.265 c -0.21,0.228 -0.408,0.438 -0.598,0.655 -0.074,0.084 -0.146,0.166 -0.001,0.281 0.133,0.106 -0.029,0.173 -0.085,0.244 C -0.751,0 -0.811,-0.03 -0.877,-0.103 -1.174,-0.434 -1.153,-0.667 -0.783,-0.897 -0.604,-1.008 -0.41,-1.096 -0.221,-1.188 -0.153,-1.222 -0.077,-1.239 0,-1.265"
   style="fill:#306332;fill-rule:nonzero"
   id="path78" />
            </g>
            <g
   transform="matrix(2,0,0,2,577.282,117.173)"
   id="g84">
                <path
   d="M 0,1.237 C -0.296,1.223 -0.462,1.081 -0.626,0.948 -0.741,0.854 -0.826,0.724 -0.942,0.632 -1.116,0.493 -1.08,0.358 -0.977,0.2 -0.9,0.081 -0.794,0 -0.678,0.094 c 0.091,0.073 0.288,0.162 0.103,0.344 -0.074,0.073 0,0.146 0.028,0.216 0.099,0.241 0.324,0.374 0.547,0.583"
   style="fill:#316434;fill-rule:nonzero"
   id="path82" />
            </g>
            <g
   transform="matrix(2,0,0,2,586.286,116.856)"
   id="g88">
                <path
   d="M 0,2.39 C -0.309,1.848 -0.209,0.328 0.165,0 -0.053,0.796 -0.022,1.564 0,2.39"
   style="fill:#396a3d;fill-rule:nonzero"
   id="path86" />
            </g>
            <g
   transform="matrix(2,0,0,2,565.829,122.968)"
   id="g92">
                <path
   d="M 0,1.33 C -0.242,0.706 0.174,0.361 0.55,0 0.315,0.421 0.116,0.856 0,1.33"
   style="fill:#38693b;fill-rule:nonzero"
   id="path90" />
            </g>
            <g
   transform="matrix(2,0,0,2,582.576,111.021)"
   id="g96">
                <path
   d="M 0,0.013 C 0.373,-0.307 0.686,-0.234 1.012,0.32 0.722,0.06 0.37,0.017 0,0.013"
   style="fill:#326433;fill-rule:nonzero"
   id="path94" />
            </g>
            <g
   transform="matrix(2,0,0,2,567.032,114.832)"
   id="g100">
                <path
   d="M 0,1.266 C -0.161,0.856 -0.323,0.445 -0.498,0 -0.089,0.355 0.013,0.788 0,1.266"
   style="fill:#447149;fill-rule:nonzero"
   id="path98" />
            </g>
            <g
   transform="matrix(2,0,0,2,572.074,125.992)"
   id="g104">
                <path
   d="m 0,-0.289 c 0.046,0.486 -0.314,0.659 -0.689,0.741 -0.103,0.023 -0.16,-0.022 -0.2,-0.12 -0.173,-0.422 0.227,-1.068 0.676,-1.091 0.09,-0.005 0.119,0.052 0.159,0.112 0.074,0.112 0.038,0.238 0.054,0.358"
   style="fill:#ffffff;fill-rule:nonzero"
   id="path102" />
            </g>
            <g
   transform="matrix(2,0,0,2,572.071,113.269)"
   id="g108">
                <path
   d="M 0,0.474 C 0.009,0.846 -0.053,0.887 -0.378,0.705 -0.568,0.6 -0.781,0.524 -0.897,0.316 c -0.119,-0.214 -0.071,-0.471 0.134,-0.602 0.199,-0.127 0.35,-0.012 0.483,0.128 0.18,0.191 0.275,0.414 0.28,0.632"
   style="fill:#ffffff;fill-rule:nonzero"
   id="path106" />
            </g>
        </g>
    </g>
</svg>
