<?xml version="1.0" encoding="UTF-8" standalone="no"?>
<svg
   width="34.693203"
   height="37.059227"
   viewBox="0 0 34.693203 37.059227"
   version="1.1"
   xml:space="preserve"
   style="clip-rule:evenodd;fill-rule:evenodd;stroke-linejoin:round;stroke-miterlimit:2"
   id="svg90"
   sodipodi:docname="skeleton.svg"
   inkscape:version="1.1.1 (3bf5ae0d25, 2021-09-20)"
   xmlns:inkscape="http://www.inkscape.org/namespaces/inkscape"
   xmlns:sodipodi="http://sodipodi.sourceforge.net/DTD/sodipodi-0.dtd"
   xmlns="http://www.w3.org/2000/svg"
   xmlns:svg="http://www.w3.org/2000/svg"><defs
   id="defs94" /><sodipodi:namedview
   id="namedview92"
   pagecolor="#ffffff"
   bordercolor="#666666"
   borderopacity="1.0"
   inkscape:pageshadow="2"
   inkscape:pageopacity="0.0"
   inkscape:pagecheckerboard="0"
   showgrid="false"
   inkscape:zoom="21.736842"
   inkscape:cx="17.504843"
   inkscape:cy="19"
   inkscape:window-width="1920"
   inkscape:window-height="1012"
   inkscape:window-x="-8"
   inkscape:window-y="-8"
   inkscape:window-maximized="1"
   inkscape:current-layer="svg90" />
    <g
   transform="translate(-888.68295,-562.62949)"
   id="g88">
        <g
   transform="rotate(90,468.8695,755.6005)"
   id="g86">
            <g
   transform="matrix(2,0,0,2,275.936,318.369)"
   id="g4">
                <path
   d="m 0,-0.293 c -0.013,-0.571 0.055,-1.12 0.128,-1.671 0.127,-0.968 0.663,-1.686 1.355,-2.321 0.488,-0.45 1.026,-0.831 1.58,-1.192 0.156,-0.101 0.292,-0.224 0.423,-0.356 2.494,-2.525 5.48,-3.42 8.877,-2.378 3.427,1.051 5.461,3.477 6.039,7.012 0.787,4.808 -2.789,9.402 -7.634,9.861 C 7.617,8.96 5.034,7.838 3.022,5.399 2.702,5.012 2.262,4.775 1.886,4.46 0.818,3.569 0.221,2.436 0.046,1.064 -0.012,0.607 -0.04,0.152 0,-0.293"
   style="fill:#2f6230;fill-rule:nonzero"
   id="path2" />
            </g>
            <g
   transform="matrix(2,0,0,2,302.739,314.639)"
   id="g8">
                <path
   d="m 0,3.591 c -0.36,0.078 -0.602,0.27 -0.68,0.631 -0.024,0.113 -0.133,0.103 -0.212,0.125 -0.344,0.098 -0.661,0.24 -0.92,0.497 C -1.908,4.938 -1.957,5.028 -1.927,5.169 -1.775,5.868 -2.112,6.452 -2.45,6.998 -2.63,7.289 -3.002,7.463 -3.356,7.553 -3.621,7.62 -4.217,7.206 -4.314,6.941 -4.345,6.855 -4.28,6.834 -4.249,6.788 -4.08,6.537 -3.819,6.401 -3.568,6.259 -3.355,6.138 -3.215,5.975 -3.165,5.733 -3.084,5.344 -2.992,4.958 -2.913,4.57 -2.867,4.347 -2.905,4.137 -3.02,3.934 -3.168,3.672 -3.333,3.423 -3.507,3.178 -3.679,2.934 -3.871,2.699 -3.951,2.402 -3.98,2.297 -4.052,2.234 -4.152,2.213 -4.349,2.173 -4.49,1.974 -4.713,2.015 -4.795,2.03 -5.369,2.531 -5.459,2.659 c 0.142,0.015 0.209,-0.091 0.295,-0.146 0.298,-0.187 0.504,-0.2 0.702,-0.035 0.289,0.244 0.304,0.415 0.066,0.715 -0.364,0.46 -0.642,0.971 -0.87,1.507 -0.191,0.45 0.036,0.822 0.282,1.175 0.085,0.123 0.191,0.234 0.303,0.332 0.175,0.151 0.174,0.317 0.058,0.49 C -4.8,6.963 -4.954,7.02 -5.189,6.895 -5.523,6.717 -5.851,6.525 -6.136,6.273 -6.241,6.18 -6.333,6.168 -6.469,6.197 -6.847,6.28 -7.232,6.335 -7.612,6.41 -7.716,6.43 -7.833,6.441 -7.904,6.568 -7.545,6.525 -7.183,6.59 -6.838,6.532 -6.375,6.453 -6.05,6.673 -5.705,6.906 -5.849,7.126 -6.085,7.128 -6.293,7.179 -6.515,7.234 -6.749,7.246 -6.966,7.312 -7.808,7.566 -8.641,7.477 -9.474,7.28 -9.742,7.217 -9.997,7.105 -10.223,6.955 -11.087,6.383 -11.88,5.746 -12.405,4.816 -12.852,4.025 -13.166,3.22 -13.142,2.292 c 0.02,-0.759 0.035,-1.517 0.131,-2.269 0.105,-0.833 0.477,-1.539 1.082,-2.125 0.522,-0.505 1.088,-0.969 1.717,-1.315 0.695,-0.382 1.466,-0.612 2.286,-0.474 0.649,0.109 1.294,0.241 2.013,0.376 -0.507,0.382 -0.939,0.719 -1.566,0.619 -0.323,-0.052 -0.657,-0.039 -1.034,-0.057 0.642,0.401 1.727,0.371 2.357,-0.036 0.417,-0.268 0.786,-0.115 0.912,0.374 0.097,0.373 -0.025,0.735 -0.048,1.102 -0.009,0.133 -0.137,0.081 -0.214,0.09 -0.503,0.056 -1.007,0.105 -1.357,0.546 0.045,0.058 0.089,0.006 0.125,-0.017 0.423,-0.279 0.878,-0.28 1.348,-0.161 0.049,0.013 0.121,0.032 0.136,0.067 0.261,0.622 0.806,1.064 1.066,1.686 0.102,0.243 0.05,0.479 -0.155,0.67 -0.113,0.105 -0.205,0.151 -0.39,0.095 -0.316,-0.095 -0.64,-0.16 -0.95,-0.29 0.329,0.298 0.713,0.499 1.096,0.702 0.028,0.015 0.07,0.012 0.103,0.006 0.172,-0.032 0.703,-0.544 0.702,-0.716 -0.003,-0.318 0.114,-0.572 0.354,-0.762 0.398,-0.314 0.5,-0.758 0.523,-1.219 0.014,-0.279 0.091,-0.418 0.382,-0.409 0.063,0.002 0.128,-0.034 0.197,-0.054 -0.032,-0.07 -0.081,-0.05 -0.118,-0.052 -0.397,-0.021 -0.37,-0.024 -0.425,-0.403 -0.076,-0.528 -0.408,-0.902 -0.836,-1.194 -0.113,-0.077 -0.247,-0.032 -0.359,0.009 -0.482,0.182 -0.88,0.103 -1.147,-0.353 0.303,0.143 0.559,-0.006 0.807,-0.202 0.694,-0.545 1.138,-0.493 1.729,0.199 0.241,0.282 0.439,0.596 0.625,0.916 0.12,0.205 0.162,0.404 0.066,0.647 -0.144,0.363 -0.094,0.414 0.228,0.642 0.36,0.256 0.795,0.328 1.182,0.515 0.122,0.059 0.17,0.099 0.111,0.248 -0.078,0.199 0.035,0.36 0.192,0.478 0.089,0.066 0.104,0.098 0.026,0.198 -0.175,0.227 -0.146,0.367 0.069,0.569 0.035,0.033 0.121,0.029 0.054,0.129 -0.237,0.355 -0.204,0.465 0.17,0.659 0.03,0.016 0.062,0.03 0.131,0.062 -0.192,0.116 -0.344,0.239 -0.414,0.435 -0.086,0.239 0.067,0.38 0.209,0.526 C -0.417,3.064 -0.415,3.263 0,3.591"
   style="fill:#ffffff;fill-rule:nonzero"
   id="path6" />
            </g>
            <g
   transform="matrix(2,0,0,2,304.207,325.012)"
   id="g12">
                <path
   d="m 0,-6.664 c -0.496,-0.454 -1.046,-0.777 -1.753,-0.711 -0.314,0.03 -0.54,-0.102 -0.709,-0.363 -0.076,-0.119 -0.058,-0.179 0.075,-0.2 0.383,-0.06 0.765,-0.137 1.151,-0.168 0.703,-0.056 1.196,0.344 1.642,0.818 0.81,0.859 1.597,1.742 2.59,2.405 0.342,0.228 0.541,0.535 0.53,0.972 -0.013,0.556 -0.029,1.111 -0.079,1.665 -0.029,0.318 -0.224,0.53 -0.461,0.709 -0.944,0.712 -1.861,1.451 -2.662,2.329 -0.417,0.457 -0.933,0.706 -1.581,0.629 -0.418,-0.05 -0.84,-0.063 -1.259,-0.092 0,-0.05 -0.005,-0.07 10e-4,-0.085 0.344,-0.8 0.169,-0.697 1.155,-0.645 0.282,0.015 0.507,-0.026 0.743,-0.169 0.334,-0.202 0.716,-0.325 1.04,-0.669 -0.327,0.155 -0.592,0.283 -0.859,0.408 -0.488,0.23 -1.003,0.259 -1.526,0.184 -0.132,-0.019 -0.288,-0.021 -0.324,-0.212 -0.034,-0.181 0.004,-0.306 0.155,-0.435 0.393,-0.335 0.864,-0.373 1.339,-0.406 0.175,-0.012 0.353,-0.001 0.529,0.011 0.26,0.017 0.472,-0.033 0.56,-0.32 0.044,-0.141 0.165,-0.165 0.299,-0.163 0.33,0.007 0.651,-0.032 0.939,-0.215 C 1.618,-1.44 1.735,-1.49 1.707,-1.596 1.653,-1.801 1.74,-1.912 1.879,-2.045 1.994,-2.156 2.02,-2.329 1.886,-2.475 1.855,-2.508 1.779,-2.545 1.852,-2.593 1.929,-2.645 1.95,-2.565 1.981,-2.512 2.059,-2.379 2.044,-2.199 2.236,-2.05 2.175,-2.36 2.098,-2.615 2.096,-2.877 2.095,-3.159 2.103,-3.441 2.115,-3.723 2.127,-3.991 2.15,-4.259 2.169,-4.535 2.022,-4.474 2.044,-4.205 1.957,-4.242 1.775,-4.318 2.008,-4.446 1.99,-4.577 1.957,-4.814 1.777,-4.856 1.613,-4.932 1.768,-5.188 1.742,-5.265 1.47,-5.365 1.271,-5.438 1.069,-5.501 0.854,-5.503 0.649,-5.506 0.431,-5.463 0.31,-5.709 0.267,-5.795 0.153,-5.772 0.068,-5.788 -0.45,-5.881 -0.989,-5.864 -1.488,-6.063 c -0.325,-0.13 -0.667,-0.236 -0.842,-0.59 -0.137,-0.277 -0.058,-0.438 0.248,-0.473 0.671,-0.076 1.301,0.007 1.833,0.473 0.023,0.02 0.064,0.022 0.096,0.032 0.082,0.05 0.19,0.031 0.281,0.111 C 0.138,-6.5 0.132,-6.538 0.125,-6.539 0.062,-6.556 0.032,-6.612 0,-6.664"
   style="fill:#ffffff;fill-rule:nonzero"
   id="path10" />
            </g>
            <g
   transform="matrix(2,0,0,2,305.288,319.292)"
   id="g16">
                <path
   d="m 0,-0.117 c 0.056,0.303 -0.048,0.424 -0.311,0.439 -0.236,0.013 -0.47,0.049 -0.708,0.011 -0.161,-0.026 -0.26,-0.114 -0.289,-0.264 -0.028,-0.148 0.059,-0.258 0.182,-0.323 0.293,-0.153 0.62,-0.211 0.94,-0.223 0.274,-0.011 0.146,0.262 0.186,0.36"
   style="fill:#ffffff;fill-rule:nonzero"
   id="path14" />
            </g>
            <g
   transform="matrix(2,0,0,2,305.162,321.831)"
   id="g20">
                <path
   d="m 0,-0.746 c -0.202,0.141 -0.16,0.286 -0.144,0.422 0.02,0.162 -0.045,0.247 -0.203,0.275 -0.301,0.053 -0.594,0.06 -0.855,-0.132 -0.094,-0.07 -0.173,-0.151 -0.137,-0.286 0.034,-0.126 0.13,-0.188 0.244,-0.213 C -0.76,-0.754 -0.421,-0.757 0,-0.746"
   style="fill:#ffffff;fill-rule:nonzero"
   id="path18" />
            </g>
            <g
   transform="matrix(2,0,0,2,304.768,317.966)"
   id="g24">
                <path
   d="m 0,-0.708 c 0.154,0.032 0.293,0.074 0.303,0.271 0.01,0.187 -0.044,0.354 -0.237,0.388 C -0.22,0 -0.515,-0.01 -0.805,-0.042 -0.948,-0.058 -1.023,-0.168 -1.035,-0.297 -1.049,-0.449 -0.948,-0.553 -0.809,-0.581 -0.542,-0.635 -0.271,-0.667 0,-0.708"
   style="fill:#ffffff;fill-rule:nonzero"
   id="path22" />
            </g>
            <g
   transform="matrix(2,0,0,2,303.708,314.875)"
   id="g28">
                <path
   d="M 0,0.73 C -0.157,0.721 -0.255,0.723 -0.35,0.708 -0.457,0.691 -0.562,0.651 -0.581,0.527 -0.6,0.409 -0.532,0.318 -0.44,0.262 -0.18,0.103 0.124,0.043 0.412,0.013 0.542,0 0.726,0.197 0.747,0.41 0.766,0.6 0.643,0.654 0.49,0.673 0.307,0.697 0.124,0.716 0,0.73"
   style="fill:#ffffff;fill-rule:nonzero"
   id="path26" />
            </g>
            <g
   transform="matrix(2,0,0,2,304.469,322.437)"
   id="g32">
                <path
   d="M 0,0.713 C -0.222,0.693 -0.444,0.672 -0.666,0.651 -0.753,0.644 -0.811,0.598 -0.83,0.512 -0.849,0.43 -0.83,0.357 -0.761,0.304 -0.406,0.03 0.016,0 0.432,0.03 0.635,0.044 0.53,0.276 0.531,0.401 0.533,0.535 0.491,0.699 0.292,0.703 0.195,0.705 0.098,0.704 0.001,0.704 0.001,0.707 0,0.71 0,0.713"
   style="fill:#ffffff;fill-rule:nonzero"
   id="path30" />
            </g>
            <g
   transform="matrix(2,0,0,2,303.716,313.586)"
   id="g36">
                <path
   d="M 0,0.637 C -0.236,0.636 -0.402,0.636 -0.558,0.561 -0.653,0.516 -0.722,0.45 -0.726,0.345 -0.73,0.24 -0.637,0.199 -0.558,0.166 -0.33,0.07 -0.092,0.017 0.156,0.007 0.443,-0.006 0.421,0.255 0.474,0.409 0.537,0.595 0.335,0.591 0.219,0.62 0.127,0.643 0.027,0.635 0,0.637"
   style="fill:#ffffff;fill-rule:nonzero"
   id="path34" />
            </g>
            <g
   transform="matrix(2,0,0,2,306.884,317.992)"
   id="g40">
                <path
   d="m 0,-0.61 c 0.088,0 0.177,-0.008 0.264,0.002 0.113,0.012 0.209,0.066 0.218,0.191 0.009,0.122 0.009,0.252 -0.132,0.316 -0.214,0.098 -0.443,0.107 -0.673,0.113 -0.095,0.002 -0.112,-0.061 -0.13,-0.133 C -0.527,-0.405 -0.329,-0.624 0,-0.61"
   style="fill:#ffffff;fill-rule:nonzero"
   id="path38" />
            </g>
            <g
   transform="matrix(2,0,0,2,306.828,319.841)"
   id="g44">
                <path
   d="m 0,-0.674 c 0.088,0.005 0.175,0.009 0.263,0.017 0.094,0.009 0.209,-0.002 0.241,0.116 0.035,0.13 -0.012,0.256 -0.121,0.326 -0.195,0.123 -0.411,0.201 -0.646,0.206 -0.071,10e-4 -0.149,0.009 -0.18,-0.075 -0.031,-0.08 0.018,-0.136 0.08,-0.175 0.087,-0.055 0.143,-0.078 0.013,-0.174 -0.098,-0.072 -0.045,-0.195 0.086,-0.222 0.084,-0.018 0.175,-0.004 0.263,-0.004 C 0,-0.664 0,-0.669 0,-0.674"
   style="fill:#ffffff;fill-rule:nonzero"
   id="path42" />
            </g>
            <g
   transform="matrix(2,0,0,2,306.552,316.446)"
   id="g48">
                <path
   d="m 0,-0.514 c 0.175,-0.007 0.353,-0.023 0.507,0.09 0.139,0.102 0.167,0.217 -0.005,0.301 C 0.244,0.003 -0.04,0.023 -0.321,0.011 -0.468,0.004 -0.446,-0.139 -0.45,-0.238 -0.455,-0.356 -0.435,-0.475 -0.289,-0.499 -0.194,-0.514 -0.096,-0.51 0,-0.514"
   style="fill:#ffffff;fill-rule:nonzero"
   id="path46" />
            </g>
            <g
   transform="matrix(2,0,0,2,306.79,321.386)"
   id="g52">
                <path
   d="m 0,-0.7 c 0.095,-0.003 0.19,-0.026 0.283,0.024 0.101,0.056 0.163,0.14 0.16,0.251 -0.003,0.101 -0.093,0.14 -0.18,0.167 -0.133,0.042 -0.265,0.096 -0.402,0.116 -0.118,0.017 -0.289,0.168 -0.347,-0.078 -0.08,-0.334 -0.031,-0.417 0.251,-0.459 C -0.157,-0.691 -0.078,-0.693 0,-0.7"
   style="fill:#ffffff;fill-rule:nonzero"
   id="path50" />
            </g>
            <g
   transform="matrix(2,0,0,2,306.029,315.159)"
   id="g56">
                <path
   d="m 0,-0.447 c 0.2,-0.023 0.38,0.054 0.561,0.116 0.07,0.024 0.133,0.069 0.121,0.151 C 0.67,-0.1 0.599,-0.071 0.526,-0.06 0.379,-0.038 0.231,-0.016 0.083,-0.002 -0.162,0.023 -0.299,-0.082 -0.334,-0.312 -0.35,-0.416 -0.314,-0.431 0,-0.447"
   style="fill:#ffffff;fill-rule:nonzero"
   id="path54" />
            </g>
            <g
   transform="matrix(2,0,0,2,307.04,321.803)"
   id="g60">
                <path
   d="M 0,0.431 C -0.085,0.408 -0.221,0.468 -0.213,0.337 -0.206,0.232 -0.179,0.082 -0.047,0.053 0.161,0.007 0.375,-0.016 0.587,-0.031 0.676,-0.037 0.766,0.024 0.784,0.114 0.802,0.205 0.706,0.241 0.641,0.278 0.439,0.393 0.209,0.384 0,0.431"
   style="fill:#ffffff;fill-rule:nonzero"
   id="path58" />
            </g>
            <g
   transform="matrix(2,0,0,2,304.207,312.174)"
   id="g64">
                <path
   d="M 0,-0.245 C 0.133,-0.215 0.213,-0.114 0.326,0 0.122,-0.018 -0.021,-0.097 -0.153,-0.202 -0.102,-0.216 -0.051,-0.231 0,-0.245"
   style="fill:#2f6230;fill-rule:nonzero"
   id="path62" />
            </g>
            <g
   transform="matrix(2,0,0,2,300.548,317.76)"
   id="g68">
                <path
   d="M 0,0.689 C -0.011,0.693 -0.045,0.704 -0.076,0.721 -0.25,0.813 -0.384,0.954 -0.517,1.094 -0.594,1.176 -0.674,1.189 -0.776,1.142 -1.176,0.961 -1.573,0.776 -1.944,0.537 -2.096,0.438 -2.103,0.343 -1.968,0.227 c 0.328,-0.285 0.71,-0.483 1.092,-0.682 0.078,-0.041 0.159,-0.045 0.224,0.005 0.149,0.114 0.305,0.198 0.495,0.224 0.067,0.009 0.16,0.053 0.105,0.166 -0.108,0.221 -0.189,0.441 0.019,0.653 0.011,0.011 0.012,0.032 0.033,0.096"
   style="fill:#2f6230;fill-rule:nonzero"
   id="path66" />
            </g>
            <g
   transform="matrix(2,0,0,2,297.823,329.489)"
   id="g72">
                <path
   d="M 0,-1.883 C 0.235,-1.121 -0.18,-0.197 -0.891,0 -0.411,-0.59 -0.153,-1.213 0,-1.883"
   style="fill:#376739;fill-rule:nonzero"
   id="path70" />
            </g>
            <g
   transform="matrix(2,0,0,2,297.471,308.013)"
   id="g76">
                <path
   d="M 0,1.184 C -0.205,0.736 -0.429,0.307 -0.833,0 -0.366,0.053 0.02,0.606 0,1.184"
   style="fill:#376839;fill-rule:nonzero"
   id="path74" />
            </g>
            <g
   transform="matrix(2,0,0,2,295.356,315.972)"
   id="g80">
                <path
   d="M 0,0.796 C 0.129,0.611 0.255,0.424 0.387,0.242 0.447,0.159 0.522,0.085 0.596,0 0.634,0.343 0.59,0.405 0,0.796"
   style="fill:#2f6230;fill-rule:nonzero"
   id="path78" />
            </g>
            <g
   transform="matrix(1.42881,-1.39947,-1.39947,-1.42881,296.869,320)"
   id="g84">
                <path
   d="m -0.336,-0.125 c -0.023,0.284 0.021,0.531 -0.034,0.772 -0.009,0.04 -0.016,0.095 0.034,0.114 0.067,0.026 0.086,-0.034 0.11,-0.08 0.142,-0.271 0.087,-0.522 -0.11,-0.806"
   style="fill:#3c6b40;fill-rule:nonzero"
   id="path82" />
            </g>
        </g>
    </g>
</svg>
