<?xml version="1.0" encoding="UTF-8" standalone="no"?>
<svg
   width="45.264198"
   height="34.622032"
   viewBox="0 0 45.264198 34.622032"
   version="1.1"
   xml:space="preserve"
   style="clip-rule:evenodd;fill-rule:evenodd;stroke-linejoin:round;stroke-miterlimit:2"
   id="svg102"
   sodipodi:docname="goblin.svg"
   inkscape:version="1.1.1 (3bf5ae0d25, 2021-09-20)"
   xmlns:inkscape="http://www.inkscape.org/namespaces/inkscape"
   xmlns:sodipodi="http://sodipodi.sourceforge.net/DTD/sodipodi-0.dtd"
   xmlns="http://www.w3.org/2000/svg"
   xmlns:svg="http://www.w3.org/2000/svg"><defs
   id="defs106" /><sodipodi:namedview
   id="namedview104"
   pagecolor="#ffffff"
   bordercolor="#666666"
   borderopacity="1.0"
   inkscape:pageshadow="2"
   inkscape:pageopacity="0.0"
   inkscape:pagecheckerboard="0"
   showgrid="false"
   inkscape:zoom="23"
   inkscape:cx="22.978261"
   inkscape:cy="17.478261"
   inkscape:window-width="1920"
   inkscape:window-height="1012"
   inkscape:window-x="-8"
   inkscape:window-y="-8"
   inkscape:window-maximized="1"
   inkscape:current-layer="svg102" />
    <g
   transform="translate(-822.20929,-699.74097)"
   id="g100">
        <g
   transform="translate(262.08,-2.88)"
   id="g98">
            <g
   transform="matrix(0,2,-2,0,582.891,737.243)"
   id="g4">
                <path
   d="m 0,0.133 c 0.002,4.446 -3.37,8.172 -7.783,8.607 -1.157,0.114 -2.289,10e-4 -3.4,-0.335 -0.121,-0.036 -0.22,-0.077 -0.329,0.049 -0.455,0.528 -1.061,0.85 -1.685,1.107 -0.82,0.337 -1.553,0.783 -2.18,1.408 -0.137,0.137 -0.286,0.264 -0.461,0.35 -0.064,0.031 -0.135,0.107 -0.215,0.025 -0.072,-0.074 -0.024,-0.152 0.006,-0.221 0.245,-0.57 0.56,-1.098 0.942,-1.588 0.189,-0.243 0.375,-0.487 0.624,-0.677 0.415,-0.315 0.65,-0.728 0.762,-1.247 0.065,-0.303 0.018,-0.456 -0.229,-0.645 -4.538,-3.486 -4.472,-10.394 0.129,-13.799 0.172,-0.127 0.234,-0.236 0.147,-0.431 -0.039,-0.087 -0.071,-0.184 -0.08,-0.278 -0.049,-0.56 -0.425,-0.898 -0.804,-1.248 -0.671,-0.62 -1.134,-1.386 -1.501,-2.215 -0.034,-0.077 -0.053,-0.158 0.014,-0.221 0.071,-0.067 0.128,0.018 0.186,0.041 0.183,0.075 0.33,0.207 0.465,0.343 0.619,0.622 1.342,1.071 2.152,1.407 0.667,0.276 1.311,0.613 1.786,1.186 0.114,0.136 0.221,0.092 0.351,0.053 4.357,-1.27 8.923,0.992 10.544,5.224 0.385,1.001 0.558,1.969 0.559,3.105"
   style="fill:#2f6230;fill-rule:nonzero"
   id="path2" />
            </g>
            <g
   transform="matrix(0,2,-2,0,560.643,705.549)"
   id="g8">
                <path
   d="m 0,-22.129 c 0.098,0.078 0.154,0.109 0.192,0.154 0.487,0.575 1.132,0.945 1.754,1.342 0.133,0.086 0.275,0.166 0.424,0.214 0.749,0.244 1.367,0.686 1.899,1.253 0.26,0.277 0.578,0.456 0.918,0.606 0.202,0.089 0.392,0.159 0.403,0.447 0.008,0.209 0.347,0.372 0.518,0.244 0.194,-0.145 0.291,-0.014 0.399,0.075 0.63,0.517 1.145,1.137 1.598,1.812 0.131,0.196 0.268,0.388 0.43,0.6 -0.146,-0.373 0.091,-0.322 0.288,-0.302 0.351,0.035 0.703,0.007 1.053,0.026 0.592,0.033 1.063,0.335 1.462,0.761 0.482,0.515 0.84,1.134 1.367,1.611 0.235,0.213 0.475,0.421 0.706,0.638 0.372,0.351 0.571,0.773 0.619,1.295 0.081,0.889 -0.175,1.603 -0.904,2.147 -0.647,0.484 -1.089,1.172 -1.649,1.744 -0.5,0.51 -1.058,0.87 -1.79,0.91 C 9.257,-6.529 8.839,-6.376 8.4,-6.437 8.328,-6.447 8.302,-6.349 8.261,-6.294 7.734,-5.591 7.213,-4.881 6.52,-4.325 6.405,-4.233 6.31,-4.086 6.108,-4.254 5.95,-4.386 5.591,-4.189 5.585,-3.97 5.578,-3.715 5.41,-3.639 5.236,-3.568 4.838,-3.407 4.49,-3.183 4.193,-2.868 3.684,-2.328 3.062,-1.971 2.375,-1.679 1.596,-1.349 0.897,-0.865 0.303,-0.248 0.225,-0.166 0.155,-0.073 0.001,0 0.225,-0.529 0.491,-0.979 0.85,-1.377 1.195,-1.761 1.592,-2.082 2.004,-2.383 2.288,-2.591 2.506,-2.845 2.671,-3.162 2.548,-3.054 2.426,-2.947 2.282,-2.82 2.253,-3.041 2.324,-3.227 2.371,-3.415 2.534,-4.066 2.785,-4.687 3.022,-5.313 3.064,-5.424 3.081,-5.524 3.037,-5.641 2.895,-6.016 3.002,-6.31 3.345,-6.519 3.374,-6.537 3.396,-6.565 3.42,-6.59 3.425,-6.595 3.425,-6.604 3.428,-6.615 3.324,-6.633 3.223,-6.593 3.155,-6.537 c -0.34,0.279 -0.643,0.103 -0.94,-0.069 -1.381,-0.802 -2.091,-2.059 -2.457,-3.57 -0.242,-1.004 -0.04,-1.921 0.332,-2.854 0.374,-0.94 1.013,-1.636 1.786,-2.243 0.224,-0.177 0.484,-0.288 0.725,-0.434 0.106,-0.064 0.187,-0.029 0.264,0.034 0.165,0.136 0.364,0.153 0.603,0.193 -0.069,-0.051 -0.101,-0.081 -0.139,-0.1 -0.361,-0.189 -0.421,-0.278 -0.334,-0.68 0.064,-0.298 0.032,-0.558 -0.085,-0.841 -0.243,-0.585 -0.456,-1.184 -0.592,-1.806 -0.025,-0.117 -0.04,-0.235 -0.071,-0.414 0.174,0.155 0.296,0.264 0.419,0.373 -0.134,-0.26 -0.291,-0.495 -0.534,-0.674 C 1.326,-20.217 0.565,-20.857 0.136,-21.799 0.107,-21.863 0.075,-21.926 0.046,-21.99 0.036,-22.013 0.03,-22.037 0,-22.129"
   style="fill:#ffffff;fill-rule:nonzero"
   id="path6" />
            </g>
            <g
   transform="matrix(0,2,-2,0,596.085,718.471)"
   id="g12">
                <path
   d="m 0,-0.892 c 0.326,-0.002 0.619,0.028 0.801,0.329 0.095,0.158 0.089,0.316 0.015,0.477 C 0.795,-0.039 0.77,0.02 0.706,0.005 0.652,-0.007 0.6,-0.018 0.571,-0.094 0.435,-0.456 -0.043,-0.602 -0.332,-0.356 -0.473,-0.235 -0.576,-0.239 -0.69,-0.352 -0.823,-0.483 -0.716,-0.605 -0.639,-0.7 -0.47,-0.912 -0.213,-0.87 0,-0.892"
   style="fill:#ffffff;fill-rule:nonzero"
   id="path10" />
            </g>
            <g
   transform="matrix(0,2,-2,0,569.449,718.493)"
   id="g16">
                <path
   d="M 0,0.91 C -0.187,0.936 -0.392,0.844 -0.582,0.739 -0.695,0.677 -0.831,0.551 -0.722,0.397 -0.63,0.267 -0.509,0.231 -0.348,0.366 -0.027,0.634 0.442,0.473 0.553,0.076 0.566,0.03 0.564,-0.007 0.618,-0.016 0.678,-0.026 0.711,0.003 0.747,0.05 0.932,0.288 0.872,0.6 0.601,0.781 0.432,0.895 0.24,0.909 0,0.91"
   style="fill:#ffffff;fill-rule:nonzero"
   id="path14" />
            </g>
            <g
   transform="matrix(0,2,-2,0,566.6,713.509)"
   id="g20">
                <path
   d="m 0,-16.148 c 0.644,0.696 1.195,1.451 1.517,2.355 0.066,0.182 -0.052,0.234 -0.158,0.308 -0.048,0.034 -0.123,0.054 -0.107,0.132 0.016,0.077 0.094,0.073 0.152,0.076 0.258,0.015 0.416,0.178 0.469,0.398 0.084,0.348 0.344,0.425 0.627,0.463 0.184,0.025 0.297,0.096 0.335,0.274 0.031,0.146 0.125,0.218 0.258,0.27 0.438,0.173 0.814,0.451 1.199,0.718 0.357,0.248 0.505,0.593 0.563,1 0.019,0.13 0.041,0.259 0.066,0.414 0.32,-0.655 0.738,-0.695 1.255,-0.737 -0.06,-0.248 -0.188,-0.426 -0.44,-0.509 -0.226,-0.074 -0.444,-0.172 -0.669,-0.247 -0.214,-0.073 -0.434,-0.13 -0.685,-0.204 0.227,-0.169 0.447,-0.264 0.685,-0.319 0.187,-0.044 0.329,-0.112 0.399,-0.321 0.069,-0.206 0.247,-0.305 0.506,-0.307 -0.083,0.061 -0.141,0.097 -0.191,0.142 -0.09,0.08 -0.097,0.195 -0.071,0.295 0.03,0.113 0.143,0.08 0.226,0.068 0.335,-0.05 0.54,0.109 0.759,0.357 0.423,0.482 0.941,0.875 1.352,1.374 0.181,0.22 0.364,0.442 0.461,0.704 0.102,0.277 0.294,0.447 0.546,0.619 C 9,-9.192 8.835,-9.499 8.728,-9.841 9.502,-9.364 9.6,-7.055 8.712,-6.258 8.876,-6.704 9.015,-7.085 9.169,-7.504 8.835,-7.234 8.622,-6.942 8.446,-6.596 8.127,-5.968 7.602,-5.498 7.09,-5.025 6.987,-4.929 6.864,-4.847 6.783,-4.735 6.548,-4.406 6.279,-4.171 5.836,-4.279 5.784,-4.292 5.72,-4.27 5.71,-4.21 5.694,-4.115 5.687,-4.011 5.761,-3.934 5.814,-3.878 5.882,-3.835 5.965,-3.771 5.689,-3.764 5.524,-3.894 5.444,-4.115 5.39,-4.268 5.296,-4.333 5.149,-4.368 4.884,-4.431 4.637,-4.534 4.355,-4.718 4.804,-4.819 5.179,-4.964 5.558,-5.096 5.989,-5.246 6.037,-5.287 6.182,-5.69 5.719,-5.816 5.15,-5.758 4.958,-6.423 c -0.076,0.324 -0.137,0.585 -0.199,0.846 -0.047,0.196 -0.154,0.35 -0.313,0.476 -0.455,0.36 -0.899,0.735 -1.467,0.913 -0.07,0.022 -0.096,0.075 -0.114,0.134 -0.109,0.345 -0.387,0.46 -0.705,0.506 -0.119,0.017 -0.167,0.051 -0.22,0.17 -0.106,0.24 -0.096,0.587 -0.547,0.609 0.28,0.17 0.171,0.345 0.099,0.514 C 1.13,-1.414 0.641,-0.656 0,0 -0.05,0.012 -0.073,-0.005 -0.059,-0.058 0.357,-0.779 0.91,-1.416 1.236,-2.196 1.337,-2.437 1.288,-2.564 1.107,-2.702 1.05,-2.746 0.965,-2.775 0.949,-2.87 1.175,-3.015 1.522,-2.925 1.632,-3.306 1.729,-3.637 1.447,-3.828 1.448,-4.121 c 0.077,0.01 0.126,0.068 0.178,0.119 0.349,0.341 0.828,0.269 1.048,-0.172 C 2.922,-4.67 3.127,-5.189 3.444,-5.647 3.724,-6.053 4.017,-6.45 4.316,-6.843 4.41,-6.967 4.483,-7.099 4.498,-7.246 4.513,-7.401 4.579,-7.585 4.381,-7.693 4.185,-7.801 4.005,-7.904 3.776,-7.734 3.331,-7.403 2.841,-7.144 2.343,-6.896 2.799,-7.372 3.36,-7.712 3.919,-8.085 3.628,-8.319 3.33,-8.522 3.104,-8.814 c 0.102,-0.055 0.14,0.03 0.192,0.061 0.145,0.083 0.279,0.186 0.427,0.264 0.204,0.106 0.427,0.217 0.632,0.023 0.191,-0.181 0.186,-0.507 0.009,-0.751 -0.145,-0.199 -0.296,-0.394 -0.449,-0.588 -0.485,-0.611 -0.871,-1.282 -1.168,-2.002 -0.163,-0.396 -0.926,-0.628 -1.222,-0.215 -0.123,0.171 -0.338,0.235 -0.512,0.349 0.155,-0.258 0.395,-0.444 0.543,-0.704 0.163,-0.285 0.004,-0.715 -0.307,-0.803 -0.1,-0.028 -0.199,-0.057 -0.295,-0.085 0.005,-0.032 0.001,-0.055 0.011,-0.063 0.394,-0.355 0.404,-0.36 0.173,-0.835 -0.333,-0.682 -0.753,-1.313 -1.196,-1.928 -0.014,-0.053 0.008,-0.069 0.058,-0.057"
   style="fill:#2d6230;fill-rule:nonzero"
   id="path18" />
            </g>
            <g
   transform="matrix(0,2,-2,0,565.685,713.39)"
   id="g24">
                <path
   d="m 0,-0.515 c 0.02,0.019 0.04,0.039 0.059,0.058 C -0.08,-0.272 -0.248,-0.119 -0.448,0 -0.336,-0.205 -0.171,-0.363 0,-0.515"
   style="fill:#2d6230;fill-rule:nonzero"
   id="path22" />
            </g>
            <g
   transform="matrix(0,2,-2,0,599.698,713.509)"
   id="g28">
                <path
   d="M 0,0.401 C -0.019,0.42 -0.039,0.439 -0.058,0.458 -0.232,0.309 -0.386,0.141 -0.506,-0.057 -0.304,0.06 -0.139,0.216 0,0.401"
   style="fill:#2f6230;fill-rule:nonzero"
   id="path26" />
            </g>
            <g
   transform="matrix(0,2,-2,0,581.757,725.864)"
   id="g32">
                <path
   d="m 0,-1.081 c -0.211,-0.12 -0.386,-0.116 -0.553,-0.145 -0.26,-0.044 -0.448,-0.292 -0.501,-0.659 -0.043,-0.295 0.051,-0.454 0.32,-0.597 0.557,-0.295 1.049,-0.239 1.522,0.197 0.429,0.396 0.947,0.669 1.47,0.926 0.368,0.18 0.694,0.447 0.692,0.861 C 2.948,-0.073 2.615,0.197 2.236,0.376 1.611,0.671 1.043,1.054 0.527,1.511 0.317,1.696 0.074,1.684 -0.169,1.672 -0.281,1.667 -0.393,1.626 -0.499,1.584 -0.78,1.475 -1.078,1.381 -1.064,0.986 -1.05,0.583 -0.813,0.272 -0.44,0.147 -0.317,0.105 -0.173,0.139 -0.058,0.03 -0.418,-0.015 -0.763,0.009 -1.104,0.09 -1.245,0.123 -1.346,0.117 -1.432,-0.032 -1.535,-0.21 -1.7,-0.335 -1.941,-0.386 c 0.192,-0.217 0.41,-0.384 0.541,-0.626 0.045,-0.082 0.146,-0.038 0.221,-0.035 0.374,0.013 0.747,0.026 1.179,-0.034"
   style="fill:#ffffff;fill-rule:nonzero"
   id="path30" />
            </g>
            <g
   transform="matrix(1.01445,-1.72363,-1.72363,-1.01445,577.265,719.454)"
   id="g36">
                <path
   d="m -0.674,-2.376 c -0.519,0.532 -0.702,1.422 -0.43,2.056 0.09,0.212 0.232,0.371 0.43,0.48 0.102,0.055 0.195,0.088 0.221,-0.09 0.059,-0.414 -0.084,-2.075 -0.221,-2.446"
   style="fill:#ffffff;fill-rule:nonzero"
   id="path34" />
            </g>
            <g
   transform="matrix(0,2,-2,0,589.165,723.099)"
   id="g40">
                <path
   d="M 0,2.284 C -0.584,1.59 -1.083,0.935 -1.468,0.2 -1.563,0.016 -1.406,0 -1.297,0.016 c 0.366,0.057 0.686,0.215 0.929,0.503 0.13,0.155 0.229,0.325 0.265,0.534 0.067,0.38 0.117,0.759 0.103,1.231"
   style="fill:#ffffff;fill-rule:nonzero"
   id="path38" />
            </g>
            <g
   transform="matrix(0,2,-2,0,589.025,723.076)"
   id="g44">
                <path
   d="M 0,-0.244 C 0.52,-0.522 1.002,-0.514 1.484,-0.471 1.613,-0.46 1.677,-0.341 1.7,-0.204 1.73,-0.03 1.645,0.074 1.526,0.179 1.413,0.278 1.33,0.207 1.243,0.155 0.882,-0.061 0.474,-0.137 0,-0.244"
   style="fill:#ffffff;fill-rule:nonzero"
   id="path42" />
            </g>
            <g
   transform="matrix(0,2,-2,0,576.45,723.091)"
   id="g48">
                <path
   d="M 0,0.241 C 0.269,0.17 0.476,0.114 0.683,0.061 0.881,0.01 1.065,-0.07 1.243,-0.171 1.418,-0.271 1.601,-0.2 1.68,-0.009 1.753,0.168 1.667,0.43 1.493,0.451 1.004,0.512 0.516,0.502 0,0.241"
   style="fill:#ffffff;fill-rule:nonzero"
   id="path46" />
            </g>
            <g
   transform="matrix(1.96099,-0.393106,-0.393106,-1.96099,588.725,726.82)"
   id="g52">
                <path
   d="m -0.597,-0.59 c -0.034,0.241 -0.057,0.446 -0.151,0.638 -0.051,0.105 0.064,0.203 0.151,0.242 0.131,0.062 0.279,0.083 0.452,0.131 -0.17,-0.344 -0.17,-0.714 -0.452,-1.011"
   style="fill:#ffffff;fill-rule:nonzero"
   id="path50" />
            </g>
            <g
   transform="matrix(1.89764,0.631649,0.631649,-1.89764,578.76,727.573)"
   id="g56">
                <path
   d="m -0.387,-0.472 c -0.264,0.236 -0.394,0.493 -0.493,0.933 0.199,0.023 0.346,-0.077 0.493,-0.189 0.059,-0.045 0.078,-0.082 0.05,-0.152 -0.069,-0.173 -0.058,-0.358 -0.05,-0.592"
   style="fill:#ffffff;fill-rule:nonzero"
   id="path54" />
            </g>
            <g
   transform="matrix(0,2,-2,0,587.657,729.459)"
   id="g60">
                <path
   d="M 0,0.625 C -0.324,0.546 -0.644,0.468 -0.962,0.391 -0.657,0 -0.283,0.087 0,0.625"
   style="fill:#ffffff;fill-rule:nonzero"
   id="path58" />
            </g>
            <g
   transform="matrix(0,2,-2,0,578.247,727.452)"
   id="g64">
                <path
   d="M 0,-0.178 C 0.202,-0.206 0.358,-0.221 0.511,-0.25 0.656,-0.278 0.798,-0.321 0.945,-0.359 0.686,0.146 0.53,0.181 0,-0.178"
   style="fill:#ffffff;fill-rule:nonzero"
   id="path62" />
            </g>
            <g
   transform="matrix(0,2,-2,0,579.331,729.603)"
   id="g68">
                <path
   d="M 0,-0.107 C -0.326,0.044 -0.624,0.127 -0.949,0.168 -0.62,-0.209 -0.405,-0.275 0,-0.107"
   style="fill:#ffffff;fill-rule:nonzero"
   id="path66" />
            </g>
            <g
   transform="matrix(0,2,-2,0,585.874,729.611)"
   id="g72">
                <path
   d="m 0,-0.043 c -0.408,0.266 -0.596,-0.113 -0.864,-0.223 0.296,0.013 0.571,0.093 0.864,0.223"
   style="fill:#ffffff;fill-rule:nonzero"
   id="path70" />
            </g>
            <g
   transform="matrix(0,2,-2,0,580.264,729.314)"
   id="g76">
                <path
   d="M 0,0.079 C 0.168,-0.004 0.307,-0.123 0.517,-0.181 0.484,0.005 0.406,0.148 0.285,0.221 0.22,0.26 0.074,0.191 0,0.079"
   style="fill:#ffffff;fill-rule:nonzero"
   id="path74" />
            </g>
            <g
   transform="matrix(0,2,-2,0,576.483,726.572)"
   id="g80">
                <path
   d="M 0,-0.267 C 0.178,-0.276 0.305,-0.283 0.453,-0.29 0.409,-0.141 0.306,-0.013 0.208,0.004 0.104,0.023 0.114,-0.164 0,-0.267"
   style="fill:#ffffff;fill-rule:nonzero"
   id="path78" />
            </g>
            <g
   transform="matrix(0,2,-2,0,589.09,727.549)"
   id="g84">
                <path
   d="M 0,0.349 C -0.177,0.296 -0.309,0.358 -0.428,0.279 -0.286,-0.009 -0.286,-0.009 0,0.349"
   style="fill:#ffffff;fill-rule:nonzero"
   id="path82" />
            </g>
            <g
   transform="matrix(0,2,-2,0,584.401,723.475)"
   id="g88">
                <path
   d="M 0,-0.475 C 0.059,-0.324 0.119,-0.172 0.186,0 -0.168,-0.044 -0.024,-0.295 0,-0.475"
   style="fill:#ffffff;fill-rule:nonzero"
   id="path86" />
            </g>
            <g
   transform="matrix(0,2,-2,0,585.744,730.293)"
   id="g92">
                <path
   d="M 0,0.35 C -0.169,0.31 -0.289,0.246 -0.409,0.171 -0.161,0 -0.161,0 0,0.35"
   style="fill:#ffffff;fill-rule:nonzero"
   id="path90" />
            </g>
            <g
   transform="matrix(0,2,-2,0,581.101,723.495)"
   id="g96">
                <path
   d="M 0,0.438 C -0.005,0.279 -0.099,0.072 0.177,0 0.111,0.163 0.055,0.301 0,0.438"
   style="fill:#ffffff;fill-rule:nonzero"
   id="path94" />
            </g>
        </g>
    </g>
</svg>
