<?xml version="1.0" encoding="UTF-8" standalone="no"?>
<svg
   width="34.331669"
   height="38.579933"
   viewBox="0 0 34.331669 38.579933"
   version="1.1"
   xml:space="preserve"
   style="clip-rule:evenodd;fill-rule:evenodd;stroke-linejoin:round;stroke-miterlimit:2"
   id="svg126"
   sodipodi:docname="mummy.svg"
   inkscape:version="1.1.1 (3bf5ae0d25, 2021-09-20)"
   xmlns:inkscape="http://www.inkscape.org/namespaces/inkscape"
   xmlns:sodipodi="http://sodipodi.sourceforge.net/DTD/sodipodi-0.dtd"
   xmlns="http://www.w3.org/2000/svg"
   xmlns:svg="http://www.w3.org/2000/svg"><defs
   id="defs130" /><sodipodi:namedview
   id="namedview128"
   pagecolor="#ffffff"
   bordercolor="#666666"
   borderopacity="1.0"
   inkscape:pageshadow="2"
   inkscape:pageopacity="0.0"
   inkscape:pagecheckerboard="0"
   showgrid="false"
   inkscape:zoom="21.179487"
   inkscape:cx="17.493341"
   inkscape:cy="19.5"
   inkscape:window-width="1920"
   inkscape:window-height="1012"
   inkscape:window-x="-8"
   inkscape:window-y="-8"
   inkscape:window-maximized="1"
   inkscape:current-layer="svg126" />
    <g
   transform="translate(-837.44886,-784.62398)"
   id="g124">
        <g
   transform="rotate(90,607.1095,1106.9605)"
   id="g122">
            <g
   transform="matrix(2,0,0,2,293.69,846.334)"
   id="g4">
                <path
   d="M 0,12.725 C 0.11,12.573 0.066,12.464 -0.053,12.358 -0.15,12.272 -0.23,12.166 -0.313,12.065 -0.401,11.957 -0.469,11.82 -0.631,11.989 -0.7,12.062 -0.779,11.981 -0.84,11.941 -1.256,11.669 -1.658,11.376 -2.108,11.16 -2.24,11.097 -2.282,10.965 -2.341,10.853 -2.535,10.488 -2.769,10.157 -3.063,9.864 -3.317,9.611 -3.511,9.312 -3.687,8.999 -3.918,8.589 -4.163,8.188 -4.403,7.784 -4.474,7.663 -4.481,7.557 -4.4,7.425 -4.237,7.158 -4.156,6.847 -3.954,6.599 -3.892,6.523 -3.926,6.43 -3.93,6.345 -3.956,5.823 -3.979,5.302 -3.945,4.779 -3.935,4.635 -3.891,4.514 -3.814,4.391 -3.481,3.855 -3.062,3.39 -2.645,2.92 -2.283,2.509 -1.919,2.116 -1.431,1.84 -1.112,1.659 -0.868,1.366 -0.712,1.026 -0.618,0.82 -0.475,0.739 -0.267,0.756 -0.084,0.771 0.037,0.687 0.164,0.566 2.672,-1.828 5.616,-2.63 8.916,-1.551 c 3.296,1.077 5.279,3.445 5.811,6.87 0.771,4.961 -2.824,9.289 -7.553,9.774 C 4.621,15.355 2.385,14.596 0.476,12.884 0.337,12.76 0.186,12.751 0,12.725"
   style="fill:#2f6230;fill-rule:nonzero"
   id="path2" />
            </g>
            <g
   transform="matrix(2,0,0,2,315.575,857.634)"
   id="g8">
                <path
   d="M 0,2.852 C -0.129,2.904 -0.207,2.936 -0.286,2.967 0.156,2.924 0.55,2.744 0.952,2.576 1.332,2.417 1.453,2.046 1.699,1.779 1.738,1.736 1.741,1.684 1.737,1.631 1.708,1.209 1.792,0.797 1.851,0.384 1.87,0.253 1.87,0.123 1.825,-0.005 1.737,0.035 1.797,0.129 1.729,0.2 1.632,-0.136 1.448,-0.416 1.234,-0.676 1.032,-0.922 0.778,-1.099 0.449,-1.082 c -0.852,0.046 -1.66,-0.164 -2.465,-0.393 -0.521,-0.148 -1.058,-0.218 -1.585,-0.337 -0.247,-0.056 -0.48,-0.146 -0.718,-0.232 0.336,-0.666 0.835,-1.139 1.525,-1.404 0.111,-0.043 0.216,-0.04 0.329,0.005 1.047,0.408 2.085,0.836 3.088,1.349 0.339,0.174 0.705,0.302 1.069,0.422 0.88,0.292 1.283,0.953 1.317,1.818 C 3.045,1.06 3.014,1.983 2.449,2.798 2.575,2.791 2.604,2.702 2.662,2.652 2.719,2.603 2.735,2.514 2.866,2.469 2.673,2.92 2.447,3.285 1.996,3.45 1.578,3.602 1.161,3.758 0.735,3.884 -0.321,4.197 -1.211,4.809 -2.093,5.435 -2.593,5.79 -2.907,5.932 -3.452,5.954 -3.284,6.101 -3.084,6.011 -2.897,6.069 -3.056,6.278 -3.257,6.343 -3.491,6.27 -3.935,6.132 -4.346,5.947 -4.652,5.564 -5.293,4.76 -5.968,3.982 -6.424,3.049 -6.571,2.751 -6.681,2.44 -6.784,2.124 -6.881,1.822 -6.817,1.546 -6.68,1.268 v 0.328 c 0.108,-0.283 0.213,-0.548 0.259,-0.851 0.138,-0.9 0.652,-1.598 1.38,-2.135 0.084,-0.062 0.201,-0.159 0.303,-0.086 0.064,0.046 0.054,0.178 0.022,0.273 -0.041,0.123 -0.067,0.257 -0.24,0.266 -0.372,0.021 -0.608,0.18 -0.69,0.578 -0.022,0.107 -0.004,0.128 0.048,0.184 0.113,0.12 0.155,0.211 -0.052,0.302 -0.262,0.115 -0.325,0.398 -0.163,0.746 0.069,0.148 0.055,0.249 -0.022,0.379 -0.17,0.286 -0.143,0.484 0.097,0.738 0.074,0.078 0.06,0.14 -0.002,0.199 -0.055,0.053 -0.124,0.091 -0.204,0.148 0.095,0.044 0.157,-0.016 0.225,-0.027 0.1,-0.015 0.204,-0.224 0.302,0.008 0.081,0.192 0.149,0.379 -0.05,0.543 -0.092,0.076 -0.21,0.077 -0.345,0.11 0.251,0.158 0.444,-0.019 0.65,-0.066 -0.033,0.37 0.07,0.536 0.405,0.559 0.246,0.017 0.306,0.099 0.194,0.319 0.136,0.005 0.217,-0.063 0.271,-0.15 0.081,-0.135 0.187,-0.044 0.28,-0.044 0.056,0 0.093,0.043 0.093,0.105 10e-4,0.108 -0.083,0.147 -0.159,0.187 -0.368,0.189 -0.737,0.26 -1.114,0.017 -0.173,-0.111 -0.354,-0.211 -0.586,-0.348 0.227,0.271 0.45,0.455 0.695,0.613 0.105,0.068 0.22,0.031 0.331,0.017 0.751,-0.1 1.435,-0.418 2.147,-0.645 C -1.884,3.304 -1.159,3.086 -0.433,2.869 -0.31,2.832 -0.176,2.822 0,2.852"
   style="fill:#ffffff;fill-rule:nonzero"
   id="path6" />
            </g>
            <g
   transform="matrix(2,0,0,2,297.769,861.263)"
   id="g12">
                <path
   d="m 0,-0.594 c 0.014,-0.094 0.028,-0.188 0.046,-0.31 0.276,0.094 0.476,0.288 0.729,0.445 C 0.788,-0.675 0.809,-0.87 1.098,-0.732 0.979,-0.838 0.86,-0.944 0.735,-1.054 0.638,-0.938 0.723,-0.813 0.659,-0.716 0.578,-0.72 0.541,-0.787 0.488,-0.829 0.084,-1.144 0.083,-1.147 0.511,-1.456 0.967,-1.785 1.371,-2.166 1.714,-2.611 1.764,-2.676 1.837,-2.733 1.835,-2.882 1.704,-2.736 1.6,-2.619 1.496,-2.502 1.484,-2.508 1.473,-2.513 1.462,-2.519 c 0.071,-0.153 0.141,-0.307 0.215,-0.458 0.184,-0.379 0.329,-0.771 0.374,-1.192 0.079,-0.746 0.576,-1.23 1.075,-1.707 0.416,-0.398 0.858,-0.768 1.195,-1.24 0.078,-0.11 0.135,-0.047 0.188,-0.002 0.187,0.154 0.367,0.316 0.554,0.478 -0.115,0.109 -0.253,0.176 -0.334,0.308 0.011,0.01 0.026,0.028 0.029,0.026 0.556,-0.337 1.036,0.057 1.543,0.169 0.138,0.03 0.161,0.133 0.05,0.253 -0.25,0.269 -0.504,0.533 -0.84,0.694 -0.26,0.124 -0.446,0.308 -0.612,0.547 -0.393,0.569 -0.908,1.034 -1.397,1.517 -0.779,0.769 -1.244,1.71 -1.564,2.737 C 1.87,-0.17 1.901,0.039 1.959,0.253 2.285,1.43 2.942,2.42 3.698,3.356 3.752,3.423 3.808,3.49 3.893,3.594 3.719,3.583 3.602,3.52 3.484,3.468 3.359,3.413 3.239,3.346 3.094,3.273 3.127,3.386 3.21,3.42 3.274,3.458 3.857,3.806 4.399,4.22 5.002,4.537 5.164,4.622 5.325,4.713 5.472,4.82 5.686,4.975 5.902,5.038 6.154,4.878 6.165,5.124 6.057,5.208 5.836,5.236 5.561,5.271 5.293,5.364 5.019,5.408 4.787,5.446 4.55,5.446 4.287,5.361 4.417,5.532 4.592,5.535 4.744,5.609 4.546,5.957 4.371,6.316 4.121,6.632 3.8,6.179 3.333,5.988 2.825,5.874 2.735,5.853 2.657,5.864 2.662,5.734 2.684,5.209 2.468,4.749 2.256,4.289 1.673,3.03 1.035,1.802 0.154,0.717 0.081,0.627 0.007,0.547 -0.104,0.507 -0.182,0.431 -0.188,0.33 -0.166,0.239 -0.101,-0.037 -0.137,-0.333 0,-0.594"
   style="fill:#ffffff;fill-rule:nonzero"
   id="path10" />
            </g>
            <g
   transform="matrix(2,0,0,2,296.754,871.35)"
   id="g16">
                <path
   d="m 0,-11.811 c -0.238,0.289 -0.521,0.472 -0.701,0.757 0.394,-0.303 0.806,-0.578 1.215,-0.858 0.238,-0.161 0.468,-0.337 0.685,-0.524 0.131,-0.113 0.233,-0.094 0.375,-0.027 0.361,0.171 0.612,0.477 0.964,0.725 -0.195,0.057 -0.349,0.105 -0.504,0.145 -0.554,0.143 -0.941,0.487 -1.311,0.923 -0.595,0.703 -0.913,1.558 -1.409,2.31 -0.027,0.04 -0.037,0.098 -0.112,0.113 v -0.696 c -0.013,-0.002 -0.027,-0.003 -0.04,-0.005 -0.071,0.475 -0.143,0.948 -0.211,1.423 -0.061,0.431 -0.113,0.864 -0.176,1.295 -0.022,0.147 0.013,0.264 0.09,0.392 0.491,0.819 0.861,1.69 1.061,2.626 0.101,0.47 0.002,0.958 0.107,1.432 0.062,0.277 0.117,0.582 0.321,0.757 0.241,0.208 0.365,0.488 0.584,0.695 C 0.877,-0.212 0.77,-0.31 0.667,-0.232 1.157,-0.148 1.411,0.287 1.915,0.435 1.475,0.543 1.107,0.738 0.718,0.473 0.311,0.196 -0.169,0.256 -0.62,0.182 -0.808,0.151 -1.001,0.139 -1.192,0.128 -1.34,0.12 -1.359,0.071 -1.269,-0.041 c 0.077,-0.097 0.112,-0.215 0.159,-0.327 0.078,-0.188 0.047,-0.349 -0.064,-0.515 -0.199,-0.297 -0.38,-0.606 -0.576,-0.905 -0.071,-0.109 -0.092,-0.223 -0.085,-0.348 0.04,-0.681 -0.091,-1.326 -0.359,-1.957 C -2.462,-4.725 -2.625,-5.4 -2.951,-6.011 -3.04,-6.177 -3.044,-6.358 -2.997,-6.545 -2.8,-7.333 -2.545,-8.1 -2.23,-8.849 c 0.287,-0.682 0.55,-1.374 0.816,-2.065 0.101,-0.263 0.268,-0.487 0.403,-0.73 0.052,-0.094 0.152,-0.104 0.253,-0.103 0.24,0.002 0.48,0.012 0.758,-0.064"
   style="fill:#ffffff;fill-rule:nonzero"
   id="path14" />
            </g>
            <g
   transform="matrix(2,0,0,2,292.978,869.562)"
   id="g20">
                <path
   d="m 0,-9.524 c -0.375,0.966 -0.774,1.91 -1.032,2.905 -0.076,0.295 -0.155,0.59 -0.219,0.888 -0.053,0.242 -0.106,0.477 0.071,0.716 0.125,0.168 0.136,0.381 -0.019,0.577 -0.427,0.539 -0.398,1.202 -0.402,1.824 -0.002,0.331 0.23,0.666 0.363,0.996 0.208,0.515 0.463,1.011 0.633,1.618 -0.525,-0.354 -1.155,-0.43 -1.42,-1.077 -0.149,-0.364 -0.483,-0.63 -0.735,-0.939 -0.457,-0.56 -0.705,-1.26 -1.131,-1.847 -0.079,-0.109 -0.052,-0.209 0.006,-0.333 0.359,-0.775 0.885,-1.438 1.404,-2.103 0.38,-0.488 0.675,-1.008 0.851,-1.603 0.127,-0.429 0.319,-0.839 0.711,-1.096 0.294,-0.193 0.625,-0.323 0.919,-0.526"
   style="fill:#ffffff;fill-rule:nonzero"
   id="path18" />
            </g>
            <g
   transform="matrix(2,0,0,2,295.382,848.438)"
   id="g24">
                <path
   d="M 0,5.877 C -0.351,5.584 -0.397,5.231 -0.337,4.824 -0.271,4.381 -0.179,3.958 0.03,3.554 0.365,2.907 0.767,2.311 1.259,1.775 1.413,1.608 1.586,1.456 1.796,1.365 2.471,1.074 3.101,0.702 3.716,0.306 3.92,0.175 4.139,0.107 4.365,0.042 4.416,0.027 4.475,0 4.51,0.049 4.558,0.115 4.492,0.16 4.453,0.202 4.376,0.285 4.297,0.365 4.216,0.445 3.757,0.896 3.402,1.411 3.18,2.024 3.017,2.475 2.61,2.715 2.22,2.943 1.708,3.243 1.207,3.559 0.711,3.884 0.537,3.999 0.435,4.14 0.389,4.36 0.283,4.869 0.133,5.369 0,5.877"
   style="fill:#ffffff;fill-rule:nonzero"
   id="path22" />
            </g>
            <g
   transform="matrix(2,0,0,2,317.372,861.352)"
   id="g28">
                <path
   d="m 0,-1.785 c -0.128,0 -0.206,0.002 -0.284,-0.001 -0.234,-0.008 -0.375,0.061 -0.299,0.335 0.022,0.077 0.004,0.167 -0.063,0.216 -0.253,0.185 -0.159,0.394 -0.04,0.595 0.149,0.252 0.054,0.588 -0.224,0.678 C -1.073,0.09 -1.148,0.177 -1.187,0.341 -1.297,0.795 -1.896,1.127 -2.352,1.007 -2.45,0.981 -2.49,0.91 -2.535,0.835 -2.739,0.499 -2.753,0.136 -2.656,-0.228 c 0.112,-0.424 0.117,-0.841 0.018,-1.266 -0.087,-0.371 -0.078,-0.745 0.007,-1.115 0.07,-0.303 0.135,-0.296 0.431,-0.277 0.527,0.033 0.636,0.501 0.882,0.806 0.173,0.215 0.298,0.341 0.573,0.231 0.128,-0.051 0.275,-0.056 0.404,-0.107 0.16,-0.064 0.239,0.006 0.341,0.171"
   style="fill:#ffffff;fill-rule:nonzero"
   id="path26" />
            </g>
            <g
   transform="matrix(2,0,0,2,297.446,856.722)"
   id="g32">
                <path
   d="M 0,2.835 C 0.085,3.107 0.032,3.766 -0.124,4.212 -0.265,3.61 -0.495,3.083 -0.726,2.56 -0.866,2.242 -0.859,1.961 -0.768,1.638 -0.647,1.204 -0.66,0.742 -0.537,0.303 -0.48,0.1 -0.379,-0.056 -0.206,-0.179 0.462,-0.653 1.225,-0.957 1.932,-1.377 1.542,-0.509 1.117,0.327 0.324,0.91 0.239,0.973 0.11,1.007 0.105,1.148 0.101,1.155 0.094,1.164 0.095,1.171 0.119,1.729 0.06,2.282 0,2.835"
   style="fill:#ffffff;fill-rule:nonzero"
   id="path30" />
            </g>
            <g
   transform="matrix(2,0,0,2,294.016,859.015)"
   id="g36">
                <path
   d="m 0,-5.483 c -0.333,0.807 -0.895,1.342 -1.626,1.708 -0.152,0.075 -0.241,0.178 -0.312,0.324 -0.193,0.4 -0.348,0.815 -0.516,1.224 -0.243,0.59 -0.642,1.092 -1.017,1.604 -0.147,0.203 -0.298,0.403 -0.485,0.655 0.017,-0.598 -0.08,-1.144 0,-1.686 0.05,-0.337 0.329,-0.567 0.534,-0.823 0.384,-0.481 0.883,-0.866 1.19,-1.416 0.077,-0.137 0.24,-0.2 0.381,-0.266 0.479,-0.223 0.818,-0.593 1.051,-1.049 0.114,-0.226 0.25,-0.307 0.485,-0.277 0.093,0.012 0.189,0.002 0.315,0.002"
   style="fill:#ffffff;fill-rule:nonzero"
   id="path34" />
            </g>
            <g
   transform="matrix(2,0,0,2,291.084,869.71)"
   id="g40">
                <path
   d="m 0,-4.494 c 0.567,1.055 0.88,2.129 0.878,3.286 -0.001,0.359 0.253,0.598 0.408,0.883 0.045,0.083 0.127,0.145 0.142,0.246 C 0.902,0 0.655,-0.372 0.443,-0.735 0.122,-1.283 -0.152,-1.859 -0.36,-2.46 -0.612,-3.186 -0.39,-3.838 0,-4.494"
   style="fill:#ffffff;fill-rule:nonzero"
   id="path38" />
            </g>
            <g
   transform="matrix(2,0,0,2,300.171,866.829)"
   id="g44">
                <path
   d="M 0,0.007 C -0.039,0.299 -0.109,0.566 -0.253,0.812 -0.326,0.937 -0.415,0.987 -0.554,0.93 -1.123,0.696 -1.387,0.295 -1.15,-0.391 c 0.086,-0.252 0.25,-0.538 0.495,-0.564 0.234,-0.025 0.354,0.288 0.481,0.492 0.092,0.147 0.177,0.3 0.174,0.47"
   style="fill:#ffffff;fill-rule:nonzero"
   id="path42" />
            </g>
            <g
   transform="matrix(2,0,0,2,297.561,870.819)"
   id="g48">
                <path
   d="m 0,-1.443 c 0.144,0.305 0.396,0.508 0.675,0.668 0.178,0.102 0.309,0.216 0.352,0.429 0.063,-0.366 0.25,-0.668 0.427,-0.975 0.03,-0.053 0.049,-0.156 0.14,-0.116 0.078,0.034 0.043,0.124 0.031,0.187 -0.049,0.273 -0.141,0.535 -0.251,0.827 0.271,-0.166 0.386,-0.418 0.549,-0.683 0.149,0.318 0.285,0.605 0.419,0.893 0.041,0.088 0.013,0.144 -0.079,0.183 -0.11,0.047 -0.22,0.064 -0.33,0.022 C 1.677,-0.107 1.412,-0.128 1.139,-0.128 0.83,-0.127 0.594,-0.296 0.408,-0.523 0.21,-0.767 0.052,-1.038 -0.058,-1.335 -0.078,-1.392 -0.098,-1.449 0,-1.443"
   style="fill:#ffffff;fill-rule:nonzero"
   id="path46" />
            </g>
            <g
   transform="matrix(2,0,0,2,302.632,851.766)"
   id="g52">
                <path
   d="M 0,-1.678 C -0.763,-0.83 -1.851,-0.551 -2.753,0.104 -2.236,-1.022 -0.992,-1.782 0,-1.678"
   style="fill:#ffffff;fill-rule:nonzero"
   id="path50" />
            </g>
            <g
   transform="matrix(2,0,0,2,305.373,857.237)"
   id="g56">
                <path
   d="M 0,1.198 C -0.138,1.218 -0.273,1.161 -0.405,1.092 -0.574,1.005 -0.674,0.87 -0.665,0.677 -0.656,0.481 -0.503,0.409 -0.349,0.339 -0.16,0.253 0.024,0.157 0.212,0.07 0.325,0.017 0.439,-0.02 0.555,0.069 0.682,0.165 0.594,0.272 0.577,0.376 0.555,0.504 0.525,0.63 0.512,0.759 0.474,1.161 0.418,1.212 0,1.198"
   style="fill:#ffffff;fill-rule:nonzero"
   id="path54" />
            </g>
            <g
   transform="matrix(2,0,0,2,317.368,859.957)"
   id="g60">
                <path
   d="m 0,-0.929 c 0.128,0.033 0.314,-0.024 0.486,0.08 0.213,0.13 0.27,0.312 0.228,0.534 -0.038,0.203 -0.189,0.258 -0.38,0.293 C 0.08,0.024 -0.17,0 -0.422,0.002 c -0.102,0 -0.183,-0.034 -0.225,-0.143 -0.039,-0.105 -0.019,-0.181 0.067,-0.253 0.125,-0.106 0.234,-0.209 0.086,-0.391 -0.074,-0.092 0.021,-0.137 0.107,-0.142 0.113,-0.007 0.226,-0.002 0.387,-0.002"
   style="fill:#ffffff;fill-rule:nonzero"
   id="path58" />
            </g>
            <g
   transform="matrix(2,0,0,2,315.935,857.461)"
   id="g64">
                <path
   d="m 0,-0.89 c 0.186,-0.013 0.413,-0.011 0.623,0.094 0.244,0.122 0.257,0.27 0.041,0.423 -0.128,0.091 -0.263,0.169 -0.412,0.224 -0.467,0.173 -0.5,0.165 -0.796,-0.221 -0.005,-0.007 -0.011,-0.013 -0.015,-0.021 -0.069,-0.129 -0.324,-0.185 -0.222,-0.366 0.089,-0.157 0.312,-0.105 0.478,-0.131 C -0.218,-0.901 -0.129,-0.89 0,-0.89"
   style="fill:#ffffff;fill-rule:nonzero"
   id="path62" />
            </g>
            <g
   transform="matrix(2,0,0,2,305.799,861.707)"
   id="g68">
                <path
   d="m 0,-0.919 c 0.083,-0.023 0.144,0.028 0.152,0.133 0.014,0.196 0.244,0.386 0.064,0.58 C 0.004,0.023 -0.306,0.023 -0.585,0 -0.811,-0.019 -0.884,-0.225 -0.921,-0.439 -0.96,-0.664 -0.798,-0.698 -0.656,-0.754 -0.453,-0.833 -0.244,-0.889 0,-0.919"
   style="fill:#ffffff;fill-rule:nonzero"
   id="path66" />
            </g>
            <g
   transform="matrix(2,0,0,2,317.014,862.922)"
   id="g72">
                <path
   d="m 0,-0.701 c 0.104,0 0.199,-0.003 0.295,0.001 0.071,0.003 0.163,-0.044 0.201,0.061 0.033,0.09 0.007,0.167 -0.058,0.238 C 0.17,-0.107 -0.179,0 -0.559,0.035 c -0.06,0.006 -0.122,0.013 -0.182,0.004 -0.102,-0.016 -0.237,0.072 -0.3,-0.073 -0.052,-0.121 0.082,-0.179 0.11,-0.267 0.162,-0.511 0.59,-0.351 0.931,-0.4"
   style="fill:#ffffff;fill-rule:nonzero"
   id="path70" />
            </g>
            <g
   transform="matrix(2,0,0,2,317.754,861.366)"
   id="g76">
                <path
   d="m 0,-0.59 c 0.125,0.04 0.277,-0.069 0.387,0.069 0.135,0.169 0.048,0.417 -0.183,0.496 -0.272,0.094 -0.549,0.023 -0.824,0.004 -0.027,-0.002 -0.067,-0.028 -0.077,-0.053 -0.075,-0.177 0.113,-0.475 0.305,-0.488 C -0.262,-0.571 -0.133,-0.58 0,-0.59"
   style="fill:#ffffff;fill-rule:nonzero"
   id="path74" />
            </g>
            <g
   transform="matrix(2,0,0,2,306.804,864.414)"
   id="g80">
                <path
   d="m 0,-0.749 c 0.216,-0.022 0.257,0.191 0.358,0.298 0.084,0.09 -0.097,0.144 -0.157,0.214 -0.169,0.198 -0.385,0.259 -0.634,0.186 -0.1,-0.029 -0.217,-0.06 -0.23,-0.181 -0.013,-0.124 0.028,-0.262 0.131,-0.325 0.16,-0.098 0.339,-0.172 0.532,-0.192"
   style="fill:#ffffff;fill-rule:nonzero"
   id="path78" />
            </g>
            <g
   transform="matrix(2,0,0,2,307.583,856.019)"
   id="g84">
                <path
   d="m 0,-0.742 c 0.17,-0.024 0.299,0.05 0.4,0.186 0.056,0.075 0.15,0.149 0.114,0.245 -0.032,0.089 -0.141,0.017 -0.211,0.04 -0.081,0.028 -0.159,0.064 -0.237,0.1 -0.117,0.055 -0.22,0.195 -0.361,0.034 -0.103,-0.117 -0.24,-0.222 -0.176,-0.402 0.059,-0.163 0.212,-0.189 0.363,-0.202 0.034,-0.003 0.069,-0.001 0.108,-0.001"
   style="fill:#ffffff;fill-rule:nonzero"
   id="path82" />
            </g>
            <g
   transform="matrix(2,0,0,2,305.822,857.614)"
   id="g88">
                <path
   d="m 0,-0.729 c 0.05,0.007 0.154,0.019 0.256,0.038 0.085,0.016 0.15,0.061 0.129,0.159 -0.018,0.082 0.026,0.192 -0.124,0.217 -0.214,0.036 -0.417,0.121 -0.604,0.23 C -0.489,0 -0.529,-0.091 -0.563,-0.193 -0.663,-0.497 -0.44,-0.729 0,-0.729"
   style="fill:#ffffff;fill-rule:nonzero"
   id="path86" />
            </g>
            <g
   transform="matrix(-1.0407,1.7079,1.7079,1.0407,318.715,857.095)"
   id="g92">
                <path
   d="M 0.325,-0.449 C 0.256,-0.478 0.189,-0.486 0.136,-0.42 0.041,-0.301 0.179,0.143 0.325,0.177 0.355,0.184 0.4,0.178 0.42,0.158 0.521,0.058 0.45,-0.378 0.325,-0.449"
   style="fill:#ffffff;fill-rule:nonzero"
   id="path90" />
            </g>
            <g
   transform="matrix(2,0,0,2,297.446,859.018)"
   id="g96">
                <path
   d="M 0,1.687 C -0.113,1.528 -0.009,1.368 0.002,1.21 0.03,0.807 0.069,0.403 0.105,0 0.156,0.173 0.055,0.362 0.162,0.529 0.18,0.901 0.044,1.258 0.057,1.63 0.038,1.649 0.019,1.668 0,1.687"
   style="fill:#2f6230;fill-rule:nonzero"
   id="path94" />
            </g>
            <g
   transform="matrix(2,0,0,2,318.324,863.344)"
   id="g100">
                <path
   d="m 0,-3.905 c 0.443,0.149 0.82,0.382 0.962,0.853 0.167,0.554 0.218,1.127 0.243,1.705 0.02,0.476 -0.226,0.779 -0.6,0.991 C 0.352,-0.214 0.066,-0.13 -0.253,0 -0.068,-0.215 0.138,-0.311 0.338,-0.397 0.619,-0.518 0.735,-0.741 0.818,-1.007 1.032,-1.699 0.951,-2.389 0.793,-3.073 0.743,-3.289 0.597,-3.46 0.417,-3.594 0.278,-3.697 0.139,-3.801 0,-3.905"
   style="fill:#2f6332;fill-rule:nonzero"
   id="path98" />
            </g>
            <g
   transform="matrix(2,0,0,2,312.753,867.808)"
   id="g104">
                <path
   d="m 0,-1.58 c -0.582,0.252 -1.17,0.49 -1.743,0.762 -0.337,0.159 -0.668,0.339 -0.952,0.589 -0.212,0.186 -0.465,0.229 -0.734,0.193 -0.14,-0.019 -0.26,-0.099 -0.256,-0.25 0.004,-0.174 0.17,-0.131 0.261,-0.119 0.403,0.053 0.699,-0.155 1.037,-0.329 C -1.639,-1.121 -0.849,-1.425 0,-1.58"
   style="fill:#2f6231;fill-rule:nonzero"
   id="path102" />
            </g>
            <g
   transform="matrix(2,0,0,2,312.106,851.96)"
   id="g108">
                <path
   d="M 0,0.595 C -0.573,0.612 -1.147,0.68 -1.717,0.557 -1.793,0.54 -1.874,0.532 -1.945,0.503 -2.026,0.469 -2.164,0.486 -2.164,0.361 -2.165,0.253 -2.082,0.169 -1.971,0.14 c 0.229,-0.062 0.478,-0.225 0.644,0.107 0.01,0.019 0.044,0.038 0.066,0.037 0.373,-0.027 0.699,0.168 1.054,0.223 C -0.15,0.566 -0.023,0.458 0,0.595"
   style="fill:#316434;fill-rule:nonzero"
   id="path106" />
            </g>
            <g
   transform="matrix(2,0,0,2,313.779,867.78)"
   id="g112">
                <path
   d="m 0,-0.928 c -0.634,0.277 -1.188,0.714 -1.857,0.923 -0.148,0.046 -0.29,0.107 -0.481,0.062 0.259,-0.211 0.511,-0.389 0.8,-0.503 0.474,-0.187 0.954,-0.359 1.432,-0.538 C -0.059,-0.988 0.008,-1.03 0,-0.928"
   style="fill:#306433;fill-rule:nonzero"
   id="path110" />
            </g>
            <g
   transform="matrix(2,0,0,2,315.903,853.889)"
   id="g116">
                <path
   d="M 0,0.178 C -0.339,0.138 -0.665,0.203 -0.991,0.236 -1.18,0.255 -1.354,0.241 -1.524,0.164 -1.577,0.14 -1.65,0.116 -1.632,0.039 c 0.013,-0.056 0.083,-0.052 0.13,-0.063 0.234,-0.053 0.467,-0.01 0.699,0.022 0.274,0.038 0.55,0.072 0.803,0.18"
   style="fill:#336636;fill-rule:nonzero"
   id="path114" />
            </g>
            <g
   transform="matrix(-1.89165,0.649355,0.649355,1.89165,295.474,864.92)"
   id="g120">
                <path
   d="m -0.001,-0.726 c -0.068,-0.118 -0.015,-0.237 -0.061,-0.375 -0.185,0.729 -0.113,1.418 0.061,2.112 0.389,-0.905 0.188,-1.83 0.122,-2.748 -0.057,0.33 0.01,0.673 -0.122,1.011"
   style="fill:#316333;fill-rule:nonzero"
   id="path118" />
            </g>
        </g>
    </g>
</svg>
