<?xml version="1.0" encoding="UTF-8" standalone="no"?>
<svg
   width="34.100208"
   height="38.988651"
   viewBox="0 0 34.100208 38.988651"
   version="1.1"
   xml:space="preserve"
   style="clip-rule:evenodd;fill-rule:evenodd;stroke-linejoin:round;stroke-miterlimit:2"
   id="svg150"
   sodipodi:docname="zombie.svg"
   inkscape:version="1.1.1 (3bf5ae0d25, 2021-09-20)"
   xmlns:inkscape="http://www.inkscape.org/namespaces/inkscape"
   xmlns:sodipodi="http://sodipodi.sourceforge.net/DTD/sodipodi-0.dtd"
   xmlns="http://www.w3.org/2000/svg"
   xmlns:svg="http://www.w3.org/2000/svg"><defs
   id="defs154" /><sodipodi:namedview
   id="namedview152"
   pagecolor="#ffffff"
   bordercolor="#666666"
   borderopacity="1.0"
   inkscape:pageshadow="2"
   inkscape:pageopacity="0.0"
   inkscape:pagecheckerboard="0"
   showgrid="false"
   inkscape:zoom="21.179487"
   inkscape:cx="17.493341"
   inkscape:cy="19.5"
   inkscape:window-width="1920"
   inkscape:window-height="1012"
   inkscape:window-x="-8"
   inkscape:window-y="-8"
   inkscape:window-maximized="1"
   inkscape:current-layer="svg150" />
    <g
   transform="translate(-890.70966,-741.15358)"
   id="g148">
        <g
   transform="rotate(90,654.6295,1232.2405)"
   id="g146">
            <g
   transform="matrix(2,0,0,2,193.462,963.115)"
   id="g4">
                <path
   d="m 0,16.013 c -0.38,0.196 -0.735,0.178 -1.053,0.066 -0.489,-0.173 -0.921,-0.065 -1.396,0.069 -3.042,0.859 -5.768,0.236 -8.169,-1.818 -0.335,-0.287 -0.742,-0.442 -1.143,-0.593 -0.772,-0.29 -1.331,-0.812 -1.747,-1.504 -0.313,-0.52 -0.624,-1.043 -0.92,-1.574 -0.361,-0.648 -0.463,-1.374 -0.51,-2.091 -0.105,-1.587 0.164,-3.108 0.958,-4.513 0.256,-0.452 0.557,-0.854 1.026,-1.11 0.144,-0.08 0.299,-0.164 0.395,-0.305 0.542,-0.793 1.402,-1.057 2.243,-1.346 0.144,-0.049 0.277,-0.102 0.402,-0.188 2.538,-1.752 5.258,-2.1 8.144,-1.018 0.568,0.213 1.344,0.07 1.682,-0.376 0.064,-0.084 0.122,-0.248 0.286,-0.149 0.147,0.089 0.063,0.22 0.038,0.334 -0.07,0.311 -0.256,0.56 -0.453,0.797 -0.083,0.099 -0.081,0.145 0.03,0.22 0.226,0.153 0.443,0.32 0.656,0.49 C 0.547,1.466 0.632,1.463 0.718,1.47 1.14,1.507 1.561,1.541 1.983,1.578 2.122,1.59 2.269,1.629 2.255,1.798 2.242,1.954 2.092,1.957 1.966,1.963 1.728,1.974 1.493,2.009 1.24,2.093 1.545,2.429 1.83,2.762 2.08,3.123 2.452,3.661 2.783,4.226 2.997,4.845 3.098,5.133 3.262,5.317 3.543,5.394 3.97,5.51 4.166,5.837 4.301,6.209 4.553,6.904 4.567,7.627 4.501,8.352 4.47,8.694 4.398,9.032 4.365,9.374 4.316,9.878 4.041,10.208 3.586,10.377 3.31,10.479 3.183,10.652 3.089,10.924 2.723,11.983 2.273,12.69 1.245,13.915 c 0.315,0.117 0.626,0.223 0.915,0.383 0.263,0.147 0.511,0.314 0.725,0.526 0.061,0.061 0.12,0.143 0.067,0.234 -0.056,0.098 -0.137,0.038 -0.209,0.01 C 2.087,14.816 1.396,14.729 0.706,14.637 0.55,14.616 0.42,14.639 0.292,14.745 c -0.33,0.276 -0.7,0.496 -1.086,0.726 0.245,0.205 0.497,0.359 0.794,0.542"
   style="fill:#2d6130;fill-rule:nonzero"
   id="path2" />
            </g>
            <g
   transform="matrix(2,0,0,2,184.638,989.161)"
   id="g8">
                <path
   d="m 0,-10.124 c 1.226,0.303 2.468,0.384 3.722,0.407 0.563,0.011 1.1,0.185 1.579,0.524 0.638,0.452 1.176,1.038 1.878,1.415 -0.162,-0.052 -0.324,-0.104 -0.485,-0.156 0.317,0.249 0.669,0.426 1.054,0.51 0.39,0.086 0.602,0.32 0.716,0.685 0.088,0.28 0.138,0.567 0.161,0.856 0.061,0.765 0.063,1.53 -0.118,2.285 C 8.431,-3.28 8.223,-3.044 7.957,-2.922 6.95,-2.459 6.117,-1.753 5.264,-1.073 5.202,-1.024 5.138,-0.977 5.076,-0.928 4.605,-0.559 4.104,-0.336 3.473,-0.387 2.284,-0.484 1.13,-0.173 -0.099,0 0.62,-0.644 1.509,-0.8 2.317,-1.132 c -0.824,0.089 -1.639,0.233 -2.386,0.594 -0.258,0.125 -0.414,0.426 -0.583,0.673 -0.206,0.3 -0.435,0.582 -0.746,0.776 -0.369,0.23 -0.757,0.328 -1.171,0.098 C -2.875,0.839 -3.185,0.676 -3.521,0.495 -3.43,0.777 -3.585,0.783 -3.784,0.8 -4.634,0.875 -5.368,0.625 -5.989,0.046 c -0.285,-0.267 -0.58,-0.462 -1.007,-0.418 -0.677,0.07 -1.171,-0.33 -1.636,-0.738 -0.487,-0.425 -0.896,-0.931 -1.23,-1.481 -0.312,-0.512 -0.39,-1.111 -0.422,-1.704 -0.062,-1.165 0.091,-2.306 0.487,-3.405 0.219,-0.607 0.561,-1.15 0.993,-1.635 -0.098,0.247 -0.249,0.473 -0.258,0.765 0.277,-0.462 0.733,-0.686 1.164,-0.952 0.197,-0.121 0.35,-0.32 0.509,-0.496 0.314,-0.347 0.699,-0.556 1.155,-0.647 0.12,-0.024 0.246,-0.048 0.353,-0.104 0.71,-0.374 1.467,-0.306 2.222,-0.237 0.066,0.006 0.212,-0.062 0.191,0.129 -0.007,0.065 0.084,0.009 0.119,-0.017 0.298,-0.219 0.653,-0.301 0.993,-0.419 0.143,-0.05 0.27,-0.03 0.403,0.038 0.372,0.189 0.687,0.45 1.005,0.719 0.66,0.555 1.21,1.274 2.113,1.492 C 1.43,-9.001 1.688,-8.91 1.977,-8.95 1.189,-9.128 0.567,-9.578 0,-10.124"
   style="fill:#ffffff;fill-rule:nonzero"
   id="path6" />
            </g>
            <g
   transform="matrix(2,0,0,2,192.692,985.764)"
   id="g12">
                <path
   d="M 0,4.657 C -0.327,4.718 -0.628,4.616 -0.934,4.532 -1.919,4.26 -2.838,3.787 -3.848,3.592 -4.748,3.417 -5.641,3.259 -6.572,3.305 -7.503,3.351 -8.444,3.323 -9.339,2.984 -9.43,2.95 -9.524,2.921 -9.608,2.875 c -0.596,-0.329 -1.22,-0.587 -1.877,-0.771 -0.523,-0.145 -0.913,-0.475 -1.23,-0.909 -0.286,-0.391 -0.485,-0.831 -0.72,-1.256 0.225,0.246 0.446,0.496 0.675,0.738 0.321,0.337 0.704,0.582 1.135,0.757 0.253,0.102 0.52,0.09 0.781,0.112 0.206,0.018 0.375,0.083 0.515,0.231 0.024,0.026 0.049,0.051 0.073,0.077 0.549,0.574 1.188,0.948 2.013,0.851 0.607,-0.071 1.162,0.072 1.7,0.327 0.048,0.023 0.099,0.039 0.15,0.055 0.288,0.089 0.559,0.097 0.83,-0.083 0.34,-0.225 0.667,-0.463 0.937,-0.769 C -4.543,2.142 -4.464,2.102 -4.332,2.111 -4.067,2.13 -3.796,2.106 -3.547,2.024 -2.829,1.79 -2.119,1.883 -1.404,2.022 -0.201,2.256 0.994,2.523 2.119,3.029 2.343,3.13 2.56,3.248 2.772,3.381 2.182,3.199 1.585,3.062 0.975,2.976 0.353,2.887 -0.272,2.844 -0.897,2.853 -1.514,2.861 -2.13,2.902 -2.746,2.941 -3.368,2.981 -3.993,3 -4.609,3.143 c 0.31,0 0.621,0.013 0.93,-0.002 0.668,-0.034 1.281,0.134 1.822,0.515 0.579,0.408 1.215,0.701 1.857,1.001"
   style="fill:#ffffff;fill-rule:nonzero"
   id="path10" />
            </g>
            <g
   transform="matrix(2,0,0,2,167.815,965.066)"
   id="g16">
                <path
   d="M 0,2.584 C 0.432,1.702 1.041,1.041 2.019,0.719 2.793,0.464 3.563,0.305 4.373,0.326 4.755,0.335 5.131,0.298 5.502,0.217 6.486,0 7.443,0.203 8.365,0.49 9.583,0.871 10.8,0.903 12.048,0.753 12.827,0.66 13.613,0.637 14.398,0.681 14.519,0.688 14.637,0.7 14.781,0.795 14.43,0.844 14.121,0.876 13.817,0.932 13.22,1.044 12.628,1.176 12.063,1.413 11.703,1.564 11.325,1.645 10.929,1.631 10.336,1.609 9.759,1.773 9.168,1.791 8.701,1.804 8.31,1.636 7.945,1.373 7.474,1.033 6.993,0.708 6.476,0.438 6.261,0.326 6.051,0.332 5.85,0.462 5.551,0.656 5.241,0.745 4.877,0.676 4.522,0.608 4.157,0.635 3.797,0.674 3.549,0.7 3.313,0.755 3.093,0.88 2.719,1.091 2.281,1.108 1.887,1.261 1.471,1.424 1.09,1.637 0.807,1.991 0.592,2.261 0.294,2.415 0,2.584"
   style="fill:#ffffff;fill-rule:nonzero"
   id="path14" />
            </g>
            <g
   transform="matrix(2,0,0,2,193.725,966.332)"
   id="g20">
                <path
   d="m 0,-1.866 c -0.201,0.601 -0.56,1.018 -1.152,1.16 -0.518,0.124 -1.014,0.288 -1.49,0.525 -0.345,0.172 -0.702,0.181 -1.077,0.068 -0.828,-0.25 -1.67,-0.437 -2.528,-0.554 -0.247,-0.033 -0.491,-0.001 -0.812,0.018 0.372,-0.165 0.697,-0.182 1.017,-0.189 0.82,-0.02 1.64,-0.034 2.459,0.035 0.406,0.035 0.812,0.009 1.206,-0.103 0.365,-0.104 0.727,-0.194 1.11,-0.226 0.47,-0.04 0.745,-0.226 1.267,-0.734"
   style="fill:#ffffff;fill-rule:nonzero"
   id="path18" />
            </g>
            <g
   transform="matrix(2,0,0,2,196.519,984.221)"
   id="g24">
                <path
   d="m 0,-5.268 c -0.184,0.058 -0.31,-0.01 -0.443,-0.009 0.034,0.081 0.115,0.076 0.177,0.105 0.24,0.111 0.488,0.203 0.697,0.374 0.329,0.271 0.353,0.332 0.231,0.746 -0.109,0.368 0.026,0.732 0.014,1.098 -0.009,0.282 -0.046,0.57 0.243,0.757 0.017,0.012 0.022,0.048 0.025,0.074 0.066,0.441 0.271,0.77 0.715,0.92 0.06,0.02 0.111,0.088 0.151,0.144 0.101,0.145 0.085,0.249 -0.117,0.264 -0.079,0.005 -0.158,0 -0.237,0.003 -0.12,0.005 -0.167,0.058 -0.158,0.186 0.016,0.231 -0.079,0.302 -0.294,0.235 C 0.937,-0.392 0.877,-0.432 0.813,-0.461 0.671,-0.527 0.556,-0.521 0.402,-0.434 -0.096,-0.151 -0.611,0.097 -1.18,0.215 -2.198,0.427 -3.213,0.653 -4.231,0.861 -4.506,0.917 -4.79,0.929 -5.069,0.965 -5.263,0.99 -5.434,0.936 -5.605,0.812 -5.53,0.789 -5.467,0.772 -5.406,0.749 -5.278,0.701 -5.231,0.632 -5.349,0.521 -5.381,0.491 -5.407,0.454 -5.436,0.422 -5.7,0.137 -5.846,-0.175 -5.644,-0.556 c 0.086,-0.162 0.025,-0.216 -0.191,-0.192 0.408,-0.255 0.4,-0.578 0.281,-0.93 -0.06,-0.178 -0.003,-0.347 0.049,-0.523 -0.19,-0.059 -0.4,0.026 -0.593,-0.079 0.082,-0.077 0.17,-0.048 0.241,-0.077 0.097,-0.039 0.211,-0.061 0.286,-0.127 0.119,-0.104 -0.063,-0.174 -0.062,-0.273 0,-0.052 -0.035,-0.11 -0.021,-0.155 0.113,-0.347 -0.013,-0.64 -0.189,-0.928 -0.035,-0.057 -0.053,-0.139 -0.043,-0.204 0.048,-0.314 -0.083,-0.552 -0.267,-0.795 -0.227,-0.299 -0.079,-0.627 0.286,-0.685 0.166,-0.026 0.286,-0.108 0.411,-0.214 0.356,-0.298 0.722,-0.52 1.242,-0.41 1.111,0.235 2.234,0.416 3.351,0.631 0.274,0.054 0.539,0.154 0.863,0.249"
   style="fill:#2f6230;fill-rule:nonzero"
   id="path22" />
            </g>
            <g
   transform="matrix(2,0,0,2,178.582,982.395)"
   id="g28">
                <path
   d="m 0,-3.201 c 0.439,-0.495 0.815,-1.017 0.878,-1.704 0.041,0.483 0.203,0.964 -0.236,1.379 -0.343,0.325 -0.507,0.778 -0.67,1.218 -0.092,0.245 -0.195,0.494 0.16,0.625 -0.303,0.323 -0.292,0.317 -0.077,0.69 0.258,0.45 0.488,0.918 0.82,1.322 C 0.936,0.403 0.939,0.491 0.934,0.58 0.918,0.857 0.899,1.133 0.852,1.413 0.668,0.835 0.458,0.284 -0.017,-0.188 0.126,0.335 0.267,0.805 0.318,1.298 0.369,1.801 0.104,2.227 -0.032,2.731 0.275,2.629 0.393,2.381 0.644,2.2 0.52,2.521 0.339,2.733 0.161,2.944 -0.105,3.259 -0.108,3.257 0.126,3.591 0.146,3.619 0.175,3.642 0.152,3.694 0.073,3.707 -0.002,3.663 -0.048,3.611 -0.245,3.395 -0.384,3.509 -0.553,3.66 -0.877,3.949 -1.01,3.941 -1.359,3.667 -1.535,3.529 -1.709,3.388 -1.806,3.171 -1.671,3.278 -1.538,3.389 -1.398,3.49 -1.155,3.664 -0.727,3.519 -0.633,3.238 -0.606,3.159 -0.657,3.123 -0.698,3.081 -1.164,2.595 -1.381,1.979 -1.579,1.357 -1.733,0.872 -1.433,0.511 -1.191,0.149 c 0.132,-0.195 0.311,-0.359 0.472,-0.534 0.206,-0.224 0.16,-0.46 -0.132,-0.551 -0.369,-0.116 -0.732,-0.101 -1.051,0.154 -0.219,0.176 -0.431,0.361 -0.662,0.526 0.299,-0.431 0.588,-0.868 1.113,-1.078 0.154,-0.062 0.401,-0.074 0.422,-0.25 0.015,-0.124 -0.232,-0.142 -0.358,-0.212 -0.534,-0.293 -1.061,-0.592 -1.439,-1.099 0.291,0.17 0.588,0.326 0.885,0.48 0.245,0.127 0.497,0.22 0.764,0.286 0.193,0.047 0.355,-0.019 0.495,-0.117 0.17,-0.12 0.224,-0.292 0.086,-0.481 -0.12,-0.166 -0.27,-0.3 -0.426,-0.43 -0.904,-0.757 -0.896,-1.954 -0.34,-2.736 0.055,-0.077 0.125,-0.143 0.209,-0.201 -0.094,0.298 -0.283,0.558 -0.293,0.881 0.151,-0.316 0.268,-0.649 0.481,-0.932 0.031,-0.043 0.056,-0.09 0.088,-0.132 0.254,-0.328 0.235,-0.441 -0.113,-0.7 -0.06,-0.044 -0.149,-0.058 -0.172,-0.173 0.291,0.064 0.538,0.18 0.749,0.414 0.079,-0.104 0.077,-0.245 0.266,-0.355 -0.179,0.387 0.044,0.567 0.237,0.768 0.128,0.133 0.197,0.305 0.253,0.535 C 0.238,-5.877 0.176,-5.935 0.109,-5.986 0.065,-6.02 0.028,-6.103 -0.042,-6.05 c -0.066,0.049 -0.011,0.108 0.013,0.164 0.325,0.763 0.294,1.546 0.128,2.336 C 0.075,-3.432 0.034,-3.317 0,-3.201"
   style="fill:#2e6130;fill-rule:nonzero"
   id="path26" />
            </g>
            <g
   transform="matrix(2,0,0,2,183.572,981.314)"
   id="g32">
                <path
   d="m 0,-2.356 c -0.048,0.25 -0.039,0.494 -0.144,0.669 -0.11,0.185 -0.302,0.343 -0.534,0.405 -0.193,0.052 -0.402,0.043 -0.604,0.176 0.164,0.039 0.302,0.104 0.436,0.097 0.299,-0.014 0.491,0.207 0.684,0.348 0.14,0.102 0.129,0.409 0.195,0.661 -0.725,-0.195 -1.337,-0.497 -1.847,-0.993 -0.136,-0.132 -0.05,-0.229 0.048,-0.304 0.54,-0.409 1.071,-0.834 1.766,-1.059"
   style="fill:#2d6130;fill-rule:nonzero"
   id="path30" />
            </g>
            <g
   transform="matrix(2,0,0,2,190.782,984.839)"
   id="g36">
                <path
   d="M 0,0.612 C 0.411,0.502 0.817,0.367 1.233,0.288 1.682,0.203 2.125,0.1 2.564,-0.028 c 0.048,-0.014 0.11,-0.056 0.142,0 0.03,0.054 0.008,0.125 -0.05,0.162 C 2.276,0.373 1.94,0.687 1.425,0.634 1.089,0.599 0.742,0.658 0.4,0.675 0.271,0.682 0.142,0.689 0.013,0.696 0.009,0.668 0.004,0.64 0,0.612"
   style="fill:#2d6130;fill-rule:nonzero"
   id="path34" />
            </g>
            <g
   transform="matrix(2,0,0,2,189.75,972.481)"
   id="g40">
                <path
   d="m 0,-0.643 c 0.165,-0.05 0.314,-0.006 0.46,0.04 0.491,0.155 0.985,0.249 1.507,0.193 0.238,-0.026 0.459,0.104 0.664,0.224 0.054,0.032 0.142,0.07 0.106,0.158 C 2.705,0.05 2.623,0.043 2.552,0.032 2.031,-0.052 1.502,-0.094 0.993,-0.244 0.74,-0.319 0.486,-0.392 0.234,-0.471 0.146,-0.498 0.042,-0.51 0,-0.643"
   style="fill:#2c602f;fill-rule:nonzero"
   id="path38" />
            </g>
            <g
   transform="matrix(-1.06437,-1.69326,-1.69326,1.06437,178.666,975.29)"
   id="g44">
                <path
   d="m -0.63,-2.358 c -0.405,0.858 -0.499,1.789 -0.673,2.706 0.22,-0.426 0.462,-0.835 0.673,-1.269 -0.068,0.033 -0.136,0.066 -0.233,0.113 0.041,-0.536 0.168,-1.038 0.233,-1.55"
   style="fill:#2c5f2f;fill-rule:nonzero"
   id="path42" />
            </g>
            <g
   transform="matrix(2,0,0,2,169.533,987.951)"
   id="g48">
                <path
   d="m 0,-0.908 c 0.274,0.047 0.407,0.198 0.553,0.375 0.18,0.218 0.129,0.326 -0.072,0.46 C 0.385,-0.009 0.314,0 0.219,-0.063 0.07,-0.161 -0.054,-0.284 -0.181,-0.407 -0.263,-0.487 -0.238,-0.565 -0.186,-0.645 -0.121,-0.744 -0.083,-0.867 0,-0.908"
   style="fill:#2e6130;fill-rule:nonzero"
   id="path46" />
            </g>
            <g
   transform="matrix(2,0,0,2,168.876,973.427)"
   id="g52">
                <path
   d="m 0,-0.914 c 0.13,0.012 0.244,-0.024 0.311,0.092 0.075,0.128 -0.051,0.187 -0.095,0.27 -0.081,0.155 -0.18,0.3 -0.273,0.448 -0.057,0.091 -0.142,0.133 -0.246,0.113 -0.102,-0.021 -0.09,-0.116 -0.104,-0.191 -0.037,-0.206 -0.091,-0.407 0.096,-0.586 C -0.21,-0.866 -0.119,-0.943 0,-0.914"
   style="fill:#2d612f;fill-rule:nonzero"
   id="path50" />
            </g>
            <g
   transform="matrix(2,0,0,2,199.431,980.413)"
   id="g56">
                <path
   d="M 0,-1.718 C -0.225,-1.156 -0.163,-0.578 -0.174,0 -0.384,-0.407 -0.536,-0.835 -0.492,-1.29 -0.47,-1.527 -0.201,-1.604 0,-1.718"
   style="fill:#306332;fill-rule:nonzero"
   id="path54" />
            </g>
            <g
   transform="matrix(2,0,0,2,191.352,988.028)"
   id="g60">
                <path
   d="m 0,-0.464 c 0.102,0.046 0.237,0.026 0.247,0.171 0.01,0.137 -0.075,0.214 -0.201,0.235 -0.349,0.058 -0.701,0.054 -1.053,0.04 -0.039,-0.001 -0.101,-0.026 -0.11,-0.055 -0.02,-0.059 0.039,-0.089 0.085,-0.115 C -0.708,-0.37 -0.329,-0.332 0,-0.464"
   style="fill:#2f6332;fill-rule:nonzero"
   id="path58" />
            </g>
            <g
   transform="matrix(-1.45413,1.37314,1.37314,1.45413,184.03,982.636)"
   id="g64">
                <path
   d="m 0.983,-2.14 c -0.189,0.839 -0.264,1.68 -0.132,2.531 0.025,-0.473 0.059,-0.946 0.132,-1.42 0.116,0.02 0.085,0.172 0.214,0.2 C 1.125,-1.272 1.054,-1.706 0.983,-2.14"
   style="fill:#2c5f2f;fill-rule:nonzero"
   id="path62" />
            </g>
            <g
   transform="matrix(2,0,0,2,167.15,985.731)"
   id="g68">
                <path
   d="m 0,-0.362 c 0.114,-0.009 0.174,0.077 0.251,0.121 0.077,0.044 0.195,0.058 0.176,0.192 C 0.421,-0.008 0.394,0.009 0.355,0.004 0.245,-0.011 0.122,0.006 0.051,-0.109 0.004,-0.185 -0.01,-0.268 0,-0.362"
   style="fill:#2e6030;fill-rule:nonzero"
   id="path66" />
            </g>
            <g
   transform="matrix(2,0,0,2,189.057,990.633)"
   id="g72">
                <path
   d="M 0,0.168 C -0.417,0.164 -0.83,0.233 -1.268,0.243 -1.078,-0.049 -0.558,-0.075 0,0.168"
   style="fill:#2c602f;fill-rule:nonzero"
   id="path70" />
            </g>
            <g
   transform="matrix(2,0,0,2,195.521,983.469)"
   id="g76">
                <path
   d="m 0,-4.595 c -0.253,0.173 -0.363,0.392 -0.39,0.659 -0.039,0.387 0.332,0.313 0.516,0.45 -0.31,0.263 -0.31,0.263 -0.083,0.615 0.246,0.383 0.209,0.841 -0.07,1.178 -0.124,0.149 -0.134,0.366 -0.038,0.515 0.162,0.251 0.123,0.482 0.027,0.724 -0.046,0.117 -0.199,0.214 -0.096,0.354 0.112,0.149 0.28,0.11 0.44,0.071 -0.193,0.162 -0.433,0.217 -0.657,0.285 -0.395,0.119 -0.804,0.19 -1.205,0.29 -0.118,0.029 -0.17,0.02 -0.195,-0.117 -0.033,-0.191 -0.136,-0.361 -0.228,-0.532 -0.28,-0.519 -0.39,-1.07 -0.316,-1.659 0.045,-0.359 0.039,-0.717 -0.019,-1.08 -0.069,-0.44 -0.041,-0.879 0.201,-1.281 0.153,-0.253 0.224,-0.535 0.253,-0.828 0.011,-0.11 0.015,-0.219 0.183,-0.176 0.562,0.143 1.121,0.296 1.677,0.532"
   style="fill:#ffffff;fill-rule:nonzero"
   id="path74" />
            </g>
            <g
   transform="matrix(2,0,0,2,186.726,979.025)"
   id="g80">
                <path
   d="m 0,-0.899 c 0.114,0.023 0.26,0.051 0.406,0.081 0.322,0.065 0.239,0.054 0.2,0.335 -0.064,0.467 -0.379,0.385 -0.661,0.411 -0.135,0.012 -0.277,0.074 -0.409,-0.015 -0.122,-0.082 -0.23,-0.181 -0.191,-0.344 0.059,-0.242 0.229,-0.387 0.464,-0.456 0.049,-0.014 0.104,-0.007 0.191,-0.012"
   style="fill:#ffffff;fill-rule:nonzero"
   id="path78" />
            </g>
            <g
   transform="matrix(2,0,0,2,186.213,983.627)"
   id="g84">
                <path
   d="M 0,0.724 C 0.099,0.661 0.147,0.631 0.194,0.601 0.178,0.543 0.136,0.555 0.108,0.557 -0.12,0.568 -0.149,0.451 -0.071,0.275 0.025,0.06 0.108,-0.095 0.584,-0.088 0.876,-0.084 1.116,0.054 1.207,0.273 1.255,0.389 1.212,0.47 1.122,0.519 0.795,0.698 0.453,0.819 0,0.724"
   style="fill:#ffffff;fill-rule:nonzero"
   id="path82" />
            </g>
            <g
   transform="matrix(2,0,0,2,197.63,975.312)"
   id="g88">
                <path
   d="M 0,0.235 C 0.005,0.543 -0.102,0.622 -0.394,0.553 -0.658,0.491 -0.893,0.338 -1.169,0.316 -1.237,0.31 -1.266,0.25 -1.279,0.185 c -0.055,-0.29 0.24,-0.572 0.526,-0.514 0.249,0.05 0.453,0.176 0.643,0.336 C -0.038,0.068 0,0.142 0,0.235"
   style="fill:#ffffff;fill-rule:nonzero"
   id="path86" />
            </g>
            <g
   transform="matrix(2,0,0,2,199.921,981.063)"
   id="g92">
                <path
   d="M 0,0.561 C -0.085,0.685 -0.16,0.662 -0.227,0.665 -0.399,0.672 -0.538,0.69 -0.499,0.932 -0.474,1.094 -0.558,1.134 -0.705,1.041 -1.159,0.754 -1.178,0.71 -1.031,0.184 -0.986,0.022 -0.95,-0.138 -1.038,-0.301 -1.073,-0.366 -1.111,-0.444 -1.022,-0.573 -0.667,-0.188 -0.645,0.475 0,0.561"
   style="fill:#ffffff;fill-rule:nonzero"
   id="path90" />
            </g>
            <g
   transform="matrix(2,0,0,2,186.941,982.916)"
   id="g96">
                <path
   d="m 0,-0.822 c 0.038,0.003 0.155,0 0.264,0.027 0.111,0.028 0.308,-0.054 0.301,0.156 -0.007,0.2 0.013,0.437 -0.297,0.469 -0.259,0.026 -0.525,0.197 -0.729,-0.132 -0.086,-0.139 -0.092,-0.255 -0.032,-0.392 0.062,-0.143 0.183,-0.142 0.311,-0.129 0.035,0.004 0.07,0.001 0.182,0.001"
   style="fill:#ffffff;fill-rule:nonzero"
   id="path94" />
            </g>
            <g
   transform="matrix(2,0,0,2,196.907,976.47)"
   id="g100">
                <path
   d="M 0,1.048 C -0.279,1.059 -0.456,0.997 -0.436,0.719 -0.427,0.59 -0.517,0.535 -0.588,0.461 -0.711,0.332 -0.693,0.223 -0.527,0.158 -0.092,-0.011 0.352,0.337 0.28,0.788 0.241,1.029 0.223,1.043 0,1.048"
   style="fill:#ffffff;fill-rule:nonzero"
   id="path98" />
            </g>
            <g
   transform="matrix(2,0,0,2,197.479,982.62)"
   id="g104">
                <path
   d="m 0,-0.642 c -0.002,0.434 -0.427,0.852 -0.827,0.853 -0.039,0 -0.088,-0.019 -0.116,-0.046 -0.04,-0.038 -0.007,-0.07 0.025,-0.107 0.102,-0.117 0.126,-0.27 0.102,-0.411 -0.032,-0.192 0.052,-0.273 0.215,-0.32 0.118,-0.034 0.236,-0.069 0.351,-0.112 0.184,-0.068 0.289,-0.039 0.25,0.143"
   style="fill:#ffffff;fill-rule:nonzero"
   id="path102" />
            </g>
            <g
   transform="matrix(2,0,0,2,186.647,973.491)"
   id="g108">
                <path
   d="M 0,0.247 C -0.062,0.136 -0.264,0.298 -0.282,0.103 -0.296,-0.046 -0.261,-0.19 -0.123,-0.26 0.027,-0.336 0.202,-0.343 0.352,-0.255 0.665,-0.072 0.701,0.268 0.445,0.527 0.384,0.59 -0.141,0.561 -0.182,0.482 -0.283,0.287 -0.04,0.342 0,0.247"
   style="fill:#ffffff;fill-rule:nonzero"
   id="path106" />
            </g>
            <g
   transform="matrix(2,0,0,2,195.638,979.563)"
   id="g112">
                <path
   d="M 0,0.515 C -0.011,0.428 0.03,0.358 0.108,0.299 0.234,0.205 0.318,0.072 0.322,-0.081 0.326,-0.254 0.422,-0.256 0.546,-0.255 0.687,-0.254 0.78,-0.199 0.797,-0.049 0.8,-0.023 0.794,0.004 0.795,0.03 0.81,0.573 0.78,0.607 0.238,0.729 0.053,0.771 -0.007,0.694 0,0.515"
   style="fill:#ffffff;fill-rule:nonzero"
   id="path110" />
            </g>
            <g
   transform="matrix(2,0,0,2,186.039,973.411)"
   id="g116">
                <path
   d="M 0,0.592 C -0.102,0.697 -0.253,0.752 -0.39,0.732 -0.593,0.702 -0.771,0.583 -0.847,0.377 -0.9,0.232 -0.888,0.093 -0.683,0.07 c 0.182,-0.02 0.354,-0.23 0.507,-0.144 0.143,0.08 0.065,0.324 0.107,0.491 0.013,0.05 0.038,0.098 0.069,0.175"
   style="fill:#ffffff;fill-rule:nonzero"
   id="path114" />
            </g>
            <g
   transform="matrix(2,0,0,2,187.1,979.528)"
   id="g120">
                <path
   d="m 0,0.715 c -0.115,0 -0.159,0.002 -0.203,0 C -0.484,0.702 -0.616,0.589 -0.601,0.373 -0.587,0.16 -0.364,-0.003 -0.124,0.028 -0.043,0.038 0.024,0.067 0.052,0.158 0.081,0.254 0.141,0.33 0.241,0.362 0.319,0.386 0.431,0.37 0.407,0.507 0.386,0.628 0.301,0.686 0.191,0.704 0.105,0.718 0.016,0.714 0,0.715"
   style="fill:#ffffff;fill-rule:nonzero"
   id="path118" />
            </g>
            <g
   transform="matrix(2,0,0,2,187.247,975.35)"
   id="g124">
                <path
   d="M 0,0.656 C -0.115,0.673 -0.21,0.685 -0.305,0.702 -0.456,0.73 -0.575,0.715 -0.643,0.544 -0.721,0.348 -0.689,0.164 -0.555,0.031 -0.447,-0.074 -0.301,0.036 -0.258,0.135 -0.184,0.309 -0.086,0.472 0,0.656"
   style="fill:#ffffff;fill-rule:nonzero"
   id="path122" />
            </g>
            <g
   transform="matrix(2,0,0,2,185.557,976.901)"
   id="g128">
                <path
   d="m 0,-0.895 c 0.125,0.014 0.216,0.032 0.149,0.161 -0.093,0.18 -0.109,0.366 -0.059,0.559 0.014,0.055 0.014,0.1 -0.044,0.134 C -0.023,0 -0.067,-0.033 -0.112,-0.081 -0.293,-0.273 -0.31,-0.505 -0.254,-0.743 -0.222,-0.883 -0.057,-0.822 0,-0.895"
   style="fill:#ffffff;fill-rule:nonzero"
   id="path126" />
            </g>
            <g
   transform="matrix(1.9249,0.54292,0.54292,-1.9249,185.454,984.393)"
   id="g132">
                <path
   d="M 0.125,0.003 C -0.093,0.166 -0.198,0.589 -0.09,0.781 -0.022,0.901 0.069,0.822 0.125,0.773 0.21,0.695 0.212,0.577 0.168,0.479 0.102,0.334 0.06,0.189 0.125,0.003"
   style="fill:#ffffff;fill-rule:nonzero"
   id="path130" />
            </g>
            <g
   transform="matrix(2,0,0,2,177.945,970.594)"
   id="g136">
                <path
   d="M 0,2.761 C -0.309,2.509 -0.639,2.312 -0.779,1.93 -0.931,1.518 -0.935,1.125 -0.683,0.745 -0.571,0.575 -0.456,0.41 -0.316,0.263 -0.064,0 0.08,0.024 0.229,0.37 0.427,0.828 0.478,1.301 0.345,1.789 0.256,2.11 0.138,2.421 0,2.761"
   style="fill:#ffffff;fill-rule:nonzero"
   id="path134" />
            </g>
            <g
   transform="matrix(2,0,0,2,177.977,987.319)"
   id="g140">
                <path
   d="M 0,-2.611 C 0.16,-2.119 0.366,-1.66 0.362,-1.146 0.36,-0.813 0.306,-0.499 0.14,-0.207 0.037,-0.026 -0.088,0 -0.239,-0.136 -0.989,-0.807 -1.22,-1.589 -0.326,-2.347 -0.225,-2.432 -0.121,-2.513 0,-2.611"
   style="fill:#ffffff;fill-rule:nonzero"
   id="path138" />
            </g>
            <g
   transform="matrix(-0.232548,-1.98643,-1.98643,0.232548,192.287,977.849)"
   id="g144">
                <path
   d="M -0.48,-0.526 C -0.475,-0.239 -0.505,0.005 -0.542,0.246 -0.55,0.308 -0.609,0.403 -0.48,0.394 -0.396,0.388 -0.241,0.4 -0.282,0.26 -0.354,0.017 -0.31,-0.251 -0.48,-0.526"
   style="fill:#35683a;fill-rule:nonzero"
   id="path142" />
            </g>
        </g>
    </g>
</svg>
