<?xml version="1.0" encoding="UTF-8"?>
<svg width="16px" height="16px" viewBox="0 0 16 16" version="1.1" xmlns="http://www.w3.org/2000/svg" xmlns:xlink="http://www.w3.org/1999/xlink">
    <title>HQ21</title>
    <g id="Page-1" stroke="none" stroke-width="1" fill="none" fill-rule="evenodd">
        <g id="HQ21" fill="#670C2F" fill-rule="nonzero">
            <g id="R" transform="translate(3.877000, 2.592000)">
                <path d="M9.45,9.408 L9.45,9.254 C8.89,8.834 8.414,8.274 7.91,7.588 L6.034,5.026 L7.28,4.27 C7.546,3.864 7.77,3.416 7.77,2.772 C7.77,0.406 5.404,1.77635684e-15 3.64,1.77635684e-15 C2.296,1.77635684e-15 1.008,0.056 -8.8817842e-16,0.056 L-8.8817842e-16,0.182 C0.224,0.518 0.322,2.142 0.322,3.108 L0.322,6.314 C0.322,7.336 0.21,8.946 -8.8817842e-16,9.254 L-8.8817842e-16,9.408 L3.178,9.408 L3.178,9.254 C2.968,8.946 2.842,7.336 2.842,6.328 L2.842,6.076 L3.654,5.852 L4.592,7.07 C5.558,8.316 5.726,8.736 5.726,9.1 C5.726,9.128 5.726,9.198 5.712,9.254 L5.712,9.408 L9.45,9.408 Z M5.054,2.8 C5.054,3.724 4.718,4.326 3.962,4.55 L2.842,4.55 L2.842,1.568 C2.996,1.554 3.528,1.512 3.64,1.512 C4.536,1.512 5.054,1.876 5.054,2.8 Z" id="Shape"></path>
            </g>
        </g>
    </g>
</svg>