<?xml version="1.0" encoding="UTF-8"?>
<svg width="16px" height="16px" viewBox="0 0 16 16" version="1.1" xmlns="http://www.w3.org/2000/svg" xmlns:xlink="http://www.w3.org/1999/xlink">
    <title>HQ21</title>
    <g id="Page-1" stroke="none" stroke-width="1" fill="none" fill-rule="evenodd">
        <g id="HQ21" fill="#670C2F" fill-rule="nonzero">
            <g id="N" transform="translate(2.820000, 2.648000)">
                <path d="M9.758,0.154 L9.758,0 L7.252,0 L7.252,0.126 C7.49,0.448 7.616,2.086 7.616,2.982 L7.616,5.404 C6.44,4.046 5.502,2.828 4.634,1.722 C4.228,1.204 3.794,0.644 3.402,0 L0,0 L0,0.14 C0.196,0.308 0.378,0.518 1.092,1.428 L1.092,6.412 C1.092,7.14 0.924,8.89 0.7,9.198 L0.7,9.352 L3.206,9.352 L3.206,9.226 C2.968,8.904 2.842,7.266 2.842,6.37 L2.842,3.556 C3.794,4.704 5.026,6.272 6.076,7.616 C6.538,8.204 7.14,9.016 7.336,9.338 L7.336,9.464 L9.506,9.464 L9.506,9.338 C9.366,8.806 9.366,7.364 9.366,6.944 L9.366,2.94 C9.366,2.212 9.534,0.462 9.758,0.154 Z" id="Path"></path>
            </g>
        </g>
    </g>
</svg>