<?xml version="1.0" encoding="UTF-8"?>
<svg width="16px" height="16px" viewBox="0 0 16 16" version="1.1" xmlns="http://www.w3.org/2000/svg" xmlns:xlink="http://www.w3.org/1999/xlink">
    <title>HQ21</title>
    <g id="Page-1" stroke="none" stroke-width="1" fill="none" fill-rule="evenodd">
        <g id="HQ21" fill="#670C2F" fill-rule="nonzero">
            <g id="T" transform="translate(3.562000, 2.326000)">
                <path d="M8.876,2.31 L8.876,0.098 L8.736,0.098 C8.442,0.308 6.468,0.336 5.222,0.336 L3.654,0.336 C2.408,0.336 0.434,0.21 0.14,0 L8.8817842e-16,0 L8.8817842e-16,2.282 L0.14,2.282 C0.462,2.044 2.464,1.932 2.94,1.932 L3.178,1.932 L3.178,6.426 C3.178,7.308 3.08,9.212 2.856,9.52 L2.856,9.674 L6.034,9.674 L6.034,9.52 C5.81,9.212 5.698,7.308 5.698,6.426 L5.698,1.932 L5.936,1.932 C6.412,1.932 8.414,2.072 8.736,2.31 L8.876,2.31 Z" id="Path"></path>
            </g>
        </g>
    </g>
</svg>