<?xml version="1.0" encoding="UTF-8"?>
<svg width="16px" height="16px" viewBox="0 0 16 16" version="1.1" xmlns="http://www.w3.org/2000/svg" xmlns:xlink="http://www.w3.org/1999/xlink">
    <title>HQ21</title>
    <g id="Page-1" stroke="none" stroke-width="1" fill="none" fill-rule="evenodd">
        <g id="HQ21" fill="#670C2F" fill-rule="nonzero">
            <g id="U" transform="translate(3.513000, 2.648000)">
                <path d="M8.96,9.352 L8.96,9.198 C8.75,8.89 8.624,7.462 8.624,6.58 L8.624,2.772 C8.624,1.876 8.736,0.462 8.96,0.126 L8.96,0 L5.768,0 L5.768,0.126 C5.992,0.476 6.09,1.876 6.09,2.772 L6.09,6.818 C5.46,7.154 4.662,7.392 4.172,7.392 C3.304,7.392 2.87,6.804 2.87,5.838 L2.87,2.772 C2.87,1.876 2.884,0.462 3.108,0.126 L3.108,0 L4.4408921e-16,0 L4.4408921e-16,0.126 C0.224,0.448 0.308,1.876 0.308,2.772 L0.308,4.55 C0.308,5.32 0.266,5.992 0.266,6.65 C0.266,8.232 1.162,9.45 3.374,9.45 C3.892,9.45 4.298,9.352 4.452,9.282 L6.258,8.442 L6.258,9.352 L8.96,9.352 Z" id="Path"></path>
            </g>
        </g>
    </g>
</svg>