<?xml version="1.0" encoding="UTF-8"?>
<svg width="16px" height="16px" viewBox="0 0 16 16" version="1.1" xmlns="http://www.w3.org/2000/svg" xmlns:xlink="http://www.w3.org/1999/xlink">
    <title>HQ21</title>
    <g id="Page-1" stroke="none" stroke-width="1" fill="none" fill-rule="evenodd">
        <g id="HQ21" fill="#670C2F" fill-rule="nonzero">
            <g id="W" transform="translate(0.923000, 2.648000)">
                <path d="M14.168,0.126 L14.168,0 L11.382,0 L11.382,0.126 C11.424,0.224 11.452,0.476 11.452,0.616 C11.452,1.274 11.172,2.296 10.92,3.08 L10.038,5.838 L9.492,4.13 C8.82,2.072 8.568,1.162 8.568,0.658 C8.568,0.42 8.624,0.224 8.68,0.126 L8.68,0 L5.95,0 L5.95,0.126 C5.992,0.224 6.034,0.476 6.034,0.672 C6.034,1.316 5.698,2.254 5.138,3.892 L4.48,5.796 L4.032,4.102 C3.458,1.932 3.29,1.386 3.29,0.672 C3.29,0.518 3.36,0.224 3.416,0.126 L3.416,0 L-7.77156117e-16,0 L-7.77156117e-16,0.126 C0.476,0.546 0.868,2.058 1.232,3.276 L3.052,9.352 L4.886,9.352 L6.958,3.584 L8.736,9.352 L10.612,9.352 L12.628,3.626 C13.174,2.072 13.636,0.714 14.168,0.126 Z" id="Path"></path>
            </g>
        </g>
    </g>
</svg>