<?xml version="1.0" encoding="UTF-8"?>
<svg width="16px" height="16px" viewBox="0 0 16 16" version="1.1" xmlns="http://www.w3.org/2000/svg" xmlns:xlink="http://www.w3.org/1999/xlink">
    <title>HQ21</title>
    <g id="Page-1" stroke="none" stroke-width="1" fill="none" fill-rule="evenodd">
        <g id="HQ21" fill="#670C2F" fill-rule="nonzero">
            <g id="6" transform="translate(4.826000, 3.816000)">
                <path d="M6.372,5.412 C6.372,3.924 5.46,2.88 3.864,2.88 C3.552,2.88 3.468,2.892 3.108,3.024 L2.196,3.384 C2.304,2.544 2.496,2.016 2.76,1.788 C2.904,1.656 3.168,1.476 3.624,1.476 C4.332,1.476 5.064,1.668 5.748,2.04 L5.844,2.04 L5.844,0.216 C5.532,0.132 4.752,0 4.092,0 C3.084,0 2.28,0.336 1.62,0.936 C0.78,1.704 -8.8817842e-16,2.82 -8.8817842e-16,4.764 C-8.8817842e-16,7.032 1.104,8.352 3.12,8.352 C4.824,8.352 6.372,7.128 6.372,5.412 Z M4.332,5.724 C4.332,6.468 4.044,7.092 3.324,7.092 C2.436,7.092 2.1,6.24 2.1,4.764 L2.1,4.692 C2.352,4.512 2.76,4.32 3.18,4.32 C4.044,4.32 4.332,4.992 4.332,5.724 Z" id="Shape"></path>
            </g>
        </g>
    </g>
</svg>