<?xml version="1.0" encoding="UTF-8"?>
<svg width="16px" height="16px" viewBox="0 0 16 16" version="1.1" xmlns="http://www.w3.org/2000/svg" xmlns:xlink="http://www.w3.org/1999/xlink">
    <title>HQ21</title>
    <g id="Page-1" stroke="none" stroke-width="1" fill="none" fill-rule="evenodd">
        <g id="HQ21" fill="#670C2F" fill-rule="nonzero">
            <g id="5" transform="translate(4.780000, 4.412000)">
                <path d="M5.58,5.22382979 C5.58,3.97723404 4.67770213,3.05119149 3.38361702,2.92059574 L1.86395745,3.2292766 L1.93519149,1.78085106 L3.21740426,1.78085106 C4.0247234,1.78085106 4.80829787,1.81646809 5.03387234,1.98268085 L5.15259574,1.98268085 L5.15259574,7.53196897e-16 L5.03387234,7.53196897e-16 C4.86765957,0.130595745 4.28591489,0.201829787 3.54982979,0.201829787 L0.356170213,0.201829787 L0.356170213,2.46944681 C0.356170213,3.8466383 0.320553191,4.27404255 0.189957447,4.63021277 L0.189957447,4.73706383 L0.605489362,5.06948936 C1.2347234,4.68957447 2.03017021,4.47587234 2.19638298,4.47587234 C2.80187234,4.47587234 3.50234043,4.67770213 3.50234043,5.67497872 C3.50234043,6.0192766 3.37174468,6.39919149 3.09868085,6.61289362 C2.88497872,6.71974468 2.69502128,6.77910638 2.232,6.77910638 C1.40093617,6.77910638 0.688595745,6.45855319 0.0949787234,6.138 L-7.53196897e-16,6.138 L-7.53196897e-16,7.90697872 C0.474893617,8.08506383 1.15161702,8.15629787 1.91144681,8.15629787 C2.75438298,8.15629787 3.51421277,7.91885106 4.14344681,7.56268085 C4.99825532,7.07591489 5.58,6.32795745 5.58,5.22382979 Z" id="Path"></path>
            </g>
        </g>
    </g>
</svg>