<?xml version="1.0" encoding="UTF-8"?>
<svg width="16px" height="16px" viewBox="0 0 16 16" version="1.1" xmlns="http://www.w3.org/2000/svg" xmlns:xlink="http://www.w3.org/1999/xlink">
    <title>HQ21</title>
    <g id="Page-1" stroke="none" stroke-width="1" fill="none" fill-rule="evenodd">
        <g id="HQ21" fill="#670C2F" fill-rule="nonzero">
            <g id="4" transform="translate(3.639000, 4.636000)">
                <path d="M7.764,5.66796805 L7.764,4.25407668 L7.66477955,4.25407668 C7.31750799,4.37810224 6.48653674,4.4153099 6.02764217,4.42771246 L6.02764217,2.20765495 C6.02764217,1.51311182 6.08965495,0.347271565 6.20127796,0.111623003 L6.20127796,-7.86834465e-16 L3.86959744,-7.86834465e-16 L-7.86834465e-16,5.02303514 L0.706945687,6.20127796 L0.806166134,6.20127796 C1.11623003,6.0772524 1.48830671,6.02764217 2.44330351,6.02764217 L3.98122045,6.02764217 C3.98122045,6.78419808 3.94401278,7.86322045 3.74557188,8.12367412 L3.74557188,8.26010224 L6.26329073,8.26010224 L6.26329073,8.12367412 C6.05244728,7.82601278 6.02764217,6.70978275 6.02764217,5.95322684 L7.764,5.66796805 Z M4.08044089,1.84798083 C4.04323323,2.05882428 3.98122045,2.92700319 3.98122045,3.36109265 L3.98122045,4.44011502 L2.18284984,4.44011502 L4.08044089,1.84798083 Z" id="Shape"></path>
            </g>
        </g>
    </g>
</svg>