<?xml version="1.0" encoding="UTF-8"?>
<svg width="16px" height="16px" viewBox="0 0 16 16" version="1.1" xmlns="http://www.w3.org/2000/svg" xmlns:xlink="http://www.w3.org/1999/xlink">
    <title>HQ21</title>
    <g id="Page-1" stroke="none" stroke-width="1" fill="none" fill-rule="evenodd">
        <g id="HQ21" fill="#670C2F" fill-rule="nonzero">
            <g id="2" transform="translate(4.465000, 4.412000)">
                <path d="M7.168,7.812 L7.168,5.558 L7.028,5.558 C6.832,5.712 6.132,5.796 5.278,5.796 L3.052,5.796 C4.06,5.292 5.25,4.564 5.726,4.004 C6.16,3.5 6.286,2.842 6.286,2.282 C6.286,1.05 5.18,8.8817842e-16 3.206,8.8817842e-16 C2.114,8.8817842e-16 1.162,0.182 0.406,0.462 L0.406,2.506 L0.518,2.506 C1.26,2.128 2.464,1.694 3.15,1.694 C3.318,1.694 3.5,1.722 3.57,1.792 C3.696,1.932 3.766,2.254 3.766,2.562 C3.766,3.794 2.52,4.872 0,6.174 L0,7.728 L0.14,7.728 C0.63,7.588 1.596,7.574 2.45,7.574 L4.886,7.574 C5.67,7.574 6.748,7.602 7.028,7.812 L7.168,7.812 Z" id="Path"></path>
            </g>
        </g>
    </g>
</svg>