<?xml version="1.0" encoding="UTF-8"?>
<svg width="16px" height="16px" viewBox="0 0 16 16" version="1.1" xmlns="http://www.w3.org/2000/svg" xmlns:xlink="http://www.w3.org/1999/xlink">
    <title>HQ21</title>
    <g id="Page-1" stroke="none" stroke-width="1" fill="none" fill-rule="evenodd">
        <g id="HQ21" fill="#670C2F" fill-rule="nonzero">
            <g id="8" transform="translate(4.772000, 3.816000)">
                <path d="M6.456,5.772 C6.456,4.884 6.012,4.344 4.872,3.792 L5.868,3.18 C6.096,2.964 6.264,2.508 6.264,2.064 C6.264,0.84 5.184,0 3.396,0 C1.584,0 0.324,0.84 0.324,2.232 C0.324,3.024 0.684,3.648 1.68,4.2 L0.624,4.716 C0.288,5.028 -8.8817842e-16,5.496 -8.8817842e-16,6.132 C-8.8817842e-16,7.524 1.092,8.352 3.144,8.352 C5.064,8.352 6.456,7.356 6.456,5.772 Z M4.272,2.184 C4.272,2.64 4.056,2.988 3.72,3.216 C2.64,2.748 2.304,2.508 2.304,1.98 C2.304,1.512 2.724,1.212 3.264,1.212 C3.996,1.212 4.272,1.656 4.272,2.184 Z M4.356,6.192 C4.356,6.72 3.96,7.128 3.24,7.128 C2.46,7.128 2.016,6.576 2.016,5.952 C2.016,5.34 2.352,5.004 2.832,4.824 C3.888,5.28 4.356,5.544 4.356,6.192 Z" id="Shape"></path>
            </g>
        </g>
    </g>
</svg>