<?xml version="1.0" encoding="UTF-8"?>
<svg width="16px" height="18px" viewBox="0 0 16 18" version="1.1" xmlns="http://www.w3.org/2000/svg" xmlns:xlink="http://www.w3.org/1999/xlink">
    <title>HQ21</title>
    <g id="Page-1" stroke="none" stroke-width="1" fill="none" fill-rule="evenodd">
        <g id="HQ21" transform="translate(0.923000, 0.000000)" fill="#670C2F" fill-rule="nonzero">
            <g id="10" transform="translate(0.951000, 6.984000)">
                <path d="M3.924,0.12 L3.924,-1.77635684e-15 L2.22044605e-16,1.044 L0.264,2.22 L1.632,1.776 L1.632,3.876 C1.632,4.728 1.608,6.096 1.404,6.384 L1.404,6.516 L3.9,6.516 L3.9,6.384 C3.684,6.06 3.672,4.728 3.672,3.876 L3.672,2.676 C3.672,1.716 3.684,0.552 3.924,0.12 Z" id="Path"></path>
                <path d="M12.024,3.348 C12.024,1.476 10.812,0.024 8.772,0.024 C6.744,0.024 5.376,1.44 5.376,3.36 C5.376,5.4 6.612,6.684 8.628,6.684 C10.644,6.684 12.024,5.268 12.024,3.348 Z M9.828,3.444 C9.828,4.644 9.576,5.436 8.724,5.436 C7.896,5.436 7.572,4.644 7.572,3.252 C7.572,2.22 7.788,1.272 8.676,1.272 C9.516,1.272 9.828,2.04 9.828,3.444 Z" id="Shape"></path>
            </g>
        </g>
    </g>
</svg>