<?xml version="1.0" encoding="UTF-8"?>
<svg width="16px" height="16px" viewBox="0 0 16 16" version="1.1" xmlns="http://www.w3.org/2000/svg" xmlns:xlink="http://www.w3.org/1999/xlink">
    <title>HQ21</title>
    <g id="Page-1" stroke="none" stroke-width="1" fill="none" fill-rule="evenodd">
        <g id="HQ21" fill="#670C2F" fill-rule="nonzero">
            <g id="9" transform="translate(4.802000, 4.556000)">
                <path d="M6.372,3.588 C6.372,1.356 5.196,8.8817842e-16 3.18,8.8817842e-16 C1.476,8.8817842e-16 0,1.164 0,2.964 C0,4.452 0.864,5.28 2.316,5.28 L3.552,4.98 L3.516,3.924 C3.348,3.948 3.252,3.96 3.072,3.96 C2.208,3.96 1.968,3.24 1.968,2.508 C1.968,1.776 2.292,1.26 3.012,1.26 C3.888,1.26 4.236,2.112 4.236,3.588 C4.236,5.352 3.876,6.192 3.516,6.528 C3.372,6.66 3,6.876 2.544,6.876 C1.836,6.876 1.2,6.708 0.516,6.324 L0.42,6.324 L0.42,8.148 C0.732,8.232 1.272,8.352 1.932,8.352 C2.94,8.352 3.996,7.956 4.68,7.38 C5.556,6.636 6.372,5.532 6.372,3.588 Z" id="Path"></path>
            </g>
        </g>
    </g>
</svg>