<?xml version="1.0" encoding="UTF-8" standalone="no"?>
<svg
   xmlns:dc="http://purl.org/dc/elements/1.1/"
   xmlns:cc="http://creativecommons.org/ns#"
   xmlns:rdf="http://www.w3.org/1999/02/22-rdf-syntax-ns#"
   xmlns:svg="http://www.w3.org/2000/svg"
   xmlns="http://www.w3.org/2000/svg"
   xmlns:sodipodi="http://sodipodi.sourceforge.net/DTD/sodipodi-0.dtd"
   xmlns:inkscape="http://www.inkscape.org/namespaces/inkscape"
   version="1.1"
   width="30.390223"
   height="40"
   viewBox="0 0 30.390223 40"
   xml:space="preserve"
   id="svg10"
   sodipodi:docname="trash-347.svg"
   inkscape:version="0.92.3 (2405546, 2018-03-11)"><metadata
   id="metadata14"><rdf:RDF><cc:Work
       rdf:about=""><dc:format>image/svg+xml</dc:format><dc:type
         rdf:resource="http://purl.org/dc/dcmitype/StillImage" /></cc:Work></rdf:RDF></metadata><sodipodi:namedview
   pagecolor="#ffffff"
   bordercolor="#666666"
   borderopacity="1"
   objecttolerance="10"
   gridtolerance="10"
   guidetolerance="10"
   inkscape:pageopacity="0"
   inkscape:pageshadow="2"
   inkscape:window-width="2400"
   inkscape:window-height="1421"
   id="namedview12"
   showgrid="false"
   inkscape:zoom="1.84375"
   inkscape:cx="-241.1265"
   inkscape:cy="-66.275265"
   inkscape:window-x="-9"
   inkscape:window-y="-9"
   inkscape:window-maximized="1"
   inkscape:current-layer="svg10" />

<defs
   id="defs2">
</defs>
<g
   style="opacity:1;fill:none;fill-rule:nonzero;stroke:none;stroke-width:0;stroke-linecap:butt;stroke-linejoin:miter;stroke-miterlimit:10;stroke-dasharray:none"
   transform="matrix(0.31111111,0,0,0.31111111,1.1951108,5.9999996)"
   id="g8">
	<path
   d="M 76.777,2.881 H 57.333 V 2.412 C 57.333,1.08 56.253,0 54.921,0 H 35.079 C 33.747,0 32.667,1.08 32.667,2.412 V 2.881 H 13.223 c -1.332,0 -2.412,1.08 -2.412,2.412 v 9.526 c 0,1.332 1.08,2.412 2.412,2.412 h 63.554 c 1.332,0 2.412,-1.08 2.412,-2.412 V 5.293 c 0,-1.332 -1.08,-2.412 -2.412,-2.412 z"
   style="opacity:1;fill:#000000;fill-rule:nonzero;stroke:none;stroke-width:1;stroke-linecap:butt;stroke-linejoin:miter;stroke-miterlimit:10;stroke-dasharray:none"
   id="path4"
   inkscape:connector-curvature="0" />
	<path
   d="M 73.153,22.119 H 16.847 c -1.332,0 -2.412,1.08 -2.412,2.412 v 63.057 c 0,1.332 1.08,2.412 2.412,2.412 h 56.306 c 1.332,0 2.412,-1.08 2.412,-2.412 V 24.531 c 0,-1.332 -1.08,-2.412 -2.412,-2.412 z M 33.543,81.32 c 0,1.332 -1.08,2.412 -2.412,2.412 h -2.245 c -1.332,0 -2.412,-1.08 -2.412,-2.412 V 30.799 c 0,-1.332 1.08,-2.412 2.412,-2.412 h 2.245 c 1.332,0 2.412,1.08 2.412,2.412 z m 14.992,0 c 0,1.332 -1.08,2.412 -2.412,2.412 h -2.245 c -1.332,0 -2.412,-1.08 -2.412,-2.412 V 30.799 c 0,-1.332 1.08,-2.412 2.412,-2.412 h 2.245 c 1.332,0 2.412,1.08 2.412,2.412 z m 14.991,0 c 0,1.332 -1.08,2.412 -2.412,2.412 h -2.245 c -1.332,0 -2.412,-1.08 -2.412,-2.412 V 30.799 c 0,-1.332 1.08,-2.412 2.412,-2.412 h 2.245 c 1.332,0 2.412,1.08 2.412,2.412 z"
   style="opacity:1;fill:#000000;fill-rule:nonzero;stroke:none;stroke-width:1;stroke-linecap:butt;stroke-linejoin:miter;stroke-miterlimit:10;stroke-dasharray:none"
   id="path6"
   inkscape:connector-curvature="0" />
</g>
</svg>