<?xml version="1.0" encoding="UTF-8" standalone="no"?>
<svg
   width="129.08356"
   height="84.337997"
   viewBox="0 0 129.08356 84.337997"
   version="1.1"
   xml:space="preserve"
   style="clip-rule:evenodd;fill-rule:evenodd;stroke-miterlimit:10"
   id="svg274"
   sodipodi:docname="magic_room1.svg"
   inkscape:version="1.1.1 (3bf5ae0d25, 2021-09-20)"
   xmlns:inkscape="http://www.inkscape.org/namespaces/inkscape"
   xmlns:sodipodi="http://sodipodi.sourceforge.net/DTD/sodipodi-0.dtd"
   xmlns="http://www.w3.org/2000/svg"
   xmlns:svg="http://www.w3.org/2000/svg"><defs
   id="defs278" /><sodipodi:namedview
   id="namedview276"
   pagecolor="#ffffff"
   bordercolor="#666666"
   borderopacity="1.0"
   inkscape:pageshadow="2"
   inkscape:pageopacity="0.0"
   inkscape:pagecheckerboard="0"
   showgrid="false"
   inkscape:zoom="8.1384615"
   inkscape:cx="65.061437"
   inkscape:cy="42.514178"
   inkscape:window-width="1920"
   inkscape:window-height="1012"
   inkscape:window-x="-8"
   inkscape:window-y="-8"
   inkscape:window-maximized="1"
   inkscape:current-layer="svg274" />
    <g
   transform="rotate(180,489.21728,93.8445)"
   id="g272">
        <g
   id="g270">
            <g
   transform="matrix(2,0,0,2,874.251,127.224)"
   id="g4">
                <path
   d="M 0,19.911 0.019,19.124 0.051,18.327 -0.015,17.53 -0.104,16.733 -0.09,15.936 0.072,15.139 -0.046,14.341 -0.055,13.545 -0.041,12.749 -0.066,11.952 -0.105,11.155 0.087,10.359 0.039,9.561 0.073,8.764 0.037,7.967 -0.029,7.169 0.014,6.372 -0.104,5.573 0.072,4.775 -0.062,3.978 0.043,3.18 0.009,2.382 -0.095,1.584 l 0.162,-0.8 -0.084,-0.806 0.808,0.06 0.8,-0.065 0.802,0.046 0.8,0.009 0.802,-0.083 0.8,0.134 0.801,-0.161 0.801,-0.021 0.799,0.03 0.801,0.117 0.801,-0.137 0.8,0.044 0.801,0.116 0.801,-0.084 0.802,-0.066 0.801,0.168 0.801,-0.043 0.802,-0.129 0.802,0.159 0.801,-0.083 0.802,-0.023 0.801,0.063 0.802,-0.04 0.804,-0.092 0.827,0.064 -0.058,0.821 0.127,0.797 -0.039,0.797 -0.116,0.797 0.113,0.797 -0.009,0.797 0.038,0.798 -0.022,0.796 -0.06,0.796 0.061,0.797 0.001,0.797 -0.067,0.796 0.009,0.798 0.098,0.797 -0.144,0.798 -0.028,0.797 0.074,0.798 -0.072,0.798 0.05,0.798 0.107,0.797 -0.173,0.798 0.182,0.798 -0.16,0.798 0.034,0.8 -0.013,0.756 -0.757,0.124 -0.801,-0.078 -0.801,0.09 -0.801,-0.025 -0.801,-0.05 -0.801,0.075 -0.801,-0.022 -0.8,-0.078 -0.8,0.054 -0.8,0.012 -0.802,-0.094 -0.8,-0.045 L 9.612,20.014 8.811,20.012 8.01,19.868 7.209,20.013 6.407,19.873 5.605,19.894 H 4.804 L 4.003,19.86 3.201,19.987 2.399,19.869 1.597,19.868 0.793,19.969 Z"
   style="fill:none;fill-rule:nonzero;stroke:#691c2d;stroke-width:0.82px"
   id="path2" />
            </g>
            <g
   transform="matrix(2,0,0,2,914.362,127.233)"
   id="g8">
                <path
   d="m 0,19.882 0.037,-0.762 -0.17,-0.797 0.021,-0.797 0.077,-0.797 0.023,-0.798 -0.067,-0.797 0.016,-0.797 0.001,-0.797 -0.049,-0.795 0.109,-0.797 L -0.019,11.151 -0.091,10.354 0.014,9.557 -0.135,8.76 -0.008,7.962 -0.011,7.165 -0.124,6.367 -0.066,5.569 -0.006,4.771 -0.022,3.974 0.055,3.176 -0.125,2.378 -0.114,1.58 -0.07,0.78 -0.043,-0.028 0.766,-0.01 1.567,-0.088 2.368,0.04 3.169,0.041 3.97,-0.117 l 0.801,0.057 0.801,0.064 0.8,-0.063 0.8,0.116 0.8,-0.048 0.801,-0.022 0.801,-0.068 0.801,0.06 0.8,-0.073 0.802,0.001 0.801,0.025 0.802,0.09 0.801,-0.005 0.802,-0.015 0.801,-0.009 0.802,0.069 0.802,-0.033 0.802,-0.043 0.803,0.029 0.856,-0.087 0.006,0.849 -0.019,0.797 0.054,0.798 -0.137,0.797 0.102,0.797 -0.04,0.797 -0.066,0.797 0.068,0.797 -0.053,0.796 -0.056,0.796 0.108,0.798 -0.116,0.796 0.168,0.798 -0.097,0.797 0.048,0.797 -0.058,0.797 -0.064,0.798 0.023,0.798 0.173,0.798 -0.056,0.797 0.03,0.798 -0.161,0.798 0.167,0.799 -0.011,0.799 -0.081,0.784 -0.785,-0.056 -0.801,0.071 -0.801,0.067 -0.801,0.003 -0.801,0.013 -0.8,-0.117 -0.802,0.007 -0.8,0.109 -0.8,-0.129 -0.8,0.065 L 11.189,19.888 10.388,19.886 9.587,19.99 8.786,19.899 7.985,19.963 7.184,19.834 6.383,19.899 5.581,19.876 4.779,19.93 3.978,19.863 3.176,19.951 2.374,19.888 1.572,19.823 0.771,19.836 Z"
   style="fill:none;fill-rule:nonzero;stroke:#691c2d;stroke-width:0.82px"
   id="path6" />
            </g>
            <g
   transform="matrix(2,0,0,2,898.9,182.314)"
   id="g12">
                <path
   d="m 0,-36.738 c -0.725,-0.026 -1.324,0.122 -1.438,0.338 0.498,-0.117 0.968,-0.227 1.438,-0.338 m 12.725,3.789 c 0.922,0.278 1.742,0.527 2.565,0.767 0.074,0.022 0.169,-0.016 0.254,-0.026 -0.049,-0.073 -0.078,-0.181 -0.149,-0.213 -0.804,-0.368 -1.655,-0.559 -2.67,-0.528 m -3.716,13.341 c 0.104,0.354 0.401,0.528 0.815,0.478 0.437,-0.053 0.899,-0.102 1.116,-0.619 -0.548,-0.076 -1.067,-0.149 -1.481,-0.208 -0.209,0.163 -0.334,0.26 -0.45,0.349 m -16.039,6.423 c -0.09,0.745 0.384,0.988 1.006,1.068 0.484,0.062 0.664,-0.338 1.013,-0.593 -0.727,-0.171 -1.384,-0.326 -2.019,-0.475 m 35.691,-0.747 c 0.034,-0.025 0.068,-0.05 0.103,-0.075 0.017,-0.179 0.031,-0.359 0.052,-0.538 0.02,-0.18 0.024,-0.364 0.076,-0.536 0.118,-0.392 -0.025,-0.662 -0.409,-0.839 -0.02,-0.009 -0.046,-0.007 -0.073,-0.011 -0.121,0.127 -0.253,0.248 -0.363,0.383 -0.429,0.527 -0.419,0.711 0.083,1.196 0.16,0.155 0.353,0.281 0.531,0.42 m -9.066,-2.909 c -0.046,-0.003 -0.092,-0.006 -0.138,-0.009 -0.029,-0.227 -0.041,-0.456 -0.091,-0.678 -0.028,-0.124 -0.118,-0.235 -0.18,-0.353 -0.127,0.062 -0.27,0.106 -0.376,0.19 -0.088,0.069 -0.134,0.184 -0.181,0.254 0.359,0.632 0.705,1.243 1.063,1.874 0.678,-0.567 1.356,-1.128 1.833,-1.86 -0.278,-0.071 -0.524,-0.107 -0.745,-0.197 -0.237,-0.096 -0.389,-0.047 -0.545,0.126 -0.203,0.225 -0.426,0.436 -0.64,0.653 m -38.286,8.802 c 0.041,-0.01 0.083,-0.02 0.126,-0.03 0.115,-0.282 0.238,-0.562 0.338,-0.848 0.021,-0.06 -0.02,-0.158 -0.066,-0.216 -0.968,-1.22 -1.941,-2.436 -2.912,-3.654 -0.429,-0.537 -0.856,-1.075 -1.284,-1.613 -0.023,0.207 -0.002,0.402 0.089,0.564 0.3,0.532 0.627,1.051 0.939,1.578 0.055,0.092 0.091,0.194 0.131,0.293 0.104,0.26 0.172,0.538 0.316,0.778 0.213,0.356 0.473,0.689 0.724,1.026 0.529,0.709 1.065,1.415 1.599,2.122 m 38.615,-6.925 v 1.663 c 1.525,-1.023 2.768,-2.159 3.611,-3.645 -0.385,-0.199 -0.754,-0.389 -1.13,-0.584 -0.292,0.693 -1.979,2.491 -2.481,2.566 M 3.516,-30.286 c 0.069,0.032 0.094,0.054 0.112,0.051 0.07,-0.015 0.141,-0.035 0.209,-0.058 1.291,-0.439 2.62,-0.671 4.001,-0.705 2.013,-0.048 3.933,0.289 5.768,1.046 0.328,0.136 0.628,0.384 1.038,0.209 0.225,-0.627 0.224,-0.625 -0.409,-0.978 -0.923,-0.514 -1.946,-0.775 -2.993,-0.933 -0.801,-0.121 -1.638,-0.278 -2.427,-0.186 -1.709,0.2 -3.351,0.689 -4.925,1.348 -0.123,0.051 -0.234,0.128 -0.374,0.206 M 35.008,-8.3 c -0.207,-0.147 -0.353,-0.236 -0.477,-0.344 -0.125,-0.109 -0.227,-0.24 -0.342,-0.359 -1.031,-1.074 -1.636,-2.305 -1.653,-3.758 -0.004,-0.377 0.102,-0.783 -0.314,-1.064 -0.055,-0.036 -0.063,-0.132 -0.117,-0.257 -0.072,0.143 -0.128,0.238 -0.171,0.337 -0.115,0.27 -0.208,0.55 -0.342,0.812 -0.382,0.744 -0.782,1.444 -0.502,2.348 0.205,0.664 0.466,1.234 1.066,1.642 0.828,0.562 1.73,0.88 2.852,0.643 M 11.683,-25.746 c -0.306,-0.312 -0.483,-0.427 -0.999,-0.626 -1.912,-0.739 -3.896,-0.859 -5.924,-0.57 -0.568,0.081 -1.146,0.137 -1.697,0.276 -0.695,0.175 -1.238,0.596 -1.726,1.074 -0.695,0.68 -1.001,1.56 -1.417,2.377 -0.303,0.597 -0.488,1.248 -0.694,1.883 -0.242,0.745 -0.426,1.506 -0.682,2.246 -0.116,0.335 -0.004,0.458 0.339,0.524 0.025,-0.057 0.051,-0.106 0.07,-0.156 0.541,-1.497 0.929,-3.045 1.818,-4.425 0.223,-0.346 0.348,-0.75 0.492,-1.135 0.228,-0.608 0.72,-0.976 1.326,-1.209 1.676,-0.645 3.439,-0.931 5.245,-1.022 0.464,-0.024 0.886,0.159 1.325,0.236 0.828,0.143 1.68,0.165 2.524,0.527 m 1.843,-2.277 c -1.536,-0.788 -3.188,-1.155 -4.898,-1.224 -1.219,-0.049 -2.451,0.02 -3.668,0.131 -1.5,0.136 -2.95,0.512 -4.28,1.18 -0.747,0.375 -1.523,0.749 -1.989,1.461 -0.06,0.093 -0.138,0.206 -0.127,0.302 0.033,0.296 0.105,0.589 0.179,0.968 0.475,-0.566 0.85,-1.105 1.327,-1.551 0.384,-0.359 0.85,-0.728 1.354,-0.879 1.317,-0.392 2.662,-0.692 4.066,-0.762 1.281,-0.065 2.549,-0.06 3.814,0.13 1.344,0.203 2.651,0.519 3.856,1.198 0.123,-0.32 0.237,-0.617 0.366,-0.954 m 15.696,14.242 c 0.039,-0.015 0.078,-0.031 0.117,-0.047 0.14,0.026 0.28,0.052 0.42,0.078 -0.08,0.108 -0.147,0.229 -0.244,0.323 -0.279,0.272 -0.585,0.521 -0.85,0.804 -0.114,0.122 -0.202,0.298 -0.219,0.458 -0.07,0.667 0.008,1.325 0.318,1.936 0.198,0.391 0.509,0.702 1.002,0.859 0.073,-1.011 0.306,-1.949 0.763,-2.822 0.448,-0.854 0.957,-1.681 1.439,-2.52 0.039,-0.068 0.123,-0.149 0.107,-0.204 -0.085,-0.28 -0.16,-0.572 -0.304,-0.828 -0.352,-0.626 -0.749,-1.23 -1.111,-1.851 -0.215,-0.37 -0.397,-0.755 -0.569,-1.083 -0.454,0.742 -0.905,1.463 -1.332,2.195 -0.06,0.103 -0.043,0.283 0.015,0.394 0.078,0.147 0.231,0.261 0.351,0.388 0.114,-0.069 0.2,-0.157 0.299,-0.171 0.105,-0.015 0.221,0.041 0.333,0.066 -0.048,0.082 -0.092,0.165 -0.143,0.244 -0.099,0.154 -0.244,0.296 -0.295,0.462 -0.08,0.261 -0.112,0.536 -0.136,0.808 -0.014,0.169 0.024,0.341 0.039,0.511 m -2.311,-10.342 c 0.243,-0.616 -0.349,-1.05 -0.163,-1.6 0.233,0.57 0.467,1.139 0.741,1.809 v -1.095 c 0.143,0.045 0.297,0.093 0.494,0.155 -0.088,-2.675 -1.669,-4.572 -3.479,-6.399 -0.668,0.985 -1.181,2.001 -1.261,3.136 -0.033,0.454 0.042,0.999 0.298,1.368 0.654,0.944 1.685,1.543 2.683,2.168 0.042,-0.091 0.069,-0.151 0.102,-0.223 0.199,0.232 0.372,0.433 0.585,0.681 m -45.302,17.859 c 0.033,0.025 0.065,0.05 0.097,0.075 0.318,-0.132 0.702,-0.2 0.943,-0.408 0.645,-0.557 1.255,-1.153 1.825,-1.776 0.249,-0.273 0.427,-0.634 0.529,-0.982 0.23,-0.785 0.4,-1.585 0.575,-2.383 0.043,-0.197 0.025,-0.409 0.009,-0.613 -0.008,-0.09 -0.141,-0.226 -0.113,-0.254 0.077,-0.076 0.208,-0.107 0.309,-0.152 -0.037,-0.15 -0.111,-0.322 -0.117,-0.495 -0.034,-1.175 -0.051,-2.35 -0.082,-3.524 -0.007,-0.285 -0.043,-0.569 -0.058,-0.766 -0.51,0.579 -1.01,1.212 -1.586,1.779 -0.382,0.376 -0.627,0.763 -0.674,1.276 -0.041,0.449 -0.15,0.892 -0.204,1.34 -0.065,0.531 -0.408,1.024 -0.241,1.589 0.058,0.195 0.065,0.404 0.078,0.608 0.067,1.033 -0.35,1.972 -0.679,2.928 -0.202,0.586 -0.407,1.172 -0.611,1.758 m 33.369,-8.32 c -0.418,0.136 -0.719,0.295 -1.034,0.323 -0.611,0.054 -1.238,0.105 -1.841,0.031 -1.399,-0.172 -2.621,-0.788 -3.763,-1.511 -0.436,-0.275 -0.799,-0.677 -1.116,-1.074 -0.271,-0.341 -0.449,-0.75 -0.624,-1.145 -0.067,-0.152 -0.066,-0.366 -0.005,-0.522 0.096,-0.244 0.268,-0.462 0.409,-0.691 0.006,-0.01 0.015,-0.018 0.024,-0.026 0.255,-0.202 0.51,-0.404 0.759,-0.6 -0.104,0.019 -0.242,0.023 -0.36,0.069 -0.599,0.23 -1.289,0.365 -1.767,0.732 -0.93,0.714 -1.272,2.566 -0.717,3.59 0.371,0.684 0.804,1.375 1.517,1.818 0.776,0.482 1.618,0.873 2.397,1.351 0.906,0.557 1.931,0.696 2.96,0.715 0.958,0.017 1.919,-0.123 2.877,-0.204 0.262,-0.022 0.52,-0.081 0.785,-0.124 -0.033,-0.171 -0.056,-0.294 -0.079,-0.417 -0.078,-0.406 -0.122,-0.407 -0.585,-0.352 -0.491,0.059 -0.989,0.065 -1.485,0.079 -0.084,0.003 -0.17,-0.065 -0.304,-0.12 0.691,-0.227 1.305,-0.423 1.913,-0.636 0.098,-0.035 0.238,-0.157 0.231,-0.227 -0.035,-0.332 -0.115,-0.66 -0.192,-1.059 m -15.862,1.735 C -0.986,-12.91 -1.087,-12.97 -1.139,-13 c -0.143,0.442 -0.281,0.869 -0.45,1.393 0.638,0.526 1.321,1.14 2.061,1.689 0.726,0.537 1.446,1.074 2.403,1.295 1.382,0.321 2.734,0.745 4.102,1.115 0.681,0.184 1.36,0.388 2.056,0.503 0.573,0.094 1.168,0.093 1.753,0.089 0.388,-0.003 0.777,-0.134 1.163,-0.124 1.58,0.039 3.153,-0.011 4.714,-0.241 2.104,-0.311 4.054,-1.021 5.884,-2.01 0.562,-0.303 1.165,-0.597 1.608,-1.021 0.621,-0.594 1.116,-1.302 1.65,-1.97 0.125,-0.156 0.2,-0.348 0.28,-0.529 0.083,-0.189 0.111,-0.405 0.223,-0.576 0.197,-0.3 0.44,-0.576 0.663,-0.862 -0.587,0.041 -1.031,0.205 -1.348,0.622 -0.381,0.502 -0.739,1.051 -1.237,1.44 -1.4,1.094 -2.855,2.118 -4.635,2.683 -1.632,0.519 -3.261,1.019 -4.994,1.164 -1.118,0.095 -2.232,0.274 -3.352,0.311 C 10.08,-7.986 8.75,-8.053 7.421,-8.076 7.299,-8.078 7.168,-8.087 7.059,-8.131 6.361,-8.408 5.645,-8.658 4.977,-8.988 2.949,-9.991 1.533,-11.6 0.142,-13.226 c -0.185,-0.217 -0.365,-0.437 -0.548,-0.656 -0.016,0.012 -0.031,0.024 -0.047,0.035 l 1.286,2.175 c -0.103,-0.06 -0.177,-0.137 -0.245,-0.217 -0.829,-0.97 -1.524,-2.016 -2.114,-3.123 -0.085,-0.159 -0.152,-0.353 -0.551,-0.202 0.868,0.614 0.649,1.63 1.193,2.365 m -3.888,0.799 c 0.269,0.324 0.529,0.628 0.777,0.94 1.054,1.318 2.221,2.519 3.666,3.507 1.359,0.93 2.784,1.671 4.46,1.952 0.809,0.136 1.623,0.252 2.438,0.35 1.162,0.139 2.325,0.312 3.494,0.365 2.121,0.097 4.239,-0.016 6.337,-0.332 1.483,-0.224 2.969,-0.453 4.434,-0.762 1.757,-0.372 3.337,-1.111 4.699,-2.211 0.334,-0.269 0.656,-0.555 0.946,-0.863 0.387,-0.412 0.765,-0.836 1.092,-1.288 0.139,-0.193 0.282,-0.489 -0.126,-0.654 -0.053,-0.021 -0.057,-0.146 -0.089,-0.24 -0.052,0.042 -0.092,0.069 -0.123,0.102 -0.057,0.06 -0.106,0.126 -0.163,0.187 -0.781,0.825 -1.555,1.657 -2.617,2.201 -1.988,1.017 -4.114,1.696 -6.341,2.077 -1.439,0.246 -2.901,0.387 -4.354,0.558 -1.331,0.158 -2.665,0.209 -4.003,0.072 -0.296,-0.031 -0.593,-0.049 -0.89,-0.073 0.143,0.093 0.297,0.123 0.444,0.173 0.143,0.049 0.278,0.119 0.416,0.179 -4.837,-0.086 -8.657,-2.298 -12.301,-4.894 0.131,-0.092 0.308,-0.166 0.012,-0.262 -0.219,-0.072 -0.476,-0.133 -0.627,-0.277 -0.254,-0.244 -0.438,-0.55 -0.651,-0.829 0.023,-0.021 0.046,-0.041 0.069,-0.062 l 1.55,0.724 0.058,-0.109 c -0.788,-0.382 -1.577,-0.764 -2.369,-1.148 -0.1,0.26 -0.169,0.438 -0.238,0.617 m 33.042,2.56 c -0.888,0.846 -1.806,1.794 -2.809,2.659 -1.463,1.263 -3.138,2.231 -5.093,2.731 -1.294,0.331 -2.623,0.475 -3.953,0.643 -1.561,0.197 -3.106,0.2 -4.659,0.03 C 10.495,-3.566 9.239,-3.746 7.979,-3.893 6.321,-4.085 4.745,-4.53 3.204,-5.113 1.769,-5.656 0.518,-6.456 -0.676,-7.342 c -0.558,-0.413 -1.146,-0.814 -1.611,-1.307 -0.865,-0.919 -1.647,-1.904 -2.472,-2.855 -0.328,-0.378 -0.362,-0.373 -0.825,-0.098 0.121,0.214 0.214,0.441 0.362,0.632 0.995,1.285 2.128,2.452 3.374,3.543 1.888,1.653 3.996,2.974 6.385,3.922 1.601,0.636 3.256,1.096 4.996,1.252 0.648,0.058 1.302,0.051 1.954,0.063 2.492,0.045 4.994,0.086 7.448,-0.362 1.984,-0.362 3.931,-0.897 5.898,-1.341 1.534,-0.346 2.787,-1.216 4.146,-1.882 0.486,-0.238 0.843,-0.701 1.25,-1.07 0.318,-0.287 0.621,-0.589 0.934,-0.881 0.134,-0.125 0.276,-0.24 0.414,-0.36 -0.065,0.038 -0.132,0.076 -0.197,0.113 -0.168,-0.23 -0.344,-0.455 -0.501,-0.691 -0.159,-0.239 -0.3,-0.489 -0.449,-0.734 -0.09,0.572 -0.479,0.847 -1.014,0.675 C 28.995,-8.858 28.659,-9.218 28.27,-9.49 M 12.017,-24.958 c -0.167,-0.03 -0.346,-0.057 -0.523,-0.095 -1.911,-0.418 -3.84,-0.66 -5.806,-0.438 -0.911,0.103 -1.763,0.391 -2.522,0.873 -0.305,0.194 -0.605,0.409 -0.85,0.661 -0.384,0.397 -0.783,0.801 -1.059,1.261 -0.312,0.519 -0.507,1.1 -0.732,1.662 -0.492,1.233 -1.207,2.401 -0.815,3.829 0.172,0.625 0.263,1.262 0.552,1.865 0.843,1.757 2.056,3.236 3.714,4.415 1.642,1.168 3.516,1.85 5.508,2.298 0.569,0.127 1.159,0.31 1.653,-0.085 -0.53,-0.075 -1.09,-0.153 -1.649,-0.231 0.005,-0.035 0.011,-0.07 0.016,-0.104 0.158,0.016 0.316,0.043 0.474,0.046 0.802,0.015 1.608,0.083 2.402,0.021 0.925,-0.073 1.827,-0.283 2.7,-0.615 0.574,-0.219 1.205,-0.311 1.806,-0.471 0.317,-0.085 0.653,-0.151 0.932,-0.303 0.663,-0.359 1.285,-0.782 1.944,-1.147 0.986,-0.546 1.97,-1.086 2.716,-1.919 0.212,-0.237 0.435,-0.482 0.705,-0.652 0.316,-0.198 0.456,-0.424 0.414,-0.767 -0.083,-0.664 0.258,-1.18 0.701,-1.658 0.013,-0.014 0.013,-0.038 0.027,-0.082 -0.088,-0.036 -0.177,-0.072 -0.235,-0.096 -0.186,0.233 -0.331,0.446 -0.51,0.632 -0.815,0.844 -1.634,1.685 -2.466,2.515 -0.146,0.146 -0.346,0.305 -0.544,0.338 -0.54,0.09 -0.855,0.353 -0.985,0.834 -0.023,0.084 -0.09,0.159 -0.139,0.237 -0.653,1.033 -1.733,1.562 -2.859,2.02 -0.483,0.197 -1.03,-0.18 -1.039,-0.666 -0.004,-0.213 -10e-4,-0.427 -10e-4,-0.606 -0.736,0.106 -1.46,0.248 -2.192,0.306 -0.752,0.06 -1.512,0.06 -2.267,0.044 -0.989,-0.022 -1.971,-0.136 -2.91,-0.434 -1.221,-0.388 -2.347,-0.901 -3.305,-1.756 -0.955,-0.852 -1.208,-1.873 -1.243,-3.007 -10e-4,-0.023 0.006,-0.046 0.01,-0.068 0.129,-0.623 0.259,-1.245 0.389,-1.868 -0.641,0.96 -1.135,1.956 -0.928,3.203 -0.314,-0.314 -0.412,-0.644 -0.347,-0.94 0.351,-1.597 0.865,-3.08 2.75,-3.776 1.077,-0.397 2.093,-0.909 3.312,-0.726 0.649,0.098 1.328,-0.006 1.958,0.243 0.096,0.039 0.213,0.044 0.32,0.042 0.384,-0.006 0.54,0.208 0.377,0.527 -0.296,0.575 -1.409,1.04 -2.062,0.82 -0.406,-0.135 -0.781,-0.348 -1.274,-0.574 0.077,0.236 0.17,0.414 0.188,0.598 0.085,0.842 0.711,1.091 1.42,1.196 1.04,0.154 2.103,0.24 3.103,-0.242 -0.117,-0.19 -0.23,-0.375 -0.352,-0.574 -0.849,0.481 -1.708,0.225 -2.51,0.135 0.493,-0.276 1.007,-0.548 1.502,-0.847 0.513,-0.311 0.565,-0.49 0.368,-1 -0.025,-0.064 -0.026,-0.137 -0.058,-0.196 -0.122,-0.222 -0.196,-0.505 -0.39,-0.646 -0.311,-0.225 -0.688,-0.398 -1.065,-0.516 -1.253,-0.392 -2.503,-0.266 -3.737,0.101 -0.57,0.17 -1.151,0.322 -1.694,0.55 -0.545,0.228 -1.053,0.533 -1.567,0.819 -0.256,0.143 -0.533,0.284 -0.724,0.487 -0.436,0.464 -0.958,0.888 -1.018,1.641 -0.051,-0.11 -0.066,-0.129 -0.068,-0.149 -0.004,-0.034 -0.006,-0.07 0.003,-0.103 0.298,-1.08 0.837,-2.018 1.908,-2.611 0.526,-0.292 1.107,-0.498 1.634,-0.789 1.407,-0.774 2.929,-0.924 4.502,-0.693 0.604,0.089 1.18,0.333 1.778,0.509 0.099,-0.1 0.24,-0.245 0.342,-0.349 -0.166,-0.269 -0.311,-0.506 -0.459,-0.74 -0.018,-0.029 -0.058,-0.044 -0.081,-0.071 -0.517,-0.594 -1.259,-0.85 -2.004,-1.067 -1.24,-0.359 -2.474,-0.358 -3.677,0.172 -0.933,0.411 -1.73,0.979 -2.533,1.579 -1.058,0.79 -1.731,1.737 -2.099,2.91 -0.022,0.072 -0.077,0.135 -0.117,0.202 0.067,-0.867 0.447,-1.623 0.874,-2.363 0.155,-0.269 0.269,-0.58 0.494,-0.788 0.896,-0.825 1.88,-1.556 2.992,-2.124 0.653,-0.333 1.325,-0.58 2.112,-0.551 1.049,0.039 2.099,-0.012 3.066,0.477 0.415,0.21 0.861,0.368 1.296,0.551 0.152,-0.375 0.297,-0.731 0.453,-1.116 m -30.137,14.667 c 0.04,-0.021 0.08,-0.042 0.121,-0.062 0.022,-0.169 0.102,-0.351 0.057,-0.503 -0.209,-0.718 -0.102,-1.404 0.09,-2.111 0.164,-0.602 0.192,-1.233 0.319,-1.845 0.04,-0.199 -0.013,-0.301 -0.149,-0.438 -0.222,-0.224 -0.456,-0.457 -0.598,-0.725 -0.247,-0.466 -0.412,-0.968 -0.64,-1.443 -0.645,-1.338 -0.581,-2.702 -0.135,-4.059 0.344,-1.045 0.968,-1.973 1.592,-2.898 0.447,-0.663 0.949,-1.279 1.593,-1.786 0.197,-0.156 0.458,-0.246 0.695,-0.357 0.159,-0.075 0.337,-0.12 0.486,-0.206 1.115,-0.645 2.222,-1.301 3.339,-1.942 0.128,-0.074 0.303,-0.11 0.455,-0.108 0.353,0.003 0.625,-0.061 0.737,-0.42 0.288,-0.919 0.581,-1.837 0.895,-2.749 0.055,-0.162 0.211,-0.3 0.34,-0.435 0.256,-0.268 0.526,-0.525 0.79,-0.787 -0.022,-0.034 -0.044,-0.067 -0.066,-0.1 -0.369,0.063 -0.742,0.114 -1.107,0.192 -1.098,0.235 -2.192,0.48 -3.287,0.722 -0.738,0.162 -1.526,0.224 -2.202,0.51 -1.089,0.462 -2.132,1.031 -3.143,1.63 -1.124,0.665 -2.202,1.41 -2.992,2.428 -1.079,1.39 -2.039,2.842 -2.441,4.538 -0.118,0.496 -0.213,1.008 -0.211,1.512 0.003,0.504 0.169,1.006 0.215,1.512 0.09,1.003 0.368,1.965 0.724,2.908 0.742,1.96 1.935,3.697 3.198,5.396 0.416,0.558 0.882,1.085 1.325,1.626 m 15.081,-8.834 c 0.165,-0.296 0.311,-0.663 0.551,-0.967 0.478,-0.606 0.777,-1.29 0.825,-2.007 0.04,-0.591 -0.174,-1.195 -0.271,-1.795 -0.14,-0.86 -0.462,-1.69 -0.415,-2.582 0.046,-0.864 0.43,-1.517 1.214,-1.986 0.373,-0.223 0.722,-0.48 1.1,-0.696 0.991,-0.568 1.979,-1.141 2.993,-1.672 0.657,-0.345 1.356,-0.62 2.037,-0.927 -0.009,-0.027 -0.018,-0.055 -0.027,-0.082 -0.872,0.15 -1.744,0.301 -2.615,0.451 -0.005,-0.019 -0.011,-0.039 -0.015,-0.058 0.304,-0.085 0.607,-0.17 0.911,-0.255 -0.005,-0.021 -0.011,-0.041 -0.016,-0.061 -0.845,0.176 -1.69,0.353 -2.534,0.529 2.709,-1.184 5.646,-1.396 8.558,-1.722 -2.821,-0.008 -5.599,0.307 -8.33,0.982 2.37,-1.112 4.932,-1.395 7.531,-1.528 -2.709,-0.197 -5.377,-0.093 -7.937,0.902 0.983,-0.874 2.279,-1.069 3.521,-1.402 -0.731,0.012 -1.464,0.021 -2.182,0.115 -0.72,0.095 -1.427,0.277 -2.139,0.42 1.384,-0.914 3.003,-0.999 4.615,-1.114 -1.764,-0.115 -3.506,0.003 -5.217,0.451 l -0.044,-0.132 c 0.567,-0.207 1.133,-0.414 1.699,-0.621 -0.001,-0.01 -0.002,-0.021 -0.003,-0.032 -0.6,0.115 -1.199,0.229 -1.799,0.344 0.24,-0.192 0.506,-0.329 0.786,-0.433 0.28,-0.103 0.575,-0.171 0.863,-0.255 -0.012,-0.04 -0.023,-0.08 -0.035,-0.12 -1.115,0.245 -2.229,0.491 -3.351,0.738 0.03,-0.038 0.099,-0.116 0.093,-0.12 -0.331,-0.284 0.052,-0.35 0.184,-0.419 0.54,-0.283 1.101,-0.533 1.654,-0.795 -1.096,0.226 -2.17,0.508 -3.185,1.18 0.08,-0.217 0.129,-0.348 0.206,-0.558 -0.265,0.116 -0.504,0.166 -0.664,0.299 -0.8,0.665 -1.622,1.314 -2.352,2.04 -0.676,0.671 -1.347,1.381 -1.831,2.172 -0.455,0.742 -0.711,1.601 -0.965,2.431 -0.297,0.971 -0.706,1.9 -1.342,2.703 -0.928,1.172 -1.952,2.281 -2.956,3.4 -0.197,0.22 -0.173,0.398 -0.127,0.651 0.106,0.589 0.178,1.188 0.195,1.785 0.014,0.485 -0.105,0.973 -0.107,1.459 -0.004,0.958 0.048,1.916 0.049,2.874 0.002,0.799 -0.037,1.599 -0.054,2.398 -10e-4,0.085 0.007,0.182 0.05,0.253 0.067,0.111 0.167,0.205 0.282,0.341 0.377,0.283 0.862,0.554 1.212,0.93 0.746,0.805 1.48,1.63 2.106,2.515 0.368,0.521 0.758,0.94 1.33,1.279 0.567,0.336 1.036,0.811 1.548,1.226 0.088,-0.11 0.184,-0.244 0.293,-0.367 0.539,-0.607 0.608,-1.341 0.44,-2.037 -0.247,-1.021 -0.971,-1.798 -1.842,-2.458 -0.164,-0.124 -0.301,-0.287 -0.421,-0.45 -0.319,-0.433 -0.616,-0.88 -0.935,-1.313 -0.064,-0.086 -0.186,-0.179 -0.291,-0.19 -0.685,-0.074 -1.127,-0.539 -1.662,-0.85 -0.457,-0.265 -0.421,-0.757 -0.524,-1.148 -0.26,-0.988 -0.422,-1.997 -0.615,-3 -0.104,-0.535 -0.222,-1.071 -0.268,-1.612 -0.015,-0.17 0.181,-0.355 0.281,-0.533 0.095,0.123 0.241,0.236 0.276,0.373 0.285,1.101 0.556,2.205 0.814,3.312 0.122,0.519 0.246,1.042 0.292,1.569 0.021,0.239 0.055,0.423 0.27,0.548 0.195,0.113 0.397,0.246 0.615,0.294 0.465,0.1 0.942,0.148 1.413,0.223 0.98,0.154 1.962,0.301 2.939,0.47 1.626,0.282 3.14,0.814 4.527,1.85 0.037,-0.401 0.088,-0.7 0.09,-1 0.008,-1.484 -1.088,-2.572 -2.699,-2.629 -0.86,-0.03 -1.723,0.031 -2.585,0.056 -0.22,0.006 -0.388,0 -0.387,-0.278 0,-0.118 -0.088,-0.269 -0.189,-0.349 -0.392,-0.309 -0.798,-0.604 -1.213,-0.886 -0.16,-0.108 -0.326,-0.174 -0.184,-0.395 0.196,-0.303 0.13,-0.486 -0.221,-0.621 -0.4,-0.155 -0.773,-0.325 -0.712,-0.815 0.037,-0.293 0.087,-0.584 0.12,-0.877 0.068,-0.591 0.111,-1.156 -0.413,-1.652 -0.27,-0.256 -0.406,-0.64 -0.571,-0.98 -0.11,-0.227 -0.022,-0.467 0.232,-0.53 0.154,-0.037 0.406,0.053 0.526,0.165 0.155,0.147 0.225,0.37 0.327,0.563 0.057,0.111 0.103,0.227 0.159,0.338 0.168,0.334 0.358,0.66 0.502,1.002 0.101,0.239 0.06,0.562 0.222,0.739 0.295,0.322 0.228,0.639 0.196,0.993 -0.025,0.273 0.018,0.529 0.35,0.706 1.026,0.548 2.056,1.095 2.911,1.871 0.057,0.051 0.135,0.109 0.207,0.114 0.395,0.03 0.795,0.089 1.185,0.057 0.99,-0.082 1.971,-0.115 2.953,0.158 0.037,-0.079 0.087,-0.147 0.103,-0.221 0.206,-0.933 -0.413,-1.534 -1.298,-1.762 -0.837,-0.215 -1.703,-0.267 -2.562,-0.029 -0.239,0.067 -0.578,-0.179 -0.498,-0.353 0.254,-0.552 0.027,-1.021 -0.291,-1.462 -0.49,-0.677 -1.033,-1.312 -1.825,-1.726 -0.083,-0.043 -0.112,-0.173 -0.166,-0.262 0.118,-0.033 0.234,-0.081 0.355,-0.093 0.064,-0.007 0.132,0.066 0.203,0.075 0.135,0.017 0.323,0.065 0.398,0.004 0.072,-0.058 0.068,-0.248 0.03,-0.361 -0.175,-0.523 -0.374,-1.04 -0.571,-1.577 0.103,-0.013 0.288,-0.064 0.305,-0.033 0.291,0.506 0.561,1.021 0.871,1.601 0.234,-0.204 0.516,-0.404 0.733,-0.652 0.195,-0.223 0.281,-0.495 0.138,-0.796 -0.216,-0.454 -0.207,-0.458 0.336,-0.564 0.424,0.404 0.481,0.851 0.195,1.342 -0.262,0.449 -0.668,0.75 -1.155,0.975 -0.1,0.046 -0.256,0.15 -0.248,0.21 0.042,0.282 -0.021,0.569 0.321,0.801 0.687,0.464 1.22,1.047 1.077,1.926 -0.006,0.042 0.015,0.087 0.02,0.11 0.501,-0.037 0.988,-0.073 1.521,-0.113 m 21.491,-20.356 h 6.558 c -1.645,1.656 -3.291,3.312 -4.937,4.968 -0.044,-0.035 -0.089,-0.07 -0.134,-0.105 0.877,-1.313 2.02,-2.446 3.02,-3.667 -0.079,-0.096 -0.157,-0.19 -0.242,-0.292 -1.233,1.489 -2.461,2.972 -3.689,4.454 0.247,-0.972 0.876,-1.747 1.472,-2.535 0.515,-0.681 1.062,-1.342 1.587,-2.017 0.051,-0.065 0.049,-0.166 0.072,-0.25 -0.084,0.044 -0.18,0.076 -0.248,0.135 -0.097,0.086 -0.174,0.191 -0.252,0.28 -0.439,-0.271 -0.526,-0.253 -0.776,0.122 -0.019,0.029 -0.032,0.061 -0.051,0.09 -0.735,1.101 -1.469,2.202 -2.206,3.303 -0.053,0.078 -0.122,0.146 -0.199,0.237 -0.041,-0.097 -0.064,-0.15 -0.094,-0.222 -0.354,0.739 -0.696,1.453 -1.037,2.166 l -0.194,-0.056 c 0.095,-0.458 0.189,-0.916 0.284,-1.375 -0.167,0.111 -0.289,0.246 -0.345,0.4 -0.422,1.154 -0.831,2.312 -1.244,3.469 -0.184,0.518 -0.329,1.037 -0.665,1.517 -0.306,0.435 -0.432,0.978 -0.636,1.474 -0.021,0.052 -0.051,0.108 -0.046,0.16 0.017,0.18 0.048,0.359 0.074,0.539 0.362,-0.188 0.677,-0.599 1.217,-0.616 0.127,0.357 -0.124,0.501 -0.33,0.683 -0.544,0.479 -1.149,0.919 -1.591,1.469 -1.039,1.295 -1.591,2.732 -1.106,4.369 0.079,0.271 0.21,0.529 0.286,0.801 0.383,1.366 1.068,2.584 2.041,3.675 0.303,0.34 0.612,0.708 0.774,1.112 0.2,0.502 0.256,1.053 0.362,1.585 0.048,0.233 0.064,0.472 0.099,0.709 0.082,0.562 0.182,1.12 -0.049,1.681 -0.064,0.153 -0.01,0.347 -0.01,0.558 1.148,-0.491 2.087,-1.129 2.669,-2.138 0.089,-0.154 0.148,-0.34 0.158,-0.514 0.091,-1.54 -0.616,-2.759 -1.86,-3.813 0.069,-0.155 0.116,-0.359 0.238,-0.512 0.281,-0.353 0.598,-0.682 0.902,-1.02 0.148,-0.164 0.21,-0.322 0.03,-0.512 -0.046,-0.048 -0.014,-0.16 -0.018,-0.242 0.079,0.002 0.168,-0.017 0.235,0.011 0.679,0.282 1.352,0.578 2.033,0.858 0.674,0.277 1.369,0.424 2.11,0.252 0.063,-0.015 0.148,0.005 0.206,0.035 0.727,0.379 1.451,0.762 2.204,1.16 0.174,-0.161 0.413,-0.281 0.472,-0.454 0.161,-0.47 0.271,-0.958 0.349,-1.446 0.031,-0.198 -0.05,-0.422 -0.132,-0.615 -0.018,-0.041 -0.263,0.009 -0.403,0.002 -0.822,-0.039 -1.668,0.011 -2.461,-0.154 -0.668,-0.138 -1.301,-0.485 -1.899,-0.817 -0.46,-0.255 -0.855,-0.612 -0.994,-1.144 -0.064,-0.242 -0.016,-0.428 0.209,-0.52 0.253,-0.103 0.427,0.025 0.57,0.244 0.156,0.238 0.332,0.492 0.569,0.654 1.477,1.009 3.123,1.33 5.008,0.998 0.113,0.282 0.252,0.626 0.401,0.994 0.171,-0.102 0.276,-0.187 0.398,-0.23 0.089,-0.031 0.2,-0.006 0.301,-0.006 -0.029,0.09 -0.047,0.185 -0.091,0.269 -0.024,0.046 -0.091,0.074 -0.141,0.108 -0.588,0.39 -0.88,0.934 -0.925,1.586 -0.02,0.31 0.028,0.624 0.045,0.939 -0.518,-0.122 -1.448,0.216 -1.765,0.634 -0.495,0.654 -0.497,1.184 -0.055,1.739 0.777,-0.318 1.541,-0.622 2.296,-0.943 0.181,-0.077 0.387,-0.179 0.489,-0.325 0.592,-0.847 1.164,-1.707 1.722,-2.573 0.099,-0.154 0.141,-0.361 0.14,-0.543 -0.009,-0.955 -0.038,-1.911 -0.065,-2.866 -0.004,-0.128 0.013,-0.305 -0.067,-0.374 -0.304,-0.264 -0.623,-0.524 -0.976,-0.728 -0.866,-0.501 -1.752,-0.972 -2.632,-1.453 -1.341,-0.733 -2.485,-1.664 -3.322,-2.882 -0.247,-0.36 -0.733,-0.674 -0.429,-1.213 0.02,-0.036 -0.047,-0.106 -0.043,-0.159 0.009,-0.117 0.038,-0.234 0.059,-0.351 0.116,0.065 0.248,0.114 0.343,0.198 0.094,0.084 0.15,0.204 0.188,0.258 0.516,-1.305 1.008,-2.607 1.556,-3.888 0.122,-0.286 0.381,-0.524 0.45,-0.85 0.064,-0.302 0.167,-0.596 0.268,-0.949 -0.153,0.14 -0.256,0.237 -0.363,0.332 -0.104,0.092 -0.211,0.181 -0.316,0.272 0.528,-0.972 1.248,-1.797 2.058,-2.552 0.915,-0.852 1.862,-1.676 2.795,-2.512 0.398,-0.356 0.799,-0.711 1.198,-1.066 h 3.205 c 0.022,0.082 0.045,0.164 0.069,0.25 -0.105,0.018 -0.184,0.031 -0.275,0.046 0.159,0.151 0.384,0.266 0.433,0.427 0.18,0.583 0.33,1.177 0.434,1.775 0.094,0.538 0.105,1.088 0.169,1.631 0.088,0.752 0.254,1.501 0.272,2.253 0.029,1.231 -0.003,2.465 -0.069,3.695 -0.051,0.95 -0.129,1.906 -0.311,2.841 -0.261,1.341 -0.601,2.671 -0.959,3.995 -0.222,0.822 -0.541,1.621 -0.817,2.431 -0.034,-0.001 -0.07,-0.001 -0.105,-0.002 -0.052,-0.108 -0.151,-0.217 -0.147,-0.324 0.008,-0.224 0.078,-0.445 0.109,-0.669 0.229,-1.675 0.494,-3.346 0.67,-5.025 0.153,-1.461 0.245,-2.93 0.293,-4.398 0.059,-1.797 0.017,-3.597 -0.291,-5.379 -0.089,-0.515 -0.233,-1.022 -0.352,-1.532 -0.014,0.002 -0.028,0.004 -0.042,0.006 v 0.92 c -0.353,-0.936 -0.704,-1.869 -1.056,-2.802 -0.047,0.013 -0.095,0.026 -0.142,0.039 0.167,0.622 0.334,1.244 0.5,1.866 -0.016,10e-4 -0.034,0.003 -0.051,0.005 -0.253,-0.406 -0.507,-0.812 -0.8,-1.281 0.029,0.223 0.05,0.38 0.082,0.629 -0.155,-0.356 -0.27,-0.622 -0.42,-0.969 0.022,0.212 0.036,0.33 0.045,0.449 0.031,0.431 0.029,0.865 0.094,1.292 0.231,1.511 0.674,2.996 0.692,4.535 0.011,1.015 0.002,2.029 0.002,3.044 -0.134,-2.789 -0.427,-5.552 -1.479,-8.211 -0.486,0.347 -0.672,0.726 -0.467,1.259 0.124,0.325 0.139,0.686 0.203,1.031 -0.016,0.003 -0.032,0.005 -0.048,0.007 -0.197,-0.461 -0.393,-0.922 -0.59,-1.383 l -0.105,0.015 c -0.024,0.067 -0.078,0.14 -0.065,0.201 0.062,0.291 -0.07,0.468 -0.311,0.656 -0.222,0.171 -0.651,0.27 -0.443,0.75 -0.102,-0.099 -0.157,-0.151 -0.211,-0.203 -0.419,0.293 -0.53,0.519 -0.198,0.906 0.038,0.044 0.062,0.098 0.089,0.149 0.813,1.508 1.376,3.095 1.72,4.747 0.213,1.021 0.478,2.041 0.576,3.073 0.114,1.192 0.062,2.396 0.102,3.594 0.012,0.361 -0.167,0.775 0.26,1.059 0.036,0.024 0.027,0.107 0.036,0.163 0.144,0.876 0.12,1.773 0.653,2.583 0.365,0.556 0.564,1.202 0.873,1.792 0.286,0.545 0.621,1.069 0.933,1.603 0.125,0.213 0.23,0.436 0.374,0.637 0.434,0.605 0.655,1.246 0.433,1.967 -0.16,0.52 -0.033,1.014 0.15,1.497 0.122,0.324 0.521,0.379 0.716,0.104 0.651,-0.92 1.297,-1.843 1.929,-2.774 1.026,-1.512 1.866,-3.113 2.579,-4.767 0.19,-0.44 0.288,-0.914 0.421,-1.374 0.162,-0.562 0.317,-1.125 0.476,-1.688 v 5.143 c -0.078,0.128 -0.158,0.254 -0.235,0.383 -0.457,0.764 -0.854,1.565 -1.382,2.285 -1.144,1.561 -2.356,3.081 -3.567,4.653 -0.009,-0.015 0.015,0.036 0.048,0.082 0.038,0.052 0.084,0.098 0.147,0.172 1.836,-2.075 3.524,-4.199 4.91,-6.534 -0.005,0.304 0.028,0.643 -0.126,0.879 -0.618,0.94 -1.245,1.882 -1.96,2.759 -0.845,1.036 -1.785,2.007 -2.723,3.049 0.169,0.181 0.399,0.402 0.594,0.647 0.101,0.127 0.184,0.295 0.193,0.448 0.007,0.139 -0.098,0.284 -0.153,0.426 -0.311,0.094 -0.62,0.255 -0.935,0.268 -0.623,0.025 -1.25,-0.022 -1.874,-0.06 -0.204,-0.013 -0.36,-0.019 -0.514,0.145 -0.463,0.492 -0.947,0.966 -1.428,1.443 -0.302,0.3 -0.574,0.641 -0.926,0.88 -1.792,1.218 -3.781,2.09 -5.868,2.793 -2.417,0.814 -4.901,1.361 -7.472,1.441 -1.668,0.052 -3.344,-0.041 -5.014,-0.119 C 9.815,-1.236 8.206,-1.609 6.658,-2.173 3.83,-3.204 1.2,-4.578 -1.28,-6.19 c -1.12,-0.727 -2.2,-1.512 -3.246,-2.326 -0.317,-0.247 -0.605,-0.417 -1.09,-0.449 0.075,0.303 0.067,0.63 0.23,0.851 0.406,0.552 0.841,1.1 1.35,1.571 2.167,2.004 4.776,3.411 7.554,4.554 2.41,0.993 4.931,1.625 7.56,1.965 1.663,0.215 3.309,0.474 4.995,0.541 2.067,0.081 4.112,-0.01 6.118,-0.447 2.44,-0.531 4.808,-1.264 6.837,-2.682 0.715,-0.5 1.336,-1.114 2.02,-1.654 1.193,-0.941 2.41,-1.856 3.6,-2.8 0.323,-0.257 0.583,-0.581 0.872,-0.874 0.04,-0.023 0.091,-0.039 0.12,-0.07 0.952,-1.028 1.916,-2.045 2.844,-3.09 0.463,-0.52 0.858,-1.092 1.283,-1.641 v 1.646 c -0.343,0.597 -0.656,1.211 -1.033,1.79 -1.643,2.523 -3.839,4.589 -6.299,6.44 -3.322,2.5 -7.128,4.095 -11.236,5.129 -0.706,0.178 -1.433,0.284 -2.151,0.423 H 10.403 C 10.181,2.608 9.959,2.529 9.737,2.45 c 0.85,0.105 1.689,0.293 2.54,0.039 C 12.053,2.421 11.816,2.441 11.6,2.388 10.294,2.072 8.978,1.781 7.693,1.403 5.657,0.803 3.77,-0.121 1.857,-0.985 -0.699,-2.138 -3.1,-3.533 -5.487,-4.951 c -0.082,-0.048 -0.14,-0.126 -0.219,-0.179 -0.322,-0.217 -0.648,-0.43 -0.973,-0.644 -0.035,0.04 -0.071,0.081 -0.107,0.122 0.23,0.184 0.461,0.368 0.692,0.552 -0.016,0.015 -0.032,0.03 -0.048,0.045 -0.334,-0.284 -0.667,-0.567 -0.993,-0.844 -0.151,0.084 -0.274,0.152 -0.406,0.225 -0.164,-0.205 -0.324,-0.378 -0.45,-0.57 -0.482,-0.728 -1.204,-1.199 -1.992,-1.599 -0.251,-0.127 -0.636,-0.127 -0.501,-0.549 0.01,-0.031 -0.038,-0.082 -0.067,-0.118 -0.225,-0.286 -0.449,-0.573 -0.679,-0.855 -0.378,-0.461 -0.759,-0.921 -1.142,-1.379 -0.232,-0.278 -0.47,-0.55 -0.686,-0.801 -0.172,0.095 -0.298,0.165 -0.399,0.221 -0.403,0.915 -0.802,1.836 -1.216,2.751 -0.124,0.275 -0.123,0.477 0.193,0.647 0.199,0.108 0.352,0.287 0.528,0.43 2.61,2.11 5.401,4.001 8.454,5.519 3.174,1.578 6.248,3.335 9.566,4.664 H -2.863 C -3.384,2.392 -3.908,2.099 -4.427,1.801 c -2.045,-1.176 -4.046,-2.416 -5.828,-3.915 -1.409,-1.186 -2.743,-2.447 -4.091,-3.693 -0.224,-0.206 -0.348,-0.504 -0.519,-0.759 -0.032,-0.046 -0.067,-0.094 -0.112,-0.128 -0.213,-0.164 -0.43,-0.325 -0.549,-0.414 -0.442,0.384 -0.932,0.811 -1.383,1.203 0.062,0.028 0.226,0.06 0.321,0.153 0.659,0.651 1.309,1.31 1.953,1.973 2.159,2.227 4.642,4.094 7.4,5.657 0.467,0.265 0.928,0.539 1.391,0.809 h -4.994 c -0.213,-0.187 -0.446,-0.359 -0.637,-0.563 -0.769,-0.819 -1.553,-1.627 -2.277,-2.478 -0.868,-1.019 -1.674,-2.081 -2.519,-3.116 -0.488,-0.599 -0.993,-1.186 -1.504,-1.768 -0.071,-0.081 -0.221,-0.142 -0.335,-0.143 -0.294,-0.005 -0.588,0.039 -0.882,0.045 -0.268,0.006 -0.33,-0.148 -0.275,-0.36 0.022,-0.088 0.046,-0.179 0.092,-0.257 0.256,-0.444 0.132,-0.796 -0.193,-1.192 -0.413,-0.503 -0.744,-1.068 -1.067,-1.628 -0.292,-0.507 -0.484,-1.066 -0.793,-1.563 -0.508,-0.816 -1.091,-1.593 -1.614,-2.402 -0.659,-1.021 -1.29,-2.058 -1.932,-3.088 v -10.353 c 0.488,-0.699 1.004,-1.376 1.691,-1.929 0.471,-0.38 0.925,-0.778 1.402,-1.151 0.866,-0.678 1.707,-1.388 2.624,-2.002 1.236,-0.825 2.534,-1.571 3.814,-2.357 -0.054,-0.03 -0.107,-0.059 -0.21,-0.115 0.148,-0.081 0.256,-0.148 0.371,-0.2 0.198,-0.09 0.406,-0.16 0.6,-0.257 0.584,-0.294 1.139,-0.651 1.749,-0.887 3.249,-1.257 6.582,-2.295 9.984,-3.143 0.097,-0.025 0.214,0.013 0.32,0.029 0.154,0.024 0.306,0.073 0.461,0.083 0.828,0.052 1.665,0.039 2.482,0.154 1.712,0.24 3.435,0.462 5.113,0.843 2.348,0.534 4.659,1.201 6.983,1.824 0.385,0.103 0.749,0.27 1.124,0.408 -0.012,0.036 -0.025,0.072 -0.037,0.108 -0.792,-0.168 -1.585,-0.336 -2.377,-0.503 -0.007,0.028 -0.014,0.057 -0.02,0.086 1.037,0.319 2.074,0.638 3.112,0.956 -0.004,0.015 -0.007,0.029 -0.01,0.043 -1.083,-0.171 -2.166,-0.342 -3.249,-0.514 -0.006,0.028 -0.012,0.056 -0.018,0.084 0.469,0.116 0.944,0.219 1.407,0.354 0.465,0.136 0.945,0.259 1.372,0.468 0.612,0.3 1.183,0.672 1.816,1.039 0.205,-0.652 0.389,-1.214 0.546,-1.781 0.013,-0.048 -0.145,-0.167 -0.245,-0.205 -0.262,-0.099 -0.536,-0.172 -0.805,-0.255 0.01,-0.018 0.02,-0.036 0.029,-0.054 0.386,0.045 0.771,0.09 1.152,0.134 0.167,-0.415 0.329,-0.816 0.496,-1.23 -0.093,-0.039 -0.167,-0.084 -0.247,-0.103 -1.028,-0.233 -2.051,-0.492 -3.088,-0.686 -1.581,-0.297 -3.169,-0.565 -4.76,-0.812 -1.102,-0.172 -2.214,-0.293 -3.323,-0.43 -0.561,-0.069 -1.125,-0.119 -1.688,-0.184 -0.818,-0.096 -1.636,-0.275 -2.455,-0.281 -2.345,-0.017 -4.689,0.028 -7.033,0.065 -0.58,0.01 -1.169,0.036 -1.736,0.14 -1.649,0.303 -3.297,0.616 -4.929,0.989 -0.955,0.219 -1.881,0.551 -2.814,0.849 -0.351,0.112 -0.68,0.283 -1.027,0.408 -1.517,0.547 -3.014,1.136 -4.396,1.935 -0.876,0.508 -1.712,1.073 -2.557,1.624 -0.55,0.359 -1.083,0.738 -1.624,1.108 v -2.263 c 1.362,-0.865 2.815,-1.588 4.332,-2.182 3.621,-1.42 7.387,-2.41 11.249,-3.099 0.721,-0.128 1.438,-0.273 2.156,-0.41 H 4.068 c 0.068,0.022 0.134,0.056 0.204,0.063 1.211,0.14 2.432,0.222 3.629,0.424 2.154,0.364 4.296,0.787 6.437,1.211 0.97,0.193 1.925,0.449 2.879,0.674 0.216,-0.477 0.418,-0.924 0.628,-1.385 -0.28,-0.087 -0.556,-0.173 -0.832,-0.259 0.005,-0.019 0.01,-0.037 0.015,-0.056 0.299,0.066 0.597,0.133 0.915,0.204 0.056,-0.126 0.104,-0.233 0.157,-0.353 -0.762,-0.182 -1.472,-0.353 -2.182,-0.523 h 0.522 c 0.434,0.092 0.88,0.155 1.3,0.285 0.366,0.114 0.579,0.031 0.712,-0.285"
   style="fill:#811e33;fill-rule:nonzero"
   id="path10" />
            </g>
            <g
   transform="matrix(2,0,0,2,937.714,125.438)"
   id="g16">
                <path
   d="M 0,6.735 C -0.087,6.623 -0.111,6.564 -0.156,6.538 -1.158,5.964 -1.424,4.961 -1.849,4.057 -1.934,3.877 -1.87,3.639 -1.881,3.429 -1.891,3.241 -1.892,3.05 -1.934,2.867 -1.947,2.813 -2.086,2.754 -2.168,2.753 c -0.061,0 -0.177,0.087 -0.178,0.138 -0.017,0.533 -0.215,1.076 0.16,1.586 0.177,0.241 0.296,0.521 0.416,0.793 0.319,0.727 0.88,1.198 1.77,1.465 m 10.522,-17.778 c -0.399,0.355 -0.799,0.71 -1.197,1.066 -0.934,0.836 -1.881,1.66 -2.796,2.512 -0.81,0.755 -1.53,1.58 -2.058,2.551 0.105,-0.09 0.212,-0.179 0.316,-0.271 0.107,-0.095 0.21,-0.192 0.363,-0.332 -0.101,0.353 -0.204,0.648 -0.268,0.949 -0.069,0.326 -0.328,0.564 -0.45,0.85 C 3.884,-2.437 3.392,-1.135 2.876,0.17 2.838,0.116 2.782,-0.004 2.688,-0.088 2.593,-0.172 2.461,-0.221 2.345,-0.286 2.324,-0.169 2.296,-0.052 2.286,0.065 2.282,0.118 2.349,0.188 2.329,0.224 2.025,0.763 2.511,1.077 2.758,1.436 3.596,2.655 4.739,3.586 6.08,4.319 6.96,4.8 7.847,5.271 8.712,5.772 9.065,5.976 9.384,6.236 9.689,6.5 9.768,6.569 9.751,6.746 9.755,6.874 9.782,7.829 9.811,8.785 9.82,9.74 9.821,9.922 9.779,10.129 9.68,10.283 9.122,11.149 8.55,12.009 7.958,12.856 7.857,13.002 7.65,13.104 7.469,13.181 6.714,13.502 5.95,13.806 5.173,14.124 4.731,13.569 4.733,13.038 5.228,12.385 5.545,11.967 6.475,11.629 6.993,11.75 6.976,11.436 6.928,11.122 6.948,10.812 6.993,10.16 7.285,9.616 7.873,9.226 7.923,9.192 7.99,9.164 8.014,9.118 8.058,9.034 8.077,8.939 8.106,8.849 8.004,8.849 7.893,8.824 7.804,8.855 7.682,8.898 7.577,8.983 7.406,9.085 7.257,8.716 7.118,8.373 7.005,8.091 5.12,8.423 3.474,8.101 1.997,7.093 1.761,6.931 1.585,6.677 1.428,6.438 1.285,6.22 1.111,6.092 0.858,6.195 0.634,6.287 0.585,6.473 0.649,6.715 0.789,7.247 1.183,7.604 1.643,7.859 2.241,8.19 2.875,8.538 3.542,8.676 4.335,8.84 5.181,8.791 6.003,8.83 6.143,8.837 6.389,8.787 6.406,8.828 6.488,9.021 6.569,9.245 6.538,9.443 6.46,9.931 6.35,10.419 6.189,10.889 6.13,11.061 5.891,11.182 5.717,11.342 4.964,10.945 4.24,10.562 3.513,10.183 3.455,10.153 3.37,10.134 3.308,10.148 2.566,10.32 1.871,10.173 1.197,9.896 0.516,9.616 -0.157,9.32 -0.836,9.038 -0.903,9.01 -0.992,9.029 -1.071,9.026 c 0.004,0.083 -0.028,0.194 0.018,0.243 0.18,0.19 0.118,0.348 -0.03,0.512 -0.304,0.338 -0.621,0.667 -0.902,1.02 -0.122,0.153 -0.169,0.357 -0.238,0.511 1.244,1.055 1.951,2.274 1.86,3.814 -0.01,0.174 -0.069,0.359 -0.158,0.514 -0.582,1.009 -1.52,1.647 -2.669,2.138 0,-0.211 -0.054,-0.405 0.01,-0.558 0.231,-0.561 0.131,-1.119 0.049,-1.682 C -3.166,15.302 -3.182,15.063 -3.229,14.83 -3.336,14.298 -3.392,13.747 -3.592,13.245 -3.754,12.841 -4.064,12.473 -4.366,12.134 -5.339,11.042 -6.024,9.824 -6.407,8.458 -6.483,8.186 -6.613,7.928 -6.693,7.657 -7.177,6.02 -6.626,4.583 -5.587,3.288 c 0.442,-0.55 1.048,-0.99 1.591,-1.469 0.206,-0.182 0.457,-0.326 0.33,-0.684 -0.54,0.018 -0.855,0.429 -1.218,0.617 -0.025,-0.18 -0.056,-0.359 -0.073,-0.539 -0.005,-0.052 0.025,-0.108 0.046,-0.16 0.204,-0.496 0.33,-1.039 0.636,-1.474 0.336,-0.48 0.481,-0.999 0.665,-1.517 0.413,-1.157 0.822,-2.315 1.244,-3.469 0.056,-0.155 0.178,-0.289 0.345,-0.4 -0.094,0.458 -0.189,0.917 -0.284,1.375 l 0.194,0.055 c 0.341,-0.713 0.683,-1.425 1.037,-2.165 0.03,0.072 0.053,0.125 0.094,0.222 0.077,-0.091 0.147,-0.159 0.199,-0.237 0.737,-1.101 1.471,-2.202 2.206,-3.303 0.019,-0.029 0.032,-0.061 0.052,-0.09 0.249,-0.375 0.336,-0.393 0.775,-0.122 0.078,-0.089 0.155,-0.195 0.252,-0.28 0.068,-0.059 0.164,-0.091 0.248,-0.135 -0.023,0.084 -0.021,0.185 -0.073,0.25 -0.524,0.675 -1.071,1.336 -1.586,2.017 -0.596,0.788 -1.225,1.563 -1.472,2.535 1.228,-1.483 2.456,-2.966 3.689,-4.454 0.085,0.102 0.163,0.196 0.242,0.292 -1,1.221 -2.143,2.354 -3.02,3.667 0.045,0.035 0.09,0.07 0.134,0.105 1.646,-1.656 3.292,-3.312 4.937,-4.968 h 0.522 c -0.245,0.222 -0.498,0.439 -0.734,0.669 -0.232,0.226 -0.448,0.466 -0.671,0.7 0.032,0.032 0.064,0.064 0.096,0.096 0.152,-0.05 0.304,-0.101 0.516,-0.172 -0.124,0.13 -0.248,0.204 -0.272,0.298 -0.028,0.113 0.03,0.244 0.051,0.367 0.106,-0.016 0.227,-0.008 0.314,-0.054 0.159,-0.085 0.297,-0.203 0.43,-0.298 0.075,0.123 0.149,0.243 0.225,0.367 -1.053,1.064 -2.229,2.031 -2.928,3.346 1.095,-1.044 2.189,-2.089 3.302,-3.151 0.042,0.113 0.048,0.191 0.093,0.236 0.055,0.054 0.144,0.08 0.206,0.113 -0.98,1.035 -2.093,1.873 -2.601,3.133 0.111,-0.078 0.195,-0.174 0.276,-0.272 1.144,-1.388 2.513,-2.577 3.894,-3.756 0.634,-0.541 1.268,-1.081 1.902,-1.622 z"
   style="fill:#ffffff;fill-rule:nonzero"
   id="path14" />
            </g>
            <g
   transform="matrix(2,0,0,2,978.434,125.106)"
   id="g20">
                <path
   d="m 0,6.264 c -0.159,0.562 -0.314,1.126 -0.476,1.687 -0.133,0.46 -0.231,0.934 -0.421,1.374 -0.713,1.655 -1.553,3.256 -2.579,4.768 -0.632,0.931 -1.278,1.854 -1.93,2.774 -0.194,0.274 -0.593,0.219 -0.715,-0.104 -0.183,-0.484 -0.31,-0.977 -0.15,-1.497 0.221,-0.721 0.001,-1.363 -0.433,-1.968 -0.144,-0.2 -0.249,-0.424 -0.374,-0.636 C -7.39,12.128 -7.725,11.604 -8.011,11.058 -8.32,10.469 -8.519,9.822 -8.884,9.267 -9.417,8.457 -9.393,7.559 -9.537,6.684 -9.546,6.628 -9.537,6.545 -9.573,6.521 -10,6.236 -9.821,5.823 -9.833,5.461 -9.873,4.263 -9.821,3.059 -9.934,1.868 c -0.099,-1.032 -0.364,-2.052 -0.577,-3.074 -0.344,-1.651 -0.907,-3.238 -1.72,-4.746 -0.027,-0.051 -0.051,-0.105 -0.089,-0.149 -0.332,-0.388 -0.22,-0.613 0.198,-0.907 0.054,0.053 0.109,0.105 0.212,0.204 -0.209,-0.48 0.22,-0.579 0.442,-0.751 0.241,-0.187 0.373,-0.365 0.311,-0.655 -0.013,-0.061 0.042,-0.134 0.065,-0.201 l 0.105,-0.015 c 0.197,0.461 0.394,0.922 0.59,1.383 0.016,-0.002 0.032,-0.005 0.048,-0.007 -0.064,-0.345 -0.079,-0.706 -0.203,-1.032 -0.205,-0.532 -0.019,-0.911 0.467,-1.258 1.052,2.659 1.345,5.422 1.479,8.21 0,-1.014 0.009,-2.029 -0.002,-3.043 -0.017,-1.539 -0.461,-3.024 -0.691,-4.536 -0.065,-0.426 -0.064,-0.861 -0.095,-1.292 -0.009,-0.118 -0.024,-0.236 -0.045,-0.448 0.15,0.347 0.265,0.613 0.42,0.969 -0.033,-0.25 -0.053,-0.406 -0.082,-0.629 0.294,0.469 0.547,0.874 0.8,1.28 0.018,-10e-4 0.034,-0.003 0.051,-0.005 -0.167,-0.621 -0.333,-1.243 -0.5,-1.865 0.047,-0.013 0.095,-0.026 0.142,-0.04 0.352,0.933 0.703,1.866 1.056,2.803 v -0.921 c 0.014,-0.001 0.028,-0.004 0.042,-0.006 0.119,0.511 0.262,1.017 0.352,1.532 0.307,1.783 0.35,3.582 0.291,5.38 -0.048,1.468 -0.14,2.937 -0.293,4.398 -0.176,1.679 -0.441,3.35 -0.67,5.024 -0.031,0.224 -0.101,0.446 -0.109,0.67 -0.004,0.106 0.095,0.216 0.147,0.324 0.035,10e-4 0.07,10e-4 0.105,0.002 0.276,-0.81 0.595,-1.61 0.817,-2.432 0.358,-1.323 0.698,-2.653 0.959,-3.995 0.182,-0.934 0.26,-1.891 0.311,-2.841 0.066,-1.23 0.098,-2.463 0.069,-3.694 -0.018,-0.752 -0.184,-1.501 -0.272,-2.254 -0.063,-0.542 -0.075,-1.092 -0.169,-1.63 -0.105,-0.598 -0.254,-1.192 -0.434,-1.775 -0.049,-0.161 -0.274,-0.277 -0.433,-0.427 0.091,-0.016 0.17,-0.028 0.275,-0.046 -0.024,-0.087 -0.047,-0.169 -0.069,-0.25 h 1.789 c -0.368,0.239 -0.415,0.599 -0.361,0.958 0.081,0.546 0.211,1.087 0.327,1.629 0.188,0.885 0.397,1.767 0.566,2.654 0.087,0.458 0.122,0.926 0.156,1.39 0.07,0.965 0.133,1.93 0.184,2.896 0.074,1.413 -0.418,2.759 -0.625,4.138 -0.163,1.083 -0.51,2.158 -1.028,3.167 -0.276,0.537 -0.528,1.085 -0.791,1.628 0.021,0.01 0.042,0.02 0.063,0.029 0.447,-0.637 0.895,-1.273 1.362,-1.939 -0.01,0.074 -0.013,0.119 -0.023,0.161 -0.183,0.756 -0.682,1.452 -0.505,2.277 0.012,0.057 -0.045,0.125 -0.061,0.19 -0.091,0.362 0.211,0.59 0.367,0.862 0.066,0.115 0.215,0.19 0.317,0.275 0.188,-0.443 0.392,-0.964 0.628,-1.473 1.369,-2.951 1.816,-6.054 1.8,-9.23 -0.005,-1.147 -0.062,-2.297 -0.155,-3.441 -0.066,-0.809 -0.212,-1.613 -0.356,-2.414 -0.118,-0.652 -0.285,-1.295 -0.43,-1.943 0.016,-0.006 0.033,-0.012 0.05,-0.019 l 0.857,1.784 c -0.175,-0.755 -0.424,-1.484 -0.693,-2.208 -0.031,-0.082 -0.167,-0.131 -0.256,-0.198 0.305,-0.433 -0.1,-0.555 -0.365,-0.66 0.207,-0.174 0.409,-0.344 0.611,-0.513 h 0.224 c 0.112,0.068 0.223,0.189 0.335,0.189 0.112,0 0.224,-0.121 0.335,-0.189 h 0.746 c 0.026,0.043 0.052,0.125 0.079,0.125 0.331,0.005 0.361,0.202 0.376,0.442 0.013,0.224 0.071,0.446 0.107,0.67 0.111,0.681 0.284,1.36 0.32,2.045 0.07,1.344 0.103,2.692 0.077,4.037 -0.027,1.457 -0.116,2.915 -0.221,4.37 -0.066,0.915 -0.156,1.835 -0.337,2.735 -0.198,0.984 -0.492,1.952 -0.782,2.918 -0.396,1.317 -0.791,2.638 -1.686,3.77 -0.129,0.165 -0.203,0.373 0.023,0.552 0.03,0.023 0.046,0.092 0.032,0.126 -0.112,0.269 -0.234,0.535 -0.352,0.801 0.031,0.022 0.063,0.045 0.094,0.067 0.394,-0.239 0.462,-0.721 0.772,-1.078 -0.027,0.225 -0.048,0.401 -0.069,0.578 0.039,0.012 0.078,0.023 0.117,0.035 0.086,-0.139 0.184,-0.273 0.257,-0.419 0.271,-0.533 0.56,-1.059 0.793,-1.606 C -1.451,8.085 -0.943,6.876 -0.481,5.652 -0.263,5.074 -0.157,4.461 0,3.864 Z"
   style="fill:#ffffff;fill-rule:nonzero"
   id="path18" />
            </g>
            <g
   transform="matrix(2,0,0,2,849.352,115.687)"
   id="g24">
                <path
   d="M 0,1.786 C 0.541,1.416 1.075,1.037 1.625,0.679 2.47,0.128 3.305,-0.438 4.181,-0.945 c 1.382,-0.8 2.879,-1.389 4.396,-1.935 0.347,-0.125 0.676,-0.297 1.027,-0.409 0.933,-0.298 1.859,-0.63 2.815,-0.848 1.631,-0.373 3.279,-0.687 4.928,-0.989 0.567,-0.104 1.156,-0.131 1.736,-0.14 2.344,-0.038 4.689,-0.082 7.033,-0.065 0.819,0.006 1.637,0.185 2.456,0.28 0.562,0.065 1.126,0.116 1.688,0.185 1.108,0.136 2.22,0.257 3.322,0.429 1.591,0.248 3.179,0.516 4.761,0.812 1.036,0.195 2.059,0.453 3.087,0.687 0.081,0.018 0.154,0.063 0.248,0.103 -0.168,0.414 -0.329,0.815 -0.497,1.229 -0.38,-0.044 -0.766,-0.089 -1.151,-0.133 -0.01,0.018 -0.02,0.035 -0.03,0.053 0.269,0.084 0.543,0.156 0.805,0.256 0.1,0.038 0.258,0.156 0.245,0.204 -0.157,0.568 -0.341,1.129 -0.546,1.781 -0.633,-0.366 -1.203,-0.739 -1.816,-1.039 -0.427,-0.209 -0.907,-0.332 -1.372,-0.467 -0.463,-0.135 -0.937,-0.238 -1.406,-0.355 0.005,-0.028 0.011,-0.055 0.017,-0.083 1.083,0.171 2.166,0.342 3.249,0.514 0.003,-0.015 0.007,-0.029 0.01,-0.043 -1.037,-0.319 -2.075,-0.638 -3.112,-0.956 0.007,-0.029 0.013,-0.058 0.02,-0.087 0.793,0.168 1.585,0.336 2.377,0.503 0.012,-0.036 0.025,-0.072 0.037,-0.108 C 38.134,-1.703 37.769,-1.87 37.384,-1.974 35.06,-2.596 32.749,-3.264 30.401,-3.797 28.723,-4.179 27,-4.401 25.289,-4.641 c -0.817,-0.114 -1.655,-0.101 -2.483,-0.154 -0.155,-0.01 -0.307,-0.058 -0.461,-0.082 -0.106,-0.017 -0.223,-0.054 -0.32,-0.03 -3.402,0.848 -6.735,1.886 -9.984,3.144 -0.61,0.236 -1.165,0.593 -1.749,0.887 -0.193,0.096 -0.402,0.167 -0.6,0.256 -0.115,0.053 -0.223,0.12 -0.371,0.2 0.103,0.057 0.156,0.086 0.211,0.115 C 8.251,0.481 6.953,1.227 5.718,2.053 4.8,2.666 3.959,3.377 3.093,4.054 2.616,4.427 2.162,4.826 1.691,5.205 1.005,5.758 0.488,6.435 0,7.134 Z"
   style="fill:#ffffff;fill-rule:nonzero"
   id="path22" />
            </g>
            <g
   transform="matrix(2,0,0,2,892.078,170.738)"
   id="g28">
                <path
   d="m 0,2.774 c -0.023,0.03 -0.047,0.06 -0.07,0.09 0.6,0.398 1.201,0.795 1.802,1.193 C 1.752,4.031 1.771,4.006 1.791,3.98 1.194,3.578 0.597,3.176 0,2.774 M 5.561,6.313 C 5.539,6.352 5.517,6.392 5.495,6.432 6.504,6.783 7.513,7.135 8.522,7.487 8.536,7.453 8.55,7.42 8.564,7.386 7.563,7.028 6.562,6.67 5.561,6.313 M -3.479,2.62 c -0.023,0.028 -0.046,0.057 -0.069,0.086 0.996,0.531 1.993,1.063 2.989,1.595 0.026,-0.043 0.053,-0.085 0.079,-0.128 -1,-0.518 -2,-1.036 -2.999,-1.553 M 7.479,8.475 C 4.161,7.146 1.087,5.389 -2.087,3.811 -5.141,2.293 -7.931,0.402 -10.541,-1.708 c -0.177,-0.143 -0.329,-0.322 -0.528,-0.43 -0.316,-0.171 -0.317,-0.372 -0.193,-0.647 0.413,-0.915 0.813,-1.836 1.216,-2.751 0.101,-0.056 0.226,-0.126 0.399,-0.221 0.216,0.251 0.454,0.523 0.686,0.801 0.383,0.458 0.764,0.918 1.141,1.379 0.231,0.282 0.455,0.569 0.68,0.855 0.029,0.036 0.077,0.087 0.067,0.118 -0.135,0.422 0.25,0.422 0.501,0.548 0.788,0.401 1.51,0.872 1.992,1.6 0.126,0.192 0.286,0.365 0.449,0.57 0.133,-0.073 0.256,-0.141 0.407,-0.225 0.326,0.277 0.659,0.56 0.992,0.844 C -2.715,0.718 -2.7,0.703 -2.683,0.688 -2.914,0.504 -3.145,0.32 -3.375,0.135 c 0.035,-0.04 0.071,-0.081 0.107,-0.121 0.325,0.214 0.651,0.427 0.973,0.643 0.079,0.053 0.137,0.132 0.218,0.18 2.388,1.418 4.788,2.812 7.345,3.966 1.913,0.864 3.8,1.788 5.836,2.388 1.285,0.378 2.601,0.669 3.907,0.985 0.216,0.053 0.453,0.033 0.677,0.101 -0.851,0.254 -1.691,0.066 -2.541,-0.039 0.223,0.079 0.445,0.158 0.667,0.237 z"
   style="fill:#ffffff;fill-rule:nonzero"
   id="path26" />
            </g>
            <g
   transform="matrix(2,0,0,2,849.352,187.688)"
   id="g32">
                <path
   d="m 0,-18.513 c 0.643,1.03 1.273,2.067 1.933,3.088 0.522,0.809 1.105,1.586 1.613,2.402 0.309,0.497 0.501,1.055 0.793,1.563 0.323,0.56 0.654,1.125 1.067,1.628 0.326,0.396 0.449,0.748 0.193,1.191 -0.045,0.079 -0.07,0.17 -0.092,0.258 -0.055,0.212 0.007,0.366 0.275,0.36 0.295,-0.006 0.589,-0.05 0.882,-0.045 0.114,10e-4 0.264,0.062 0.335,0.143 0.511,0.582 1.017,1.169 1.505,1.768 0.844,1.035 1.651,2.097 2.518,3.116 0.724,0.851 1.509,1.659 2.277,2.478 0.192,0.204 0.424,0.376 0.638,0.563 h -2.46 C 11.343,-0.132 11.218,-0.272 11.074,-0.393 9.278,-1.903 7.567,-3.496 6.096,-5.276 4.382,-7.349 2.752,-9.482 1.124,-11.615 0.678,-12.199 0.371,-12.874 0,-13.508 Z"
   style="fill:#ffffff;fill-rule:nonzero"
   id="path30" />
            </g>
            <g
   transform="matrix(2,0,0,2,936.996,160.123)"
   id="g36">
                <path
   d="M 0,13.782 C 0.717,13.643 1.445,13.537 2.151,13.36 6.259,12.326 10.065,10.73 13.387,8.23 15.847,6.379 18.043,4.313 19.686,1.79 20.063,1.211 20.376,0.598 20.719,0 V 1.097 C 20.646,1.137 20.543,1.16 20.506,1.218 20.264,1.596 20.054,1.992 19.799,2.362 19.449,2.872 19.07,3.364 18.703,3.864 18.88,3.776 19.018,3.656 19.131,3.52 19.664,2.875 20.19,2.225 20.719,1.577 v 1.509 c -0.776,0.838 -1.516,1.707 -2.336,2.507 -0.81,0.79 -1.701,1.512 -2.556,2.263 l 0.086,0.087 c 0.982,-0.811 1.981,-1.604 2.938,-2.439 0.654,-0.571 1.247,-1.199 1.868,-1.801 v 1.371 c -0.705,0.569 -1.418,1.13 -2.113,1.709 -1.695,1.414 -3.466,2.74 -5.42,3.839 -2.218,1.248 -4.568,2.239 -7.051,2.96 -0.141,0.041 -0.264,0.132 -0.396,0.2 z"
   style="fill:#ffffff;fill-rule:nonzero"
   id="path34" />
            </g>
            <g
   transform="matrix(2,0,0,2,972.024,143.983)"
   id="g40">
                <path
   d="m 0,-20.316 c -0.202,0.17 -0.404,0.34 -0.611,0.513 0.264,0.105 0.669,0.227 0.364,0.661 0.09,0.066 0.226,0.116 0.257,0.198 0.269,0.723 0.518,1.453 0.693,2.208 l -0.857,-1.785 c -0.017,0.007 -0.033,0.013 -0.05,0.02 0.145,0.647 0.312,1.291 0.429,1.942 0.144,0.801 0.291,1.606 0.357,2.414 0.092,1.145 0.149,2.294 0.155,3.442 0.015,3.175 -0.432,6.279 -1.8,9.229 -0.236,0.509 -0.44,1.03 -0.628,1.474 -0.102,-0.086 -0.251,-0.16 -0.317,-0.275 -0.156,-0.273 -0.458,-0.5 -0.367,-0.862 0.016,-0.065 0.073,-0.133 0.061,-0.191 -0.177,-0.825 0.322,-1.521 0.504,-2.277 0.011,-0.042 0.014,-0.086 0.024,-0.16 -0.467,0.665 -0.915,1.302 -1.363,1.939 -0.021,-0.01 -0.041,-0.02 -0.063,-0.03 0.263,-0.543 0.515,-1.091 0.791,-1.628 0.518,-1.008 0.866,-2.084 1.029,-3.166 0.207,-1.379 0.698,-2.726 0.624,-4.138 -0.05,-0.966 -0.113,-1.931 -0.184,-2.896 -0.034,-0.465 -0.068,-0.933 -0.155,-1.39 -0.17,-0.888 -0.378,-1.769 -0.567,-2.654 -0.115,-0.542 -0.245,-1.083 -0.327,-1.63 -0.053,-0.359 -0.006,-0.718 0.362,-0.958 z"
   style="fill:#811e33;fill-rule:nonzero"
   id="path38" />
            </g>
            <g
   transform="matrix(2,0,0,2,884.827,114.733)"
   id="g44">
                <path
   d="m 0,-5.691 c -0.719,0.137 -1.436,0.282 -2.156,0.41 -3.862,0.689 -7.628,1.679 -11.249,3.099 -1.518,0.594 -2.97,1.317 -4.333,2.182 v -2.949 c 0.554,-0.272 1.101,-0.556 1.662,-0.815 1.405,-0.648 2.817,-1.285 4.226,-1.927 z"
   style="fill:#ffffff;fill-rule:nonzero"
   id="path42" />
            </g>
            <g
   transform="matrix(2,0,0,2,887.212,168.097)"
   id="g48">
                <path
   d="M 0,9.795 C -0.463,9.525 -0.924,9.251 -1.391,8.986 -4.149,7.423 -6.631,5.556 -8.791,3.33 -9.435,2.666 -10.085,2.007 -10.744,1.356 -10.839,1.263 -11.003,1.231 -11.065,1.203 -10.614,0.811 -10.124,0.385 -9.682,0 c 0.12,0.09 0.336,0.25 0.549,0.414 0.045,0.035 0.081,0.082 0.112,0.129 0.172,0.254 0.295,0.552 0.519,0.758 1.348,1.246 2.682,2.507 4.091,3.693 1.782,1.499 3.783,2.739 5.828,3.915 C 1.936,9.208 2.46,9.5 2.981,9.795 Z"
   style="fill:#ffffff;fill-rule:nonzero"
   id="path46" />
            </g>
            <g
   transform="matrix(2,0,0,2,849.352,181.106)"
   id="g52">
                <path
   d="m 0,-5.006 v -3.291 c 0.139,0.184 0.272,0.374 0.419,0.553 2.063,2.512 4.102,5.041 6.206,7.524 0.859,1.013 1.859,1.925 2.802,2.877 0.221,0.223 0.472,0.423 0.709,0.634 H 7.9 C 7.357,2.826 6.786,2.386 6.279,1.891 5.319,0.955 4.378,0.002 3.465,-0.972 2.717,-1.77 2.016,-2.605 1.304,-3.432 0.859,-3.949 0.434,-4.481 0,-5.006"
   style="fill:#ffffff;fill-rule:nonzero"
   id="path50" />
            </g>
            <g
   transform="matrix(2,0,0,2,978.202,184.093)"
   id="g56">
                <path
   d="m 0,-4.428 c -0.381,0.299 -0.761,0.598 -1.142,0.898 0.02,0.021 0.04,0.042 0.059,0.062 0.365,-0.316 0.842,-0.514 1.083,-0.96 m -1.499,0.313 c 0.645,-0.285 1.537,-1.103 1.486,-1.375 -0.497,0.46 -0.988,0.914 -1.486,1.375 m -8.372,5.912 h -3.801 c 0.038,-0.023 0.072,-0.053 0.113,-0.067 0.998,-0.346 2.011,-0.659 2.993,-1.038 3.549,-1.372 6.697,-3.304 9.436,-5.798 0.413,-0.375 0.83,-0.746 1.246,-1.119 v 3.017 c -0.04,-0.064 -0.079,-0.127 -0.126,-0.203 -0.078,0.052 -0.159,0.102 -0.236,0.158 -1.654,1.196 -3.407,2.252 -5.285,3.122 -1.435,0.665 -2.892,1.287 -4.34,1.928"
   style="fill:#ffffff;fill-rule:nonzero"
   id="path54" />
            </g>
            <g
   transform="matrix(2,0,0,2,978.434,119.185)"
   id="g60">
                <path
   d="m 0,6.825 c -0.157,0.597 -0.263,1.211 -0.481,1.788 -0.462,1.224 -0.97,2.433 -1.484,3.639 -0.233,0.546 -0.522,1.073 -0.793,1.606 -0.073,0.145 -0.171,0.28 -0.257,0.419 -0.039,-0.011 -0.078,-0.023 -0.117,-0.035 0.021,-0.177 0.042,-0.353 0.069,-0.578 -0.31,0.357 -0.378,0.838 -0.772,1.078 -0.031,-0.022 -0.063,-0.045 -0.094,-0.067 0.118,-0.267 0.24,-0.532 0.352,-0.801 0.014,-0.034 -0.002,-0.103 -0.032,-0.126 -0.226,-0.179 -0.152,-0.387 -0.023,-0.552 0.895,-1.132 1.29,-2.453 1.686,-3.77 0.29,-0.966 0.584,-1.935 0.782,-2.918 0.181,-0.9 0.271,-1.82 0.337,-2.735 0.105,-1.455 0.194,-2.912 0.221,-4.37 C -0.58,-1.942 -0.613,-3.29 -0.683,-4.634 -0.719,-5.319 -0.892,-5.998 -1.003,-6.679 -1.039,-6.903 -1.097,-7.125 -1.11,-7.35 -1.125,-7.589 -1.155,-7.786 -1.486,-7.791 -1.513,-7.792 -1.539,-7.873 -1.565,-7.917 H 0 Z"
   style="fill:#811e33;fill-rule:nonzero"
   id="path58" />
            </g>
            <g
   transform="matrix(2,0,0,2,849.352,187.688)"
   id="g64">
                <path
   d="m 0,-8.297 c 0.434,0.525 0.859,1.057 1.304,1.574 0.712,0.827 1.413,1.662 2.161,2.46 0.913,0.974 1.854,1.927 2.814,2.863 C 6.786,-0.905 7.357,-0.465 7.9,0 H 5.739 C 5.343,-0.307 4.903,-0.575 4.562,-0.926 3.573,-1.942 2.606,-2.977 1.667,-4.033 1.077,-4.697 0.553,-5.411 0,-6.103 Z"
   style="fill:#811e33;fill-rule:nonzero"
   id="path62" />
            </g>
            <g
   transform="matrix(2,0,0,2,978.434,157.521)"
   id="g68">
                <path
   d="m 0,-0.344 c -0.425,0.548 -0.82,1.12 -1.283,1.641 -0.928,1.045 -1.893,2.062 -2.844,3.089 -0.029,0.032 -0.08,0.047 -0.12,0.071 L -4.254,4.449 C -4.199,4.307 -4.094,4.162 -4.101,4.022 -4.11,3.869 -4.193,3.702 -4.294,3.575 -4.489,3.33 -4.719,3.109 -4.888,2.927 c 0.937,-1.042 1.878,-2.012 2.723,-3.049 0.715,-0.877 1.342,-1.819 1.96,-2.759 0.154,-0.235 0.121,-0.575 0.126,-0.879 -1.386,2.336 -3.074,4.459 -4.91,6.534 -0.063,-0.073 -0.11,-0.12 -0.147,-0.171 -0.033,-0.046 -0.057,-0.098 -0.048,-0.082 1.211,-1.573 2.423,-3.093 3.567,-4.654 0.528,-0.72 0.925,-1.521 1.382,-2.284 0.077,-0.129 0.157,-0.256 0.235,-0.384 z"
   style="fill:#ffffff;fill-rule:nonzero"
   id="path66" />
            </g>
            <g
   transform="matrix(2,0,0,2,930.736,108.095)"
   id="g72">
                <path
   d="m 0,-2.372 c 0.71,0.171 1.42,0.341 2.182,0.523 -0.053,0.12 -0.101,0.227 -0.157,0.353 C 1.707,-1.567 1.409,-1.633 1.11,-1.7 1.105,-1.681 1.1,-1.663 1.095,-1.644 1.371,-1.558 1.647,-1.472 1.927,-1.385 1.717,-0.923 1.515,-0.477 1.299,0 0.345,-0.225 -0.61,-0.481 -1.58,-0.674 c -2.141,-0.424 -4.283,-0.847 -6.437,-1.211 -1.197,-0.202 -2.418,-0.284 -3.629,-0.423 -0.07,-0.008 -0.136,-0.042 -0.204,-0.064 z"
   style="fill:#ffffff;fill-rule:nonzero"
   id="path70" />
            </g>
            <g
   transform="matrix(2,0,0,2,869.623,160.671)"
   id="g76">
                <path
   d="M 0,13.508 C -0.237,13.297 -0.487,13.098 -0.709,12.874 -1.652,11.922 -2.652,11.01 -3.51,9.997 -5.615,7.515 -7.654,4.985 -9.717,2.473 -9.864,2.294 -9.996,2.105 -10.136,1.92 V 0 c 0.371,0.634 0.678,1.309 1.124,1.893 1.628,2.133 3.258,4.266 4.972,6.34 1.472,1.78 3.182,3.372 4.978,4.882 0.144,0.121 0.27,0.262 0.404,0.393 z"
   style="fill:#811e33;fill-rule:nonzero"
   id="path74" />
            </g>
            <g
   transform="matrix(2,0,0,2,978.434,187.687)"
   id="g80">
                <path
   d="m 0,-4.731 v 3.703 C -0.646,-0.685 -1.292,-0.343 -1.938,0 h -1.938 c 0.196,-0.113 0.388,-0.231 0.587,-0.338 0.774,-0.414 1.549,-0.826 2.324,-1.238 -0.016,-0.028 -0.032,-0.055 -0.047,-0.083 -0.231,0.117 -0.46,0.236 -0.692,0.349 -0.897,0.438 -1.795,0.874 -2.693,1.31 h -2.907 c 0.027,-0.022 0.05,-0.05 0.08,-0.064 2.099,-0.975 4.097,-2.099 5.951,-3.43 C -0.788,-3.842 -0.126,-4.06 0,-4.731"
   style="fill:#ffffff;fill-rule:nonzero"
   id="path78" />
            </g>
            <g
   transform="matrix(2,0,0,2,849.352,187.687)"
   id="g84">
                <path
   d="m 0,-6.102 c 0.553,0.692 1.077,1.406 1.667,2.07 0.939,1.056 1.906,2.091 2.895,3.107 C 4.903,-0.574 5.343,-0.306 5.739,0 H 2.757 C 1.838,-0.708 0.919,-1.417 0,-2.125 Z"
   style="fill:#ffffff;fill-rule:nonzero"
   id="path82" />
            </g>
            <g
   transform="matrix(2,0,0,2,958.162,114.651)"
   id="g88">
                <path
   d="m 0,-5.65 c -0.634,0.541 -1.268,1.081 -1.902,1.623 -1.381,1.178 -2.751,2.368 -3.894,3.755 -0.081,0.098 -0.165,0.195 -0.276,0.272 0.508,-1.26 1.621,-2.097 2.601,-3.133 -0.063,-0.033 -0.151,-0.059 -0.206,-0.113 -0.045,-0.045 -0.051,-0.123 -0.093,-0.236 -1.113,1.062 -2.208,2.107 -3.302,3.151 0.699,-1.315 1.875,-2.282 2.928,-3.346 -0.076,-0.123 -0.15,-0.244 -0.225,-0.367 -0.134,0.095 -0.271,0.213 -0.43,0.298 -0.086,0.046 -0.208,0.038 -0.314,0.054 -0.021,-0.123 -0.079,-0.254 -0.051,-0.366 0.023,-0.095 0.148,-0.169 0.272,-0.299 -0.212,0.071 -0.364,0.122 -0.516,0.172 -0.032,-0.032 -0.064,-0.063 -0.097,-0.095 0.224,-0.235 0.44,-0.475 0.672,-0.701 0.236,-0.23 0.489,-0.447 0.734,-0.669 z"
   style="fill:#811e33;fill-rule:nonzero"
   id="path86" />
            </g>
            <g
   transform="matrix(2,0,0,2,978.434,186.317)"
   id="g92">
                <path
   d="m 0,-7.337 c -0.415,0.373 -0.833,0.744 -1.246,1.12 -2.739,2.493 -5.887,4.425 -9.436,5.797 -0.982,0.38 -1.995,0.693 -2.993,1.038 -0.041,0.014 -0.075,0.044 -0.113,0.067 h -1.192 c 0.132,-0.068 0.255,-0.159 0.397,-0.2 2.482,-0.72 4.833,-1.712 7.05,-2.96 1.954,-1.099 3.725,-2.425 5.42,-3.839 0.695,-0.579 1.408,-1.139 2.113,-1.708 z"
   style="fill:#811e33;fill-rule:nonzero"
   id="path90" />
            </g>
            <g
   transform="matrix(2,0,0,2,978.434,186.733)"
   id="g96">
                <path
   d="m 0,-4.254 c -0.126,0.671 -0.788,0.889 -1.273,1.237 -1.854,1.331 -3.852,2.455 -5.951,3.43 -0.03,0.014 -0.053,0.042 -0.08,0.064 h -2.683 c 1.448,-0.641 2.905,-1.263 4.34,-1.928 1.878,-0.87 3.631,-1.926 5.285,-3.122 0.077,-0.056 0.158,-0.106 0.236,-0.158 0.047,0.076 0.086,0.139 0.126,0.203 z"
   style="fill:#811e33;fill-rule:nonzero"
   id="path94" />
            </g>
            <g
   transform="matrix(2,0,0,2,849.352,106.37)"
   id="g100">
                <path
   d="m 0,-0.892 v -0.617 h 1.416 c -0.16,0.076 -0.32,0.153 -0.476,0.228 0.291,0.216 0.538,0.069 0.789,-0.058 0.118,-0.06 0.239,-0.114 0.358,-0.17 H 4.472 C 4.458,-1.492 4.448,-1.466 4.43,-1.457 2.953,-0.765 1.477,-0.074 0,0.617 V -0.549 C 0.406,-0.544 0.249,-0.944 0.45,-1.093 0.3,-1.026 0.15,-0.959 0,-0.892"
   style="fill:#ffffff;fill-rule:nonzero"
   id="path98" />
            </g>
            <g
   transform="matrix(2,0,0,2,849.352,104.586)"
   id="g104">
                <path
   d="M 0,1.508 C 1.477,0.817 2.953,0.126 4.43,-0.566 4.448,-0.575 4.458,-0.6 4.472,-0.617 H 5.888 C 4.478,0.024 3.067,0.661 1.661,1.31 1.1,1.569 0.553,1.853 0,2.125 Z"
   style="fill:#811e33;fill-rule:nonzero"
   id="path102" />
            </g>
            <g
   transform="matrix(2,0,0,2,849.352,187.688)"
   id="g108">
                <path
   d="M 0,-2.126 C 0.919,-1.418 1.838,-0.709 2.757,0 H 0 Z"
   style="fill:#811e33;fill-rule:nonzero"
   id="path106" />
            </g>
            <g
   transform="matrix(2,0,0,2,978.434,174.775)"
   id="g112">
                <path
   d="m 0,-3.623 c -0.621,0.602 -1.214,1.23 -1.868,1.801 -0.957,0.835 -1.956,1.628 -2.938,2.439 L -4.892,0.53 c 0.855,-0.751 1.746,-1.472 2.556,-2.263 0.82,-0.8 1.56,-1.668 2.336,-2.507 z"
   style="fill:#811e33;fill-rule:nonzero"
   id="path110" />
            </g>
            <g
   transform="matrix(2,0,0,2,978.434,187.689)"
   id="g116">
                <path
   d="M 0,-0.892 V 0 h -1.64 z"
   style="fill:#ffffff;fill-rule:nonzero"
   id="path114" />
            </g>
            <g
   transform="matrix(2,0,0,2,978.434,166.89)"
   id="g120">
                <path
   d="m 0,-1.806 c -0.529,0.648 -1.055,1.297 -1.588,1.942 -0.113,0.137 -0.25,0.257 -0.428,0.344 0.367,-0.499 0.747,-0.991 1.097,-1.501 0.254,-0.37 0.464,-0.766 0.706,-1.144 0.037,-0.058 0.14,-0.081 0.213,-0.121 z"
   style="fill:#811e33;fill-rule:nonzero"
   id="path118" />
            </g>
            <g
   transform="matrix(2,0,0,2,969.64,184.369)"
   id="g124">
                <path
   d="M 0,1.659 C 0.898,1.223 1.796,0.787 2.693,0.349 2.925,0.236 3.154,0.117 3.385,0 3.4,0.028 3.417,0.055 3.432,0.083 2.657,0.495 1.882,0.906 1.108,1.321 0.909,1.428 0.717,1.546 0.521,1.659 Z"
   style="fill:#811e33;fill-rule:nonzero"
   id="path122" />
            </g>
            <g
   transform="matrix(2,0,0,2,935.804,104.149)"
   id="g128">
                <path
   d="m 0,-0.399 c -0.133,0.316 -0.346,0.399 -0.712,0.285 -0.42,-0.13 -0.866,-0.193 -1.3,-0.285 z"
   style="fill:#ffffff;fill-rule:nonzero"
   id="path126" />
            </g>
            <g
   transform="matrix(-1.75694,0.955602,0.955602,1.75694,975.154,188.249)"
   id="g132">
                <path
   d="m -2.001,-0.246 h 1.867 l 0.262,-0.143 c -0.732,0.007 -1.463,0.015 -2.194,0.023 z"
   style="fill:#811e33;fill-rule:nonzero"
   id="path130" />
            </g>
            <g
   transform="matrix(-0.38993,-1.96162,-1.96162,0.38993,851.719,102.757)"
   id="g136">
                <path
   d="m -0.468,-0.828 c -0.031,0.128 -0.061,0.257 -0.097,0.384 -0.075,0.27 -0.171,0.541 0.097,0.786 0.043,-0.169 0.088,-0.34 0.131,-0.512 z"
   style="fill:#811e33;fill-rule:nonzero"
   id="path134" />
            </g>
            <g
   transform="matrix(2,0,0,2,849.352,104.88)"
   id="g140">
                <path
   d="M 0,-0.147 C 0.15,-0.214 0.3,-0.281 0.45,-0.348 0.249,-0.199 0.406,0.201 0,0.196 Z"
   style="fill:#811e33;fill-rule:nonzero"
   id="path138" />
            </g>
            <g
   transform="matrix(2,0,0,2,973.813,103.729)"
   id="g144">
                <path
   d="M 0,-0.189 C -0.112,-0.121 -0.223,0 -0.335,0 -0.447,0 -0.559,-0.121 -0.671,-0.189 Z"
   style="fill:#811e33;fill-rule:nonzero"
   id="path142" />
            </g>
            <g
   transform="matrix(2,0,0,2,892.822,135.42)"
   id="g148">
                <path
   d="M 0,4.322 C -0.533,4.362 -1.02,4.398 -1.521,4.435 -1.525,4.412 -1.547,4.366 -1.541,4.325 -1.398,3.446 -1.931,2.863 -2.618,2.398 -2.961,2.167 -2.897,1.879 -2.939,1.598 -2.947,1.537 -2.791,1.434 -2.691,1.387 c 0.487,-0.225 0.893,-0.526 1.155,-0.975 0.286,-0.49 0.229,-0.938 -0.195,-1.341 -0.543,0.106 -0.552,0.11 -0.336,0.564 0.143,0.3 0.057,0.573 -0.138,0.795 -0.217,0.248 -0.499,0.448 -0.733,0.653 -0.31,-0.58 -0.58,-1.096 -0.87,-1.601 -0.018,-0.031 -0.203,0.02 -0.306,0.033 0.197,0.537 0.396,1.053 0.571,1.576 0.038,0.113 0.042,0.303 -0.03,0.362 -0.075,0.06 -0.263,0.012 -0.399,-0.005 -0.07,-0.009 -0.139,-0.081 -0.202,-0.075 -0.121,0.012 -0.237,0.061 -0.356,0.093 0.055,0.09 0.084,0.219 0.167,0.263 0.792,0.413 1.335,1.049 1.825,1.726 0.318,0.441 0.545,0.909 0.291,1.462 -0.08,0.173 0.26,0.419 0.498,0.353 C -0.89,5.032 -0.024,5.084 0.813,5.299 1.698,5.527 2.317,6.127 2.111,7.06 2.095,7.134 2.046,7.202 2.008,7.281 1.027,7.009 0.046,7.042 -0.945,7.123 -1.335,7.155 -1.735,7.097 -2.13,7.067 -2.202,7.062 -2.28,7.004 -2.337,6.953 -3.191,6.177 -4.223,5.63 -5.248,5.082 -5.58,4.905 -5.623,4.649 -5.599,4.375 -5.566,4.022 -5.498,3.705 -5.794,3.382 -5.956,3.206 -5.916,2.883 -6.016,2.644 -6.16,2.302 -6.35,1.976 -6.518,1.642 -6.575,1.531 -6.619,1.414 -6.678,1.304 -6.779,1.111 -6.849,0.887 -7.004,0.741 -7.124,0.629 -7.376,0.538 -7.529,0.576 c -0.255,0.063 -0.343,0.303 -0.233,0.53 0.165,0.339 0.301,0.724 0.571,0.979 0.524,0.496 0.481,1.061 0.414,1.653 -0.034,0.293 -0.084,0.584 -0.12,0.877 -0.062,0.49 0.311,0.659 0.711,0.814 0.351,0.136 0.417,0.318 0.222,0.622 -0.143,0.22 0.023,0.287 0.182,0.395 0.416,0.282 0.822,0.577 1.214,0.886 0.101,0.079 0.19,0.231 0.189,0.349 -0.001,0.277 0.167,0.284 0.387,0.277 0.861,-0.025 1.725,-0.085 2.585,-0.055 1.611,0.057 2.707,1.145 2.699,2.629 -0.002,0.299 -0.053,0.599 -0.09,1 C -0.185,10.495 -1.699,9.963 -3.325,9.682 -4.303,9.513 -5.284,9.366 -6.264,9.211 -6.735,9.137 -7.213,9.089 -7.677,8.988 -7.895,8.941 -8.097,8.808 -8.292,8.694 -8.507,8.57 -8.541,8.386 -8.562,8.146 -8.608,7.619 -8.732,7.096 -8.854,6.577 -9.112,5.471 -9.383,4.367 -9.668,3.265 -9.703,3.129 -9.85,3.016 -9.944,2.892 c -0.1,0.178 -0.296,0.364 -0.282,0.534 0.047,0.54 0.165,1.076 0.269,1.612 0.193,1.002 0.355,2.012 0.615,3 0.103,0.39 0.067,0.883 0.524,1.148 0.535,0.311 0.977,0.775 1.662,0.849 0.105,0.012 0.227,0.104 0.291,0.191 0.32,0.432 0.616,0.879 0.935,1.312 0.12,0.164 0.257,0.327 0.421,0.451 0.871,0.659 1.594,1.437 1.842,2.458 0.169,0.696 0.1,1.429 -0.44,2.037 -0.109,0.123 -0.205,0.256 -0.292,0.366 -0.513,-0.415 -0.982,-0.889 -1.549,-1.225 -0.573,-0.339 -0.961,-0.758 -1.33,-1.279 -0.626,-0.885 -1.36,-1.71 -2.107,-2.515 -0.349,-0.377 -0.834,-0.647 -1.211,-0.93 -0.115,-0.136 -0.215,-0.23 -0.282,-0.341 -0.043,-0.072 -0.052,-0.168 -0.05,-0.254 0.017,-0.799 0.056,-1.598 0.054,-2.397 -10e-4,-0.959 -0.053,-1.916 -0.049,-2.874 0.002,-0.486 0.121,-0.974 0.107,-1.459 -0.016,-0.597 -0.089,-1.196 -0.196,-1.786 -0.045,-0.253 -0.069,-0.43 0.128,-0.65 1.004,-1.12 2.029,-2.228 2.956,-3.4 0.636,-0.804 1.044,-1.732 1.342,-2.703 0.254,-0.831 0.51,-1.689 0.965,-2.432 0.484,-0.791 1.155,-1.5 1.831,-2.171 0.73,-0.727 1.553,-1.376 2.352,-2.04 0.16,-0.133 0.399,-0.184 0.664,-0.299 -0.077,0.209 -0.125,0.34 -0.206,0.558 1.015,-0.672 2.089,-0.954 3.185,-1.181 -0.553,0.262 -1.113,0.512 -1.654,0.795 -0.132,0.07 -0.515,0.136 -0.183,0.419 0.004,0.005 -0.065,0.083 -0.094,0.12 1.122,-0.247 2.237,-0.492 3.352,-0.738 0.011,0.04 0.022,0.08 0.034,0.12 -0.289,0.084 -0.583,0.153 -0.863,0.256 -0.28,0.103 -0.545,0.241 -0.786,0.433 0.599,-0.115 1.199,-0.23 1.799,-0.344 10e-4,0.01 0.002,0.021 0.004,0.032 -0.567,0.207 -1.133,0.414 -1.699,0.621 l 0.043,0.132 c 1.711,-0.448 3.453,-0.567 5.217,-0.452 -1.611,0.116 -3.231,0.2 -4.615,1.115 0.712,-0.144 1.419,-0.325 2.139,-0.42 0.719,-0.095 1.451,-0.103 2.182,-0.116 -1.242,0.334 -2.538,0.529 -3.521,1.403 2.56,-0.995 5.228,-1.099 7.937,-0.902 -2.599,0.132 -5.161,0.416 -7.531,1.528 2.731,-0.676 5.509,-0.99 8.33,-0.982 -2.912,0.326 -5.849,0.538 -8.558,1.722 0.844,-0.177 1.689,-0.353 2.533,-0.53 0.006,0.021 0.012,0.041 0.017,0.061 C 5.984,-8.17 5.68,-8.085 5.377,-8 c 0.005,0.02 0.01,0.039 0.015,0.059 0.872,-0.151 1.743,-0.301 2.615,-0.452 0.009,0.028 0.018,0.055 0.027,0.083 -0.681,0.307 -1.38,0.582 -2.037,0.926 -1.014,0.532 -2.002,1.105 -2.993,1.672 -0.378,0.216 -0.727,0.474 -1.1,0.697 C 1.12,-4.547 0.736,-3.894 0.69,-3.03 0.642,-2.138 0.965,-1.307 1.105,-0.447 1.202,0.152 1.416,0.757 1.376,1.347 1.328,2.064 1.029,2.749 0.551,3.355 0.311,3.659 0.165,4.026 0,4.322"
   style="fill:#ffffff;fill-rule:nonzero"
   id="path146" />
            </g>
            <g
   transform="matrix(2,0,0,2,862.66,115.783)"
   id="g152">
                <path
   d="M 0,22.974 C -0.443,22.433 -0.909,21.907 -1.325,21.348 -2.588,19.65 -3.781,17.912 -4.522,15.952 -4.879,15.009 -5.157,14.048 -5.247,13.045 -5.292,12.538 -5.459,12.037 -5.462,11.533 -5.464,11.029 -5.368,10.516 -5.251,10.021 -4.848,8.324 -3.888,6.872 -2.81,5.482 -2.02,4.464 -0.942,3.72 0.183,3.054 1.193,2.455 2.236,1.886 3.325,1.424 4.001,1.138 4.789,1.077 5.527,0.914 6.622,0.673 7.716,0.427 8.814,0.192 9.179,0.114 9.552,0.064 9.921,0 9.943,0.034 9.965,0.067 9.987,0.1 9.723,0.362 9.453,0.62 9.197,0.888 9.068,1.022 8.912,1.161 8.857,1.323 8.543,2.235 8.25,3.152 7.963,4.072 7.85,4.43 7.578,4.495 7.226,4.491 7.073,4.489 6.898,4.526 6.77,4.599 5.653,5.24 4.546,5.896 3.432,6.541 3.282,6.628 3.104,6.672 2.945,6.747 2.709,6.859 2.448,6.949 2.25,7.104 1.606,7.611 1.105,8.228 0.657,8.891 c -0.624,0.924 -1.248,1.853 -1.591,2.898 -0.447,1.357 -0.51,2.72 0.134,4.058 0.229,0.475 0.393,0.977 0.641,1.443 0.142,0.268 0.375,0.502 0.597,0.725 0.136,0.137 0.19,0.24 0.149,0.439 -0.127,0.611 -0.155,1.243 -0.319,1.844 -0.192,0.707 -0.299,1.394 -0.09,2.111 0.045,0.152 -0.035,0.334 -0.057,0.503 C 0.081,22.933 0.04,22.953 0,22.974"
   style="fill:#ffffff;fill-rule:nonzero"
   id="path150" />
            </g>
            <g
   transform="matrix(2,0,0,2,901.812,149.577)"
   id="g156">
                <path
   d="M 0,-1.293 C -0.306,-0.392 -0.267,0.516 0.292,1.387 0.194,0.487 0.096,-0.415 0,-1.293 M 10.561,-8.589 C 10.405,-8.204 10.26,-7.848 10.108,-7.473 9.673,-7.656 9.227,-7.815 8.812,-8.025 7.845,-8.513 6.795,-8.462 5.746,-8.502 4.959,-8.531 4.286,-8.284 3.634,-7.95 c -1.112,0.568 -2.097,1.299 -2.992,2.124 -0.225,0.207 -0.339,0.519 -0.494,0.787 -0.427,0.74 -0.807,1.497 -0.874,2.364 0.039,-0.067 0.095,-0.13 0.117,-0.202 0.368,-1.173 1.04,-2.121 2.098,-2.91 0.804,-0.6 1.601,-1.168 2.534,-1.579 1.203,-0.53 2.436,-0.532 3.676,-0.172 0.746,0.217 1.487,0.472 2.005,1.067 0.023,0.026 0.063,0.042 0.081,0.07 0.148,0.235 0.293,0.471 0.459,0.74 C 10.142,-5.557 10,-5.412 9.902,-5.311 9.304,-5.487 8.728,-5.731 8.124,-5.82 6.551,-6.052 5.029,-5.902 3.622,-5.127 c -0.527,0.29 -1.108,0.497 -1.635,0.788 -1.07,0.593 -1.61,1.532 -1.907,2.612 -0.009,0.032 -0.007,0.068 -0.003,0.102 0.002,0.02 0.017,0.039 0.068,0.15 0.059,-0.753 0.582,-1.178 1.018,-1.641 0.191,-0.203 0.468,-0.345 0.724,-0.487 0.514,-0.286 1.022,-0.591 1.567,-0.82 0.543,-0.227 1.124,-0.38 1.694,-0.549 1.234,-0.367 2.484,-0.494 3.737,-0.102 0.377,0.119 0.754,0.292 1.065,0.517 0.194,0.14 0.268,0.423 0.389,0.645 0.033,0.06 0.034,0.133 0.059,0.197 0.197,0.51 0.145,0.689 -0.368,0.999 -0.495,0.299 -1.009,0.571 -1.502,0.848 0.802,0.09 1.661,0.346 2.51,-0.135 0.122,0.199 0.235,0.383 0.352,0.574 -1,0.481 -2.063,0.396 -3.103,0.242 C 7.578,-1.292 6.952,-1.541 6.867,-2.384 6.849,-2.568 6.756,-2.745 6.679,-2.981 c 0.493,0.225 0.868,0.438 1.274,0.574 0.653,0.22 1.766,-0.245 2.062,-0.821 C 10.178,-3.546 10.022,-3.76 9.638,-3.754 9.531,-3.752 9.413,-3.758 9.318,-3.796 8.688,-4.045 8.009,-3.941 7.359,-4.039 6.14,-4.222 5.125,-3.711 4.047,-3.313 2.163,-2.618 1.649,-1.134 1.298,0.463 1.233,0.758 1.331,1.089 1.645,1.402 1.438,0.156 1.932,-0.84 2.572,-1.8 2.443,-1.178 2.314,-0.555 2.184,0.068 2.18,0.09 2.173,0.113 2.174,0.135 2.209,1.27 2.462,2.291 3.417,3.143 c 0.958,0.855 2.084,1.368 3.305,1.756 0.938,0.298 1.921,0.412 2.91,0.434 0.755,0.016 1.515,0.015 2.267,-0.044 0.731,-0.058 1.455,-0.2 2.192,-0.307 0,0.18 -0.003,0.393 0.001,0.607 0.009,0.486 0.555,0.863 1.039,0.666 1.126,-0.458 2.206,-0.988 2.859,-2.02 0.049,-0.078 0.116,-0.153 0.139,-0.238 0.13,-0.48 0.445,-0.743 0.984,-0.833 0.199,-0.033 0.399,-0.192 0.545,-0.338 0.832,-0.83 1.651,-1.671 2.466,-2.516 0.179,-0.185 0.324,-0.399 0.51,-0.631 0.058,0.024 0.147,0.06 0.235,0.096 -0.014,0.043 -0.014,0.067 -0.027,0.081 -0.444,0.478 -0.784,0.994 -0.701,1.659 0.042,0.342 -0.098,0.568 -0.414,0.767 -0.27,0.17 -0.493,0.415 -0.705,0.651 -0.746,0.834 -1.73,1.374 -2.716,1.919 C 17.647,5.218 17.025,5.64 16.362,6 16.083,6.151 15.747,6.218 15.43,6.302 14.829,6.463 14.198,6.555 13.624,6.774 12.751,7.106 11.849,7.315 10.924,7.388 10.13,7.451 9.323,7.383 8.522,7.367 8.364,7.364 8.206,7.337 8.048,7.321 8.042,7.356 8.037,7.39 8.032,7.425 8.591,7.504 9.151,7.582 9.681,7.656 9.187,8.051 8.597,7.869 8.027,7.741 6.036,7.294 4.162,6.612 2.52,5.444 0.862,4.265 -0.351,2.785 -1.194,1.028 -1.483,0.425 -1.575,-0.211 -1.746,-0.836 c -0.392,-1.428 0.323,-2.597 0.815,-3.83 0.224,-0.561 0.42,-1.142 0.732,-1.661 0.276,-0.461 0.675,-0.865 1.059,-1.261 0.245,-0.252 0.545,-0.468 0.85,-0.661 0.759,-0.482 1.61,-0.77 2.522,-0.873 1.966,-0.222 3.895,0.02 5.806,0.438 0.177,0.038 0.356,0.065 0.523,0.095"
   style="fill:#ffffff;fill-rule:nonzero"
   id="path154" />
            </g>
            <g
   transform="matrix(2,0,0,2,969.939,181.46)"
   id="g160">
                <path
   d="m 0,-7.513 c -0.289,0.293 -0.549,0.617 -0.872,0.874 -1.189,0.944 -2.406,1.859 -3.599,2.8 -0.685,0.539 -1.305,1.154 -2.021,1.654 -2.029,1.418 -4.396,2.151 -6.836,2.682 -2.007,0.437 -4.052,0.528 -6.119,0.447 -1.685,-0.067 -3.332,-0.326 -4.995,-0.541 -2.629,-0.341 -5.15,-0.972 -7.56,-1.965 -2.778,-1.143 -5.387,-2.55 -7.554,-4.554 -0.509,-0.471 -0.944,-1.019 -1.35,-1.571 -0.163,-0.221 -0.154,-0.548 -0.23,-0.851 0.486,0.032 0.774,0.202 1.091,0.449 1.046,0.815 2.126,1.599 3.245,2.326 2.48,1.612 5.111,2.986 7.938,4.017 1.548,0.564 3.158,0.938 4.825,1.016 1.669,0.078 3.345,0.171 5.013,0.119 2.571,-0.08 5.055,-0.627 7.472,-1.442 2.087,-0.702 4.076,-1.574 5.868,-2.792 0.352,-0.239 0.624,-0.58 0.926,-0.88 0.481,-0.477 0.965,-0.952 1.429,-1.442 0.154,-0.165 0.309,-0.159 0.513,-0.146 0.624,0.038 1.252,0.085 1.875,0.06 0.315,-0.013 0.623,-0.173 0.934,-0.268 L 0,-7.513"
   style="fill:#ffffff;fill-rule:nonzero"
   id="path158" />
            </g>
            <g
   transform="matrix(2,0,0,2,955.44,173.319)"
   id="g164">
                <path
   d="m 0,-4.992 c 0.39,0.272 0.725,0.631 1.146,0.766 0.535,0.172 0.924,-0.102 1.014,-0.674 0.149,0.245 0.29,0.494 0.45,0.734 0.157,0.236 0.333,0.461 0.5,0.691 0.066,-0.038 0.132,-0.075 0.197,-0.113 -0.138,0.12 -0.28,0.235 -0.413,0.359 -0.314,0.292 -0.617,0.594 -0.935,0.882 -0.407,0.368 -0.764,0.832 -1.25,1.069 -1.359,0.666 -2.612,1.537 -4.146,1.883 -1.967,0.444 -3.914,0.979 -5.898,1.341 -2.453,0.447 -4.955,0.406 -7.448,0.361 -0.652,-0.012 -1.306,-0.005 -1.954,-0.062 -1.74,-0.156 -3.395,-0.617 -4.996,-1.252 -2.389,-0.948 -4.497,-2.27 -6.385,-3.923 -1.246,-1.091 -2.379,-2.257 -3.374,-3.542 -0.148,-0.191 -0.241,-0.419 -0.361,-0.632 0.463,-0.276 0.496,-0.281 0.824,0.098 0.825,0.951 1.607,1.936 2.472,2.855 0.466,0.493 1.054,0.893 1.611,1.307 1.195,0.885 2.446,1.686 3.88,2.228 1.542,0.583 3.118,1.028 4.775,1.221 1.261,0.146 2.516,0.326 3.777,0.465 1.553,0.171 3.098,0.167 4.66,-0.03 1.33,-0.167 2.658,-0.312 3.952,-0.643 1.956,-0.5 3.63,-1.468 5.093,-2.731 1.003,-0.865 1.921,-1.812 2.809,-2.658"
   style="fill:#ffffff;fill-rule:nonzero"
   id="path162" />
            </g>
            <g
   transform="matrix(2,0,0,2,889.357,171.401)"
   id="g168">
                <path
   d="m 0,-6.594 c 0.069,-0.179 0.138,-0.357 0.238,-0.617 0.792,0.384 1.581,0.766 2.369,1.148 L 2.548,-5.954 0.999,-6.678 c -0.023,0.021 -0.046,0.041 -0.069,0.062 0.213,0.279 0.396,0.585 0.65,0.829 0.151,0.144 0.408,0.205 0.628,0.277 0.295,0.097 0.118,0.17 -0.012,0.262 3.644,2.597 7.464,4.808 12.301,4.894 -0.139,-0.06 -0.273,-0.129 -0.416,-0.179 -0.147,-0.05 -0.302,-0.08 -0.444,-0.172 0.297,0.023 0.593,0.041 0.889,0.072 1.339,0.137 2.673,0.086 4.004,-0.071 1.453,-0.172 2.914,-0.313 4.353,-0.559 2.228,-0.381 4.353,-1.06 6.342,-2.077 1.062,-0.544 1.836,-1.376 2.617,-2.201 0.057,-0.06 0.106,-0.127 0.162,-0.187 0.032,-0.033 0.072,-0.06 0.124,-0.102 0.032,0.094 0.036,0.219 0.089,0.241 0.408,0.164 0.265,0.461 0.126,0.653 -0.328,0.452 -0.705,0.876 -1.092,1.288 -0.29,0.308 -0.612,0.594 -0.946,0.863 -1.362,1.1 -2.942,1.839 -4.699,2.211 -1.465,0.309 -2.951,0.538 -4.434,0.762 C 19.074,0.504 16.956,0.617 14.835,0.52 13.666,0.467 12.503,0.294 11.341,0.155 10.525,0.058 9.712,-0.059 8.903,-0.195 7.227,-0.476 5.802,-1.217 4.442,-2.147 2.997,-3.135 1.831,-4.336 0.777,-5.654 0.529,-5.966 0.268,-6.27 0,-6.594"
   style="fill:#ffffff;fill-rule:nonzero"
   id="path166" />
            </g>
            <g
   transform="matrix(2,0,0,2,897.132,163.461)"
   id="g172">
                <path
   d="m 0,-3.423 c -0.544,-0.734 -0.325,-1.75 -1.193,-2.364 0.399,-0.152 0.467,0.043 0.551,0.201 0.59,1.107 1.285,2.153 2.114,3.123 0.069,0.081 0.142,0.157 0.245,0.217 L 0.431,-4.42 c 0.016,-0.012 0.031,-0.024 0.047,-0.036 0.183,0.219 0.363,0.44 0.549,0.656 1.391,1.627 2.806,3.235 4.834,4.238 0.669,0.331 1.384,0.58 2.082,0.858 0.109,0.043 0.241,0.052 0.363,0.054 1.328,0.023 2.658,0.091 3.983,0.047 1.12,-0.037 2.234,-0.216 3.352,-0.31 1.733,-0.146 3.362,-0.646 4.994,-1.164 1.781,-0.565 3.236,-1.589 4.635,-2.684 0.498,-0.388 0.856,-0.937 1.238,-1.439 0.316,-0.417 0.76,-0.581 1.347,-0.623 -0.223,0.286 -0.466,0.562 -0.663,0.863 -0.112,0.171 -0.139,0.386 -0.223,0.575 -0.08,0.182 -0.155,0.374 -0.279,0.529 -0.535,0.669 -1.03,1.376 -1.651,1.971 -0.443,0.423 -1.045,0.717 -1.608,1.021 -1.83,0.988 -3.78,1.698 -5.884,2.009 C 15.986,2.376 14.413,2.426 12.833,2.386 12.447,2.377 12.059,2.508 11.671,2.51 11.085,2.514 10.49,2.516 9.917,2.421 9.221,2.307 8.542,2.103 7.861,1.919 6.493,1.549 5.141,1.124 3.759,0.804 2.802,0.582 2.082,0.045 1.357,-0.492 0.616,-1.04 -0.067,-1.654 -0.705,-2.181 c 0.169,-0.523 0.307,-0.951 0.45,-1.393 0.052,0.031 0.153,0.091 0.255,0.151"
   style="fill:#ffffff;fill-rule:nonzero"
   id="path170" />
            </g>
            <g
   transform="matrix(2,0,0,2,911.835,150.205)"
   id="g176">
                <path
   d="M 0,0.803 C 0.153,0.297 -0.229,0.19 -0.416,-0.024 -0.449,-0.005 -0.482,0.014 -0.516,0.032 -0.361,0.264 -0.206,0.495 0,0.803 M 8.51,1.471 C 8.588,1.869 8.667,2.197 8.702,2.529 8.709,2.599 8.569,2.721 8.471,2.756 7.863,2.97 7.249,3.165 6.559,3.393 6.692,3.448 6.778,3.515 6.862,3.513 7.358,3.498 7.857,3.493 8.348,3.434 8.81,3.379 8.854,3.379 8.932,3.785 8.955,3.908 8.979,4.031 9.011,4.203 8.746,4.245 8.488,4.305 8.226,4.327 7.268,4.408 6.307,4.548 5.35,4.53 4.321,4.511 3.295,4.372 2.389,3.816 1.61,3.338 0.768,2.946 -0.008,2.464 -0.721,2.021 -1.153,1.33 -1.524,0.646 c -0.555,-1.023 -0.213,-2.876 0.717,-3.589 0.478,-0.367 1.168,-0.502 1.766,-0.733 0.118,-0.045 0.256,-0.05 0.36,-0.069 -0.248,0.197 -0.503,0.399 -0.758,0.601 -0.009,0.007 -0.019,0.015 -0.025,0.025 -0.141,0.229 -0.313,0.448 -0.408,0.692 -0.061,0.155 -0.063,0.37 0.004,0.521 0.176,0.395 0.354,0.805 0.624,1.145 0.317,0.398 0.68,0.799 1.116,1.075 C 3.014,1.036 4.236,1.652 5.635,1.825 6.238,1.899 6.866,1.847 7.476,1.793 7.791,1.765 8.093,1.606 8.51,1.471"
   style="fill:#ffffff;fill-rule:nonzero"
   id="path174" />
            </g>
            <g
   transform="matrix(2,0,0,2,862.119,147.376)"
   id="g180">
                <path
   d="M 0,11.205 C 0.204,10.619 0.409,10.033 0.61,9.447 0.94,8.491 1.357,7.551 1.29,6.518 1.277,6.315 1.269,6.106 1.211,5.91 1.044,5.346 1.388,4.853 1.452,4.322 1.507,3.874 1.616,3.431 1.656,2.982 1.704,2.468 1.948,2.082 2.33,1.706 2.907,1.139 3.406,0.506 3.916,-0.074 3.932,0.123 3.967,0.408 3.975,0.692 4.005,1.867 4.022,3.042 4.057,4.217 4.062,4.39 4.136,4.562 4.173,4.711 4.072,4.756 3.941,4.787 3.865,4.864 3.837,4.892 3.97,5.027 3.977,5.117 3.994,5.321 4.012,5.534 3.969,5.731 3.793,6.529 3.623,7.328 3.394,8.113 3.292,8.461 3.114,8.823 2.864,9.096 2.295,9.719 1.685,10.315 1.04,10.871 0.799,11.079 0.415,11.147 0.097,11.279 0.064,11.255 0.032,11.23 0,11.205"
   style="fill:#ffffff;fill-rule:nonzero"
   id="path178" />
            </g>
            <g
   transform="matrix(2,0,0,2,952.721,120.226)"
   id="g184">
                <path
   d="M 0,6.921 C -0.213,6.673 -0.386,6.471 -0.585,6.24 -0.618,6.312 -0.645,6.372 -0.687,6.463 -1.685,5.837 -2.716,5.239 -3.37,4.295 -3.626,3.926 -3.701,3.381 -3.668,2.927 -3.588,1.791 -3.075,0.776 -2.406,-0.209 -0.597,1.618 0.984,3.514 1.072,6.189 0.876,6.128 0.721,6.08 0.579,6.035 V 7.13 C 0.304,6.46 0.071,5.891 -0.163,5.321 -0.348,5.872 0.243,6.305 0,6.921"
   style="fill:#ffffff;fill-rule:nonzero"
   id="path182" />
            </g>
            <g
   transform="matrix(2,0,0,2,957.344,153.779)"
   id="g188">
                <path
   d="M 0,0.487 C -0.015,0.316 -0.053,0.144 -0.038,-0.024 -0.015,-0.296 0.018,-0.572 0.097,-0.833 0.148,-0.999 0.293,-1.14 0.392,-1.294 0.443,-1.374 0.487,-1.457 0.535,-1.538 0.423,-1.563 0.307,-1.619 0.203,-1.605 c -0.099,0.014 -0.186,0.102 -0.3,0.171 -0.119,-0.126 -0.273,-0.24 -0.35,-0.387 -0.059,-0.111 -0.076,-0.292 -0.016,-0.395 0.427,-0.732 0.878,-1.452 1.333,-2.195 0.171,0.329 0.354,0.714 0.568,1.083 0.362,0.622 0.759,1.226 1.111,1.852 0.144,0.256 0.22,0.547 0.304,0.828 C 2.87,-0.593 2.785,-0.512 2.746,-0.444 2.264,0.395 1.755,1.222 1.308,2.076 0.851,2.949 0.617,3.887 0.544,4.898 0.052,4.74 -0.26,4.43 -0.458,4.038 -0.768,3.427 -0.846,2.769 -0.776,2.102 -0.759,1.943 -0.671,1.766 -0.557,1.644 -0.292,1.362 0.014,1.112 0.293,0.84 0.39,0.746 0.457,0.626 0.537,0.518 0.397,0.491 0.257,0.465 0.117,0.439 0.078,0.455 0.039,0.471 0,0.487"
   style="fill:#ffffff;fill-rule:nonzero"
   id="path186" />
            </g>
            <g
   transform="matrix(2,0,0,2,925.952,129.355)"
   id="g192">
                <path
   d="m 0,-1.544 c -0.13,0.338 -0.243,0.634 -0.366,0.954 -1.206,-0.679 -2.512,-0.995 -3.857,-1.198 -1.264,-0.19 -2.532,-0.195 -3.813,-0.13 -1.404,0.07 -2.749,0.37 -4.066,0.763 -0.504,0.15 -0.97,0.519 -1.354,0.878 -0.477,0.446 -0.852,0.985 -1.327,1.551 -0.073,-0.378 -0.146,-0.672 -0.179,-0.968 -0.011,-0.096 0.067,-0.209 0.127,-0.302 0.466,-0.712 1.242,-1.086 1.989,-1.461 1.33,-0.667 2.78,-1.044 4.28,-1.18 1.216,-0.11 2.449,-0.181 3.668,-0.131 1.71,0.069 3.362,0.436 4.898,1.224"
   style="fill:#ffffff;fill-rule:nonzero"
   id="path190" />
            </g>
            <g
   transform="matrix(2,0,0,2,922.265,142.22)"
   id="g196">
                <path
   d="m 0,-5.699 c -0.843,-0.362 -1.695,-0.384 -2.523,-0.528 -0.439,-0.076 -0.861,-0.259 -1.326,-0.235 -1.805,0.091 -3.569,0.377 -5.244,1.022 -0.606,0.233 -1.098,0.601 -1.326,1.208 -0.144,0.386 -0.269,0.79 -0.492,1.136 -0.89,1.379 -1.277,2.928 -1.819,4.424 -0.018,0.051 -0.044,0.1 -0.07,0.157 -0.342,-0.066 -0.454,-0.189 -0.338,-0.524 0.256,-0.74 0.44,-1.501 0.682,-2.246 0.206,-0.636 0.39,-1.287 0.694,-1.884 0.415,-0.817 0.722,-1.697 1.417,-2.377 0.488,-0.477 1.031,-0.898 1.725,-1.073 0.552,-0.139 1.129,-0.195 1.697,-0.276 2.029,-0.289 4.013,-0.169 5.925,0.57 0.515,0.199 0.693,0.314 0.998,0.626"
   style="fill:#ffffff;fill-rule:nonzero"
   id="path194" />
            </g>
            <g
   transform="matrix(2,0,0,2,968.916,154.624)"
   id="g200">
                <path
   d="M 0,5.545 C -1.122,5.782 -2.024,5.464 -2.852,4.902 -3.452,4.494 -3.713,3.924 -3.918,3.26 -4.198,2.356 -3.798,1.656 -3.416,0.911 -3.282,0.65 -3.189,0.37 -3.074,0.1 c 0.043,-0.099 0.099,-0.195 0.171,-0.337 0.054,0.125 0.062,0.22 0.117,0.257 0.416,0.281 0.31,0.686 0.314,1.064 0.017,1.452 0.622,2.684 1.653,3.758 0.115,0.119 0.217,0.249 0.342,0.359 0.124,0.108 0.27,0.196 0.477,0.344"
   style="fill:#ffffff;fill-rule:nonzero"
   id="path198" />
            </g>
            <g
   transform="matrix(2,0,0,2,905.932,119.887)"
   id="g204">
                <path
   d="M 0,0.927 C 0.14,0.849 0.251,0.773 0.374,0.721 1.948,0.063 3.59,-0.427 5.299,-0.626 c 0.789,-0.093 1.625,0.064 2.427,0.185 1.046,0.158 2.07,0.419 2.992,0.933 0.634,0.353 0.635,0.352 0.41,0.979 C 10.718,1.646 10.418,1.397 10.09,1.262 8.255,0.505 6.335,0.167 4.321,0.216 2.941,0.249 1.612,0.481 0.321,0.92 0.253,0.943 0.182,0.963 0.111,0.978 0.094,0.982 0.069,0.96 0,0.927"
   style="fill:#ffffff;fill-rule:nonzero"
   id="path202" />
            </g>
            <g
   transform="matrix(0.961954,1.75347,1.75347,-0.961954,939.831,148.751)"
   id="g208">
                <path
   d="M 1.333,-1.349 C 1.508,-0.873 0.744,1.471 0.277,2.06 0.628,2.297 0.973,2.528 1.333,2.77 2.229,1.316 2.628,-0.32 2.791,-2.149 Z"
   style="fill:#ffffff;fill-rule:nonzero"
   id="path206" />
            </g>
            <g
   transform="matrix(2,0,0,2,861.517,153.513)"
   id="g212">
                <path
   d="M 0,6.361 C -0.533,5.654 -1.07,4.949 -1.599,4.239 -1.85,3.903 -2.11,3.569 -2.323,3.213 -2.467,2.973 -2.535,2.695 -2.639,2.435 -2.679,2.336 -2.714,2.234 -2.769,2.142 -3.081,1.616 -3.409,1.096 -3.709,0.564 -3.8,0.402 -3.82,0.207 -3.798,0 -3.37,0.538 -2.942,1.076 -2.514,1.613 -1.542,2.831 -0.57,4.047 0.398,5.268 0.445,5.325 0.486,5.423 0.464,5.483 0.364,5.77 0.241,6.049 0.126,6.331 0.084,6.341 0.042,6.351 0,6.361"
   style="fill:#ffffff;fill-rule:nonzero"
   id="path210" />
            </g>
            <g
   transform="matrix(2,0,0,2,938.089,149.109)"
   id="g216">
                <path
   d="m 0,-0.239 c 0.215,-0.217 0.437,-0.427 0.641,-0.653 0.155,-0.172 0.308,-0.221 0.545,-0.126 0.22,0.09 0.467,0.127 0.744,0.197 -0.477,0.732 -1.155,1.293 -1.833,1.86 -0.357,-0.631 -0.704,-1.241 -1.062,-1.874 0.047,-0.07 0.092,-0.185 0.18,-0.254 0.107,-0.083 0.25,-0.128 0.377,-0.189 0.061,0.117 0.152,0.229 0.179,0.352 0.051,0.222 0.063,0.452 0.091,0.678 0.046,0.003 0.092,0.006 0.138,0.009"
   style="fill:#ffffff;fill-rule:nonzero"
   id="path214" />
            </g>
            <g
   transform="matrix(2,0,0,2,956.223,150.451)"
   id="g220">
                <path
   d="M 0,1.999 C -0.178,1.86 -0.371,1.734 -0.532,1.579 -1.033,1.094 -1.043,0.91 -0.614,0.384 -0.504,0.248 -0.372,0.127 -0.251,0 -0.224,0.004 -0.198,0.002 -0.178,0.011 0.205,0.188 0.348,0.458 0.231,0.85 0.179,1.022 0.175,1.207 0.154,1.386 0.134,1.565 0.119,1.745 0.102,1.925 0.068,1.949 0.034,1.974 0,1.999"
   style="fill:#ffffff;fill-rule:nonzero"
   id="path218" />
            </g>
            <g
   transform="matrix(2,0,0,2,884.841,158.204)"
   id="g224">
                <path
   d="m 0,-1.13 c 0.635,0.149 1.291,0.304 2.019,0.475 C 1.67,-0.4 1.489,0 1.006,-0.062 0.384,-0.142 -0.09,-0.385 0,-1.13"
   style="fill:#ffffff;fill-rule:nonzero"
   id="path222" />
            </g>
            <g
   transform="matrix(0.145726,1.99468,1.99468,-0.145726,918.886,141.339)"
   id="g228">
                <path
   d="M 0.805,-1.045 C 0.725,-0.924 0.636,-0.791 0.49,-0.571 0.578,-0.164 0.69,0.349 0.805,0.89 1.305,0.636 1.32,0.171 1.341,-0.268 1.361,-0.684 1.166,-0.967 0.805,-1.045"
   style="fill:#ffffff;fill-rule:nonzero"
   id="path226" />
            </g>
            <g
   transform="matrix(-0.507804,1.93446,1.93446,0.507804,928.619,114.64)"
   id="g232">
                <path
   d="M 1.401,-1.839 C 1.113,-0.865 1.081,0.006 1.233,0.877 1.247,0.954 1.343,1.01 1.401,1.076 1.432,0.996 1.494,0.914 1.491,0.837 1.468,-0.02 1.436,-0.876 1.401,-1.839"
   style="fill:#ffffff;fill-rule:nonzero"
   id="path230" />
            </g>
            <g
   transform="matrix(2,0,0,2,898.9,109.462)"
   id="g236">
                <path
   d="M 0,-0.312 C -0.47,-0.201 -0.94,-0.091 -1.438,0.026 -1.324,-0.19 -0.725,-0.338 0,-0.312"
   style="fill:#ffffff;fill-rule:nonzero"
   id="path234" />
            </g>
            <g
   transform="matrix(2,0,0,2,937.714,130.944)"
   id="g240">
                <path
   d="M 0,3.982 C -0.89,3.715 -1.451,3.244 -1.77,2.517 -1.89,2.245 -2.009,1.965 -2.186,1.724 -2.561,1.214 -2.363,0.671 -2.346,0.138 -2.345,0.087 -2.229,0 -2.168,0 c 0.082,0.001 0.221,0.06 0.234,0.114 0.042,0.183 0.043,0.374 0.053,0.562 0.011,0.21 -0.053,0.448 0.032,0.628 0.425,0.904 0.691,1.907 1.693,2.481 C -0.111,3.811 -0.087,3.87 0,3.982"
   style="fill:#811e33;fill-rule:nonzero"
   id="path238" />
            </g>
            <g
   transform="matrix(-0.997834,1.7333,1.7333,0.997834,890.968,175.957)"
   id="g244">
                <path
   d="M 1.467,-2.529 C 1.418,-1.404 1.368,-0.28 1.318,0.845 1.367,0.843 1.418,0.842 1.467,0.84 1.503,-0.289 1.54,-1.417 1.576,-2.546 1.54,-2.541 1.504,-2.535 1.467,-2.529"
   style="fill:#811e33;fill-rule:nonzero"
   id="path242" />
            </g>
            <g
   transform="matrix(-0.736933,1.85928,1.85928,0.736933,908.311,182.239)"
   id="g248">
                <path
   d="M 1.464,-2.168 C 1.428,-1.106 1.392,-0.044 1.356,1.019 1.392,1.018 1.428,1.018 1.464,1.018 1.51,-0.051 1.554,-1.118 1.599,-2.186 1.554,-2.18 1.509,-2.174 1.464,-2.168"
   style="fill:#811e33;fill-rule:nonzero"
   id="path246" />
            </g>
            <g
   transform="matrix(-1.19048,1.6071,1.6071,1.19048,895.855,176.95)"
   id="g252">
                <path
   d="m 0.857,-1.715 c -0.032,0.719 -0.064,1.438 -0.097,2.157 0.033,0 0.064,-0.001 0.097,-0.001 0.038,-0.72 0.077,-1.439 0.114,-2.158 -0.038,0 -0.076,0.002 -0.114,0.002"
   style="fill:#811e33;fill-rule:nonzero"
   id="path250" />
            </g>
            <g
   transform="matrix(2,0,0,2,975.204,173.113)"
   id="g256">
                <path
   d="M 0,1.375 C 0.498,0.915 0.989,0.46 1.486,0 1.538,0.273 0.646,1.09 0,1.375"
   style="fill:#811e33;fill-rule:nonzero"
   id="path254" />
            </g>
            <g
   transform="matrix(2,0,0,2,978.202,177.157)"
   id="g260">
                <path
   d="M 0,-0.96 C -0.241,-0.514 -0.718,-0.316 -1.083,0 -1.102,-0.02 -1.122,-0.041 -1.142,-0.062 -0.761,-0.362 -0.381,-0.661 0,-0.96"
   style="fill:#811e33;fill-rule:nonzero"
   id="path258" />
            </g>
            <g
   transform="matrix(2,0,0,2,901.812,152.351)"
   id="g264">
                <path
   d="M 0,-2.68 C 0.096,-1.802 0.194,-0.9 0.292,0 -0.267,-0.871 -0.306,-1.779 0,-2.68"
   style="fill:#811e33;fill-rule:nonzero"
   id="path262" />
            </g>
            <g
   transform="matrix(2,0,0,2,911.835,150.157)"
   id="g268">
                <path
   d="M 0,0.827 C -0.206,0.519 -0.361,0.288 -0.516,0.056 -0.482,0.038 -0.449,0.019 -0.416,0 -0.229,0.214 0.153,0.321 0,0.827"
   style="fill:#811e33;fill-rule:nonzero"
   id="path266" />
            </g>
        </g>
    </g>
</svg>
