<?xml version="1.0" encoding="UTF-8" standalone="no"?>
<svg
   width="35.466869"
   height="42.545567"
   viewBox="0 0 35.466869 42.545567"
   version="1.1"
   xml:space="preserve"
   style="clip-rule:evenodd;fill-rule:evenodd;stroke-linejoin:round;stroke-miterlimit:2"
   id="svg154"
   sodipodi:docname="barbarian.svg"
   inkscape:version="1.1.1 (3bf5ae0d25, 2021-09-20)"
   xmlns:inkscape="http://www.inkscape.org/namespaces/inkscape"
   xmlns:sodipodi="http://sodipodi.sourceforge.net/DTD/sodipodi-0.dtd"
   xmlns="http://www.w3.org/2000/svg"
   xmlns:svg="http://www.w3.org/2000/svg"><defs
   id="defs158" /><sodipodi:namedview
   id="namedview156"
   pagecolor="#ffffff"
   bordercolor="#666666"
   borderopacity="1.0"
   inkscape:pageshadow="2"
   inkscape:pageopacity="0.0"
   inkscape:pagecheckerboard="0"
   showgrid="false"
   inkscape:zoom="5.9220193"
   inkscape:cx="24.738183"
   inkscape:cy="47.28117"
   inkscape:window-width="1920"
   inkscape:window-height="1012"
   inkscape:window-x="-8"
   inkscape:window-y="-8"
   inkscape:window-maximized="1"
   inkscape:current-layer="svg154" />
    
<g
   style="clip-rule:evenodd;fill-rule:evenodd;stroke-linejoin:round;stroke-miterlimit:2"
   id="g836"
   transform="matrix(0.6,0,0,0.6,-2.5117391e-4,1.651577e-4)"><g
     transform="translate(-14.1779,-826.748)"
     id="g760">
        <g
   transform="translate(-84.5,-2.5)"
   id="g758">
            <g
   transform="matrix(2,0,0,2,142.423,829.225)"
   id="g628">
                <path
   d="M 0,35.466 C -0.074,35.29 -0.141,35.167 -0.18,35.035 -0.388,34.332 -0.557,33.621 -0.572,32.881 -0.585,32.2 -0.654,31.519 -0.606,30.837 c 0.01,-0.142 -0.042,-0.167 -0.188,-0.1 -0.62,0.286 -1.252,0.535 -1.903,0.74 -1.781,0.561 -3.605,0.757 -5.462,0.631 -1.689,-0.115 -3.313,-0.518 -4.864,-1.201 -0.455,-0.201 -0.359,-0.206 -0.497,0.249 -0.019,0.06 -0.025,0.125 -0.049,0.183 -0.034,0.078 -0.032,0.225 -0.108,0.221 -0.126,-0.006 -0.077,-0.154 -0.097,-0.239 -0.054,-0.234 -0.094,-0.471 -0.136,-0.707 -0.015,-0.077 -0.037,-0.146 -0.11,-0.187 -0.328,-0.186 -0.655,-0.374 -0.985,-0.561 -0.079,0.089 -0.044,0.177 -0.03,0.256 0.17,1.063 0.233,2.134 0.248,3.207 0.008,0.556 -0.033,1.111 -0.213,1.645 -0.02,0.058 -0.051,0.113 -0.079,0.168 -0.004,0.009 -0.021,0.011 -0.045,0.021 -0.011,-0.371 -0.092,-0.73 -0.167,-1.085 -0.088,-0.419 -0.255,-0.818 -0.454,-1.2 -0.251,-0.482 -0.542,-0.939 -0.857,-1.383 -0.387,-0.546 -0.775,-1.091 -1.144,-1.65 -0.349,-0.528 -0.63,-1.092 -0.772,-1.717 -0.095,-0.418 -0.226,-0.829 -0.257,-1.26 -0.008,-0.118 -0.072,-0.214 -0.13,-0.312 -0.159,-0.272 -0.303,-0.552 -0.425,-0.845 -0.057,-0.139 -0.141,-0.268 -0.222,-0.395 -1.124,-1.76 -1.846,-3.674 -2.155,-5.737 -0.68,-4.554 0.754,-9.143 3.997,-12.501 0.166,-0.171 0.392,-0.305 0.48,-0.527 0.082,-0.206 0.079,-0.445 0.119,-0.669 0.076,-0.422 0.157,-0.843 0.232,-1.266 0.031,-0.173 0.119,-0.294 0.275,-0.382 0.341,-0.195 0.705,-0.336 1.066,-0.487 0.134,-0.056 0.246,-0.125 0.311,-0.258 0.148,-0.303 0.39,-0.53 0.64,-0.741 0.453,-0.384 0.934,-0.734 1.457,-1.019 0.144,-0.078 0.295,-0.144 0.445,-0.209 0.178,-0.077 0.315,-0.189 0.427,-0.354 0.216,-0.317 0.52,-0.547 0.829,-0.769 0.079,-0.056 0.163,-0.056 0.253,-0.052 0.468,0.026 0.935,0.071 1.372,0.251 0.23,0.095 0.431,0.077 0.653,-0.013 C -8.565,0.344 -7.95,0.196 -7.339,0.041 -7.177,0 -7.024,0.006 -6.856,0.032 c 0.853,0.137 1.66,0.433 2.476,0.695 0.267,0.085 0.529,0.153 0.813,0.144 0.252,-0.009 0.505,0.024 0.757,0.022 0.228,-0.002 0.423,0.068 0.593,0.211 0.281,0.235 0.564,0.467 0.833,0.715 0.117,0.108 0.209,0.154 0.364,0.078 0.158,-0.078 0.335,-0.113 0.496,-0.185 0.149,-0.065 0.29,-0.076 0.439,-0.015 0.082,0.033 0.168,0.057 0.249,0.089 0.188,0.076 0.379,0.135 0.579,0.175 0.335,0.066 0.658,0.174 0.95,0.361 0.12,0.076 0.22,0.166 0.3,0.283 C 2.211,2.923 2.357,3.265 2.4,3.652 2.424,3.865 2.453,4.077 2.458,4.293 2.462,4.443 2.462,4.599 2.543,4.734 2.621,4.865 2.61,5.003 2.579,5.139 2.532,5.348 2.476,5.555 2.414,5.76 2.39,5.84 2.401,5.902 2.431,5.976 c 0.06,0.148 0.178,0.242 0.291,0.343 0.786,0.699 1.491,1.472 2.11,2.324 1.376,1.891 2.262,3.986 2.645,6.296 0.167,1.012 0.241,2.032 0.191,3.057 -0.143,2.898 -1.038,5.54 -2.71,7.917 -0.379,0.537 -0.678,1.123 -0.989,1.7 -0.072,0.132 -0.113,0.28 -0.158,0.425 -0.143,0.457 -0.282,0.916 -0.421,1.375 -0.059,0.195 -0.151,0.371 -0.267,0.54 -0.528,0.757 -1.095,1.483 -1.709,2.172 -0.15,0.17 -0.292,0.349 -0.424,0.533 -0.065,0.09 -0.105,0.2 -0.143,0.307 C 0.572,33.724 0.266,34.473 0.086,35.264 0.075,35.312 0.048,35.356 0,35.466"
   style="fill-rule:nonzero"
   id="path626" />
            </g>
            <g
   transform="matrix(2,0,0,2,120.328,875.928)"
   id="g632">
                <path
   d="m 0,-17.224 c 0.307,0.299 0.611,0.599 0.919,0.895 0.161,0.154 0.301,0.322 0.459,0.561 -0.229,-0.065 -0.398,-0.107 -0.563,-0.16 -0.9,-0.289 -1.828,-0.468 -2.744,-0.692 -0.329,-0.08 -0.663,-0.146 -0.994,-0.217 -0.049,-0.011 -0.101,-0.013 -0.15,-0.011 -0.02,0 -0.048,0.019 -0.054,0.036 -0.006,0.019 10e-4,0.057 0.015,0.066 0.096,0.061 0.183,0.129 0.221,0.263 -0.263,0.162 -0.563,0.272 -0.791,0.493 -0.222,0.216 -0.448,0.429 -0.709,0.679 0.053,-0.228 0.178,-0.371 0.253,-0.537 0.004,-0.081 0.065,-0.134 0.097,-0.201 0.023,-0.043 0.002,0.022 0.02,-0.025 -0.009,0.008 -0.015,0.019 -0.023,0.029 -0.032,0.067 -0.105,0.116 -0.083,0.204 -0.044,-0.054 -0.08,-0.032 -0.118,0.009 -0.475,0.516 -0.851,1.096 -1.126,1.741 -0.128,0.301 -0.283,0.598 -0.359,0.914 -0.162,0.674 -0.418,1.32 -0.562,1.999 -0.112,0.531 -0.291,1.045 -0.513,1.542 -0.248,0.554 -0.413,1.137 -0.579,1.719 -0.248,0.865 -0.42,1.745 -0.521,2.635 -0.112,0.992 -0.162,1.987 -0.015,2.984 0.072,0.486 0.112,0.978 0.164,1.467 0.009,0.088 0.018,0.178 0.008,0.265 C -7.834,0.15 -7.819,0.87 -7.84,1.588 -7.845,1.739 -7.827,1.89 -7.82,2.041 -7.903,2.049 -7.928,2 -7.953,1.942 -8.343,1.048 -8.631,0.119 -8.82,-0.835 c -0.157,-0.796 -0.191,-1.603 -0.07,-2.412 0.148,-0.973 0.265,-1.952 0.428,-2.922 0.195,-1.158 0.468,-2.3 0.754,-3.439 0.317,-1.261 0.676,-2.509 1.079,-3.745 0.027,-0.084 0.046,-0.17 0.069,-0.256 0.205,-0.781 0.476,-1.541 0.806,-2.279 0.036,-0.081 0.075,-0.161 0.123,-0.235 0.111,-0.173 0.249,-0.308 0.46,-0.367 0.302,-0.086 0.6,-0.19 0.9,-0.289 0.104,-0.034 0.217,-0.046 0.307,-0.126 -0.442,-0.107 -0.883,-0.097 -1.326,-0.079 -0.05,0.003 -0.1,0.012 -0.151,0.012 -0.112,-10e-4 -0.162,-0.048 -0.159,-0.159 0.004,-0.152 0.004,-0.305 0.026,-0.454 0.04,-0.263 0.056,-0.527 0.059,-0.793 10e-4,-0.088 0.006,-0.177 0.022,-0.263 0.023,-0.121 0.084,-0.176 0.207,-0.181 0.163,-0.008 0.328,-0.007 0.492,-0.004 0.646,0.009 1.286,0.068 1.911,0.239 0.265,0.073 0.521,0.174 0.863,0.291 -0.181,-0.143 -0.297,-0.24 -0.419,-0.328 -0.37,-0.265 -0.757,-0.503 -1.15,-0.731 -0.132,-0.076 -0.142,-0.106 -0.083,-0.243 0.049,-0.116 0.095,-0.237 0.168,-0.338 0.337,-0.476 0.708,-0.922 1.22,-1.225 0.152,-0.09 0.296,-0.194 0.448,-0.283 0.109,-0.064 0.223,-0.12 0.353,-0.128 0.071,-0.004 0.121,0.021 0.137,0.096 0.021,0.1 0.04,0.199 0.066,0.296 0.051,0.195 0.106,0.389 0.16,0.583 0.018,0.061 0.055,0.109 0.12,0.136 -0.045,-0.39 -0.109,-0.778 -0.034,-1.172 0.087,0.05 0.064,0.134 0.073,0.203 0.074,0.551 0.129,1.105 0.289,1.64 0.125,0.422 0.272,0.837 0.485,1.242 0.077,-0.079 0.028,-0.144 0.007,-0.203 -0.189,-0.539 -0.301,-1.094 -0.347,-1.662 -0.045,-0.547 -0.009,-1.086 0.152,-1.613 0.022,-0.071 0.049,-0.143 0.071,-0.215 0.041,-0.136 0.128,-0.204 0.272,-0.223 0.252,-0.033 0.504,-0.024 0.756,-0.004 0.137,0.01 0.301,-0.032 0.403,0.058 0.11,0.099 0.026,0.263 0.032,0.397 0.016,0.367 0.05,0.731 0.146,1.086 0.009,0.036 0.018,0.071 0.068,0.082 0.077,-0.029 0.04,-0.103 0.043,-0.156 0.027,-0.432 0.124,-0.847 0.3,-1.245 0.054,-0.122 0.13,-0.197 0.265,-0.242 0.54,-0.183 1.1,-0.276 1.658,-0.376 0.085,-0.015 0.176,-0.003 0.263,0.005 0.762,0.067 1.483,0.291 2.189,0.573 0.082,0.032 0.156,0.083 0.238,0.116 0.138,0.054 0.183,0.157 0.181,0.298 -0.006,0.34 -0.022,0.678 -0.115,1.007 -0.138,0.354 -0.107,0.732 -0.159,1.098 0.039,0.148 -0.012,0.272 -0.102,0.387 -0.311,0.399 -0.571,0.832 -0.82,1.271 -0.076,0.134 -0.185,0.24 -0.286,0.352 -0.144,0.16 -0.278,0.328 -0.421,0.488 -0.07,0.077 -0.171,0.05 -0.203,-0.055 -0.029,-0.095 -0.05,-0.195 -0.067,-0.295 -0.028,-0.161 -0.067,-0.317 -0.125,-0.472 -0.033,0.017 -0.069,0.026 -0.069,0.036 -0.01,0.509 -0.145,0.999 -0.219,1.498 -0.059,0.399 -0.12,0.799 -0.177,1.199 -0.01,0.07 -0.033,0.145 0.014,0.213 0.065,0.015 0.09,-0.03 0.114,-0.074 0.306,-0.568 0.66,-1.104 1.057,-1.614 0.264,-0.338 0.6,-0.574 0.993,-0.724 0.235,-0.089 0.478,-0.155 0.709,-0.26 0.135,-0.062 0.289,-0.091 0.438,-0.115 0.411,-0.065 0.823,-0.12 1.236,-0.178 0.012,-0.002 0.025,-0.001 0.037,-0.001 0.113,-0.004 0.17,0.049 0.148,0.161 -0.064,0.322 -0.136,0.642 -0.202,0.964 -0.013,0.064 -0.047,0.11 -0.096,0.156 -0.559,0.532 -1.144,1.031 -1.812,1.425 -0.347,0.205 -0.684,0.283 -1.154,0.263 0.532,-0.273 1.028,-0.521 1.426,-0.915 -0.042,-0.043 -0.084,-0.026 -0.129,-0.003 -0.518,0.265 -1.044,0.508 -1.616,0.634 -0.037,0.009 -0.082,0.015 -0.106,0.038 -0.168,0.164 -0.364,0.299 -0.551,0.486 0.15,0.046 0.257,0.015 0.361,-0.018 0.147,-0.046 0.29,-0.04 0.444,-0.03 0.605,0.042 1.21,0.038 1.809,-0.086 0.09,-0.018 0.166,-0.05 0.236,-0.11 0.269,-0.229 0.541,-0.455 0.81,-0.683 0.178,-0.15 0.299,-0.339 0.388,-0.552 0.194,-0.466 0.402,-0.926 0.618,-1.38 0.257,-0.539 0.117,-0.452 0.73,-0.449 0.125,0.001 0.25,0.04 0.375,0.041 0.257,0.002 0.383,0.145 0.443,0.376 0.039,0.147 0.072,0.293 0.071,0.446 -0.003,0.486 -0.125,0.949 -0.263,1.41 -0.044,0.141 -0.13,0.233 -0.259,0.307 -0.511,0.293 -1.05,0.492 -1.64,0.539 -0.252,0.021 -0.503,0.041 -0.754,0.061 0.006,0.089 0.08,0.094 0.133,0.112 0.314,0.111 0.636,0.157 0.968,0.108 0.063,-0.009 0.126,-0.016 0.187,-0.028 0.373,-0.071 0.643,0.05 0.88,0.362 0.363,0.475 0.661,0.981 0.907,1.524 0.255,0.565 0.431,1.152 0.551,1.762 0.29,1.469 0.378,2.952 0.304,4.447 -0.011,0.212 -0.028,0.426 -0.042,0.64 -0.181,0.287 -0.317,0.6 -0.544,0.862 -0.515,0.592 -1.042,1.17 -1.661,1.655 -0.154,0.119 -0.221,0.264 -0.254,0.443 -0.091,0.494 -0.166,0.99 -0.215,1.493 0.12,-0.04 0.134,-0.153 0.175,-0.241 0.181,-0.39 0.39,-0.764 0.62,-1.127 0.118,-0.187 0.265,-0.331 0.447,-0.453 0.296,-0.197 0.618,-0.342 0.935,-0.498 0.017,-0.009 0.047,0.006 0.07,0.009 l -0.007,-0.008 c 0.052,0.091 0,0.172 -0.028,0.252 -0.206,0.585 -0.367,1.18 -0.452,1.796 -0.023,0.161 -0.071,0.319 -0.108,0.479 -0.101,0.431 -0.179,0.865 -0.228,1.305 C 10.23,0.131 10.159,0.38 10.02,0.612 9.957,0.719 9.912,0.838 9.858,0.951 9.707,1.271 9.513,1.566 9.324,1.865 9.075,2.259 8.845,2.667 8.615,3.073 8.361,3.524 8.12,3.982 7.865,4.432 7.759,4.617 7.634,4.793 7.508,4.966 7.394,5.12 7.227,5.21 7.055,5.291 6.811,5.405 6.546,5.432 6.285,5.468 6.173,5.483 6.058,5.485 5.948,5.51 5.314,5.655 4.674,5.638 4.029,5.609 3.461,5.584 2.898,5.506 2.329,5.497 1.888,5.49 1.449,5.428 1.04,5.232 0.678,5.059 0.386,4.812 0.18,4.464 -0.446,3.411 -1.083,2.366 -1.699,1.308 -1.888,0.982 -2.025,0.626 -2.181,0.282 -2.207,0.226 -2.231,0.153 -2.217,0.099 -2.175,-0.073 -2.243,-0.228 -2.279,-0.383 -2.386,-0.851 -2.503,-1.315 -2.631,-1.777 -2.76,-2.241 -2.842,-2.713 -2.92,-3.186 c -0.04,-0.239 -0.028,-0.478 -0.006,-0.721 0.08,-0.054 0.136,0.022 0.2,0.049 0.081,0.034 0.153,0.091 0.236,0.118 0.351,0.116 0.597,0.357 0.821,0.639 0.259,0.328 0.503,0.664 0.709,1.028 0.014,0.031 0.033,0.061 0.054,0.089 0.002,0.021 0.009,0.04 0.023,0.057 0.036,0.029 0.059,0.071 0.106,0.085 -0.045,-0.07 0.024,-0.163 -0.044,-0.229 0.001,-0.023 -0.003,-0.046 -0.014,-0.068 -0.031,-0.051 -0.024,-0.115 -0.054,-0.167 -0.099,-0.378 -0.203,-0.755 -0.293,-1.134 -0.031,-0.132 -0.092,-0.225 -0.199,-0.306 -0.502,-0.381 -1,-0.767 -1.5,-1.151 -0.06,-0.046 -0.12,-0.092 -0.183,-0.135 -0.092,-0.062 -0.128,-0.145 -0.126,-0.256 0.007,-0.416 -0.033,-0.83 -0.008,-1.248 0.024,-0.414 0.016,-0.832 0.021,-1.248 0.003,-0.202 0.03,-0.403 0.041,-0.603 0.012,-0.209 0.122,-0.328 0.286,-0.404 0.31,-0.142 0.632,-0.251 0.968,-0.315 0.063,-0.011 0.124,-0.006 0.184,0.022 0.376,0.175 0.753,0.348 1.129,0.523 0.008,0.004 0.012,0.018 0.028,0.044 -0.638,0.141 -1.271,0.281 -1.92,0.425 0.312,0.207 0.576,0.449 0.783,0.748 0.053,0.077 0.135,0.112 0.215,0.149 0.379,0.179 0.776,0.296 1.191,0.35 0.165,0.021 0.327,0.007 0.489,-0.029 C 0.315,-6.896 0.414,-6.912 0.513,-6.931 0.57,-6.954 0.64,-6.945 0.688,-6.995 L 0.696,-6.997 C 0.736,-7.04 0.8,-7.025 0.843,-7.061 0.91,-7.11 0.98,-7.155 1.069,-7.151 1.112,-7.192 1.18,-7.175 1.222,-7.218 c 0.184,-0.113 0.383,-0.187 0.593,-0.231 0.02,-0.004 0.059,0.009 0.066,0.023 0.012,0.032 0.023,0.078 0.008,0.103 -0.031,0.053 -0.074,0.102 -0.12,0.142 -0.366,0.312 -0.74,0.611 -1.199,0.781 -0.019,0.007 -0.034,0.028 -0.055,0.047 0.044,0.064 0.11,0.035 0.16,0.031 0.289,-0.028 0.576,-0.068 0.866,-0.092 0.252,-0.021 0.445,-0.164 0.647,-0.292 0.11,-0.069 0.144,-0.066 0.223,0.034 0.132,0.169 0.261,0.341 0.38,0.519 0.173,0.261 0.336,0.529 0.505,0.797 C 3.389,-5.38 3.353,-5.457 3.347,-5.505 3.323,-5.718 3.298,-5.932 3.255,-6.141 3.188,-6.463 3.109,-6.782 3.085,-7.109 3.074,-7.271 3.006,-7.369 2.853,-7.411 2.793,-7.428 2.731,-7.444 2.673,-7.469 2.624,-7.489 2.597,-7.526 2.616,-7.587 2.649,-7.688 2.705,-7.76 2.804,-7.811 3.072,-7.95 3.332,-8.106 3.602,-8.241 3.777,-8.328 3.777,-8.44 3.696,-8.579 3.545,-8.841 3.393,-9.103 3.228,-9.357 3.027,-9.666 2.906,-10.012 2.765,-10.348 2.73,-10.43 2.697,-10.512 2.669,-10.595 c -0.084,-0.255 -0.215,-0.47 -0.427,-0.651 -0.345,-0.295 -0.658,-0.626 -0.991,-0.935 -0.116,-0.11 -0.235,-0.224 -0.378,-0.27 -0.056,0.022 -0.058,0.037 -0.039,0.065 0.28,0.39 0.558,0.78 0.877,1.139 0.437,0.493 0.796,1.043 1.155,1.592 0.042,0.063 0.077,0.131 0.102,0.202 0.067,0.19 0.123,0.384 0.194,0.572 0.035,0.094 0.019,0.163 -0.029,0.247 -0.106,0.179 -0.237,0.217 -0.444,0.181 -0.974,-0.167 -1.909,-0.455 -2.826,-0.819 -0.62,-0.245 -1.262,-0.436 -1.892,-0.656 -0.135,-0.047 -0.242,-0.016 -0.348,0.074 -0.163,0.139 -0.332,0.27 -0.502,0.402 -0.036,0.029 -0.065,0.082 -0.128,0.054 -0.055,-0.079 -0.026,-0.168 -0.017,-0.251 0.093,-0.839 0.154,-1.683 0.372,-2.504 0.067,-0.256 0.11,-0.518 0.159,-0.778 0.04,-0.213 0.1,-0.417 0.196,-0.61 0.124,-0.249 0.263,-0.488 0.369,-0.745 0.094,-0.225 0.27,-0.382 0.523,-0.454 0.596,-0.169 1.2,-0.291 1.816,-0.359 0.15,-0.016 0.302,-0.011 0.445,-0.075 0.098,-0.044 0.2,-0.013 0.299,-0.001 0.551,0.067 1.101,0.142 1.644,0.259 0.057,0.012 0.114,0.048 0.178,0 -0.024,-0.03 -0.044,-0.062 -0.071,-0.086 -0.425,-0.396 -0.851,-0.79 -1.277,-1.184 -0.455,-0.422 -0.953,-0.787 -1.478,-1.116 -0.142,-0.068 -0.296,-0.112 -0.418,-0.219 0.105,0.086 0.241,0.143 0.267,0.297"
   style="fill:#ffffff;fill-rule:nonzero"
   id="path630" />
            </g>
            <g
   transform="matrix(2,0,0,2,142.211,842.177)"
   id="g636">
                <path
   d="m 0,27.688 c -0.173,-1.014 -0.188,-2.036 -0.133,-3.059 0.027,-0.491 0.082,-0.981 0.112,-1.472 0.027,-0.432 0.118,-0.851 0.248,-1.261 0.187,-0.589 0.452,-1.149 0.688,-1.72 0.195,-0.467 0.465,-0.855 0.904,-1.126 0.216,-0.135 0.358,-0.345 0.46,-0.587 0.247,-0.593 0.525,-1.175 0.69,-1.8 0.064,-0.243 0.123,-0.489 0.178,-0.735 0.016,-0.072 0.009,-0.149 0.015,-0.269 -0.054,0.093 -0.091,0.143 -0.113,0.2 -0.178,0.458 -0.394,0.901 -0.587,1.353 -0.166,0.391 -0.399,0.731 -0.682,1.038 -0.307,0.335 -0.628,0.657 -0.952,0.976 -0.6,0.589 -1.07,1.275 -1.516,1.981 -0.067,0.106 -0.132,0.215 -0.201,0.321 -0.012,0.019 -0.039,0.029 -0.064,0.045 -0.062,-0.024 -0.025,-0.078 -0.026,-0.116 -0.001,-0.037 0.011,-0.075 0.02,-0.111 0.225,-0.972 0.478,-1.937 0.804,-2.879 0.226,-0.654 0.46,-1.306 0.736,-1.944 C 0.852,15.9 1.089,15.26 1.238,14.591 1.357,14.061 1.498,13.537 1.627,13.01 1.678,12.802 1.716,12.591 1.723,12.374 1.737,11.958 1.763,11.542 1.778,11.125 1.785,10.898 1.779,10.671 1.779,10.421 1.692,10.547 1.676,10.677 1.656,10.807 1.547,11.481 1.445,12.154 1.274,12.815 1.266,12.85 1.25,12.883 1.236,12.92 1.156,12.884 1.175,12.816 1.174,12.764 1.151,11.805 1.111,10.846 1.133,9.886 1.141,9.535 1.142,9.184 1.059,8.834 0.995,8.566 1.013,8.281 0.983,8.005 0.948,7.692 0.907,7.378 0.858,7.067 0.745,6.344 0.655,5.618 0.598,4.889 0.544,4.188 0.312,3.534 0.042,2.891 -0.091,2.578 -0.215,2.261 -0.337,1.943 -0.385,1.819 -0.311,1.717 -0.177,1.729 -0.079,1.739 0.02,1.768 0.112,1.806 0.361,1.905 0.576,2.059 0.767,2.247 1.201,2.676 1.569,3.156 1.872,3.684 2.067,4.023 2.237,4.376 2.419,4.723 2.477,4.833 2.536,4.943 2.598,5.059 2.667,4.999 2.633,4.939 2.618,4.889 2.417,4.171 2.141,3.479 1.859,2.79 1.688,2.37 1.451,1.98 1.133,1.645 0.89,1.389 0.661,1.12 0.424,0.857 0.399,0.828 0.383,0.797 0.399,0.757 0.416,0.711 0.458,0.71 0.492,0.71 0.631,0.711 0.769,0.714 0.908,0.721 0.983,0.725 1.07,0.76 1.127,0.705 1.266,0.57 1.375,0.646 1.491,0.735 1.708,0.901 1.912,1.082 2.095,1.293 2.023,0.91 1.814,0.603 1.566,0.305 1.734,0.163 1.887,0.032 2.041,-0.096 c 0.05,-0.042 0.097,-0.012 0.128,0.03 0.163,0.21 0.297,0.44 0.388,0.689 0.246,0.676 0.5,1.348 0.71,2.037 0.198,0.651 0.426,1.295 0.596,1.954 0.31,1.196 0.596,2.399 0.819,3.616 0.098,0.533 0.231,1.061 0.339,1.592 0.101,0.495 0.19,0.991 0.287,1.487 0.036,0.185 0.08,0.369 0.119,0.554 0.021,0.099 0.046,0.197 0.06,0.297 0.064,0.463 0.136,0.925 0.185,1.389 C 5.798,14.736 5.758,15.92 5.586,17.1 5.511,17.614 5.373,18.11 5.118,18.571 4.891,18.979 4.67,19.39 4.416,19.783 4.375,19.845 4.348,19.921 4.255,19.934 4.309,19.521 4.364,19.109 4.414,18.696 4.559,17.48 4.658,16.258 4.651,15.032 4.647,14.299 4.56,13.571 4.422,12.85 4.377,12.617 4.354,12.378 4.254,12.114 c 0,0.159 -0.006,0.277 0.001,0.394 0.08,1.401 0.089,2.803 -0.002,4.203 -0.076,1.173 -0.193,2.341 -0.39,3.5 -0.079,0.462 -0.209,0.91 -0.369,1.35 -0.12,0.332 -0.232,0.666 -0.321,1.008 -0.135,0.521 -0.358,0.996 -0.695,1.418 -0.18,0.227 -0.343,0.468 -0.518,0.7 -0.083,0.109 -0.173,0.212 -0.291,0.357 0.029,-0.324 0.242,-0.536 0.289,-0.846 -0.19,0.216 -0.353,0.391 -0.504,0.578 -0.078,0.096 -0.137,0.21 -0.197,0.321 -0.341,0.622 -0.58,1.287 -0.823,1.95 -0.078,0.214 -0.159,0.426 -0.237,0.639 -0.065,0.14 -0.13,0.133 -0.197,0.002"
   style="fill:#ffffff;fill-rule:nonzero"
   id="path634" />
            </g>
            <g
   transform="matrix(2,0,0,2,114.897,849.313)"
   id="g640">
                <path
   d="M 0,20.033 C -0.103,19.591 -0.204,19.149 -0.309,18.708 -0.416,18.267 -0.558,17.836 -0.714,17.41 -0.765,17.268 -0.821,17.127 -0.862,16.982 -1.038,16.374 -1.301,15.803 -1.578,15.238 -1.828,14.729 -2.072,14.217 -2.315,13.705 -2.39,13.546 -2.447,13.379 -2.524,13.221 -2.577,13.114 -2.597,12.982 -2.728,12.9 c 0.057,0.466 0.097,0.917 0.187,1.362 0.063,0.31 0.093,0.623 -0.043,0.93 -0.087,0 -0.07,-0.08 -0.09,-0.125 -0.213,-0.475 -0.299,-0.988 -0.423,-1.488 -0.271,-1.091 -0.407,-2.205 -0.559,-3.316 -0.113,-0.493 -0.107,-0.994 -0.1,-1.291 0.06,0.523 -0.015,1.25 0.024,1.976 0.003,0.496 0.128,0.976 0.193,1.463 0.117,0.877 0.333,1.735 0.553,2.59 0.135,0.524 0.334,1.031 0.518,1.541 0.128,0.356 0.237,0.718 0.353,1.077 0.211,0.651 0.302,1.327 0.487,1.982 0.01,0.036 0.016,0.075 0.018,0.112 0.061,1.046 0.217,2.085 0.23,3.134 10e-4,0.071 0.027,0.146 -0.023,0.213 -0.1,-0.031 -0.105,-0.127 -0.138,-0.203 -0.251,-0.578 -0.514,-1.152 -0.824,-1.702 -0.162,-0.287 -0.353,-0.553 -0.54,-0.822 -0.352,-0.509 -0.694,-1.024 -1.033,-1.541 -0.068,-0.104 -0.115,-0.225 -0.153,-0.344 -0.273,-0.854 -0.482,-1.722 -0.606,-2.613 -0.131,-0.943 -0.12,-1.889 -0.119,-2.835 10e-4,-0.998 0.094,-1.991 0.163,-2.986 0.045,-0.642 0.082,-1.285 0.149,-1.925 0.079,-0.754 0.246,-1.496 0.347,-2.245 0.12,-0.891 0.389,-1.747 0.549,-2.629 0.073,-0.408 0.221,-0.802 0.351,-1.198 0.27,-0.826 0.533,-1.657 0.896,-2.45 0.126,-0.277 0.26,-0.545 0.44,-0.792 0.126,-0.173 0.232,-0.36 0.356,-0.535 0.058,-0.081 0.132,-0.152 0.208,-0.217 0.318,-0.27 0.654,-0.519 1.008,-0.737 0.379,-0.234 0.779,-0.313 1.227,-0.168 0.552,0.179 1.093,0.385 1.627,0.613 0.055,0.024 0.122,0.034 0.151,0.12 0.005,0.019 -0.008,0.027 -0.042,0.031 -0.872,0.079 -1.721,0.267 -2.545,0.557 -0.406,0.141 -0.762,0.39 -1.126,0.617 -0.034,0.006 -0.06,0.026 -0.077,0.056 l -0.006,0.003 c -0.015,0.035 -0.073,0.045 -0.062,0.097 0.017,-0.009 0.038,-0.012 0.062,-0.011 0.048,-0.011 0.098,-0.022 0.147,-0.033 0.049,-0.024 0.111,-0.013 0.156,-0.052 0.16,-0.006 0.303,-0.127 0.481,-0.075 -0.3,0.581 -0.591,1.153 -0.888,1.721 -0.183,0.35 -0.279,0.724 -0.351,1.123 0.037,-0.018 0.065,-0.022 0.071,-0.036 0.216,-0.514 0.536,-0.971 0.799,-1.46 0.112,-0.209 0.271,-0.391 0.438,-0.554 0.095,0.021 0.058,0.082 0.053,0.119 -0.141,1.013 -0.286,2.024 -0.427,3.037 -0.019,0.138 -0.03,0.277 -0.034,0.415 -0.017,0.62 -0.071,1.235 -0.171,1.846 -0.016,0.1 -0.032,0.201 -0.035,0.301 -0.024,0.896 -0.083,1.794 -0.057,2.689 0.031,0.998 0.02,1.995 0.041,2.993 0.002,0.12 0,0.24 0,0.369 C -0.953,11.59 -0.973,11.587 -0.975,11.58 -1.309,10.416 -1.627,9.249 -1.759,8.038 -1.845,7.244 -1.828,6.449 -1.856,5.655 -1.872,5.213 -1.898,4.772 -1.847,4.33 c 0.014,-0.123 0.002,-0.252 0.002,-0.439 -0.196,0.883 -0.274,1.714 -0.266,2.557 0.007,0.809 0.042,1.617 0.143,2.419 0.074,0.587 0.166,1.173 0.284,1.756 0.223,1.102 0.551,2.175 0.874,3.251 0.139,0.46 0.309,0.91 0.522,1.339 0.276,0.556 0.379,1.146 0.418,1.754 0.03,0.466 0.046,0.933 0.072,1.4 0.036,0.632 -0.033,1.261 -0.063,1.892 -0.02,0.036 -0.046,0.04 -0.077,0.013 L 0.061,20.271 C 0.013,20.198 0.062,20.101 0,20.033"
   style="fill:#ffffff;fill-rule:nonzero"
   id="path638" />
            </g>
            <g
   transform="matrix(2,0,0,2,141.995,835.499)"
   id="g644">
                <path
   d="M 0,2.456 C 0.136,2.16 -0.037,1.927 -0.18,1.693 -0.428,1.282 -0.719,0.902 -1.05,0.553 -1.299,0.291 -1.584,0.096 -1.948,0.032 -2.044,0.016 -2.173,0.018 -2.195,-0.103 c -0.027,-0.153 0.128,-0.164 0.22,-0.212 0.546,-0.288 1.136,-0.479 1.692,-0.745 0.274,-0.132 0.483,-0.039 0.701,0.099 0.052,0.033 0.095,0.082 0.139,0.127 0.511,0.524 0.997,1.069 1.418,1.67 C 2.164,1.105 2.324,1.391 2.432,1.702 2.514,1.939 2.417,2.347 2.228,2.497 1.763,2.864 1.282,3.211 0.768,3.507 0.521,3.648 0.393,3.625 0.184,3.448 0.145,3.414 0.108,3.38 0.108,3.326 0.107,3.035 0.053,2.749 0,2.456"
   style="fill:#ffffff;fill-rule:nonzero"
   id="path642" />
            </g>
            <g
   transform="matrix(2,0,0,2,141.289,836.334)"
   id="g648">
                <path
   d="M 0,1.432 C -0.481,1.319 -0.915,1.264 -1.358,1.319 -2.148,1.244 -2.91,1.426 -3.677,1.568 -3.739,1.579 -3.8,1.592 -3.863,1.6 -4.162,1.637 -4.461,1.673 -4.752,1.709 -4.82,1.637 -4.775,1.584 -4.746,1.534 c 0.162,-0.27 0.312,-0.548 0.491,-0.805 0.218,-0.312 0.496,-0.57 0.799,-0.8 0.223,-0.17 0.487,-0.206 0.754,-0.187 0.454,0.032 0.898,0.125 1.33,0.267 0.083,0.027 0.165,0.066 0.237,0.113 0.347,0.234 0.892,0.859 1.135,1.31"
   style="fill:#ffffff;fill-rule:nonzero"
   id="path646" />
            </g>
            <g
   transform="matrix(2,0,0,2,132.924,832.032)"
   id="g652">
                <path
   d="M 0,2.358 C 0.088,2.074 0.164,1.852 0.224,1.627 0.331,1.226 0.428,0.822 0.531,0.42 0.552,0.335 0.58,0.251 0.603,0.166 0.621,0.098 0.671,0.06 0.736,0.05 0.873,0.03 1.011,0.002 1.147,0.001 1.399,0 1.651,0.017 1.902,0.027 2.069,0.035 2.222,0.093 2.369,0.165 2.586,0.271 2.779,0.412 2.964,0.565 3.109,0.684 3.1,0.757 2.945,0.841 2.646,1.002 2.347,1.163 2.048,1.324 2.004,1.347 1.961,1.38 1.913,1.39 1.793,1.418 1.808,1.603 1.665,1.595 1.551,1.59 1.439,1.58 1.325,1.577 0.995,1.566 0.71,1.669 0.475,1.911 0.338,2.051 0.189,2.181 0,2.358"
   style="fill:#ffffff;fill-rule:nonzero"
   id="path650" />
            </g>
            <g
   transform="matrix(2,0,0,2,120.657,859.763)"
   id="g656">
                <path
   d="M 0,1.036 C -0.549,1.023 -0.939,0.929 -1.314,0.774 -1.527,0.686 -1.705,0.544 -1.846,0.36 -1.93,0.249 -1.912,0.169 -1.787,0.13 c 0.121,-0.037 0.243,-0.071 0.366,-0.091 0.3,-0.05 0.324,-0.032 0.424,0.265 0.028,0.083 0.055,0.169 0.098,0.244 0.085,0.153 0.215,0.244 0.398,0.242 C -0.35,0.788 -0.199,0.785 -0.047,0.788 0.076,0.791 0.172,0.749 0.244,0.647 0.273,0.606 0.303,0.566 0.335,0.527 0.406,0.44 0.425,0.288 0.536,0.266 0.685,0.237 0.823,0.33 0.954,0.403 0.997,0.427 1.035,0.461 1.072,0.495 1.124,0.541 1.124,0.62 1.066,0.655 0.696,0.88 0.306,1.047 0,1.036"
   style="fill:#ffffff;fill-rule:nonzero"
   id="path654" />
            </g>
            <g
   transform="matrix(2,0,0,2,144.123,836.54)"
   id="g660">
                <path
   d="m 0,-1.318 c 0.198,-0.054 0.357,0.075 0.535,0.117 0.111,0.025 0.213,0.078 0.299,0.156 0.087,0.077 0.137,0.181 0.177,0.287 0.099,0.26 0.168,0.526 0.204,0.803 C 1.148,0.054 1.116,0.021 1.088,-0.017 0.789,-0.425 0.464,-0.811 0.105,-1.167 0.061,-1.21 0.011,-1.253 0.01,-1.324 Z"
   style="fill:#ffffff;fill-rule:nonzero"
   id="path658" />
            </g>
            <g
   transform="matrix(2,0,0,2,144.585,844.715)"
   id="g664">
                <path
   d="M 0,0.965 C -0.113,0.927 -0.171,0.823 -0.255,0.75 -0.561,0.483 -0.873,0.232 -1.297,0.18 -1.316,0.178 -1.349,0.143 -1.347,0.138 -1.33,0.108 -1.312,0.068 -1.283,0.057 -1.135,0 -0.987,0.01 -0.843,0.074 c 0.068,0.031 0.138,0.065 0.195,0.114 0.255,0.221 0.511,0.444 0.679,0.745 z"
   style="fill:#ffffff;fill-rule:nonzero"
   id="path662" />
            </g>
            <g
   transform="matrix(2,0,0,2,107.433,866.448)"
   id="g668">
                <path
   d="M 0,2.381 C -0.059,2.304 -0.051,2.213 -0.054,2.126 -0.072,1.508 -0.092,0.89 -0.065,0.271 -0.062,0.209 -0.052,0.148 -0.036,0 -0.014,0.132 -0.003,0.178 0.001,0.225 0.028,0.564 0.056,0.903 0.079,1.243 0.088,1.393 0.11,1.545 0.076,1.696 -0.002,1.791 0.024,1.906 0.019,2.015 0.012,2.137 0.045,2.261 0,2.381"
   style="fill-rule:nonzero"
   id="path666" />
            </g>
            <g
   transform="matrix(2,0,0,2,132.799,834.198)"
   id="g672">
                <path
   d="M 0,1.098 C -0.006,1.037 0.003,0.969 -0.021,0.915 -0.088,0.766 -0.091,0.634 0.027,0.507 0.07,0.46 0.062,0.392 0.043,0.33 0.025,0.272 0.003,0.213 -0.002,0.153 -0.01,0.042 0.057,0 0.159,0 0.153,0.373 0.117,0.742 0,1.098"
   style="fill:#ffffff;fill-rule:nonzero"
   id="path670" />
            </g>
            <g
   transform="matrix(1.42139,-1.407,-1.407,-1.42139,120.572,841.087)"
   id="g676">
                <path
   d="m -0.225,-0.053 c -0.062,0.167 -0.056,0.341 -0.056,0.515 0,0.056 -0.024,0.123 0.056,0.18 0.129,-0.237 0.147,-0.491 0.162,-0.746 -0.049,0.033 -0.092,0.086 -0.162,0.051"
   style="fill-rule:nonzero"
   id="path674" />
            </g>
            <g
   transform="matrix(-1.9211,0.55622,0.55622,1.9211,118.983,872.641)"
   id="g680">
                <path
   d="M 0.024,-0.452 C -0.04,-0.337 0.008,-0.211 -0.013,-0.09 -0.018,-0.06 0.009,-0.024 0.024,0.015 0.115,-0.09 0.126,-0.209 0.122,-0.331 0.09,-0.372 0.057,-0.412 0.024,-0.452"
   style="fill-rule:nonzero"
   id="path678" />
            </g>
            <g
   transform="matrix(2,0,0,2,122.772,861.632)"
   id="g684">
                <path
   d="M 0,-0.07 C -0.034,-0.01 -0.088,0.007 -0.153,-0.003 -0.117,-0.059 -0.064,-0.077 0,-0.07"
   style="fill:#eeefee;fill-rule:nonzero"
   id="path682" />
            </g>
            <g
   transform="matrix(2,0,0,2,122.013,861.932)"
   id="g688">
                <path
   d="M 0,-0.063 C -0.033,-0.006 -0.085,0.009 -0.147,0 -0.111,-0.051 -0.062,-0.072 0,-0.063"
   style="fill:#eeefee;fill-rule:nonzero"
   id="path686" />
            </g>
            <g
   transform="matrix(2,0,0,2,121.704,862.08)"
   id="g692">
                <path
   d="M 0,-0.071 C -0.04,0.001 -0.104,0.006 -0.175,-0.007 -0.132,-0.07 -0.068,-0.077 0,-0.071"
   style="fill:#eeefee;fill-rule:nonzero"
   id="path690" />
            </g>
            <g
   transform="matrix(0.928014,1.77166,1.77166,-0.928014,142.478,867.969)"
   id="g696">
                <path
   d="M 0.021,-0.002 V 0.045 Z"
   style="fill:#ffffff"
   id="path694" />
            </g>
            <g
   transform="matrix(2,0,0,2,132.34,861.799)"
   id="g700">
                <path
   d="M 0,-0.211 C 0.012,-0.208 0.031,-0.21 0.036,-0.203 0.253,0.124 0.587,0.303 0.912,0.495 1.017,0.557 1.144,0.592 1.243,0.733 1.046,0.714 0.88,0.697 0.713,0.683 0.537,0.668 0.36,0.661 0.184,0.643 0.067,0.631 -0.021,0.553 -0.114,0.488 -0.239,0.399 -0.252,0.406 -0.345,0.541 -0.553,0.845 -0.718,1.168 -0.816,1.526 -0.925,1.927 -1.04,2.327 -1.152,2.728 -1.164,2.775 -1.167,2.828 -1.232,2.85 -1.305,2.839 -1.266,2.773 -1.27,2.735 -1.36,1.915 -1.288,1.096 -1.258,0.276 c 0.005,-0.124 0.055,-0.214 0.14,-0.297 0.098,-0.098 0.187,-0.205 0.284,-0.305 0.062,-0.065 0.057,-0.125 0.024,-0.205 -0.082,-0.198 -0.167,-0.393 -0.325,-0.549 -0.071,-0.07 -0.124,-0.159 -0.185,-0.239 -0.075,-0.099 -0.078,-0.202 -0.017,-0.31 0.125,0.024 0.189,0.129 0.272,0.201 0.146,0.129 0.31,0.166 0.491,0.131 0.161,-0.032 0.323,-0.067 0.474,-0.126 0.812,-0.311 1.629,-0.61 2.412,-0.994 0.238,-0.117 0.473,-0.237 0.689,-0.394 0.06,-0.044 0.127,-0.081 0.194,-0.115 0.226,-0.115 0.443,-0.135 0.682,-0.005 0.399,0.216 0.822,0.386 1.197,0.647 0.07,0.049 0.157,0.09 0.147,0.2 C 5.174,-2.053 5.126,-2.066 5.078,-2.079 4.749,-2.172 4.411,-2.215 4.074,-2.264 3.852,-2.296 3.655,-2.262 3.466,-2.126 3.251,-1.972 3.019,-1.842 2.795,-1.7 c -0.127,0.081 -0.253,0.165 -0.33,0.299 0.028,0.073 0.089,0.083 0.152,0.095 0.577,0.109 1.156,0.22 1.743,0.332 C 4.279,-0.841 4.151,-0.81 4.033,-0.781 3.931,-0.757 3.848,-0.718 3.77,-0.648 3.499,-0.404 3.222,-0.165 2.947,0.075 2.796,0.149 2.625,0.063 2.475,0.136 2.224,0.148 1.97,0.144 1.722,0.179 1.501,0.211 1.299,0.173 1.095,0.1 0.812,-0.002 0.529,-0.106 0.246,-0.21 0.163,-0.242 0.082,-0.278 -0.002,-0.212 Z"
   style="fill-rule:nonzero"
   id="path698" />
            </g>
            <g
   transform="matrix(2,0,0,2,121.98,869.852)"
   id="g704">
                <path
   d="M 0,1.567 C 0.399,0.849 0.89,0.189 1.322,-0.508 1.441,-0.701 1.635,-0.751 1.818,-0.829 1.844,-0.84 1.894,-0.824 1.92,-0.805 2.07,-0.693 2.249,-0.428 2.341,-0.183 2.151,-0.305 1.976,-0.417 1.807,-0.525 1.722,-0.49 1.667,-0.438 1.63,-0.37 1.471,-0.084 1.309,0.202 1.158,0.493 1.071,0.66 1.15,0.852 1.327,0.916 1.469,0.966 1.616,1.02 1.764,1.033 2.015,1.055 2.181,1.194 2.331,1.373 2.347,1.392 2.368,1.409 2.379,1.431 2.521,1.705 2.761,1.773 3.045,1.751 3.159,1.742 3.272,1.735 3.385,1.734 3.493,1.732 3.578,1.691 3.657,1.621 3.77,1.521 3.904,1.441 4.002,1.328 4.135,1.173 4.307,1.109 4.49,1.06 4.66,1.014 4.834,0.978 5.004,0.931 5.132,0.894 5.173,0.826 5.139,0.706 5.108,0.597 5.07,0.489 5.023,0.386 4.95,0.226 4.857,0.073 4.79,-0.089 4.699,-0.309 4.542,-0.428 4.255,-0.476 4.182,-0.385 4.088,-0.269 3.999,-0.157 3.918,-0.2 3.943,-0.25 3.956,-0.293 3.992,-0.414 4.029,-0.534 4.073,-0.653 4.144,-0.849 4.343,-0.93 4.524,-0.833 4.667,-0.754 4.795,-0.661 4.89,-0.516 5.2,-0.04 5.524,0.427 5.843,0.897 6,1.127 6.117,1.379 6.225,1.634 6.232,1.651 6.216,1.679 6.21,1.703 6.189,1.699 6.159,1.703 6.148,1.69 5.978,1.5 5.747,1.442 5.515,1.376 5.384,1.339 5.281,1.35 5.16,1.424 4.677,1.723 4.183,2.002 3.7,2.301 3.485,2.433 3.273,2.497 3.019,2.442 2.86,2.406 2.691,2.422 2.53,2.398 2.355,2.371 2.285,2.189 2.141,2.109 1.743,1.887 1.378,1.615 1.009,1.351 0.902,1.275 0.813,1.27 0.699,1.339 0.505,1.456 0.302,1.558 0.103,1.666 0.025,1.679 -0.009,1.645 0,1.567"
   style="fill-rule:nonzero"
   id="path702" />
            </g>
            <g
   transform="matrix(2,0,0,2,121.338,877.629)"
   id="g708">
                <path
   d="m 0,-0.35 c 0.145,0.021 0.29,-0.013 0.436,-0.058 0.482,-0.148 0.968,-0.283 1.43,-0.485 0.119,-0.052 0.21,-0.043 0.319,0.014 0.323,0.172 0.671,0.286 1.01,0.42 0.128,0.049 0.238,0.055 0.362,0.001 0.289,-0.125 0.585,-0.234 0.869,-0.367 0.209,-0.098 0.398,-0.101 0.615,-0.02 0.436,0.162 0.884,0.292 1.323,0.448 0.17,0.061 0.341,0.078 0.518,0.081 0.177,0.005 0.368,0.164 0.407,0.334 C 7.297,0.049 7.279,0.094 7.258,0.119 7.226,0.157 7.182,0.184 7.142,0.214 6.629,0.595 6.58,0.477 6.203,0.242 5.849,0.022 5.487,-0.179 5.103,-0.343 4.893,-0.433 4.69,-0.44 4.479,-0.375 4.358,-0.339 4.24,-0.296 4.12,-0.256 3.989,-0.212 3.86,-0.163 3.728,-0.12 3.469,-0.036 3.217,-0.029 2.955,-0.137 2.7,-0.242 2.428,-0.306 2.166,-0.395 2.025,-0.443 1.901,-0.433 1.769,-0.359 1.34,-0.121 0.876,0.052 0.467,0.327 0.322,0.424 0.192,0.434 0.044,0.355 0,0.331 -0.047,0.312 -0.094,0.294 -0.374,0.188 -0.414,0.025 -0.3,-0.247 c 0.026,-0.062 0.066,-0.105 0.14,-0.103 0.051,0.001 0.101,0 0.16,0"
   style="fill-rule:nonzero"
   id="path706" />
            </g>
            <g
   transform="matrix(2,0,0,2,133.123,880.372)"
   id="g712">
                <path
   d="m 0,-0.415 c -0.154,0.267 -0.348,0.44 -0.58,0.574 -0.074,0.042 -0.142,0.035 -0.209,-0.018 -0.128,-0.102 -0.259,-0.201 -0.387,-0.303 -0.08,-0.064 -0.162,-0.118 -0.269,-0.125 -0.517,-0.032 -1.033,-0.067 -1.55,-0.026 -0.388,0.03 -0.729,0.193 -1.041,0.416 -0.289,0.208 -0.187,0.178 -0.543,0.091 -0.359,-0.087 -0.511,-0.339 -0.59,-0.664 -0.017,-0.069 0.042,-0.129 0.108,-0.109 0.192,0.06 0.387,0.114 0.573,0.191 0.169,0.07 0.317,0.053 0.467,-0.037 0.055,-0.033 0.115,-0.056 0.165,-0.094 0.2,-0.154 0.429,-0.195 0.674,-0.196 0.581,-0.001 1.161,-0.005 1.742,-0.01 0.09,-0.001 0.173,0.012 0.253,0.057 0.077,0.044 0.166,0.069 0.235,0.121 0.254,0.192 0.532,0.206 0.826,0.133 C -0.103,-0.42 -0.077,-0.415 0,-0.415"
   style="fill-rule:nonzero"
   id="path710" />
            </g>
            <g
   transform="matrix(2,0,0,2,122.092,845.212)"
   id="g716">
                <path
   d="m 0,-4.657 c 0.058,0.013 0.071,0.067 0.084,0.108 0.252,0.787 0.66,1.499 1.098,2.187 0.353,0.557 0.631,1.144 0.895,1.742 C 2.164,-0.424 2.195,-0.218 2.238,0 2.05,-0.055 1.944,-0.181 1.83,-0.298 1.6,-0.534 1.418,-0.808 1.249,-1.087 0.824,-1.787 0.419,-2.497 0.151,-3.275 0.122,-3.358 0.094,-3.442 0.066,-3.525 -0.053,-3.873 -0.072,-4.216 0,-4.657"
   style="fill-rule:nonzero"
   id="path714" />
            </g>
            <g
   transform="matrix(2,0,0,2,133.178,857.822)"
   id="g720">
                <path
   d="m 0,-2.906 c -0.103,0.064 -0.133,0.179 -0.184,0.276 -0.24,0.457 -0.484,0.911 -0.788,1.331 -0.119,0.163 -0.198,0.349 -0.286,0.53 -0.13,0.271 -0.271,0.537 -0.408,0.804 -0.005,0.009 -0.023,0.01 -0.037,0.015 -0.039,-0.113 -0.012,-0.223 0.025,-0.327 0.177,-0.498 0.356,-0.994 0.538,-1.49 0.06,-0.168 0.156,-0.313 0.285,-0.439 0.234,-0.229 0.461,-0.464 0.691,-0.696 0.053,-0.054 0.108,-0.053 0.162,-10e-4 -0.017,-0.01 -0.034,-0.021 -0.051,-0.031 0.018,0.01 0.035,0.019 0.053,0.028"
   style="fill-rule:nonzero"
   id="path718" />
            </g>
            <g
   transform="matrix(2,0,0,2,127.321,859.863)"
   id="g724">
                <path
   d="M 0,0.524 C 0.32,0.251 0.681,0.119 1.055,0.017 1.126,-0.002 1.179,0.025 1.222,0.074 1.289,0.148 1.355,0.226 1.414,0.307 1.491,0.416 1.452,0.506 1.322,0.516 1.197,0.526 1.07,0.523 0.944,0.523 0.63,0.525 0.315,0.524 0,0.524"
   style="fill-rule:nonzero"
   id="path722" />
            </g>
            <g
   transform="matrix(2,0,0,2,137.568,861.565)"
   id="g728">
                <path
   d="M 0,0.768 C 0.223,0.638 0.438,0.521 0.644,0.388 0.855,0.253 1.057,0.102 1.267,-0.044 1.226,0.229 1.081,0.431 0.87,0.514 0.66,0.597 0.45,0.679 0.239,0.759 0.169,0.787 0.096,0.812 0,0.768"
   style="fill-rule:nonzero"
   id="path726" />
            </g>
            <g
   transform="matrix(2,0,0,2,116.212,863.235)"
   id="g732">
                <path
   d="M 0,-0.964 C 0.187,-0.795 0.367,-0.62 0.561,-0.46 0.751,-0.304 0.953,-0.164 1.136,0 0.553,-0.072 0.198,-0.424 0,-0.964"
   style="fill-rule:nonzero"
   id="path730" />
            </g>
            <g
   transform="matrix(2,0,0,2,137.289,861.922)"
   id="g736">
                <path
   d="M 0,0.074 C 0.149,-0.01 0.313,0.019 0.472,0.014 0.434,0.065 0.379,0.084 0.318,0.084 0.212,0.082 0.106,0.077 0,0.074"
   style="fill:#f2f5f5;fill-rule:nonzero"
   id="path734" />
            </g>
            <g
   transform="matrix(2,0,0,2,121.98,873.44)"
   id="g740">
                <path
   d="m 0,-0.227 c 0.016,0.051 0.051,0.084 0.103,0.099 C 0.073,-0.053 0,-0.034 -0.064,-0.006 -0.078,0 -0.103,-0.016 -0.121,-0.027 -0.125,-0.03 -0.124,-0.05 -0.12,-0.058 -0.09,-0.122 -0.075,-0.196 0,-0.227"
   style="fill-rule:nonzero"
   id="path738" />
            </g>
            <g
   transform="matrix(2,0,0,2,111.973,843.922)"
   id="g744">
                <path
   d="M 0,0.172 C -0.052,0.132 -0.157,0.278 0.046,0.036 0.087,-0.01 0.134,-0.053 0.177,-0.097 L 0.184,-0.106 C 0.135,-0.02 0.086,0.067 0.038,0.154 0.039,0.155 0,0.172 0,0.172"
   style="fill-rule:nonzero"
   id="path742" />
            </g>
            <g
   transform="matrix(2,0,0,2,139.126,842.297)"
   id="g748">
                <path
   d="m 0,-3.684 c 0.329,0.125 0.505,0.242 0.719,0.442 0.278,0.259 0.502,0.565 0.728,0.868 0.317,0.425 0.586,0.881 0.874,1.325 0.216,0.335 0.146,0.646 -0.045,0.956 C 2.263,-0.072 2.242,-0.055 2.222,-0.042 2.178,-0.011 2.124,0 2.083,-0.031 2.058,-0.049 2.04,-0.099 2.045,-0.13 2.058,-0.217 2.086,-0.301 2.106,-0.387 2.154,-0.589 2.14,-0.782 2.052,-0.977 1.938,-1.23 1.81,-1.476 1.663,-1.71 1.225,-2.409 0.715,-3.046 0.082,-3.581 0.064,-3.596 0.051,-3.619 0,-3.684"
   style="fill-rule:nonzero"
   id="path746" />
            </g>
            <g
   transform="matrix(2,0,0,2,132.802,860.931)"
   id="g752">
                <path
   d="m 0,0.022 c 0.238,-0.183 0.457,-0.296 0.718,-0.313 0.08,-0.006 0.148,0.018 0.185,0.098 0.011,0.023 0.026,0.044 0.035,0.067 0.11,0.291 0.355,0.383 0.629,0.394 0.268,0.011 0.485,-0.117 0.641,-0.336 0.057,-0.082 0.104,-0.172 0.148,-0.263 0.05,-0.104 0.12,-0.157 0.239,-0.129 0.049,0.012 0.1,0.014 0.149,0.027 0.137,0.037 0.301,-0.027 0.414,0.107 C 3.114,-0.185 2.986,-0.114 2.895,-0.014 2.504,0.418 1.983,0.51 1.446,0.482 0.942,0.456 0.494,0.211 0,0.022"
   style="fill:#ffffff;fill-rule:nonzero"
   id="path750" />
            </g>
            <g
   transform="matrix(1.56412,-1.24641,-1.24641,-1.56412,132.386,861.407)"
   id="g756">
                <path
   d="M -0.009,0.026 H 0.073 C 0.068,0.02 0.061,0.006 0.057,0.006 0.035,0.012 0.013,0.02 -0.009,0.027 c -0.001,0.001 0,-0.001 0,-0.001"
   style="fill:#ffffff;fill-rule:nonzero"
   id="path754" />
            </g>
        </g>
    </g></g></svg>
