<?xml version="1.0" encoding="UTF-8" standalone="no"?>
<svg
   width="38.374859"
   height="35.846001"
   viewBox="0 0 38.374859 35.846001"
   version="1.1"
   xml:space="preserve"
   style="clip-rule:evenodd;fill-rule:evenodd;stroke-linejoin:round;stroke-miterlimit:2"
   id="svg350"
   sodipodi:docname="secret_door.svg"
   inkscape:version="1.1.1 (3bf5ae0d25, 2021-09-20)"
   xmlns:inkscape="http://www.inkscape.org/namespaces/inkscape"
   xmlns:sodipodi="http://sodipodi.sourceforge.net/DTD/sodipodi-0.dtd"
   xmlns="http://www.w3.org/2000/svg"
   xmlns:svg="http://www.w3.org/2000/svg"><defs
   id="defs354" /><sodipodi:namedview
   id="namedview352"
   pagecolor="#ffffff"
   bordercolor="#666666"
   borderopacity="1.0"
   inkscape:pageshadow="2"
   inkscape:pageopacity="0.0"
   inkscape:pagecheckerboard="0"
   showgrid="false"
   inkscape:zoom="22.944444"
   inkscape:cx="19.503632"
   inkscape:cy="18"
   inkscape:window-width="1920"
   inkscape:window-height="1012"
   inkscape:window-x="-8"
   inkscape:window-y="-8"
   inkscape:window-maximized="1"
   inkscape:current-layer="svg350" />
    <g
   transform="rotate(180,222.25993,518.411)"
   id="g348">
        <g
   id="g346">
            <g
   transform="matrix(-0.485071,-1.94029,-1.94029,0.485071,443.216,1035.4)"
   id="g4">
                <path
   d="M -0.028,-0.016 C -0.035,-0.004 -0.039,0 -0.044,0.011 c 0.011,0.009 0.004,0.001 0.016,0.018 0.01,-0.005 0.02,-0.011 0.029,-0.018 -0.017,-0.033 0.002,-0.017 -0.029,-0.027"
   style="fill:#ffffff;fill-rule:nonzero"
   id="path2" />
            </g>
            <g
   transform="matrix(2,0,0,2,441.709,1032.28)"
   id="g8">
                <path
   d="M 0,2.12 C -0.107,2.096 -0.222,2.141 -0.304,2.098 -0.311,2.082 -0.319,2.068 -0.326,2.052 -0.357,2.04 -0.487,2.074 -0.572,2.099 L -0.593,1.866 c 0.064,-0.005 0.121,-0.014 0.166,-0.028 0.008,-0.002 0.258,-0.022 0.258,-0.022 0.025,0.006 0.095,0.045 0.147,0.022 C -0.004,1.831 0.011,1.791 0.034,1.782 H 0.147 C 0.207,1.766 0.262,1.722 0.327,1.703 0.428,1.675 0.613,1.728 0.698,1.693 0.705,1.681 0.713,1.67 0.72,1.659 0.813,1.616 0.913,1.632 1.002,1.58 1.017,1.57 1.074,1.496 1.08,1.479 V 1.377 C 1.159,1.235 1.142,1.081 1.148,0.86 1.152,0.752 1.168,0.746 1.193,0.669 V 0.23 C 1.213,0.14 1.224,0.048 1.224,-0.046 H 1.385 V 0.623 C 1.385,0.868 1.368,1.127 1.373,1.355 1.375,1.44 1.426,1.56 1.396,1.67 1.377,1.738 1.318,1.795 1.294,1.85 1.273,1.899 1.297,1.948 1.272,1.985 1.239,2.006 1.171,1.997 1.137,2.019 1.113,2.054 1.116,2.084 1.08,2.109 1.015,2.159 0.816,2.131 0.709,2.131 0.486,2.131 0.201,2.166 0,2.12"
   style="fill:#811236;fill-rule:nonzero"
   id="path6" />
            </g>
            <g
   transform="matrix(-2,0,0,2,440.696,1033.26)"
   id="g12">
                <path
   d="m -0.079,0.09 h 0.034 C -0.028,0.044 -0.009,0.058 0,0 -0.022,0.004 -0.045,0.008 -0.068,0.012 -0.075,0.033 -0.078,0.055 -0.079,0.09"
   style="fill:#ffffff;fill-rule:nonzero"
   id="path10" />
            </g>
            <g
   transform="matrix(0.0261986,1.99983,1.99983,-0.0261986,435.245,1036.95)"
   id="g16">
                <path
   d="m -0.437,0.21 h 0.229 c 0,-0.219 -0.001,-0.438 -0.001,-0.656 l -0.24,0.006 c 0.005,0.215 0.009,0.432 0.012,0.65"
   style="fill:#811236;fill-rule:nonzero"
   id="path14" />
            </g>
            <g
   transform="matrix(2,0,0,2,435.675,1035.93)"
   id="g20">
                <path
   d="m 0,0.039 c -0.085,-0.051 -0.225,-0.171 -0.259,-0.27 h 0.012 c 0.015,-0.028 -0.005,-0.008 0.022,-0.023 0.038,0.023 0.11,-0.008 0.157,0.012 0.008,0.011 0.016,0.022 0.024,0.033 h 0.135 c 0.016,0.006 0.032,0.04 0.045,0.046 h 0.169 c 0.017,0.006 0.049,0.037 0.078,0.044 h 0.18 c 0.011,0.005 0.045,0.041 0.056,0.045 h 0.248 c 0.011,0.003 0.038,0.032 0.045,0.034 h 0.349 c 0.016,0.004 0.055,0.03 0.068,0.034 0.05,0.015 0.141,0.002 0.179,0.011 H 1.846 C 1.975,0.04 2.228,0.06 2.424,0.044 L 2.445,0.276 C 2.412,0.286 2.386,0.295 2.375,0.298 H 1.689 C 1.553,0.298 1.398,0.293 1.295,0.275 H 1.024 C 1.017,0.264 1.01,0.253 1.002,0.242 0.986,0.236 0.64,0.268 0.608,0.275 0.509,0.298 0.377,0.276 0.305,0.298 0.201,0.298 0.096,0.3 -0.008,0.301 L -0.011,0.073 C -0.007,0.061 -0.003,0.05 0,0.039"
   style="fill:#811236;fill-rule:nonzero"
   id="path18" />
            </g>
            <g
   transform="matrix(2,0,0,2,432.975,1032.29)"
   id="g24">
                <path
   d="M 0,0.125 C -0.019,0.077 -0.041,0.093 -0.046,0.024 -0.036,0.012 -0.041,0.02 -0.034,0 H 0 C 0.01,0.041 0.03,0.067 0.056,0.091 0.049,0.111 0.054,0.102 0.046,0.114 0.032,0.122 0.026,0.122 0,0.125"
   style="fill:#811236;fill-rule:nonzero"
   id="path22" />
            </g>
            <g
   transform="matrix(2,0,0,2,432.661,1030.6)"
   id="g28">
                <path
   d="M 0,0.09 C -0.017,0.097 -0.019,0.098 -0.045,0.101 -0.063,0.088 -0.095,0.082 -0.113,0.068 -0.122,0.054 -0.122,0.049 -0.125,0.022 c 0.011,-0.01 0.016,-0.019 0.024,-0.033 h 0.067 C -0.016,0.025 -0.004,0.033 0,0.09"
   style="fill:#811236;fill-rule:nonzero"
   id="path26" />
            </g>
            <g
   transform="matrix(-2,0,0,2,863.612,626.612)"
   id="g32">
                <rect
   x="215.892"
   y="203.336"
   width="0.022"
   height="0.022"
   style="fill:#811236"
   id="rect30" />
            </g>
            <g
   transform="matrix(2,0,0,2,430.701,1032.52)"
   id="g36">
                <path
   d="M 0,0.056 H -0.078 V 0.012 h 0.01 V 0 c 0.025,0.005 0.042,0.01 0.057,0.022 H 0 Z"
   style="fill:#811236;fill-rule:nonzero"
   id="path34" />
            </g>
            <g
   transform="matrix(-2,0,0,2,420.302,1033.19)"
   id="g40">
                <path
   d="m -0.09,0.079 h 0.046 C -0.03,0.037 -0.012,0.045 0,0 h -0.068 c -0.014,0.027 -0.02,0.032 -0.022,0.079"
   style="fill:#811236;fill-rule:nonzero"
   id="path38" />
            </g>
            <g
   transform="matrix(2,0,0,2,419.267,1035.28)"
   id="g44">
                <path
   d="M 0,-0.018 H 0.022 C 0.009,0 0.017,-0.005 0,-0.018"
   style="fill:#ffffff;fill-rule:nonzero"
   id="path42" />
            </g>
            <g
   transform="matrix(-2,0,0,2,832.908,629.54)"
   id="g48">
                <rect
   x="208.205"
   y="202.593"
   width="0.044"
   height="0.044"
   style="fill:#811236"
   id="rect46" />
            </g>
            <g
   transform="matrix(2,0,0,2,413.166,1034.07)"
   id="g52">
                <path
   d="M 0,0.079 H -0.034 C -0.054,0.05 -0.075,0.047 -0.09,0.011 -0.071,0.005 -0.063,0.002 -0.034,0 -0.021,0.017 -0.021,0.01 -0.011,0.034 -0.002,0.047 -0.002,0.053 0,0.079"
   style="fill:#811236;fill-rule:nonzero"
   id="path50" />
            </g>
            <g
   transform="matrix(-1.66786,-1.10373,-1.10373,1.66786,412.719,1035.17)"
   id="g56">
                <path
   d="m -0.045,-0.092 c -0.022,0.038 -0.02,0.048 -0.025,0.078 0.02,0.005 0.011,0.004 0.025,0.004 0.032,0.001 0.025,-10e-4 0.05,-0.035 -0.013,-0.017 -0.024,-0.028 -0.05,-0.047"
   style="fill:#811236;fill-rule:nonzero"
   id="path54" />
            </g>
            <g
   transform="matrix(2,0,0,2,412.289,1035.92)"
   id="g60">
                <path
   d="m 0,0.312 c -0.132,0 -0.268,-0.001 -0.403,-0.003 L -0.4,0.083 c 0.065,0 0.14,-0.007 0.186,-0.007 H 0.563 C 1.38,0.076 2.049,0.053 2.971,0.053 3.714,0.05 4.458,0.046 5.2,0.042 5.58,0.042 6.071,0.09 6.393,0.008 H 6.798 C 6.975,0.004 7.151,0.001 7.326,-0.003 7.361,-0.011 7.434,-0.056 7.485,-0.037 7.512,-0.028 7.516,0.012 7.552,0.019 7.582,0.004 7.628,-0.029 7.653,-0.037 h 0.282 c 0.179,0 0.263,0.015 0.394,0.045 h 0.236 c 0.051,0.017 0.064,0.034 0.158,0.034 0.804,10e-4 1.55,0.021 2.309,0.03 L 11.03,0.312 C 10.845,0.349 10.54,0.334 10.298,0.334 H 9.994 C 9.898,0.368 9.722,0.358 9.589,0.358 H 6.213 C 5.134,0.358 4.118,0.334 3.05,0.334 2.473,0.33 1.894,0.326 1.316,0.323 1.161,0.296 0.999,0.347 0.81,0.312 0.766,0.316 0.72,0.32 0.675,0.323 0.572,0.302 0.428,0.312 0.315,0.323 0.238,0.331 0.097,0.312 0,0.312"
   style="fill:#811236;fill-rule:nonzero"
   id="path58" />
            </g>
            <g
   transform="matrix(2,0,0,2,407.877,1031.35)"
   id="g64">
                <path
   d="m 0,-0.057 c 0.009,0.013 0.009,0.018 0.011,0.044 C 0.002,-0.001 0.007,-0.009 0,0.011 h -0.034 v -0.079 c 0.023,0.003 0.021,0.002 0.034,0.011"
   style="fill:#811236;fill-rule:nonzero"
   id="path62" />
            </g>
            <g
   transform="matrix(2,0,0,2,407.021,1034.07)"
   id="g68">
                <path
   d="M 0,0.046 H -0.022 C -0.019,0.02 -0.017,0.018 -0.011,0 -0.002,0.014 -0.002,0.02 0,0.046"
   style="fill:#811236;fill-rule:nonzero"
   id="path66" />
            </g>
            <g
   transform="matrix(2,0,0,2,407.044,1033.96)"
   id="g72">
                <path
   d="M 0,1.431 C -0.065,1.358 -0.158,1.348 -0.158,1.206 -0.15,1.194 -0.151,1.195 -0.147,1.172 -0.207,1.147 -0.255,1.096 -0.315,1.082 -0.319,1.059 -0.318,1.061 -0.327,1.048 -0.354,1.016 -0.422,0.984 -0.439,0.947 V 0 h 0.211 c 0,0.107 0.002,0.215 0.002,0.317 0.029,0.015 0.088,0.021 0.125,0.034 v 0.034 h -0.068 c -0.006,0.017 -0.009,0.027 -0.011,0.056 0.049,0.036 0.052,0.109 0.089,0.157 0.038,0.047 0.113,0.046 0.147,0.079 0.036,0.034 0.059,0.146 0.113,0.18 0.026,0.004 0.052,0.008 0.079,0.011 0.027,0.014 0.071,0.065 0.101,0.079 H 0.417 C 0.42,0.959 0.423,0.969 0.427,0.981 0.575,1.056 0.826,0.826 0.979,0.925 1.022,0.945 1.012,0.965 1.08,0.969 1.155,0.906 1.34,0.974 1.452,0.947 1.545,0.925 1.658,0.891 1.755,0.868 H 1.958 C 2.123,0.831 2.375,0.765 2.521,0.88 2.53,0.893 2.53,0.899 2.532,0.925 2.521,0.929 2.509,0.932 2.499,0.935 2.405,0.995 2.178,0.956 2.104,1.036 h -0.01 v 0.012 h 0.01 c 0.025,0.015 0.069,0.02 0.118,0.02 L 2.219,1.293 C 2.003,1.289 1.787,1.285 1.586,1.284 H 1.046 C 1.032,1.304 1.016,1.322 1.001,1.341 H 0.72 c -0.191,0.006 -0.427,0.001 -0.619,0 V 1.352 H 0.09 c 0.006,0.038 0.006,0.04 0,0.079 z"
   style="fill:#811236;fill-rule:nonzero"
   id="path70" />
            </g>
            <g
   transform="matrix(2,0,0,2,442.069,1027.5)"
   id="g76">
                <path
   d="M 0,0.079 H -0.079 V 0.023 C -0.068,0.019 -0.057,0.016 -0.046,0.011 -0.033,0.003 -0.035,0.005 -0.011,0 -0.004,0.021 -0.001,0.044 0,0.079"
   style="fill:#ffffff;fill-rule:nonzero"
   id="path74" />
            </g>
            <g
   transform="matrix(1.74177,-0.982978,-0.982978,-1.74177,436.925,1027.37)"
   id="g80">
                <ellipse
   cx="-0.046"
   cy="0.041000001"
   rx="0.067000002"
   ry="0.057999998"
   style="fill:#811236"
   id="ellipse78" />
            </g>
            <g
   transform="matrix(2,0,0,2,435.091,1004.38)"
   id="g84">
                <path
   d="M 0,1.442 C 0.011,1.438 0.022,1.434 0.034,1.431 V 1.329 C 0.045,1.325 0.056,1.322 0.068,1.317 V 1.228 C 0.095,1.151 0.161,1.096 0.169,0.992 0.134,0.957 0.078,0.9 0.068,0.845 0.144,0.837 0.245,0.821 0.326,0.845 0.38,0.861 0.48,0.903 0.574,0.879 0.643,0.861 0.804,0.822 0.867,0.789 0.871,0.778 0.874,0.767 0.878,0.755 H 0.911 C 0.934,0.74 0.946,0.69 0.968,0.676 0.983,0.667 1.037,0.668 1.046,0.666 V 0.632 C 1.144,0.634 1.147,0.671 1.238,0.676 1.261,0.633 1.332,0.555 1.385,0.541 c 0.018,0.01 0.029,0.003 0.067,0 C 1.463,0.527 1.475,0.511 1.486,0.496 1.46,0.473 1.482,0.464 1.463,0.428 1.449,0.403 1.343,0.327 1.328,0.305 V 0.26 C 1.279,0.171 1.197,0.103 1.125,0.035 1.077,-0.012 1.064,-0.1 0.979,-0.112 0.961,-0.086 0.96,-0.087 0.945,-0.089 0.92,-0.132 0.957,-0.216 0.934,-0.269 0.929,-0.281 0.895,-0.298 0.889,-0.314 V -0.382 C 0.882,-0.4 0.852,-0.42 0.844,-0.438 V -0.483 C 0.83,-0.509 0.804,-0.54 0.773,-0.573 l 0.142,-0.019 c 0.012,0.009 0.027,-0.002 0.042,0.008 0.037,0.025 0.041,0.063 0.067,0.101 0.024,0.036 0.11,0.126 0.147,0.147 0.02,0.011 0.043,-0.008 0.056,0.011 0.015,0.022 -0.003,0.058 0.011,0.078 0.014,0.021 0.051,0.017 0.068,0.034 0.114,0.128 0.208,0.27 0.326,0.395 0.038,0.04 0.135,0.085 0.158,0.135 V 0.97 C 1.699,1.001 1.454,1.291 1.385,1.374 1.314,1.458 1.21,1.518 1.137,1.599 1.003,1.749 0.862,1.893 0.72,2.036 L 0.627,1.943 C 0.655,1.916 0.679,1.886 0.687,1.847 0.637,1.768 0.744,1.703 0.766,1.656 V 1.577 C 0.771,1.564 0.798,1.518 0.81,1.498 0.893,1.37 1.028,1.278 1.08,1.115 1.041,1.101 1.006,1.087 0.979,1.059 0.825,1.06 0.836,1.105 0.743,1.127 0.711,1.134 0.544,1.067 0.506,1.059 0.344,1.312 0.089,1.542 -0.046,1.813 H -0.079 C -0.08,1.686 -0.034,1.632 0,1.554 Z"
   style="fill:#811236;fill-rule:nonzero"
   id="path82" />
            </g>
            <g
   transform="matrix(2,0,0,2,434.663,1009.92)"
   id="g88">
                <path
   d="m 0,-0.046 c -0.002,0.03 -0.005,0.039 -0.011,0.057 C -0.04,0.008 -0.049,0.005 -0.068,0 c 0.007,-0.036 0.011,-0.033 0.024,-0.057 h 0.033 v 0.011 z"
   style="fill:#ffffff;fill-rule:nonzero"
   id="path86" />
            </g>
            <g
   transform="matrix(2,0,0,2,434.078,1009.83)"
   id="g92">
                <path
   d="M 0,0.023 C -0.011,0.001 -0.005,0.014 0,-0.011 0.011,-0.008 0.022,-0.004 0.034,0 0.026,0.019 0.032,0.012 0.022,0.023 0.011,0.032 0.019,0.027 0,0.034 Z"
   style="fill:#ffffff;fill-rule:nonzero"
   id="path90" />
            </g>
            <g
   transform="matrix(2,0,0,2,433.154,1003.2)"
   id="g96">
                <path
   d="M 0,-0.018 H 0.023 C 0.01,0 0.018,-0.005 0,-0.018"
   style="fill:#ffffff;fill-rule:nonzero"
   id="path94" />
            </g>
            <g
   transform="matrix(2,0,0,2,432.296,1008.49)"
   id="g100">
                <path
   d="M 0,1.889 C 0.066,1.818 0.13,1.705 0.171,1.639 0.186,1.614 0.235,1.596 0.25,1.572 V 1.526 C 0.268,1.512 0.287,1.497 0.306,1.481 0.348,1.413 0.371,1.332 0.419,1.268 0.429,1.264 0.441,1.26 0.452,1.256 V 1.2 C 0.465,1.172 0.515,1.147 0.531,1.121 0.557,1.079 0.56,1.016 0.587,0.975 0.598,0.971 0.61,0.968 0.621,0.964 0.625,0.941 0.629,0.919 0.632,0.897 0.685,0.809 0.769,0.707 0.801,0.603 0.722,0.576 0.695,0.56 0.699,0.446 0.813,0.408 0.942,0.313 1.072,0.333 V 0.379 C 1.037,0.406 0.973,0.483 0.959,0.524 H 0.97 C 0.985,0.535 0.997,0.535 1.026,0.536 1.054,0.502 1.133,0.464 1.173,0.446 H 1.24 C 1.251,0.441 1.255,0.406 1.262,0.401 H 1.341 C 1.345,0.39 1.348,0.379 1.352,0.367 H 1.42 C 1.446,0.355 1.474,0.304 1.499,0.288 1.54,0.263 1.581,0.257 1.622,0.232 1.626,0.221 1.63,0.21 1.634,0.199 H 1.679 C 1.775,0.14 1.856,0.036 1.938,-0.038 1.964,-0.061 1.996,-0.084 2.024,-0.11 l 0.094,0.092 C 2.081,0.021 2.043,0.06 2.005,0.097 1.805,0.3 1.595,0.487 1.409,0.705 1.383,0.735 1.301,0.779 1.274,0.806 1.247,0.833 1.235,0.883 1.207,0.907 1.181,0.929 1.145,0.927 1.128,0.953 V 0.986 C 1.081,1.059 0.979,1.099 0.925,1.167 0.742,1.392 0.513,1.573 0.317,1.786 0.252,1.857 0.185,1.929 0.118,1.999 Z M 0.891,0.66 c -0.005,0.025 -0.011,0.012 0,0.034 V 0.705 C 0.91,0.698 0.902,0.703 0.913,0.694 0.923,0.682 0.917,0.69 0.925,0.671 0.913,0.667 0.903,0.663 0.891,0.66 m 0.248,0 C 1.126,0.684 1.123,0.681 1.116,0.716 1.134,0.722 1.143,0.725 1.173,0.728 1.178,0.709 1.181,0.701 1.183,0.671 H 1.173 V 0.66 Z"
   style="fill:#811236;fill-rule:nonzero"
   id="path98" />
            </g>
            <g
   transform="matrix(2,0,0,2,431.646,1026.55)"
   id="g104">
                <path
   d="m 0,-0.1 c 0.041,0.011 0.083,0.023 0.125,0.034 C 0.12,-0.04 0.119,-0.038 0.113,-0.021 0.044,-0.018 -0.009,0 -0.044,-0.032 H -0.056 C -0.041,-0.071 -0.021,-0.071 0,-0.1"
   style="fill:#ffffff;fill-rule:nonzero"
   id="path102" />
            </g>
            <g
   transform="matrix(2,0,0,2,430.792,1028.62)"
   id="g108">
                <path
   d="m 0,-0.079 v 0.046 C -0.02,-0.024 -0.041,-0.014 -0.056,0 -0.076,-0.007 -0.068,-0.002 -0.079,-0.011 H -0.09 c 0.006,-0.017 0.008,-0.02 0.011,-0.045 0.028,-0.015 0.032,-0.02 0.079,-0.023"
   style="fill:#ffffff;fill-rule:nonzero"
   id="path106" />
            </g>
            <g
   transform="matrix(2,0,0,2,430.41,1012.78)"
   id="g112">
                <path
   d="M 0,-0.056 C 0.011,-0.06 0.022,-0.064 0.034,-0.067 0.043,-0.075 0.059,-0.082 0.068,-0.09 0.093,-0.052 0.066,-0.013 0.056,0.022 0.037,0.03 0.046,0.025 0.034,0.034 0.014,0.027 0.022,0.032 0.011,0.022 -0.017,0.006 -0.01,0.009 -0.011,-0.034 -0.003,-0.045 -0.008,-0.037 0,-0.056"
   style="fill:#811236;fill-rule:nonzero"
   id="path110" />
            </g>
            <g
   transform="matrix(2,0,0,2,429.958,1013.21)"
   id="g116">
                <path
   d="M 0,0.033 C 0.096,0.022 0.128,-0.029 0.192,-0.068 v 0.022 C 0.139,0.015 0.133,0.095 0.023,0.101 0.019,0.089 0.016,0.077 0.011,0.067 0.003,0.054 0.005,0.056 0,0.033"
   style="fill:#811236;fill-rule:nonzero"
   id="path114" />
            </g>
            <g
   transform="matrix(2,0,0,2,429.125,1014.38)"
   id="g120">
                <path
   d="M 0,0.022 H -0.011 V 0 C -0.002,0.011 -0.007,0.003 0,0.022"
   style="fill:#ffffff;fill-rule:nonzero"
   id="path118" />
            </g>
            <g
   transform="matrix(-0.423308,1.95469,1.95469,0.423308,428.45,1008.64)"
   id="g124">
                <path
   d="m 0.079,-0.097 v 0.16 z"
   style="fill:#ffffff"
   id="path122" />
            </g>
            <g
   transform="matrix(0,2,2,0,428.519,1015.25)"
   id="g128">
                <path
   d="m -0.057,-0.001 h 0.058 v -0.044 c -0.018,-0.007 -0.02,-0.008 -0.047,-0.012 -0.005,0.018 -0.008,0.028 -0.011,0.056"
   style="fill:#811236;fill-rule:nonzero"
   id="path126" />
            </g>
            <g
   transform="matrix(2,0,0,2,427.302,1030.22)"
   id="g132">
                <path
   d="m 0,0.327 c 0.022,-0.18 0.478,-0.223 0.574,-0.383 0.011,0.004 0.023,0.008 0.033,0.012 -0.008,0.061 -0.036,0.235 0,0.292 C 0.589,0.338 0.496,0.322 0.45,0.383 H 0.068 C 0.048,0.374 0.025,0.34 0,0.327"
   style="fill:#ffffff;fill-rule:nonzero"
   id="path130" />
            </g>
            <g
   transform="matrix(2,0,0,2,427.549,1019.26)"
   id="g136">
                <path
   d="M 0,0.349 C -0.024,0.273 0.005,0.221 -0.034,0.169 -0.035,0.05 -0.053,-0.132 -0.011,-0.214 -0.003,-0.21 0.004,-0.207 0.011,-0.202 0.016,-0.021 0.072,0.165 0.113,0.315 0.133,0.389 0.106,0.428 0.147,0.472 0.148,0.505 0.148,0.534 0.136,0.551 0.125,0.56 0.133,0.555 0.113,0.563 0.08,0.494 0.023,0.417 0,0.349"
   style="fill:#ffffff;fill-rule:nonzero"
   id="path134" />
            </g>
            <g
   transform="matrix(2,0,0,2,427.144,1028.85)"
   id="g140">
                <path
   d="M 0,0.281 C 0,0.129 0.046,0.077 0.101,-0.011 0.144,0.018 0.168,0.016 0.226,0.034 0.24,0.077 0.237,0.11 0.271,0.136 0.272,0.174 0.274,0.225 0.259,0.247 0.202,0.282 0.116,0.236 0.079,0.292 0.044,0.292 0.021,0.289 0,0.281"
   style="fill:#ffffff;fill-rule:nonzero"
   id="path138" />
            </g>
            <g
   transform="matrix(2,0,0,2,427.19,1029.91)"
   id="g144">
                <path
   d="m 0,-0.09 h 0.011 c -0.007,0.063 -0.031,0.059 -0.056,0.101 -0.041,0 -0.077,-0.003 -0.102,-0.011 0.011,-0.079 0.075,-0.053 0.113,-0.101 H 0 Z"
   style="fill:#ffffff;fill-rule:nonzero"
   id="path142" />
            </g>
            <g
   transform="matrix(2,0,0,2,427.009,1024.1)"
   id="g148">
                <path
   d="m 0,-0.009 c -0.073,-0.049 -0.148,-0.15 -0.213,-0.214 -0.057,-0.056 -0.224,-0.199 -0.226,-0.26 0.113,0.024 0.183,0.123 0.27,0.169 0.27,0.147 0.498,0.291 0.665,0.541 0.014,0.023 0.046,0.017 0.067,0.034 l 0.045,0.09 C 0.64,0.393 0.698,0.397 0.72,0.452 H 0.732 V 0.463 H 0.72 V 0.474 C 0.59,0.46 0.517,0.333 0.428,0.272 H 0.383 C 0.34,0.247 0.299,0.19 0.259,0.16 H 0.226 C 0.189,0.135 0.137,0.089 0.101,0.059 0.098,0.047 0.095,0.035 0.091,0.025 0.061,0.002 0.03,0.01 0,-0.009"
   style="fill:#ffffff;fill-rule:nonzero"
   id="path146" />
            </g>
            <g
   transform="matrix(2,0,0,2,426.425,1024.14)"
   id="g152">
                <path
   d="m 0,-1.507 c 0.004,-0.026 0.005,-0.028 0.011,-0.046 h 0.034 c 0.028,0.054 0.2,0.247 0.247,0.282 0.021,0.016 0.077,0.025 0.091,0.045 0.022,0.033 0.012,0.07 0.034,0.102 0.017,0.025 0.061,0.042 0.078,0.067 0.155,0.231 0.331,0.432 0.495,0.652 0.032,0.044 0.09,0.073 0.124,0.113 0.077,0.093 0.15,0.224 0.248,0.293 C 1.357,0.025 1.359,0.022 1.35,0.035 V 0.046 C 1.252,0.009 1.037,-0.268 0.968,-0.359 0.781,-0.609 0.553,-0.838 0.371,-1.09 0.288,-1.206 0.114,-1.435 0,-1.507"
   style="fill:#ffffff;fill-rule:nonzero"
   id="path150" />
            </g>
            <g
   transform="matrix(2,0,0,2,426.492,1029.8)"
   id="g156">
                <path
   d="M 0,-0.023 C -0.009,0.004 -0.011,0.003 -0.022,0.022 H -0.045 V 0.011 h -0.011 c 0.002,-0.029 0.005,-0.038 0.011,-0.056 0.026,0.008 0.025,0.011 0.045,0.022"
   style="fill:#ffffff;fill-rule:nonzero"
   id="path154" />
            </g>
            <g
   transform="matrix(2,0,0,2,426.02,1021.8)"
   id="g160">
                <path
   d="m 0,-0.754 c -0.024,-0.024 0.095,-0.15 0.123,-0.169 -0.006,-0.117 -0.031,-0.281 0.012,-0.383 0.066,0.045 0.013,0.075 0.045,0.157 0.018,0.046 0.052,0.025 0.056,0.102 0.011,-0.01 0.016,-0.02 0.022,-0.034 0.095,0.02 0.189,0.314 0.237,0.406 0.079,0.149 0.137,0.315 0.214,0.472 0.024,0.049 0.085,0.1 0.113,0.146 C 0.868,0.021 0.904,0.147 0.957,0.214 0.968,0.217 0.979,0.221 0.99,0.225 1.041,0.316 1.074,0.454 1.147,0.518 1.141,0.537 1.146,0.529 1.137,0.54 V 0.552 H 1.125 C 1.077,0.479 1.007,0.417 0.957,0.349 0.861,0.22 0.778,0.088 0.675,-0.034 0.639,-0.076 0.574,-0.1 0.54,-0.147 0.454,-0.264 0.382,-0.382 0.281,-0.484 0.194,-0.574 0.071,-0.652 0,-0.754"
   style="fill:#ffffff;fill-rule:nonzero"
   id="path158" />
            </g>
            <g
   transform="matrix(2,0,0,2,426.178,1028.72)"
   id="g164">
                <path
   d="m 0,0.04 c -0.001,-0.063 -0.005,-0.145 0.011,-0.191 0.047,0.004 0.048,0.005 0.067,0.034 0.094,-0.002 0.211,-0.009 0.27,0.022 C 0.351,0.059 0.351,0.1 0.292,0.187 0.038,0.191 0.125,0.133 0,0.04"
   style="fill:#ffffff;fill-rule:nonzero"
   id="path162" />
            </g>
            <g
   transform="matrix(2,0,0,2,425.322,1027.09)"
   id="g168">
                <path
   d="M 0,-0.033 C 0.089,-0.035 0.143,-0.029 0.192,0.001 0.184,0.012 0.176,0.024 0.169,0.035 0.095,0.036 -0.044,0.014 -0.123,-0.019 -0.157,-0.033 -0.18,-0.049 -0.18,-0.067 -0.103,-0.069 -0.038,-0.069 0,-0.033"
   style="fill:#ffffff;fill-rule:nonzero"
   id="path166" />
            </g>
            <g
   transform="matrix(2,0,0,2,425.075,1028.49)"
   id="g172">
                <path
   d="M 0,0.046 C -0.031,0.045 -0.052,0.045 -0.068,0.035 -0.076,0.016 -0.073,0.023 -0.069,0.01 -0.069,0.007 -0.068,0.005 -0.068,0 H 0 V 0.012 H 0.011 C 0.008,0.023 0.004,0.035 0,0.046"
   style="fill:#ffffff;fill-rule:nonzero"
   id="path170" />
            </g>
            <g
   transform="matrix(2,0,0,2,424.94,1030.97)"
   id="g176">
                <path
   d="M 0,-1.467 C -0.004,-1.541 0.044,-1.602 -0.011,-1.68 -0.023,-1.69 -0.014,-1.684 -0.034,-1.692 l 0.102,-0.267 c 0.079,0.033 0.218,0.055 0.292,0.053 l 0.131,0.21 c -0.025,0.012 -0.039,0.038 -0.041,0.106 0.064,0.036 0.076,0.14 0.135,0.169 h 0.214 c 0.048,0.06 0.136,0.011 0.214,0.045 0.014,0.005 0.034,0.038 0.056,0.045 h 0.124 c 0.012,0.005 0.028,0.039 0.044,0.044 H 1.35 c 0.008,0.012 0.016,0.024 0.023,0.034 h 0.102 c 0.236,0.098 0.492,0.185 0.731,0.282 H 2.453 C 2.458,-0.983 2.461,-0.993 2.465,-1.005 H 2.589 C 2.605,-1.011 2.62,-1.045 2.634,-1.05 h 0.078 c 0.049,-0.021 0.129,-0.074 0.18,-0.09 h 0.079 c 0.007,-0.011 0.015,-0.022 0.022,-0.034 h 0.293 c 0.004,0.012 0.007,0.023 0.011,0.034 h 0.08 c 0.058,0.027 0.054,0.083 0.146,0.09 0.083,-0.052 0.193,-0.031 0.304,-0.056 0.144,-0.034 0.326,-0.084 0.483,-0.09 v 0.011 h 0.012 v 0.023 c -0.008,0.003 -0.015,0.007 -0.023,0.011 -0.035,0.024 -0.074,0.004 -0.124,0.023 -0.095,0.034 -0.234,0.069 -0.338,0.101 -0.109,0.032 -0.206,0.012 -0.303,0.044 0.075,0.293 0.258,0.416 0.439,0.597 0.169,0.169 0.336,0.363 0.529,0.506 0.087,0.065 0.385,0.271 0.417,0.36 H 4.907 C 4.893,0.49 4.887,0.489 4.862,0.492 4.763,0.397 4.641,0.346 4.524,0.267 4.387,0.174 4.275,0.041 4.141,-0.06 4.05,-0.129 3.987,-0.277 3.871,-0.318 3.831,-0.277 3.785,-0.321 3.748,-0.341 3.644,-0.396 3.465,-0.462 3.444,-0.588 3.453,-0.6 3.448,-0.591 3.456,-0.611 3.409,-0.646 3.369,-0.718 3.32,-0.747 H 3.275 C 3.259,-0.753 3.254,-0.784 3.241,-0.791 H 3.184 C 3.178,-0.802 3.17,-0.814 3.162,-0.825 3.129,-0.829 3.095,-0.832 3.061,-0.836 3.049,-0.842 3.033,-0.876 3.016,-0.882 H 2.847 C 2.812,-0.892 2.793,-0.911 2.735,-0.915 2.525,-0.55 1.749,-0.386 1.745,0.143 1.404,0.146 1.044,0.146 0.776,0.087 0.76,0.017 0.712,-0.018 0.687,-0.071 V -0.127 C 0.681,-0.139 0.647,-0.141 0.641,-0.15 V -0.217 C 0.602,-0.293 0.525,-0.378 0.484,-0.453 0.48,-0.479 0.477,-0.506 0.472,-0.532 0.461,-0.536 0.45,-0.54 0.439,-0.544 V -0.622 C 0.422,-0.665 0.374,-0.727 0.36,-0.769 V -0.836 C 0.323,-0.919 0.273,-1.01 0.281,-1.106 0.219,-1.141 0.166,-1.19 0.078,-1.196 0.077,-1.194 0.076,-1.193 0.073,-1.191 L 0.068,-1.196 C 0.071,-1.208 0.075,-1.219 0.078,-1.23 H 0.068 V -1.241 H 0 c -0.001,0.003 -0.002,0.006 -0.002,0.008 v -0.234 z m 0.754,0.901 C 0.765,-0.586 0.768,-0.584 0.776,-0.611 0.756,-0.622 0.757,-0.625 0.731,-0.634 0.725,-0.615 0.722,-0.607 0.72,-0.578 h 0.011 v 0.012 z M 0.63,-1.275 C 0.614,-1.229 0.618,-1.148 0.619,-1.084 0.744,-0.99 0.657,-0.933 0.911,-0.938 0.97,-1.024 0.97,-1.065 0.967,-1.219 0.908,-1.25 0.791,-1.243 0.697,-1.241 0.678,-1.27 0.677,-1.271 0.63,-1.275 m 0.462,0.641 c -0.039,0.048 -0.103,0.023 -0.113,0.102 0.025,0.008 0.061,0.011 0.101,0.011 0.025,-0.042 0.049,-0.038 0.056,-0.101 H 1.125 v -0.012 z m 0.112,-0.438 c -0.055,0.088 -0.102,0.139 -0.102,0.292 0.022,0.007 0.045,0.01 0.079,0.011 0.037,-0.057 0.123,-0.01 0.181,-0.045 C 1.376,-0.836 1.374,-0.887 1.373,-0.926 1.34,-0.951 1.343,-0.985 1.328,-1.027 1.27,-1.045 1.246,-1.044 1.204,-1.072 m 0.045,1.08 H 1.632 C 1.677,-0.053 1.771,-0.038 1.789,-0.127 1.752,-0.184 1.78,-0.358 1.789,-0.42 1.778,-0.423 1.767,-0.427 1.755,-0.431 1.66,-0.271 1.204,-0.229 1.181,-0.048 1.207,-0.035 1.23,-0.001 1.249,0.008"
   style="fill:#811236;fill-rule:nonzero"
   id="path174" />
            </g>
            <g
   transform="matrix(2,0,0,2,424.916,1027.61)"
   id="g180">
                <path
   d="M 0,0.228 C -0.058,0.231 -0.119,0.236 -0.147,0.206 -0.156,0.188 -0.157,0.157 -0.169,0.127 -0.113,0.096 -0.052,0.051 -0.022,-0.008 -0.003,-0.001 -0.011,-0.006 0,0.003 0.055,0.081 0.008,0.142 0.011,0.217 H 0 Z"
   style="fill:#ffffff;fill-rule:nonzero"
   id="path178" />
            </g>
            <g
   transform="matrix(2,0,0,2,424.353,1028.08)"
   id="g184">
                <path
   d="M 0,0.056 C -0.056,0.043 -0.035,0.037 -0.011,0 0.009,0.007 0,0.002 0.011,0.012 h 0.012 v 0.01 H 0.011 C 0.008,0.034 0.004,0.045 0,0.056"
   style="fill:#ffffff;fill-rule:nonzero"
   id="path182" />
            </g>
            <g
   transform="matrix(2,0,0,2,423.408,1027.95)"
   id="g188">
                <path
   d="M 0,-0.057 C -0.009,-0.073 -0.005,-0.102 0.011,-0.125 0.02,-0.132 0.037,-0.139 0.046,-0.147 0.14,-0.104 0.197,-0.03 0.282,0.022 0.274,0.041 0.28,0.034 0.27,0.044 0.229,0.07 0.187,0.051 0.158,0.09 0.101,0.078 0.018,-0.007 0,-0.057"
   style="fill:#ffffff;fill-rule:nonzero"
   id="path186" />
            </g>
            <g
   transform="matrix(2,0,0,2,423.476,1019.15)"
   id="g192">
                <path
   d="M 0,0.034 V -0.011 H 0.079 C 0.085,0.006 0.087,0.008 0.091,0.034 0.072,0.04 0.063,0.043 0.034,0.045 0.022,0.037 0.023,0.038 0,0.034"
   style="fill:#811236;fill-rule:nonzero"
   id="path190" />
            </g>
            <g
   transform="matrix(2,0,0,2,423.904,1025)"
   id="g196">
                <path
   d="M 0,0.393 C -0.15,0.337 -0.307,0.126 -0.462,0.045 -0.458,0.019 -0.456,0.017 -0.45,0 -0.351,0.007 -0.246,0.122 -0.157,0.157 -0.118,0.173 -0.064,0.15 -0.034,0.168 0,0.226 -0.046,0.311 0.011,0.349 0.007,0.372 0.009,0.37 0,0.382 Z"
   style="fill:#ffffff;fill-rule:nonzero"
   id="path194" />
            </g>
            <g
   transform="matrix(1.98327,-0.258177,-0.258177,-1.98327,423.565,1019.8)"
   id="g200">
                <path
   d="m -0.011,0.001 c -0.019,0.05 -0.036,0.062 -0.027,0.14 0.011,0.01 0.017,0.017 0.027,0.031 C 0.02,0.152 0.053,0.062 0.047,0.005 0.028,0.001 0.018,0 -0.011,0.001"
   style="fill:#811236;fill-rule:nonzero"
   id="path198" />
            </g>
            <g
   transform="matrix(2,0,0,2,422.868,1027.39)"
   id="g204">
                <path
   d="m 0,-0.169 c 0.067,-0.041 0.188,-0.016 0.236,-0.079 0.056,0.005 0.05,0.022 0.08,0.033 h 0.112 c 0.007,0.012 0.015,0.024 0.022,0.035 h 0.124 c 0.007,0.011 0.015,0.022 0.023,0.033 0.026,0.016 0.068,-0.005 0.101,0.012 0.014,0.006 0.025,0.034 0.045,0.045 C 0.744,0.052 0.662,0.006 0.597,0.079 0.366,0.037 0.165,-0.043 -0.011,-0.135 -0.007,-0.158 -0.009,-0.156 0,-0.169"
   style="fill:#ffffff;fill-rule:nonzero"
   id="path202" />
            </g>
            <g
   transform="matrix(2,0,0,2,423.161,1030.25)"
   id="g208">
                <path
   d="m 0,-0.023 c -0.008,0.019 -0.002,0.011 -0.011,0.022 -0.016,0.011 -0.037,0.012 -0.068,0.012 v -0.012 h -0.012 v -0.033 c 0.038,0 0.068,0.002 0.091,0.011"
   style="fill:#811236;fill-rule:nonzero"
   id="path206" />
            </g>
            <g
   transform="matrix(2,0,0,2,422.845,1020.77)"
   id="g212">
                <path
   d="m 0,-0.156 c 0.057,0 0.075,0.002 0.091,0.044 C 0.167,-0.11 0.162,-0.124 0.18,-0.179 0.243,-0.161 0.284,-0.133 0.327,-0.1 0.303,-0.059 0.279,-0.023 0.259,0.023 0.215,0.019 0.194,0.012 0.169,-0.01 0.093,-0.008 -0.063,0.009 -0.101,-0.033 H -0.112 V -0.044 C -0.068,-0.071 -0.026,-0.112 0,-0.156"
   style="fill:#ffffff;fill-rule:nonzero"
   id="path210" />
            </g>
            <g
   transform="matrix(2,0,0,2,422.531,1021.4)"
   id="g216">
                <path
   d="M 0,-0.012 C -0.008,-0.001 -0.016,0.01 -0.022,0.022 H -0.046 V 0.01 h -0.01 c 0.008,-0.026 0.012,-0.025 0.022,-0.044 0.012,0.008 0.023,0.014 0.034,0.022"
   style="fill:#ffffff;fill-rule:nonzero"
   id="path214" />
            </g>
            <g
   transform="matrix(2,0,0,2,422.014,1013.54)"
   id="g220">
                <path
   d="M 0,0.023 C -0.011,0.002 -0.005,0.015 0,-0.011 h 0.034 v 0.012 h 0.01 C 0.041,0.012 0.037,0.023 0.034,0.034 0.011,0.03 0.011,0.032 0,0.023"
   style="fill:#ffffff;fill-rule:nonzero"
   id="path218" />
            </g>
            <g
   transform="matrix(2,0,0,2,421.315,1027.53)"
   id="g224">
                <path
   d="M 0,0.196 C -0.003,0.192 -0.004,0.119 -0.011,0.095 0.002,0.085 0.001,0.086 0.011,0.073 H 0.236 C 0.239,0.007 0.242,-0.028 0.202,-0.052 0.211,-0.078 0.214,-0.077 0.225,-0.096 0.466,-0.095 0.598,-0.025 0.743,0.073 0.812,0.119 0.845,0.21 0.923,0.252 0.913,0.279 0.918,0.271 0.9,0.287 0.889,0.292 0.786,0.268 0.743,0.264 0.685,0.258 0.647,0.233 0.608,0.218 H 0.506 C 0.396,0.193 0.355,0.186 0.304,0.106 H 0.27 C 0.269,0.134 0.268,0.148 0.259,0.162 0.246,0.169 0.18,0.168 0.157,0.15 c -0.034,0 -0.07,0 -0.089,0.012 -0.009,0.015 -0.002,0.011 0,0.045 H 0.056 V 0.218 C 0.016,0.215 0.018,0.218 0,0.196"
   style="fill:#ffffff;fill-rule:nonzero"
   id="path222" />
            </g>
            <g
   transform="matrix(2,0,0,2,421.406,1026.97)"
   id="g228">
                <path
   d="M 0,0.131 C -0.061,0.132 -0.137,0.135 -0.18,0.12 -0.179,0.056 -0.166,0.038 -0.147,-0.004 H 0 V 0.008 H 0.011 C 0.011,0.053 0.01,0.101 0,0.131"
   style="fill:#ffffff;fill-rule:nonzero"
   id="path226" />
            </g>
            <g
   transform="matrix(2,0,0,2,421.045,1018.98)"
   id="g232">
                <path
   d="m 0,-0.083 v 0.078 H -0.023 C -0.033,-0.003 -0.047,0 -0.068,-0.015 -0.077,-0.027 -0.071,-0.019 -0.079,-0.039 -0.046,-0.064 -0.058,-0.077 0,-0.083"
   style="fill:#811236;fill-rule:nonzero"
   id="path230" />
            </g>
            <g
   transform="matrix(2,0,0,2,419.425,1024.64)"
   id="g236">
                <path
   d="M 0,0.057 C 0.016,0.014 0.043,0.011 0.068,-0.022 0.096,-0.02 0.105,-0.017 0.123,-0.011 0.119,0.013 0.12,0.011 0.112,0.023 0.1,0.031 0.101,0.03 0.078,0.034 V 0.068 H 0.068 V 0.079 C 0.025,0.075 0.025,0.07 0,0.057"
   style="fill:#ffffff;fill-rule:nonzero"
   id="path234" />
            </g>
            <g
   transform="matrix(0,2,2,0,419.233,1016.62)"
   id="g240">
                <path
   d="m -0.028,0.017 h 0.022 v -0.045 h -0.033 c 0.002,0.026 0.004,0.028 0.011,0.045"
   style="fill:#ffffff;fill-rule:nonzero"
   id="path238" />
            </g>
            <g
   transform="matrix(2,0,0,2,418.501,1027.72)"
   id="g244">
                <path
   d="M 0,-0.012 -0.011,0.011 C -0.058,0.001 -0.046,0.008 -0.046,-0.023 h 0.035 v 0.011 z"
   style="fill:#ffffff;fill-rule:nonzero"
   id="path242" />
            </g>
            <g
   transform="matrix(2,0,0,2,417.421,1002.55)"
   id="g248">
                <path
   d="M 0,8.806 C -0.004,8.795 -0.003,8.753 -0.011,8.738 -0.022,8.735 -0.034,8.731 -0.045,8.727 V 8.637 C -0.051,8.565 -0.079,8.505 -0.135,8.479 V 8.266 C -0.142,8.239 -0.175,8.2 -0.18,8.175 -0.204,8.076 -0.146,7.947 -0.214,7.895 -0.196,7.813 -0.036,7.704 0.022,7.647 0.055,7.614 0.077,7.563 0.113,7.534 0.207,7.458 0.297,7.372 0.383,7.286 0.435,7.234 0.487,7.157 0.552,7.117 0.649,7.058 0.842,6.972 0.9,6.881 0.93,6.884 0.938,6.886 0.957,6.893 V 6.96 C 1.012,6.955 1.025,6.939 1.046,6.904 1.056,6.893 1.051,6.901 1.058,6.881 1.049,6.869 1.054,6.878 1.046,6.859 1.012,6.866 1.019,6.861 1.002,6.881 0.979,6.877 0.98,6.878 0.968,6.87 0.967,6.869 0.945,6.87 0.957,6.859 H 0.968 C 1.016,6.794 1.123,6.768 1.193,6.724 1.205,6.705 1.215,6.686 1.227,6.668 1.264,6.646 1.295,6.658 1.328,6.634 1.57,6.449 1.831,6.281 1.981,6.004 1.992,6 2.003,5.996 2.015,5.992 2.06,5.932 2.145,5.734 2.128,5.688 2.156,5.67 2.197,5.65 2.217,5.621 2.271,5.63 2.278,5.657 2.296,5.7 H 2.341 C 2.346,5.677 2.344,5.678 2.352,5.666 2.359,5.516 2.548,5.434 2.622,5.339 2.681,5.265 2.796,5.19 2.836,5.114 2.857,5.076 2.845,5.033 2.881,5.013 2.928,4.987 2.963,5.004 2.993,4.968 3.066,4.885 3.129,4.76 3.219,4.698 3.282,4.653 3.383,4.643 3.432,4.586 3.45,4.568 3.374,4.484 3.354,4.461 3.367,4.365 3.652,4.153 3.726,4.078 3.791,4.013 3.835,3.927 3.894,3.854 3.923,3.817 3.974,3.797 4.006,3.764 4.256,3.507 4.465,3.293 4.828,3.145 h 0.135 c 0.123,-0.005 0.243,-0.002 0.383,0 V 3.1 C 5.321,3.088 5.296,3.062 5.278,3.055 H 5.211 C 5.203,3.044 5.196,3.032 5.189,3.021 5.101,2.985 4.957,3.053 4.885,3.01 4.873,3.006 4.862,3.002 4.851,2.998 4.885,2.837 5.178,2.644 5.29,2.537 5.394,2.436 5.503,2.337 5.605,2.233 5.632,2.205 5.652,2.154 5.683,2.131 5.8,2.047 5.932,1.95 6.032,1.851 6.193,1.693 6.408,1.412 6.606,1.31 6.615,1.27 6.619,1.218 6.618,1.164 6.999,1.02 7.425,0.586 7.664,0.286 7.744,0.186 7.865,0.114 7.946,0.016 v -0.034 c 0.017,-0.023 0.059,-0.034 0.079,-0.056 0.059,-0.071 0.109,-0.168 0.18,-0.225 0.044,-0.036 0.242,-0.154 0.293,-0.169 0.075,-0.023 0.253,0.018 0.296,-0.028 0.104,0.022 0.132,0.119 0.198,0.185 0.144,0.144 0.266,0.303 0.406,0.451 0.048,0.051 0.142,0.13 0.21,0.203 0.031,0.032 0.057,0.063 0.071,0.089 v 0.045 c 0.007,0.018 0.038,0.038 0.045,0.057 v 0.067 c 0.006,0.016 0.04,0.033 0.046,0.045 0.022,0.053 -0.015,0.137 0.01,0.18 0.015,0.002 0.016,0.003 0.034,-0.023 0.085,0.012 0.098,0.1 0.147,0.147 0.071,0.069 0.153,0.136 0.202,0.225 V 1.22 c 0.014,0.022 0.121,0.099 0.135,0.124 0.019,0.035 -0.003,0.044 0.023,0.067 -0.011,0.015 -0.023,0.031 -0.034,0.045 -0.038,0.003 -0.049,0.01 -0.067,0 C 10.167,1.47 10.096,1.548 10.073,1.591 9.981,1.586 9.979,1.549 9.881,1.547 V 1.581 C 9.872,1.584 9.818,1.582 9.803,1.591 9.781,1.605 9.768,1.655 9.746,1.671 H 9.713 C 9.709,1.682 9.706,1.693 9.702,1.704 9.639,1.737 9.478,1.777 9.409,1.794 9.315,1.818 9.215,1.777 9.161,1.76 9.08,1.736 8.979,1.752 8.902,1.76 8.913,1.815 8.969,1.872 9.004,1.907 8.996,2.011 8.93,2.066 8.902,2.143 v 0.09 C 8.891,2.237 8.88,2.24 8.869,2.244 V 2.346 C 8.857,2.349 8.847,2.353 8.835,2.357 V 2.469 C 8.801,2.547 8.755,2.601 8.756,2.728 H 8.79 C 8.924,2.458 9.179,2.227 9.341,1.974 9.379,1.982 9.546,2.05 9.577,2.042 9.671,2.02 9.661,1.975 9.814,1.974 9.841,2.002 9.877,2.016 9.915,2.03 9.863,2.193 9.728,2.285 9.645,2.413 9.632,2.433 9.606,2.478 9.601,2.492 V 2.571 C 9.578,2.619 9.473,2.683 9.522,2.762 9.514,2.802 9.49,2.832 9.462,2.859 9.434,2.885 9.401,2.908 9.375,2.931 9.293,3.005 9.213,3.109 9.117,3.167 H 9.071 C 9.067,3.179 9.064,3.189 9.06,3.201 9.018,3.226 8.978,3.232 8.936,3.257 8.911,3.272 8.883,3.323 8.857,3.336 H 8.79 C 8.786,3.347 8.783,3.358 8.779,3.37 H 8.7 C 8.692,3.374 8.688,3.409 8.678,3.415 H 8.61 C 8.571,3.432 8.492,3.471 8.464,3.505 8.435,3.504 8.422,3.504 8.408,3.493 H 8.396 C 8.411,3.452 8.474,3.374 8.509,3.347 V 3.302 C 8.38,3.282 8.25,3.377 8.137,3.415 8.133,3.529 8.16,3.544 8.239,3.572 8.206,3.675 8.122,3.778 8.069,3.865 8.066,3.887 8.062,3.91 8.059,3.933 8.047,3.937 8.035,3.94 8.025,3.944 7.998,3.985 7.995,4.048 7.968,4.09 7.953,4.116 7.902,4.14 7.89,4.169 V 4.225 C 7.878,4.229 7.867,4.233 7.856,4.237 7.809,4.3 7.786,4.381 7.743,4.45 7.725,4.465 7.706,4.481 7.687,4.495 V 4.541 C 7.673,4.565 7.624,4.583 7.608,4.608 7.568,4.674 7.503,4.786 7.437,4.858 7.415,4.882 7.393,4.9 7.372,4.912 H 7.316 C 7.312,4.923 7.308,4.934 7.304,4.946 7.229,4.953 7.154,4.961 7.079,4.968 7.069,4.972 7.044,4.999 7.034,5.001 H 6.967 C 6.941,5.014 6.912,5.066 6.888,5.081 H 6.843 C 6.83,5.09 6.82,5.124 6.809,5.137 6.745,5.21 6.648,5.268 6.596,5.35 V 5.384 C 6.548,5.455 6.453,5.506 6.404,5.576 6.367,5.628 6.35,5.669 6.314,5.722 6.298,5.746 6.256,5.757 6.235,5.779 6.197,5.817 6.179,5.87 6.145,5.914 6.134,5.918 6.123,5.92 6.111,5.924 6.092,5.95 6.097,5.98 6.078,6.004 6.067,6.016 6.045,6.004 6.032,6.015 6.015,6.029 6.014,6.064 5.999,6.083 5.947,6.147 5.884,6.205 5.83,6.274 5.819,6.287 5.797,6.284 5.784,6.296 5.747,6.333 5.722,6.383 5.683,6.42 H 5.661 V 6.454 C 5.65,6.458 5.639,6.462 5.627,6.465 5.606,6.488 5.596,6.524 5.571,6.544 5.51,6.593 5.426,6.628 5.38,6.69 5.311,6.677 4.982,6.583 4.952,6.544 4.863,6.54 4.8,6.544 4.772,6.601 c -0.012,0.02 -0.003,0.02 0,0.055 0.023,0.008 0.068,0 0.101,0.012 0.05,0.016 0.058,0.053 0.135,0.056 C 5.018,6.767 4.996,6.816 5.042,6.847 5.029,6.911 4.986,6.928 4.963,6.972 4.91,7.072 4.873,7.147 4.817,7.242 4.797,7.274 4.747,7.3 4.727,7.331 4.637,7.477 4.538,7.593 4.446,7.737 4.429,7.761 4.385,7.771 4.367,7.793 4.355,7.806 4.369,7.827 4.355,7.838 4.266,7.909 4.155,7.95 4.085,8.04 3.973,8.19 3.835,8.363 3.669,8.457 3.624,8.482 3.584,8.468 3.534,8.491 3.523,8.506 3.511,8.521 3.5,8.536 H 3.297 C 3.2,8.59 2.999,8.755 2.948,8.852 2.923,8.847 2.92,8.846 2.904,8.84 2.917,8.709 2.919,8.538 2.914,8.389 2.913,8.32 2.861,8.3 2.892,8.243 V 8.232 C 2.856,8.231 2.812,8.229 2.791,8.243 2.766,8.278 2.748,8.445 2.78,8.491 2.752,8.56 2.593,8.559 2.532,8.604 2.523,8.61 2.521,8.641 2.509,8.649 2.419,8.706 2.36,8.768 2.296,8.852 2.271,8.883 2.265,8.961 2.24,8.997 2.236,9.005 2.232,9.012 2.229,9.02 2.067,8.961 1.983,8.422 1.947,8.209 1.772,8.223 1.703,8.586 1.598,8.693 1.6,8.722 1.603,8.732 1.61,8.75 1.698,8.75 1.736,8.734 1.789,8.716 v 0.011 h 0.012 v 0.236 c 0,0 -0.18,0.085 -0.191,0.091 H 1.519 C 1.511,9.059 1.508,9.093 1.497,9.098 H 1.407 C 1.399,9.11 1.392,9.121 1.384,9.132 H 1.328 C 1.286,9.149 1.215,9.203 1.171,9.223 H 1.08 C 1.076,9.233 1.072,9.245 1.07,9.256 1.025,9.283 0.988,9.262 0.957,9.301 0.924,9.302 0.899,9.301 0.88,9.299 0.786,9.29 0.813,9.249 0.765,9.155 0.738,9.101 0.663,9.071 0.641,9.008 0.603,9.005 0.554,9.011 0.529,9.054 0.496,9.054 0.468,9.054 0.45,9.042 0.401,8.976 0.395,8.824 0.393,8.716 H 0.383 V 8.705 C 0.266,8.704 0.29,8.771 0.248,8.84 0.227,8.856 0.21,8.861 0.191,8.852 0.091,8.852 0.062,8.833 0,8.806 M 0.878,6.994 V 7.028 H 0.923 V 7.005 C 0.906,6.999 0.904,6.997 0.878,6.994 m 0.867,1.204 c 0.02,0.016 0.034,0.013 0.044,0.011 H 1.812 V 8.131 C 1.754,8.137 1.766,8.15 1.733,8.175 1.741,8.195 1.735,8.187 1.745,8.198 M 3.039,8.457 C 3.031,8.471 3.026,8.48 3.016,8.491 3.017,8.57 3.036,8.578 3.061,8.626 3.09,8.624 3.099,8.621 3.118,8.614 3.117,8.558 3.072,8.473 3.039,8.457 M 3.027,8.288 V 8.334 C 3.05,8.337 3.049,8.336 3.061,8.344 3.09,8.342 3.099,8.339 3.118,8.334 3.114,8.307 3.112,8.305 3.106,8.288 Z M 5.548,6.353 V 6.296 C 5.519,6.299 5.511,6.302 5.492,6.307 5.496,6.333 5.497,6.335 5.504,6.353 Z m 0,-3.265 C 5.497,3.088 5.437,3.087 5.403,3.1 V 3.145 C 5.457,3.146 5.522,3.147 5.56,3.134 5.556,3.107 5.555,3.105 5.548,3.088 M 5.852,5.936 C 5.845,5.917 5.85,5.925 5.841,5.914 V 5.936 Z M 6.292,5.43 C 6.402,5.424 6.408,5.344 6.461,5.283 V 5.261 C 6.397,5.301 6.364,5.352 6.269,5.362 6.273,5.385 6.272,5.383 6.28,5.396 6.284,5.407 6.288,5.418 6.292,5.43 M 6.483,5.081 C 6.485,5.123 6.477,5.12 6.505,5.137 6.517,5.146 6.508,5.141 6.528,5.148 6.54,5.139 6.531,5.144 6.55,5.137 6.561,5.101 6.587,5.062 6.562,5.025 6.553,5.032 6.537,5.039 6.528,5.047 6.517,5.051 6.505,5.055 6.494,5.058 6.487,5.078 6.492,5.069 6.483,5.081 M 7.89,0.309 H 7.867 c 0.018,0.013 0.009,0.018 0.023,0"
   style="fill:#ffffff;fill-rule:nonzero"
   id="path246" />
            </g>
            <g
   transform="matrix(2,0,0,2,417.489,1022.63)"
   id="g252">
                <path
   d="M 0,0.197 H -0.056 L -0.09,-0.051 C -0.041,-0.058 0.008,-0.065 0.056,-0.073 0.068,-0.138 0.053,-0.136 0.034,-0.186 h 0.012 v -0.01 c 0.039,0.006 0.047,0.008 0.067,0.033 h 0.112 c 0.007,-0.003 0.077,-0.191 0.09,-0.214 0.018,-0.032 0.182,-0.195 0.213,-0.214 0.053,-0.03 0.07,-0.008 0.102,-0.056 0.077,-0.002 0.144,-0.001 0.2,0.009 0.09,0.014 0.154,0.049 0.194,0.126 0.074,-0.007 0.098,-0.053 0.147,-0.079 0.022,-0.004 0.044,-0.008 0.067,-0.011 0.011,-0.015 0.022,-0.03 0.034,-0.045 h 0.09 C 1.37,-0.65 1.39,-0.678 1.396,-0.681 c 0.133,-0.051 0.542,0.057 0.619,0.09 0.007,0.012 0.014,0.022 0.022,0.034 h 0.091 c 0.006,0.012 0.014,0.022 0.022,0.034 0.053,0.026 0.108,-0.011 0.135,0.045 0.092,-0.002 0.211,-0.009 0.27,0.022 -0.007,0.041 -0.018,0.043 0.011,0.068 C 2.537,-0.231 2.371,-0.102 2.273,-0.005 2.222,0.045 2.181,0.118 2.128,0.163 2.072,0.21 1.992,0.232 1.936,0.276 1.932,0.287 1.928,0.298 1.924,0.31 1.894,0.333 1.852,0.34 1.823,0.366 1.812,0.377 1.815,0.402 1.801,0.411 1.573,0.556 1.34,0.705 1.193,0.929 1.088,0.917 0.88,0.876 0.765,0.895 0.753,0.878 0.749,0.872 0.731,0.862 0.728,0.805 0.724,0.749 0.72,0.693 0.709,0.685 0.697,0.677 0.687,0.669 V 0.489 C 0.674,0.461 0.651,0.47 0.641,0.422 0.618,0.427 0.62,0.425 0.608,0.433 0.573,0.459 0.514,0.593 0.552,0.647 0.541,0.674 0.547,0.666 0.528,0.681 V 0.693 C 0.46,0.667 0.454,0.598 0.405,0.557 0.378,0.536 0.345,0.542 0.315,0.523 0.232,0.472 0.154,0.402 0.101,0.32 H 0.079 L 0.011,0.265 C 0.01,0.233 0.007,0.216 0,0.197"
   style="fill:#ffffff;fill-rule:nonzero"
   id="path250" />
            </g>
            <g
   transform="matrix(2,0,0,2,417.647,1027.41)"
   id="g256">
                <path
   d="M 0,0.067 C 0.071,0.042 0.098,0.023 0.135,-0.034 0.232,-0.032 0.272,-0.003 0.36,-0.001 V 0.01 H 0.371 C 0.363,0.03 0.368,0.021 0.36,0.033 0.295,0.083 0.153,0.049 0.09,0.101 0.055,0.1 0.032,0.097 0.011,0.089 0.007,0.081 0.003,0.075 0,0.067"
   style="fill:#ffffff;fill-rule:nonzero"
   id="path254" />
            </g>
            <g
   transform="matrix(2,0,0,2,416.656,1027.52)"
   id="g260">
                <path
   d="M 0,0.327 C 0.01,0.28 0.249,0.049 0.292,0.034 v -0.045 l 0.015,-0.057 c 0.055,0.016 0.076,0.047 0.132,0.08 C 0.428,0.045 0.42,0.044 0.417,0.09 0.47,0.092 0.518,0.09 0.54,0.113 0.61,0.112 0.702,0.106 0.754,0.123 0.722,0.268 0.341,0.229 0.248,0.327 0.174,0.326 0.176,0.343 0.157,0.395 0.073,0.39 0.061,0.354 0,0.327"
   style="fill:#ffffff;fill-rule:nonzero"
   id="path258" />
            </g>
            <g
   transform="matrix(1.41421,-1.41421,-1.41421,-1.41421,417.54,1023.09)"
   id="g264">
                <path
   d="m -0.034,-0.014 c -0.013,0.019 -0.027,0.038 -0.04,0.056 l 0.04,0.04 0.04,-0.04 C -0.004,0.023 -0.013,0.01 -0.034,-0.014"
   style="fill:#ffffff;fill-rule:nonzero"
   id="path262" />
            </g>
            <g
   transform="matrix(2,0,0,2,417.151,1028.57)"
   id="g268">
                <path
   d="M 0,0.006 C -0.027,0.023 -0.02,0 -0.023,-0.017 -0.003,-0.01 -0.011,-0.014 0,-0.005 h 0.011 v 0.011 z"
   style="fill:#ffffff;fill-rule:nonzero"
   id="path266" />
            </g>
            <g
   transform="matrix(2,0,0,2,416.916,1019.49)"
   id="g272">
                <path
   d="M 0,0.013 C -0.013,-0.005 -0.02,-0.024 -0.017,-0.05 0.014,-0.033 0.039,-0.011 0.066,0.009 0.075,0.017 0.085,0.023 0.095,0.029 0.08,0.047 0.088,0.042 0.061,0.052 0.049,0.061 0.059,0.056 0.039,0.063 0.025,0.043 0.011,0.029 0,0.013"
   style="fill:#ffffff;fill-rule:nonzero"
   id="path270" />
            </g>
            <g
   transform="matrix(2,0,0,2,416.814,1022.27)"
   id="g276">
                <path
   d="m 0,-1.259 c -0.013,-0.032 -0.035,-0.062 -0.053,-0.093 l 0.104,-0.025 c 0.012,0.016 0.025,0.03 0.039,0.05 0.02,-0.007 0.01,-0.001 0.022,-0.011 0.027,-0.01 0.019,-0.005 0.034,-0.022 -0.01,-0.007 -0.02,-0.013 -0.028,-0.021 l 0.051,-0.003 c 0.056,0.027 0.084,0.086 0.09,0.159 v 0.089 c 0.011,0.004 0.023,0.008 0.033,0.012 0.009,0.014 0.008,0.057 0.012,0.067 0.061,0.027 0.091,0.046 0.191,0.046 0.019,0.009 0.036,0.005 0.057,-0.012 0.042,-0.068 0.018,-0.136 0.135,-0.135 v 0.012 h 0.01 c 0.002,0.108 0.008,0.259 0.057,0.326 0.018,0.011 0.045,0.011 0.078,0.011 0.025,-0.042 0.075,-0.049 0.113,-0.045 0.021,0.063 0.097,0.093 0.123,0.146 0.049,0.094 0.022,0.136 0.115,0.144 L 1.168,-0.463 C 1.112,-0.472 1.044,-0.473 0.967,-0.471 0.935,-0.423 0.919,-0.445 0.866,-0.415 0.834,-0.397 0.67,-0.233 0.653,-0.201 0.64,-0.178 0.569,0.009 0.562,0.013 H 0.45 C 0.431,-0.012 0.422,-0.015 0.383,-0.021 V -0.01 H 0.371 C 0.391,0.04 0.406,0.038 0.393,0.103 0.345,0.11 0.296,0.117 0.248,0.125 0.248,0.03 0.249,-0.03 0.282,-0.088 0.292,-0.096 0.304,-0.104 0.315,-0.111 V -0.19 C 0.321,-0.208 0.354,-0.228 0.36,-0.246 V -0.393 C 0.371,-0.396 0.383,-0.4 0.393,-0.404 V -0.528 C 0.405,-0.535 0.417,-0.542 0.427,-0.55 V -0.584 C 0.425,-0.595 0.268,-0.731 0.248,-0.753 0.218,-0.784 0.227,-0.814 0.202,-0.854 0.193,-0.869 0.156,-0.882 0.146,-0.899 0.114,-0.954 0.108,-0.996 0.078,-1.057 0.063,-1.088 0.014,-1.145 0,-1.18 Z"
   style="fill:#811236;fill-rule:nonzero"
   id="path274" />
            </g>
            <g
   transform="matrix(2,0,0,2,410.736,1021.31)"
   id="g280">
                <path
   d="M 0,1.597 C 0,1.566 0,1.546 0.011,1.529 0.028,1.529 0.033,1.527 0.044,1.563 0.076,1.549 0.095,1.525 0.123,1.507 0.125,1.327 0.29,1.253 0.383,1.158 0.564,0.973 0.752,0.793 0.934,0.607 1.002,0.537 1.096,0.515 1.148,0.427 1.208,0.42 1.239,0.404 1.26,0.461 1.416,0.452 1.478,0.086 1.564,-0.023 1.801,-0.325 2.184,-0.462 2.521,-0.665 2.573,-0.696 2.616,-0.768 2.668,-0.801 2.697,-0.819 2.72,-0.814 2.746,-0.834 2.765,-0.86 2.783,-0.886 2.802,-0.912 h 0.034 c 0.036,-0.032 0.058,-0.1 0.09,-0.135 0.036,0.005 0.033,0.009 0.056,0.022 -0.01,0.016 -0.02,0.032 -0.034,0.045 0.003,0.043 0.02,0.077 0.038,0.109 0.018,0.032 0.039,0.062 0.053,0.094 v 0.079 c 0.014,0.035 0.062,0.091 0.078,0.123 0.03,0.061 0.036,0.102 0.067,0.157 0.011,0.018 0.048,0.03 0.057,0.046 0.024,0.04 0.016,0.07 0.046,0.101 0.02,0.022 0.177,0.158 0.179,0.169 v 0.034 C 3.455,-0.061 3.444,-0.053 3.432,-0.046 V 0.078 C 3.422,0.082 3.41,0.086 3.399,0.089 V 0.235 C 3.393,0.254 3.36,0.274 3.354,0.292 V 0.37 C 3.343,0.378 3.331,0.386 3.32,0.393 3.287,0.451 3.287,0.512 3.287,0.607 L 3.32,0.854 V 0.91 C 3.343,0.914 3.365,0.918 3.388,0.922 L 3.455,0.978 C 3.448,0.992 3.443,1.002 3.432,1.012 3.443,1.128 3.54,1.2 3.624,1.257 L 3.535,1.384 C 3.35,1.384 3.344,1.425 3.287,1.563 V 1.732 C 3.266,1.776 3.201,1.824 3.174,1.867 3.084,1.865 3.08,1.838 3.005,1.833 3.003,1.891 3.001,1.94 3.027,1.968 L 3.016,1.992 C 3.004,1.994 2.927,2.007 2.904,2.025 c 0,0 -0.145,0.265 -0.147,0.27 V 2.374 H 2.746 C 2.73,2.399 2.711,2.439 2.69,2.464 H 2.668 V 2.52 C 2.66,2.535 2.633,2.548 2.622,2.565 2.542,2.565 2.335,2.568 2.285,2.599 2.276,2.604 2.274,2.638 2.262,2.644 H 1.778 C 1.753,2.637 1.707,2.607 1.677,2.599 H 1.35 C 1.342,2.587 1.336,2.577 1.328,2.565 H 1.136 C 1.129,2.554 1.122,2.543 1.114,2.532 H 1.013 C 0.973,2.515 0.939,2.442 0.866,2.486 0.837,2.505 0.85,2.537 0.832,2.565 0.789,2.617 0.645,2.602 0.551,2.599 0.494,2.597 0.483,2.576 0.45,2.565 H 0.214 C 0.205,2.562 0.185,2.534 0.179,2.532 H 0.011 C -0.019,2.522 -0.059,2.484 -0.091,2.475 H -0.248 C -0.262,2.469 -0.283,2.436 -0.304,2.43 -0.377,2.409 -0.443,2.46 -0.472,2.396 -0.546,2.398 -0.643,2.404 -0.698,2.385 c 0.017,-0.08 0.09,-0.137 0.135,-0.191 0.032,-0.04 0.039,-0.079 0.067,-0.125 0.01,-0.013 0.034,-0.01 0.046,-0.022 0.09,-0.093 0.168,-0.197 0.248,-0.303 0.043,-0.059 0.127,-0.086 0.168,-0.147 z M 0.822,1.069 v 0.044 c 0.031,0 0.051,0 0.067,-0.011 C 0.898,1.09 0.896,1.092 0.9,1.069 Z"
   style="fill:#ffffff;fill-rule:nonzero"
   id="path278" />
            </g>
            <g
   transform="matrix(2,0,0,2,417.331,1023.92)"
   id="g284">
                <path
   d="M 0,1.295 C -0.041,1.266 -0.329,1.26 -0.405,1.261 V 1.249 H -0.417 C -0.395,1.162 -0.3,1.147 -0.248,1.093 -0.244,1.077 -0.24,1.063 -0.236,1.047 -0.225,1.043 -0.214,1.039 -0.203,1.037 V 0.968 c 0.01,-0.016 0.042,-0.01 0.056,-0.022 0.008,-0.014 0.016,-0.03 0.024,-0.045 C -0.041,0.84 0.043,0.784 0.113,0.71 0.15,0.67 0.283,0.466 0.315,0.451 0.308,0.388 0.272,0.349 0.236,0.316 0.239,0.29 0.239,0.284 0.248,0.271 0.272,0.257 0.273,0.266 0.304,0.271 0.299,0.239 0.289,0.133 0.27,0.102 V 0.08 H 0.237 l 0.09,-0.126 c 0.011,0.007 0.023,0.016 0.034,0.024 0.024,0.018 0.044,0.06 0.067,0.079 H 0.462 C 0.466,0.068 0.469,0.08 0.472,0.091 0.53,0.145 0.615,0.187 0.664,0.249 0.725,0.325 0.786,0.417 0.867,0.473 0.863,0.77 0.637,0.906 0.518,1.093 0.465,1.175 0.451,1.269 0.417,1.341 H 0.023 C 0.01,1.335 0.01,1.302 0,1.295"
   style="fill:#ffffff;fill-rule:nonzero"
   id="path282" />
            </g>
            <g
   transform="matrix(2,0,0,2,415.957,1026.86)"
   id="g288">
                <path
   d="M 0,0.028 C -0.068,0.031 -0.09,0.034 -0.09,-0.006 H 0 V 0.006 H 0.011 C 0.008,0.012 0.004,0.02 0,0.028"
   style="fill:#ffffff;fill-rule:nonzero"
   id="path286" />
            </g>
            <g
   transform="matrix(1.41421,-1.41421,-1.41421,-1.41421,415.659,1026.83)"
   id="g292">
                <path
   d="m 0.005,-0.047 c -0.067,-0.034 -0.12,0.034 -0.048,0.063 L 0.005,-0.032 -0.003,-0.04 Z"
   style="fill:#ffffff;fill-rule:nonzero"
   id="path290" />
            </g>
            <g
   transform="matrix(2,0,0,2,414.877,1027.62)"
   id="g296">
                <path
   d="m 0,-0.074 c 0.011,-0.014 0.141,-0.051 0.157,-0.057 0.006,-0.026 0.01,-0.091 0.023,-0.112 0.018,-0.006 0.089,0.022 0.158,0.022 0.126,0.001 0.364,0.025 0.472,0.056 0.106,0.031 0.207,-0.015 0.282,0.034 0.046,0 0.079,0.004 0.104,0.011 L 1.181,-0.063 C 1.096,-0.058 1.076,-0.023 1.024,0.004 0.986,0.025 0.918,0.029 0.878,0.049 0.828,0.075 0.75,0.175 0.675,0.139 0.616,0.132 0.39,-0.02 0.361,-0.063 0.278,-0.065 0.269,-0.053 0.248,0.004 0.185,0.003 0.039,-0.034 0,-0.063 h -0.011 v -0.011 z"
   style="fill:#ffffff;fill-rule:nonzero"
   id="path294" />
            </g>
            <g
   transform="matrix(2,0,0,2,415.552,1028.44)"
   id="g300">
                <path
   d="M 0,0.247 C -0.062,0.182 -0.123,0.133 -0.184,0.089 v -0.19 c 0.074,0.002 0.12,-0.002 0.15,-0.045 h 0.372 c 0.037,0.019 0.06,0.104 0.09,0.135 C 0.466,0.028 0.52,0.043 0.54,0.101 H 0.552 C 0.528,0.168 0.386,0.184 0.293,0.179 V 0.191 H 0.281 C 0.287,0.24 0.294,0.239 0.327,0.258 0.311,0.294 0.133,0.393 0.079,0.382 0.04,0.374 0.013,0.331 -0.028,0.328 l 0.006,-0.047 h 0.011 C -0.008,0.27 -0.004,0.258 0,0.247"
   style="fill:#ffffff;fill-rule:nonzero"
   id="path298" />
            </g>
            <g
   transform="matrix(2,0,0,2,415.282,1028.22)"
   id="g304">
                <path
   d="M 0,0.271 C -0.111,0.19 -0.237,0.121 -0.349,0.046 c -0.087,-0.059 -0.177,-0.059 -0.213,-0.169 0.09,0.015 0.12,0.072 0.179,0.113 0.124,0.084 0.23,0.141 0.334,0.213 C 0.013,0.247 0.073,0.296 0.135,0.361 0.131,0.372 0.127,0.384 0.125,0.394 H 0.113 V 0.384 C 0.066,0.354 0.042,0.302 0,0.271"
   style="fill:#811236;fill-rule:nonzero"
   id="path302" />
            </g>
            <g
   transform="matrix(2,0,0,2,414.293,1026.89)"
   id="g308">
                <path
   d="M 0,0.079 C 0.005,0.025 0.005,0.024 0.022,-0.011 H 0.056 C 0.066,0.002 0.065,0.002 0.078,0.011 0.07,0.053 0.06,0.058 0.034,0.079 0.022,0.088 0.031,0.083 0.011,0.09 V 0.079 Z"
   style="fill:#ffffff;fill-rule:nonzero"
   id="path306" />
            </g>
            <g
   transform="matrix(2,0,0,2,423.904,1018.69)"
   id="g312">
                <path
   d="M 0,3.538 C 0.009,3.525 0.007,3.527 0.011,3.504 -0.046,3.467 0,3.382 -0.034,3.324 -0.064,3.306 -0.118,3.329 -0.157,3.312 -0.246,3.278 -0.351,3.163 -0.45,3.155 -0.456,3.173 -0.458,3.175 -0.462,3.2 -0.307,3.282 -0.15,3.493 0,3.549 Z M 2.285,3.167 V 3.155 H 2.273 C 2.251,3.1 2.193,3.096 2.161,3.054 2.146,3.024 2.13,2.994 2.116,2.964 2.095,2.947 2.063,2.953 2.049,2.931 1.881,2.681 1.654,2.536 1.384,2.39 1.297,2.343 1.227,2.244 1.114,2.221 1.116,2.282 1.283,2.424 1.34,2.48 1.404,2.544 1.479,2.645 1.553,2.694 1.583,2.713 1.613,2.706 1.643,2.728 1.647,2.739 1.651,2.75 1.654,2.762 1.69,2.793 1.742,2.838 1.778,2.863 h 0.034 c 0.04,0.03 0.08,0.088 0.124,0.112 H 1.981 C 2.069,3.037 2.143,3.163 2.273,3.178 V 3.167 Z m -7.17,2.341 C -4.73,5.506 -4.549,5.422 -4.424,5.372 -4.358,5.346 -4.295,5.364 -4.243,5.327 -4.235,5.315 -4.237,5.316 -4.232,5.293 -4.255,5.274 -4.268,5.263 -4.277,5.226 c 0.011,-0.004 0.023,-0.007 0.034,-0.011 0.014,-0.008 0.027,-0.01 0.039,-0.009 0.042,0.002 0.069,0.046 0.107,0.054 0.054,0.01 0.233,-0.088 0.248,-0.124 -0.033,-0.019 -0.04,-0.018 -0.045,-0.067 h 0.011 V 5.057 C -3.79,5.061 -3.648,5.045 -3.624,4.979 H -3.636 C -3.656,4.92 -3.71,4.906 -3.748,4.866 -3.778,4.835 -3.801,4.75 -3.838,4.731 H -4.21 C -4.24,4.775 -4.286,4.778 -4.36,4.776 H -4.367 C -4.394,4.688 -4.445,4.554 -4.513,4.505 -4.557,4.478 -4.603,4.494 -4.66,4.472 -4.777,4.426 -4.887,4.342 -5.042,4.337 V 4.281 c 0.017,-0.006 0.027,-0.009 0.056,-0.012 0.02,0.024 0.033,0.023 0.079,0.023 C -4.903,4.281 -4.9,4.269 -4.896,4.258 -4.935,4.241 -4.951,4.214 -4.975,4.194 l 0.18,-0.003 C -4.775,4.183 -4.783,4.188 -4.772,4.179 -4.746,4.158 -4.735,4.153 -4.728,4.112 -4.741,4.102 -4.74,4.102 -4.75,4.09 V 3.955 h 0.428 c 0.012,-0.006 0.014,-0.041 0.023,-0.046 0.05,-0.03 0.257,-0.033 0.337,-0.033 0.011,-0.018 0.038,-0.03 0.045,-0.046 V 3.774 h 0.023 c 0.021,-0.025 0.04,-0.064 0.056,-0.089 h 0.011 V 3.606 c 0.002,-0.005 0.147,-0.27 0.147,-0.27 0.023,-0.019 0.1,-0.031 0.112,-0.034 L -3.557,3.279 C -3.583,3.251 -3.581,3.201 -3.579,3.144 -3.504,3.148 -3.5,3.175 -3.41,3.178 -3.383,3.134 -3.317,3.087 -3.297,3.042 V 2.874 c 0.057,-0.138 0.063,-0.18 0.248,-0.18 h 0.032 v 0.022 c 0.02,0.031 0.029,0.137 0.034,0.169 -0.031,-0.005 -0.032,-0.013 -0.056,0 -0.009,0.014 -0.009,0.02 -0.011,0.046 0.035,0.032 0.072,0.072 0.079,0.135 C -3.004,3.08 -3.136,3.284 -3.174,3.324 -3.244,3.398 -3.327,3.454 -3.41,3.515 -3.418,3.53 -3.426,3.546 -3.433,3.56 -3.448,3.573 -3.48,3.566 -3.489,3.582 v 0.069 c -0.012,0.003 -0.022,0.007 -0.034,0.01 -0.004,0.016 -0.008,0.03 -0.012,0.046 -0.052,0.055 -0.147,0.069 -0.168,0.157 h 0.011 v 0.012 c 0.076,-10e-4 0.365,0.005 0.405,0.033 0.01,0.007 0.01,0.04 0.024,0.046 H -2.87 C -2.835,3.883 -2.822,3.79 -2.769,3.707 -2.649,3.521 -2.424,3.385 -2.42,3.088 -2.501,3.032 -2.561,2.939 -2.622,2.863 -2.671,2.801 -2.756,2.759 -2.814,2.705 -2.818,2.694 -2.821,2.683 -2.825,2.671 H -2.859 C -2.882,2.653 -2.902,2.61 -2.926,2.592 -2.937,2.584 -2.948,2.576 -2.96,2.568 -3.044,2.51 -3.141,2.439 -3.152,2.322 -3.141,2.312 -3.136,2.303 -3.129,2.288 h 0.023 c 0.053,0.082 0.131,0.152 0.214,0.203 0.03,0.019 0.063,0.012 0.089,0.033 0.05,0.042 0.056,0.11 0.124,0.136 V 2.649 C -2.661,2.633 -2.666,2.641 -2.656,2.615 -2.693,2.561 -2.635,2.427 -2.6,2.401 -2.587,2.392 -2.589,2.394 -2.566,2.39 c 0.009,0.048 0.032,0.039 0.045,0.067 v 0.18 c 0.011,0.008 0.022,0.016 0.034,0.023 0.004,0.056 0.007,0.112 0.01,0.169 0.018,0.011 0.023,0.017 0.034,0.034 0.116,-0.019 0.323,0.021 0.428,0.034 0.147,-0.224 0.38,-0.373 0.608,-0.518 C -1.393,2.37 -1.396,2.344 -1.385,2.334 -1.356,2.308 -1.314,2.301 -1.284,2.278 -1.28,2.266 -1.276,2.255 -1.272,2.244 -1.215,2.199 -1.136,2.177 -1.08,2.131 -1.026,2.086 -0.986,2.012 -0.935,1.962 -0.836,1.866 -0.67,1.737 -0.641,1.579 -0.67,1.554 -0.66,1.552 -0.653,1.512 -0.712,1.481 -0.83,1.488 -0.923,1.49 -0.95,1.434 -1.005,1.47 -1.058,1.444 -1.066,1.433 -1.073,1.422 -1.08,1.41 H -1.171 C -1.178,1.399 -1.185,1.388 -1.193,1.377 -1.269,1.344 -1.679,1.236 -1.812,1.287 -1.818,1.289 -1.837,1.318 -1.846,1.321 h -0.09 C -1.947,1.336 -1.959,1.351 -1.969,1.365 -1.992,1.369 -2.015,1.373 -2.037,1.377 -2.086,1.403 -2.11,1.448 -2.183,1.456 -2.224,1.379 -2.288,1.344 -2.377,1.33 l 0.015,-0.102 c 0.019,0.002 0.045,0.003 0.077,0.002 0.031,-0.038 0.069,-0.017 0.113,-0.044 0.003,-0.012 0.007,-0.023 0.011,-0.034 h 0.09 c 0.045,-0.019 0.115,-0.073 0.158,-0.091 h 0.056 c 0.007,-0.01 0.015,-0.022 0.023,-0.033 h 0.089 c 0.012,-0.005 0.015,-0.04 0.023,-0.044 h 0.09 C -1.62,0.978 -1.441,0.893 -1.441,0.893 V 0.657 H -1.453 V 0.646 C -1.505,0.663 -1.543,0.68 -1.632,0.68 -1.638,0.661 -1.641,0.652 -1.643,0.623 -1.538,0.516 -1.469,0.152 -1.294,0.139 -1.259,0.352 -1.175,0.891 -1.013,0.949 -1.01,0.942 -1.006,0.934 -1.002,0.927 -0.976,0.891 -0.97,0.813 -0.945,0.781 -0.881,0.698 -0.823,0.635 -0.732,0.578 -0.72,0.571 -0.719,0.54 -0.709,0.533 -0.648,0.489 -0.49,0.49 -0.462,0.42 -0.494,0.375 -0.475,0.207 -0.45,0.172 -0.429,0.159 -0.386,0.161 -0.349,0.162 v 0.01 c -0.032,0.057 0.021,0.077 0.022,0.147 0.005,0.148 0.003,0.319 -0.011,0.45 0.017,0.006 0.02,0.008 0.045,0.012 0.051,-0.097 0.252,-0.262 0.349,-0.315 H 0.258 C 0.27,0.45 0.281,0.436 0.292,0.42 0.342,0.398 0.383,0.412 0.427,0.387 0.594,0.293 0.731,0.119 0.844,-0.03 c 0.069,-0.091 0.18,-0.131 0.27,-0.203 0.013,-0.01 0,-0.032 0.011,-0.044 0.019,-0.022 0.063,-0.033 0.079,-0.057 0.092,-0.144 0.192,-0.259 0.281,-0.405 0.02,-0.032 0.071,-0.057 0.091,-0.09 0.056,-0.094 0.092,-0.169 0.146,-0.27 C 1.745,-1.142 1.788,-1.16 1.801,-1.223 1.755,-1.255 1.777,-1.303 1.767,-1.347 1.69,-1.349 1.682,-1.386 1.632,-1.403 1.599,-1.414 1.554,-1.406 1.531,-1.414 1.528,-1.45 1.519,-1.45 1.531,-1.47 c 0.028,-0.057 0.09,-0.061 0.18,-0.057 0.03,0.04 0.358,0.133 0.427,0.147 0.046,-0.063 0.13,-0.098 0.192,-0.147 0.024,-0.019 0.035,-0.056 0.056,-0.079 0.012,-0.003 0.022,-0.007 0.034,-0.01 V -1.651 H 2.442 C 2.48,-1.687 2.505,-1.737 2.543,-1.775 2.556,-1.787 2.578,-1.784 2.589,-1.797 2.643,-1.866 2.705,-1.923 2.757,-1.988 2.773,-2.006 2.774,-2.041 2.791,-2.055 2.804,-2.067 2.826,-2.054 2.836,-2.067 2.856,-2.09 2.851,-2.121 2.87,-2.146 2.882,-2.15 2.892,-2.153 2.904,-2.157 2.938,-2.2 2.956,-2.253 2.993,-2.292 3.015,-2.313 3.056,-2.325 3.072,-2.349 3.108,-2.402 3.126,-2.442 3.162,-2.494 3.211,-2.565 3.307,-2.616 3.354,-2.686 V -2.72 C 3.406,-2.803 3.504,-2.861 3.567,-2.934 3.579,-2.946 3.589,-2.98 3.601,-2.99 h 0.045 c 0.025,-0.015 0.053,-0.067 0.079,-0.079 h 0.068 c 0.01,-0.003 0.035,-0.03 0.044,-0.034 0.076,-0.006 0.151,-0.014 0.226,-0.022 0.004,-0.012 0.008,-0.022 0.012,-0.034 h 0.056 c 0.021,-0.011 0.043,-0.03 0.065,-0.054 l 0.118,0.11 C 3.964,-2.73 3.604,-2.362 3.241,-2 c -0.206,0.207 -0.423,0.403 -0.63,0.608 -0.106,0.105 -0.198,0.224 -0.304,0.327 -0.073,0.071 -0.352,0.29 -0.36,0.393 0.07,0.056 0.1,0.244 0.124,0.338 0.003,0.049 0.007,0.097 0.011,0.147 0.006,0.014 0.028,0.077 0.034,0.101 v 0.123 c 0.079,0.192 0.11,0.454 0.169,0.665 0.023,0.084 0.016,0.171 0.033,0.247 v 0.112 c 0.01,0.024 0.07,0.093 0.08,0.113 v 0.08 c 0.01,0.007 0.022,0.014 0.033,0.022 v 0.089 c 0.011,0.033 0.046,0.074 0.056,0.113 v 0.113 c 0.004,0.012 0.03,0.051 0.034,0.067 V 1.827 C 2.55,1.909 2.64,1.989 2.678,2.063 2.772,2.241 2.848,2.372 2.96,2.524 2.964,2.544 2.968,2.562 2.971,2.581 3.013,2.643 3.086,2.699 3.128,2.762 V 2.806 C 3.14,2.814 3.152,2.822 3.162,2.829 3.216,2.911 3.247,2.992 3.297,3.076 3.348,3.162 3.443,3.221 3.511,3.29 3.532,3.311 3.573,3.413 3.59,3.425 3.627,3.451 3.662,3.438 3.702,3.459 3.714,3.475 3.725,3.489 3.736,3.504 h 0.113 c 0.034,0.015 0.07,0.077 0.101,0.09 H 4.041 C 4.075,3.606 4.112,3.66 4.142,3.673 H 4.265 C 4.309,3.691 4.358,3.75 4.401,3.774 4.424,3.787 4.453,3.772 4.48,3.786 c 0.026,0.03 0.052,0.06 0.078,0.09 h 0.844 c 0.044,0.057 0.207,0.033 0.304,0.033 h 4.322 c 0.016,0.043 0.061,0.086 0.079,0.124 V 4.09 c 0.027,0.056 0.101,0.1 0.123,0.168 0.004,0.086 0.008,0.173 0.012,0.259 0.08,0.199 0.045,0.563 0.045,0.833 v 1.401 h -0.161 c 0,-0.09 -0.01,-0.182 -0.031,-0.275 V 5.519 C 10.066,5.446 10.051,5.47 10.05,5.339 V 4.922 C 10.04,4.897 9.994,4.864 9.983,4.832 9.959,4.764 9.956,4.589 9.915,4.551 9.852,4.503 9.735,4.557 9.645,4.528 9.619,4.52 9.607,4.501 9.567,4.495 V 4.326 C 9.604,4.329 9.627,4.346 9.634,4.337 9.646,4.319 9.646,4.291 9.645,4.258 H 9.634 V 4.247 C 9.606,4.255 9.598,4.274 9.577,4.281 9.517,4.301 9.425,4.275 9.375,4.292 9.377,4.338 9.382,4.354 9.353,4.37 9.294,4.412 9.177,4.335 9.162,4.292 9.146,4.268 9.147,4.195 9.139,4.168 9.032,4.239 9.035,4.181 8.902,4.213 8.811,4.235 8.624,4.279 8.486,4.247 8.434,4.234 8.374,4.215 8.306,4.213 8.138,4.209 7.968,4.205 7.799,4.202 7.68,4.165 7.274,4.131 7.124,4.179 V 4.202 C 7.149,4.215 7.199,4.233 7.215,4.258 7.224,4.273 7.224,4.285 7.225,4.315 7.151,4.35 7.104,4.391 7.001,4.37 6.984,4.313 6.944,4.187 6.922,4.146 6.876,4.118 6.752,4.134 6.685,4.134 H 6.089 C 6.063,4.117 5.998,4.122 5.954,4.123 V 4.134 H 5.943 V 4.157 C 6.052,4.217 6.194,4.268 6.302,4.337 6.281,4.362 6.277,4.35 6.269,4.394 6.291,4.404 6.299,4.409 6.314,4.427 H 6.348 C 6.355,4.473 6.367,4.474 6.37,4.528 6.414,4.555 6.435,4.595 6.494,4.607 V 4.652 C 6.456,4.655 6.445,4.663 6.427,4.652 6.309,4.614 6.255,4.5 6.157,4.449 6.108,4.425 6.061,4.438 6.01,4.416 5.944,4.388 5.86,4.322 5.784,4.303 5.74,4.292 5.739,4.342 5.683,4.326 5.652,4.316 5.65,4.29 5.605,4.281 5.583,4.323 5.565,4.367 5.526,4.394 5.522,4.364 5.518,4.333 5.514,4.303 5.566,4.287 5.588,4.291 5.593,4.225 5.555,4.203 5.514,4.168 5.47,4.157 5.379,4.161 5.29,4.164 5.2,4.168 H 4.232 C 4.211,4.164 4.199,4.139 4.186,4.134 4.161,4.124 3.781,4.112 3.781,4.112 3.728,4.125 3.566,4.22 3.5,4.202 3.466,4.193 3.395,4.146 3.365,4.134 3.27,4.096 2.883,4.151 2.825,4.168 H 2.352 C 2.344,4.179 2.337,4.191 2.33,4.202 2.213,4.205 2.096,4.209 1.981,4.213 1.975,4.215 1.956,4.244 1.947,4.247 H 1.711 C 1.705,4.249 1.685,4.278 1.677,4.281 H 1.508 C 1.497,4.285 1.475,4.32 1.463,4.326 1.42,4.346 1.355,4.316 1.306,4.337 1.268,4.353 1.183,4.4 1.148,4.416 1.091,4.441 1.041,4.431 1.009,4.446 L 0.878,4.235 C 0.885,4.225 0.893,4.213 0.901,4.202 0.852,4.172 0.798,4.166 0.709,4.168 0.671,4.132 0.606,4.132 0.528,4.134 c 0,0.017 0.024,0.034 0.057,0.048 L 0.484,4.449 C 0.454,4.508 0.393,4.554 0.338,4.584 0.349,4.614 0.35,4.645 0.36,4.664 0.387,4.693 0.449,4.689 0.506,4.686 V 4.674 h 0.01 V 4.909 C 0.512,4.922 0.509,4.915 0.518,4.934 0.533,4.944 0.555,4.944 0.585,4.945 L 0.591,4.95 C 0.555,5.002 0.465,4.961 0.383,4.956 L 0.371,4.979 C 0.354,4.996 0.379,4.985 0.36,5.001 0.347,5.01 0.341,5.01 0.315,5.013 0.199,4.898 0.016,4.917 -0.169,4.866 -0.356,4.814 -0.589,4.781 -0.776,4.731 -0.833,4.727 -0.889,4.723 -0.945,4.719 -1.067,4.687 -1.186,4.676 -1.351,4.664 -1.373,4.66 -1.396,4.656 -1.419,4.652 -1.449,4.66 -1.47,4.682 -1.52,4.686 V 4.64 C -1.46,4.62 -1.391,4.535 -1.385,4.461 -1.436,4.443 -1.529,4.448 -1.598,4.449 c -0.01,0.014 -0.01,0.013 -0.023,0.023 0.031,0.048 0.047,0.079 0.034,0.146 H -1.722 C -1.747,4.567 -1.762,4.598 -1.824,4.584 -1.996,4.546 -2.237,4.597 -2.386,4.562 c -0.028,0.035 -0.23,0.175 -0.27,0.191 -0.049,-0.004 -0.097,-0.007 -0.147,-0.01 -0.1,-0.004 -0.207,0 -0.292,0.044 -0.011,0.015 -0.023,0.03 -0.034,0.045 C -3.181,4.866 -3.231,4.868 -3.287,4.9 -3.38,4.953 -3.471,5.049 -3.568,5.102 -3.769,5.212 -3.983,5.309 -4.198,5.394 -4.26,5.42 -4.314,5.404 -4.378,5.428 -4.501,5.476 -4.744,5.577 -4.885,5.553 -4.889,5.541 -4.892,5.53 -4.896,5.519 h 0.011 z m 0.36,-1.104 h 0.012 c 0.038,0.029 0.185,0.067 0.247,0.068 0.022,-0.057 0.03,-0.07 0.113,-0.068 0.029,0.044 0.256,0.196 0.315,0.203 0.075,0.035 0.152,-0.064 0.202,-0.09 0.041,-0.02 0.108,-0.024 0.147,-0.045 0.052,-0.027 0.071,-0.062 0.157,-0.068 V 4.449 C -3.375,4.465 -3.615,4.696 -3.624,4.743 -3.563,4.77 -3.551,4.805 -3.467,4.81 -3.448,4.758 -3.451,4.742 -3.376,4.743 -3.283,4.644 -2.902,4.684 -2.87,4.539 -2.922,4.522 -3.014,4.528 -3.084,4.528 -3.106,4.505 -3.154,4.507 -3.208,4.505 -3.204,4.46 -3.196,4.461 -3.185,4.427 -3.241,4.394 -3.263,4.364 -3.317,4.348 -3.343,4.34 -3.375,4.337 -3.422,4.337 -3.497,4.287 -3.597,4.334 -3.703,4.303 -3.811,4.272 -4.05,4.248 -4.176,4.247 -4.244,4.247 -4.316,4.219 -4.333,4.225 -4.347,4.246 -4.35,4.31 -4.356,4.337 -4.372,4.342 -4.502,4.38 -4.513,4.394 H -4.525 Z M -4.164,4.09 c -0.03,0.071 0.055,0.081 0.079,0.01 H -4.097 V 4.09 Z m 0.101,-0.012 c 0,0.04 0.022,0.037 0.09,0.034 0.004,-0.008 0.007,-0.016 0.011,-0.022 H -3.973 V 4.078 Z m 0.687,0.856 C -3.388,4.925 -3.379,4.93 -3.399,4.922 c 0.002,0.017 -0.004,0.041 0.023,0.023 h 0.01 V 4.934 Z m 0.258,-0.485 c 0.021,0.008 0.044,0.011 0.079,0.012 0.063,-0.052 0.206,-0.018 0.27,-0.067 C -2.76,4.382 -2.765,4.391 -2.757,4.37 H -2.769 V 4.36 C -2.856,4.357 -2.897,4.328 -2.993,4.326 -3.03,4.384 -3.057,4.402 -3.129,4.427 c 0.003,0.008 0.007,0.015 0.011,0.022 m 0.371,0.046 c 0,0.031 -0.012,0.024 0.034,0.033 l 0.012,-0.023 h -0.012 v -0.01 z m 0.508,-1.463 c 0.025,0.013 0.025,0.018 0.067,0.022 V 3.042 h 0.011 V 3.009 C -2.138,3.005 -2.139,3.006 -2.128,2.998 -2.119,2.985 -2.121,2.987 -2.116,2.964 -2.134,2.958 -2.143,2.955 -2.172,2.953 -2.196,2.985 -2.224,2.989 -2.239,3.032 m 0.933,1.485 c 0.008,0.024 0.009,0.097 0.012,0.101 0.018,0.022 0.016,0.019 0.056,0.022 V 4.63 h 0.011 c -10e-4,-0.035 -0.008,-0.031 0,-0.046 0.02,-0.012 0.055,-0.011 0.09,-0.011 0.023,0.017 0.089,0.018 0.101,0.011 0.01,-0.014 0.011,-0.027 0.012,-0.056 h 0.034 c 0.051,0.081 0.092,0.087 0.202,0.112 h 0.101 c 0.04,0.015 0.077,0.04 0.136,0.046 0.043,0.005 0.146,0.029 0.156,0.023 C -0.376,4.693 -0.381,4.701 -0.371,4.674 -0.449,4.633 -0.482,4.541 -0.551,4.495 -0.696,4.397 -0.829,4.327 -1.069,4.326 -1.08,4.345 -1.083,4.344 -1.092,4.37 c 0.04,0.024 0.037,0.059 0.034,0.125 H -1.284 C -1.293,4.508 -1.292,4.507 -1.306,4.517 M -1.429,4.258 c 0.043,0.015 0.119,0.012 0.18,0.011 0.01,-0.03 0.012,-0.078 0.011,-0.123 H -1.249 V 4.134 h -0.147 c -0.019,0.042 -0.032,0.06 -0.033,0.124 m 0.72,-2.881 C -0.702,1.365 -0.694,1.355 -0.687,1.343 -0.698,1.336 -0.709,1.329 -0.72,1.321 -0.731,1.34 -0.735,1.339 -0.743,1.365 h 0.011 v 0.012 z m 0.27,-0.45 C -0.454,0.884 -0.472,0.882 -0.529,0.882 -0.556,0.927 -0.598,0.967 -0.641,0.994 v 0.012 h 0.01 c 0.039,0.041 0.194,0.025 0.27,0.022 0.025,0.022 0.047,0.03 0.091,0.033 0.019,-0.046 0.043,-0.082 0.068,-0.123 -0.044,-0.033 -0.084,-0.061 -0.147,-0.079 -0.019,0.055 -0.014,0.068 -0.09,0.068 m -0.09,3.286 C -0.353,4.306 -0.152,4.386 0.079,4.427 0.144,4.355 0.227,4.4 0.225,4.258 0.205,4.248 0.194,4.22 0.18,4.213 0.148,4.197 0.105,4.217 0.079,4.202 0.071,4.191 0.063,4.179 0.056,4.168 H -0.068 C -0.075,4.157 -0.083,4.146 -0.09,4.134 H -0.202 C -0.232,4.122 -0.226,4.105 -0.282,4.1 -0.33,4.163 -0.451,4.138 -0.518,4.179 -0.527,4.192 -0.525,4.19 -0.529,4.213 m 0.293,0.292 c -0.017,0.023 -0.02,0.052 -0.012,0.068 0.019,0.05 0.101,0.135 0.158,0.146 C -0.061,4.681 -0.019,4.7 0.022,4.674 0.032,4.664 0.026,4.671 0.034,4.652 -0.051,4.6 -0.108,4.526 -0.202,4.483 -0.211,4.491 -0.228,4.498 -0.236,4.505 m 0.45,0.192 C 0.19,4.734 0.169,4.741 0.225,4.753 0.229,4.743 0.232,4.731 0.236,4.719 H 0.248 V 4.709 H 0.236 C 0.225,4.699 0.233,4.704 0.214,4.697 M 1.058,0.803 c 0.071,0.102 0.194,0.181 0.282,0.27 0.1,0.102 0.172,0.22 0.258,0.337 0.034,0.047 0.099,0.071 0.135,0.113 0.103,0.122 0.186,0.254 0.282,0.383 0.05,0.068 0.12,0.13 0.168,0.203 H 2.195 V 2.097 C 2.204,2.086 2.199,2.094 2.205,2.075 2.132,2.011 2.099,1.873 2.049,1.782 2.037,1.778 2.026,1.774 2.015,1.771 1.962,1.704 1.926,1.578 1.88,1.5 1.852,1.454 1.791,1.403 1.767,1.355 1.69,1.197 1.632,1.031 1.553,0.882 1.505,0.791 1.411,0.496 1.316,0.476 1.31,0.491 1.305,0.5 1.294,0.51 1.29,0.433 1.256,0.454 1.238,0.409 1.205,0.327 1.259,0.296 1.193,0.251 1.15,0.353 1.175,0.518 1.181,0.634 1.152,0.654 1.034,0.779 1.058,0.803 M 1.272,1.174 C 1.265,1.192 1.264,1.194 1.26,1.22 1.374,1.292 1.549,1.521 1.632,1.636 1.814,1.889 2.042,2.118 2.229,2.367 2.297,2.459 2.512,2.736 2.611,2.772 V 2.762 C 2.619,2.749 2.617,2.751 2.622,2.728 2.525,2.658 2.451,2.527 2.374,2.435 2.341,2.394 2.283,2.365 2.251,2.322 2.086,2.102 1.91,1.9 1.755,1.67 1.739,1.645 1.695,1.628 1.677,1.603 1.656,1.571 1.665,1.534 1.643,1.5 1.63,1.481 1.574,1.472 1.553,1.456 1.505,1.42 1.334,1.227 1.306,1.174 Z M 1.834,0.083 C 1.827,0.079 1.82,0.075 1.812,0.071 1.77,0.153 1.788,0.335 1.789,0.454 1.828,0.506 1.799,0.558 1.823,0.634 1.846,0.703 1.903,0.779 1.936,0.848 1.956,0.841 1.947,0.845 1.959,0.837 1.97,0.819 1.97,0.791 1.969,0.758 1.929,0.713 1.956,0.675 1.936,0.6 1.895,0.45 1.838,0.264 1.834,0.083 M 3.827,3.898 C 3.862,3.931 3.916,3.912 3.984,3.909 3.99,3.892 3.992,3.89 3.996,3.864 3.954,3.854 3.913,3.842 3.871,3.83 3.85,3.859 3.83,3.859 3.815,3.898 Z"
   style="fill:#811236;fill-rule:nonzero"
   id="path310" />
            </g>
            <g
   transform="matrix(2,0,0,2,412.379,1023.54)"
   id="g316">
                <rect
   x="0"
   y="-0.044"
   width="0.068000004"
   height="0.034000002"
   style="fill:#ffffff"
   id="rect314" />
            </g>
            <g
   transform="matrix(2,0,0,2,411.299,1027.63)"
   id="g320">
                <path
   d="M 0,0.057 H -0.091 V 0.011 C -0.07,0.005 -0.079,0.01 -0.068,0 c 0.024,0.006 0.041,0.011 0.057,0.023 H 0 Z"
   style="fill:#ffffff;fill-rule:nonzero"
   id="path318" />
            </g>
            <g
   transform="matrix(2,0,0,2,406.998,1027.7)"
   id="g324">
                <path
   d="M 0,0.033 C 0.009,0.007 0.013,0.008 0.023,-0.011 0.035,-0.004 0.046,0.003 0.057,0.011 0.049,0.022 0.041,0.033 0.035,0.044 H 0.011 V 0.033 Z"
   style="fill:#ffffff;fill-rule:nonzero"
   id="path322" />
            </g>
            <g
   transform="matrix(2,0,0,2,407.067,1029.93)"
   id="g328">
                <path
   d="M 0,0.068 H -0.023 C -0.04,0.044 -0.042,0.046 -0.046,0 -0.028,0.018 -0.013,0.046 0,0.068"
   style="fill:#811236;fill-rule:nonzero"
   id="path326" />
            </g>
            <g
   transform="matrix(2,0,0,2,407.899,1031.48)"
   id="g332">
                <path
   d="m 0,-0.08 c -0.002,-0.026 -0.002,-0.032 -0.011,-0.044 -0.012,-0.009 -0.01,-0.008 -0.033,-0.012 v 0.079 h 0.033 C -0.004,-0.076 -0.009,-0.069 0,-0.08 M 2.477,1.867 C 2.489,1.84 2.496,1.831 2.499,1.789 2.467,1.79 2.451,1.793 2.431,1.8 2.433,1.842 2.425,1.84 2.453,1.857 2.465,1.865 2.456,1.86 2.477,1.867 M 2.6,1.372 H 2.634 C 2.632,1.346 2.632,1.34 2.622,1.327 2.613,1.303 2.613,1.311 2.6,1.293 2.571,1.295 2.562,1.298 2.544,1.305 2.559,1.34 2.58,1.343 2.6,1.372 M 4.299,1.62 H 4.255 V 1.664 H 4.299 Z M 5.706,1.879 H 5.684 c 0.018,0.013 0.009,0.018 0.022,0 M 6.246,0.934 H 6.292 C 6.29,0.886 6.284,0.882 6.27,0.855 H 6.202 C 6.214,0.9 6.232,0.891 6.246,0.934 M 7.62,-0.62 C 7.629,-0.632 7.624,-0.623 7.631,-0.642 7.608,-0.651 7.578,-0.654 7.541,-0.654 v 0.034 h 0.011 v 0.012 c 0.031,0 0.052,-0.001 0.068,-0.012 m 3.781,1.193 V 0.539 H 11.39 C 11.375,0.527 11.358,0.522 11.334,0.517 V 0.528 H 11.323 V 0.573 Z M 11.964,0.9 h -0.022 v 0.022 h 0.022 z m 0.62,-0.383 C 12.592,0.505 12.587,0.514 12.594,0.495 12.568,0.471 12.548,0.445 12.538,0.404 h -0.034 c -0.006,0.02 -0.002,0.012 -0.011,0.023 0.005,0.07 0.026,0.053 0.045,0.101 0.026,-0.002 0.032,-0.002 0.046,-0.011 m 3.86,0.461 h 0.034 C 16.477,0.943 16.474,0.921 16.466,0.9 16.444,0.896 16.421,0.892 16.399,0.888 c 0.008,0.058 0.028,0.045 0.045,0.09 M -0.655,1.236 c 0,-0.221 0.007,-0.441 0.048,-0.606 0.032,-0.134 -0.036,-0.306 0.033,-0.395 v -0.663 c 0.01,-0.021 0.052,-0.037 0.068,-0.057 0.122,0.015 0.198,0.081 0.349,0.079 -0.005,-0.052 -0.009,-0.049 -0.045,-0.067 V -0.552 C -0.338,-0.56 -0.368,-0.664 -0.528,-0.664 V -0.676 H -0.54 c -0.001,-0.215 0.032,-0.451 0.158,-0.54 -0.011,-0.01 -0.031,-0.017 -0.045,-0.023 0.005,-0.038 0.014,-0.067 0.034,-0.09 0.045,-0.021 0.131,-0.03 0.157,-0.101 h 0.011 v -0.012 c -0.034,-0.031 -0.055,-0.082 -0.089,-0.112 0.002,-0.159 0.08,-0.213 0.112,-0.327 0.026,-0.09 0.005,-0.164 0.056,-0.224 v -0.012 c -0.257,0.006 -0.103,-0.057 -0.225,-0.146 0.008,-0.027 0.011,-0.025 0.023,-0.045 0.214,-0.082 0.686,-0.016 0.9,0.045 h 0.202 c 0.004,0.011 0.008,0.023 0.012,0.033 h 0.191 c 0.021,0.008 0.051,0.038 0.079,0.046 h 0.123 c 0.008,0.011 0.016,0.022 0.023,0.033 H 1.34 c 0.007,0.012 0.015,0.022 0.022,0.034 h 0.135 c 0.029,0.01 0.059,0.047 0.09,0.056 h 0.135 c 0.004,0.012 0.008,0.023 0.012,0.034 0.056,0.004 0.112,0.007 0.169,0.011 0.007,0.012 0.014,0.023 0.022,0.034 h 0.18 c 0.004,0.012 0.007,0.022 0.011,0.034 h 0.192 c 0.008,0.022 0.014,0.045 0.022,0.067 0.019,0.008 0.011,0.002 0.022,0.012 0.069,-0.012 0.08,-0.047 0.125,-0.079 -0.009,-0.045 -0.013,-0.04 -0.046,-0.056 0.019,-0.136 0.315,-0.159 0.383,-0.259 0.07,0.007 0.048,0.034 0.068,0.079 0.053,-0.004 0.067,-0.013 0.089,-0.046 0.025,0.004 0.043,0.014 0.056,0.027 0.025,0.02 0.041,0.047 0.079,0.064 -0.004,0.01 -0.007,0.022 -0.01,0.034 -0.047,0 -0.059,10e-4 -0.079,-0.024 -0.029,0.003 -0.039,0.006 -0.056,0.012 v 0.056 c 0.155,0.006 0.265,0.09 0.382,0.135 0.056,0.022 0.103,0.006 0.146,0.034 0.069,0.049 0.12,0.182 0.147,0.271 h 0.007 v 0.19 C 3.539,-1.503 3.432,-1.559 3.309,-1.644 3.25,-1.685 3.22,-1.742 3.129,-1.757 c 0.037,0.11 0.127,0.11 0.214,0.17 0.112,0.074 0.238,0.143 0.349,0.224 0.042,0.031 0.066,0.083 0.113,0.113 v 0.011 l -0.006,0.047 c -0.012,-0.001 -0.025,0.002 -0.04,0.01 -0.01,0.004 -0.022,0.006 -0.034,0.01 0.009,0.037 0.023,0.048 0.046,0.068 -0.005,0.023 -0.003,0.022 -0.012,0.034 -0.051,0.036 -0.115,0.019 -0.18,0.045 -0.126,0.05 -0.307,0.134 -0.461,0.135 v 0.011 H 3.106 c 0.004,0.011 0.008,0.023 0.012,0.034 0.141,0.024 0.384,-0.076 0.506,-0.124 C 3.689,-0.993 3.743,-0.978 3.805,-1.003 4.02,-1.089 4.234,-1.185 4.434,-1.295 4.532,-1.348 4.622,-1.445 4.716,-1.498 4.772,-1.53 4.821,-1.532 4.874,-1.565 4.885,-1.581 4.896,-1.595 4.908,-1.611 4.993,-1.654 5.1,-1.659 5.2,-1.655 5.249,-1.652 5.298,-1.648 5.347,-1.644 5.387,-1.661 5.589,-1.8 5.617,-1.835 5.765,-1.8 6.006,-1.852 6.179,-1.813 6.241,-1.8 6.256,-1.83 6.28,-1.779 h 0.135 c 0.014,-0.068 -0.003,-0.099 -0.034,-0.147 0.014,-0.01 0.014,-0.009 0.024,-0.022 0.069,-0.001 0.162,-0.007 0.213,0.012 -0.006,0.074 -0.075,0.159 -0.135,0.179 v 0.045 c 0.05,-0.004 0.071,-0.026 0.101,-0.033 0.023,0.003 0.045,0.007 0.068,0.011 0.164,0.013 0.284,0.023 0.406,0.056 0.055,0.004 0.111,0.008 0.168,0.012 0.187,0.05 0.421,0.082 0.608,0.134 0.184,0.052 0.368,0.032 0.484,0.147 0.026,-0.003 0.032,-0.003 0.044,-0.011 0.02,-0.017 -0.006,-0.005 0.012,-0.023 l 0.012,-0.023 c 0.082,0.005 0.171,0.046 0.208,-0.006 0.003,-0.001 0.004,-0.002 0.005,-0.004 0.087,0.006 0.141,0.055 0.202,0.089 -0.008,0.097 0.043,0.187 0.079,0.27 v 0.068 c 0.015,0.041 0.062,0.104 0.079,0.146 V -0.8 c 0.012,0.003 0.022,0.007 0.034,0.011 0.004,0.026 0.008,0.053 0.012,0.079 0.04,0.075 0.117,0.16 0.157,0.237 v 0.067 c 0.006,0.009 0.039,0.011 0.045,0.022 v 0.057 c 0.025,0.052 0.073,0.088 0.09,0.157 0.268,0.059 0.628,0.06 0.968,0.056 0.005,-0.528 0.78,-0.692 0.991,-1.058 0.057,0.004 0.077,0.023 0.111,0.034 h 0.169 c 0.017,0.006 0.033,0.039 0.045,0.045 0.034,0.004 0.068,0.008 0.102,0.012 0.007,0.011 0.015,0.022 0.022,0.034 h 0.057 c 0.012,0.006 0.017,0.037 0.034,0.044 h 0.044 c 0.049,0.029 0.09,0.1 0.136,0.135 -0.008,0.02 -0.003,0.012 -0.012,0.023 0.022,0.127 0.201,0.192 0.304,0.248 0.038,0.019 0.083,0.064 0.124,0.022 0.115,0.042 0.178,0.189 0.27,0.259 0.134,0.101 0.246,0.233 0.382,0.327 0.117,0.079 0.24,0.13 0.338,0.224 0.026,-0.003 0.032,-0.002 0.045,-0.011 h 0.012 c -0.032,-0.089 -0.33,-0.295 -0.417,-0.36 -0.193,-0.144 -0.359,-0.337 -0.529,-0.506 -0.18,-0.182 -0.364,-0.304 -0.439,-0.597 0.098,-0.033 0.195,-0.012 0.304,-0.045 0.104,-0.031 0.243,-0.066 0.337,-0.101 0.051,-0.018 0.089,0.001 0.125,-0.023 0.008,-0.004 0.014,-0.008 0.022,-0.011 V -1.442 H 12.83 v -0.01 c -0.157,0.006 -0.338,0.056 -0.483,0.089 -0.111,0.025 -0.221,0.004 -0.304,0.056 -0.092,-0.007 -0.087,-0.062 -0.146,-0.089 H 11.818 C 11.814,-1.408 11.81,-1.419 11.806,-1.43 h -0.292 c -0.008,0.011 -0.015,0.022 -0.022,0.034 h -0.079 c -0.051,0.015 -0.132,0.069 -0.181,0.089 h -0.078 c -0.013,0.006 -0.029,0.04 -0.045,0.046 h -0.123 l -0.012,0.033 H 10.726 C 10.487,-1.324 10.231,-1.412 9.995,-1.509 H 9.894 C 9.886,-1.52 9.878,-1.532 9.871,-1.543 H 9.758 C 9.741,-1.549 9.726,-1.582 9.713,-1.587 H 9.589 C 9.568,-1.594 9.548,-1.627 9.533,-1.633 9.455,-1.666 9.367,-1.617 9.319,-1.678 H 9.106 C 9.046,-1.706 9.035,-1.81 8.971,-1.847 c 10e-4,-0.067 0.015,-0.094 0.04,-0.105 0.033,-0.014 0.082,-0.005 0.139,-0.03 0.036,-0.015 0.121,-0.062 0.158,-0.079 0.05,-0.02 0.115,0.01 0.158,-0.011 0.011,-0.005 0.033,-0.04 0.045,-0.045 H 9.68 C 9.687,-2.12 9.708,-2.149 9.713,-2.151 H 9.95 c 0.008,-0.003 0.028,-0.031 0.033,-0.033 0.116,-0.004 0.233,-0.008 0.349,-0.012 0.007,-0.01 0.015,-0.022 0.023,-0.034 h 0.472 c 0.058,-0.016 0.446,-0.072 0.54,-0.033 0.03,0.012 0.102,0.058 0.135,0.067 0.067,0.018 0.228,-0.076 0.282,-0.09 0,0 0.379,0.013 0.405,0.023 0.013,0.004 0.025,0.03 0.045,0.033 h 0.969 c 0.089,-0.003 0.179,-0.006 0.27,-0.01 0.044,0.01 0.085,0.045 0.123,0.067 -0.006,0.067 -0.027,0.062 -0.079,0.078 0.004,0.03 0.008,0.061 0.012,0.091 0.039,-0.026 0.057,-0.07 0.079,-0.113 0.045,0.01 0.047,0.036 0.078,0.045 0.056,0.017 0.057,-0.033 0.101,-0.023 0.075,0.02 0.16,0.085 0.226,0.113 0.051,0.022 0.098,0.01 0.146,0.034 0.099,0.05 0.153,0.164 0.27,0.203 0.019,0.01 0.029,0.002 0.068,0 V -1.791 C 14.438,-1.802 14.417,-1.842 14.372,-1.869 14.37,-1.924 14.358,-1.925 14.35,-1.97 h -0.033 c -0.015,-0.018 -0.024,-0.023 -0.046,-0.034 0.009,-0.043 0.013,-0.032 0.034,-0.057 -0.108,-0.068 -0.251,-0.12 -0.36,-0.179 v -0.023 h 0.012 v -0.011 c 0.043,-0.002 0.109,-0.007 0.135,0.011 h 0.596 c 0.066,0 0.191,-0.017 0.236,0.011 0.022,0.042 0.063,0.168 0.079,0.225 0.103,0.021 0.151,-0.02 0.225,-0.056 -10e-4,-0.029 -10e-4,-0.041 -0.011,-0.056 -0.015,-0.025 -0.065,-0.043 -0.09,-0.057 v -0.022 c 0.149,-0.048 0.556,-0.015 0.675,0.022 0.169,0.004 0.338,0.008 0.507,0.012 0.068,0.002 0.127,0.021 0.179,0.033 0.138,0.032 0.325,-0.011 0.417,-0.033 0.132,-0.032 0.129,0.026 0.236,-0.046 0.009,0.027 0.008,0.101 0.023,0.125 0.016,0.042 0.132,0.119 0.191,0.078 0.029,-0.017 0.025,-0.033 0.022,-0.078 0.051,-0.018 0.142,0.008 0.203,-0.012 0.02,-0.007 0.029,-0.025 0.057,-0.034 v 0.012 h 0.011 c 0.001,0.033 0.001,0.061 -0.011,0.078 -0.008,0.01 -0.031,-0.008 -0.067,-0.011 v 0.169 c 0.04,0.006 0.052,0.025 0.078,0.034 0.09,0.028 0.207,-0.025 0.27,0.022 0.041,0.039 0.044,0.213 0.067,0.282 0.012,0.032 0.057,0.065 0.068,0.089 v 0.417 c 10e-4,0.131 0.016,0.108 0.045,0.18 v 0.957 c 0.021,0.094 0.031,0.185 0.031,0.276 0,0.094 -0.011,0.186 -0.031,0.276 V 1.068 C 18.073,1.146 18.056,1.152 18.053,1.26 18.047,1.481 18.064,1.635 17.985,1.777 V 1.879 C 17.979,1.896 17.922,1.97 17.907,1.98 17.818,2.032 17.718,2.016 17.625,2.059 17.618,2.07 17.61,2.081 17.603,2.093 c -0.085,0.035 -0.27,-0.019 -0.371,0.01 -0.065,0.019 -0.121,0.063 -0.18,0.079 h -0.113 c -0.023,0.009 -0.038,0.049 -0.056,0.056 -0.052,0.023 -0.122,-0.016 -0.147,-0.022 0,0 -0.25,0.02 -0.258,0.022 C 16.432,2.252 16.376,2.261 16.312,2.266 16.116,2.283 15.864,2.262 15.734,2.228 H 15.397 C 15.358,2.219 15.267,2.232 15.217,2.216 15.205,2.212 15.165,2.186 15.15,2.182 H 14.801 C 14.794,2.18 14.766,2.152 14.755,2.149 H 14.508 C 14.497,2.145 14.462,2.108 14.452,2.103 H 14.271 C 14.242,2.097 14.21,2.066 14.193,2.059 H 14.024 C 14.011,2.053 13.995,2.019 13.979,2.014 H 13.844 C 13.836,2.002 13.829,1.992 13.821,1.98 13.774,1.961 13.701,1.992 13.664,1.968 13.637,1.984 13.656,1.964 13.641,1.992 H 13.63 c 0.034,0.099 0.174,0.218 0.258,0.269 -0.003,0.011 -0.006,0.023 -0.01,0.034 -0.219,0 -0.436,-0.002 -0.651,-0.004 -0.759,-0.008 -1.505,-0.029 -2.309,-0.03 -0.093,0 -0.107,-0.017 -0.158,-0.033 H 10.524 C 10.393,2.198 10.309,2.182 10.13,2.182 H 9.849 C 9.823,2.191 9.777,2.224 9.747,2.238 9.711,2.232 9.707,2.192 9.68,2.182 9.629,2.164 9.556,2.209 9.522,2.216 9.346,2.22 9.17,2.224 8.993,2.228 H 8.588 C 8.266,2.31 7.775,2.261 7.395,2.261 6.653,2.265 5.909,2.269 5.166,2.272 4.244,2.272 3.575,2.295 2.758,2.295 H 1.981 C 1.935,2.295 1.86,2.303 1.795,2.303 1.746,2.303 1.702,2.299 1.677,2.284 H 1.666 V 2.272 H 1.677 C 1.75,2.191 1.978,2.231 2.072,2.171 2.082,2.168 2.094,2.164 2.105,2.16 2.102,2.134 2.102,2.128 2.094,2.115 1.948,2 1.696,2.067 1.531,2.103 H 1.328 C 1.231,2.127 1.118,2.16 1.024,2.182 0.912,2.209 0.727,2.142 0.653,2.205 0.584,2.201 0.595,2.18 0.552,2.16 0.398,2.062 0.148,2.291 0,2.216 -0.004,2.205 -0.007,2.194 -0.011,2.182 H -0.078 C -0.108,2.169 -0.152,2.118 -0.179,2.103 -0.206,2.1 -0.232,2.097 -0.258,2.093 -0.312,2.059 -0.335,1.946 -0.371,1.912 -0.405,1.88 -0.48,1.88 -0.518,1.833 -0.556,1.785 -0.558,1.713 -0.607,1.676 -0.606,1.647 -0.603,1.638 -0.596,1.62 h 0.068 V 1.586 C -0.565,1.574 -0.624,1.567 -0.653,1.553 c 0,-0.102 -0.002,-0.21 -0.002,-0.317 m 0.194,0.103 h 0.022 C -0.441,1.313 -0.441,1.307 -0.45,1.293 -0.456,1.311 -0.458,1.313 -0.461,1.339 m 0.022,-2.049 h 0.023 c -0.013,-0.022 -0.028,-0.05 -0.045,-0.067 0.003,0.045 0.006,0.043 0.022,0.067 M 1.7,-1.903 H 1.689 C 1.673,-1.915 1.656,-1.92 1.633,-1.926 1.621,-1.916 1.63,-1.921 1.61,-1.914 v 0.045 H 1.7 Z m 9.657,0.461 h 0.01 c 0.012,0.01 0.003,0.005 0.023,0.012 0.015,-0.015 0.036,-0.024 0.057,-0.034 v -0.045 c -0.048,0.003 -0.052,0.007 -0.08,0.023 -0.002,0.025 -0.004,0.028 -0.01,0.044 m 0.899,1.024 c 0.003,0.027 0.003,0.032 0.012,0.046 0.018,0.014 0.05,0.02 0.068,0.033 0.026,-0.003 0.028,-0.004 0.045,-0.011 -0.004,-0.057 -0.016,-0.065 -0.034,-0.101 H 12.28 c -0.008,0.014 -0.013,0.023 -0.024,0.033 m 2.184,-1.711 c -0.011,0.055 -0.03,0.048 -0.034,0.113 0.03,-0.004 0.061,-0.007 0.091,-0.011 v -0.102 z m 2.634,0.136 c -0.023,0.005 -0.021,0.002 -0.034,0.011 -0.012,0.004 -0.022,0.008 -0.034,0.012 v 0.056 h 0.079 c 0,-0.035 -0.003,-0.058 -0.011,-0.079 m 0.563,3.985 c 0.019,0.006 0.011,0.001 0.022,0.01 0.01,-0.008 0.013,-0.013 0.023,-0.022 -0.017,-0.028 0.002,-0.014 -0.034,-0.022 -0.004,0.01 -0.007,0.022 -0.011,0.034"
   style="fill:#ffffff;fill-rule:nonzero"
   id="path330" />
            </g>
            <g
   transform="matrix(2,0,0,2,406.707,1027.84)"
   id="g336">
                <path
   d="M 0,0.259 C -0.004,0.251 -0.008,0.243 -0.011,0.237 -0.014,0.233 0.027,0.083 0.044,0.057 0.066,0.029 0.096,0.022 0.123,0 0.135,0.003 0.146,0.007 0.157,0.011 0.136,0.074 0.063,0.21 0.011,0.248 v 0.011 z"
   style="fill:#ffffff;fill-rule:nonzero"
   id="path334" />
            </g>
            <g
   transform="matrix(2,0,0,2,406.593,1029.41)"
   id="g340">
                <path
   d="M 0,0.067 C 0.001,0.032 0.004,0.01 0.011,-0.011 c 0.012,0.004 0.023,0.007 0.035,0.01 0,0.031 0,0.052 -0.012,0.068 C 0.022,0.077 0.032,0.072 0.011,0.078 V 0.067 Z"
   style="fill:#ffffff;fill-rule:nonzero"
   id="path338" />
            </g>
            <g
   transform="matrix(2,0,0,2,406.167,1001.04)"
   id="g344">
                <path
   d="M 0,16.459 V 13.714 C 0.044,13.649 -0.001,13.53 0.011,13.456 0.02,13.394 0.068,13.128 0.034,13.039 0.024,13.015 -0.001,12.997 -0.011,12.96 0.056,12.924 0.038,12.781 0.034,12.679 0.188,12.585 0.301,12.411 0.427,12.285 0.595,12.117 0.769,11.95 0.957,11.801 1.001,11.766 1.029,11.707 1.068,11.666 1.101,11.632 1.15,11.612 1.181,11.576 1.271,11.472 1.366,11.37 1.463,11.272 1.532,11.201 1.614,11.136 1.688,11.07 1.817,10.953 1.918,10.816 2.059,10.709 2.116,10.667 2.145,10.589 2.194,10.54 2.241,10.494 2.324,10.469 2.363,10.417 V 10.383 C 2.386,10.348 2.431,10.33 2.464,10.304 2.477,10.295 2.477,10.268 2.487,10.259 2.512,10.237 2.545,10.24 2.566,10.214 2.641,10.122 2.706,10.049 2.802,9.978 2.805,9.967 2.809,9.955 2.813,9.944 2.825,9.94 2.836,9.937 2.847,9.933 2.869,9.903 2.913,9.831 2.938,9.809 3.312,9.489 3.66,9.133 3.972,8.751 4.02,8.693 4.102,8.638 4.164,8.593 4.188,8.576 4.199,8.535 4.22,8.515 4.31,8.426 4.411,8.355 4.513,8.278 4.558,8.245 4.583,8.178 4.625,8.143 4.65,8.122 4.678,8.127 4.704,8.109 4.803,8.041 4.876,7.911 4.963,7.828 5.001,7.793 5.056,7.78 5.098,7.749 5.16,7.704 5.203,7.625 5.266,7.581 H 5.312 C 5.327,7.555 5.342,7.528 5.357,7.501 5.38,7.481 5.419,7.483 5.435,7.457 V 7.412 C 5.453,7.39 5.498,7.38 5.514,7.356 L 5.526,7.299 C 5.585,7.224 5.675,7.156 5.751,7.096 5.867,7.006 5.946,6.873 6.066,6.781 6.201,6.679 6.295,6.518 6.415,6.399 6.432,6.381 6.462,6.381 6.483,6.365 6.548,6.314 6.593,6.231 6.652,6.174 6.781,6.047 6.919,5.931 7.045,5.802 7.523,5.317 7.998,4.812 8.52,4.373 8.535,4.347 8.549,4.32 8.565,4.294 8.692,4.183 8.806,4.064 8.936,3.956 8.97,3.928 8.982,3.871 9.015,3.843 9.54,3.389 10.01,2.87 10.5,2.38 10.577,2.304 10.663,2.247 10.748,2.178 10.846,2.1 10.917,1.983 11.007,1.896 11.063,1.843 11.137,1.81 11.199,1.761 11.236,1.732 11.261,1.677 11.3,1.65 11.407,1.568 11.506,1.492 11.614,1.413 11.639,1.395 11.659,1.35 11.682,1.334 h 0.045 c 0.028,-0.017 0.043,-0.069 0.068,-0.09 0.043,-0.035 0.108,-0.049 0.158,-0.079 0.084,-0.051 0.162,-0.152 0.246,-0.202 h 0.08 c 0.011,-0.016 0.022,-0.03 0.034,-0.046 h 0.089 l 0.012,-0.033 h 0.045 C 12.489,0.867 12.532,0.82 12.56,0.805 h 0.045 c 0.029,-0.017 0.048,-0.074 0.079,-0.09 h 0.056 c 0.028,-0.014 0.075,-0.066 0.102,-0.079 h 0.056 c 0.023,-0.011 0.067,-0.056 0.09,-0.068 h 0.056 c 0.015,-0.018 0.03,-0.037 0.045,-0.055 h 0.067 c 0.008,-0.016 0.016,-0.03 0.024,-0.046 h 0.078 c 0.003,-0.011 0.007,-0.022 0.011,-0.034 h 0.068 C 13.364,0.42 13.412,0.368 13.438,0.355 13.482,0.333 13.529,0.342 13.573,0.322 13.611,0.304 13.698,0.288 13.735,0.271 h 0.067 c 0.012,-0.006 0.014,-0.039 0.023,-0.045 h 0.056 C 13.888,0.214 13.896,0.204 13.904,0.192 H 13.96 C 13.964,0.181 13.967,0.17 13.971,0.158 13.995,0.144 14.029,0.16 14.05,0.147 14.053,0.136 14.057,0.125 14.061,0.113 h 0.057 C 14.129,0.099 14.14,0.083 14.152,0.069 14.17,0.065 14.188,0.061 14.208,0.057 14.211,0.046 14.215,0.035 14.219,0.023 h 0.09 c 0.018,-0.01 0.016,-0.03 0.022,-0.055 h 0.079 v 0.033 c 0.095,0.055 0.159,0.162 0.225,0.247 0.019,0.024 0.02,-0.005 0.041,0.017 0.103,0.108 0.19,0.23 0.282,0.349 0.031,0.041 0.087,0.064 0.123,0.101 0.018,0.018 0.019,0.047 0.034,0.067 0.07,0.094 0.194,0.162 0.259,0.259 v 0.034 c 0,0.002 0.002,0.002 0.003,0.003 l -0.141,0.02 C 15.167,1.026 15.074,0.947 15.025,0.895 14.886,0.748 14.763,0.589 14.619,0.445 14.554,0.378 14.525,0.281 14.422,0.26 14.378,0.305 14.2,0.265 14.125,0.288 14.074,0.302 13.876,0.421 13.832,0.456 13.761,0.513 13.711,0.611 13.652,0.681 13.633,0.703 13.59,0.714 13.573,0.737 v 0.034 c -0.081,0.098 -0.202,0.17 -0.282,0.27 -0.239,0.3 -0.665,0.735 -1.046,0.878 0.001,0.055 -0.003,0.107 -0.012,0.146 C 12.035,2.167 11.82,2.448 11.66,2.606 11.559,2.705 11.427,2.803 11.31,2.887 11.28,2.91 11.259,2.96 11.232,2.988 11.13,3.092 11.021,3.192 10.917,3.293 c -0.112,0.107 -0.405,0.3 -0.439,0.461 0.011,0.004 0.022,0.008 0.034,0.011 0.072,0.044 0.216,-0.025 0.304,0.011 0.007,0.011 0.014,0.023 0.022,0.034 h 0.067 c 0.018,0.007 0.043,0.033 0.068,0.045 V 3.9 c -0.14,-0.002 -0.26,-0.004 -0.383,0 H 10.455 C 10.092,4.048 9.883,4.262 9.633,4.52 9.602,4.552 9.55,4.573 9.522,4.609 9.463,4.683 9.418,4.768 9.353,4.834 9.28,4.908 8.994,5.12 8.981,5.217 9.002,5.239 9.077,5.324 9.06,5.341 9.01,5.398 8.909,5.409 8.846,5.453 8.756,5.516 8.693,5.64 8.621,5.723 8.59,5.76 8.555,5.743 8.508,5.768 8.472,5.789 8.484,5.831 8.464,5.87 8.423,5.946 8.308,6.02 8.249,6.094 8.175,6.19 7.986,6.272 7.98,6.421 7.971,6.433 7.973,6.432 7.968,6.455 H 7.923 C 7.905,6.413 7.898,6.386 7.844,6.376 7.824,6.405 7.784,6.425 7.755,6.443 7.772,6.49 7.687,6.687 7.642,6.747 7.63,6.751 7.62,6.755 7.608,6.759 7.458,7.037 7.197,7.204 6.955,7.39 6.922,7.414 6.892,7.401 6.854,7.423 6.843,7.442 6.832,7.46 6.82,7.479 6.75,7.524 6.643,7.55 6.596,7.614 H 6.584 C 6.572,7.626 6.595,7.625 6.596,7.626 6.607,7.634 6.606,7.633 6.629,7.637 6.647,7.616 6.639,7.621 6.674,7.614 6.681,7.634 6.676,7.625 6.685,7.637 6.678,7.657 6.683,7.648 6.674,7.66 6.653,7.694 6.639,7.711 6.584,7.716 V 7.648 C 6.566,7.641 6.557,7.64 6.527,7.637 6.469,7.727 6.276,7.813 6.179,7.873 6.114,7.912 6.062,7.989 6.01,8.041 5.924,8.127 5.834,8.213 5.74,8.289 5.704,8.318 5.682,8.37 5.649,8.402 5.592,8.459 5.432,8.568 5.413,8.65 5.482,8.702 5.424,8.831 5.447,8.931 5.453,8.956 5.486,8.994 5.492,9.021 V 9.235 L 5.441,9.237 C 5.413,9.217 5.388,9.195 5.357,9.178 5.354,9.205 5.362,9.223 5.375,9.241 L 5.27,9.265 C 5.252,9.234 5.236,9.199 5.233,9.156 5.246,9.143 5.257,9.127 5.266,9.111 5.243,9.098 5.246,9.095 5.211,9.089 5.179,9.125 5.157,9.192 5.121,9.224 H 5.087 C 5.068,9.25 5.05,9.276 5.03,9.302 5.004,9.322 4.982,9.317 4.952,9.336 4.901,9.368 4.858,9.44 4.806,9.472 4.469,9.674 4.086,9.811 3.849,10.113 3.763,10.222 3.701,10.589 3.545,10.597 3.524,10.54 3.493,10.557 3.432,10.563 c -0.051,0.088 -0.145,0.11 -0.214,0.18 -0.181,0.186 -0.369,0.366 -0.55,0.552 -0.093,0.094 -0.259,0.168 -0.26,0.349 -0.029,0.017 -0.047,0.041 -0.079,0.055 -0.012,-0.036 -0.016,-0.034 -0.034,-0.033 -0.01,0.016 -0.01,0.036 -0.01,0.067 H 2.251 c -0.042,0.061 -0.125,0.088 -0.169,0.147 -0.079,0.106 -0.157,0.21 -0.248,0.304 -0.011,0.011 -0.035,0.008 -0.045,0.022 -0.028,0.045 -0.036,0.085 -0.067,0.124 -0.045,0.054 -0.118,0.111 -0.136,0.191 0.055,0.019 0.153,0.013 0.226,0.012 0.03,0.063 0.096,0.012 0.169,0.034 0.021,0.005 0.041,0.038 0.056,0.045 h 0.157 c 0.032,0.008 0.071,0.046 0.101,0.056 h 0.169 c 0.006,0.002 0.026,0.031 0.035,0.033 h 0.236 c 0.033,0.011 0.043,0.032 0.101,0.034 0.094,0.003 0.238,0.019 0.281,-0.034 0.017,-0.027 0.005,-0.06 0.034,-0.079 0.073,-0.044 0.107,0.03 0.146,0.046 h 0.102 c 0.007,0.011 0.015,0.022 0.022,0.033 h 0.192 c 0.007,0.012 0.014,0.023 0.022,0.034 h 0.327 c 0.03,0.008 0.076,0.038 0.101,0.046 h 0.056 v 0.135 H 4.085 C 4.068,12.95 4.068,12.951 4.063,13.005 h 0.011 v 0.012 L 3.893,13.02 C 3.88,13.007 3.862,12.998 3.837,12.994 3.815,13.026 3.801,13.035 3.748,13.039 3.728,12.995 3.75,12.968 3.68,12.96 3.612,13.06 3.316,13.083 3.297,13.219 3.33,13.236 3.334,13.231 3.343,13.275 3.298,13.307 3.287,13.342 3.218,13.355 3.207,13.345 3.215,13.35 3.196,13.343 3.188,13.321 3.181,13.298 3.174,13.275 H 2.982 C 2.978,13.264 2.975,13.253 2.971,13.242 H 2.791 C 2.783,13.23 2.775,13.219 2.769,13.208 2.712,13.204 2.656,13.2 2.6,13.196 2.596,13.186 2.592,13.174 2.589,13.162 H 2.453 C 2.422,13.154 2.392,13.116 2.363,13.107 H 2.228 C 2.221,13.095 2.213,13.084 2.205,13.073 H 2.048 C 2.041,13.061 2.033,13.05 2.025,13.039 H 1.902 C 1.874,13.031 1.844,13.001 1.823,12.994 H 1.632 C 1.628,12.983 1.624,12.971 1.62,12.96 H 1.418 C 1.204,12.899 0.732,12.834 0.518,12.916 0.506,12.935 0.504,12.934 0.495,12.96 0.617,13.05 0.463,13.112 0.72,13.107 v 0.011 c -0.051,0.06 -0.03,0.134 -0.057,0.225 -0.031,0.114 -0.109,0.168 -0.111,0.327 0.034,0.03 0.055,0.08 0.089,0.112 v 0.011 H 0.63 c -0.026,0.072 -0.112,0.08 -0.158,0.102 -0.019,0.023 -0.028,0.051 -0.033,0.089 0.014,0.006 0.033,0.014 0.045,0.023 -0.126,0.089 -0.159,0.325 -0.158,0.54 h 0.012 v 0.012 c 0.161,0 0.19,0.104 0.325,0.112 V 14.75 C 0.7,14.768 0.704,14.765 0.709,14.817 0.558,14.819 0.482,14.754 0.36,14.738 0.344,14.759 0.302,14.774 0.292,14.795 v 0.664 c -0.069,0.088 -0.001,0.26 -0.033,0.394 -0.041,0.165 -0.048,0.385 -0.048,0.606 z m 0.225,-2.283 c -0.008,0.021 -0.011,0.043 -0.012,0.078 h 0.012 v 0.012 C 0.245,14.259 0.235,14.264 0.247,14.254 0.259,14.239 0.259,14.217 0.259,14.187 0.247,14.183 0.236,14.18 0.225,14.176 m 0.089,-0.72 c -0.017,0.026 -0.058,0.176 -0.055,0.18 0.003,0.007 0.007,0.014 0.011,0.022 H 0.281 V 13.647 C 0.334,13.609 0.406,13.473 0.427,13.41 0.416,13.407 0.405,13.402 0.393,13.399 0.366,13.421 0.337,13.428 0.314,13.456 M 0.439,13.321 C 0.428,13.34 0.424,13.339 0.416,13.365 h 0.011 v 0.012 H 0.45 C 0.457,13.365 0.465,13.355 0.472,13.343 0.461,13.335 0.45,13.328 0.439,13.321 M 7.957,6.241 H 7.923 c -0.004,0.026 -0.01,0.012 0,0.034 C 7.935,6.283 7.934,6.281 7.957,6.286 7.96,6.275 7.964,6.263 7.968,6.253 H 7.957 Z"
   style="fill:#811236;fill-rule:nonzero"
   id="path342" />
            </g>
        </g>
    </g>
</svg>
