<?xml version="1.0" encoding="UTF-8"?>
<svg width="16px" height="16px" viewBox="0 0 16 16" version="1.1" xmlns="http://www.w3.org/2000/svg" xmlns:xlink="http://www.w3.org/1999/xlink">
    <title>HQ21</title>
    <g id="Page-1" stroke="none" stroke-width="1" fill="none" fill-rule="evenodd">
        <g id="HQ21" fill="#670C2F" fill-rule="nonzero">
            <g id="Q" transform="translate(3.128000, 2.494000)">
                <path d="M10.724,11.998 L10.724,11.844 C10.15,11.424 9.66,10.822 9.184,10.178 L7.868,8.386 L8.806,7.574 C9.408,6.79 9.688,5.558 9.688,4.648 C9.688,1.666 7.756,0 4.956,0 C1.988,0 -4.4408921e-16,2.086 -4.4408921e-16,4.872 C-4.4408921e-16,8.176 2.31,9.688 4.76,9.702 C5.082,9.702 5.53,9.688 5.81,9.674 C6.776,10.948 6.958,11.382 6.958,11.718 C6.958,11.746 6.944,11.788 6.93,11.844 L6.93,11.998 L10.724,11.998 Z M6.972,4.872 C6.972,6.174 6.426,7.434 5.782,7.98 L5.488,7.98 C3.738,7.98 2.716,6.72 2.716,4.564 C2.716,2.772 3.668,1.708 4.816,1.708 C6.174,1.708 6.972,2.884 6.972,4.872 Z" id="Shape"></path>
            </g>
        </g>
    </g>
</svg>