<?xml version="1.0" encoding="UTF-8"?>
<svg width="16px" height="16px" viewBox="0 0 16 16" version="1.1" xmlns="http://www.w3.org/2000/svg" xmlns:xlink="http://www.w3.org/1999/xlink">
    <title>HQ21</title>
    <g id="Page-1" stroke="none" stroke-width="1" fill="none" fill-rule="evenodd">
        <g id="HQ21" fill="#670C2F" fill-rule="nonzero">
            <g id="P" transform="translate(4.458000, 2.606000)">
                <path d="M7.714,3.122 C7.714,1.092 6.314,-1.77635684e-15 3.15,-1.77635684e-15 C2.198,-1.77635684e-15 1.078,0.028 -8.8817842e-16,0.042 L-8.8817842e-16,0.168 C0.224,0.476 0.322,2.072 0.322,2.786 L0.322,6.65 C0.322,7.364 0.224,8.96 -8.8817842e-16,9.268 L-8.8817842e-16,9.394 L3.178,9.394 L3.178,9.268 C2.954,8.96 2.842,7.546 2.842,6.65 L2.842,6.496 L4.9,6.244 C5.81,5.936 6.37,5.754 7.084,5.04 C7.434,4.564 7.714,3.794 7.714,3.122 Z M5.012,2.996 C5.012,4.298 4.298,4.942 3.85,4.942 C3.598,4.942 3.08,4.914 2.842,4.886 L2.842,1.512 C2.996,1.498 3.304,1.498 3.43,1.498 C4.564,1.498 5.012,2.058 5.012,2.996 Z" id="Shape"></path>
            </g>
        </g>
    </g>
</svg>