<?xml version="1.0" encoding="UTF-8"?>
<svg width="16px" height="16px" viewBox="0 0 16 16" version="1.1" xmlns="http://www.w3.org/2000/svg" xmlns:xlink="http://www.w3.org/1999/xlink">
    <title>HQ21</title>
    <g id="Page-1" stroke="none" stroke-width="1" fill="none" fill-rule="evenodd">
        <g id="HQ21" fill="#670C2F" fill-rule="nonzero">
            <g id="Y" transform="translate(2.939000, 2.648000)">
                <path d="M10.122,0.126 L10.122,0 L7.196,0 L7.196,0.126 C7.224,0.21 7.224,0.336 7.224,0.476 C7.224,0.882 6.79,1.834 6.342,2.604 L5.558,3.962 L4.774,2.646 C4.158,1.624 3.724,0.77 3.724,0.518 C3.71,0.28 3.738,0.224 3.766,0.126 L3.766,0 L0,0 L0,0.126 C0.672,0.63 1.47,1.876 2.198,3.122 L3.892,6.062 L3.892,6.552 C3.892,7.448 3.752,8.918 3.542,9.226 L3.542,9.352 L6.79,9.352 L6.79,9.226 C6.566,8.918 6.426,7.434 6.426,6.538 L6.426,5.964 L7,4.956 L7.826,3.528 C8.904,1.68 9.464,0.784 10.122,0.126 Z" id="Path"></path>
            </g>
        </g>
    </g>
</svg>