<svg width="16" height="17" xmlns="http://www.w3.org/2000/svg"><path d="M12.403 9.906c0-1.134-.672-1.862-2.03-2.198l1.092-.91a2.58 2.58 0 0 0 .196-.966c0-1.638-1.498-2.254-3.934-2.254-1.358 0-2.394.07-3.556.07v.126c.238.336.322 2.184.322 3.08v3.038c0 1.022-.084 2.59-.322 2.94v.154c.35 0 1.456.014 1.806.028.504.014 1.302.014 1.904.014 1.162 0 2.226-.098 3.192-.728.784-.518 1.33-1.26 1.33-2.394zM9.169 6.154c0 .49-.182.98-.49 1.33H6.985V5.09c.294-.042.616-.084.924-.084.714 0 1.26.322 1.26 1.148zm.658 4.004c0 .518-.196.882-.448 1.078-.196.154-.77.266-1.12.266-.532 0-.98-.07-1.274-.084v-2.38c.364-.056 1.064-.182 1.33-.182.714 0 1.512.266 1.512 1.302z" fill="#670C2F"/></svg>