<svg width="16" height="16" xmlns="http://www.w3.org/2000/svg"><path d="M12.898 12v-.154c-.616-.588-.924-.924-2.086-2.66L9.44 7.128l1.148-1.61c.854-1.204 1.694-2.394 2.17-2.744v-.126h-3.22v.112c.07.112.098.168.112.266 0 .518-.252 1.022-.882 1.932l-.476.686-.28-.42c-.84-1.246-1.12-1.82-1.12-2.212 0-.084.056-.168.098-.238v-.126H3.294v.126c.56.518.658.686 1.988 2.688l1.274 1.89L5.282 9.13c-.854 1.19-1.68 2.38-2.156 2.73V12h3.22v-.112a.605.605 0 0 1-.112-.266c0-.518.252-1.05.868-1.932l.588-.84.392.574c.644.952 1.19 1.792 1.19 2.17a.373.373 0 0 1-.098.252V12h3.724z" fill="#670C2F"/></svg>