<svg width="16" height="16" xmlns="http://www.w3.org/2000/svg"><path d="M13.712 12v-.126c-.28-.322-.378-1.932-.42-2.856l-.154-3.388c-.014-.336-.028-.644-.028-.938 0-.952.084-1.666.238-1.918v-.126H9.75v.322c-.252.924-.63 1.904-.91 2.604L7.65 8.57 6.502 5.364l-.91-2.52v-.196h-3.57v.126c.154.182.336.49.49.798 0 .406-.042 1.33-.126 2.296l-.28 2.884c-.098.938-.392 2.758-.672 3.094V12H4.01v-.154a3.156 3.156 0 0 1-.168-1.078c0-.868.028-1.456.056-1.974L4.08 5.28l1.246 3.416c.672 1.834.98 2.646.98 2.982v.168H8.49v-.168c0-.476.14-.938.854-2.8l1.428-3.766.084 3.906v.238c0 .91-.07 2.324-.238 2.618V12h3.094z" fill="#670C2F"/></svg>