<?xml version="1.0" encoding="UTF-8"?>
<svg width="16px" height="16px" viewBox="0 0 16 16" version="1.1" xmlns="http://www.w3.org/2000/svg" xmlns:xlink="http://www.w3.org/1999/xlink">
    <title>HQ21</title>
    <g id="Page-1" stroke="none" stroke-width="1" fill="none" fill-rule="evenodd">
        <g id="HQ21" fill="#670C2F" fill-rule="nonzero">
            <g id="S" transform="translate(4.374000, 2.480000)">
                <path d="M7.434,6.51 C7.434,5.236 6.972,4.312 4.872,3.794 C4.55,3.71 4.06,3.626 3.64,3.5 C2.954,3.304 2.66,3.038 2.66,2.492 C2.66,2.212 2.8,1.974 2.898,1.89 C3.066,1.75 3.514,1.694 3.696,1.694 C5.012,1.694 6.538,2.59 6.986,2.954 L7.112,2.954 L7.112,0.56 C6.538,0.266 5.362,0 4.242,0 C1.904,0 0.126,1.148 0.126,2.94 C0.126,4.158 0.882,5.348 2.59,5.796 C3.094,5.922 3.584,6.02 3.78,6.076 C4.438,6.258 5.026,6.37 5.026,6.986 C5.026,7.252 4.942,7.56 4.816,7.686 C4.606,7.896 4.326,7.994 3.836,7.994 C2.548,7.994 1.218,7.21 0.14,6.58 L8.8817842e-16,6.58 L8.8817842e-16,9.198 C1.134,9.562 2.254,9.66 3.01,9.66 C5.362,9.66 7.434,8.344 7.434,6.51 Z" id="Path"></path>
            </g>
        </g>
    </g>
</svg>