<?xml version="1.0" encoding="UTF-8"?>
<svg width="16px" height="16px" viewBox="0 0 16 16" version="1.1" xmlns="http://www.w3.org/2000/svg" xmlns:xlink="http://www.w3.org/1999/xlink">
    <title>HQ21</title>
    <g id="Page-1" stroke="none" stroke-width="1" fill="none" fill-rule="evenodd">
        <g id="HQ21" fill="#670C2F" fill-rule="nonzero">
            <g id="3" transform="translate(5.640000, 4.412000)">
                <path d="M5.65,5.41210526 C5.65,4.294 4.85305263,3.63978947 3.85389474,3.48515789 C4.25831579,3.30673684 4.99578947,2.79526316 5.06715789,2.70010526 C5.20989474,2.53357895 5.32884211,2.10536842 5.32884211,1.83178947 C5.32884211,0.630421053 4.31778947,7.54617755e-16 2.52168421,7.54617755e-16 C1.84368421,7.54617755e-16 0.725578947,0.178421053 0.273578947,0.404421053 L0.273578947,2.06968421 L0.368736842,2.06968421 C0.987263158,1.76042105 1.95073684,1.41547368 2.52168421,1.41547368 C2.73578947,1.41547368 3.00936842,1.45115789 3.06884211,1.51063158 C3.15210526,1.582 3.21157895,1.81989474 3.21157895,1.98642105 C3.21157895,2.52168421 3.14021053,2.87852632 2.31947368,3.24726316 C1.98642105,3.39 1.34410526,3.55652632 0.975368421,3.62789474 L1.08242105,4.88873684 C1.52252632,4.80547368 1.87936842,4.76978947 2.10536842,4.76978947 C2.86663158,4.76978947 3.50894737,5.06715789 3.50894737,5.81652632 C3.50894737,6.23284211 3.40189474,6.49452632 3.15210526,6.66105263 C2.90231579,6.75621053 2.58115789,6.79189474 2.31947368,6.79189474 C1.70094737,6.79189474 0.785052632,6.51831579 0.0951578947,6.13768421 L-7.54617755e-16,6.13768421 L-7.54617755e-16,7.91 C0.404421053,8.05273684 1.27273684,8.17168421 1.74852632,8.17168421 C2.78336842,8.17168421 3.54463158,8.00515789 4.28210526,7.56505263 C5.11473684,7.06547368 5.65,6.39936842 5.65,5.41210526 Z" id="Path"></path>
            </g>
        </g>
    </g>
</svg>