<?xml version="1.0" encoding="UTF-8" standalone="no"?>
<svg
   width="28.146597"
   height="85.882454"
   viewBox="0 0 28.146597 85.882454"
   version="1.1"
   xml:space="preserve"
   style="clip-rule:evenodd;fill-rule:evenodd"
   id="svg190"
   sodipodi:docname="steps_short2.svg"
   inkscape:version="1.1.1 (3bf5ae0d25, 2021-09-20)"
   xmlns:inkscape="http://www.inkscape.org/namespaces/inkscape"
   xmlns:sodipodi="http://sodipodi.sourceforge.net/DTD/sodipodi-0.dtd"
   xmlns="http://www.w3.org/2000/svg"
   xmlns:svg="http://www.w3.org/2000/svg"><defs
   id="defs194" /><sodipodi:namedview
   id="namedview192"
   pagecolor="#ffffff"
   bordercolor="#666666"
   borderopacity="1.0"
   inkscape:pageshadow="2"
   inkscape:pageopacity="0.0"
   inkscape:pagecheckerboard="0"
   showgrid="false"
   inkscape:zoom="9.2808989"
   inkscape:cx="14.276634"
   inkscape:cy="43.31477"
   inkscape:window-width="1920"
   inkscape:window-height="1012"
   inkscape:window-x="-8"
   inkscape:window-y="-8"
   inkscape:window-maximized="1"
   inkscape:current-layer="svg190" />
    <g
   transform="translate(-866.41173,-63.531145)"
   id="g188">
        <g
   transform="translate(92,-58.6667)"
   id="g186">
            <g
   transform="matrix(1.33333,0,0,1.33333,791.966,158.1)"
   id="g4">
                <path
   d="m 0,10.975 -0.107,0.009 v 0.537 c 0,0.709 -0.071,0.792 -0.784,0.962 -0.23,0.055 -0.418,0.149 -0.248,0.425 0.297,-0.069 0.593,-0.136 0.888,-0.209 C 0.033,12.628 0.196,12.473 0.153,12.167 0.097,11.771 0.05,11.372 0,10.975 Z m -12.875,2.127 v -1.565 c 0.08,-0.156 0.228,-0.311 0.229,-0.467 0.002,-0.716 -0.034,-1.432 -0.061,-2.148 -0.025,-0.636 -0.091,-1.273 -0.077,-1.909 0.017,-0.777 0.136,-1.552 0.144,-2.328 0.01,-1.034 -0.06,-2.068 -0.069,-3.102 -0.014,-1.462 -0.004,-2.924 -0.004,-4.452 0.61,-0.022 1.205,-0.062 1.801,-0.061 0.571,0.002 1.143,0.065 1.714,0.067 0.611,0.002 1.223,-0.066 1.832,-0.052 1.266,0.027 2.531,0.094 3.797,0.13 0.481,0.014 0.548,0.069 0.546,0.515 -10e-4,0.348 0.023,0.698 0.057,1.045 0.015,0.16 0.147,0.332 0.109,0.469 -0.098,0.35 -0.268,0.681 -0.394,1.025 -0.061,0.166 -0.121,0.342 -0.127,0.515 -0.018,0.547 -0.036,1.077 -0.341,1.579 -0.241,0.394 -0.112,0.812 0.145,0.954 0.135,-0.413 0.284,-0.838 0.411,-1.269 0.102,-0.344 0.196,-0.692 0.256,-1.044 0.059,-0.345 -0.011,-0.73 0.123,-1.038 0.157,-0.362 0.204,-0.681 0.096,-1.048 -0.032,-0.109 0.017,-0.243 0.039,-0.364 0.015,-0.086 0.081,-0.175 0.067,-0.253 -0.06,-0.348 -0.141,-0.692 -0.224,-1.081 0.494,0 0.971,-0.011 1.448,0.009 0.118,0.005 0.232,0.112 0.308,0.152 0.103,-0.025 0.221,-0.078 0.338,-0.078 1.434,-0.007 2.865,-0.018 4.298,-0.145 1.15,-0.102 2.313,-0.06 3.47,-0.099 0.334,-0.012 0.467,0.08 0.446,0.416 C 7.457,-1.802 7.431,-1.077 7.419,-0.353 7.405,0.442 7.412,1.237 7.415,2.031 7.417,2.592 7.398,3.15 7.351,3.712 7.297,4.366 7.399,5.03 7.412,5.689 c 0.034,1.739 0.057,3.479 0.084,5.218 0.002,0.104 0.003,0.208 0.003,0.313 v 2.072 C 7.247,13.239 6.969,13.223 6.731,13.122 6.191,12.894 5.642,12.86 5.074,12.947 4.597,13.019 4.136,13.168 3.634,13.121 3.388,13.097 3.126,13.22 2.813,13.29 2.689,13.083 2.49,13 2.246,13.265 2.21,13.305 2.108,13.302 2.037,13.3 1.682,13.292 1.327,13.254 0.974,13.271 c -0.531,0.025 -1.059,0.1 -1.589,0.124 -0.122,0.006 -0.281,-0.077 -0.369,-0.168 -0.148,-0.153 -0.266,-0.303 -0.532,-0.115 0.104,0.193 0.231,0.437 -0.242,0.37 0.266,-0.351 -0.087,-0.479 -0.259,-0.643 -0.074,-0.072 -0.284,-0.012 -0.433,-0.012 -0.036,0.051 -0.073,0.103 -0.109,0.154 0.82,-0.048 0.232,0.588 0.572,0.799 -0.192,0.014 -0.376,0.023 -0.519,-0.045 -0.429,-0.205 -0.806,-0.144 -1.202,0.092 -0.138,0.082 -0.36,0.101 -0.524,0.067 -0.572,-0.118 -1.136,-0.272 -1.76,-0.426 -0.201,-0.556 -0.431,-1.191 -0.666,-1.842 0.25,-0.058 0.47,-0.081 0.665,-0.162 0.194,-0.08 0.354,-0.233 0.544,-0.326 0.216,-0.104 0.443,-0.203 0.678,-0.254 0.208,-0.046 0.512,0.056 0.628,-0.051 0.134,-0.125 0.111,-0.406 0.154,-0.62 0.021,-0.1 0.038,-0.201 0.066,-0.351 0.259,-0.032 0.54,-0.136 0.777,-0.079 0.297,0.073 0.545,0.096 0.812,-0.057 0.237,-0.135 0.458,-0.126 0.648,0.103 0.11,0.131 0.284,0.223 0.365,0.366 0.241,0.418 0.609,0.456 1.056,0.377 C -0.927,10.434 -0.942,10.447 -1.578,9.761 -1.857,9.46 -2.142,9.425 -2.518,9.514 -2.736,9.565 -2.986,9.57 -3.204,9.523 -3.869,9.381 -4.291,9.646 -4.36,10.287 c -0.011,0.109 -0.024,0.219 -0.038,0.352 -0.641,-0.134 -1.118,0.09 -1.568,0.443 -0.148,0.116 -0.365,0.173 -0.561,0.208 -0.47,0.087 -0.788,-0.315 -0.639,-0.761 0.13,-0.391 0.251,-0.788 0.328,-1.19 C -6.805,9.163 -6.881,8.963 -6.925,8.778 -6.959,8.637 -7.043,8.504 -7.066,8.362 -7.137,7.924 -7.202,7.486 -7.51,7.103 c 0.042,0.574 0.08,1.111 0.124,1.646 0.004,0.048 0.027,0.112 0.064,0.138 0.275,0.184 0.144,0.4 0.081,0.628 -0.133,0.475 -0.242,0.957 -0.388,1.547 C -7.7,10.855 -7.792,10.706 -7.794,10.556 -7.799,10.189 -7.916,9.857 -8.256,9.708 -8.516,9.593 -8.517,9.45 -8.55,9.234 -8.633,8.691 -8.722,8.144 -8.885,7.619 -9.011,7.209 -9.251,6.831 -9.44,6.439 -9.473,6.371 -9.505,6.302 -9.537,6.233 c -0.036,0.013 -0.072,0.026 -0.109,0.039 0.197,0.476 0.056,1.042 0.527,1.455 0.118,0.103 0.151,0.326 0.165,0.499 0.026,0.31 0.014,0.625 0.008,0.938 -0.007,0.408 0.154,0.719 0.523,0.944 0.102,0.062 0.218,0.22 0.205,0.32 -0.062,0.494 0.172,0.776 0.617,0.981 0.135,0.063 0.21,0.261 0.288,0.409 0.052,0.098 0.061,0.218 0.089,0.327 0.105,-0.076 0.21,-0.152 0.295,-0.213 0.19,0.459 0.394,0.954 0.584,1.415 -0.526,0.179 -1.003,0.214 -1.375,-0.298 0.022,-0.135 0.055,-0.334 0.087,-0.534 l -0.045,-0.004 c -0.076,0.151 -0.151,0.302 -0.187,0.374 -0.282,0.055 -0.497,0.152 -0.692,0.124 -0.403,-0.061 -0.718,0.074 -1.032,0.277 -0.066,0.043 -0.171,0.031 -0.242,0.071 -0.296,0.166 -0.248,-0.285 -0.432,-0.228 -0.194,0.061 -0.245,0.352 -0.551,0.296 -0.285,-0.052 -0.593,-0.077 -0.876,-0.029 -0.458,0.079 -0.846,0.013 -1.185,-0.294 z"
   style="fill:none;fill-rule:nonzero;stroke:#691c2d;stroke-width:0.58px"
   id="path2" />
            </g>
            <g
   transform="matrix(1.33333,0,0,1.33333,798.633,193.667)"
   id="g8">
                <path
   d="m 0,-42.792 c -0.439,-0.105 -0.635,0.052 -0.636,0.5 0.212,-0.167 0.424,-0.333 0.636,-0.5 z m 1.388,-0.07 c 0.383,0.41 0.394,1.071 0.971,1.429 0.049,-0.478 -0.528,-1.308 -0.971,-1.429 z m -1.075,-0.077 c 0.204,0.181 0.372,0.331 0.532,0.473 -0.166,0.104 -0.308,0.194 -0.549,0.345 0.478,0.11 0.828,0.191 1.279,0.296 -0.281,-0.501 -0.513,-0.913 -0.762,-1.357 -0.166,0.081 -0.306,0.149 -0.5,0.243 z m 2.061,0.86 v -3.031 c -0.635,0.236 -0.556,0.762 -0.771,1.152 0.44,-0.045 0.627,0.136 0.558,0.527 -0.026,0.149 -0.112,0.288 -0.145,0.437 -0.025,0.11 -0.048,0.245 -0.005,0.34 0.085,0.185 0.217,0.35 0.363,0.575 z m -6.92,4.735 c -0.023,0.21 -0.041,0.369 -0.056,0.51 0.232,-0.051 0.436,-0.06 0.599,-0.142 0.157,-0.079 0.273,-0.233 0.407,-0.355 0.053,0.422 0.1,0.449 0.379,0.435 0.453,-0.021 0.908,0 1.362,-10e-4 0.106,0 0.229,0.014 0.315,-0.03 0.251,-0.128 0.478,-0.135 0.718,0.02 0.059,0.039 0.155,0.034 0.234,0.036 0.882,0.023 1.743,0.147 2.573,0.447 0.141,0.051 0.313,0.024 0.492,0.036 0.008,-0.098 0.017,-0.16 0.018,-0.222 v -2.525 c -0.245,0.143 -0.416,0.262 -0.605,0.348 -0.272,0.124 -0.548,0.283 -0.838,0.32 -0.433,0.055 -0.879,0.027 -1.318,0.014 -0.141,-0.004 -0.305,-0.041 -0.415,-0.118 -0.365,-0.256 -0.754,-0.207 -1.157,-0.161 -0.005,0.093 -0.009,0.158 -0.011,0.222 -0.017,0.562 -0.071,0.613 -0.651,0.607 -0.146,-0.001 -0.293,-0.005 -0.438,-0.021 -0.484,-0.053 -1.219,0.275 -1.333,0.732 -0.082,-0.045 -0.16,-0.088 -0.275,-0.152 z m 7.002,-4.009 c -0.428,0.031 -0.788,0.07 -1.148,0.081 -0.409,0.012 -0.818,-0.001 -1.227,-0.002 -0.599,-10e-4 -1.206,0.056 -1.797,-0.014 -0.923,-0.11 -1.819,0.006 -2.729,0.114 -0.644,0.076 -1.304,0.065 -1.956,0.052 -0.396,-0.008 -0.791,-0.133 -1.187,-0.138 -1.461,-0.017 -2.922,0.003 -4.383,-0.01 -1.714,-0.014 -3.428,-0.048 -5.142,-0.076 -0.51,-0.008 -0.51,-0.009 -0.521,0.493 -0.003,0.128 -0.049,0.254 -0.051,0.382 -0.008,0.689 -0.011,1.379 -0.012,2.068 -0.001,0.356 -0.009,0.713 0.015,1.068 0.013,0.182 0.032,0.427 0.152,0.521 0.12,0.093 0.371,0.039 0.564,0.038 0.084,-10e-4 0.169,-0.051 0.25,-0.044 0.598,0.055 1.192,0.073 1.784,-0.058 0.11,-0.024 0.236,0.033 0.356,0.042 0.106,0.008 0.215,0.014 0.318,-0.003 0.362,-0.057 0.171,-0.381 0.287,-0.558 -0.152,-0.007 -0.305,-0.022 -0.456,-0.015 -0.062,0.002 -0.133,0.041 -0.182,0.083 -0.329,0.284 -0.685,0.24 -1.068,0.117 -0.119,-0.039 -0.314,-0.032 -0.4,0.038 -0.356,0.291 -0.745,0.221 -1.162,0.184 0.366,-0.58 1.003,-0.851 1.638,-0.771 0.211,0.027 0.438,-0.067 0.659,-0.097 0.218,-0.03 0.437,-0.064 0.657,-0.068 0.18,-0.004 0.361,0.034 0.609,0.061 0.138,0.447 0.525,0.068 0.734,0.079 0.164,0.246 0.27,0.473 0.439,0.646 0.425,0.435 1,0.299 1.495,0.222 0.56,-0.087 1.085,-0.19 1.609,0.094 0.055,0.028 0.134,0.035 0.198,0.025 0.285,-0.046 0.57,-0.149 0.852,-0.143 0.519,0.012 1.035,0.111 1.554,0.131 0.662,0.024 1.326,0.006 2.017,0.006 0,-0.144 -0.041,-0.29 0.009,-0.397 0.099,-0.215 0.225,-0.562 0.382,-0.585 0.608,-0.086 1.164,-0.424 1.828,-0.284 0.463,0.097 0.518,-0.013 0.564,-0.475 0.013,-0.123 0.08,-0.324 0.16,-0.342 0.287,-0.069 0.624,-0.17 0.88,-0.086 0.651,0.214 1.054,-0.201 1.538,-0.432 0.357,-0.171 0.708,-0.369 1.085,-0.48 0.25,-0.073 0.541,-0.014 0.788,-0.014 z m -20.042,-0.804 c 0.898,-0.081 1.702,-0.153 2.507,-0.225 0.193,-0.017 0.386,-0.034 0.579,-0.047 0.171,-0.011 0.342,-0.029 0.512,-0.019 0.112,0.005 0.226,0.09 0.33,0.076 0.541,-0.069 1.075,-0.22 1.62,-0.003 0.096,0.038 0.234,-0.035 0.353,-0.036 0.584,0 1.169,-0.003 1.753,0.013 0.699,0.021 1.398,0.088 2.097,0.083 0.611,-0.005 1.221,-0.093 1.834,-0.125 0.457,-0.024 0.915,-0.018 1.373,-0.025 0.406,-0.007 0.841,-0.103 1.212,0.005 0.388,0.113 0.647,0.136 0.839,-0.196 0.1,0.049 0.258,0.131 0.261,0.125 0.139,-0.217 0.263,-0.442 0.389,-0.667 0.16,-0.09 0.371,-0.157 0.506,-0.293 0.532,-0.537 1.306,-0.195 1.906,-0.5 0.107,-0.054 0.339,0.124 0.516,0.187 0.155,0.055 0.313,0.1 0.465,0.147 0.045,-0.372 0.177,-0.714 0.1,-1.006 -0.097,-0.365 0.045,-0.523 0.309,-0.703 0.399,-0.272 0.674,-0.598 0.454,-1.115 -0.051,-0.119 -0.03,-0.267 -0.037,-0.349 -1.122,0 -2.24,-0.001 -3.357,0 -0.272,0 -0.544,0.011 -0.817,0.008 -1.985,-0.023 -3.97,-0.059 -5.955,-0.069 -0.854,-0.004 -1.709,0.056 -2.564,0.067 -0.936,0.013 -1.874,0.014 -2.81,0 -1.33,-0.019 -2.659,-0.055 -3.988,-0.09 -0.204,-0.006 -0.402,-0.013 -0.405,0.243 -0.015,1.22 -0.02,2.441 -0.029,3.661 0,0.13 -0.007,0.261 10e-4,0.391 0.012,0.182 0.036,0.364 0.046,0.462 z m 7.473,7.962 c 0.19,0.432 0.35,0.793 0.507,1.156 0.025,0.058 0.049,0.123 0.047,0.184 -0.014,0.386 -0.076,0.775 -0.042,1.156 0.023,0.257 0.139,0.527 0.292,0.741 0.053,0.074 0.339,-0.007 0.52,-0.011 0.066,0 0.133,0.025 0.2,0.025 0.549,-0.001 1.099,0.006 1.648,-0.011 0.497,-0.016 0.993,-0.054 1.489,-0.093 0.138,-0.011 0.273,-0.06 0.415,-0.093 0.028,0.02 0.094,0.102 0.171,0.112 0.203,0.026 0.444,-0.04 0.611,0.041 0.492,0.237 0.882,-0.138 1.378,-0.089 -0.162,-0.184 -0.274,-0.311 -0.385,-0.437 0.369,0.094 0.705,0.207 1.05,0.26 0.283,0.042 0.579,0 0.867,0.017 0.238,0.014 0.474,0.059 0.71,0.091 0.803,0.387 1.673,0.361 2.583,0.264 -0.135,0.457 0.211,0.397 0.53,0.503 v -5.334 c -0.649,0 -1.248,-10e-4 -1.846,0 -0.269,10e-4 -0.542,-0.025 -0.729,0.234 -0.041,0.056 -0.169,0.082 -0.254,0.078 -0.294,-0.017 -0.587,-0.074 -0.881,-0.077 -0.998,-0.009 -1.996,0.004 -2.994,-0.004 -0.5,-0.005 -1,-0.048 -1.5,-0.055 -0.624,-0.01 -1.232,-0.289 -1.868,-0.099 -0.189,0.056 -0.378,0.134 -0.571,0.151 -0.631,0.055 -1.273,0.17 -1.892,0.106 -0.822,-0.085 -1.687,0.177 -2.468,-0.252 -0.021,-0.011 -0.054,-0.003 -0.081,-0.003 -1.596,0 -3.191,0.002 -4.787,-0.003 -0.22,-10e-4 -0.319,0.068 -0.325,0.291 -0.012,0.416 -0.076,0.831 -0.072,1.246 0.01,0.917 0.043,1.835 0.077,2.752 0.011,0.273 0.056,0.546 0.087,0.84 0.765,-0.142 1.463,-0.272 2.16,-0.401 -0.006,-0.046 -0.011,-0.091 -0.017,-0.137 0.24,0.194 0.447,0.439 0.788,0.133 0.123,-0.111 0.427,-0.146 0.592,-0.082 0.382,0.146 0.854,-0.093 1.18,0.271 0.035,0.039 0.224,0.005 0.298,-0.05 0.233,-0.171 0.451,-0.097 0.686,-0.018 0.139,0.047 0.298,0.101 0.434,0.077 0.485,-0.084 0.963,-0.2 1.467,-0.31 0.113,-0.236 -0.16,-0.499 0.019,-0.806 0.123,-0.211 0.024,-0.54 0.024,-0.896 -0.033,-0.051 -0.125,-0.194 -0.218,-0.338 0.025,-0.014 0.05,-0.028 0.076,-0.043 0.109,0.123 0.219,0.246 0.329,0.369 0.079,-0.527 -0.552,-0.837 -0.305,-1.456 z m -7.763,20.622 c 0.339,0.307 0.728,0.372 1.186,0.294 0.282,-0.048 0.591,-0.023 0.876,0.029 0.305,0.056 0.356,-0.235 0.55,-0.296 0.185,-0.057 0.137,0.394 0.432,0.227 0.071,-0.04 0.176,-0.027 0.243,-0.071 0.313,-0.202 0.629,-0.337 1.032,-0.277 0.195,0.029 0.41,-0.068 0.691,-0.124 0.036,-0.072 0.111,-0.222 0.187,-0.373 l 0.046,0.004 c -0.033,0.199 -0.066,0.399 -0.088,0.534 0.372,0.512 0.849,0.476 1.375,0.297 -0.19,-0.461 -0.394,-0.956 -0.583,-1.415 -0.086,0.062 -0.191,0.138 -0.296,0.214 -0.028,-0.11 -0.036,-0.229 -0.088,-0.327 -0.079,-0.148 -0.154,-0.347 -0.289,-0.409 -0.445,-0.206 -0.679,-0.487 -0.616,-0.981 0.012,-0.1 -0.103,-0.258 -0.206,-0.32 -0.369,-0.225 -0.53,-0.536 -0.522,-0.945 0.005,-0.312 0.018,-0.627 -0.008,-0.938 -0.015,-0.172 -0.048,-0.395 -0.165,-0.498 -0.472,-0.414 -0.331,-0.979 -0.528,-1.455 0.037,-0.013 0.073,-0.026 0.109,-0.039 0.033,0.069 0.064,0.138 0.097,0.206 0.189,0.392 0.429,0.77 0.556,1.179 0.162,0.525 0.252,1.073 0.334,1.616 0.033,0.216 0.034,0.359 0.294,0.473 0.34,0.15 0.457,0.482 0.462,0.849 0.003,0.15 0.095,0.298 0.166,0.505 0.146,-0.589 0.254,-1.071 0.387,-1.547 0.063,-0.227 0.195,-0.443 -0.08,-0.628 -0.038,-0.025 -0.061,-0.089 -0.065,-0.137 -0.043,-0.536 -0.082,-1.072 -0.124,-1.647 0.309,0.384 0.373,0.821 0.444,1.26 0.023,0.142 0.107,0.274 0.141,0.416 0.044,0.185 0.121,0.385 0.087,0.561 -0.077,0.402 -0.197,0.799 -0.328,1.19 -0.149,0.446 0.169,0.848 0.64,0.761 0.195,-0.036 0.413,-0.092 0.561,-0.208 0.45,-0.353 0.927,-0.578 1.567,-0.443 0.015,-0.133 0.027,-0.243 0.039,-0.352 0.068,-0.642 0.49,-0.906 1.155,-0.764 0.219,0.047 0.468,0.042 0.686,-0.009 0.376,-0.089 0.661,-0.054 0.94,0.247 0.636,0.685 0.652,0.672 1.313,0.811 -0.447,0.078 -0.815,0.04 -1.055,-0.378 -0.082,-0.142 -0.256,-0.234 -0.366,-0.365 -0.189,-0.229 -0.411,-0.239 -0.648,-0.103 -0.267,0.152 -0.514,0.13 -0.812,0.057 -0.237,-0.058 -0.517,0.046 -0.776,0.079 -0.028,0.149 -0.046,0.251 -0.066,0.351 -0.044,0.214 -0.02,0.495 -0.155,0.62 -0.116,0.107 -0.42,0.005 -0.628,0.051 -0.234,0.051 -0.461,0.15 -0.678,0.254 -0.19,0.092 -0.349,0.246 -0.543,0.326 -0.195,0.08 -0.416,0.104 -0.666,0.162 0.236,0.651 0.465,1.286 0.666,1.841 0.624,0.155 1.188,0.309 1.76,0.427 0.165,0.034 0.386,0.015 0.525,-0.068 0.395,-0.235 0.772,-0.297 1.201,-0.091 0.143,0.068 0.327,0.059 0.519,0.044 -0.339,-0.21 0.248,-0.847 -0.572,-0.798 0.037,-0.052 0.073,-0.103 0.11,-0.155 0.148,0 0.358,-0.059 0.432,0.012 0.173,0.165 0.525,0.292 0.26,0.644 0.472,0.066 0.345,-0.177 0.242,-0.37 0.266,-0.188 0.383,-0.038 0.531,0.115 0.088,0.091 0.247,0.174 0.369,0.168 0.531,-0.024 1.059,-0.099 1.589,-0.124 0.353,-0.017 0.709,0.021 1.063,0.029 0.071,0.002 0.173,0.005 0.21,-0.035 0.244,-0.265 0.442,-0.183 0.567,0.025 0.313,-0.07 0.574,-0.193 0.821,-0.17 0.502,0.048 0.962,-0.101 1.439,-0.174 0.568,-0.086 1.118,-0.052 1.657,0.176 0.239,0.101 0.516,0.117 0.768,0.17 v -2.073 c 0,-0.104 -0.001,-0.208 -0.003,-0.313 -0.027,-1.739 -0.05,-3.478 -0.084,-5.217 -0.013,-0.66 -0.114,-1.324 -0.06,-1.978 0.047,-0.561 0.066,-1.119 0.064,-1.68 -0.004,-0.795 -0.01,-1.59 0.003,-2.384 0.013,-0.724 0.038,-1.449 0.083,-2.172 0.021,-0.336 -0.112,-0.428 -0.446,-0.416 -1.157,0.039 -2.32,-0.003 -3.469,0.099 -1.433,0.127 -2.864,0.138 -4.299,0.144 -0.117,0 -0.235,0.054 -0.337,0.079 -0.077,-0.04 -0.191,-0.147 -0.309,-0.152 -0.476,-0.02 -0.954,-0.009 -1.448,-0.009 0.083,0.389 0.164,0.733 0.224,1.081 0.014,0.078 -0.051,0.167 -0.067,0.253 -0.022,0.121 -0.071,0.255 -0.039,0.364 0.108,0.367 0.061,0.686 -0.096,1.047 -0.134,0.309 -0.064,0.694 -0.123,1.039 -0.059,0.352 -0.154,0.7 -0.255,1.044 -0.127,0.431 -0.277,0.855 -0.412,1.269 -0.256,-0.142 -0.385,-0.561 -0.145,-0.955 0.306,-0.501 0.323,-1.031 0.341,-1.578 0.006,-0.173 0.066,-0.349 0.127,-0.515 0.127,-0.344 0.297,-0.675 0.394,-1.025 0.038,-0.137 -0.094,-0.309 -0.109,-0.469 -0.034,-0.347 -0.058,-0.697 -0.056,-1.045 10e-4,-0.446 -0.066,-0.502 -0.547,-0.515 -1.266,-0.036 -2.53,-0.104 -3.796,-0.131 -0.61,-0.013 -1.221,0.054 -1.832,0.053 -0.572,-0.002 -1.143,-0.066 -1.715,-0.067 -0.595,-0.002 -1.191,0.038 -1.801,0.061 0,1.528 -0.01,2.99 0.004,4.451 0.009,1.034 0.079,2.069 0.069,3.103 -0.007,0.776 -0.127,1.551 -0.144,2.328 -0.014,0.636 0.053,1.272 0.077,1.909 0.028,0.716 0.064,1.432 0.061,2.148 -0.001,0.156 -0.149,0.311 -0.229,0.467 v -38.174 h 0.327 c -0.028,1.081 -0.058,2.163 -0.085,3.245 -0.007,0.277 0.021,0.558 -0.015,0.832 -0.065,0.491 -0.186,0.98 0.104,1.443 0.075,0.121 0.174,0.321 0.261,0.32 0.131,0 0.262,-0.145 0.435,-0.256 0.169,0.051 0.413,0.125 0.7,0.212 -0.048,-0.155 -0.081,-0.262 -0.143,-0.461 0.244,0.193 0.399,0.411 0.574,0.428 0.185,0.018 0.537,0.027 0.527,-0.367 h -0.446 c 0.533,-0.415 1,-0.778 1.475,-1.147 0.306,0.093 0.631,0.193 0.971,0.297 -0.131,0.197 -0.2,0.301 -0.269,0.406 0.531,-0.174 0.878,0.169 1.237,0.335 0.506,0.232 1.11,0.154 1.403,-0.308 0.107,-0.17 0.192,-0.223 0.419,-0.15 0.449,0.146 0.92,0.229 1.382,0.339 0.04,0.009 0.079,0.03 0.118,0.031 0.904,0.015 1.807,0.023 2.711,0.044 0.141,0.003 0.28,0.066 0.421,0.093 0.131,0.025 0.266,0.066 0.395,0.054 0.332,-0.031 0.664,-0.079 0.992,-0.138 0.193,-0.035 0.38,-0.1 0.567,-0.16 0.468,-0.15 0.824,-0.523 1.424,-0.424 0.503,0.083 0.988,0.147 1.472,0.331 0.613,0.234 1.26,0.393 1.901,0.555 0.377,0.096 0.771,0.135 1.277,0.219 0.048,-0.233 0.237,-0.579 0.151,-0.842 -0.253,-0.773 -0.14,-1.544 -0.137,-2.317 0.003,-0.838 10e-4,-1.675 10e-4,-2.459 -0.939,0 -1.806,0.009 -2.674,-0.002 -1.439,-0.019 -2.878,-0.065 -4.317,-0.071 -0.854,-0.004 -1.708,0.052 -2.562,0.069 -0.213,0.004 -0.426,-0.05 -0.64,-0.054 -0.691,-0.012 -1.383,-0.018 -2.075,-0.018 -0.431,10e-4 -0.862,0.024 -1.294,0.025 -0.851,0.004 -1.703,-0.001 -2.554,-0.002 h -2.139 c -0.017,0.474 -0.084,0.902 0.511,1.11 0.32,0.112 0.389,0.537 0.206,0.834 -0.224,0.363 -0.168,0.711 -0.002,1.068 0.093,0.201 0.199,0.399 0.256,0.61 0.055,0.203 0.055,0.42 0.079,0.631 -0.035,0.003 -0.07,0.007 -0.104,0.012 -0.191,-0.406 -0.371,-0.817 -0.576,-1.216 -0.232,-0.451 -0.355,-0.893 -0.03,-1.353 0.108,-0.152 0.067,-0.243 -0.128,-0.317 -0.471,-0.178 -0.898,-0.413 -0.999,-0.955 -0.033,-0.177 -0.084,-0.351 -0.126,-0.526 H 2.654 V 10.52 h -20.53 V 9.581 c 0.094,0.049 0.186,0.1 0.281,0.147 0.68,0.337 1.378,0.358 2.097,0.121 0.184,-0.061 0.385,-0.111 0.576,-0.105 0.504,0.017 1.008,0.082 1.512,0.096 0.148,0.004 0.296,-0.106 0.449,-0.146 0.147,-0.039 0.323,-0.115 0.447,-0.071 0.613,0.217 1.301,0.37 1.864,0.155 0.61,-0.233 1.159,-0.112 1.739,-0.121 0.647,-0.009 1.293,-0.056 1.94,-0.071 0.51,-0.012 1.021,-0.007 1.531,10e-4 0.16,0.002 0.319,0.044 0.479,0.053 0.512,0.031 1.024,0.065 1.536,0.077 0.241,0.006 0.483,-0.042 0.725,-0.051 0.267,-0.01 0.535,0.003 0.801,-0.005 C -1.479,9.647 -1.045,9.546 -0.645,9.62 0.288,9.794 1.082,9.573 1.809,9.031 1.894,8.968 1.967,8.846 2.056,8.836 2.627,8.769 2.477,8.393 2.46,8.053 2.446,7.764 2.467,7.472 2.487,7.182 2.522,6.687 2.569,6.192 2.613,5.683 2.443,5.676 2.363,5.668 2.283,5.669 1.076,5.685 -0.131,5.705 -1.338,5.715 -1.793,5.719 -2.25,5.674 -2.703,5.701 c -0.803,0.046 -1.602,0.166 -2.405,0.192 -1.098,0.035 -2.198,0.001 -3.296,0.014 -0.938,0.012 -1.875,0.063 -2.813,0.067 -0.695,0.002 -1.39,-0.065 -2.084,-0.064 -0.732,0 -1.465,0.064 -2.197,0.063 -0.792,0 -1.585,-0.044 -2.378,-0.068 V 4.027 c 0.322,0.565 0.541,0.601 1.086,0.223 0.101,-0.07 0.323,-0.104 0.413,-0.046 0.383,0.245 0.762,0.126 1.154,0.068 0.224,-0.033 0.457,-0.126 0.664,0.129 0.18,0.222 0.464,0.25 0.74,0.083 0.076,-0.046 0.183,-0.075 0.272,-0.067 0.305,0.026 0.608,0.091 0.914,0.103 0.243,0.011 0.565,-0.134 0.716,-0.03 0.293,0.201 0.556,0.082 0.819,0.059 0.249,-0.022 0.608,-0.007 0.472,-0.506 0.43,0.201 0.769,0.442 1.142,0.512 0.398,0.073 0.829,-0.017 1.265,-0.036 C -8.424,3.973 -8.094,3.638 -7.885,3.268 -7.762,3.05 -7.652,2.824 -7.536,2.602 -7.569,2.562 -7.603,2.521 -7.636,2.481 H -8.811 C -8.989,2.34 -9.088,2.206 -9.219,2.167 c -0.372,-0.11 -0.758,-0.174 -1.136,-0.27 -0.2,-0.05 -0.413,-0.16 -0.476,0.145 -0.057,0.276 0.046,0.514 0.346,0.566 0.484,0.084 0.98,0.105 1.468,0.176 0.176,0.027 0.342,0.121 0.534,0.191 -0.427,0 -0.829,0.091 -1.156,-0.021 -0.471,-0.161 -1.096,-0.077 -1.368,-0.645 -0.027,-0.055 -0.13,-0.076 -0.193,-0.111 -0.113,0.132 -0.216,0.254 -0.271,0.318 -0.312,-0.153 -0.534,-0.325 -0.781,-0.367 -0.39,-0.068 -0.797,-0.049 -1.244,-0.068 0.064,-0.139 0.091,-0.196 0.117,-0.252 0.027,-0.116 0.055,-0.232 0.108,-0.459 0.157,0.16 0.265,0.271 0.373,0.381 0.842,0.186 0.829,0.168 1.584,-0.319 0.176,-0.114 0.473,-0.054 0.772,-0.078 -0.093,0.122 -0.141,0.186 -0.256,0.337 1.139,0.212 2.208,0.411 3.319,0.619 -0.094,-0.261 0.245,-0.553 -0.083,-0.686 0.141,-0.427 0.276,-0.836 0.437,-1.325 0.108,0.319 0.198,0.586 0.297,0.879 -0.381,0.103 -0.341,0.4 -0.335,0.686 0.005,0.26 -0.028,0.525 0.009,0.78 0.06,0.405 -0.158,0.659 -0.343,0.914 -0.03,0.12 -0.06,0.241 -0.089,0.362 -0.072,-0.036 -0.143,-0.071 -0.259,-0.129 -0.063,0.197 -0.125,0.396 -0.171,0.538 0.235,0.099 0.4,0.225 0.565,0.226 0.534,0.005 1.069,-0.027 1.602,-0.061 0.619,-0.04 1.242,-0.167 1.854,-0.127 0.648,0.041 1.267,-0.032 1.904,-0.089 C -1.388,4.214 -0.665,4.363 0.05,4.413 0.158,4.421 0.27,4.394 0.379,4.378 0.768,4.319 1.157,4.255 1.546,4.202 1.587,4.196 1.633,4.246 1.68,4.265 1.925,4.364 2.171,4.462 2.497,4.592 v -5.314 c -0.472,-0.036 -0.9,-0.093 -1.328,-0.095 -0.481,-0.002 -0.963,0.065 -1.444,0.068 -1.898,0.008 -3.796,0.003 -5.694,0.003 h -2.416 c -1.175,0 -2.35,0.01 -3.525,-0.002 -1.508,-0.016 -3.015,-0.047 -4.523,-0.079 -0.239,-0.005 -0.484,-0.086 -0.717,-0.06 -0.247,0.029 -0.484,0.144 -0.726,0.221 v -1.095 c 0.614,-0.214 1.32,0.052 1.904,-0.333 0.04,-0.026 0.149,-0.007 0.192,0.029 0.425,0.344 0.914,0.529 1.467,0.544 0.183,0.005 0.406,0.009 0.544,-0.08 0.264,-0.17 0.479,-0.407 0.722,-0.624 0.219,0.141 0.439,0.282 0.655,0.422 -0.076,0.138 -0.135,0.245 -0.235,0.427 0.366,0.02 0.665,0.073 0.954,0.039 0.187,-0.022 0.359,-0.17 0.133,-0.386 -0.112,-0.107 -0.219,-0.22 -0.394,-0.396 0.214,0.023 0.363,0.028 0.507,0.059 0.183,0.038 0.359,0.126 0.543,0.142 0.462,0.041 0.958,-0.034 1.384,0.1 0.547,0.171 1.078,0.362 1.653,0.293 0.281,-0.033 0.625,-0.116 0.8,-0.299 0.237,-0.249 0.064,-0.893 -0.171,-1.091 -0.278,-0.234 -0.424,-0.515 -0.44,-0.897 -0.011,-0.294 -0.102,-0.676 -0.311,-0.853 -0.446,-0.376 -0.631,-0.827 -0.707,-1.349 -0.018,-0.12 0.034,-0.249 0.055,-0.374 0.049,-0.006 0.099,-0.013 0.148,-0.019 0.083,0.205 0.187,0.405 0.243,0.617 0.085,0.315 0.208,0.569 0.472,0.817 0.338,0.315 0.69,0.693 0.537,1.251 -0.034,0.127 0.062,0.321 0.158,0.439 0.283,0.35 0.59,0.684 0.901,1.012 0.084,0.089 0.216,0.183 0.331,0.19 0.788,0.043 1.577,0.065 2.366,0.091 0.204,0.006 0.409,-0.009 0.612,0 0.952,0.046 1.905,0.082 2.855,0.152 0.484,0.035 0.962,0.138 1.445,0.198 0.088,0.011 0.268,-0.05 0.267,-0.06 -0.063,-0.469 0.264,-0.241 0.459,-0.241 H 2.471 C 2.451,-2.32 2.412,-2.668 2.418,-3.016 2.432,-3.847 2.47,-4.677 2.494,-5.508 2.5,-5.714 2.477,-5.921 2.489,-6.126 2.514,-6.542 2.221,-6.75 1.777,-6.672 c -0.541,0.094 -1.09,0.201 -1.636,0.205 -1.307,0.008 -2.615,-0.055 -3.923,-0.062 -0.712,-0.004 -1.425,0.067 -2.137,0.065 -1.074,-0.005 -2.148,-0.043 -3.222,-0.071 -0.477,-0.013 -0.957,-0.077 -1.43,-0.044 -1.2,0.085 -2.399,0.15 -3.602,0.117 -1.049,-0.027 -2.098,-0.049 -3.146,-0.073 -0.224,-0.005 -0.414,0.039 -0.41,0.306 0.006,0.506 -0.03,1.019 0.047,1.515 0.042,0.271 -0.003,0.44 -0.194,0.606 v -3.755 c 0.312,-0.268 0.567,-0.065 0.825,0.093 0.638,-0.319 0.638,-0.319 0.362,-0.626 0.259,-0.106 0.424,0.021 0.676,0.526 0.556,-0.241 1.022,-0.031 1.481,0.268 0.287,0.188 0.633,0.326 0.947,0.109 0.258,-0.178 0.447,-0.448 0.666,-0.678 -0.021,-0.042 -0.042,-0.084 -0.062,-0.127 0.141,0.055 0.302,0.085 0.42,0.17 0.308,0.224 0.613,0.321 1.013,0.223 0.231,-0.057 0.501,0.028 0.753,0.048 0.224,0.018 0.496,0.119 0.661,0.033 0.385,-0.201 0.775,-0.195 1.181,-0.197 0.144,-10e-4 0.29,-0.032 0.431,-0.066 0.291,-0.07 0.578,-0.152 0.863,-0.228 0.09,0.169 0.142,0.268 0.205,0.385 0.448,-0.199 0.958,0.228 1.367,-0.168 0.094,0.05 0.18,0.127 0.277,0.142 0.269,0.041 0.542,0.075 0.814,0.076 0.303,0.001 0.607,-0.031 0.909,-0.061 0.288,-0.028 0.649,-0.197 0.846,-0.086 0.475,0.267 1.151,0.094 1.485,0.635 0.023,0.037 0.091,0.056 0.142,0.068 0.835,0.21 1.641,0.217 2.372,-0.308 0.044,-0.032 0.113,-0.05 0.17,-0.047 0.275,0.011 0.549,0.031 0.824,0.048 -0.012,0.017 -0.023,0.033 -0.035,0.05 0.208,0.1 0.415,0.2 0.741,0.357 0.081,-1.596 0.02,-3.089 0.037,-4.63 H 0.827 c -1.08,-0.001 -2.16,0.006 -3.24,-0.006 -0.68,-0.008 -1.36,-0.055 -2.04,-0.068 -0.213,-0.004 -0.429,0.074 -0.64,0.061 -0.485,-0.03 -0.967,-0.093 -1.45,-0.143 -1.083,-0.113 -2.092,0.177 -3.093,0.517 -0.071,0.024 -0.17,-0.008 -0.25,-0.032 -0.272,-0.079 -0.537,-0.213 -0.814,-0.24 -0.458,-0.045 -0.933,0.03 -1.385,-0.041 -0.829,-0.129 -1.652,-0.235 -2.496,-0.211 -0.926,0.027 -1.853,0.002 -2.78,0.01 -0.172,0.002 -0.343,0.05 -0.515,0.076 z"
   style="fill:none;fill-rule:nonzero;stroke:#691c2d;stroke-width:0.58px"
   id="path6" />
            </g>
            <g
   transform="matrix(1.33333,0,0,1.33333,781.619,126.546)"
   id="g12">
                <path
   d="M 0,-0.101 0.026,-0.204 C -0.218,-0.389 -0.479,-0.318 -0.74,-0.261 l -0.004,0.16 z m -4.134,-2.87 c 0.043,0.175 0.093,0.349 0.126,0.526 0.102,0.542 0.529,0.777 1,0.955 0.195,0.073 0.235,0.164 0.128,0.317 -0.326,0.46 -0.203,0.902 0.029,1.353 0.205,0.399 0.385,0.81 0.576,1.216 0.035,-0.005 0.07,-0.008 0.104,-0.013 -0.024,-0.21 -0.024,-0.427 -0.079,-0.63 -0.057,-0.211 -0.163,-0.41 -0.256,-0.61 -0.166,-0.358 -0.222,-0.705 0.002,-1.068 0.183,-0.297 0.114,-0.722 -0.205,-0.834 -0.596,-0.208 -0.529,-0.636 -0.512,-1.11 0.712,0 1.425,-10e-4 2.139,0 0.852,0.001 1.703,0.006 2.555,0.002 0.431,-0.002 0.862,-0.024 1.293,-0.025 0.692,0 1.384,0.005 2.076,0.018 0.213,0.003 0.427,0.058 0.639,0.054 0.855,-0.017 1.708,-0.073 2.562,-0.069 1.439,0.006 2.878,0.052 4.318,0.071 0.867,0.011 1.735,0.002 2.673,0.002 0,0.784 0.003,1.621 -0.001,2.458 C 15.031,0.416 14.917,1.186 15.171,1.96 15.257,2.223 15.068,2.569 15.02,2.802 14.513,2.717 14.12,2.678 13.742,2.583 13.101,2.421 12.455,2.261 11.841,2.028 11.358,1.843 10.872,1.78 10.369,1.697 9.769,1.598 9.413,1.97 8.945,2.12 8.759,2.18 8.571,2.246 8.379,2.281 8.051,2.34 7.719,2.388 7.386,2.419 7.257,2.431 7.122,2.39 6.991,2.365 6.85,2.338 6.711,2.275 6.57,2.272 5.667,2.251 4.763,2.242 3.859,2.228 3.82,2.227 3.781,2.206 3.742,2.197 3.279,2.087 2.808,2.004 2.359,1.859 2.133,1.786 2.048,1.838 1.94,2.008 1.647,2.469 1.043,2.548 0.538,2.316 0.178,2.15 -0.169,1.807 -0.7,1.981 -0.631,1.876 -0.561,1.772 -0.431,1.574 -0.77,1.471 -1.095,1.371 -1.401,1.277 -1.876,1.647 -2.343,2.01 -2.877,2.425 h 0.446 c 0.01,0.394 -0.342,0.385 -0.526,0.367 -0.176,-0.017 -0.33,-0.235 -0.574,-0.429 0.061,0.2 0.095,0.307 0.142,0.463 -0.287,-0.088 -0.53,-0.162 -0.7,-0.213 -0.173,0.111 -0.303,0.255 -0.435,0.256 -0.087,10e-4 -0.186,-0.2 -0.261,-0.32 -0.29,-0.463 -0.169,-0.952 -0.104,-1.443 0.036,-0.274 0.009,-0.555 0.015,-0.832 0.028,-1.082 0.057,-2.164 0.086,-3.245 z"
   style="fill:none;fill-rule:nonzero;stroke:#691c2d;stroke-width:0.58px"
   id="path10" />
            </g>
            <g
   transform="matrix(1.33333,0,0,1.33333,795.451,190.335)"
   id="g16">
                <path
   d="m 0,-3.054 c 0.196,0.01 0.358,0.027 0.521,0.022 C 0.574,-3.033 0.639,-3.081 0.673,-3.125 0.69,-3.146 0.658,-3.219 0.628,-3.252 0.458,-3.433 0.087,-3.319 0,-3.054 Z m -15.489,1.445 c 0.19,-0.166 0.236,-0.335 0.194,-0.606 -0.077,-0.496 -0.041,-1.008 -0.048,-1.514 -0.003,-0.268 0.186,-0.311 0.41,-0.306 1.049,0.024 2.098,0.045 3.146,0.073 1.204,0.032 2.402,-0.033 3.602,-0.118 0.473,-0.033 0.953,0.031 1.43,0.044 1.074,0.028 2.148,0.066 3.222,0.071 0.713,0.003 1.425,-0.069 2.138,-0.065 1.308,0.008 2.615,0.07 3.923,0.062 0.545,-0.003 1.094,-0.111 1.635,-0.205 0.444,-0.078 0.737,0.131 0.712,0.546 -0.012,0.205 0.012,0.413 0.006,0.619 -0.024,0.83 -0.062,1.661 -0.077,2.491 -0.006,0.348 0.033,0.697 0.054,1.075 H 4.56 C 4.364,0.558 4.037,0.331 4.1,0.799 4.101,0.81 3.922,0.871 3.833,0.86 3.35,0.8 2.873,0.696 2.389,0.661 1.439,0.592 0.486,0.555 -0.466,0.51 -0.67,0.5 -0.875,0.515 -1.079,0.509 -1.868,0.484 -2.657,0.462 -3.445,0.418 -3.56,0.412 -3.691,0.317 -3.775,0.229 c -0.312,-0.328 -0.619,-0.662 -0.902,-1.013 -0.095,-0.118 -0.192,-0.312 -0.157,-0.438 0.153,-0.559 -0.2,-0.936 -0.537,-1.251 -0.265,-0.248 -0.388,-0.502 -0.472,-0.818 -0.057,-0.211 -0.161,-0.411 -0.243,-0.617 -0.05,0.007 -0.099,0.013 -0.149,0.019 -0.02,0.125 -0.072,0.254 -0.055,0.374 0.077,0.523 0.262,0.974 0.707,1.349 0.209,0.177 0.3,0.559 0.312,0.853 0.015,0.382 0.162,0.663 0.44,0.898 0.234,0.197 0.407,0.841 0.17,1.09 -0.174,0.184 -0.519,0.267 -0.8,0.3 C -6.035,1.043 -6.567,0.853 -7.113,0.681 -7.539,0.547 -8.035,0.623 -8.498,0.582 -8.681,0.566 -8.857,0.478 -9.041,0.439 -9.184,0.409 -9.334,0.404 -9.548,0.38 c 0.175,0.177 0.282,0.289 0.394,0.396 0.226,0.217 0.055,0.365 -0.133,0.387 -0.288,0.034 -0.588,-0.02 -0.953,-0.04 0.1,-0.182 0.158,-0.288 0.235,-0.427 -0.217,-0.139 -0.437,-0.281 -0.655,-0.422 -0.244,0.217 -0.459,0.455 -0.722,0.625 -0.139,0.089 -0.361,0.085 -0.544,0.079 -0.553,-0.015 -1.043,-0.2 -1.467,-0.544 -0.044,-0.035 -0.152,-0.054 -0.192,-0.028 -0.585,0.385 -1.29,0.119 -1.904,0.332 z"
   style="fill:none;fill-rule:nonzero;stroke:#691c2d;stroke-width:0.58px"
   id="path14" />
            </g>
            <g
   transform="matrix(1.33333,0,0,1.33333,774.799,183.934)"
   id="g20">
                <path
   d="m 0,-4.631 c 0.172,-0.027 0.343,-0.075 0.515,-0.076 0.926,-0.008 1.854,0.017 2.779,-0.01 0.845,-0.024 1.668,0.082 2.497,0.211 0.451,0.071 0.926,-0.004 1.385,0.04 0.277,0.028 0.541,0.162 0.814,0.241 0.08,0.023 0.179,0.056 0.25,0.032 1.001,-0.34 2.01,-0.63 3.093,-0.517 0.483,0.05 0.965,0.113 1.449,0.143 0.212,0.013 0.428,-0.065 0.641,-0.061 0.68,0.013 1.36,0.06 2.039,0.067 1.081,0.013 2.161,0.006 3.241,0.007 h 1.668 c -0.017,1.541 0.044,3.034 -0.037,4.63 -0.326,-0.157 -0.534,-0.257 -0.741,-0.357 0.011,-0.017 0.023,-0.034 0.034,-0.05 -0.274,-0.017 -0.549,-0.037 -0.824,-0.048 -0.056,-0.003 -0.125,0.015 -0.169,0.047 -0.732,0.524 -1.537,0.518 -2.372,0.308 -0.051,-0.013 -0.12,-0.031 -0.142,-0.068 -0.335,-0.541 -1.01,-0.368 -1.485,-0.635 -0.197,-0.111 -0.559,0.057 -0.847,0.086 -0.302,0.03 -0.606,0.062 -0.908,0.061 C 12.608,-0.581 12.335,-0.615 12.065,-0.656 11.969,-0.671 11.882,-0.748 11.789,-0.799 11.38,-0.402 10.87,-0.829 10.421,-0.63 10.359,-0.747 10.306,-0.846 10.216,-1.016 9.932,-0.939 9.644,-0.858 9.354,-0.787 9.213,-0.753 9.066,-0.722 8.922,-0.721 8.517,-0.719 8.126,-0.725 7.742,-0.524 7.577,-0.438 7.304,-0.54 7.081,-0.557 6.828,-0.577 6.559,-0.662 6.328,-0.605 c -0.4,0.098 -0.706,0.001 -1.014,-0.223 -0.117,-0.086 -0.278,-0.115 -0.42,-0.17 0.021,0.042 0.042,0.085 0.063,0.127 -0.22,0.23 -0.408,0.5 -0.667,0.678 C 3.976,0.024 3.631,-0.114 3.343,-0.302 2.884,-0.602 2.418,-0.811 1.863,-0.57 1.611,-1.075 1.446,-1.202 1.187,-1.097 1.462,-0.789 1.462,-0.789 0.825,-0.47 0.567,-0.628 0.312,-0.831 0,-0.563 Z"
   style="fill:none;fill-rule:nonzero;stroke:#691c2d;stroke-width:0.58px"
   id="path18" />
            </g>
            <g
   transform="matrix(1.33333,0,0,1.33333,774.799,206.801)"
   id="g24">
                <path
   d="m 0,-3.946 c 0.793,0.025 1.585,0.068 2.378,0.068 0.732,0.001 1.464,-0.062 2.196,-0.063 0.695,0 1.39,0.066 2.084,0.064 0.938,-0.003 1.875,-0.055 2.813,-0.066 1.099,-0.013 2.199,0.02 3.297,-0.015 0.803,-0.026 1.602,-0.145 2.405,-0.192 0.453,-0.027 0.91,0.019 1.365,0.015 1.207,-0.011 2.413,-0.031 3.62,-0.046 0.08,-0.001 0.16,0.006 0.33,0.013 -0.043,0.509 -0.09,1.004 -0.125,1.499 -0.021,0.29 -0.042,0.582 -0.027,0.871 0.017,0.34 0.167,0.717 -0.404,0.783 -0.089,0.011 -0.162,0.132 -0.248,0.195 -0.726,0.543 -1.521,0.763 -2.453,0.589 -0.4,-0.074 -0.835,0.028 -1.254,0.041 -0.267,0.009 -0.534,-0.005 -0.801,0.005 -0.242,0.009 -0.484,0.057 -0.725,0.051 C 13.938,-0.146 13.426,-0.18 12.915,-0.211 12.754,-0.22 12.596,-0.262 12.436,-0.264 11.925,-0.271 11.415,-0.277 10.905,-0.265 10.257,-0.249 9.611,-0.203 8.964,-0.193 8.384,-0.185 7.836,-0.306 7.226,-0.073 6.662,0.142 5.975,-0.01 5.361,-0.228 5.238,-0.272 5.061,-0.196 4.914,-0.157 4.762,-0.116 4.613,-0.007 4.466,-0.011 3.961,-0.025 3.458,-0.089 2.953,-0.106 2.763,-0.113 2.561,-0.063 2.378,-0.002 1.659,0.236 0.961,0.214 0.281,-0.123 0.186,-0.169 0.094,-0.22 0,-0.269 Z"
   style="fill:none;fill-rule:nonzero;stroke:#691c2d;stroke-width:0.58px"
   id="path22" />
            </g>
            <g
   transform="matrix(1.33333,0,0,1.33333,774.799,199.46)"
   id="g28">
                <path
   d="m 0,-5.011 c 0.241,-0.077 0.478,-0.192 0.726,-0.22 0.233,-0.027 0.477,0.055 0.717,0.059 1.508,0.032 3.015,0.063 4.522,0.079 1.175,0.012 2.35,0.002 3.525,0.002 h 2.416 c 1.898,0 3.797,0.005 5.695,-0.003 0.481,-0.002 0.962,-0.07 1.444,-0.068 0.428,0.002 0.856,0.059 1.328,0.095 v 5.314 c -0.326,-0.13 -0.572,-0.228 -0.818,-0.327 -0.046,-0.019 -0.093,-0.068 -0.133,-0.063 -0.39,0.054 -0.778,0.117 -1.167,0.176 -0.109,0.016 -0.221,0.043 -0.33,0.035 -0.714,-0.049 -1.438,-0.199 -2.14,-0.136 -0.638,0.059 -1.256,0.131 -1.904,0.09 -0.613,-0.04 -1.236,0.087 -1.855,0.127 -0.533,0.034 -1.068,0.066 -1.601,0.061 -0.166,-0.001 -0.33,-0.127 -0.565,-0.225 0.045,-0.143 0.108,-0.341 0.17,-0.538 0.116,0.057 0.188,0.093 0.26,0.128 0.029,-0.121 0.059,-0.241 0.088,-0.362 0.186,-0.255 0.403,-0.509 0.344,-0.914 -0.038,-0.255 -0.004,-0.52 -0.01,-0.781 -0.006,-0.285 -0.045,-0.581 0.335,-0.685 -0.098,-0.293 -0.188,-0.56 -0.296,-0.879 -0.161,0.489 -0.297,0.898 -0.437,1.325 0.328,0.133 -0.011,0.426 0.083,0.686 C 9.285,-2.242 8.217,-2.442 7.078,-2.654 7.192,-2.805 7.241,-2.869 7.334,-2.991 7.035,-2.967 6.737,-3.027 6.562,-2.913 5.807,-2.426 5.82,-2.407 4.978,-2.593 4.87,-2.704 4.761,-2.815 4.605,-2.975 4.551,-2.748 4.524,-2.632 4.496,-2.516 l 0.009,0.013 C 4.172,-2.953 3.292,-3.034 2.844,-2.691 2.669,-2.556 2.417,-2.442 2.203,-2.446 1.918,-2.451 1.63,-2.567 1.354,-2.663 1.045,-2.77 0.757,-2.969 0.412,-2.75 0.365,-2.721 0.268,-2.765 0.221,-2.772 v -1.287 c 0.203,-0.025 0.436,-0.125 0.589,-0.058 0.415,0.18 0.791,0.085 1.185,-0.021 0.31,-0.082 0.64,-0.203 0.932,0.026 0.544,0.427 1.203,0.598 1.843,0.832 0.567,0.208 1.043,0.058 1.487,-0.205 0.581,-0.346 0.81,-0.335 1.23,0.166 0.113,0.135 0.276,0.281 0.441,0.318 0.564,0.127 1.138,0.211 1.71,0.298 C 9.739,-2.688 9.85,-2.739 9.94,-2.756 9.83,-2.891 9.744,-2.997 9.631,-3.135 9.516,-3.187 9.35,-3.313 9.174,-3.328 8.895,-3.353 8.607,-3.315 8.324,-3.286 7.996,-3.253 7.784,-3.357 7.585,-3.631 7.186,-4.18 6.643,-4.3 6.06,-4.042 5.69,-4.648 5.677,-4.645 5.117,-4.146 4.982,-4.026 4.809,-3.864 4.652,-3.863 4.144,-3.861 3.662,-3.946 3.228,-4.277 2.958,-4.483 2.57,-4.655 2.237,-4.653 1.625,-4.647 1.015,-4.501 0.416,-4.416 0.411,-4.43 0.43,-4.38 0.458,-4.31 0.283,-4.339 0.141,-4.362 0,-4.385 Z"
   style="fill:none;fill-rule:nonzero;stroke:#691c2d;stroke-width:0.58px"
   id="path26" />
            </g>
            <g
   transform="matrix(1.33333,0,0,1.33333,780.794,199.793)"
   id="g32">
                <path
   d="m 0,-2.765 c -0.026,0.056 -0.052,0.113 -0.116,0.252 0.447,0.019 0.853,0 1.244,0.068 0.246,0.042 0.468,0.214 0.781,0.367 0.054,-0.064 0.157,-0.186 0.27,-0.318 0.063,0.035 0.166,0.056 0.193,0.111 0.272,0.567 0.898,0.483 1.369,0.645 0.326,0.112 0.729,0.021 1.156,0.021 C 4.704,-1.689 4.539,-1.783 4.362,-1.81 3.874,-1.881 3.378,-1.902 2.894,-1.986 2.595,-2.038 2.491,-2.276 2.549,-2.553 c 0.063,-0.304 0.276,-0.194 0.475,-0.144 0.378,0.095 0.764,0.16 1.136,0.27 0.131,0.039 0.231,0.173 0.408,0.314 h 1.176 c 0.033,0.04 0.066,0.08 0.099,0.121 C 5.727,-1.77 5.618,-1.544 5.494,-1.326 5.285,-0.956 4.955,-0.621 5.161,-0.075 4.724,-0.056 4.293,0.034 3.896,-0.04 3.522,-0.109 3.184,-0.35 2.753,-0.551 2.89,-0.052 2.53,-0.067 2.281,-0.045 2.018,-0.022 1.756,0.097 1.462,-0.104 1.311,-0.208 0.99,-0.063 0.747,-0.074 0.441,-0.087 0.138,-0.151 -0.168,-0.177 c -0.088,-0.008 -0.195,0.021 -0.271,0.067 -0.277,0.167 -0.56,0.139 -0.741,-0.083 -0.207,-0.255 -0.44,-0.162 -0.663,-0.129 -0.393,0.058 -0.772,0.177 -1.155,-0.069 -0.09,-0.057 -0.312,-0.023 -0.413,0.047 -0.544,0.378 -0.764,0.342 -1.085,-0.223 v -1.799 c 0.073,-0.125 0.147,-0.251 0.22,-0.377 0.537,0.289 0.624,0.29 0.67,-0.019 0.19,0.083 0.376,0.154 0.552,0.244 0.564,0.286 1.275,0.257 1.61,-0.003 0.201,-0.157 0.478,-0.261 0.736,-0.303 0.228,-0.038 0.477,0.043 0.717,0.072 z"
   style="fill:none;fill-rule:nonzero;stroke:#691c2d;stroke-width:0.58px"
   id="path30" />
            </g>
            <g
   transform="matrix(1.33333,0,0,1.33333,780.806,193.948)"
   id="g36">
                <path
   d="M 0,1.631 C -0.24,1.602 -0.489,1.522 -0.716,1.559 c -0.259,0.042 -0.536,0.146 -0.737,0.303 -0.334,0.26 -1.046,0.29 -1.61,0.003 -0.176,-0.089 -0.362,-0.161 -0.552,-0.244 -0.046,0.31 -0.133,0.308 -0.67,0.02 -0.073,0.126 -0.147,0.251 -0.22,0.377 v -2.269 c 0.141,0.023 0.283,0.047 0.458,0.076 -0.028,-0.071 -0.047,-0.121 -0.042,-0.107 0.599,-0.085 1.209,-0.231 1.821,-0.236 0.333,-0.003 0.721,0.17 0.99,0.375 0.435,0.331 0.917,0.416 1.425,0.414 0.157,0 0.33,-0.162 0.465,-0.283 0.56,-0.499 0.573,-0.501 0.943,0.104 C 2.138,-0.166 2.681,-0.046 3.08,0.503 3.279,0.778 3.491,0.882 3.819,0.848 4.102,0.819 4.39,0.781 4.67,0.806 4.845,0.822 5.01,0.947 5.126,0.999 5.239,1.138 5.325,1.243 5.435,1.378 5.345,1.396 5.234,1.446 5.133,1.431 4.561,1.345 3.987,1.26 3.423,1.134 3.258,1.097 3.095,0.951 2.982,0.816 2.562,0.314 2.332,0.303 1.752,0.649 1.308,0.913 0.832,1.062 0.265,0.854 -0.375,0.62 -1.034,0.449 -1.578,0.022 -1.87,-0.207 -2.2,-0.086 -2.51,-0.003 -2.904,0.102 -3.28,0.198 -3.695,0.017 -3.848,-0.05 -4.08,0.051 -4.284,0.076 v 1.287 c 0.047,0.006 0.144,0.05 0.191,0.021 0.345,-0.219 0.633,-0.02 0.942,0.087 0.276,0.096 0.564,0.212 0.849,0.217 0.214,0.005 0.466,-0.11 0.641,-0.244 C -1.213,1.1 -0.333,1.181 0,1.631 Z"
   style="fill:none;fill-rule:nonzero;stroke:#691c2d;stroke-width:0.58px"
   id="path34" />
            </g>
            <g
   transform="matrix(1.33333,0,0,1.33333,791.966,175.311)"
   id="g40">
                <path
   d="m 0,-1.933 c 0.05,0.397 0.097,0.796 0.153,1.192 0.043,0.306 -0.12,0.461 -0.404,0.532 -0.295,0.073 -0.591,0.14 -0.888,0.209 -0.17,-0.276 0.018,-0.37 0.248,-0.425 0.713,-0.17 0.784,-0.253 0.784,-0.962 v -0.537 z"
   style="fill:none;fill-rule:nonzero;stroke:#691c2d;stroke-width:0.58px"
   id="path38" />
            </g>
            <g
   transform="matrix(1.33333,0,0,1.33333,798.397,152.307)"
   id="g44">
                <path
   d="m 0,-4.165 c 0.47,0.096 0.908,0.186 1.437,0.294 C 1.356,-4.041 1.331,-4.193 1.269,-4.207 0.855,-4.306 0.429,-4.553 0,-4.165 Z m -9.936,0.989 c -0.247,0.62 0.384,0.93 0.304,1.457 -0.109,-0.123 -0.219,-0.246 -0.329,-0.369 -0.025,0.014 -0.05,0.029 -0.075,0.043 0.093,0.143 0.185,0.287 0.218,0.338 0,0.356 0.099,0.685 -0.024,0.896 -0.179,0.307 0.094,0.57 -0.02,0.806 -0.503,0.11 -0.982,0.226 -1.466,0.31 -0.136,0.024 -0.296,-0.031 -0.434,-0.077 -0.235,-0.079 -0.453,-0.153 -0.686,0.018 -0.075,0.055 -0.263,0.089 -0.298,0.05 -0.327,-0.363 -0.798,-0.125 -1.18,-0.271 -0.166,-0.064 -0.469,-0.029 -0.592,0.082 -0.342,0.306 -0.548,0.06 -0.788,-0.133 0.005,0.046 0.011,0.091 0.016,0.136 -0.697,0.13 -1.394,0.259 -2.16,0.402 -0.031,-0.294 -0.075,-0.567 -0.086,-0.84 -0.034,-0.917 -0.068,-1.835 -0.077,-2.753 -0.005,-0.414 0.06,-0.829 0.072,-1.245 0.006,-0.223 0.104,-0.292 0.325,-0.292 1.595,0.005 3.191,0.003 4.787,0.003 0.027,0 0.06,-0.008 0.08,0.004 0.782,0.428 1.647,0.167 2.469,0.252 0.619,0.063 1.261,-0.052 1.891,-0.106 0.194,-0.017 0.383,-0.095 0.572,-0.151 0.636,-0.19 1.244,0.088 1.868,0.098 0.5,0.009 1,0.051 1.5,0.056 0.998,0.008 1.996,-0.005 2.994,0.004 0.293,0.003 0.586,0.06 0.881,0.076 0.085,0.005 0.213,-0.021 0.253,-0.078 0.188,-0.258 0.461,-0.232 0.73,-0.233 0.598,-0.001 1.196,0 1.845,0 V 0.641 C 2.336,0.535 1.99,0.594 2.125,0.138 1.215,0.235 0.344,0.261 -0.458,-0.127 c -0.237,-0.031 -0.472,-0.076 -0.71,-0.09 -0.289,-0.017 -0.584,0.025 -0.867,-0.018 -0.346,-0.052 -0.681,-0.165 -1.05,-0.259 0.111,0.126 0.223,0.253 0.385,0.437 -0.496,-0.049 -0.887,0.326 -1.378,0.089 -0.168,-0.081 -0.408,-0.015 -0.611,-0.041 -0.077,-0.01 -0.143,-0.092 -0.171,-0.112 -0.143,0.033 -0.277,0.082 -0.415,0.093 -0.496,0.039 -0.992,0.077 -1.49,0.093 -0.548,0.017 -1.098,0.01 -1.648,0.011 -0.066,0 -0.133,-0.026 -0.2,-0.024 -0.18,0.003 -0.466,0.084 -0.52,0.009 -0.152,-0.213 -0.268,-0.483 -0.291,-0.74 -0.034,-0.381 0.027,-0.77 0.042,-1.156 0.002,-0.061 -0.022,-0.126 -0.047,-0.184 -0.157,-0.363 -0.317,-0.724 -0.507,-1.157 z"
   style="fill:none;fill-rule:nonzero;stroke:#691c2d;stroke-width:0.58px"
   id="path42" />
            </g>
            <g
   transform="matrix(1.33333,0,0,1.33333,778.543,132.28)"
   id="g48">
                <path
   d="M 0,2.996 C 0.02,3.095 0.027,3.225 0.078,3.336 0.098,3.379 0.261,3.418 0.286,3.393 0.44,3.235 0.573,3.059 0.721,2.88 0.507,2.914 0.277,2.951 0,2.996 Z M -2.518,3.883 C -2.528,3.786 -2.552,3.604 -2.564,3.421 -2.573,3.291 -2.566,3.161 -2.565,3.031 -2.557,1.81 -2.551,0.59 -2.536,-0.631 c 0.003,-0.256 0.201,-0.248 0.405,-0.243 1.329,0.036 2.658,0.071 3.987,0.091 0.937,0.013 1.874,0.012 2.811,-0.001 0.855,-0.011 1.709,-0.071 2.563,-0.067 1.986,0.01 3.971,0.046 5.956,0.069 0.272,0.004 0.545,-0.007 0.817,-0.007 1.117,-0.002 2.234,-0.001 3.356,-0.001 0.008,0.082 -0.013,0.23 0.037,0.349 0.221,0.517 -0.055,0.844 -0.454,1.115 -0.264,0.18 -0.406,0.338 -0.309,0.703 0.078,0.292 -0.054,0.635 -0.099,1.007 C 16.382,2.336 16.223,2.291 16.069,2.236 15.891,2.173 15.659,1.995 15.553,2.05 14.953,2.354 14.178,2.012 13.647,2.549 13.512,2.685 13.3,2.753 13.141,2.842 13.014,3.067 12.891,3.292 12.752,3.509 12.748,3.516 12.591,3.433 12.491,3.385 12.298,3.717 12.039,3.693 11.651,3.58 11.281,3.473 10.846,3.569 10.44,3.575 9.982,3.582 9.523,3.576 9.066,3.6 8.454,3.632 7.844,3.72 7.232,3.725 6.534,3.73 5.835,3.663 5.136,3.643 4.552,3.626 3.967,3.63 3.383,3.63 3.264,3.63 3.125,3.703 3.03,3.665 2.484,3.449 1.95,3.6 1.41,3.668 1.306,3.682 1.191,3.598 1.079,3.592 0.91,3.583 0.738,3.6 0.568,3.611 0.374,3.624 0.181,3.641 -0.012,3.659 -0.816,3.73 -1.621,3.803 -2.518,3.883 Z"
   style="fill:none;fill-rule:nonzero;stroke:#691c2d;stroke-width:0.58px"
   id="path46" />
            </g>
            <g
   transform="matrix(1.33333,0,0,1.33333,782.205,140.079)"
   id="g52">
                <path
   d="M 0,2.28 C -0.004,2.314 -0.009,2.348 -0.013,2.381 1.356,2.689 2.678,3.295 4.055,3.018 4.13,2.809 4.176,2.68 4.221,2.553 4,2.549 3.682,2.393 3.784,2.888 2.484,2.679 1.242,2.479 0,2.28 Z m 14.776,-3.442 v 1.454 c -0.246,0 -0.538,-0.06 -0.787,0.013 -0.377,0.111 -0.728,0.309 -1.085,0.48 C 12.42,1.016 12.017,1.431 11.366,1.217 11.11,1.133 10.772,1.234 10.485,1.303 10.405,1.321 10.339,1.522 10.326,1.646 10.28,2.107 10.224,2.217 9.762,2.12 9.098,1.981 8.542,2.317 7.934,2.405 7.777,2.427 7.651,2.774 7.551,2.989 7.501,3.096 7.543,3.242 7.543,3.386 6.851,3.386 6.187,3.404 5.525,3.38 5.007,3.36 4.491,3.262 3.972,3.249 3.689,3.242 3.405,3.346 3.12,3.392 3.056,3.402 2.976,3.396 2.922,3.366 2.398,3.083 1.873,3.186 1.313,3.273 0.818,3.35 0.243,3.486 -0.182,3.051 -0.351,2.878 -0.458,2.651 -0.621,2.405 -0.83,2.394 -1.218,2.773 -1.355,2.326 -1.604,2.299 -1.784,2.262 -1.964,2.265 -2.184,2.269 -2.403,2.303 -2.622,2.333 -2.843,2.363 -3.069,2.457 -3.28,2.43 -3.915,2.35 -4.552,2.621 -4.918,3.202 c 0.417,0.036 0.806,0.106 1.162,-0.185 0.085,-0.07 0.281,-0.077 0.4,-0.038 0.382,0.123 0.739,0.167 1.068,-0.117 0.049,-0.042 0.12,-0.081 0.182,-0.083 0.151,-0.007 0.304,0.008 0.456,0.014 -0.117,0.178 0.075,0.502 -0.287,0.559 C -2.04,3.369 -2.149,3.362 -2.255,3.355 -2.375,3.346 -2.502,3.289 -2.611,3.313 -3.203,3.444 -3.797,3.426 -4.395,3.371 -4.476,3.364 -4.561,3.414 -4.645,3.415 -4.838,3.416 -5.089,3.47 -5.209,3.377 -5.329,3.283 -5.348,3.038 -5.361,2.856 -5.385,2.501 -5.377,2.144 -5.377,1.788 c 0.002,-0.689 0.005,-1.379 0.013,-2.068 0.002,-0.128 0.048,-0.254 0.051,-0.382 0.011,-0.502 0.01,-0.501 0.521,-0.493 1.714,0.028 3.428,0.061 5.142,0.076 1.461,0.013 2.922,-0.008 4.383,0.01 0.396,0.005 0.79,0.13 1.187,0.138 0.652,0.013 1.311,0.024 1.956,-0.052 0.91,-0.108 1.805,-0.223 2.729,-0.114 0.591,0.07 1.198,0.013 1.797,0.015 0.409,0 0.818,0.013 1.227,0.001 0.36,-0.011 0.72,-0.05 1.147,-0.081 z"
   style="fill:none;fill-rule:nonzero;stroke:#691c2d;stroke-width:0.58px"
   id="path50" />
            </g>
            <g
   transform="matrix(1.33333,0,0,1.33333,792.572,142.782)"
   id="g56">
                <path
   d="M 0,0.82 C 0.116,0.884 0.193,0.927 0.275,0.972 0.389,0.515 1.124,0.187 1.608,0.24 1.753,0.257 1.9,0.259 2.047,0.261 2.626,0.268 2.68,0.216 2.697,-0.345 2.699,-0.41 2.703,-0.475 2.708,-0.568 3.111,-0.614 3.5,-0.664 3.865,-0.407 c 0.11,0.077 0.274,0.114 0.414,0.118 0.44,0.013 0.887,0.041 1.319,-0.014 0.29,-0.038 0.566,-0.196 0.838,-0.32 0.189,-0.086 0.361,-0.205 0.605,-0.348 0,0.913 10e-4,1.719 0,2.525 0,0.062 -0.01,0.124 -0.018,0.221 C 6.844,1.765 6.673,1.791 6.532,1.74 5.701,1.44 4.84,1.316 3.958,1.293 3.879,1.291 3.783,1.296 3.724,1.258 3.484,1.102 3.257,1.109 3.006,1.237 2.92,1.281 2.797,1.267 2.691,1.267 2.237,1.268 1.782,1.248 1.329,1.269 1.05,1.282 1.004,1.255 0.95,0.833 0.816,0.955 0.7,1.109 0.543,1.188 0.38,1.27 0.176,1.279 -0.056,1.33 -0.041,1.189 -0.023,1.03 0,0.82 Z"
   style="fill:none;fill-rule:nonzero;stroke:#691c2d;stroke-width:0.58px"
   id="path54" />
            </g>
            <g
   transform="matrix(1.33333,0,0,1.33333,801.798,133.521)"
   id="g60">
                <path
   d="M 0,3.031 C -0.146,2.806 -0.278,2.641 -0.362,2.456 -0.406,2.361 -0.383,2.226 -0.358,2.116 -0.324,1.967 -0.239,1.828 -0.213,1.679 -0.144,1.287 -0.331,1.107 -0.771,1.151 -0.556,0.762 -0.635,0.236 0,0 Z"
   style="fill:none;fill-rule:nonzero;stroke:#691c2d;stroke-width:0.58px"
   id="path58" />
            </g>
            <g
   transform="matrix(1.33333,0,0,1.33333,799.05,137.577)"
   id="g64">
                <path
   d="M 0,-0.871 C 0.195,-0.965 0.334,-1.033 0.501,-1.114 0.75,-0.67 0.981,-0.258 1.262,0.243 0.811,0.138 0.461,0.057 -0.016,-0.053 0.225,-0.204 0.366,-0.294 0.533,-0.398 0.373,-0.54 0.204,-0.69 0,-0.871 Z"
   style="fill:none;fill-rule:nonzero;stroke:#691c2d;stroke-width:0.58px"
   id="path62" />
            </g>
            <g
   transform="matrix(1.33333,0,0,1.33333,800.484,138.423)"
   id="g68">
                <path
   d="M 0,-1.429 C 0.444,-1.308 1.02,-0.478 0.971,0 0.394,-0.359 0.384,-1.019 0,-1.429 Z"
   style="fill:none;fill-rule:nonzero;stroke:#691c2d;stroke-width:0.58px"
   id="path66" />
            </g>
            <g
   transform="matrix(1.33333,0,0,1.33333,798.633,137.138)"
   id="g72">
                <path
   d="m 0,-0.395 c -0.212,0.167 -0.424,0.333 -0.636,0.5 0.001,-0.448 0.197,-0.605 0.636,-0.5 z"
   style="fill:none;fill-rule:nonzero;stroke:#691c2d;stroke-width:0.58px"
   id="path70" />
            </g>
            <g
   transform="matrix(-1.33333,0,0,1.33333,780.662,126.027)"
   id="g76">
                <path
   d="M -0.718,0.288 H 0.026 L 0.022,0.128 C -0.239,0.071 -0.5,0 -0.744,0.185 Z"
   style="fill:none;fill-rule:nonzero;stroke:#691c2d;stroke-width:0.58px"
   id="path74" />
            </g>
            <g
   transform="matrix(0.139887,1.32597,1.32597,-0.139887,795.63,185.595)"
   id="g80">
                <path
   d="M 0.484,-0.186 C 0.229,-0.071 0.155,0.31 0.353,0.46 0.389,0.486 0.465,0.51 0.484,0.491 0.524,0.453 0.565,0.383 0.56,0.33 0.548,0.168 0.514,0.008 0.484,-0.186 Z"
   style="fill:none;fill-rule:nonzero;stroke:#691c2d;stroke-width:0.58px"
   id="path78" />
            </g>
            <g
   transform="matrix(1.33333,0,0,1.33333,798.397,146.629)"
   id="g84">
                <path
   d="M 0,0.094 C 0.429,-0.294 0.855,-0.047 1.269,0.052 1.331,0.066 1.356,0.218 1.437,0.388 0.908,0.28 0.47,0.19 0,0.094 Z"
   style="fill:none;fill-rule:nonzero;stroke:#691c2d;stroke-width:0.58px"
   id="path82" />
            </g>
            <g
   transform="matrix(-1.08184,0.77936,0.77936,1.08184,779.533,136.363)"
   id="g88">
                <path
   d="m 0.564,-0.488 c -0.251,0.126 -0.46,0.23 -0.653,0.327 0.224,0.059 0.435,0.124 0.653,0.162 0.034,0.006 0.144,-0.121 0.135,-0.167 -0.023,-0.12 -0.094,-0.23 -0.135,-0.322 z"
   style="fill:none;fill-rule:nonzero;stroke:#691c2d;stroke-width:0.58px"
   id="path86" />
            </g>
            <g
   transform="matrix(1.33333,0,0,1.33333,782.205,144.473)"
   id="g92">
                <path
   d="m 0,-1.015 c 1.242,0.199 2.484,0.399 3.784,0.608 C 3.682,-0.902 4,-0.746 4.221,-0.742 4.176,-0.615 4.13,-0.486 4.055,-0.277 2.678,0 1.356,-0.606 -0.013,-0.914 -0.009,-0.947 -0.004,-0.981 0,-1.015 Z"
   style="fill:none;fill-rule:nonzero;stroke:#691c2d;stroke-width:0.58px"
   id="path90" />
            </g>
            <g
   transform="matrix(1.33333,0,0,1.33333,791.966,158.1)"
   id="g96">
                <path
   d="m 0,10.975 -0.107,0.009 v 0.537 c 0,0.709 -0.071,0.792 -0.784,0.962 -0.23,0.055 -0.418,0.149 -0.248,0.425 0.297,-0.069 0.593,-0.136 0.888,-0.209 C 0.033,12.628 0.196,12.473 0.153,12.167 0.097,11.771 0.05,11.372 0,10.975 m -12.875,2.127 v -1.565 c 0.08,-0.156 0.228,-0.311 0.229,-0.467 0.002,-0.716 -0.034,-1.432 -0.061,-2.148 -0.025,-0.636 -0.091,-1.273 -0.077,-1.909 0.017,-0.777 0.136,-1.552 0.144,-2.328 0.01,-1.034 -0.06,-2.068 -0.069,-3.102 -0.014,-1.462 -0.004,-2.924 -0.004,-4.452 0.61,-0.022 1.205,-0.062 1.801,-0.061 0.571,0.002 1.143,0.065 1.714,0.067 0.611,0.002 1.223,-0.066 1.832,-0.052 1.266,0.027 2.531,0.094 3.797,0.13 0.481,0.014 0.548,0.069 0.546,0.515 -10e-4,0.348 0.023,0.698 0.057,1.045 0.015,0.16 0.147,0.332 0.109,0.469 -0.098,0.35 -0.268,0.681 -0.394,1.025 -0.061,0.166 -0.121,0.342 -0.127,0.515 -0.018,0.547 -0.036,1.077 -0.341,1.579 -0.241,0.394 -0.112,0.812 0.145,0.954 0.135,-0.413 0.284,-0.838 0.411,-1.269 0.102,-0.344 0.196,-0.692 0.256,-1.044 0.059,-0.345 -0.011,-0.73 0.123,-1.038 0.157,-0.362 0.204,-0.681 0.096,-1.048 -0.032,-0.109 0.017,-0.243 0.039,-0.364 0.015,-0.086 0.081,-0.175 0.067,-0.253 -0.06,-0.348 -0.141,-0.692 -0.224,-1.081 0.494,0 0.971,-0.011 1.448,0.009 0.118,0.005 0.232,0.112 0.308,0.152 0.103,-0.025 0.221,-0.078 0.338,-0.078 1.434,-0.007 2.865,-0.018 4.298,-0.145 1.15,-0.102 2.313,-0.06 3.47,-0.099 0.334,-0.012 0.467,0.08 0.446,0.416 C 7.457,-1.802 7.431,-1.077 7.419,-0.353 7.405,0.442 7.412,1.237 7.415,2.031 7.417,2.592 7.398,3.15 7.351,3.712 7.297,4.366 7.399,5.03 7.412,5.689 c 0.034,1.739 0.057,3.479 0.084,5.218 0.002,0.104 0.003,0.208 0.003,0.313 v 2.072 C 7.247,13.239 6.969,13.223 6.731,13.122 6.191,12.894 5.642,12.86 5.074,12.947 4.597,13.019 4.136,13.168 3.634,13.121 3.388,13.097 3.126,13.22 2.813,13.29 2.689,13.083 2.49,13 2.246,13.265 2.21,13.305 2.108,13.302 2.037,13.3 1.682,13.292 1.327,13.254 0.974,13.271 c -0.531,0.025 -1.059,0.1 -1.589,0.124 -0.122,0.006 -0.281,-0.077 -0.369,-0.168 -0.148,-0.153 -0.266,-0.303 -0.532,-0.115 0.104,0.193 0.231,0.437 -0.242,0.37 0.266,-0.351 -0.087,-0.479 -0.259,-0.643 -0.074,-0.072 -0.284,-0.012 -0.433,-0.012 -0.036,0.051 -0.073,0.103 -0.109,0.154 0.82,-0.048 0.232,0.588 0.572,0.799 -0.192,0.014 -0.376,0.023 -0.519,-0.045 -0.429,-0.205 -0.806,-0.144 -1.202,0.092 -0.138,0.082 -0.36,0.101 -0.524,0.067 -0.572,-0.118 -1.136,-0.272 -1.76,-0.426 -0.201,-0.556 -0.431,-1.191 -0.666,-1.842 0.25,-0.058 0.47,-0.081 0.665,-0.162 0.194,-0.08 0.354,-0.233 0.544,-0.326 0.216,-0.104 0.443,-0.203 0.678,-0.254 0.208,-0.046 0.512,0.056 0.628,-0.051 0.134,-0.125 0.111,-0.406 0.154,-0.62 0.021,-0.1 0.038,-0.201 0.066,-0.351 0.259,-0.032 0.54,-0.136 0.777,-0.079 0.297,0.073 0.545,0.096 0.812,-0.057 0.237,-0.135 0.458,-0.126 0.648,0.103 0.11,0.131 0.284,0.223 0.365,0.366 0.241,0.418 0.609,0.456 1.056,0.377 C -0.927,10.434 -0.942,10.447 -1.578,9.761 -1.857,9.46 -2.142,9.425 -2.518,9.514 -2.736,9.565 -2.986,9.57 -3.204,9.523 -3.869,9.381 -4.291,9.646 -4.36,10.287 c -0.011,0.109 -0.024,0.219 -0.038,0.352 -0.641,-0.134 -1.118,0.09 -1.568,0.443 -0.148,0.116 -0.365,0.173 -0.561,0.208 -0.47,0.087 -0.788,-0.315 -0.639,-0.761 0.13,-0.391 0.251,-0.788 0.328,-1.19 C -6.805,9.163 -6.881,8.963 -6.925,8.778 -6.959,8.637 -7.043,8.504 -7.066,8.362 -7.137,7.924 -7.202,7.486 -7.51,7.103 c 0.042,0.574 0.08,1.111 0.124,1.646 0.004,0.048 0.027,0.112 0.064,0.138 0.275,0.184 0.144,0.4 0.081,0.628 -0.133,0.475 -0.242,0.957 -0.388,1.547 C -7.7,10.855 -7.792,10.706 -7.794,10.556 -7.799,10.189 -7.916,9.857 -8.256,9.708 -8.516,9.593 -8.517,9.45 -8.55,9.234 -8.633,8.691 -8.722,8.144 -8.885,7.619 -9.011,7.209 -9.251,6.831 -9.44,6.439 -9.473,6.371 -9.505,6.302 -9.537,6.233 c -0.036,0.013 -0.072,0.026 -0.109,0.039 0.197,0.476 0.056,1.042 0.527,1.455 0.118,0.103 0.151,0.326 0.165,0.499 0.026,0.31 0.014,0.625 0.008,0.938 -0.007,0.408 0.154,0.719 0.523,0.944 0.102,0.062 0.218,0.22 0.205,0.32 -0.062,0.494 0.172,0.776 0.617,0.981 0.135,0.063 0.21,0.261 0.288,0.409 0.052,0.098 0.061,0.218 0.089,0.327 0.105,-0.076 0.21,-0.152 0.295,-0.213 0.19,0.459 0.394,0.954 0.584,1.415 -0.526,0.179 -1.003,0.214 -1.375,-0.298 0.022,-0.135 0.055,-0.334 0.087,-0.534 l -0.045,-0.004 c -0.076,0.151 -0.151,0.302 -0.187,0.374 -0.282,0.055 -0.497,0.152 -0.692,0.124 -0.403,-0.061 -0.718,0.074 -1.032,0.277 -0.066,0.043 -0.171,0.031 -0.242,0.071 -0.296,0.166 -0.248,-0.285 -0.432,-0.228 -0.194,0.061 -0.245,0.352 -0.551,0.296 -0.285,-0.052 -0.593,-0.077 -0.876,-0.029 -0.458,0.079 -0.846,0.013 -1.185,-0.294"
   style="fill:#ffffff;fill-rule:nonzero"
   id="path94" />
            </g>
            <g
   transform="matrix(1.33333,0,0,1.33333,798.633,193.667)"
   id="g100">
                <path
   d="m 0,-42.792 c -0.439,-0.105 -0.635,0.052 -0.636,0.5 0.212,-0.167 0.424,-0.333 0.636,-0.5 m 1.388,-0.07 c 0.383,0.41 0.394,1.071 0.971,1.429 0.049,-0.478 -0.528,-1.308 -0.971,-1.429 m -1.075,-0.077 c 0.204,0.181 0.372,0.331 0.532,0.473 -0.166,0.104 -0.308,0.194 -0.549,0.345 0.478,0.11 0.828,0.191 1.279,0.296 -0.281,-0.501 -0.513,-0.913 -0.762,-1.357 -0.166,0.081 -0.306,0.149 -0.5,0.243 m 2.061,0.86 v -3.031 c -0.635,0.236 -0.556,0.762 -0.771,1.152 0.44,-0.045 0.627,0.136 0.558,0.527 -0.026,0.149 -0.112,0.288 -0.145,0.437 -0.025,0.11 -0.048,0.245 -0.005,0.34 0.085,0.185 0.217,0.35 0.363,0.575 m -6.92,4.735 c -0.023,0.21 -0.041,0.369 -0.056,0.51 0.232,-0.051 0.436,-0.06 0.599,-0.142 0.157,-0.079 0.273,-0.233 0.407,-0.355 0.053,0.422 0.1,0.449 0.379,0.435 0.453,-0.021 0.908,0 1.362,-10e-4 0.106,0 0.229,0.014 0.315,-0.03 0.251,-0.128 0.478,-0.135 0.718,0.02 0.059,0.039 0.155,0.034 0.234,0.036 0.882,0.023 1.743,0.147 2.573,0.447 0.141,0.051 0.313,0.024 0.492,0.036 0.008,-0.098 0.017,-0.16 0.018,-0.222 v -2.525 c -0.245,0.143 -0.416,0.262 -0.605,0.348 -0.272,0.124 -0.548,0.283 -0.838,0.32 -0.433,0.055 -0.879,0.027 -1.318,0.014 -0.141,-0.004 -0.305,-0.041 -0.415,-0.118 -0.365,-0.256 -0.754,-0.207 -1.157,-0.161 -0.005,0.093 -0.009,0.158 -0.011,0.222 -0.017,0.562 -0.071,0.613 -0.651,0.607 -0.146,-0.001 -0.293,-0.005 -0.438,-0.021 -0.484,-0.053 -1.219,0.275 -1.333,0.732 -0.082,-0.045 -0.16,-0.088 -0.275,-0.152 m 7.002,-4.009 c -0.428,0.031 -0.788,0.07 -1.148,0.081 -0.409,0.012 -0.818,-0.001 -1.227,-0.002 -0.599,-10e-4 -1.206,0.056 -1.797,-0.014 -0.923,-0.11 -1.819,0.006 -2.729,0.114 -0.644,0.076 -1.304,0.065 -1.956,0.052 -0.396,-0.008 -0.791,-0.133 -1.187,-0.138 -1.461,-0.017 -2.922,0.003 -4.383,-0.01 -1.714,-0.014 -3.428,-0.048 -5.142,-0.076 -0.51,-0.008 -0.51,-0.009 -0.521,0.493 -0.003,0.128 -0.049,0.254 -0.051,0.382 -0.008,0.689 -0.011,1.379 -0.012,2.068 -0.001,0.356 -0.009,0.713 0.015,1.068 0.013,0.182 0.032,0.427 0.152,0.521 0.12,0.093 0.371,0.039 0.564,0.038 0.084,-10e-4 0.169,-0.051 0.25,-0.044 0.598,0.055 1.192,0.073 1.784,-0.058 0.11,-0.024 0.236,0.033 0.356,0.042 0.106,0.008 0.215,0.014 0.318,-0.003 0.362,-0.057 0.171,-0.381 0.287,-0.558 -0.152,-0.007 -0.305,-0.022 -0.456,-0.015 -0.062,0.002 -0.133,0.041 -0.182,0.083 -0.329,0.284 -0.685,0.24 -1.068,0.117 -0.119,-0.039 -0.314,-0.032 -0.4,0.038 -0.356,0.291 -0.745,0.221 -1.162,0.184 0.366,-0.58 1.003,-0.851 1.638,-0.771 0.211,0.027 0.438,-0.067 0.659,-0.097 0.218,-0.03 0.437,-0.064 0.657,-0.068 0.18,-0.004 0.361,0.034 0.609,0.061 0.138,0.447 0.525,0.068 0.734,0.079 0.164,0.246 0.27,0.473 0.439,0.646 0.425,0.435 1,0.299 1.495,0.222 0.56,-0.087 1.085,-0.19 1.609,0.094 0.055,0.028 0.134,0.035 0.198,0.025 0.285,-0.046 0.57,-0.149 0.852,-0.143 0.519,0.012 1.035,0.111 1.554,0.131 0.662,0.024 1.326,0.006 2.017,0.006 0,-0.144 -0.041,-0.29 0.009,-0.397 0.099,-0.215 0.225,-0.562 0.382,-0.585 0.608,-0.086 1.164,-0.424 1.828,-0.284 0.463,0.097 0.518,-0.013 0.564,-0.475 0.013,-0.123 0.08,-0.324 0.16,-0.342 0.287,-0.069 0.624,-0.17 0.88,-0.086 0.651,0.214 1.054,-0.201 1.538,-0.432 0.357,-0.171 0.708,-0.369 1.085,-0.48 0.25,-0.073 0.541,-0.014 0.788,-0.014 z m -20.042,-0.804 c 0.898,-0.081 1.702,-0.153 2.507,-0.225 0.193,-0.017 0.386,-0.034 0.579,-0.047 0.171,-0.011 0.342,-0.029 0.512,-0.019 0.112,0.005 0.226,0.09 0.33,0.076 0.541,-0.069 1.075,-0.22 1.62,-0.003 0.096,0.038 0.234,-0.035 0.353,-0.036 0.584,0 1.169,-0.003 1.753,0.013 0.699,0.021 1.398,0.088 2.097,0.083 0.611,-0.005 1.221,-0.093 1.834,-0.125 0.457,-0.024 0.915,-0.018 1.373,-0.025 0.406,-0.007 0.841,-0.103 1.212,0.005 0.388,0.113 0.647,0.136 0.839,-0.196 0.1,0.049 0.258,0.131 0.261,0.125 0.139,-0.217 0.263,-0.442 0.389,-0.667 0.16,-0.09 0.371,-0.157 0.506,-0.293 0.532,-0.537 1.306,-0.195 1.906,-0.5 0.107,-0.054 0.339,0.124 0.516,0.187 0.155,0.055 0.313,0.1 0.465,0.147 0.045,-0.372 0.177,-0.714 0.1,-1.006 -0.097,-0.365 0.045,-0.523 0.309,-0.703 0.399,-0.272 0.674,-0.598 0.454,-1.115 -0.051,-0.119 -0.03,-0.267 -0.037,-0.349 -1.122,0 -2.24,-0.001 -3.357,0 -0.272,0 -0.544,0.011 -0.817,0.008 -1.985,-0.023 -3.97,-0.059 -5.955,-0.069 -0.854,-0.004 -1.709,0.056 -2.564,0.067 -0.936,0.013 -1.874,0.014 -2.81,0 -1.33,-0.019 -2.659,-0.055 -3.988,-0.09 -0.204,-0.006 -0.402,-0.013 -0.405,0.243 -0.015,1.22 -0.02,2.441 -0.029,3.661 0,0.13 -0.007,0.261 10e-4,0.391 0.012,0.182 0.036,0.364 0.046,0.462 m 7.473,7.962 c 0.19,0.432 0.35,0.793 0.507,1.156 0.025,0.058 0.049,0.123 0.047,0.184 -0.014,0.386 -0.076,0.775 -0.042,1.156 0.023,0.257 0.139,0.527 0.292,0.741 0.053,0.074 0.339,-0.007 0.52,-0.011 0.066,0 0.133,0.025 0.2,0.025 0.549,-0.001 1.099,0.006 1.648,-0.011 0.497,-0.016 0.993,-0.054 1.489,-0.093 0.138,-0.011 0.273,-0.06 0.415,-0.093 0.028,0.02 0.094,0.102 0.171,0.112 0.203,0.026 0.444,-0.04 0.611,0.041 0.492,0.237 0.882,-0.138 1.378,-0.089 -0.162,-0.184 -0.274,-0.311 -0.385,-0.437 0.369,0.094 0.705,0.207 1.05,0.26 0.283,0.042 0.579,0 0.867,0.017 0.238,0.014 0.474,0.059 0.71,0.091 0.803,0.387 1.673,0.361 2.583,0.264 -0.135,0.457 0.211,0.397 0.53,0.503 v -5.334 c -0.649,0 -1.248,-10e-4 -1.846,0 -0.269,10e-4 -0.542,-0.025 -0.729,0.234 -0.041,0.056 -0.169,0.082 -0.254,0.078 -0.294,-0.017 -0.587,-0.074 -0.881,-0.077 -0.998,-0.009 -1.996,0.004 -2.994,-0.004 -0.5,-0.005 -1,-0.048 -1.5,-0.055 -0.624,-0.01 -1.232,-0.289 -1.868,-0.099 -0.189,0.056 -0.378,0.134 -0.571,0.151 -0.631,0.055 -1.273,0.17 -1.892,0.106 -0.822,-0.085 -1.687,0.177 -2.468,-0.252 -0.021,-0.011 -0.054,-0.003 -0.081,-0.003 -1.596,0 -3.191,0.002 -4.787,-0.003 -0.22,-10e-4 -0.319,0.068 -0.325,0.291 -0.012,0.416 -0.076,0.831 -0.072,1.246 0.01,0.917 0.043,1.835 0.077,2.752 0.011,0.273 0.056,0.546 0.087,0.84 0.765,-0.142 1.463,-0.272 2.16,-0.401 -0.006,-0.046 -0.011,-0.091 -0.017,-0.137 0.24,0.194 0.447,0.439 0.788,0.133 0.123,-0.111 0.427,-0.146 0.592,-0.082 0.382,0.146 0.854,-0.093 1.18,0.271 0.035,0.039 0.224,0.005 0.298,-0.05 0.233,-0.171 0.451,-0.097 0.686,-0.018 0.139,0.047 0.298,0.101 0.434,0.077 0.485,-0.084 0.963,-0.2 1.467,-0.31 0.113,-0.236 -0.16,-0.499 0.019,-0.806 0.123,-0.211 0.024,-0.54 0.024,-0.896 -0.033,-0.051 -0.125,-0.194 -0.218,-0.338 0.025,-0.014 0.05,-0.028 0.076,-0.043 0.109,0.123 0.219,0.246 0.329,0.369 0.079,-0.527 -0.552,-0.837 -0.305,-1.456 m -7.763,20.622 c 0.339,0.307 0.728,0.372 1.186,0.294 0.282,-0.048 0.591,-0.023 0.876,0.029 0.305,0.056 0.356,-0.235 0.55,-0.296 0.185,-0.057 0.137,0.394 0.432,0.227 0.071,-0.04 0.176,-0.027 0.243,-0.071 0.313,-0.202 0.629,-0.337 1.032,-0.277 0.195,0.029 0.41,-0.068 0.691,-0.124 0.036,-0.072 0.111,-0.222 0.187,-0.373 l 0.046,0.004 c -0.033,0.199 -0.066,0.399 -0.088,0.534 0.372,0.512 0.849,0.476 1.375,0.297 -0.19,-0.461 -0.394,-0.956 -0.583,-1.415 -0.086,0.062 -0.191,0.138 -0.296,0.214 -0.028,-0.11 -0.036,-0.229 -0.088,-0.327 -0.079,-0.148 -0.154,-0.347 -0.289,-0.409 -0.445,-0.206 -0.679,-0.487 -0.616,-0.981 0.012,-0.1 -0.103,-0.258 -0.206,-0.32 -0.369,-0.225 -0.53,-0.536 -0.522,-0.945 0.005,-0.312 0.018,-0.627 -0.008,-0.938 -0.015,-0.172 -0.048,-0.395 -0.165,-0.498 -0.472,-0.414 -0.331,-0.979 -0.528,-1.455 0.037,-0.013 0.073,-0.026 0.109,-0.039 0.033,0.069 0.064,0.138 0.097,0.206 0.189,0.392 0.429,0.77 0.556,1.179 0.162,0.525 0.252,1.073 0.334,1.616 0.033,0.216 0.034,0.359 0.294,0.473 0.34,0.15 0.457,0.482 0.462,0.849 0.003,0.15 0.095,0.298 0.166,0.505 0.146,-0.589 0.254,-1.071 0.387,-1.547 0.063,-0.227 0.195,-0.443 -0.08,-0.628 -0.038,-0.025 -0.061,-0.089 -0.065,-0.137 -0.043,-0.536 -0.082,-1.072 -0.124,-1.647 0.309,0.384 0.373,0.821 0.444,1.26 0.023,0.142 0.107,0.274 0.141,0.416 0.044,0.185 0.121,0.385 0.087,0.561 -0.077,0.402 -0.197,0.799 -0.328,1.19 -0.149,0.446 0.169,0.848 0.64,0.761 0.195,-0.036 0.413,-0.092 0.561,-0.208 0.45,-0.353 0.927,-0.578 1.567,-0.443 0.015,-0.133 0.027,-0.243 0.039,-0.352 0.068,-0.642 0.49,-0.906 1.155,-0.764 0.219,0.047 0.468,0.042 0.686,-0.009 0.376,-0.089 0.661,-0.054 0.94,0.247 0.636,0.685 0.652,0.672 1.313,0.811 -0.447,0.078 -0.815,0.04 -1.055,-0.378 -0.082,-0.142 -0.256,-0.234 -0.366,-0.365 -0.189,-0.229 -0.411,-0.239 -0.648,-0.103 -0.267,0.152 -0.514,0.13 -0.812,0.057 -0.237,-0.058 -0.517,0.046 -0.776,0.079 -0.028,0.149 -0.046,0.251 -0.066,0.351 -0.044,0.214 -0.02,0.495 -0.155,0.62 -0.116,0.107 -0.42,0.005 -0.628,0.051 -0.234,0.051 -0.461,0.15 -0.678,0.254 -0.19,0.092 -0.349,0.246 -0.543,0.326 -0.195,0.08 -0.416,0.104 -0.666,0.162 0.236,0.651 0.465,1.286 0.666,1.841 0.624,0.155 1.188,0.309 1.76,0.427 0.165,0.034 0.386,0.015 0.525,-0.068 0.395,-0.235 0.772,-0.297 1.201,-0.091 0.143,0.068 0.327,0.059 0.519,0.044 -0.339,-0.21 0.248,-0.847 -0.572,-0.798 0.037,-0.052 0.073,-0.103 0.11,-0.155 0.148,0 0.358,-0.059 0.432,0.012 0.173,0.165 0.525,0.292 0.26,0.644 0.472,0.066 0.345,-0.177 0.242,-0.37 0.266,-0.188 0.383,-0.038 0.531,0.115 0.088,0.091 0.247,0.174 0.369,0.168 0.531,-0.024 1.059,-0.099 1.589,-0.124 0.353,-0.017 0.709,0.021 1.063,0.029 0.071,0.002 0.173,0.005 0.21,-0.035 0.244,-0.265 0.442,-0.183 0.567,0.025 0.313,-0.07 0.574,-0.193 0.821,-0.17 0.502,0.048 0.962,-0.101 1.439,-0.174 0.568,-0.086 1.118,-0.052 1.657,0.176 0.239,0.101 0.516,0.117 0.768,0.17 v -2.073 c 0,-0.104 -0.001,-0.208 -0.003,-0.313 -0.027,-1.739 -0.05,-3.478 -0.084,-5.217 -0.013,-0.66 -0.114,-1.324 -0.06,-1.978 0.047,-0.561 0.066,-1.119 0.064,-1.68 -0.004,-0.795 -0.01,-1.59 0.003,-2.384 0.013,-0.724 0.038,-1.449 0.083,-2.172 0.021,-0.336 -0.112,-0.428 -0.446,-0.416 -1.157,0.039 -2.32,-0.003 -3.469,0.099 -1.433,0.127 -2.864,0.138 -4.299,0.144 -0.117,0 -0.235,0.054 -0.337,0.079 -0.077,-0.04 -0.191,-0.147 -0.309,-0.152 -0.476,-0.02 -0.954,-0.009 -1.448,-0.009 0.083,0.389 0.164,0.733 0.224,1.081 0.014,0.078 -0.051,0.167 -0.067,0.253 -0.022,0.121 -0.071,0.255 -0.039,0.364 0.108,0.367 0.061,0.686 -0.096,1.047 -0.134,0.309 -0.064,0.694 -0.123,1.039 -0.059,0.352 -0.154,0.7 -0.255,1.044 -0.127,0.431 -0.277,0.855 -0.412,1.269 -0.256,-0.142 -0.385,-0.561 -0.145,-0.955 0.306,-0.501 0.323,-1.031 0.341,-1.578 0.006,-0.173 0.066,-0.349 0.127,-0.515 0.127,-0.344 0.297,-0.675 0.394,-1.025 0.038,-0.137 -0.094,-0.309 -0.109,-0.469 -0.034,-0.347 -0.058,-0.697 -0.056,-1.045 10e-4,-0.446 -0.066,-0.502 -0.547,-0.515 -1.266,-0.036 -2.53,-0.104 -3.796,-0.131 -0.61,-0.013 -1.221,0.054 -1.832,0.053 -0.572,-0.002 -1.143,-0.066 -1.715,-0.067 -0.595,-0.002 -1.191,0.038 -1.801,0.061 0,1.528 -0.01,2.99 0.004,4.451 0.009,1.034 0.079,2.069 0.069,3.103 -0.007,0.776 -0.127,1.551 -0.144,2.328 -0.014,0.636 0.053,1.272 0.077,1.909 0.028,0.716 0.064,1.432 0.061,2.148 -0.001,0.156 -0.149,0.311 -0.229,0.467 v -38.174 h 0.327 c -0.028,1.081 -0.058,2.163 -0.085,3.245 -0.007,0.277 0.021,0.558 -0.015,0.832 -0.065,0.491 -0.186,0.98 0.104,1.443 0.075,0.121 0.174,0.321 0.261,0.32 0.131,0 0.262,-0.145 0.435,-0.256 0.169,0.051 0.413,0.125 0.7,0.212 -0.048,-0.155 -0.081,-0.262 -0.143,-0.461 0.244,0.193 0.399,0.411 0.574,0.428 0.185,0.018 0.537,0.027 0.527,-0.367 h -0.446 c 0.533,-0.415 1,-0.778 1.475,-1.147 0.306,0.093 0.631,0.193 0.971,0.297 -0.131,0.197 -0.2,0.301 -0.269,0.406 0.531,-0.174 0.878,0.169 1.237,0.335 0.506,0.232 1.11,0.154 1.403,-0.308 0.107,-0.17 0.192,-0.223 0.419,-0.15 0.449,0.146 0.92,0.229 1.382,0.339 0.04,0.009 0.079,0.03 0.118,0.031 0.904,0.015 1.807,0.023 2.711,0.044 0.141,0.003 0.28,0.066 0.421,0.093 0.131,0.025 0.266,0.066 0.395,0.054 0.332,-0.031 0.664,-0.079 0.992,-0.138 0.193,-0.035 0.38,-0.1 0.567,-0.16 0.468,-0.15 0.824,-0.523 1.424,-0.424 0.503,0.083 0.988,0.147 1.472,0.331 0.613,0.234 1.26,0.393 1.901,0.555 0.377,0.096 0.771,0.135 1.277,0.219 0.048,-0.233 0.237,-0.579 0.151,-0.842 -0.253,-0.773 -0.14,-1.544 -0.137,-2.317 0.003,-0.838 10e-4,-1.675 10e-4,-2.459 -0.939,0 -1.806,0.009 -2.674,-0.002 -1.439,-0.019 -2.878,-0.065 -4.317,-0.071 -0.854,-0.004 -1.708,0.052 -2.562,0.069 -0.213,0.004 -0.426,-0.05 -0.64,-0.054 -0.691,-0.012 -1.383,-0.018 -2.075,-0.018 -0.431,10e-4 -0.862,0.024 -1.294,0.025 -0.851,0.004 -1.703,-0.001 -2.554,-0.002 h -2.139 c -0.017,0.474 -0.084,0.902 0.511,1.11 0.32,0.112 0.389,0.537 0.206,0.834 -0.224,0.363 -0.168,0.711 -0.002,1.068 0.093,0.201 0.199,0.399 0.256,0.61 0.055,0.203 0.055,0.42 0.079,0.631 -0.035,0.003 -0.07,0.007 -0.104,0.012 -0.191,-0.406 -0.371,-0.817 -0.576,-1.216 -0.232,-0.451 -0.355,-0.893 -0.03,-1.353 0.108,-0.152 0.067,-0.243 -0.128,-0.317 -0.471,-0.178 -0.898,-0.413 -0.999,-0.955 -0.033,-0.177 -0.084,-0.351 -0.126,-0.526 H 2.654 V 10.52 h -20.53 V 9.581 c 0.094,0.049 0.186,0.1 0.281,0.147 0.68,0.337 1.378,0.358 2.097,0.121 0.184,-0.061 0.385,-0.111 0.576,-0.105 0.504,0.017 1.008,0.082 1.512,0.096 0.148,0.004 0.296,-0.106 0.449,-0.146 0.147,-0.039 0.323,-0.115 0.447,-0.071 0.613,0.217 1.301,0.37 1.864,0.155 0.61,-0.233 1.159,-0.112 1.739,-0.121 0.647,-0.009 1.293,-0.056 1.94,-0.071 0.51,-0.012 1.021,-0.007 1.531,10e-4 0.16,0.002 0.319,0.044 0.479,0.053 0.512,0.031 1.024,0.065 1.536,0.077 0.241,0.006 0.483,-0.042 0.725,-0.051 0.267,-0.01 0.535,0.003 0.801,-0.005 C -1.479,9.647 -1.045,9.546 -0.645,9.62 0.288,9.794 1.082,9.573 1.809,9.031 1.894,8.968 1.967,8.846 2.056,8.836 2.627,8.769 2.477,8.393 2.46,8.053 2.446,7.764 2.467,7.472 2.487,7.182 2.522,6.687 2.569,6.192 2.613,5.683 2.443,5.676 2.363,5.668 2.283,5.669 1.076,5.685 -0.131,5.705 -1.338,5.715 -1.793,5.719 -2.25,5.674 -2.703,5.701 c -0.803,0.046 -1.602,0.166 -2.405,0.192 -1.098,0.035 -2.198,0.001 -3.296,0.014 -0.938,0.012 -1.875,0.063 -2.813,0.067 -0.695,0.002 -1.39,-0.065 -2.084,-0.064 -0.732,0 -1.465,0.064 -2.197,0.063 -0.792,0 -1.585,-0.044 -2.378,-0.068 V 4.027 c 0.322,0.565 0.541,0.601 1.086,0.223 0.101,-0.07 0.323,-0.104 0.413,-0.046 0.383,0.245 0.762,0.126 1.154,0.068 0.224,-0.033 0.457,-0.126 0.664,0.129 0.18,0.222 0.464,0.25 0.74,0.083 0.076,-0.046 0.183,-0.075 0.272,-0.067 0.305,0.026 0.608,0.091 0.914,0.103 0.243,0.011 0.565,-0.134 0.716,-0.03 0.293,0.201 0.556,0.082 0.819,0.059 0.249,-0.022 0.608,-0.007 0.472,-0.506 0.43,0.201 0.769,0.442 1.142,0.512 0.398,0.073 0.829,-0.017 1.265,-0.036 C -8.424,3.973 -8.094,3.638 -7.885,3.268 -7.762,3.05 -7.652,2.824 -7.536,2.602 -7.569,2.562 -7.603,2.521 -7.636,2.481 H -8.811 C -8.989,2.34 -9.088,2.206 -9.219,2.167 c -0.372,-0.11 -0.758,-0.174 -1.136,-0.27 -0.2,-0.05 -0.413,-0.16 -0.476,0.145 -0.057,0.276 0.046,0.514 0.346,0.566 0.484,0.084 0.98,0.105 1.468,0.176 0.176,0.027 0.342,0.121 0.534,0.191 -0.427,0 -0.829,0.091 -1.156,-0.021 -0.471,-0.161 -1.096,-0.077 -1.368,-0.645 -0.027,-0.055 -0.13,-0.076 -0.193,-0.111 -0.113,0.132 -0.216,0.254 -0.271,0.318 -0.312,-0.153 -0.534,-0.325 -0.781,-0.367 -0.39,-0.068 -0.797,-0.049 -1.244,-0.068 0.064,-0.139 0.091,-0.196 0.117,-0.252 0.027,-0.116 0.055,-0.232 0.108,-0.459 0.157,0.16 0.265,0.271 0.373,0.381 0.842,0.186 0.829,0.168 1.584,-0.319 0.176,-0.114 0.473,-0.054 0.772,-0.078 -0.093,0.122 -0.141,0.186 -0.256,0.337 1.139,0.212 2.208,0.411 3.319,0.619 -0.094,-0.261 0.245,-0.553 -0.083,-0.686 0.141,-0.427 0.276,-0.836 0.437,-1.325 0.108,0.319 0.198,0.586 0.297,0.879 -0.381,0.103 -0.341,0.4 -0.335,0.686 0.005,0.26 -0.028,0.525 0.009,0.78 0.06,0.405 -0.158,0.659 -0.343,0.914 -0.03,0.12 -0.06,0.241 -0.089,0.362 -0.072,-0.036 -0.143,-0.071 -0.259,-0.129 -0.063,0.197 -0.125,0.396 -0.171,0.538 0.235,0.099 0.4,0.225 0.565,0.226 0.534,0.005 1.069,-0.027 1.602,-0.061 0.619,-0.04 1.242,-0.167 1.854,-0.127 0.648,0.041 1.267,-0.032 1.904,-0.089 C -1.388,4.214 -0.665,4.363 0.05,4.413 0.158,4.421 0.27,4.394 0.379,4.378 0.768,4.319 1.157,4.255 1.546,4.202 1.587,4.196 1.633,4.246 1.68,4.265 1.925,4.364 2.171,4.462 2.497,4.592 v -5.314 c -0.472,-0.036 -0.9,-0.093 -1.328,-0.095 -0.481,-0.002 -0.963,0.065 -1.444,0.068 -1.898,0.008 -3.796,0.003 -5.694,0.003 h -2.416 c -1.175,0 -2.35,0.01 -3.525,-0.002 -1.508,-0.016 -3.015,-0.047 -4.523,-0.079 -0.239,-0.005 -0.484,-0.086 -0.717,-0.06 -0.247,0.029 -0.484,0.144 -0.726,0.221 v -1.095 c 0.614,-0.214 1.32,0.052 1.904,-0.333 0.04,-0.026 0.149,-0.007 0.192,0.029 0.425,0.344 0.914,0.529 1.467,0.544 0.183,0.005 0.406,0.009 0.544,-0.08 0.264,-0.17 0.479,-0.407 0.722,-0.624 0.219,0.141 0.439,0.282 0.655,0.422 -0.076,0.138 -0.135,0.245 -0.235,0.427 0.366,0.02 0.665,0.073 0.954,0.039 0.187,-0.022 0.359,-0.17 0.133,-0.386 -0.112,-0.107 -0.219,-0.22 -0.394,-0.396 0.214,0.023 0.363,0.028 0.507,0.059 0.183,0.038 0.359,0.126 0.543,0.142 0.462,0.041 0.958,-0.034 1.384,0.1 0.547,0.171 1.078,0.362 1.653,0.293 0.281,-0.033 0.625,-0.116 0.8,-0.299 0.237,-0.249 0.064,-0.893 -0.171,-1.091 -0.278,-0.234 -0.424,-0.515 -0.44,-0.897 -0.011,-0.294 -0.102,-0.676 -0.311,-0.853 -0.446,-0.376 -0.631,-0.827 -0.707,-1.349 -0.018,-0.12 0.034,-0.249 0.055,-0.374 0.049,-0.006 0.099,-0.013 0.148,-0.019 0.083,0.205 0.187,0.405 0.243,0.617 0.085,0.315 0.208,0.569 0.472,0.817 0.338,0.315 0.69,0.693 0.537,1.251 -0.034,0.127 0.062,0.321 0.158,0.439 0.283,0.35 0.59,0.684 0.901,1.012 0.084,0.089 0.216,0.183 0.331,0.19 0.788,0.043 1.577,0.065 2.366,0.091 0.204,0.006 0.409,-0.009 0.612,0 0.952,0.046 1.905,0.082 2.855,0.152 0.484,0.035 0.962,0.138 1.445,0.198 0.088,0.011 0.268,-0.05 0.267,-0.06 -0.063,-0.469 0.264,-0.241 0.459,-0.241 H 2.471 C 2.451,-2.32 2.412,-2.668 2.418,-3.016 2.432,-3.847 2.47,-4.677 2.494,-5.508 2.5,-5.714 2.477,-5.921 2.489,-6.126 2.514,-6.542 2.221,-6.75 1.777,-6.672 c -0.541,0.094 -1.09,0.201 -1.636,0.205 -1.307,0.008 -2.615,-0.055 -3.923,-0.062 -0.712,-0.004 -1.425,0.067 -2.137,0.065 -1.074,-0.005 -2.148,-0.043 -3.222,-0.071 -0.477,-0.013 -0.957,-0.077 -1.43,-0.044 -1.2,0.085 -2.399,0.15 -3.602,0.117 -1.049,-0.027 -2.098,-0.049 -3.146,-0.073 -0.224,-0.005 -0.414,0.039 -0.41,0.306 0.006,0.506 -0.03,1.019 0.047,1.515 0.042,0.271 -0.003,0.44 -0.194,0.606 v -3.755 c 0.312,-0.268 0.567,-0.065 0.825,0.093 0.638,-0.319 0.638,-0.319 0.362,-0.626 0.259,-0.106 0.424,0.021 0.676,0.526 0.556,-0.241 1.022,-0.031 1.481,0.268 0.287,0.188 0.633,0.326 0.947,0.109 0.258,-0.178 0.447,-0.448 0.666,-0.678 -0.021,-0.042 -0.042,-0.084 -0.062,-0.127 0.141,0.055 0.302,0.085 0.42,0.17 0.308,0.224 0.613,0.321 1.013,0.223 0.231,-0.057 0.501,0.028 0.753,0.048 0.224,0.018 0.496,0.119 0.661,0.033 0.385,-0.201 0.775,-0.195 1.181,-0.197 0.144,-10e-4 0.29,-0.032 0.431,-0.066 0.291,-0.07 0.578,-0.152 0.863,-0.228 0.09,0.169 0.142,0.268 0.205,0.385 0.448,-0.199 0.958,0.228 1.367,-0.168 0.094,0.05 0.18,0.127 0.277,0.142 0.269,0.041 0.542,0.075 0.814,0.076 0.303,0.001 0.607,-0.031 0.909,-0.061 0.288,-0.028 0.649,-0.197 0.846,-0.086 0.475,0.267 1.151,0.094 1.485,0.635 0.023,0.037 0.091,0.056 0.142,0.068 0.835,0.21 1.641,0.217 2.372,-0.308 0.044,-0.032 0.113,-0.05 0.17,-0.047 0.275,0.011 0.549,0.031 0.824,0.048 -0.012,0.017 -0.023,0.033 -0.035,0.05 0.208,0.1 0.415,0.2 0.741,0.357 0.081,-1.596 0.02,-3.089 0.037,-4.63 H 0.827 c -1.08,-0.001 -2.16,0.006 -3.24,-0.006 -0.68,-0.008 -1.36,-0.055 -2.04,-0.068 -0.213,-0.004 -0.429,0.074 -0.64,0.061 -0.485,-0.03 -0.967,-0.093 -1.45,-0.143 -1.083,-0.113 -2.092,0.177 -3.093,0.517 -0.071,0.024 -0.17,-0.008 -0.25,-0.032 -0.272,-0.079 -0.537,-0.213 -0.814,-0.24 -0.458,-0.045 -0.933,0.03 -1.385,-0.041 -0.829,-0.129 -1.652,-0.235 -2.496,-0.211 -0.926,0.027 -1.853,0.002 -2.78,0.01 -0.172,0.002 -0.343,0.05 -0.515,0.076 z"
   style="fill:#811e33;fill-rule:nonzero"
   id="path98" />
            </g>
            <g
   transform="matrix(1.33333,0,0,1.33333,781.619,126.546)"
   id="g104">
                <path
   d="M 0,-0.101 0.026,-0.204 C -0.218,-0.389 -0.479,-0.318 -0.74,-0.261 l -0.004,0.16 z m -4.134,-2.87 c 0.043,0.175 0.093,0.349 0.126,0.526 0.102,0.542 0.529,0.777 1,0.955 0.195,0.073 0.235,0.164 0.128,0.317 -0.326,0.46 -0.203,0.902 0.029,1.353 0.205,0.399 0.385,0.81 0.576,1.216 0.035,-0.005 0.07,-0.008 0.104,-0.013 -0.024,-0.21 -0.024,-0.427 -0.079,-0.63 -0.057,-0.211 -0.163,-0.41 -0.256,-0.61 -0.166,-0.358 -0.222,-0.705 0.002,-1.068 0.183,-0.297 0.114,-0.722 -0.205,-0.834 -0.596,-0.208 -0.529,-0.636 -0.512,-1.11 0.712,0 1.425,-10e-4 2.139,0 0.852,0.001 1.703,0.006 2.555,0.002 0.431,-0.002 0.862,-0.024 1.293,-0.025 0.692,0 1.384,0.005 2.076,0.018 0.213,0.003 0.427,0.058 0.639,0.054 0.855,-0.017 1.708,-0.073 2.562,-0.069 1.439,0.006 2.878,0.052 4.318,0.071 0.867,0.011 1.735,0.002 2.673,0.002 0,0.784 0.003,1.621 -0.001,2.458 C 15.031,0.416 14.917,1.186 15.171,1.96 15.257,2.223 15.068,2.569 15.02,2.802 14.513,2.717 14.12,2.678 13.742,2.583 13.101,2.421 12.455,2.261 11.841,2.028 11.358,1.843 10.872,1.78 10.369,1.697 9.769,1.598 9.413,1.97 8.945,2.12 8.759,2.18 8.571,2.246 8.379,2.281 8.051,2.34 7.719,2.388 7.386,2.419 7.257,2.431 7.122,2.39 6.991,2.365 6.85,2.338 6.711,2.275 6.57,2.272 5.667,2.251 4.763,2.242 3.859,2.228 3.82,2.227 3.781,2.206 3.742,2.197 3.279,2.087 2.808,2.004 2.359,1.859 2.133,1.786 2.048,1.838 1.94,2.008 1.647,2.469 1.043,2.548 0.538,2.316 0.178,2.15 -0.169,1.807 -0.7,1.981 -0.631,1.876 -0.561,1.772 -0.431,1.574 -0.77,1.471 -1.095,1.371 -1.401,1.277 -1.876,1.647 -2.343,2.01 -2.877,2.425 h 0.446 c 0.01,0.394 -0.342,0.385 -0.526,0.367 -0.176,-0.017 -0.33,-0.235 -0.574,-0.429 0.061,0.2 0.095,0.307 0.142,0.463 -0.287,-0.088 -0.53,-0.162 -0.7,-0.213 -0.173,0.111 -0.303,0.255 -0.435,0.256 -0.087,10e-4 -0.186,-0.2 -0.261,-0.32 -0.29,-0.463 -0.169,-0.952 -0.104,-1.443 0.036,-0.274 0.009,-0.555 0.015,-0.832 0.028,-1.082 0.057,-2.164 0.086,-3.245 z"
   style="fill:#ffffff;fill-rule:nonzero"
   id="path102" />
            </g>
            <g
   transform="matrix(1.33333,0,0,1.33333,795.451,190.335)"
   id="g108">
                <path
   d="m 0,-3.054 c 0.196,0.01 0.358,0.027 0.521,0.022 C 0.574,-3.033 0.639,-3.081 0.673,-3.125 0.69,-3.146 0.658,-3.219 0.628,-3.252 0.458,-3.433 0.087,-3.319 0,-3.054 m -15.489,1.445 c 0.19,-0.166 0.236,-0.335 0.194,-0.606 -0.077,-0.496 -0.041,-1.008 -0.048,-1.514 -0.003,-0.268 0.186,-0.311 0.41,-0.306 1.049,0.024 2.098,0.045 3.146,0.073 1.204,0.032 2.402,-0.033 3.602,-0.118 0.473,-0.033 0.953,0.031 1.43,0.044 1.074,0.028 2.148,0.066 3.222,0.071 0.713,0.003 1.425,-0.069 2.138,-0.065 1.308,0.008 2.615,0.07 3.923,0.062 0.545,-0.003 1.094,-0.111 1.635,-0.205 0.444,-0.078 0.737,0.131 0.712,0.546 -0.012,0.205 0.012,0.413 0.006,0.619 -0.024,0.83 -0.062,1.661 -0.077,2.491 -0.006,0.348 0.033,0.697 0.054,1.075 H 4.56 C 4.364,0.558 4.037,0.331 4.1,0.799 4.101,0.81 3.922,0.871 3.833,0.86 3.35,0.8 2.873,0.696 2.389,0.661 1.439,0.592 0.486,0.555 -0.466,0.51 -0.67,0.5 -0.875,0.515 -1.079,0.509 -1.868,0.484 -2.657,0.462 -3.445,0.418 -3.56,0.412 -3.691,0.317 -3.775,0.229 c -0.312,-0.328 -0.619,-0.662 -0.902,-1.013 -0.095,-0.118 -0.192,-0.312 -0.157,-0.438 0.153,-0.559 -0.2,-0.936 -0.537,-1.251 -0.265,-0.248 -0.388,-0.502 -0.472,-0.818 -0.057,-0.211 -0.161,-0.411 -0.243,-0.617 -0.05,0.007 -0.099,0.013 -0.149,0.019 -0.02,0.125 -0.072,0.254 -0.055,0.374 0.077,0.523 0.262,0.974 0.707,1.349 0.209,0.177 0.3,0.559 0.312,0.853 0.015,0.382 0.162,0.663 0.44,0.898 0.234,0.197 0.407,0.841 0.17,1.09 -0.174,0.184 -0.519,0.267 -0.8,0.3 C -6.035,1.043 -6.567,0.853 -7.113,0.681 -7.539,0.547 -8.035,0.623 -8.498,0.582 -8.681,0.566 -8.857,0.478 -9.041,0.439 -9.184,0.409 -9.334,0.404 -9.548,0.38 c 0.175,0.177 0.282,0.289 0.394,0.396 0.226,0.217 0.055,0.365 -0.133,0.387 -0.288,0.034 -0.588,-0.02 -0.953,-0.04 0.1,-0.182 0.158,-0.288 0.235,-0.427 -0.217,-0.139 -0.437,-0.281 -0.655,-0.422 -0.244,0.217 -0.459,0.455 -0.722,0.625 -0.139,0.089 -0.361,0.085 -0.544,0.079 -0.553,-0.015 -1.043,-0.2 -1.467,-0.544 -0.044,-0.035 -0.152,-0.054 -0.192,-0.028 -0.585,0.385 -1.29,0.119 -1.904,0.332 z"
   style="fill:#ffffff;fill-rule:nonzero"
   id="path106" />
            </g>
            <g
   transform="matrix(1.33333,0,0,1.33333,774.799,183.934)"
   id="g112">
                <path
   d="m 0,-4.631 c 0.172,-0.027 0.343,-0.075 0.515,-0.076 0.926,-0.008 1.854,0.017 2.779,-0.01 0.845,-0.024 1.668,0.082 2.497,0.211 0.451,0.071 0.926,-0.004 1.385,0.04 0.277,0.028 0.541,0.162 0.814,0.241 0.08,0.023 0.179,0.056 0.25,0.032 1.001,-0.34 2.01,-0.63 3.093,-0.517 0.483,0.05 0.965,0.113 1.449,0.143 0.212,0.013 0.428,-0.065 0.641,-0.061 0.68,0.013 1.36,0.06 2.039,0.067 1.081,0.013 2.161,0.006 3.241,0.007 h 1.668 c -0.017,1.541 0.044,3.034 -0.037,4.63 -0.326,-0.157 -0.534,-0.257 -0.741,-0.357 0.011,-0.017 0.023,-0.034 0.034,-0.05 -0.274,-0.017 -0.549,-0.037 -0.824,-0.048 -0.056,-0.003 -0.125,0.015 -0.169,0.047 -0.732,0.524 -1.537,0.518 -2.372,0.308 -0.051,-0.013 -0.12,-0.031 -0.142,-0.068 -0.335,-0.541 -1.01,-0.368 -1.485,-0.635 -0.197,-0.111 -0.559,0.057 -0.847,0.086 -0.302,0.03 -0.606,0.062 -0.908,0.061 C 12.608,-0.581 12.335,-0.615 12.065,-0.656 11.969,-0.671 11.882,-0.748 11.789,-0.799 11.38,-0.402 10.87,-0.829 10.421,-0.63 10.359,-0.747 10.306,-0.846 10.216,-1.016 9.932,-0.939 9.644,-0.858 9.354,-0.787 9.213,-0.753 9.066,-0.722 8.922,-0.721 8.517,-0.719 8.126,-0.725 7.742,-0.524 7.577,-0.438 7.304,-0.54 7.081,-0.557 6.828,-0.577 6.559,-0.662 6.328,-0.605 c -0.4,0.098 -0.706,0.001 -1.014,-0.223 -0.117,-0.086 -0.278,-0.115 -0.42,-0.17 0.021,0.042 0.042,0.085 0.063,0.127 -0.22,0.23 -0.408,0.5 -0.667,0.678 C 3.976,0.024 3.631,-0.114 3.343,-0.302 2.884,-0.602 2.418,-0.811 1.863,-0.57 1.611,-1.075 1.446,-1.202 1.187,-1.097 1.462,-0.789 1.462,-0.789 0.825,-0.47 0.567,-0.628 0.312,-0.831 0,-0.563 Z"
   style="fill:#ffffff;fill-rule:nonzero"
   id="path110" />
            </g>
            <g
   transform="matrix(1.33333,0,0,1.33333,774.799,206.801)"
   id="g116">
                <path
   d="m 0,-3.946 c 0.793,0.025 1.585,0.068 2.378,0.068 0.732,0.001 1.464,-0.062 2.196,-0.063 0.695,0 1.39,0.066 2.084,0.064 0.938,-0.003 1.875,-0.055 2.813,-0.066 1.099,-0.013 2.199,0.02 3.297,-0.015 0.803,-0.026 1.602,-0.145 2.405,-0.192 0.453,-0.027 0.91,0.019 1.365,0.015 1.207,-0.011 2.413,-0.031 3.62,-0.046 0.08,-0.001 0.16,0.006 0.33,0.013 -0.043,0.509 -0.09,1.004 -0.125,1.499 -0.021,0.29 -0.042,0.582 -0.027,0.871 0.017,0.34 0.167,0.717 -0.404,0.783 -0.089,0.011 -0.162,0.132 -0.248,0.195 -0.726,0.543 -1.521,0.763 -2.453,0.589 -0.4,-0.074 -0.835,0.028 -1.254,0.041 -0.267,0.009 -0.534,-0.005 -0.801,0.005 -0.242,0.009 -0.484,0.057 -0.725,0.051 C 13.938,-0.146 13.426,-0.18 12.915,-0.211 12.754,-0.22 12.596,-0.262 12.436,-0.264 11.925,-0.271 11.415,-0.277 10.905,-0.265 10.257,-0.249 9.611,-0.203 8.964,-0.193 8.384,-0.185 7.836,-0.306 7.226,-0.073 6.662,0.142 5.975,-0.01 5.361,-0.228 5.238,-0.272 5.061,-0.196 4.914,-0.157 4.762,-0.116 4.613,-0.007 4.466,-0.011 3.961,-0.025 3.458,-0.089 2.953,-0.106 2.763,-0.113 2.561,-0.063 2.378,-0.002 1.659,0.236 0.961,0.214 0.281,-0.123 0.186,-0.169 0.094,-0.22 0,-0.269 Z"
   style="fill:#ffffff;fill-rule:nonzero"
   id="path114" />
            </g>
            <g
   transform="matrix(1.33333,0,0,1.33333,774.799,199.46)"
   id="g120">
                <path
   d="m 0,-5.011 c 0.241,-0.077 0.478,-0.192 0.726,-0.22 0.233,-0.027 0.477,0.055 0.717,0.059 1.508,0.032 3.015,0.063 4.522,0.079 1.175,0.012 2.35,0.002 3.525,0.002 h 2.416 c 1.898,0 3.797,0.005 5.695,-0.003 0.481,-0.002 0.962,-0.07 1.444,-0.068 0.428,0.002 0.856,0.059 1.328,0.095 v 5.314 c -0.326,-0.13 -0.572,-0.228 -0.818,-0.327 -0.046,-0.019 -0.093,-0.068 -0.133,-0.063 -0.39,0.054 -0.778,0.117 -1.167,0.176 -0.109,0.016 -0.221,0.043 -0.33,0.035 -0.714,-0.049 -1.438,-0.199 -2.14,-0.136 -0.638,0.059 -1.256,0.131 -1.904,0.09 -0.613,-0.04 -1.236,0.087 -1.855,0.127 -0.533,0.034 -1.068,0.066 -1.601,0.061 -0.166,-0.001 -0.33,-0.127 -0.565,-0.225 0.045,-0.143 0.108,-0.341 0.17,-0.538 0.116,0.057 0.188,0.093 0.26,0.128 0.029,-0.121 0.059,-0.241 0.088,-0.362 0.186,-0.255 0.403,-0.509 0.344,-0.914 -0.038,-0.255 -0.004,-0.52 -0.01,-0.781 -0.006,-0.285 -0.045,-0.581 0.335,-0.685 -0.098,-0.293 -0.188,-0.56 -0.296,-0.879 -0.161,0.489 -0.297,0.898 -0.437,1.325 0.328,0.133 -0.011,0.426 0.083,0.686 C 9.285,-2.242 8.217,-2.442 7.078,-2.654 7.192,-2.805 7.241,-2.869 7.334,-2.991 7.035,-2.967 6.737,-3.027 6.562,-2.913 5.807,-2.426 5.82,-2.407 4.978,-2.593 4.87,-2.704 4.761,-2.815 4.605,-2.975 4.551,-2.748 4.524,-2.632 4.496,-2.516 l 0.009,0.013 C 4.172,-2.953 3.292,-3.034 2.844,-2.691 2.669,-2.556 2.417,-2.442 2.203,-2.446 1.918,-2.451 1.63,-2.567 1.354,-2.663 1.045,-2.77 0.757,-2.969 0.412,-2.75 0.365,-2.721 0.268,-2.765 0.221,-2.772 v -1.287 c 0.203,-0.025 0.436,-0.125 0.589,-0.058 0.415,0.18 0.791,0.085 1.185,-0.021 0.31,-0.082 0.64,-0.203 0.932,0.026 0.544,0.427 1.203,0.598 1.843,0.832 0.567,0.208 1.043,0.058 1.487,-0.205 0.581,-0.346 0.81,-0.335 1.23,0.166 0.113,0.135 0.276,0.281 0.441,0.318 0.564,0.127 1.138,0.211 1.71,0.298 C 9.739,-2.688 9.85,-2.739 9.94,-2.756 9.83,-2.891 9.744,-2.997 9.631,-3.135 9.516,-3.187 9.35,-3.313 9.174,-3.328 8.895,-3.353 8.607,-3.315 8.324,-3.286 7.996,-3.253 7.784,-3.357 7.585,-3.631 7.186,-4.18 6.643,-4.3 6.06,-4.042 5.69,-4.648 5.677,-4.645 5.117,-4.146 4.982,-4.026 4.809,-3.864 4.652,-3.863 4.144,-3.861 3.662,-3.946 3.228,-4.277 2.958,-4.483 2.57,-4.655 2.237,-4.653 1.625,-4.647 1.015,-4.501 0.416,-4.416 0.411,-4.43 0.43,-4.38 0.458,-4.31 0.283,-4.339 0.141,-4.362 0,-4.385 Z"
   style="fill:#ffffff;fill-rule:nonzero"
   id="path118" />
            </g>
            <g
   transform="matrix(1.33333,0,0,1.33333,780.794,199.793)"
   id="g124">
                <path
   d="m 0,-2.765 c -0.026,0.056 -0.052,0.113 -0.116,0.252 0.447,0.019 0.853,0 1.244,0.068 0.246,0.042 0.468,0.214 0.781,0.367 0.054,-0.064 0.157,-0.186 0.27,-0.318 0.063,0.035 0.166,0.056 0.193,0.111 0.272,0.567 0.898,0.483 1.369,0.645 0.326,0.112 0.729,0.021 1.156,0.021 C 4.704,-1.689 4.539,-1.783 4.362,-1.81 3.874,-1.881 3.378,-1.902 2.894,-1.986 2.595,-2.038 2.491,-2.276 2.549,-2.553 c 0.063,-0.304 0.276,-0.194 0.475,-0.144 0.378,0.095 0.764,0.16 1.136,0.27 0.131,0.039 0.231,0.173 0.408,0.314 h 1.176 c 0.033,0.04 0.066,0.08 0.099,0.121 C 5.727,-1.77 5.618,-1.544 5.494,-1.326 5.285,-0.956 4.955,-0.621 5.161,-0.075 4.724,-0.056 4.293,0.034 3.896,-0.04 3.522,-0.109 3.184,-0.35 2.753,-0.551 2.89,-0.052 2.53,-0.067 2.281,-0.045 2.018,-0.022 1.756,0.097 1.462,-0.104 1.311,-0.208 0.99,-0.063 0.747,-0.074 0.441,-0.087 0.138,-0.151 -0.168,-0.177 c -0.088,-0.008 -0.195,0.021 -0.271,0.067 -0.277,0.167 -0.56,0.139 -0.741,-0.083 -0.207,-0.255 -0.44,-0.162 -0.663,-0.129 -0.393,0.058 -0.772,0.177 -1.155,-0.069 -0.09,-0.057 -0.312,-0.023 -0.413,0.047 -0.544,0.378 -0.764,0.342 -1.085,-0.223 v -1.799 c 0.073,-0.125 0.147,-0.251 0.22,-0.377 0.537,0.289 0.624,0.29 0.67,-0.019 0.19,0.083 0.376,0.154 0.552,0.244 0.564,0.286 1.275,0.257 1.61,-0.003 0.201,-0.157 0.478,-0.261 0.736,-0.303 0.228,-0.038 0.477,0.043 0.717,0.072 z"
   style="fill:#ffffff;fill-rule:nonzero"
   id="path122" />
            </g>
            <g
   transform="matrix(1.33333,0,0,1.33333,780.806,193.948)"
   id="g128">
                <path
   d="M 0,1.631 C -0.24,1.602 -0.489,1.522 -0.716,1.559 c -0.259,0.042 -0.536,0.146 -0.737,0.303 -0.334,0.26 -1.046,0.29 -1.61,0.003 -0.176,-0.089 -0.362,-0.161 -0.552,-0.244 -0.046,0.31 -0.133,0.308 -0.67,0.02 -0.073,0.126 -0.147,0.251 -0.22,0.377 v -2.269 c 0.141,0.023 0.283,0.047 0.458,0.076 -0.028,-0.071 -0.047,-0.121 -0.042,-0.107 0.599,-0.085 1.209,-0.231 1.821,-0.236 0.333,-0.003 0.721,0.17 0.99,0.375 0.435,0.331 0.917,0.416 1.425,0.414 0.157,0 0.33,-0.162 0.465,-0.283 0.56,-0.499 0.573,-0.501 0.943,0.104 C 2.138,-0.166 2.681,-0.046 3.08,0.503 3.279,0.778 3.491,0.882 3.819,0.848 4.102,0.819 4.39,0.781 4.67,0.806 4.845,0.822 5.01,0.947 5.126,0.999 5.239,1.138 5.325,1.243 5.435,1.378 5.345,1.396 5.234,1.446 5.133,1.431 4.561,1.345 3.987,1.26 3.423,1.134 3.258,1.097 3.095,0.951 2.982,0.816 2.562,0.314 2.332,0.303 1.752,0.649 1.308,0.913 0.832,1.062 0.265,0.854 -0.375,0.62 -1.034,0.449 -1.578,0.022 -1.87,-0.207 -2.2,-0.086 -2.51,-0.003 -2.904,0.102 -3.28,0.198 -3.695,0.017 -3.848,-0.05 -4.08,0.051 -4.284,0.076 v 1.287 c 0.047,0.006 0.144,0.05 0.191,0.021 0.345,-0.219 0.633,-0.02 0.942,0.087 0.276,0.096 0.564,0.212 0.849,0.217 0.214,0.005 0.466,-0.11 0.641,-0.244 C -1.213,1.1 -0.333,1.181 0,1.631"
   style="fill:#811e33;fill-rule:nonzero"
   id="path126" />
            </g>
            <g
   transform="matrix(1.33333,0,0,1.33333,791.966,175.311)"
   id="g132">
                <path
   d="m 0,-1.933 c 0.05,0.397 0.097,0.796 0.153,1.192 0.043,0.306 -0.12,0.461 -0.404,0.532 -0.295,0.073 -0.591,0.14 -0.888,0.209 -0.17,-0.276 0.018,-0.37 0.248,-0.425 0.713,-0.17 0.784,-0.253 0.784,-0.962 v -0.537 z"
   style="fill:#811e33;fill-rule:nonzero"
   id="path130" />
            </g>
            <g
   transform="matrix(1.33333,0,0,1.33333,798.397,152.307)"
   id="g136">
                <path
   d="m 0,-4.165 c 0.47,0.096 0.908,0.186 1.437,0.294 C 1.356,-4.041 1.331,-4.193 1.269,-4.207 0.855,-4.306 0.429,-4.553 0,-4.165 m -9.936,0.989 c -0.247,0.62 0.384,0.93 0.304,1.457 -0.109,-0.123 -0.219,-0.246 -0.329,-0.369 -0.025,0.014 -0.05,0.029 -0.075,0.043 0.093,0.143 0.185,0.287 0.218,0.338 0,0.356 0.099,0.685 -0.024,0.896 -0.179,0.307 0.094,0.57 -0.02,0.806 -0.503,0.11 -0.982,0.226 -1.466,0.31 -0.136,0.024 -0.296,-0.031 -0.434,-0.077 -0.235,-0.079 -0.453,-0.153 -0.686,0.018 -0.075,0.055 -0.263,0.089 -0.298,0.05 -0.327,-0.363 -0.798,-0.125 -1.18,-0.271 -0.166,-0.064 -0.469,-0.029 -0.592,0.082 -0.342,0.306 -0.548,0.06 -0.788,-0.133 0.005,0.046 0.011,0.091 0.016,0.136 -0.697,0.13 -1.394,0.259 -2.16,0.402 -0.031,-0.294 -0.075,-0.567 -0.086,-0.84 -0.034,-0.917 -0.068,-1.835 -0.077,-2.753 -0.005,-0.414 0.06,-0.829 0.072,-1.245 0.006,-0.223 0.104,-0.292 0.325,-0.292 1.595,0.005 3.191,0.003 4.787,0.003 0.027,0 0.06,-0.008 0.08,0.004 0.782,0.428 1.647,0.167 2.469,0.252 0.619,0.063 1.261,-0.052 1.891,-0.106 0.194,-0.017 0.383,-0.095 0.572,-0.151 0.636,-0.19 1.244,0.088 1.868,0.098 0.5,0.009 1,0.051 1.5,0.056 0.998,0.008 1.996,-0.005 2.994,0.004 0.293,0.003 0.586,0.06 0.881,0.076 0.085,0.005 0.213,-0.021 0.253,-0.078 0.188,-0.258 0.461,-0.232 0.73,-0.233 0.598,-0.001 1.196,0 1.845,0 V 0.641 C 2.336,0.535 1.99,0.594 2.125,0.138 1.215,0.235 0.344,0.261 -0.458,-0.127 c -0.237,-0.031 -0.472,-0.076 -0.71,-0.09 -0.289,-0.017 -0.584,0.025 -0.867,-0.018 -0.346,-0.052 -0.681,-0.165 -1.05,-0.259 0.111,0.126 0.223,0.253 0.385,0.437 -0.496,-0.049 -0.887,0.326 -1.378,0.089 -0.168,-0.081 -0.408,-0.015 -0.611,-0.041 -0.077,-0.01 -0.143,-0.092 -0.171,-0.112 -0.143,0.033 -0.277,0.082 -0.415,0.093 -0.496,0.039 -0.992,0.077 -1.49,0.093 -0.548,0.017 -1.098,0.01 -1.648,0.011 -0.066,0 -0.133,-0.026 -0.2,-0.024 -0.18,0.003 -0.466,0.084 -0.52,0.009 -0.152,-0.213 -0.268,-0.483 -0.291,-0.74 -0.034,-0.381 0.027,-0.77 0.042,-1.156 0.002,-0.061 -0.022,-0.126 -0.047,-0.184 -0.157,-0.363 -0.317,-0.724 -0.507,-1.157"
   style="fill:#ffffff;fill-rule:nonzero"
   id="path134" />
            </g>
            <g
   transform="matrix(1.33333,0,0,1.33333,778.543,132.28)"
   id="g140">
                <path
   d="M 0,2.996 C 0.02,3.095 0.027,3.225 0.078,3.336 0.098,3.379 0.261,3.418 0.286,3.393 0.44,3.235 0.573,3.059 0.721,2.88 0.507,2.914 0.277,2.951 0,2.996 M -2.518,3.883 C -2.528,3.786 -2.552,3.604 -2.564,3.421 -2.573,3.291 -2.566,3.161 -2.565,3.031 -2.557,1.81 -2.551,0.59 -2.536,-0.631 c 0.003,-0.256 0.201,-0.248 0.405,-0.243 1.329,0.036 2.658,0.071 3.987,0.091 0.937,0.013 1.874,0.012 2.811,-0.001 0.855,-0.011 1.709,-0.071 2.563,-0.067 1.986,0.01 3.971,0.046 5.956,0.069 0.272,0.004 0.545,-0.007 0.817,-0.007 1.117,-0.002 2.234,-0.001 3.356,-0.001 0.008,0.082 -0.013,0.23 0.037,0.349 0.221,0.517 -0.055,0.844 -0.454,1.115 -0.264,0.18 -0.406,0.338 -0.309,0.703 0.078,0.292 -0.054,0.635 -0.099,1.007 C 16.382,2.336 16.223,2.291 16.069,2.236 15.891,2.173 15.659,1.995 15.553,2.05 14.953,2.354 14.178,2.012 13.647,2.549 13.512,2.685 13.3,2.753 13.141,2.842 13.014,3.067 12.891,3.292 12.752,3.509 12.748,3.516 12.591,3.433 12.491,3.385 12.298,3.717 12.039,3.693 11.651,3.58 11.281,3.473 10.846,3.569 10.44,3.575 9.982,3.582 9.523,3.576 9.066,3.6 8.454,3.632 7.844,3.72 7.232,3.725 6.534,3.73 5.835,3.663 5.136,3.643 4.552,3.626 3.967,3.63 3.383,3.63 3.264,3.63 3.125,3.703 3.03,3.665 2.484,3.449 1.95,3.6 1.41,3.668 1.306,3.682 1.191,3.598 1.079,3.592 0.91,3.583 0.738,3.6 0.568,3.611 0.374,3.624 0.181,3.641 -0.012,3.659 -0.816,3.73 -1.621,3.803 -2.518,3.883"
   style="fill:#ffffff;fill-rule:nonzero"
   id="path138" />
            </g>
            <g
   transform="matrix(1.33333,0,0,1.33333,782.205,140.079)"
   id="g144">
                <path
   d="M 0,2.28 C -0.004,2.314 -0.009,2.348 -0.013,2.381 1.356,2.689 2.678,3.295 4.055,3.018 4.13,2.809 4.176,2.68 4.221,2.553 4,2.549 3.682,2.393 3.784,2.888 2.484,2.679 1.242,2.479 0,2.28 m 14.776,-3.442 v 1.454 c -0.246,0 -0.538,-0.06 -0.787,0.013 -0.377,0.111 -0.728,0.309 -1.085,0.48 C 12.42,1.016 12.017,1.431 11.366,1.217 11.11,1.133 10.772,1.234 10.485,1.303 10.405,1.321 10.339,1.522 10.326,1.646 10.28,2.107 10.224,2.217 9.762,2.12 9.098,1.981 8.542,2.317 7.934,2.405 7.777,2.427 7.651,2.774 7.551,2.989 7.501,3.096 7.543,3.242 7.543,3.386 6.851,3.386 6.187,3.404 5.525,3.38 5.007,3.36 4.491,3.262 3.972,3.249 3.689,3.242 3.405,3.346 3.12,3.392 3.056,3.402 2.976,3.396 2.922,3.366 2.398,3.083 1.873,3.186 1.313,3.273 0.818,3.35 0.243,3.486 -0.182,3.051 -0.351,2.878 -0.458,2.651 -0.621,2.405 -0.83,2.394 -1.218,2.773 -1.355,2.326 -1.604,2.299 -1.784,2.262 -1.964,2.265 -2.184,2.269 -2.403,2.303 -2.622,2.333 -2.843,2.363 -3.069,2.457 -3.28,2.43 -3.915,2.35 -4.552,2.621 -4.918,3.202 c 0.417,0.036 0.806,0.106 1.162,-0.185 0.085,-0.07 0.281,-0.077 0.4,-0.038 0.382,0.123 0.739,0.167 1.068,-0.117 0.049,-0.042 0.12,-0.081 0.182,-0.083 0.151,-0.007 0.304,0.008 0.456,0.014 -0.117,0.178 0.075,0.502 -0.287,0.559 C -2.04,3.369 -2.149,3.362 -2.255,3.355 -2.375,3.346 -2.502,3.289 -2.611,3.313 -3.203,3.444 -3.797,3.426 -4.395,3.371 -4.476,3.364 -4.561,3.414 -4.645,3.415 -4.838,3.416 -5.089,3.47 -5.209,3.377 -5.329,3.283 -5.348,3.038 -5.361,2.856 -5.385,2.501 -5.377,2.144 -5.377,1.788 c 0.002,-0.689 0.005,-1.379 0.013,-2.068 0.002,-0.128 0.048,-0.254 0.051,-0.382 0.011,-0.502 0.01,-0.501 0.521,-0.493 1.714,0.028 3.428,0.061 5.142,0.076 1.461,0.013 2.922,-0.008 4.383,0.01 0.396,0.005 0.79,0.13 1.187,0.138 0.652,0.013 1.311,0.024 1.956,-0.052 0.91,-0.108 1.805,-0.223 2.729,-0.114 0.591,0.07 1.198,0.013 1.797,0.015 0.409,0 0.818,0.013 1.227,0.001 0.36,-0.011 0.72,-0.05 1.147,-0.081"
   style="fill:#ffffff;fill-rule:nonzero"
   id="path142" />
            </g>
            <g
   transform="matrix(1.33333,0,0,1.33333,792.572,142.782)"
   id="g148">
                <path
   d="M 0,0.82 C 0.116,0.884 0.193,0.927 0.275,0.972 0.389,0.515 1.124,0.187 1.608,0.24 1.753,0.257 1.9,0.259 2.047,0.261 2.626,0.268 2.68,0.216 2.697,-0.345 2.699,-0.41 2.703,-0.475 2.708,-0.568 3.111,-0.614 3.5,-0.664 3.865,-0.407 c 0.11,0.077 0.274,0.114 0.414,0.118 0.44,0.013 0.887,0.041 1.319,-0.014 0.29,-0.038 0.566,-0.196 0.838,-0.32 0.189,-0.086 0.361,-0.205 0.605,-0.348 0,0.913 10e-4,1.719 0,2.525 0,0.062 -0.01,0.124 -0.018,0.221 C 6.844,1.765 6.673,1.791 6.532,1.74 5.701,1.44 4.84,1.316 3.958,1.293 3.879,1.291 3.783,1.296 3.724,1.258 3.484,1.102 3.257,1.109 3.006,1.237 2.92,1.281 2.797,1.267 2.691,1.267 2.237,1.268 1.782,1.248 1.329,1.269 1.05,1.282 1.004,1.255 0.95,0.833 0.816,0.955 0.7,1.109 0.543,1.188 0.38,1.27 0.176,1.279 -0.056,1.33 -0.041,1.189 -0.023,1.03 0,0.82"
   style="fill:#ffffff;fill-rule:nonzero"
   id="path146" />
            </g>
            <g
   transform="matrix(1.33333,0,0,1.33333,801.798,133.521)"
   id="g152">
                <path
   d="M 0,3.031 C -0.146,2.806 -0.278,2.641 -0.362,2.456 -0.406,2.361 -0.383,2.226 -0.358,2.116 -0.324,1.967 -0.239,1.828 -0.213,1.679 -0.144,1.287 -0.331,1.107 -0.771,1.151 -0.556,0.762 -0.635,0.236 0,0 Z"
   style="fill:#ffffff;fill-rule:nonzero"
   id="path150" />
            </g>
            <g
   transform="matrix(1.33333,0,0,1.33333,799.05,137.577)"
   id="g156">
                <path
   d="M 0,-0.871 C 0.195,-0.965 0.334,-1.033 0.501,-1.114 0.75,-0.67 0.981,-0.258 1.262,0.243 0.811,0.138 0.461,0.057 -0.016,-0.053 0.225,-0.204 0.366,-0.294 0.533,-0.398 0.373,-0.54 0.204,-0.69 0,-0.871"
   style="fill:#ffffff;fill-rule:nonzero"
   id="path154" />
            </g>
            <g
   transform="matrix(1.33333,0,0,1.33333,800.484,138.423)"
   id="g160">
                <path
   d="M 0,-1.429 C 0.444,-1.308 1.02,-0.478 0.971,0 0.394,-0.359 0.384,-1.019 0,-1.429"
   style="fill:#ffffff;fill-rule:nonzero"
   id="path158" />
            </g>
            <g
   transform="matrix(1.33333,0,0,1.33333,798.633,137.138)"
   id="g164">
                <path
   d="m 0,-0.395 c -0.212,0.167 -0.424,0.333 -0.636,0.5 0.001,-0.448 0.197,-0.605 0.636,-0.5"
   style="fill:#ffffff;fill-rule:nonzero"
   id="path162" />
            </g>
            <g
   transform="matrix(-1.33333,0,0,1.33333,780.662,126.027)"
   id="g168">
                <path
   d="M -0.718,0.288 H 0.026 L 0.022,0.128 C -0.239,0.071 -0.5,0 -0.744,0.185 Z"
   style="fill:#811e33;fill-rule:nonzero"
   id="path166" />
            </g>
            <g
   transform="matrix(0.139887,1.32597,1.32597,-0.139887,795.63,185.595)"
   id="g172">
                <path
   d="M 0.484,-0.186 C 0.229,-0.071 0.155,0.31 0.353,0.46 0.389,0.486 0.465,0.51 0.484,0.491 0.524,0.453 0.565,0.383 0.56,0.33 0.548,0.168 0.514,0.008 0.484,-0.186"
   style="fill:#811e33;fill-rule:nonzero"
   id="path170" />
            </g>
            <g
   transform="matrix(1.33333,0,0,1.33333,798.397,146.629)"
   id="g176">
                <path
   d="M 0,0.094 C 0.429,-0.294 0.855,-0.047 1.269,0.052 1.331,0.066 1.356,0.218 1.437,0.388 0.908,0.28 0.47,0.19 0,0.094"
   style="fill:#811e33;fill-rule:nonzero"
   id="path174" />
            </g>
            <g
   transform="matrix(-1.08184,0.77936,0.77936,1.08184,779.533,136.363)"
   id="g180">
                <path
   d="m 0.564,-0.488 c -0.251,0.126 -0.46,0.23 -0.653,0.327 0.224,0.059 0.435,0.124 0.653,0.162 0.034,0.006 0.144,-0.121 0.135,-0.167 -0.023,-0.12 -0.094,-0.23 -0.135,-0.322"
   style="fill:#811e33;fill-rule:nonzero"
   id="path178" />
            </g>
            <g
   transform="matrix(1.33333,0,0,1.33333,782.205,144.473)"
   id="g184">
                <path
   d="m 0,-1.015 c 1.242,0.199 2.484,0.399 3.784,0.608 C 3.682,-0.902 4,-0.746 4.221,-0.742 4.176,-0.615 4.13,-0.486 4.055,-0.277 2.678,0 1.356,-0.606 -0.013,-0.914 -0.009,-0.947 -0.004,-0.981 0,-1.015"
   style="fill:#811e33;fill-rule:nonzero"
   id="path182" />
            </g>
        </g>
    </g>
</svg>
