<?xml version="1.0" encoding="UTF-8" standalone="no"?>
<svg
   width="29.27726"
   height="29.27726"
   viewBox="0 0 29.27726 29.27726"
   version="1.1"
   xml:space="preserve"
   style="clip-rule:evenodd;fill-rule:evenodd"
   id="svg93"
   sodipodi:docname="statue.svg"
   inkscape:version="1.1.1 (3bf5ae0d25, 2021-09-20)"
   xmlns:inkscape="http://www.inkscape.org/namespaces/inkscape"
   xmlns:sodipodi="http://sodipodi.sourceforge.net/DTD/sodipodi-0.dtd"
   xmlns="http://www.w3.org/2000/svg"
   xmlns:svg="http://www.w3.org/2000/svg"><defs
   id="defs97" /><sodipodi:namedview
   id="namedview95"
   pagecolor="#ffffff"
   bordercolor="#666666"
   borderopacity="1.0"
   inkscape:pageshadow="2"
   inkscape:pageopacity="0.0"
   inkscape:pagecheckerboard="0"
   showgrid="false"
   inkscape:zoom="24.294118"
   inkscape:cx="15.826877"
   inkscape:cy="17.041162"
   inkscape:window-width="1920"
   inkscape:window-height="1012"
   inkscape:window-x="-8"
   inkscape:window-y="-8"
   inkscape:window-maximized="1"
   inkscape:current-layer="svg93" />
    <g
   transform="rotate(90,646.32904,203.92063)"
   id="g91">
        <g
   id="g89">
            <g
   transform="matrix(-1.33333,0,0,1.33333,1593.09,620.212)"
   id="g4">
                <rect
   x="841.34399"
   y="150.86099"
   width="21.378"
   height="21.378"
   style="fill:#ffffff"
   id="rect2" />
            </g>
            <g
   transform="matrix(1.33333,0,0,1.33333,-602.996,111.012)"
   id="g83">
                <clipPath
   id="_clip1">
                    <rect
   x="784.34302"
   y="532.76001"
   width="21.378"
   height="21.379"
   clip-rule="nonzero"
   id="rect6" />
                </clipPath>
                <g
   clip-path="url(#_clip1)"
   id="g81">
                    <g
   transform="matrix(0,1,1,0,805.722,554.139)"
   id="g11">
                        <rect
   x="-21.378"
   y="-21.378"
   width="21.378"
   height="21.378"
   style="fill:none;stroke:#811e33;stroke-width:0.58px"
   id="rect9" />
                    </g>
                    <g
   transform="translate(800.612,540.048)"
   id="g15">
                        <path
   d="M 0,5.154 C 0.11,4.724 0.107,4.212 -0.014,3.976 -0.12,4.398 -0.042,4.776 0,5.154 M 6.027,5.496 C 6.336,5.479 6.419,5.445 6.467,5.303 6.501,5.203 6.452,5.146 6.376,5.111 6.343,5.194 6.317,5.259 6.282,5.347 6.163,5.236 6.101,5.064 5.919,5.154 5.953,5.261 5.985,5.365 6.027,5.496 M 0.148,7.397 C 0.09,7.684 0.239,8.028 -0.16,8.167 0.013,8.203 0.187,8.238 0.329,8.267 0.27,7.983 0.213,7.709 0.148,7.397 m -11.51,-1.692 c -0.053,0.581 -0.102,1.118 -0.151,1.655 0.232,-0.486 0.086,-1.032 0.306,-1.522 -0.038,-0.033 -0.078,-0.067 -0.155,-0.133 m 5.049,1.539 C -6.82,7.212 -7.318,7.18 -7.791,7.15 c 0.366,0.179 1.001,0.225 1.478,0.094 m 1.884,-1.63 c -0.107,-0.604 -0.42,-1.081 -0.89,-1.461 0.445,0.396 0.591,0.976 0.89,1.461 M -1.34,3.721 C -1.363,3.737 -1.387,3.753 -1.411,3.769 -1.349,4.032 -1.342,4.318 -1.074,4.5 -1.019,4.383 -0.971,4.281 -0.935,4.204 -1.078,4.034 -1.209,3.878 -1.34,3.721 M 2.632,-3.275 2.705,-3.298 C 2.78,-3.565 2.896,-3.827 2.811,-4.163 2.752,-4.09 2.701,-4.051 2.686,-4.001 2.67,-3.954 2.69,-3.895 2.696,-3.827 2.623,-3.859 2.578,-3.878 2.498,-3.913 c 0.051,0.241 0.092,0.44 0.134,0.638 M 0.158,0.616 C -0.082,0.604 -0.26,0.594 -0.45,0.585 -0.359,0.881 -0.276,0.953 0.048,1.028 0.08,0.908 0.113,0.786 0.158,0.616 m -8.147,10.956 c 0.059,-0.176 0.109,-0.326 0.157,-0.47 h -0.651 c -0.014,0.024 -0.029,0.047 -0.044,0.071 0.289,0.071 0.353,0.298 0.431,0.517 0.031,0.09 0.083,0.16 0.195,0.129 0.026,-0.007 0.047,-0.035 0.077,-0.059 -0.057,-0.065 -0.106,-0.122 -0.165,-0.188 M -3.393,0.42 c 0.041,0.168 0.077,0.308 0.124,0.496 -0.08,-0.056 -0.113,-0.079 -0.143,-0.1 -0.078,0.082 -0.155,0.163 -0.25,0.262 0.121,0.096 0.238,0.189 0.419,0.332 C -3.259,1.038 -2.972,0.78 -3.137,0.435 -3.212,0.431 -3.285,0.426 -3.393,0.42 m 3.388,1.567 C 0.03,1.827 0.067,1.691 0.087,1.552 0.125,1.288 0.092,1.258 -0.215,1.235 c -0.253,0.531 -0.17,0.619 0.21,0.752 m -8.484,9.814 c 0.12,-0.074 0.111,-0.176 0.068,-0.283 -0.064,-0.158 -0.193,-0.099 -0.298,-0.082 -0.063,-0.078 -0.119,-0.147 -0.212,-0.265 0.024,0.378 -0.284,0.456 -0.473,0.704 0.28,-0.032 0.497,-0.057 0.711,-0.082 0.006,-0.079 0.01,-0.141 0.014,-0.202 0.017,-0.004 0.034,-0.007 0.051,-0.01 0.044,0.069 0.088,0.138 0.139,0.22 M -7.591,0.384 c -0.114,0.058 -0.19,0.097 -0.284,0.145 0.056,0.036 0.089,0.058 0.136,0.089 -0.047,0.079 -0.094,0.159 -0.164,0.278 0.343,-0.042 0.262,0.247 0.373,0.419 0.131,-0.061 0.253,-0.117 0.388,-0.18 C -7.3,0.87 -7.438,0.64 -7.591,0.384 m 7.365,2.519 c 0.052,-0.176 0.088,-0.301 0.124,-0.426 0.076,-0.261 0.06,-0.298 -0.184,-0.391 -0.071,-0.027 -0.147,-0.065 -0.22,-0.063 -0.079,0.003 -0.179,0.028 -0.228,0.082 -0.032,0.035 -0.012,0.156 0.026,0.208 0.141,0.192 0.3,0.371 0.482,0.59 M -7.191,4.22 c 0.037,0.007 0.075,0.016 0.113,0.019 0.529,0.053 0.981,0.254 1.295,0.698 0.159,0.224 0.308,0.457 0.442,0.696 0.118,0.209 0.208,0.434 0.316,0.664 C -5.006,6.258 -4.989,6.239 -4.99,6.22 -4.992,6.177 -4.998,6.132 -5.01,6.09 -5.156,5.583 -5.41,5.13 -5.771,4.751 -6.15,4.355 -6.59,4.062 -7.191,4.22 M -8.72,-4.745 c 0.114,0.085 0.114,0.088 0.596,0.102 0.087,0.003 0.175,-0.039 0.317,-0.073 -0.135,-0.197 -0.235,-0.344 -0.378,-0.553 -0.06,0.121 -0.099,0.2 -0.115,0.232 -0.174,-0.036 -0.285,-0.068 -0.398,-0.078 -0.049,-0.004 -0.101,0.04 -0.152,0.062 0.034,0.047 0.063,0.098 0.105,0.138 0.025,0.023 0.069,0.026 0.111,0.04 -0.038,0.058 -0.062,0.094 -0.086,0.13 M 1.369,-4.957 c -0.28,-0.422 -0.801,-0.575 -0.967,-1.055 0.032,0.361 0.063,0.723 0.095,1.084 h 0.032 c 0.015,-0.086 0.031,-0.171 0.054,-0.296 0.103,0.115 0.174,0.195 0.239,0.267 z M -9.771,5.685 C -9.463,5.504 -9.466,5.5 -9.538,5.24 -9.608,4.985 -9.67,4.727 -9.726,4.468 -9.781,4.218 -9.822,3.965 -9.869,3.713 -9.93,3.769 -9.938,3.82 -9.939,3.871 c -0.009,0.275 -0.023,0.55 -0.022,0.824 10e-4,0.129 -0.015,0.296 0.055,0.379 0.153,0.183 0.125,0.38 0.135,0.611 m -2.762,-10.473 c 0.344,-0.013 0.687,-0.107 1.029,0.014 0.046,0.017 0.107,-0.003 0.16,-0.014 0.279,-0.058 0.279,-0.058 0.441,0.194 0.035,-0.133 0.068,-0.254 0.099,-0.372 -0.245,-0.243 -0.245,-0.243 -0.667,-0.034 -0.046,-0.047 -0.094,-0.098 -0.147,-0.155 -0.086,0.058 -0.158,0.105 -0.233,0.156 -0.078,-0.064 -0.149,-0.124 -0.231,-0.192 -0.125,0.183 -0.427,0.128 -0.451,0.403 m 0.161,5.026 c -0.292,-0.076 -0.548,0.001 -0.8,0.057 -0.161,0.037 -0.168,0.151 -0.09,0.303 0.112,0.219 0.303,0.174 0.483,0.176 0.36,0.005 0.384,-0.016 0.415,-0.378 0.003,-0.043 -0.004,-0.086 -0.008,-0.158 M 7.472,11.058 C 7.557,10.778 7.523,10.622 7.38,10.55 7.268,10.495 7.193,10.542 7.146,10.645 c 0.125,0.263 0.156,0.587 0.503,0.696 0.025,-0.093 0.045,-0.164 0.065,-0.236 0.011,0.003 0.022,0.006 0.034,0.009 0.014,0.196 0.028,0.393 0.042,0.589 C 8.028,11.325 7.813,10.938 7.885,10.55 7.956,10.169 7.932,9.761 7.865,9.33 7.83,9.477 7.799,9.578 7.784,9.681 7.769,9.778 7.733,9.898 7.773,9.97 7.905,10.209 7.786,10.416 7.732,10.634 7.721,10.675 7.674,10.725 7.686,10.75 7.78,10.942 7.622,10.969 7.472,11.058 M -9.168,-4.577 c 0.09,-0.156 0.213,-0.254 0.112,-0.398 -0.088,-0.126 -0.196,-0.165 -0.368,-0.124 -0.187,0.045 -0.408,0.058 -0.585,-0.003 -0.186,-0.064 -0.305,-0.02 -0.425,0.087 -0.088,-0.037 -0.161,-0.069 -0.243,-0.104 -0.002,0.304 0.03,0.372 0.173,0.391 0.162,0.021 0.269,-0.045 0.331,-0.205 0.174,0.139 0.464,0.096 0.547,0.422 0.067,-0.141 0.107,-0.224 0.141,-0.296 0.106,0.076 0.197,0.142 0.317,0.23 m 4.104,16.445 c 0.119,-0.04 0.185,-0.066 0.252,-0.084 0.061,-0.017 0.126,-0.039 0.187,-0.034 0.249,0.02 0.498,0.056 0.747,0.073 0.261,0.016 0.487,-0.094 0.709,-0.21 0.017,-0.254 -0.069,-0.414 -0.371,-0.478 0.008,0.101 -0.004,0.183 0.021,0.251 0.078,0.212 0.084,0.21 -0.152,0.285 -0.046,-0.155 -0.092,-0.309 -0.127,-0.43 -0.267,0.091 -0.522,0.184 -0.781,0.265 -0.184,0.058 -0.337,0.152 -0.485,0.362 m 3.216,-8.729 c 0.41,0.354 0.793,0.684 1.176,1.014 0.015,-0.016 0.03,-0.032 0.045,-0.048 C -0.714,4.012 -0.801,3.92 -0.853,3.865 -0.801,3.627 -0.758,3.432 -0.716,3.239 -0.668,3.243 -0.623,3.248 -0.501,3.26 -0.654,3.132 -0.736,3.034 -0.84,2.985 -0.928,2.943 -1.043,2.957 -1.147,2.947 V 2.807 C -1.367,2.911 -1.574,3.01 -1.848,3.139 M -3.388,1.786 C -3.674,1.549 -3.967,1.305 -4.282,1.043 c 0.016,0.094 0.027,0.154 0.041,0.234 -0.093,0.016 -0.174,0.03 -0.261,0.045 0,0.121 -0.044,0.264 0.008,0.327 0.271,0.328 0.59,0.589 1.059,0.546 0.016,-0.138 0.03,-0.264 0.047,-0.409 m -5.31,-1.879 c -0.123,-0.006 -0.189,-0.011 -0.255,-0.011 -0.108,0 -0.235,0.04 -0.319,-0.004 -0.079,-0.042 -0.115,-0.168 -0.177,-0.269 -0.066,0.307 -0.104,0.347 -0.435,0.473 0.049,0.159 0.097,0.319 0.152,0.502 0.372,-0.031 0.716,-0.06 1.063,-0.089 -0.01,-0.221 -0.019,-0.403 -0.029,-0.602 m 2.848,5.891 c -0.31,0.207 -0.621,0.409 -0.925,0.622 -0.088,0.062 -0.159,0.152 -0.23,0.236 -0.096,0.113 -0.05,0.21 0.06,0.274 0.229,0.133 0.651,0.026 0.797,-0.196 C -6.034,6.56 -5.925,6.383 -5.806,6.213 -5.711,6.076 -5.708,5.953 -5.85,5.798 M -9.011,2.679 c -0.15,0.112 -0.303,0.219 -0.444,0.34 -0.054,0.047 -0.107,0.126 -0.111,0.193 -0.02,0.338 -0.032,0.677 0.072,1.043 0.24,-0.28 0.474,-0.526 0.672,-0.798 0.066,-0.091 0.046,-0.247 0.056,-0.374 0.008,-0.1 10e-4,-0.201 10e-4,-0.305 C -8.823,2.754 -8.899,2.724 -9.011,2.679 m -1.977,1.338 c 0.352,-0.357 0.7,-0.709 1.022,-1.034 -0.091,-0.101 -0.174,-0.191 -0.255,-0.284 -0.088,-0.102 -0.173,-0.205 -0.262,-0.311 -0.186,0.115 -0.327,0.218 -0.481,0.293 -0.184,0.089 -0.222,0.274 -0.202,0.414 0.027,0.193 0.026,0.394 0.093,0.582 0.037,0.106 0.055,0.219 0.085,0.34 M -11.05,0 c -0.375,0.134 -0.713,0.253 -1.027,0.365 -0.077,0.28 0.04,0.407 0.247,0.499 0.613,0.272 1.03,0.188 1.472,-0.313 -0.07,-0.141 -0.141,-0.283 -0.21,-0.423 -0.112,0.034 -0.204,0.063 -0.294,0.091 C -10.935,0.134 -10.998,0.06 -11.05,0 m 8.071,3.058 -0.049,0.031 c 0.168,0.37 0.361,0.731 0.498,1.113 0.138,0.387 0.22,0.795 0.337,1.233 C -2.062,5.258 -1.96,5.118 -1.856,4.978 -1.752,4.839 -1.647,4.7 -1.542,4.56 -1.509,4.578 -1.476,4.596 -1.443,4.614 -1.477,4.468 -1.472,4.295 -1.553,4.184 -1.653,4.046 -1.46,3.925 -1.591,3.794 -1.726,3.658 -1.822,3.482 -1.944,3.31 -2.051,3.388 -2.147,3.502 -2.193,3.484 -2.411,3.402 -2.468,3.582 -2.561,3.668 -2.699,3.466 -2.839,3.262 -2.979,3.058 m -4.236,8.497 c 0.204,0.071 0.414,0.048 0.546,0.232 0.028,0.038 0.126,0.04 0.19,0.035 0.344,-0.026 0.715,0.078 1.012,-0.198 0.021,-0.02 0.066,-0.036 0.091,-0.028 0.176,0.057 0.287,-0.067 0.422,-0.136 0.154,-0.079 0.326,-0.123 0.487,-0.19 0.152,-0.064 0.303,-0.131 0.447,-0.21 0.086,-0.046 0.121,-0.126 0.057,-0.223 -0.407,0.283 -0.322,0.318 -0.8,0.173 -0.039,0.053 -0.078,0.107 -0.127,0.175 -0.115,-0.192 -0.041,-0.321 0.087,-0.442 -0.153,-0.028 -0.228,0.024 -0.283,0.165 -0.077,0.2 -0.223,0.254 -0.42,0.194 -0.104,-0.032 -0.206,-0.069 -0.337,-0.114 -0.023,0.27 -0.251,0.249 -0.386,0.345 -0.078,-0.052 -0.172,-0.142 -0.196,-0.126 -0.208,0.138 -0.317,-0.065 -0.441,-0.119 -0.273,0.05 -0.426,0.216 -0.555,0.417 -0.057,0.09 -0.069,0.177 0.03,0.225 0.152,0.074 0.149,-0.061 0.176,-0.175 M 2.799,-1.987 2.734,-2.038 C 2.512,-1.955 2.326,-1.834 2.33,-1.557 2.334,-1.316 2.365,-1.075 2.367,-0.834 2.37,-0.59 2.326,-0.343 2.349,-0.102 2.372,0.141 2.418,0.377 2.373,0.625 2.343,0.791 2.367,0.967 2.367,1.145 2.432,1.132 2.48,1.122 2.574,1.104 2.288,1.433 2.325,1.782 2.372,2.147 2.464,2.1 2.532,2.064 2.624,2.017 2.656,2.252 2.688,2.473 2.525,2.61 2.299,2.8 2.352,3.048 2.325,3.277 2.307,3.428 2.411,3.483 2.596,3.459 2.462,3.169 2.455,3.045 2.626,2.975 2.907,2.86 2.886,2.658 2.85,2.431 2.841,2.369 2.823,2.291 2.849,2.243 2.965,2.031 2.914,1.816 2.889,1.598 2.856,1.316 2.777,1.028 2.81,0.753 2.86,0.355 2.883,-0.033 2.798,-0.424 2.777,-0.519 2.73,-0.61 2.686,-0.725 2.919,-0.802 2.794,-1.037 2.823,-1.219 2.855,-1.418 2.909,-1.638 2.655,-1.746 2.704,-1.829 2.752,-1.908 2.799,-1.987 M -8.847,6.397 c 0.045,-0.102 0.07,-0.134 0.072,-0.166 0.022,-0.309 0.049,-0.617 0.057,-0.925 0.008,-0.323 0.115,-0.602 0.314,-0.852 0.341,-0.43 0.759,-0.769 1.225,-1.052 0.113,-0.069 0.233,-0.126 0.344,-0.198 0.126,-0.082 0.09,-0.154 -0.01,-0.209 -0.185,0.103 -0.356,0.197 -0.52,0.288 -0.17,-0.113 -0.169,-0.1 -0.357,-0.084 -0.079,0.006 -0.163,-0.06 -0.282,-0.107 -0.089,0.047 -0.23,0.095 -0.338,0.184 -0.374,0.31 -0.717,0.651 -0.981,1.066 -0.118,0.186 -0.138,0.357 -0.064,0.562 0.105,0.29 0.18,0.591 0.281,0.882 0.064,0.185 0.152,0.362 0.259,0.611 M -3.65,3.227 C -3.661,3.371 -3.543,3.562 -3.688,3.524 -3.87,3.476 -3.831,3.627 -3.903,3.661 -4.066,3.738 -4.108,3.548 -4.225,3.563 -4.246,3.565 -4.268,3.576 -4.286,3.587 -4.403,3.661 -4.5,3.594 -4.594,3.538 -4.774,3.431 -4.949,3.313 -5.13,3.207 -5.301,3.106 -5.474,3.009 -5.652,2.921 -5.697,2.899 -5.763,2.918 -5.819,2.918 c 0.057,0.093 0.134,0.123 0.201,0.168 0.256,0.17 0.531,0.32 0.755,0.525 0.21,0.191 0.372,0.437 0.543,0.668 0.31,0.419 0.586,0.856 0.668,1.389 0.029,0.189 0.093,0.373 0.154,0.607 0.351,-0.27 0.651,-0.498 0.945,-0.732 0.037,-0.03 0.062,-0.099 0.061,-0.149 C -2.507,4.902 -2.583,4.422 -2.88,4.013 -2.985,3.869 -3.08,3.739 -3.034,3.597 -3.259,3.462 -3.454,3.345 -3.65,3.227 M 4.095,2.363 4.062,2.333 C 4.086,2.243 4.11,2.152 4.135,2.055 4.069,2.059 4.029,2.061 3.989,2.064 3.985,2.047 3.982,2.031 3.978,2.014 4.078,1.958 4.177,1.902 4.302,1.832 4.015,1.694 3.993,1.426 3.884,1.205 3.902,1.192 3.92,1.178 3.938,1.165 4.041,1.291 4.145,1.417 4.255,1.55 4.255,1.418 4.258,1.308 4.252,1.198 4.25,1.159 4.233,1.108 4.204,1.086 3.96,0.895 3.922,0.605 3.837,0.338 4.104,0.233 4.266,0.084 4.236,-0.098 4.203,-0.3 4.292,-0.382 4.453,-0.443 4.509,-0.464 4.558,-0.499 4.615,-0.53 4.581,-0.566 4.567,-0.594 4.553,-0.594 c -0.32,0 -0.491,-0.178 -0.496,-0.514 0,-0.012 -0.025,-0.024 -0.042,-0.039 -0.047,0.056 -0.094,0.112 -0.134,0.16 C 3.827,-1.082 3.777,-1.17 3.714,-1.28 3.639,-1.178 3.587,-1.061 3.549,-1.066 3.401,-1.082 3.393,-0.976 3.35,-0.892 3.296,-0.785 3.233,-0.683 3.182,-0.575 3.154,-0.518 3.127,-0.453 3.126,-0.391 3.12,-0.05 3.122,0.293 3.12,0.634 3.111,1.595 3.097,2.555 3.096,3.516 3.096,3.733 3.099,3.96 3.229,4.158 3.261,4.071 3.262,3.984 3.276,3.9 3.33,3.587 3.273,3.232 3.622,3.03 3.679,2.997 3.7,2.901 3.734,2.833 3.782,2.736 3.827,2.638 3.897,2.489 4.014,2.663 4.112,2.597 4.199,2.501 4.271,2.422 4.332,2.334 4.243,2.206 4.182,2.27 4.138,2.317 4.095,2.363 m -5.127,8.434 c -0.094,0.103 -0.173,0.19 -0.249,0.274 -0.229,-0.155 -0.434,-0.293 -0.668,-0.451 -0.047,0.126 -0.087,0.231 -0.124,0.328 -0.407,0.155 -0.407,0.155 -0.685,-0.183 0.019,0.21 0.035,0.367 0.048,0.516 -0.144,0.167 -0.283,0.327 -0.421,0.487 0.461,-0.138 0.928,0.053 1.375,-0.076 -0.024,-0.079 -0.045,-0.145 -0.068,-0.221 0.279,-0.106 0.229,0.238 0.414,0.267 0.057,-0.152 0.112,-0.301 0.166,-0.449 0.26,0.032 0.26,0.032 0.348,0.262 0.039,-0.015 0.078,-0.032 0.118,-0.044 0.039,-0.012 0.079,-0.019 0.123,-0.029 0.058,0.084 0.108,0.155 0.141,0.201 0.303,0.036 0.579,0.067 0.858,0.1 0.011,-0.082 0.022,-0.162 0.036,-0.259 0.107,0.026 0.189,0.045 0.254,0.061 0.011,0.083 0.019,0.142 0.027,0.207 0.24,0.02 0.459,0.051 0.677,0.052 C 1.81,11.843 2.281,11.835 2.751,11.821 2.894,11.817 2.912,11.718 2.899,11.584 2.867,11.246 2.836,10.906 2.841,10.568 2.848,10.151 2.917,9.734 2.914,9.318 2.908,8.526 2.877,7.733 2.842,6.941 2.83,6.678 2.781,6.415 2.735,6.155 2.706,5.99 2.731,5.85 2.841,5.723 2.86,5.702 2.861,5.665 2.87,5.638 2.816,5.562 2.766,5.492 2.715,5.42 2.665,5.456 2.622,5.487 2.577,5.519 2.563,5.438 2.55,5.361 2.529,5.24 2.338,5.5 2.288,5.723 2.334,5.979 2.366,6.162 2.359,6.354 2.36,6.542 2.363,7.003 2.357,7.464 2.362,7.926 2.365,8.223 2.429,8.528 2.38,8.815 c -0.083,0.489 0.011,0.963 0.018,1.393 0.111,0.037 0.219,0.04 0.26,0.093 0.085,0.11 0.019,0.214 -0.194,0.345 C 2.427,10.597 2.389,10.547 2.345,10.489 2.299,10.551 2.269,10.63 2.214,10.657 2.149,10.688 2.062,10.674 1.985,10.679 2.325,10.818 2.325,10.818 2.32,11.126 2.215,11.051 2.123,10.984 2.034,10.92 1.935,11 1.848,11.069 1.726,11.168 1.714,10.984 1.962,10.824 1.694,10.713 1.644,10.819 1.599,10.912 1.539,11.038 1.367,10.923 1.217,10.822 1.056,10.715 0.958,10.802 0.871,10.878 0.768,10.97 0.758,10.878 0.752,10.815 0.745,10.742 0.54,10.707 0.339,10.673 0.152,10.641 c -0.01,0.085 0.011,0.205 -0.032,0.237 -0.161,0.119 -0.347,0.146 -0.585,0.053 0.13,-0.077 0.219,-0.13 0.309,-0.184 -0.007,-0.02 -0.013,-0.041 -0.02,-0.061 h -0.57 c 0.041,0.04 0.074,0.064 0.094,0.095 0.028,0.043 0.046,0.092 0.068,0.139 -0.223,0.108 -0.223,0.108 -0.448,-0.123 M 6.091,2.091 C 5.859,1.801 6.041,1.541 6.09,1.273 6.023,1.269 5.939,1.29 5.897,1.257 5.805,1.182 5.747,1.066 5.653,0.995 5.566,0.93 5.451,0.87 5.349,0.871 5.296,0.872 5.243,1.009 5.195,1.088 5.163,1.14 5.14,1.197 5.103,1.27 5.024,1.211 4.966,1.168 4.901,1.119 4.872,1.161 4.848,1.197 4.823,1.233 4.694,1.424 4.454,1.585 4.649,1.869 4.663,1.891 4.625,1.948 4.612,1.989 4.518,2.28 4.423,2.572 4.332,2.853 4.424,2.981 4.5,3.087 4.57,3.185 4.495,3.4 4.425,3.599 4.354,3.802 4.51,3.847 4.581,3.812 4.599,3.681 4.613,3.582 4.635,3.484 4.654,3.386 4.677,3.388 4.701,3.389 4.724,3.391 4.734,3.459 4.744,3.526 4.753,3.59 4.846,3.608 4.936,3.626 5.027,3.644 V 4.023 C 5.307,4.081 5.56,4.174 5.866,4.126 5.783,3.998 5.72,3.9 5.64,3.776 5.822,3.785 5.943,3.791 6.065,3.797 5.808,3.944 5.992,4.127 6.015,4.27 5.862,4.339 5.729,4.399 5.596,4.459 5.64,4.489 5.683,4.52 5.727,4.551 5.514,4.511 5.303,4.465 5.089,4.434 4.883,4.404 4.837,4.475 4.911,4.681 4.929,4.73 4.952,4.776 4.978,4.835 H 4.8 C 4.835,4.981 4.87,5.121 4.903,5.261 5.06,5.261 5.17,5.268 5.279,5.258 5.351,5.252 5.45,5.243 5.485,5.196 5.638,4.996 5.771,4.781 5.911,4.572 5.928,4.547 5.946,4.523 5.966,4.496 6.007,4.565 6.043,4.626 6.088,4.701 6.231,4.578 6.098,4.337 6.34,4.269 6.235,4.602 6.579,4.556 6.693,4.739 V 5.064 C 6.912,4.965 7.091,4.885 7.275,4.801 7.257,4.752 7.24,4.724 7.236,4.693 7.232,4.668 7.243,4.641 7.25,4.601 7.315,4.635 7.362,4.663 7.412,4.684 7.76,4.83 7.814,4.908 7.705,5.254 7.631,5.486 7.604,5.705 7.715,5.925 7.787,6.066 7.662,6.106 7.594,6.166 7.708,6.345 7.814,6.511 7.928,6.689 7.711,6.904 7.679,7.148 7.735,7.428 7.776,7.63 7.776,7.844 7.776,8.052 7.777,8.358 7.802,8.683 7.397,8.806 7.289,8.744 7.168,8.674 7.06,8.611 7.02,8.789 6.983,8.952 6.94,9.147 7.017,9.161 7.137,9.216 7.235,9.189 7.289,9.173 7.304,9.019 7.348,8.895 7.477,8.92 7.612,8.945 7.756,8.972 7.704,9.064 7.666,9.132 7.623,9.209 7.79,9.274 7.87,9.205 7.898,9.084 7.925,8.968 7.924,8.845 7.931,8.724 7.963,8.155 7.825,7.578 8.017,7.016 8.027,6.987 8.02,6.951 8.018,6.918 7.98,6.14 8.004,5.357 7.839,4.589 7.828,4.541 7.855,4.482 7.873,4.431 7.907,4.336 7.959,3.566 7.927,3.477 7.909,3.429 7.876,3.389 7.83,3.313 7.754,3.422 7.7,3.501 7.637,3.591 7.514,3.331 7.8,3.239 7.818,3.051 7.837,2.864 7.863,2.677 7.891,2.444 7.801,2.52 7.75,2.563 7.733,2.577 7.547,2.271 7.372,1.977 7.188,1.689 7.152,1.632 7.08,1.598 6.98,1.518 6.98,1.624 6.978,1.672 6.981,1.721 6.984,1.777 6.991,1.833 7.001,1.938 6.839,1.838 6.723,1.765 6.604,1.692 6.615,1.606 6.806,1.596 6.702,1.451 6.506,1.548 6.311,1.644 6.113,1.741 6.156,1.781 6.222,1.84 6.298,1.911 6.224,1.975 6.167,2.024 6.091,2.091 m 1.267,-4.407 c -0.018,0.081 -0.013,0.209 -0.146,0.143 -0.146,-0.072 -0.128,0.049 -0.164,0.095 0.096,0.131 0.183,0.248 0.29,0.393 0.082,-0.133 0.132,-0.251 0.215,-0.337 0.105,-0.109 0.226,-0.126 0.331,0.058 -0.097,0.043 -0.178,0.08 -0.259,0.117 0.012,0.198 0.082,0.327 0.327,0.312 0.023,-0.091 0.067,-0.184 0.068,-0.278 0.008,-0.54 0.013,-1.08 0.006,-1.62 C 8.018,-4.007 7.996,-4.581 7.979,-5.156 7.976,-5.244 7.975,-5.334 7.956,-5.419 7.863,-5.814 7.865,-5.952 7.983,-6.349 7.998,-6.401 7.997,-6.458 8,-6.513 8.015,-6.778 8.039,-7.041 8.039,-7.306 8.039,-7.469 8.017,-7.637 7.973,-7.794 7.956,-7.852 7.85,-7.914 7.779,-7.922 7.257,-7.981 6.733,-7.996 6.206,-7.983 5.877,-7.975 5.553,-7.945 5.227,-7.92 4.709,-7.882 4.191,-7.85 3.672,-7.935 3.466,-7.969 3.254,-7.989 3.047,-7.981 2.253,-7.947 1.46,-7.899 0.666,-7.857 0.6,-7.853 0.534,-7.848 0.468,-7.851 c -0.496,-0.024 -0.993,-0.04 -1.487,-0.081 -0.163,-0.013 -0.268,0.04 -0.361,0.125 0.086,0.159 0.149,0.305 0.242,0.43 0.033,0.044 0.137,0.035 0.224,0.054 0.102,0.43 0.566,0.543 0.847,0.869 -0.284,0.195 -0.558,-0.087 -0.813,-0.004 l -0.018,0.073 c 0.114,0.067 0.228,0.133 0.367,0.213 -0.059,0.053 -0.1,0.088 -0.14,0.124 0.062,0.055 0.119,0.104 0.159,0.14 -0.058,0.336 -0.253,0.43 -0.554,0.4 -0.189,-0.018 -0.383,0.012 -0.591,0.022 0.247,0.112 0.461,0.209 0.676,0.306 0.018,-0.065 -0.126,-0.194 0.045,-0.215 0.061,-0.007 0.161,0.075 0.192,0.14 0.028,0.059 -0.014,0.151 -0.031,0.267 0.025,0.031 0.181,0.021 0.171,0.14 h -1.734 c 0.06,-0.146 0.188,-0.127 0.309,-0.132 0.251,-0.009 0.502,-0.022 0.752,-0.033 0.004,-0.026 0.008,-0.052 0.012,-0.078 -0.084,-0.02 -0.211,-0.085 -0.243,-0.053 -0.117,0.117 -0.192,0.028 -0.291,-0.01 -0.079,-0.031 -0.18,-0.05 -0.258,-0.029 -0.242,0.066 -0.476,0.034 -0.718,0.006 -0.099,-0.012 -0.214,0.071 -0.314,0.127 -0.091,0.05 -0.111,0.131 -0.044,0.22 0.139,0.031 0.276,0.061 0.41,0.091 0.061,-0.082 0.118,-0.157 0.172,-0.229 0.088,0.045 0.155,0.079 0.223,0.113 -0.05,0.045 -0.099,0.09 -0.199,0.181 0.286,0.017 0.537,-0.304 0.713,0.023 0.121,-0.023 0.24,-0.075 0.35,-0.06 0.291,0.04 0.577,0.115 0.874,0.007 0.146,0.216 0.19,0.441 0.173,0.675 -0.011,0.152 -0.038,0.289 0.083,0.423 0.05,0.057 0.029,0.178 0.043,0.287 -0.366,0.041 -0.693,0.077 -1.042,0.115 0.053,-0.139 0.087,-0.227 0.117,-0.304 -0.109,-0.129 -0.2,-0.237 -0.304,-0.36 -0.239,0.04 -0.523,-0.038 -0.689,0.232 -0.085,-0.061 -0.159,-0.158 -0.246,-0.17 -0.456,-0.064 -0.916,-0.151 -1.373,-0.143 -0.334,0.006 -0.659,10e-4 -0.983,-0.069 -0.136,-0.029 -0.212,0.021 -0.247,0.149 -0.018,0.064 -0.037,0.127 -0.055,0.191 -0.063,0.214 -0.063,0.214 0.198,0.31 0.093,-0.075 -0.08,-0.374 0.222,-0.277 0.114,0.348 0.102,0.377 -0.232,0.375 -0.174,-10e-4 -0.348,-0.051 -0.523,-0.06 -0.231,-0.01 -0.293,-0.148 -0.312,-0.347 -0.016,-0.172 -0.052,-0.342 -0.079,-0.51 -0.462,0.045 -0.481,0.083 -0.246,0.439 0.016,0.024 0.023,0.055 0.021,0.05 -0.112,0.056 -0.238,0.08 -0.303,0.157 -0.159,0.19 -0.38,0.225 -0.592,0.258 -0.211,0.034 -0.441,0.137 -0.643,-0.05 -0.026,-0.024 -0.078,-0.019 -0.14,-0.032 0.032,0.067 0.051,0.107 0.071,0.149 -0.229,0.072 -0.263,-0.16 -0.404,-0.265 -0.078,0.248 -0.237,0.288 -0.451,0.24 -0.209,-0.046 -0.424,-0.094 -0.629,0.033 -0.003,0.002 -0.054,-0.074 -0.083,-0.113 0.104,-0.044 0.208,-0.089 0.328,-0.139 -0.028,-0.082 -0.054,-0.161 -0.062,-0.184 -0.135,-0.014 -0.255,0.009 -0.322,-0.04 -0.17,-0.124 -0.342,-0.08 -0.522,-0.05 0.113,0.06 0.25,0.058 0.344,0.121 0.102,0.068 0.164,0.196 0.244,0.298 -0.382,0.005 -0.765,0.011 -1.146,0.016 -0.381,0.003 -0.726,-0.187 -1.11,-0.198 -0.161,-0.005 -0.321,-0.165 -0.474,-0.266 -0.022,-0.014 0.002,-0.096 0.005,-0.146 -0.127,-0.054 -0.252,-0.106 -0.428,-0.18 0.249,0.448 0.752,0.636 0.836,1.206 0.03,-0.161 0.045,-0.243 0.06,-0.323 0.298,-0.109 0.514,0.118 0.783,0.133 -0.176,0.176 -0.337,0.337 -0.493,0.493 -0.137,-0.066 -0.23,-0.112 -0.35,-0.17 -0.011,0.198 -0.008,0.356 0.143,0.478 0.15,-0.083 0.318,-0.14 0.431,-0.251 0.118,-0.118 0.223,-0.1 0.357,-0.082 0.415,0.058 0.83,0.117 1.247,0.155 0.839,0.076 1.677,0.023 2.514,-0.061 0.108,-0.01 0.217,0.007 0.248,-0.154 0.009,-0.048 0.162,-0.123 0.206,-0.1 0.29,0.148 0.607,0.096 0.909,0.143 0.48,0.073 0.967,0.103 1.449,0.159 0.081,0.009 0.156,0.058 0.234,0.088 l 0.006,-0.008 c -0.63,-0.004 -1.26,0 -1.874,-0.177 -0.069,-0.02 -0.152,-0.026 -0.221,-0.008 -0.94,0.246 -1.901,0.276 -2.864,0.27 -0.172,-10e-4 -0.343,-0.018 -0.589,-0.033 0.334,0.3 0.601,0.559 0.887,0.793 0.153,0.125 0.26,0.257 0.305,0.454 0.022,0.098 0.12,0.26 0.171,0.255 0.285,-0.027 0.517,0.25 0.821,0.12 0.069,-0.03 0.228,0.04 0.286,0.112 0.268,0.332 0.553,0.659 0.685,1.077 0.117,0.371 0.384,0.616 0.686,0.826 0.267,0.185 0.354,0.162 0.552,-0.089 0.102,-0.131 0.202,-0.264 0.306,-0.393 0.04,-0.049 0.082,-0.119 0.134,-0.132 0.194,-0.045 0.277,-0.191 0.375,-0.341 0.243,-0.37 0.568,-0.588 1.04,-0.581 0.267,0.004 0.45,0.16 0.652,0.264 0.568,-0.249 0.989,0.042 0.941,0.636 -0.016,0.198 -0.047,0.395 -0.065,0.593 -0.028,0.294 -0.057,0.589 0.064,0.896 0.483,-0.319 0.855,-0.665 0.783,-1.29 -0.02,-0.176 -0.003,-0.357 -0.003,-0.554 0.544,0.226 0.903,0.157 0.976,-0.155 -0.194,0.013 -0.39,0.037 -0.585,0.037 -0.294,0 -0.356,-0.063 -0.418,-0.342 0.15,-0.146 0.284,-0.277 0.414,-0.405 0.213,0.096 -0.046,0.362 0.191,0.458 0.021,-0.077 0.053,-0.148 0.057,-0.22 0.044,-0.631 0.182,-1.258 0.067,-1.895 -0.024,-0.13 -0.029,-0.264 -0.034,-0.396 -0.025,-0.766 -0.128,-1.522 -0.307,-2.267 -0.043,-0.176 -0.097,-0.35 -0.133,-0.48 0.232,-0.444 0.451,-0.864 0.679,-1.302 0.124,0.371 0.437,0.547 0.685,0.767 0.266,0.235 0.598,0.381 0.796,0.712 0.134,0.225 0.351,0.413 0.646,0.377 -0.011,0.247 -0.019,0.482 0.07,0.693 0.335,0.07 0.186,-0.303 0.376,-0.368 0.03,-0.01 0.021,-0.139 0.027,-0.214 C 2.795,-4.94 2.646,-5.103 2.434,-5.236 2.529,-5.29 2.596,-5.328 2.678,-5.375 2.364,-5.62 2.006,-5.412 1.707,-5.594 h 1.409 c 0.017,0.804 0.035,1.629 0.052,2.467 0.351,-0.085 0.355,0.264 0.545,0.364 C 3.828,-2.86 3.942,-2.955 4.053,-3.048 3.923,-3.132 3.802,-3.212 3.679,-3.292 3.634,-3.243 3.589,-3.195 3.543,-3.146 3.378,-3.277 3.264,-3.412 3.263,-3.605 3.262,-3.846 3.267,-4.088 3.286,-4.328 3.296,-4.454 3.342,-4.578 3.378,-4.731 3.171,-4.993 3.3,-5.328 3.315,-5.649 c 0.002,-0.038 0.068,-0.097 0.11,-0.102 0.044,-0.006 0.118,0.031 0.135,0.069 0.029,0.063 0.03,0.142 0.028,0.214 -0.005,0.163 -0.019,0.325 -0.03,0.487 0.226,0.089 -0.012,0.303 0.113,0.418 0.008,0.008 0.02,0.01 0.053,0.026 0.198,-0.126 0.326,-0.396 0.615,-0.402 0.044,0.165 0.012,0.365 0.227,0.438 0.038,-0.112 0.071,-0.208 0.105,-0.307 0.117,0.036 0.197,0.06 0.259,0.079 0.133,-0.097 0.162,-0.303 0.375,-0.234 0.025,0.008 0.084,-0.065 0.114,-0.108 0.08,-0.115 0.152,-0.235 0.254,-0.395 0.145,0.08 0.282,0.159 0.423,0.231 0.023,0.012 0.059,-0.005 0.09,-0.008 -0.008,-0.1 -0.015,-0.189 -0.022,-0.277 0.136,-0.028 0.219,0.023 0.208,0.125 -0.019,0.18 0.009,0.319 0.177,0.416 0.028,0.016 0.014,0.102 0.019,0.151 -0.154,0.072 -0.295,0.137 -0.462,0.214 0.053,-0.119 0.092,-0.205 0.135,-0.302 -0.159,-0.127 -0.306,-0.246 -0.443,-0.357 -0.128,0.192 -0.237,0.356 -0.386,0.578 0.167,-0.069 0.261,-0.108 0.383,-0.158 0.007,0.124 0.012,0.215 0.018,0.31 H 5.498 C 5.443,-4.191 5.443,-4.191 5.313,-4.102 5.304,-4.279 5.294,-4.456 5.284,-4.646 4.824,-4.588 4.533,-4.349 4.323,-4.019 4.251,-3.904 4.185,-3.863 4.069,-3.861 3.944,-3.86 3.903,-3.951 3.867,-4.048 3.825,-4.159 3.779,-4.269 3.736,-4.38 3.611,-4.371 3.509,-4.363 3.39,-4.354 c 0.074,0.184 0.139,0.348 0.21,0.524 0.059,-0.016 0.128,-0.035 0.221,-0.06 -0.019,0.092 -0.032,0.16 -0.046,0.229 0.09,0 0.208,-0.025 0.223,0.004 0.06,0.119 0.089,0.255 0.125,0.369 0.096,0.088 0.235,0.16 0.267,0.264 0.032,0.104 -0.044,0.241 -0.08,0.397 0.029,0.038 0.072,0.092 0.155,0.2 0.016,-0.437 0.065,-0.466 0.401,-0.338 0.11,0.423 0.11,0.423 -0.241,0.348 -0.057,0.268 -0.279,0.357 -0.508,0.389 -0.233,0.032 -0.473,0.007 -0.755,0.007 0.01,0.096 0.021,0.21 0.037,0.382 0.122,-0.098 0.187,-0.149 0.251,-0.2 0.27,0.043 0.547,0.052 0.703,0.347 0.031,0.059 0.205,0.084 0.291,0.057 0.067,-0.02 0.14,-0.147 0.141,-0.227 0.002,-0.201 0.056,-0.36 0.201,-0.505 C 5.047,-2.228 5.096,-2.35 5.081,-2.431 5.044,-2.625 5.122,-2.686 5.294,-2.723 5.659,-2.802 5.953,-3.027 6.248,-3.24 6.353,-3.315 6.384,-3.426 6.371,-3.563 6.344,-3.839 6.335,-4.116 6.327,-4.393 6.326,-4.44 6.364,-4.489 6.382,-4.533 c 0.084,0.015 0.146,0.026 0.232,0.042 -0.021,-0.236 0.081,-0.384 0.315,-0.428 -0.196,-0.209 -0.196,-0.209 -0.01,-0.342 0.01,0.005 0.022,0.008 0.029,0.016 0.014,0.016 0.029,0.033 0.038,0.052 0.114,0.252 0.113,0.25 0.359,0.186 C 7.469,-5.039 7.594,-5.064 7.77,-5.104 7.649,-4.848 7.817,-4.589 7.612,-4.382 7.533,-4.414 7.466,-4.442 7.417,-4.462 7.32,-4.39 7.241,-4.282 7.159,-4.279 6.949,-4.273 6.843,-4.153 6.731,-4 c 0.047,0.117 0.091,0.229 0.135,0.341 L 6.82,-3.636 C 6.749,-3.715 6.678,-3.794 6.556,-3.929 v 1.05 c -0.06,0.103 -0.117,0.207 -0.181,0.307 -0.059,0.092 -0.012,0.141 0.061,0.184 0.137,0.075 0.273,0.15 0.461,0.253 -0.068,-0.164 -0.112,-0.268 -0.153,-0.366 0.111,-0.008 0.2,-0.015 0.26,-0.019 0.131,0.078 0.248,0.148 0.364,0.217 z m -1.564,1.244 c 0.036,0.092 0.049,0.236 0.113,0.264 0.142,0.064 0.168,0.148 0.211,0.287 0.047,0.152 0.042,0.273 -0.003,0.409 C 6.085,-0.019 6.062,0.075 6.029,0.167 6.02,0.193 5.989,0.211 5.964,0.239 5.915,0.168 5.872,0.106 5.829,0.043 5.772,0.127 5.76,0.202 5.786,0.259 5.836,0.368 5.913,0.465 5.969,0.572 6.076,0.775 6.227,0.879 6.467,0.891 6.625,0.899 6.769,0.782 6.93,0.859 6.941,0.864 6.982,0.807 7.011,0.775 7.17,1.007 7.313,1.219 7.483,1.469 7.505,1.406 7.53,1.337 7.55,1.277 7.724,1.411 7.732,1.612 7.918,1.629 7.936,1.602 7.957,1.584 7.957,1.567 7.961,1.019 7.963,0.472 7.964,-0.076 7.964,-0.128 7.955,-0.181 7.96,-0.233 7.974,-0.371 8.016,-0.511 8.006,-0.647 7.97,-1.152 7.827,-1.274 7.383,-1.152 7.091,-1.325 6.817,-1.504 6.529,-1.653 6.244,-1.8 6.089,-2.123 5.757,-2.192 5.704,-1.817 5.704,-1.817 5.845,-1.522 5.964,-1.272 5.963,-1.26 5.786,-1.064 5.767,-1.091 5.728,-1.122 5.732,-1.144 5.785,-1.393 5.612,-1.477 5.439,-1.571 5.321,-1.635 5.213,-1.717 5.093,-1.795 c -0.013,0.016 -0.036,0.031 -0.039,0.05 -0.042,0.255 -0.086,0.511 -0.12,0.768 -0.017,0.135 0.112,0.278 0.251,0.292 0.101,0.01 0.202,0.014 0.302,0.021 -0.008,-0.163 -0.016,-0.319 -0.025,-0.505 0.147,0.043 0.239,0.07 0.332,0.097 m -13.44,6.451 c -0.233,0.197 -0.466,0.394 -0.7,0.59 0.123,0.123 0.172,0.18 0.19,0.246 0.045,0.159 0.083,0.321 0.109,0.484 0.021,0.136 0.104,0.181 0.223,0.204 0.236,0.046 0.4,-0.076 0.558,-0.225 C -6.864,6.299 -6.443,5.943 -5.959,5.667 -5.87,5.616 -5.797,5.534 -5.706,5.457 -5.849,5.272 -5.969,5.115 -6.09,4.96 -6.164,4.863 -6.261,4.813 -6.38,4.859 -6.719,4.991 -7.056,5.126 -7.393,5.263 -7.484,5.3 -7.57,5.348 -7.658,5.391 c 0.257,-0.161 0.51,-0.329 0.773,-0.479 0.148,-0.085 0.313,-0.142 0.53,-0.237 -0.39,-0.157 -0.695,-0.13 -0.999,0.05 -0.268,0.158 -0.272,0.493 -0.554,0.703 0.137,-0.025 0.2,-0.037 0.262,-0.049 m 14.689,7.299 c 0.012,-0.084 0.024,-0.168 0.036,-0.251 0.066,-0.079 0.133,-0.158 0.189,-0.225 0.099,0.163 0.2,0.283 0.251,0.421 0.103,0.277 0.128,0.572 0.088,0.862 -0.022,0.157 -0.053,0.279 0.061,0.427 0.114,0.146 0.018,0.261 -0.177,0.259 C 7.304,14.169 7.117,14.179 6.93,14.178 6.875,14.177 6.82,14.155 6.765,14.142 c 0,-0.024 0,-0.049 -10e-4,-0.073 C 6.905,14.044 7.046,14.02 7.174,13.998 7.148,13.889 7.133,13.797 7.104,13.709 7.063,13.587 7.037,13.444 6.955,13.356 6.908,13.306 6.763,13.347 6.644,13.347 6.787,12.844 6.33,12.856 6.099,12.677 5.92,12.768 5.756,12.851 5.567,12.948 5.567,12.771 5.536,12.617 5.576,12.483 5.609,12.368 5.601,12.276 5.529,12.211 5.38,12.078 5.293,11.908 5.195,11.742 5.185,11.725 5.16,11.716 5.144,11.701 5.009,11.564 4.839,11.462 4.764,11.263 4.74,11.198 4.63,11.163 4.555,11.12 4.495,11.086 4.429,11.063 4.292,11.002 c 0.267,-0.054 0.453,-0.091 0.639,-0.129 0.081,0.278 0.09,0.271 0.432,0.668 0.184,0.213 0.351,0.428 0.738,0.378 -0.109,0.141 -0.182,0.234 -0.276,0.355 0.029,0.05 0.066,0.111 0.102,0.171 0.03,-0.016 0.06,-0.033 0.089,-0.05 0.088,-0.16 0.176,-0.321 0.262,-0.476 C 6.227,11.82 6.049,11.811 6.138,11.653 6.154,11.624 6.12,11.526 6.089,11.515 5.964,11.469 5.939,11.407 5.997,11.288 6.016,11.251 5.997,11.175 5.967,11.139 5.842,10.988 5.706,10.846 5.578,10.706 5.268,10.862 5.268,10.862 5.17,10.781 5.251,10.682 5.337,10.586 5.412,10.483 5.441,10.443 5.476,10.365 5.458,10.341 5.306,10.14 5.455,10.101 5.601,10.061 5.771,10.013 5.941,9.971 6.081,9.934 6.18,9.785 6.263,9.661 6.364,9.51 6.117,9.471 5.888,9.435 5.65,9.397 5.636,9.245 5.623,9.115 5.612,9.005 5.777,8.917 5.922,8.841 6.067,8.765 6.079,8.777 6.092,8.79 6.105,8.802 5.984,8.937 5.864,9.073 5.746,9.205 5.954,9.401 6.023,9.184 6.124,9.14 6.273,9.155 6.237,9.419 6.448,9.334 6.461,9.272 6.451,9.176 6.494,9.132 6.754,8.872 6.897,8.547 7.027,8.213 7.033,8.197 7.023,8.174 7.018,8.136 H 6.815 C 6.843,7.94 6.869,7.757 6.898,7.555 7.005,7.56 7.146,7.545 7.186,7.355 H 6.993 C 6.959,7.268 6.95,7.155 6.891,7.112 6.723,6.992 6.69,6.81 6.62,6.641 6.597,6.587 6.544,6.547 6.505,6.5 L 6.514,6.508 C 6.439,6.402 6.364,6.297 6.294,6.198 6.301,6.193 6.358,6.149 6.483,6.052 6.344,6.036 6.249,5.998 6.222,6.026 6.072,6.178 5.907,6.144 5.77,6.113 5.643,5.93 5.534,5.775 5.421,5.611 5.336,5.733 5.281,5.812 5.213,5.909 5.032,5.657 4.881,5.446 4.695,5.186 4.654,5.503 4.621,5.755 4.588,6.007 4.388,6.035 4.388,6.035 4.237,5.921 4.299,5.885 4.357,5.857 4.41,5.823 4.525,5.748 4.542,5.625 4.472,5.534 4.399,5.437 4.283,5.329 4.175,5.315 4.04,5.299 4.091,5.461 4.067,5.549 4.058,5.579 4.036,5.606 3.988,5.694 3.933,5.565 3.88,5.501 3.888,5.446 3.898,5.369 3.956,5.299 3.986,5.24 3.847,5.2 3.73,5.166 3.612,5.132 3.552,5.632 3.552,5.632 3.346,5.713 3.303,5.482 3.261,5.254 3.219,5.026 3.089,6.192 3.107,7.349 3.12,8.508 3.133,9.666 3.109,10.825 3.156,11.985 3.32,11.839 3.327,11.649 3.326,11.47 3.321,11.009 3.285,10.548 3.29,10.087 3.292,9.857 3.239,9.614 3.363,9.393 c 0.031,0.312 0.093,0.614 0.056,0.934 -0.035,0.304 -0.063,0.631 0.124,0.915 -0.135,0.352 -0.131,0.437 0.047,0.634 0.052,-0.159 0.1,-0.307 0.151,-0.462 0.194,0.156 0.116,0.394 0.13,0.578 C 3.884,12.166 3.746,12.351 3.668,12.55 3.541,12.39 3.613,12.151 3.42,12.053 3.225,12.205 3.04,12.349 2.844,12.5 v -0.496 c -0.105,-0.01 -0.192,-0.026 -0.28,-0.025 -0.828,0.007 -1.655,0.024 -2.483,0.023 -0.883,-0.001 -1.766,-0.022 -2.65,-0.025 -0.694,-0.002 -1.389,0.007 -2.084,0.019 -0.096,0.002 -0.192,0.048 -0.289,0.074 l 0.015,0.093 h 0.98 c 10e-4,0.026 0.002,0.052 0.003,0.078 -0.426,0.154 -0.92,-0.059 -1.319,0.196 0.04,0.116 0.127,0.237 0.096,0.311 -0.036,0.089 -0.172,0.138 -0.264,0.204 0.024,0.042 0.048,0.083 0.074,0.126 -0.189,0.011 -0.354,0.012 -0.515,0.034 -0.045,0.006 -0.088,0.065 -0.12,0.108 -0.08,0.106 -0.162,0.212 -0.224,0.329 -0.05,0.093 -0.101,0.203 -0.099,0.304 0.005,0.196 0.043,0.392 0.075,0.586 0.027,0.162 0.113,0.247 0.295,0.243 0.596,-0.014 1.192,-0.014 1.788,-0.022 0.652,-0.01 1.303,-0.031 1.954,-0.032 0.574,-10e-4 1.148,0.033 1.722,0.029 1.07,-0.008 2.14,-0.031 3.211,-0.05 0.229,-0.003 0.458,-0.01 0.687,-0.023 0.283,-0.016 0.571,-0.088 0.845,-0.052 0.618,0.082 1.233,0.011 1.849,0.019 0.516,0.007 1.033,-0.074 1.55,-0.094 C 8.068,14.442 7.988,14.395 8.04,14.072 8.057,13.965 8.035,13.851 8.023,13.741 7.991,13.468 7.929,13.194 7.927,12.921 7.926,12.716 7.869,12.609 7.628,12.611 7.672,12.466 7.712,12.354 7.739,12.239 7.802,11.964 7.697,11.84 7.403,11.832 7.499,11.75 7.595,11.668 7.694,11.584 7.562,11.496 7.456,11.443 7.372,11.366 7.202,11.209 7.119,11.202 6.961,11.361 6.882,11.441 6.849,11.582 6.678,11.585 6.661,11.317 6.299,11.184 6.453,10.868 6.38,10.843 6.33,10.826 6.271,10.805 6.307,10.774 6.338,10.748 6.349,10.739 6.323,10.604 6.238,10.427 6.289,10.37 6.44,10.2 6.462,9.848 6.828,9.926 6.86,9.933 6.916,9.826 6.955,9.779 7.138,9.807 7.309,9.9 7.483,9.74 7.431,9.686 7.389,9.642 7.347,9.597 7.575,9.463 7.575,9.459 7.41,9.25 7.269,9.357 7.127,9.464 6.967,9.585 6.979,9.481 6.986,9.416 6.993,9.35 6.91,9.385 6.88,9.438 6.847,9.487 6.79,9.574 6.737,9.723 6.669,9.731 6.542,9.745 6.51,9.832 6.442,9.896 6.257,10.065 6.09,10.254 5.88,10.396 5.685,10.528 5.678,10.631 5.832,10.83 c 0.027,0.035 0.053,0.07 0.081,0.105 0.176,0.209 0.381,0.395 0.429,0.693 0.013,0.084 0.142,0.2 0.227,0.21 0.165,0.017 0.337,-0.031 0.506,-0.052 -0.255,0.21 -0.509,0.42 -0.759,0.628 0.145,0.157 0.281,0.308 0.422,0.455 0.074,0.076 0.159,0.082 0.223,-0.011 0.037,-0.054 0.055,-0.12 0.082,-0.18 M -17.088,-9.574 H 8.308 C 8.305,-9.497 8.3,-9.419 8.3,-9.342 c 0,2.681 0,5.361 10e-4,8.042 0,5.206 0,10.412 -10e-4,15.619 0,0.138 -0.004,0.277 -0.006,0.408 h -24.376 c 0.076,-0.044 0.1,-0.07 0.125,-0.071 0.396,-0.01 0.792,-0.023 1.188,-0.023 1.049,-10e-4 2.096,0.003 3.144,0.01 0.861,0.005 1.721,0.02 2.582,0.027 0.817,0.007 1.634,0.012 2.451,0.01 0.079,-10e-4 0.174,-0.035 0.231,-0.086 0.084,-0.076 0.009,-0.153 -0.036,-0.232 -0.141,-0.251 -0.21,-0.518 -0.044,-0.783 0.146,-0.233 0.313,-0.452 0.465,-0.682 0.031,-0.047 0.032,-0.114 0.048,-0.172 -0.064,0.016 -0.097,0.045 -0.12,0.079 -0.131,0.192 -0.261,0.385 -0.39,0.578 -0.08,0.12 -0.174,0.132 -0.272,0.029 -0.044,-0.045 -0.071,-0.107 -0.108,-0.165 0.402,-0.114 0.476,-0.501 0.704,-0.766 -0.212,0.012 -0.405,0.096 -0.597,0.095 -0.19,-0.002 -0.38,-0.046 -0.571,-0.004 -0.144,-0.189 -0.397,0.123 -0.529,-0.117 0.006,0.052 0.013,0.103 0.02,0.166 -0.253,-0.079 -0.487,-0.152 -0.752,-0.235 0.056,0.099 0.089,0.158 0.128,0.226 -0.166,0.034 -0.302,0.062 -0.457,0.093 -0.271,-0.37 -0.608,-0.497 -1.03,-0.219 0.022,0.067 0.054,0.148 0.073,0.232 0.005,0.02 -0.03,0.049 -0.048,0.075 -0.059,-0.067 -0.112,-0.125 -0.164,-0.183 -0.081,0.066 -0.141,0.116 -0.225,0.185 0.003,-0.233 0.286,-0.352 0.073,-0.612 0.255,0 0.45,0.002 0.644,0 0.919,-0.011 1.835,-0.077 2.757,-0.013 0.353,0.024 0.719,-0.001 1.079,0.012 0.118,0.004 0.146,-0.064 0.161,-0.178 -0.077,-0.01 -0.14,-0.025 -0.203,-0.025 -0.606,0.004 -1.213,0.013 -1.82,0.014 -0.861,0.002 -1.722,-0.002 -2.583,-0.003 -0.781,-0.002 -1.563,0.002 -2.344,-0.009 -0.273,-0.004 -0.545,-0.047 -0.817,-0.072 0,-0.025 -10e-4,-0.05 -10e-4,-0.075 0.105,-0.024 0.211,-0.072 0.315,-0.067 0.349,0.015 0.696,0.052 1.045,0.075 0.087,0.005 0.175,-0.013 0.263,-0.022 0.156,-0.014 0.24,-0.095 0.242,-0.256 0,-0.012 0.034,-0.022 0.052,-0.033 0.088,0.037 0.177,0.074 0.231,0.096 0.033,0.098 0.056,0.165 0.076,0.224 0.166,0 0.308,0.003 0.449,0 0.149,-0.004 0.305,0.014 0.425,-0.109 0.008,-0.008 0.045,0.003 0.061,0.015 0.214,0.159 0.422,0 0.58,-0.076 0.168,-0.082 0.357,-0.259 0.304,-0.534 -0.253,0.058 -0.442,0.003 -0.584,-0.214 -0.091,-0.14 -0.221,-0.25 -0.381,-0.25 -0.142,0.092 -0.265,0.172 -0.336,0.217 -0.178,-0.102 -0.308,-0.17 -0.432,-0.248 -0.119,-0.076 -0.214,-10e-4 -0.322,0.014 -0.083,0.011 -0.198,-0.088 -0.325,-0.049 -0.093,0.029 -0.194,0.036 -0.291,0.034 -0.141,-0.004 -0.28,-0.025 -0.419,-0.039 -0.021,0.076 -0.034,0.127 -0.054,0.203 -0.114,-0.012 -0.228,-0.025 -0.37,-0.04 0.082,-0.213 0,-0.35 -0.102,-0.487 -0.078,-0.105 -0.181,-0.219 -0.194,-0.338 -0.047,-0.417 -0.062,-0.837 -0.087,-1.257 -0.013,-0.218 -0.02,-0.436 -0.029,-0.655 -0.009,-0.231 -0.032,-0.463 -0.024,-0.693 0.01,-0.331 0.053,-0.661 0.063,-0.992 0.014,-0.496 0.009,-0.992 0.017,-1.488 0.006,-0.296 -0.013,-0.588 -0.042,-0.885 -0.046,-0.468 -0.025,-0.947 0.007,-1.419 0.028,-0.394 -0.076,-0.786 0.039,-1.186 0.08,-0.281 -0.063,-0.458 -0.318,-0.564 -0.103,-0.347 0.033,-0.632 0.208,-0.909 0.04,-0.063 0.102,-0.153 0.084,-0.205 -0.123,-0.348 -0.021,-0.702 -0.045,-1.052 -0.01,-0.152 0.001,-0.298 0.12,-0.34 -0.05,-0.199 -0.122,-0.361 -0.126,-0.525 -0.018,-0.662 -0.009,-1.326 -0.023,-1.989 -0.005,-0.209 0.025,-0.371 0.249,-0.442 0.023,-0.007 0.036,-0.049 0.077,-0.11 -0.076,-0.046 -0.152,-0.091 -0.217,-0.129 0.052,-0.112 0.086,-0.183 0.119,-0.255 -0.019,-0.015 -0.039,-0.03 -0.058,-0.045 -0.13,0.146 -0.26,0.292 -0.409,0.459 -0.038,-0.071 -0.081,-0.127 -0.072,-0.139 0.081,-0.098 0.171,-0.187 0.261,-0.283 -0.143,-0.013 -0.279,-0.026 -0.415,-0.039 l 0.011,0.008 c 0.104,-0.028 0.209,-0.078 0.314,-0.08 1.213,-0.023 2.426,-0.041 3.639,-0.053 0.261,-0.003 0.523,0.04 0.783,0.026 0.438,-0.023 0.873,-0.098 1.315,-0.025 0.182,0.03 0.371,0.018 0.556,0.017 0.404,-0.001 0.808,-0.009 1.212,-0.01 0.081,-0.001 0.184,-0.013 0.192,0.114 -0.256,0.057 -0.508,0.113 -0.76,0.169 0.393,0.107 0.78,0.16 1.168,0.2 0.294,0.03 0.591,0.041 0.885,0.069 0.074,0.007 0.159,0.027 0.214,0.072 0.171,0.138 0.319,0.111 0.472,-0.025 0.029,-0.025 0.077,-0.028 0.118,-0.042 0.023,0.073 0.041,0.13 0.065,0.207 0.132,-0.025 0.25,-0.047 0.367,-0.07 -0.002,-0.018 -0.004,-0.036 -0.007,-0.054 -0.078,-0.012 -0.156,-0.024 -0.232,-0.036 0.039,-0.125 0.072,-0.226 0.102,-0.328 0.08,-0.273 0.141,-0.315 0.423,-0.306 0.286,0.009 0.573,0.016 0.859,0.016 0.054,0 0.108,-0.041 0.183,-0.072 -0.315,-0.158 -1.919,-0.109 -3.079,-0.112 -1.023,-0.003 -2.048,0.005 -3.072,-0.014 -1.023,-0.02 -2.048,0.012 -3.072,0.016 -1.021,0.004 -2.042,0.001 -3.068,0.001 0.036,-0.134 0.066,-0.243 0.104,-0.379 0.141,0.21 0.303,0.281 0.528,0.237 0.151,-0.029 0.31,-0.026 0.464,-0.015 0.263,0.017 0.51,0.008 0.669,-0.246 0.239,0.232 0.334,0.252 0.793,0.175 0.036,-0.068 0.073,-0.135 0.109,-0.202 l 0.075,-0.133 c 0.265,-0.097 0.33,-0.025 0.328,0.381 0.294,0 0.589,0.006 0.884,-0.005 0.063,-0.002 0.133,-0.056 0.185,-0.103 0.131,-0.119 0.254,-0.246 0.38,-0.37 l 0.064,0.038 c -0.013,0.135 -0.026,0.271 -0.042,0.439 0.168,0.016 0.33,0.05 0.491,0.043 0.557,-0.022 1.113,-0.058 1.67,-0.091 0.135,-0.009 0.27,-0.024 0.405,-0.041 0.249,-0.029 0.468,0.108 0.712,0.125 0.318,0.022 0.62,0.039 0.841,-0.213 0.087,0.04 0.153,0.075 0.221,0.102 0.208,0.084 0.426,0.071 0.644,0.076 0.273,0.007 0.545,0.054 0.817,0.05 0.29,-0.004 0.575,-0.085 0.87,-0.077 0.092,0.003 0.187,-0.049 0.28,-0.081 0.015,-0.005 0.021,-0.034 0.039,-0.068 -0.04,-0.049 -0.084,-0.102 -0.132,-0.159 -0.051,0.064 -0.085,0.107 -0.119,0.15 -0.038,-0.112 0.009,-0.212 -0.017,-0.288 -0.074,-0.222 0.072,-0.209 0.198,-0.237 0.031,0.072 0.058,0.177 0.08,0.176 0.116,-0.008 0.153,0.049 0.172,0.149 0.035,0.184 0.171,0.27 0.344,0.348 0.027,-0.078 0.05,-0.143 0.071,-0.203 0.226,0.088 0.437,0.171 0.662,0.26 0.085,-0.105 0.256,-0.121 0.187,-0.339 -0.03,-0.097 0.079,-0.239 0.125,-0.36 -0.026,-0.013 -0.052,-0.025 -0.077,-0.038 -0.105,0.168 -0.208,0.336 -0.319,0.514 -0.245,0.017 -0.247,0.018 -0.366,-0.088 -0.018,-0.016 -0.014,-0.057 -0.026,-0.112 0.079,0.025 0.138,0.044 0.178,0.057 0.122,-0.132 0.237,-0.257 0.316,-0.343 -0.037,-0.247 -0.068,-0.448 -0.1,-0.662 -0.06,-0.012 -0.129,-0.025 -0.199,-0.038 0.051,-0.26 0.051,-0.26 -0.303,-0.459 -0.011,-0.08 -0.023,-0.164 -0.039,-0.27 -0.083,0.036 -0.145,0.062 -0.216,0.094 -0.008,-0.085 -0.013,-0.147 -0.019,-0.214 -0.055,0 -0.099,10e-4 -0.142,0 -0.528,-0.012 -1.056,0.069 -1.583,-0.014 -0.166,-0.027 -0.307,0.003 -0.372,0.192 -0.013,0.037 -0.08,0.057 -0.149,0.103 -0.028,-0.106 -0.049,-0.181 -0.07,-0.261 -0.198,-0.009 -0.384,-0.005 -0.567,-0.028 -0.846,-0.109 -1.692,-0.143 -2.54,-0.023 -0.065,0.009 -0.131,0.007 -0.197,0.006 -0.386,-0.007 -0.772,-0.016 -1.159,-0.023 -0.285,-0.006 -0.572,10e-4 -0.857,-0.017 -0.146,-0.01 -0.23,0.037 -0.281,0.167 -0.003,0.009 -0.039,0.005 -0.082,0.009 -0.025,-0.057 -0.054,-0.12 -0.098,-0.217 -0.514,0.049 -1.042,0.1 -1.566,0.15 0.004,0.056 0.007,0.096 0.013,0.178 -0.237,-0.152 -0.52,0.074 -0.695,-0.192 -0.056,0.087 -0.099,0.154 -0.131,0.203 -0.157,-0.083 -0.283,-0.204 -0.415,-0.211 -0.494,-0.027 -0.99,-0.017 -1.485,-0.02 -0.033,-0.001 -0.068,-0.006 -0.099,0.004 -0.27,0.082 -0.554,0.039 -0.81,-0.005 -0.364,-0.062 -0.698,-0.04 -1.033,0.069 -0.161,0.314 -0.12,0.647 -0.118,0.978 0.007,0.873 -0.002,1.747 0.005,2.62 0.004,0.563 0.038,1.126 0.033,1.689 -0.005,0.675 -0.048,1.349 -0.052,2.024 -0.006,1.151 0.008,2.301 0.011,3.452 0.002,1.279 10e-4,2.558 0.003,3.837 10e-4,1.681 10e-4,3.363 0.007,5.043 0.002,0.476 0.028,0.951 0.033,1.426 0.003,0.276 -0.021,0.552 -0.021,0.829 0,0.183 0.007,0.372 0.164,0.538 0.153,-0.274 0.141,-0.547 0.091,-0.816 -0.069,-0.37 -0.037,-0.729 0.053,-1.163 0.068,0.107 0.115,0.147 0.116,0.19 0.013,0.347 0.015,0.695 0.024,1.043 0.002,0.106 0.016,0.213 0.019,0.32 0.001,0.041 0.001,0.107 -0.022,0.119 -0.188,0.103 -0.145,0.275 -0.125,0.454 h -0.795 v -23.97 c 0,-0.111 -0.005,-0.221 -0.008,-0.332"
   style="fill:#811e33;fill-rule:nonzero"
   id="path13" />
                    </g>
                    <g
   transform="translate(789.159,533.28)"
   id="g19">
                        <path
   d="M 0,0.833 C -0.197,0.84 -0.297,0.737 -0.26,0.55 -0.243,0.466 -0.193,0.389 -0.156,0.302 -0.113,0.327 -0.063,0.356 -0.023,0.378 0.155,0.307 0.014,0.029 0.282,-0.007 0.261,0.084 0.246,0.148 0.226,0.232 0.304,0.275 0.386,0.32 0.525,0.397 0.386,0.42 0.299,0.434 0.185,0.453 0.153,0.524 0.114,0.612 0.075,0.701 Z"
   style="fill:#811e33;fill-rule:nonzero"
   id="path17" />
                    </g>
                    <g
   transform="translate(786.766,543.99)"
   id="g23">
                        <path
   d="M 0,8.14 C -0.106,8.122 -0.211,8.105 -0.321,8.086 -0.359,8.132 -0.397,8.18 -0.448,8.242 -0.485,8.196 -0.532,8.165 -0.535,8.131 -0.561,7.816 -0.586,7.501 -0.6,7.185 -0.611,6.906 -0.607,6.626 -0.612,6.346 -0.612,6.314 -0.634,6.282 -0.633,6.251 -0.622,5.957 -0.605,5.662 -0.599,5.368 -0.59,4.962 -0.596,4.556 -0.584,4.151 -0.575,3.833 -0.543,3.517 -0.53,3.199 -0.523,3.034 -0.534,2.869 -0.533,2.703 -0.529,2.318 -0.52,1.933 -0.519,1.548 -0.518,1.141 -0.525,0.733 -0.528,0.325 c -0.001,-0.141 0,-0.283 0.061,-0.427 0.02,0.418 0.05,0.836 0.057,1.255 0.012,0.717 0.009,1.434 0.013,2.151 0.004,0.952 0.007,1.903 0.011,2.855 0.002,0.442 0.019,0.885 0.001,1.326 -0.01,0.256 0.06,0.43 0.304,0.524 0.038,0.015 0.068,0.049 0.101,0.074 C 0.014,8.102 0.007,8.121 0,8.14"
   style="fill:#811e33;fill-rule:nonzero"
   id="path21" />
                    </g>
                    <g
   transform="translate(786.34,541.536)"
   id="g27">
                        <path
   d="m 0,-7.021 v 7.019 c -0.025,0.001 -0.05,0.001 -0.075,0.002 -0.008,-0.356 -0.017,-0.712 -0.023,-1.068 -0.009,-0.597 -0.019,-1.194 -0.023,-1.791 -0.002,-0.35 0.008,-0.7 0.01,-1.05 0.002,-0.364 0.004,-0.728 -0.001,-1.092 C -0.121,-5.552 -0.143,-6.103 -0.144,-6.654 -0.145,-6.775 -0.211,-6.947 0,-7.021"
   style="fill:#811e33;fill-rule:nonzero"
   id="path25" />
                    </g>
                    <g
   transform="translate(786.602,547.696)"
   id="g31">
                        <path
   d="M 0,4.098 C -0.023,4.025 -0.067,3.953 -0.067,3.88 -0.073,2.951 -0.092,2.022 -0.065,1.094 -0.055,0.773 -0.13,0.43 0.049,0.125 0.064,0.1 0.087,0.08 0.158,0 0.162,0.165 0.194,0.279 0.16,0.369 0.071,0.611 0.094,0.85 0.13,1.093 0.139,1.158 0.162,1.238 0.136,1.288 0.034,1.479 0.088,1.673 0.087,1.871 0.085,2.362 0.051,2.854 0.043,3.346 0.04,3.585 0.067,3.825 0.081,4.065 0.054,4.076 0.027,4.087 0,4.098"
   style="fill:#811e33;fill-rule:nonzero"
   id="path29" />
                    </g>
                    <g
   transform="translate(792.955,553.208)"
   id="g35">
                        <path
   d="M 0,0.761 C -0.115,0.657 -0.185,0.593 -0.306,0.483 V 1.008 C -0.492,0.915 -0.277,0.56 -0.681,0.693 -0.53,0.437 -0.422,0.238 -0.298,0.049 -0.258,-0.012 -0.186,-0.063 -0.117,-0.09 0.009,-0.141 0.143,-0.247 0.278,-0.106 0.405,0.027 0.437,0.311 0.326,0.445 0.236,0.552 0.126,0.64 0,0.761"
   style="fill:#811e33;fill-rule:nonzero"
   id="path33" />
                    </g>
                    <g
   transform="translate(786.927,552.478)"
   id="g39">
                        <path
   d="m 0,-0.247 c 0.339,0.01 0.641,0.04 0.94,0.023 0.241,-0.015 0.487,0.077 0.725,-0.033 0.055,-0.025 0.131,-0.005 0.197,-0.004 0.273,0.005 0.546,0.015 0.818,0.015 0.215,0 0.215,-0.005 0.235,0.236 C 2.885,-0.003 2.844,0.019 2.825,0.006 2.662,-0.098 2.502,-0.133 2.3,-0.09 2.129,-0.052 1.94,-0.091 1.759,-0.099 1.727,-0.1 1.682,-0.125 1.664,-0.112 1.47,0.035 1.274,-0.016 1.063,-0.072 0.908,-0.114 0.737,-0.104 0.573,-0.105 0.457,-0.105 0.336,-0.098 0.224,-0.067 0.086,-0.03 0.053,-0.098 0,-0.247"
   style="fill:#811e33;fill-rule:nonzero"
   id="path37" />
                    </g>
                    <g
   transform="matrix(0.162429,-0.98672,-0.98672,-0.162429,795.888,534.109)"
   id="g43">
                        <path
   d="m -0.638,-0.62 c -0.125,0.429 -0.248,0.859 -0.176,1.368 0.229,-0.231 0.133,-0.488 0.176,-0.709 0.042,-0.216 0.053,-0.436 0.078,-0.655 -0.026,-0.002 -0.052,-0.003 -0.078,-0.004"
   style="fill:#811e33;fill-rule:nonzero"
   id="path41" />
                    </g>
                    <g
   transform="translate(786.271,543.557)"
   id="g47">
                        <path
   d="M 0,-1.495 C 0.125,-1.176 0.124,-0.354 0,0 Z"
   style="fill:#811e33;fill-rule:nonzero"
   id="path45" />
                    </g>
                    <g
   transform="matrix(0.691311,-0.722557,-0.722557,-0.691311,791.771,552.886)"
   id="g51">
                        <path
   d="M -0.344,-0.095 C -0.41,0.116 -0.456,0.264 -0.49,0.37 c 0.057,0.126 0.09,0.223 0.146,0.303 0.031,0.045 0.101,0.061 0.159,0.093 0.075,-0.309 0.011,-0.553 -0.159,-0.861"
   style="fill:#811e33;fill-rule:nonzero"
   id="path49" />
                    </g>
                    <g
   transform="translate(785.306,550.707)"
   id="g55">
                        <path
   d="M 0,-0.258 C 0.232,-0.373 0.276,-0.363 0.514,-0.145 0.326,0.115 0.247,0.098 0,-0.258"
   style="fill:#811e33;fill-rule:nonzero"
   id="path53" />
                    </g>
                    <g
   transform="matrix(-0.825125,-0.56495,-0.56495,0.825125,786.496,535.173)"
   id="g59">
                        <path
   d="m -0.157,-0.493 c -0.196,0.056 -0.083,0.277 -0.236,0.377 l 0.236,0.161 c 0.201,-0.053 0.185,-0.31 -0.013,-0.537 z"
   style="fill:#811e33;fill-rule:nonzero"
   id="path57" />
                    </g>
                    <g
   transform="translate(796.805,537.489)"
   id="g63">
                        <path
   d="M 0,0.185 C 0.215,0.169 0.43,0.142 0.646,0.139 1.42,0.129 2.193,0.111 2.952,-0.071 3.016,-0.087 3.084,-0.096 3.149,-0.094 3.284,-0.09 3.341,-0.017 3.318,0.185 3.183,-0.043 3.025,0.033 2.874,0.067 1.925,0.276 0.967,0.281 0.006,0.177 Z"
   style="fill:#811e33;fill-rule:nonzero"
   id="path61" />
                    </g>
                    <g
   transform="matrix(0.868145,-0.496311,-0.496311,-0.868145,805.27,534.278)"
   id="g67">
                        <path
   d="m -0.211,-0.134 c -0.381,0.166 -0.274,0.52 -0.375,0.784 0.259,0.069 0.36,0.036 0.375,-0.157 0.009,-0.116 0.112,-0.247 -0.023,-0.371 -0.035,-0.031 0.011,-0.15 0.023,-0.256"
   style="fill:#811e33;fill-rule:nonzero"
   id="path65" />
                    </g>
                    <g
   transform="matrix(-0.120313,0.992736,0.992736,0.120313,802.729,551.521)"
   id="g71">
                        <path
   d="M 0.822,-0.949 C 0.761,-0.449 0.7,0.042 0.644,0.533 0.633,0.637 0.673,0.708 0.822,0.672 0.894,0.301 0.967,-0.078 1.042,-0.467 0.713,-0.514 1.071,-0.824 0.822,-0.949"
   style="fill:#811e33;fill-rule:nonzero"
   id="path69" />
                    </g>
                    <g
   transform="translate(799.598,552.741)"
   id="g75">
                        <path
   d="M 0,-0.261 C 0.345,-0.364 0.49,-0.175 0.603,0.078 0.353,0.103 0.162,-0.002 0,-0.261"
   style="fill:#811e33;fill-rule:nonzero"
   id="path73" />
                    </g>
                    <g
   transform="translate(802.428,551.452)"
   id="g79">
                        <path
   d="M 0,0.177 C 0.072,0.031 0.145,-0.074 0.283,0.014 0.46,0.125 0.638,0.077 0.82,0.067 0.731,0.221 0.525,0.251 0,0.177"
   style="fill:#811e33;fill-rule:nonzero"
   id="path77" />
                    </g>
                </g>
            </g>
            <g
   transform="matrix(0,1.33333,1.33333,0,471.299,849.863)"
   id="g87">
                <rect
   x="-21.378"
   y="-21.378"
   width="21.378"
   height="21.378"
   style="fill:none;stroke:#811e33;stroke-width:0.58px"
   id="rect85" />
            </g>
        </g>
    </g>
</svg>
