<?xml version="1.0" encoding="UTF-8" standalone="no"?>
<svg
   width="38.099998"
   height="39.959"
   viewBox="0 0 38.099999 39.958999"
   version="1.1"
   xml:space="preserve"
   style="clip-rule:evenodd;fill-rule:evenodd;stroke-linejoin:round;stroke-miterlimit:2"
   id="svg30"
   sodipodi:docname="bangtrap2.svg"
   inkscape:version="1.1.1 (3bf5ae0d25, 2021-09-20)"
   xmlns:inkscape="http://www.inkscape.org/namespaces/inkscape"
   xmlns:sodipodi="http://sodipodi.sourceforge.net/DTD/sodipodi-0.dtd"
   xmlns="http://www.w3.org/2000/svg"
   xmlns:svg="http://www.w3.org/2000/svg"><defs
   id="defs34" /><sodipodi:namedview
   id="namedview32"
   pagecolor="#ffffff"
   bordercolor="#666666"
   borderopacity="1.0"
   inkscape:pageshadow="2"
   inkscape:pageopacity="0.0"
   inkscape:pagecheckerboard="0"
   showgrid="false"
   inkscape:zoom="20.65"
   inkscape:cx="19.491525"
   inkscape:cy="20"
   inkscape:window-width="1920"
   inkscape:window-height="1012"
   inkscape:window-x="-8"
   inkscape:window-y="-8"
   inkscape:window-maximized="1"
   inkscape:current-layer="svg30" />
    <g
   transform="translate(-1630.88,-136.472)"
   id="g28">
        <g
   id="g26">
            <g
   transform="matrix(2,0,0,2,1639.5,142.782)"
   id="g4">
                <path
   d="M 0,0.026 C 0.765,0.277 1.494,0.591 2.211,0.927 2.567,1.098 2.924,1.269 3.273,1.452 3.624,1.634 3.969,1.823 4.307,2.027 L 3.643,2.423 C 3.643,2.021 3.648,1.618 3.657,1.215 3.667,0.812 3.672,0.409 3.698,0.006 l 0.067,-1.011 0.521,0.799 C 4.57,0.23 4.833,0.681 5.119,1.114 5.262,1.331 5.41,1.544 5.567,1.749 5.722,1.957 5.884,2.159 6.056,2.352 L 5.813,2.39 C 5.963,1.916 6.06,1.423 6.178,0.938 6.293,0.451 6.45,-0.02 6.639,-0.479 c 0.187,-0.46 0.384,-0.916 0.606,-1.363 0.221,-0.447 0.456,-0.889 0.74,-1.313 l 0.078,0.029 C 8,-2.62 7.889,-2.132 7.764,-1.649 7.639,-1.166 7.49,-0.692 7.331,-0.222 7.173,0.249 6.983,0.708 6.752,1.151 6.523,1.596 6.274,2.032 6.078,2.489 L 5.974,2.73 5.834,2.527 C 5.687,2.313 5.53,2.108 5.364,1.909 5.202,1.707 5.03,1.513 4.854,1.323 4.5,0.942 4.124,0.58 3.769,0.201 L 4.357,-0.01 c 0.046,0.401 0.071,0.803 0.1,1.205 0.029,0.402 0.054,0.804 0.074,1.206 L 4.57,3.181 3.866,2.798 C 3.52,2.609 3.181,2.407 2.847,2.198 2.512,1.99 2.183,1.769 1.855,1.548 1.203,1.1 0.563,0.631 -0.041,0.098 Z"
   style="fill:#811e33;fill-rule:nonzero"
   id="path2" />
            </g>
            <g
   transform="matrix(2,0,0,2,1646.5,147.218)"
   id="g8">
                <path
   d="M 0,6.223 C -0.484,6.401 -0.973,6.56 -1.461,6.717 -1.95,6.873 -2.442,7.018 -2.934,7.159 -3.427,7.299 -3.92,7.435 -4.416,7.562 -4.909,7.697 -5.408,7.81 -5.904,7.933 L -7.81,8.408 -6.272,7.158 C -5.465,6.501 -4.634,5.877 -3.797,5.259 -3.38,4.949 -2.962,4.64 -2.54,4.336 -2.116,4.035 -1.683,3.743 -1.252,3.451 l 0.008,0.388 C -1.695,3.463 -2.145,3.084 -2.611,2.729 -3.075,2.37 -3.551,2.028 -4.037,1.699 l -0.356,-0.24 0.44,-0.013 C -3.616,1.436 -3.279,1.423 -2.942,1.4 L -1.93,1.331 c 0.337,-0.024 0.674,-0.043 1.011,-0.055 0.337,-0.011 0.674,-0.02 1.01,-0.014 L -0.185,1.895 C -0.781,1.259 -1.366,0.612 -1.93,-0.055 -2.213,-0.388 -2.489,-0.727 -2.761,-1.07 -3.029,-1.417 -3.299,-1.762 -3.548,-2.127 l 0.061,-0.058 c 0.352,0.268 0.683,0.555 1.015,0.84 0.329,0.289 0.653,0.582 0.971,0.882 0.638,0.597 1.254,1.214 1.859,1.842 L 0.973,2.017 0.082,2.012 C -0.255,2.01 -0.591,1.992 -0.928,1.973 -1.265,1.952 -1.601,1.925 -1.938,1.892 L -2.947,1.796 C -3.283,1.766 -3.62,1.744 -3.956,1.726 l 0.083,-0.254 c 0.466,0.357 0.94,0.701 1.428,1.026 0.485,0.33 0.986,0.637 1.485,0.946 l 0.258,0.161 -0.249,0.227 C -1.336,4.184 -1.72,4.536 -2.112,4.878 -2.506,5.218 -2.904,5.552 -3.303,5.886 -4.099,6.555 -4.9,7.218 -5.726,7.85 L -6.094,7.073 c 0.502,-0.097 1.002,-0.204 1.507,-0.289 0.503,-0.093 1.008,-0.177 1.513,-0.257 0.506,-0.079 1.013,-0.154 1.522,-0.219 0.51,-0.063 1.02,-0.124 1.534,-0.166 z"
   style="fill:#811e33;fill-rule:nonzero"
   id="path6" />
            </g>
            <g
   transform="matrix(2,0,0,2,1655.91,176.401)"
   id="g12">
                <path
   d="m 0,-8.958 c -0.029,1.155 -0.138,2.295 -0.273,3.431 -0.073,0.567 -0.144,1.134 -0.232,1.699 -0.086,0.564 -0.188,1.126 -0.302,1.686 l -0.439,2.157 -0.415,-2.139 c -0.169,-0.868 -0.336,-1.737 -0.485,-2.61 -0.142,-0.875 -0.233,-1.761 -0.388,-2.633 l 0.257,0.069 c -0.592,0.591 -1.152,1.212 -1.662,1.878 L -4.7,-4.417 c -0.256,0.332 -0.519,0.658 -0.795,0.972 l -0.917,1.045 0.279,-1.378 c 0.079,-0.394 0.182,-0.783 0.277,-1.174 0.096,-0.391 0.207,-0.779 0.315,-1.167 0.227,-0.774 0.471,-1.544 0.784,-2.299 l 0.081,0.018 c -0.039,0.816 -0.145,1.617 -0.27,2.414 -0.067,0.397 -0.132,0.795 -0.212,1.19 -0.08,0.394 -0.152,0.79 -0.248,1.181 l -0.639,-0.332 c 0.288,-0.304 0.588,-0.595 0.896,-0.88 l 0.931,-0.848 c 0.617,-0.568 1.185,-1.182 1.72,-1.825 l 0.18,-0.218 0.077,0.286 c 0.229,0.855 0.522,1.697 0.763,2.55 0.237,0.853 0.452,1.711 0.668,2.57 l -0.855,0.018 c 0.086,-0.565 0.183,-1.127 0.296,-1.687 0.111,-0.56 0.239,-1.118 0.365,-1.675 0.264,-1.113 0.553,-2.222 0.922,-3.317 z"
   style="fill:#811e33;fill-rule:nonzero"
   id="path10" />
            </g>
            <g
   transform="matrix(2,0,0,2,1667.56,164.228)"
   id="g16">
                <path
   d="M 0,-2.519 C -0.647,-2.559 -1.272,-2.667 -1.891,-2.795 -2.2,-2.859 -2.507,-2.933 -2.812,-3.01 -3.118,-3.087 -3.419,-3.177 -3.718,-3.274 l 0.582,-0.433 c 0.001,0.409 -0.016,0.819 -0.032,1.228 -0.014,0.409 -0.034,0.818 -0.083,1.228 -0.046,0.41 -0.103,0.82 -0.125,1.23 -0.021,0.409 -0.019,0.818 0.031,1.226 L -3.271,1.794 -3.64,1.287 C -3.872,0.967 -4.136,0.666 -4.375,0.349 -4.619,0.036 -4.818,-0.303 -5.001,-0.652 -5.186,-0.999 -5.357,-1.355 -5.509,-1.721 -5.661,-2.088 -5.803,-2.46 -5.902,-2.858 l 0.073,-0.041 c 0.295,0.284 0.547,0.592 0.789,0.907 0.241,0.314 0.464,0.64 0.673,0.974 0.211,0.332 0.406,0.673 0.555,1.042 0.155,0.364 0.285,0.744 0.446,1.105 L -3.661,1.211 C -3.623,0.801 -3.635,0.392 -3.669,-0.017 -3.704,-0.425 -3.775,-0.833 -3.834,-1.241 -3.896,-1.649 -3.93,-2.058 -3.958,-2.466 -3.987,-2.875 -4.017,-3.283 -4.03,-3.692 l -0.019,-0.621 0.602,0.188 c 0.3,0.093 0.598,0.193 0.891,0.307 0.294,0.113 0.587,0.228 0.877,0.355 0.579,0.252 1.152,0.524 1.704,0.865 z"
   style="fill:#811e33;fill-rule:nonzero"
   id="path14" />
            </g>
            <g
   transform="matrix(2,0,0,2,1668.59,159.047)"
   id="g20">
                <path
   d="m 0,-7.619 c -0.181,0.3 -0.382,0.582 -0.587,0.858 -0.206,0.276 -0.422,0.542 -0.641,0.804 -0.443,0.519 -0.901,1.024 -1.404,1.483 l -0.144,-0.722 c 0.429,0.194 0.855,0.392 1.279,0.596 0.425,0.201 0.832,0.447 1.245,0.678 l 0.447,0.25 -0.443,0.125 c -0.469,0.133 -0.925,0.3 -1.361,0.51 -0.437,0.209 -0.842,0.493 -1.261,0.744 l 0.104,-0.509 c 0.48,0.374 0.873,0.831 1.26,1.295 0.19,0.234 0.374,0.475 0.548,0.725 0.176,0.248 0.34,0.507 0.485,0.785 l -0.06,0.057 c -0.27,-0.158 -0.521,-0.335 -0.761,-0.522 -0.241,-0.186 -0.472,-0.382 -0.697,-0.583 -0.445,-0.408 -0.883,-0.823 -1.233,-1.32 l -0.282,-0.401 0.386,-0.109 c 0.47,-0.132 0.954,-0.231 1.406,-0.406 0.453,-0.172 0.886,-0.389 1.306,-0.639 l 0.004,0.375 C -0.862,-3.666 -1.326,-3.771 -1.771,-3.921 -2.218,-4.069 -2.662,-4.222 -3.105,-4.38 l -0.617,-0.22 0.474,-0.502 c 0.467,-0.495 0.979,-0.944 1.507,-1.378 0.265,-0.215 0.535,-0.425 0.814,-0.627 0.28,-0.2 0.565,-0.396 0.869,-0.572 z"
   style="fill:#811e33;fill-rule:nonzero"
   id="path18" />
            </g>
            <g
   transform="matrix(2,0,0,2,1655.63,148.965)"
   id="g24">
                <path
   d="m 0,-6.236 c 0.248,0.793 0.42,1.593 0.567,2.396 0.142,0.803 0.263,1.609 0.324,2.421 L 0.138,-1.687 1.124,-2.6 C 1.453,-2.904 1.788,-3.201 2.14,-3.482 L 3.084,-4.237 2.622,-3.19 C 2.411,-2.709 2.188,-2.233 2.006,-1.742 1.823,-1.253 1.668,-0.755 1.562,-0.241 L 1.323,-0.452 C 1.726,-0.685 2.114,-0.95 2.519,-1.18 2.921,-1.414 3.344,-1.603 3.772,-1.781 4.2,-1.958 4.634,-2.123 5.075,-2.272 5.518,-2.417 5.966,-2.553 6.433,-2.646 l 0.034,0.076 c -0.375,0.293 -0.77,0.543 -1.17,0.783 -0.4,0.237 -0.809,0.458 -1.223,0.666 C 3.66,-0.913 3.24,-0.716 2.8,-0.565 2.363,-0.408 1.908,-0.288 1.468,-0.135 L 1.078,0 1.23,-0.346 c 0.21,-0.481 0.372,-0.978 0.505,-1.483 0.135,-0.505 0.23,-1.022 0.334,-1.537 l 0.482,0.293 c -0.279,0.353 -0.575,0.69 -0.878,1.02 L 0.765,-1.063 0.133,-0.375 0.011,-1.33 c -0.103,-0.807 -0.146,-1.621 -0.168,-2.437 -0.018,-0.816 -0.009,-1.635 0.074,-2.461 z"
   style="fill:#811e33;fill-rule:nonzero"
   id="path22" />
            </g>
        </g>
    </g>
</svg>
