<svg viewBox="0 0 111 112" xmlns="http://www.w3.org/2000/svg" fill-rule="evenodd" clip-rule="evenodd" stroke-linejoin="round" stroke-miterlimit="2"><path d="M7 58c0 .6.2 2.1 0 2.7v2.2l-.2-.1c-.2-.3-.1-1-.2-1.5v-1.1c-.2-1 0-2.2 0-3.2V55v.7a.6.6 0 0 1 .3 0zM6.8 46.6a.3.3 0 0 1 .1 0l.1.2H7a.8.8 0 0 1 0-.2M7.2 65.1v.2l-.4-.4c0-.2.2-.2.2-.3h.2v.5M8 43.3l-.2-.2c0-.2.1-.2.2-.2v.4M8.3 27.4h.1v.2l-.1-.1v-.1M8.4 67.9l-.4-.7c.3 0 .3.3.5.4a.9.9 0 0 1 0 .3h-.1M8.4 71.2v1H8V71.3s.4 0 .5-.2zM8.4 28c.2.2 0 1 0 1.4v-1.5zM8.5 39v.2c-.2-.1-.1-.2-.4-.3l.1-.3h.1v.3a.5.5 0 0 0 .2 0 .9.9 0 0 0 0 .1" fill="#fff" fill-rule="nonzero"/><path d="M9.3 49.9c-.1.2 0 .6 0 .8v1c-.2.7 0 2 0 2.7L9.1 58V68H9v.5h-.5c-.6-.4-.8-1-1.2-1.7l-1-1.6c-.3-.3-.7-.5-.7-1 0-.1 0-.2.3-.2l.3.2V63.3l-.1-.2c-.2-.2 0-.6 0-.8L6 61v-5.4c.1-.6-.2-1.2 0-1.7l.4-.3.5-.8.2-.2.8-1.6.2-.5.4-.3v-.9H9v.3H9.3a.8.8 0 0 1 0 .3M8 67.2l.4.7a.8.8 0 0 0 0-.3c-.1-.1-.1-.4-.4-.5v.1m-.9-2h.1v-.6H7L7 65s0 .3.2.4m-.3-2.5H7c.1 0 0-.3 0-.4V55.8h-.1a.6.6 0 0 0-.3 0v-.7V57c0 1-.2 2.2 0 3.2v1.1c0 .5 0 1.2.2 1.5" fill="#811236" fill-rule="nonzero"/><path d="M8.8 36v.2-.3M10 39v1l-.2-.1h-.3l.1-1.6v-1.4l.1-.9c.2.5.1 1.5.2 2v1M9.7 35.9v-.1.1M10.1 77.8v.6a1.3 1.3 0 0 0-.4.1 13 13 0 0 1-.3 2v1.3c-.2 0-.2.1-.3.2v.3h-.2v-2.1c0-.4.3-.8 0-1 0-.3 0-1.3.2-1.4 0 0 .6.2.7.1l.3-.1zM10 81.8l-.1 1.1v1l-.2 1h-.1c0-.8 0-1.6.2-2.2l.1-.9z" fill="#fff" fill-rule="nonzero"/><path d="M9.8 91a.6.6 0 0 0 .1 0v.1h-.5l-.8-.7V90c-.3-.6-.2-1.3-.2-2.2v-1.9c0-.1.3-.2.3-.4v-2.2l.2-.4v-.6h.2v1.8c-.2.5 0 1.2 0 1.8-.2.5-.3.9-.3 1.5l.3.2v.8c-.1.1-.4.4-.4.6.2.6.8 1.7 1 1.9zM10 81v.7-.6zM10 42.4v.4-.4M10.1 91.2c0 .2.2.1 0 .3v-.1H10v-.1zM10.5 44.3h.2V46h-.2l.1.3v19.2c0 1-.1 2.5 0 3.2V73.4l-.2.1.2.8c0 .2-.5.3-.7.5l-.8 1.6c-.2-.3-.1-.7-.1-1V68h.2V50.7l.1-1a.8.8 0 0 0 0-.2l-.2.1H9v-8c.2 0 .2.2.4.3.2.1.6.3 1 .3v.3h.4c0 .4 0 .8-.2 1l-.3.1v.1h.4v.2l-.5.1v.2h.3m-.5-1.5v-.4.4M11.2 39.7a.6.6 0 0 0 .1-.1v.2-.1M11.6 28.9v.5l-.1.1-.5-.2v-1.1h.3v.4l.3.3M14.2 88c-.1.4-.4.6-.5.8 0 .2 0 .4-.2.5l-.7.4c-.4 0-1-.1-1.1-.4V89c-.2-.2-.5-.2-.5-.4-.2-.4-.3-.8-.6-1v-.2c.4 0 .6.2.8.5v-.3s.2 0 .3-.3c.6 0 1 .3 1.4.5h.5l.2.2h.3M11.4 76.8h.1M11.5 74.3l.1.2h-.2v-.1zM11.6 38.5a.5.5 0 0 1 0 .4v-.4M11.6 39.3v-.1h.1a.5.5 0 0 1 0 .2M12 84.8c.3 0 .3 0 .3.2l-.4-.1h.2M13 84a.8.8 0 0 1-.1.3c-.3 0-1 0-1.2.2h-.1v-.3c.3-.2.8 0 1-.3h.3M12.7 85h-.2a.8.8 0 0 0-.1 0v-.2h.3a.2.2 0 0 0 0 .1" fill="#fff" fill-rule="nonzero"/><path d="M11.9 52c.4-.1.9-.5 1.3-.2L12 52l-.1-.1" fill="#811236" fill-rule="nonzero"/><path d="M12.8 28.6v-.1a.5.5 0 0 1 .2 0v10.2l-.3.1-.7.5c0-.6 0-1.5-.2-1.8-.1 0 0 .4-.2.5l-.1-.5-.2-.1v-2.2c0-.2-.1-.6 0-.8 0-.3 0-.7.2-.7v-2.2l-.3-.1c0-.2.2-.2.3-.3a10.3 10.3 0 0 0 0-1.6l.1-.1c.1-.2 0-.7.2-1l.2.1v2c0 .3 0 .6-.2.7 0 .3 0 .5.2.6v2l.1 1 .1.4a.5.5 0 0 0 .2 0l.1-1h.1l.2-4c0-.4.1-1.4 0-1.6" fill="#fff" fill-rule="nonzero"/><path d="M14.3 47.9c-.2.1-1.3 0-1.6 0-.2-.1-.7 0-.9.2l-.1-.2c.7-.3 1.7-.3 2.7-.3v.3" fill="#811236" fill-rule="nonzero"/><path d="M13 39.9c0 .2-.2.2-.3.4 0-.2.2-.4.4-.4zM12.8 78.6h.2v.4a2.5 2.5 0 0 0 0 .5h-.1l-1.2.1a1 1 0 0 1-.3 0v-.2l.1-.7c.4 0 .9-.2 1.3 0M13.3 51.7z" fill="#fff" fill-rule="nonzero"/><path fill="#811236" d="M14.1 72.2V72h-.6v.2z"/><path d="M14.2 39v1.5c-.3.2-.6 0-.9.2h-.2c0-.5 0-.7.2-1h.4-.3v-.1l.3-.8h.5v.1zM13.7 51.6h.1zM14.2 36.6c0 .5.2 1.5 0 2H14a.8.8 0 0 1-.2 0l.1-1.1c-.2 0-.1.1-.2.2v-.2h-.1l-.1.2V38.3h.3v.2h-.1a1.3 1.3 0 0 0-.4.1v-1.1l.1-2.8h.3V30h.1c0 2 0 4.3.2 6.2h.3v.4M13.2 44.1h.7v.1l-.5.1c-.4.1-1.6.2-1.8.4h-.1V44z" fill="#fff" fill-rule="nonzero"/><path d="M14.4 51.5a.8.8 0 0 0-.5.1c0-.1.3-.2.5-.1M14.9 46.8c-.7 0-1 .2-1.5.4H13a4.7 4.7 0 0 1-1.2.2v-.2c.4 0 .7-.2 1-.3l.8-.1c.4-.2.7-.4 1.4-.4z" fill="#811236" fill-rule="nonzero"/><path d="M14.2 41v.9c-.7 0-2.1 0-2.5.3l-.1-.1.2-.4h.2c.3 0 .4 0 .5-.2h1.3l.1-.1v-.1l-.2-.1h-.9V41c.5-.1 1 0 1.2-.2h.2" fill="#fff" fill-rule="nonzero"/><path d="M14.3 50v.1a5.5 5.5 0 0 0-1 .2H12l.7-.2h.3c.4-.2.9-.4 1.3-.4v.4z" fill="#811236" fill-rule="nonzero"/><path d="M14.5 32.4v2.4h-.1c-.2-.3 0-1.6 0-1.8v-.7h.1M14.5 76.6v.2H14c-.4 0-1.8.3-2 .5h-.1c0-.4.1-.8.3-1v-.1c.2-.4 1-.2 1.3-.4h1v.8M14.9 85.2l-.1.5h-.2l.1-.5h.2M15.2 39v1.5h-.6v-1.6h.5M15.2 45.4l-.2.6-.1-.1c-.6 0-1.4 0-2 .2-.2 0-.6 0-.8.2a1 1 0 0 1-.5-.1c.4-.2.9-.1 1.3-.2l2-.4.1-.3a.4.4 0 0 0 .2 0M15.1 33.8c0 .2.1.6-.1.7h.1v4h-.5c0-1.3 0-2.5.2-3.6l.1-1v-.1h.2" fill="#fff" fill-rule="nonzero"/><path d="M15.1 76.3c0 .2.2.1.2.5H15a1 1 0 0 1-.4 0v-.9l.1-.3V75l-.1-2.2h-.1v.9h-1c-.4.1-.6.3-1 .3v.2l1.2-.2h.6a.5.5 0 0 1 .2 0v1.4c-1 0-1.8.1-2.3.6H12c-.1-.3 0-.7-.2-1l-.1-.2v-1.4s-.2 0-.3-.2v-1.4h1.8l1-.2-.1-.2-1 .2h-1.7v-1h.3c.1.1.5 0 .8 0 .6.2 1.7 0 2.2.3a.5.5 0 0 1 .3 0v4.4l.2.4v.6m-1-4.3h-.7v.2h.7V72" fill="#fff" fill-rule="nonzero"/><path d="M15.2 53.2v12.3H15v-5.9c0-1.9-.2-4.3 0-6.2V52l.1 1v.2M15.5 76.6a.8.8 0 0 1 0 .2h-.2c0-.4-.1-.3-.2-.5v-.5h.1v.2c.2 0 .3.3.3.6" fill="#811236" fill-rule="nonzero"/><path d="m15.5 43-2.7.1c-.4.1-1 0-1.2.3h-.1l-.1-.3v-.4c.6 0 1 0 1.4-.2h.6c.3 0 .8-.1.8.1l.1-.2h.6v-.2c0-.4-.4-.3-.6-.4l.2-.8v-.2h.7v.2l.2.3c0 .1.1.3 0 .4l.1 1.2M16.1 75.4v.7l-.3.2v.3h-.3c0-.3-.1-.5-.3-.6v-5.1H16.2v2.8z" fill="#fff" fill-rule="nonzero"/><path d="M15.9 70.9h-.6c-.2.3 0 1 0 1.5v3.4h-.1a.5.5 0 0 0 0-.1l-.2-.4V71a.5.5 0 0 0-.3 0c-.5-.4-1.6-.2-2.2-.3-.3-.1-.7 0-.8-.2h1c.9-.2 1.6.1 2.3.1v-.5c.2-.3 0-.7 0-1v-3.3h.1v.2c.2.3.1 1 .1 1.3v3.3h.6v.3" fill="#811236" fill-rule="nonzero"/><path d="M15.8 39.2v2l-.2.2v-2.2h.2M15.9 42.8c0 .2.1.2.2.2 0 .4 0 .3-.2.4-.2-.1-.3-.8-.3-1.2v-.5h.2v1.1M16 83c0 .5.2 1-.2 1.3l-.1-.1h-2.1l-.4-.2V84c.3-.2.7-.1 1-.1l1.6-.1v-.3c-1-.3-2.5-.1-3.3.1-.3 0-.6 0-.8.2h-.1c-.2-.2 0-.5 0-.8l-.3-.5v-.8h.4l.5-.2h.3l1.7-.5c.4-.1 1.3.2 1.6 0h.4v.6l-.1.3c-1.5 0-3.3-.2-4.3.3 0 .2.4.4.6.4l.6-.2H14.7l1.2-.1h.2v.2h-1.5l-.5.2h-1l-.4.2H12c-.1.1-.2.2-.5.2v.1c.3 0 .3.1.5.2.4.1 1.1-.1 1.4-.2h.6c.3-.1.6 0 .9-.2h1M14.9 30.3h1.3v.1l-.1.1h-1.2v-.2M16 53.1c.2.9 0 1.8.1 2.7V63.3l-.1.1c-.1.3.1.3.1.4V71h-.2v-.2h-.7v-4.9H15v4.8c-.8 0-1.5-.3-2.4-.2l-1 .1h-.3l.1-1.6V57l.1-2.2v-3.2l-.1-1.4c0-.2.4-.2.6-.3l1-.3c.3-.1.9 0 1.1-.2h.1v-.4l-1.2.3-.7.3c-.3 0-.6 0-.8.2h-.1v-1l1.3-.2h1.5v-.4c-.7 0-1.4 0-2 .2l-.6.1a.8.8 0 0 1-.2 0v-2.1c.9 0 1.7 0 2.4-.2.5-.1.7 0 1-.2v1.6h-.2c0 .3-.3 1.3 0 1.7v.6c.2-.5 0-1.4.2-1.8l.3-.1V45.2c-1 0-1.8.2-2.5.4-.3.1-1 0-1.1.3h-.2V45c.4-.3 1.2-.2 1.7-.3l1.5-.4h.3l.3-.3v-.2c-.7-.2-1.7-.1-2.5-.1h-1a.8.8 0 0 1-.2 0l1-.3H15.6v.6l.1-.5h.3a.4.4 0 0 1 .1 0v1.2l-.2-.1v.3h.2v.6a.6.6 0 0 0-.1.1h-.3v.4l.4-.1V53m-1 12.4c.2-.4.1-1 .1-1.3V52c-.2.3 0 1.2-.1 1.4-.2 1.9 0 4.3 0 6.3V65.4zm-.2-19c-.7 0-1 .1-1.4.3l-.8.1c-.3.1-.6.3-1 .3v.2a4.2 4.2 0 0 0 1.2-.2h.5c.5-.2.8-.4 1.5-.4zm-.5 1.2v-.1c-1 0-2 0-2.7.3v.2h.1c.2-.1.7-.3.9-.2.3 0 1.4.1 1.6 0l.1-.2m0 3.8h-.5v.1l.5-.1m0-1.8c-.5 0-1 .2-1.3.3h-.4c-.2.1-.4.3-.7.3h1.2a6 6 0 0 1 1.1-.2zm-.6 2v-.1zm-.5 0zm-.1 0c-.4-.2-.9.2-1.3.3l.1.1 1.2-.3M16.2 79.6v.3H16v-.3h-3V78.6c.8 0 2.1 0 2.5-.2v-.2h-1c-1 0-2.6-.2-3 .3V78c0-.8.5-.5 1-.7.5 0 1-.2 1.4-.3H15v-.3h.4a.8.8 0 0 0 0-.2h.4c0 .2 0 .3.3.5v1.7l.1.8M16.2 79.9c0 .2 0 .4-.3.4h.1v.1a7.5 7.5 0 0 0-3.1.4c-.5.1-1 0-1.3.2a.8.8 0 0 1-.2 0V80h3.3c.3 0 1 .2 1.2 0h.1zM16.7 85.4l-.2.1H16c0-.3.3-.6.4-1l.2.3zM16.2 40.6v.6H16v-.6zM16.1 34.7v-.2l.4.1-.2.4-.2-.3M16.4 33.4c.2 0 .1 0 0 .2h-.1v-.2h.1M16.6 82.8V84l-.2-.1v-.3l.1-.8M17 34v.4h-.9v-.2l.1-.3.8.2M16.4 31.9h.5v.1H16.3v-.1M17 38h.1v.1H17zM17 37.2v.1h-.2V37l.2.1M17 36c.1 0 0 .1 0 .2v-.3M17.4 42.3c.1 0 0 0 0 .1 0 0-.1 0 0-.1M17.4 71.5c0-.1.1 0 .1 0M17.4 45.5h.4-.3M17.5 75.9c0-.1 0 0 0 0M17.4 70.7c.3 0 .7 0 .6.1h-.6M17.3 32.3c.2 0 .6 0 .8.2l-.5.1h-.3a.4.4 0 0 1 0-.2M18.1 40H18l.1-.1h.2v.2H18M18.1 82.6c.1-.1 0 0 0 0zM18.5 73.9l-.3.4h-.7v-.5h1zM18.2 72.7v.4c-.2 0 0-.5 0-.6v.2M18.4 49.7l-.1.1h-.5v-.1h.5zM18.7 40.5l-.6.2h-.4v-.1c.3 0 .6 0 .8-.2h.2v.1M18.7 56.4a.2.2 0 0 0 0 .1l-.8.1h-.1V56l.9.3M18.7 71.2c0 .2-.1.2-.2.2h-.1l.1-.3h.2v.1M18.6 56.9a.6.6 0 0 1 0-.1h.2v.1h-.2M17.7 29.6H19l-.3.2h-4.1v-.2h.6c.3-.2.7 0 1 0h1.5M17.9 62.2h1a.8.8 0 0 1 .4 0 .3.3 0 0 0 0 .1l-1 .2H18l-.2-.2M19.2 59.5l-.3.2h-.5v-.2h.8M19.4 71.8l-.4.1h-1.6v-.3c.6 0 1.4.3 1.8 0h.2v.2M19.4 48.5a.6.6 0 0 0-.2.1H19l.2-.2h.2zM19.3 59.5h.1-.1M19.6 63.3h-.1zM19 89.3h2H19M20 32.7h-.8a.6.6 0 0 1-.2 0v-.2h1.1v.1H20M20.3 26.5h-1.9l-.8.1h-.2a.6.6 0 0 1-.2 0v-.1c.2-.2.7 0 1 0 .3 0 1-.2 1.4 0h.7zM19.8 34.7h.9v.1l-1.3.2H18.1v-.4l1.7.1M20.7 59.3c-.3.2-.7 0-1 .2h-.2c.3-.2.7-.1 1-.3h.1zM21.2 65h.4-.4z" fill="#fff" fill-rule="nonzero"/><path d="M20.5 26h1.7v.4h-1v.2c.4 0 .4.2.7.2l-.3.8c-.3-.1-.8.1-1.2.1h-1.8l-.3.3H16l-.1.4c.4.1 1.1 0 1.6 0h1.1l1-.1H22v.8l-1 .1-.5.1c-.1.1 0 .3-.2.4-.2.2-.6 0-.8 0H19c-.3-.2-1 0-1.3 0-.5-.2-1-.1-1.5-.1-.3 0-.7-.2-1 0h-.6v.2l-.7.2h-.1v3.6l-.1 1-.3.1v2.8c0 .3-.2.8 0 1.1h.3v.2a4.6 4.6 0 0 0-.3.8h.2l.1.1h-.4l-.2 1h.2c.3-.1.6 0 .8-.2l.1-.4h.4v.7l-.1.2-.2.8c.3.1.5 0 .6.3v.3h-.6l-.1.2c0-.2-.5-.2-.8-.2-.1.2-.4 0-.6.1a5 5 0 0 1-1.4.2V43.3h.2c.3-.2.8 0 1.2-.2h2.7a.7.7 0 0 0 0-.2v-1.2h.1v.5c0 .4 0 1 .3 1.2v.2h-.2v.5l-.1-.6h-3.1l-1 .2a.8.8 0 0 0 .3.1h3.4v.3l-.3.3h-.3l-1.5.4c-.5.1-1.3 0-1.6.3v.7l1.2-.2c.7-.2 1.6-.4 2.5-.4v2.9l-.3.1c-.3.4 0 1.3-.1 1.8h-.1v-.6c-.3-.4 0-1.4 0-1.7h.3v-1.5h-1c-.8.2-1.6.2-2.5.2a1 1 0 0 0 0 .4h-.9v-.5l-.1-.3h.2v-1.7h-.5V44h.5v-.2a1.3 1.3 0 0 0-.4 0v-.2l.3-.1.2-1h-.4l.1-.3a2 2 0 0 1-1.1-.3l-.4-.4v7.7h-.5v-4.7h-.1s-.1.1-.2 0c-.3 0-.2-.2-.4-.4l-.2-.2v-1.2l.1-3V38c0-.2.4-.3.5-.5h.3l.1-.3v-.4h.2v-.5.2a.9.9 0 0 0 0-.3v-3.8c0-.4.2-1 0-1.3l-.1.1a5 5 0 0 1 0-.6l.1.4c.2-.2 0-.6.1-.7 0-.2.3-.2.3-.4l-.2-.4V29l-.2-.2c0-.2-.2-.6-.1-.9l.2-.5h-.3v.3a1.8 1.8 0 0 0-.4-.4l-.3-.1c.2-.2 0-.6.4-.6h.4c.1-.2.6-.9.9-.7l.3.6h.2l.5-.4.1-.2h.2v-.1c.4-.3 1 0 1.4 0l.4-.4H15c.3 0 .7.4 1 .3l.9-.2H20l.3.1.1.2zm-.2.5h-.7c-.4-.2-1.1-.1-1.4 0-.3 0-.8-.2-1 0l.2.1h.2c.2-.1.6 0 .8 0h1.8zM15 46l.2-.6a.4.4 0 0 1-.1-.2c-.2.1-.2.3-.2.4-.7 0-1.4.2-2 .4-.4 0-.9 0-1.3.2h.5l.9-.1a8 8 0 0 1 1.9-.2m-.8-4 .1-1H14c-.2.2-.8.1-1.1.2l.8.1.2.1a2 2 0 0 1 0 .1h-1.4c-.1.2-.2.4-.5.4l-.2-.1-.2.4h.1c.4-.2 1.8-.2 2.4-.2m-.2 2.3h-2.4v.5c.3-.2 1.5-.3 1.9-.4h.5zm-1.2-4c.1 0 .3 0 .4-.3-.2 0-.4.2-.4.3m.4-1.5v-.4c-.1-.1 0-.6 0-.8l-.1-1v-8a.7.7 0 0 0-.2 0c.1.3 0 1.3 0 1.6l-.2 4h-.1c-.2.3 0 .9-.1 1.1a.5.5 0 0 1-.2 0l-.1-.4v-1l-.1-2c-.2 0-.2-.3-.2-.6.2-.1.2-.4.2-.8v-1.9h-.2c-.1.2 0 .7-.2.9v-.5l-.2-.3-.1-.4H11v1.1c.2 0 .4 0 .5.2.1.1 0 1.5 0 1.6 0 .1-.2 0-.3.3l.2.1c.2.3.1 1.7 0 2.2-.2 0-.1.4-.1.7-.1.2 0 .6 0 .8v2.2h.2l.1.6.1-.5c.3.3.2 1.2.2 1.8h.1l.7-.5h.4m-1.5.1a.5.5 0 0 0 0-.4.9.9 0 0 0 0 .3v.1m.1.3v.1a.5.5 0 0 0 0-.1zm-.4.4a1 1 0 0 1 0 .2v-.2m-1.6-3.8v.1s.1 0 0-.1zM10 38l-.1-2v.1c-.2.2 0 .6-.2.9v3h.2l.2.1v-1l-.1-1m-1.4 1.2V39a.5.5 0 0 1-.1 0v-.2h-.2l-.1.2.4.3m-.1-11.6v-.2h-.1v.2M7.9 43l.2.2V43l-.2.2" fill="#811236" fill-rule="nonzero"/><path d="M22.2 66.8c0-.1.7-.1.8 0zM22.9 26.5h.7v.2h-1.1l-.6.1c-.3 0-.3-.2-.7-.2v-.1H23M23.1 29.2h.9v.1l-1.3.1h-.5l-1.6.1a.8.8 0 0 0 0 .2h.6l.9.1c-.6.3-1.8 0-2.1.2h-.5v-.2a.3.3 0 0 1 0-.1c.2 0 .6.2.8 0 .2-.1 0-.3.2-.4h.5l1-.1h1.1M24.3 72.6h-.6c-1 .4-2.5.2-3.5.5l-1 .1c-.3 0-.3-.4-.6-.3-.1.1 0 .2-.2.3l-1 .3V72h.4v.3h3.9l.6.1h2zm-6.1 0s-.2.4-.1.5l.1-.4v-.1M24.4 67.7H24v-.1h.4zM25.2 84.2h.5l.1.1v.3h-.2v-.2h-3.3v-.1l.6-.1h2.3M26 78h.6-.6M28.1 28.3c-.4.2-1.5 0-2 0-1 0-2.2-.2-3 0h-3.5l-.9.1h-1.1c-.5 0-1.2.1-1.6 0V28c.3-.2.7 0 1 0l1.3-.1.3-.2c.5-.2 1.3 0 1.8 0 .4 0 .9-.3 1.1-.2 0 .2-.2.2-.4.2h.8l.8.2H28v.3M26.7 80.2v-.1l.3.1h-.3zM26.6 78.7h1v.1a4 4 0 0 0-.7.2h-2.2c-.3-.1-.5-.3-.9-.3 1 0 2-.3 2.8 0M28 27.3h-.3H28M28.2 72.8h-1.1 1.1M28.4 79.7h.5v.1h-1.7c.3-.3.9-.2 1.2-.1M28.6 66.9h1.1a.6.6 0 0 1 .2 0l-1 .4-.5.1c-.6 0-1.5-.2-2-.1l.1-.2 2.1-.2M29.4 35.9h1c-.5.2-1.7.1-2.2.1h-5c-.8 0-2.2-.3-2.5.3h-2.3l-.9-.1V36h.1c1 0 2.4 0 3.3-.2h1l.1-.2h1c.9 0 1.8 0 2.6.2.5.1 1.1 0 1.6 0h2.2M30.2 84.7h-3v-.2h3v.1M31 91.3h-.2c-.2 0-.5 0-.6.2l-.5-.2v-.1H31v.1M31.1 37.5l-.8.1h-3.8v-.1c0-.2.5 0 .8-.1H31zM31.7 45.4H31h.7M31.6 33.4h-3.3v-.1c.3-.2.8-.1 1.2-.1h2a.7.7 0 0 1 .1 0v.2M33.8 84.7h-3a1 1 0 0 1-.3 0v-.2h2.3c.3.2.8 0 1 .1M32.3 33.3h1c0 .1-.3 0-.4.2h-.2l-.4-.1v-.1M33.7 67v-.2l.2.1h-.2zM34.2 27.8v.1H34c-.8 0-1 .4-1.3 1l-.3.2c0 .2-.2.3-.3.4l-1 .4h-1.4l-.1-.7c-.1-.2-.3-1.4-.1-1.6H30v-.5c0-.2.1 0 .2-.2l.2-.2c.4 0 1.5.3 1.8.5h.4v-.4s1 .2 1.2.1c.4 0 .2.7.3.9M33.8 67.3c.3 0 1.2-.2 1.3.2h-5v-.3h3.7M34.3 70.6c1 0 1.9.3 2.8.3v.1a8.8 8.8 0 0 1-2-.2c-.2 0-.6 0-.8-.2M34.7 33.3H34c0-.2.3-.1.4-.2l.2.1v.1M34 36.8h1.3l-.3.1h-4.1v-.1zM36.3 70.7h1-1M36.5 88l.6.1-1.6.1H24l-.1-.2H22v-.1H25.8v.1H28l3.3-.1h3.5zM37.4 87.9h.2v.1h-.2v-.1M37.8 46.3H39v.1h-2.6l-.6-.1a1 1 0 0 1-.4 0V46l2.4.2M39 79.3H40c-.7.3-1.6.1-2.3.3h-4.7c-.8 0-1.6.2-2.2 0-.4 0-1.2.2-1.5 0h-.6v-.2c.7 0 1.3 0 1.7-.2v-.3H33c.6.2 1.4.1 2 .3.4.2 1.3-.1 1.6 0zM39.5 80.1l.8.1H37V80h2.6M40.2 79.2c.2 0 .2 0 .1.2v-.2M41.3 70.8l-2.7-.1h-1.2c1 0 2.2-.2 3 0l1 .1M40.8 31.1l-.9.3-.5.1h-.5l1.2-.4h.6zM40 46.3h1l-.1.1H40v-.1M41.8 30.6l-.4.2-.1-.2c-1.2 0-2.9.4-3.5.9-.4 0-1.3-.2-1.6 0l-.3-.1.1-.7V25.1c.1-.3 0-.6 0-.8v-1.6c.1-.2 1.2-.5 1.5-.6l.3-.2L40 21l.8-.3.4.2.8.3 1 .5c0 .3-.3.6-.4.8l-.5 1.7V27.5c-.2.4 0 1.4-.2 1.6zM41.9 31.4V31.7h-.6l.5-.4M41.9 85.2c.2 0 .6-.1.8 0l-.7.1h-2.7V85h-1a.5.5 0 0 1 0-.1c-.4 0-1.4-.1-1.6 0h-.8v-.2c1.1 0 2.3 0 3.2.2h1c.6.2.9.2 1.7.2a.4.4 0 0 0-.1 0V85h.2M42.5 33.5c.4 0 1 0 1.2-.2l.5.4h-1.5.2l.2.1v.1c-.2 0-.4 0-.5.2L42 34h-1.8c.2-.2.4 0 .7-.1.3-.1.8-.2 1.3-.1-.3-.2-.6 0-1-.1h-3c.2-.2.4-.1.6-.1l.8-.1h2.9M45.4 83.9h-7.5c-.5.2-1.2 0-1.7.1h-.5l-1-.1h-.8l-.6-.1 8.7-.1h2.2l1.1.1M45.6 85.3l.6.1H44v-.2l1.7.1M46.7 21.6h-.1c0-.1 0-.2.2-.2l-.1.2" fill="#fff" fill-rule="nonzero"/><path d="M47.3 20.9c.5.1 1 .2 1.4.5.3.2.4.8.9.9l-1 .5-1.4-1-.3-.3-.1-.1v-.5h.5" fill="#811236" fill-rule="nonzero"/><path d="M49.5 84.9c-.2.1-.9 0-1.1.2h-.6c.2-.3.9 0 1.2-.3h.5M49.8 84.8v.1z" fill="#fff" fill-rule="nonzero"/><path d="M50.2 29.1v1.3L50 29z" fill="#811236" fill-rule="nonzero"/><path d="M50.3 31.4h.1v.4h-.3v.2l-.6.4c.2-.5.6-.7.8-1M50.6 32.8v1h-.1l-.1-.2v.2c0 .3.3.3.2.5h-2.5c0-.3.2-.3.4-.4l1.3-.7c.3-.2.5-.1.7-.4zM50.9 30.2v-.3c.2.2.2 1.2.2 1.4l-.1-.1c0-.3-.3-.7-.1-1M51 24.3l-.1 2-.1.1c-.1.3 0 .6 0 .8-.1.4 0 .9-.2 1.1v.3a.5.5 0 0 1-.1-.3c-.2.2 0 .6-.2.8v1.4h-.2a1 1 0 0 1-.6.4l.2.2c-.1.3-.4.4-.6.6L47.7 33l-.5.4-1.3.6h-.1c-.2-.3-.4-.8-.7-1 .3-.2.7 0 .8-.3v-.3l-1.7-.2v-.5l.2-.2v-.4c0-.3 0-.8.2-1v-4.6l.1-1v-1l.3-.6.2-.2v-.3l.4-.4c.7.1 1.1-.1 1.6-.4l1.4 1 .8.8.3.3v.3l.4 1.4h.1v-1.2h.8zm-.9 6 .1-1.2H50v1.3M51.3 24.2v.7c0 .3 0 .6-.2.7l.1-1.4zM51.6 35l-1-.2h-.1c.3-.1.8-.2 1 0 .1 0 0 0 0 .1M51.6 35.1c.4 0 .8 0 1 .2v.1c-.4 0-.8 0-1-.2M52.2 30V31l-.2.5-.2-.2-.1-1.2v-.6c-.2-.7-.2-3 0-3.6v-1l.2-.4V24a.6.6 0 0 1 0-.1c.4 0 .3 1.5.3 2v4M52 57.1h.1zM52.9 57.1h-.7.7M53 79.9l.2.1H53v-.1M53.2 58v-.1h1.3-1.1a.5.5 0 0 1-.2 0" fill="#fff" fill-rule="nonzero"/><path d="m51.2 36.1 2.4-.1 1 .5c-.4.2-1 0-1.3 0H40.6c-.4.2-1 0-1.4.1l-1 .1h-.7l.1-.1v-.3h-4.9v-.1c.3-.2.8-.1 1.1-.2.9-.3 2.4-.1 3.7-.1H39c.4 0 1 0 1.2-.2v-.2h-1.5v-.1c.3-.2 1.7-.1 2-.2h2.7l-.1-.3h-4.9c-.4.2-1.4 0-1.7.2h-6a.6.6 0 0 0 0-.1h.8v-.2h9.8c1.5 0 3.1-.2 4.4 0l.3.1h4c.4.2.9 0 1.1.2l-.8.1-.1.2-1-.1h-.6a6.3 6.3 0 0 0-1.3-.2l-1.7.1h-.2v.3h.3c.4.2 1 0 1.3.1h.7c-.4.3-1.3.2-2 .2h-1.4v.2c.4.3 1.9.1 2.4.1zM53.3 29zM53.4 28.3c.2.5 0 1.5 0 2.2h-.2l-.1-.3v.6a.4.4 0 0 0-.1.1c-.2 0-.2-.3-.1-.4v-6l.1-.1.3.1c0 .5.2 1.2 0 1.8v1a7 7 0 0 0 0 1.6v-.5zm-.2.7zM53.7 87.2h.3v.2h-1.7v-.2h1.4M54.9 91.4a1 1 0 0 1-.3 0v-.1h.1l.3.1h-.1M55.9 91.3c0 .2-.1.2-.2.2h-.5v-.1s.2 0 .2-.2l.4.1zM56.3 33c0 .7 0 1.4.2 2 0 .2.2.7.1 1a2.7 2.7 0 0 1-1-.4l.2-.5V35l.2-.5v-7l.2-1.2h.1v6.9M56.2 36.5l.4-.2h.1c0 .2 0 .2-.2.3l-.3-.1M58.3 69.4h-5c-.4-.1-1.3 0-1.6 0-.3 0-1.6 0-1.7-.2v-.1h4.3l2.6.1c.4.2 1.1 0 1.4.2zM58.4 69.5v-.1h.1zM58.6 69.4h.1-.1M58.8 69.4h.1zM59 69.3c.2 0 .2 0 .1.2v-.2M58 70.7h1.4v.2H44.1l-1.4-.1-1-.1H43c1.1 0 2.2-.2 3.1 0H58M59.3 69.3c.1 0 0 0 0 .2v-.2M59.5 69.4c.2 0 .1 0 0 0M61.5 36.4 60 37h-2.2c0-.2.2-.2.3-.3l1.6-.8H61v.3l.5.1zM63 38.4h.7v.1l-1.2.2v.3H39.9c-.3-.2-1-.1-1.6-.1h-2.1l-.8-.1h-2a2.8 2.8 0 0 0-.7-.2h-1.5v-.1H55zM64.3 84.9h-2l-.6.1-.1.1h-1.8c1-.3 2-.3 3.2-.3h1.3zM63.9 32.1c0 .4-.3.2-.4.4-.2 0-.3-.5-.6-.3-.1.1 0 .3-.2.5l-.4.2-.4.4-.7.4-.5.4c-.1.1-.3 0-.5.2l.1.2c0 .3-.3.3-.5.4l-.7.3h-1a2.8 2.8 0 0 1-.8.1v.1h.5v.1l-.6.5-.2-1.4-.1-.8v-7.4c0-.8-.2-2.4.2-3h1.4c.4 0 .4 0 .5-.3h.4v-.2h.6l.5-.3.1.2c.3 0 .7-.2.8-.3h.1l-.3.3H61l.6-.1h.2l-.2.2h.3a.3.3 0 0 0 .2-.2v-.3l-.2-.2V22h.6l.6.8 1 1.1v1.9c0 .7.2 1.6 0 2.3v.8c0 .5 0 1.2-.2 1.6v.3c0 .5-.1.5-.4.6a2.3 2.3 0 0 0 0 .5l.3.2M64.5 58H66h-1.5zM65 85.2h-.5V85h.5v.1M64.8 87.8h1v.1H63a.4.4 0 0 1 0-.2l2 .1M64.2 33.8c.3-.1 1.6-.3 1.9 0H65l-.7.1h-.5c.1-.2.3-.1.5-.1M65 32.6l1.1.3c-.2.2-.8 0-1 .1h-.2l-.2-.2.3-.2M66 31.5l.1-.1c.2 0 .3 0 .2.2l-.2-.1M66.3 27.9v.8c-.2 0-.2-.7-.1-.8zM66.5 24.2v-.5h.1v.5M67.7 85.4v.1h-1v-.1h1M67.2 58h.3-.3zM68.1 81c.1-.1.1 0 .1 0zM68.3 81v-.1M68.5 80.2s-.1 0 0-.1v.1M68.5 80.9" fill="#fff" fill-rule="nonzero"/><path d="M68.4 21.1c.4-.1.5-.4.7-.7l.8-.5 1.1-.3c.3 0 1.1 0 1.4.2l.3.2h.1l-.3 1a1 1 0 0 0-.5-.1l-.1.1-.5.2-.2.2a5.6 5.6 0 0 0-.3 0l-.1.2h-.2l-.5.4-1.5-.1-.2-.7z" fill="#811236" fill-rule="nonzero"/><path d="M68.7 59.7v.2l-.7-.1h.7M69.6 84.8v.3h-1.1v-.2h1.1M72.2 35h.7c-.3.2-.8 0-1.1.1-1 .2-2.3.2-3.6.2v.2H71a6 6 0 0 1-1.5.2h-1l-2.4-.1-1.8-.1-1.8-.1h-1.6l1.1-.7 1.1.1h1.7l2.7.1h1.5c.4.1 1.3 0 1.6 0h1.7M73.9 28.5v3c-.1.2-.4.3-.7.4h-1a.3.3 0 0 0 0 .2h-.6v.1l-.3.1v.1H71c-.1.1 0 .2-.2.3h-.1l-.6.2-.8-.3-.6-.1-.6-.3-.7-.1a3.5 3.5 0 0 1-.6-.3V28a6 6 0 0 1 0-2.3v-.3l.2-1v-1.6l.3-.1.3-.3c0 .6-.3 2 0 2.4v.2l.2-.5V23.3h.2c.1-.3 0-.9.2-1.2l.3-.2c.3 0 1.2.2 1.5 0 .2 0 .4-.2.5-.3h.2l.1-.1a2.8 2.8 0 0 1 .3-.1 3.3 3.3 0 0 0 .2-.2c.1-.1.3 0 .4-.2l.2-.1h.5a.6.6 0 0 1 .2.1c.3.2 0 1.5 0 1.9v4.6c0 .3.2 1.5 0 1.7l.1.4.2-.1v-8.3l.3.4.4.3c.3.3.2 1.3.2 2v4.6M94.6 88.8l.3.4v.4h-.4l-1 .1-1 .1c-.6.1-1.2 0-1.7.2-.6.1-1.1 0-1.5.2-.2 0-.1-.1-.3-.2-.3-.1-1.3 0-1.5.1h-.9l-.2.2-.8.1a6.8 6.8 0 0 1-1.5.2H65l-1-.1h-.6l-.9-.2h-1c-.2-.1-1.4-.2-1.6 0h-.3v.1l-.5.2c-.7 0-1 .1-1.4-.3h-.2l-.2.3h-5.7v-.2l1.9-.1h.4l1-.2h.5c.4 0 .8 0 1.2-.2h.9c.6-.2 1.5-.1 2.1-.3h1c.6-.2 1.6-.1 2.2-.3H64c.4-.2 1-.2 1.4-.2h2.5a2.3 2.3 0 0 1 .5-.1 8 8 0 0 0 1.8-.2H73c.3 0 1.4-.2 1.6 0l-.9.1-1.8.4-.6.1v.1a4.3 4.3 0 0 0 1-.2h.4l.4-.1h.4l2.7-.4h.8c.7-.2 1.6-.1 2.4-.3h11.5l1.3-.2H94l.6.5M74.8 30l.1 1.2c0 .2-.1.1-.3.2h-.2V22h.1l.2.1v1l.1 2.7V29.7h-.2v.1l.2.2" fill="#fff" fill-rule="nonzero"/><path d="M75.5 21.6c.5.4 1 .6 1.2 1.1a1 1 0 0 1 0 .7 2.6 2.6 0 0 0-.2.2l-1-.3a2 2 0 0 0 .1-.3l-.2-.1v.1h-.7a15 15 0 0 1 0-.9h-.2z" fill="#811236" fill-rule="nonzero"/><path d="M75.4 28.3c.4.9 0 2 0 3h-.1v-3.1a.2.2 0 0 0 .1 0M75.4 23.5v-.6l.2.1a1.2 1.2 0 0 1 0 .3 1 1 0 0 1-.1.2zM76.1 47.5h-.5a7.8 7.8 0 0 1-1 0H66c-1.7 0-3.3 0-4.6-.3h-.5l-1.1-.1c.2-.2.8-.1 1.1-.1H70.3l.9.2h.4l1.9.1h.8c.4.1 1.5.2 1.8.1v.1zM75.5 33.4h1.2v.1c-.2.1-1 0-1.1.2h-.2v-.2h.1M77 69l-.2-.1h.2M76.9 27v-.3a.2.2 0 0 0 .1 0l.2.4H77l-.1-.2M77 27.4h.5v.1H77v-.1" fill="#fff" fill-rule="nonzero"/><path d="M69 69.6h11v.8h-2l-.1.1v.7a5.7 5.7 0 0 1-1-.1L76 71h-.8c-.8-.3-1.6-.2-2.5-.4h-3.3v-.3h-.5z" fill="#811236" fill-rule="nonzero"/><path d="m80 91.2.3.1a.5.5 0 0 1-.3 0M79.3 78.6h.8l.3.2.6.2c-.4.2-1.2.1-1.8.1l-1.3.1-1.6.1h-1.7v.2h1.7l.9.1c-.5.2-1.4.1-2 .1h-4.3l-1.5.1h-2.7l-.2.1v.2a6 6 0 0 1 1.6 0c-.3.2-.8.1-1.2.1H59c-.7 0-1.5.2-2.1 0H54.5V80h1.4l.5-.1c-.2-.2-.6 0-1-.1h-1.6a6.9 6.9 0 0 1-.8-.3l-.5-.1-.2-.2h-.5l-.3-.3H50c-.4.1-1.2-.2-1.5 0l-2 .1v.1c.8.2 2 0 2.7.1l1.1.1h.8l.4.3h.5l.2.1h.5v.1a4 4 0 0 1-1.6 0h-.9l-.5-.1H48c-.7-.2-2-.1-2.7-.1h-2.7l-.6-.1c.3-.2.7-.2 1-.2.1 0 .2.2.3.1l.2-.2h1a.6.6 0 0 1 .1 0V79c-.5-.2-1.7-.2-2.3 0h-7.5l-1-.3h-1l-.7-.1v-.1h11.4l.2-.2V78H31.7l-3.4-.1-1-.1a.6.6 0 0 1-.2 0v-.2l9 .2h3.6c.7-.2 2 0 2.8 0h28.5a5.8 5.8 0 0 1 1.2 0h.8c.7.2 1.4.1 2 .3h1.5c.9.3 1.9.2 2.7.4M80.7 70.5h-2.8 1.7l.4-.1h.2l.5.1M79.7 77.9h.8v.2l-.8-.1a.6.6 0 0 0 0-.1M83.6 78.8c-.4.1-1.2 0-1.5.2h-.2V78.7c.5 0 1.2-.1 1.6 0M82.5 47.6c.5 0 1.3-.1 1.6 0v.1h-3.3l-1.1.1h-.2l-.1-.2H82.5" fill="#fff" fill-rule="nonzero"/><path d="M84.2 60.4v.6H80c-1 0-2.5 0-3.4-.3H74.5c-.5-.2-1.2-.2-1.7-.3h-.4l-1.6-.1H70V60h-.4l-.8-.2h1c.3-.2 1-.1 1.2 0h1.3v-.2c1.9-.2 4-.1 5.7-.5h1v.2H80.3l.7.2h2l1.4.1v.5h-.1l-.1.2z" fill="#811236" fill-rule="nonzero"/><path d="M84.4 60.2c.2 0 .2 0 .2.2h-.4a1 1 0 0 1 0-.2h.2M83.2 84.8c.4 0 1.3-.1 1.6 0-.2.2-.5 0-.8.2h-1.3c-.5.2-1.1 0-1.7 0h-.8l-.3-.1v-.1l-.6-.1v-.2c.8 0 2 0 2.7.2h1.2M85.3 60.4c0-.1 0 0 0 0zM86 84.7s-.1 0 0-.1M86.9 29.4h-3.7v-.2l-.4-.2h1l1 .1 1.4.1h.7v.1M87.8 60.3v.1h-.3l.1-.1h.2M87.5 35.8c0 .3.2.2.4.3-.6 0-1.3 0-1.6-.3a.6.6 0 0 0-.2 0c0 .5.9.5 1.2.7h-1.8v.1l.9.4h.4c-.3.2-.7.1-1.2.1h-6.8c-.2-.1-.5 0-.8 0a2 2 0 0 1-.6 0c-.5-.2-1-.2-1.6-.2H61c0-.2.4-.3.5-.3v-.4H71.4c.5-.1 1.2 0 1.8-.2l2.2-.1c.6 0 1 0 1.3-.2h10.9" fill="#fff" fill-rule="nonzero"/><path d="m89.5 40.2-1 .1h-5.9c-1 0-2.3.2-3.2 0h-2l-.6-.1V40c.3-.2 1.5 0 2 0 .2-.2.6 0 1-.1.5-.2 1.3-.1 2-.1H89.4v.3" fill="#811236" fill-rule="nonzero"/><path d="M89.5 33.8H89c-.5.2-1.2.2-1.9.2H80l.2.2h-1.3a2.4 2.4 0 0 1-.6 0l-.8.1h-4.2v-.1l1.1-.1h.6l1.2-.2c.4-.1.8 0 1.1-.2l-.1-.2h5.3c.6.2 1.4 0 2.1.1h4.1l1 .1s.1 0 0 0a.4.4 0 0 1-.1.1M89.7 56.3H77.3l-1.8-.1h-.9l-1.5-.1h-.6a2 2 0 0 1-.1 0v-.2h6.9l.1.1h1.5l3.7-.1H87c.5.2 1 0 1.5 0 .5.2 1 0 1.3.3M88 48.7h2.4c-.2.2-1.1 0-1.3.2l-1-.1v-.1M89.4 28.9h.7v.1h-.5c-.3 0-.9.2-1 0h-.9a.6.6 0 0 0 0-.1zM90.2 47.7l.8-.1a.5.5 0 0 1 .2 0c0 .2-.1.2-.2.3h-.9v-.2M90.6 69.4h.1M88.5 68.3c.7 0 1.7 0 2.2-.2h.1v.1l-.2.2h-1.4l-.6.1h-4v-.2h1.7zM89.8 30.3l1 .1s.1 0 0 0a.6.6 0 0 0 0 .1l-1 .1h-2.1c.9 0 1.3-.3 2.1-.3M88.6 59.3l2.2.1.6.1-1.2.1H87l-1 .1H83c-.4-.2-1 0-1.3-.1H81l-.7-.1-.7-.1H79v-.1H88zM90.8 74.4h.5v.2a.9.9 0 0 1-.5 0v-.2M90.8 36l.7.2a.6.6 0 0 0-.1 0h-2.8c.2-.2.3 0 .5 0l1.7-.1M91 80.3l.2-.4h.2l-.2.4H91zM91.4 37.9H47.8a21 21 0 0 0-3.5 0H35.9l.2-.1v-.3H78a1317.5 1317.5 0 0 1 10.6.3h2.8M90 71.1c.5 0 1.3 0 1.5.2v.1H86.8c1.3-.1 2-.3 3.3-.3" fill="#fff" fill-rule="nonzero"/><path d="M91.8 33.4c-.2.5-1.5.7-2.3.8v-.4h.2v-.1h-3.8l-1.4-.1h-2.1c-.5-.2-1 0-1.5-.1H77l.1.2c-.3.1-.7 0-1.1.2-.3 0-.8 0-1.2.2h-.6a5.2 5.2 0 0 1-1 0l-.1.2h.5l-.7.7h-5.6c-.8-.3-1.8-.2-2.7-.2H63l-1-.1-1.2.6h1.1l.5.1 1.8.1 1.8.1h3.4v.6h-8l-.3-.1-.1-.2h-1.2c-.3-.1-1.4.5-1.7.7l-.3.3H60l1.5-.5v.2c-.2 0-.6.1-.6.3h15l1.5.1h.6v.4H73.2l-1.1.1H37.5v-.8H39.2c.4-.2 1 0 1.4-.1h14v-.1l-1-.5c-.6.2-1.6.1-2.4.1h-4.5c-.5 0-2 .2-2.4 0v-.2l.7-.1h.8l2-.1c-.2-.1-.6 0-.8 0l-1.3-.1h-.3v-.3l.2-.1h3l.6.1c.1 0 .8.2 1 0l.1-.1h.9V35L50 35c-.8-.2-2.2 0-3.1 0h-1l-.2-.1.2-.8 1.3-.6a1.6 1.6 0 0 0 .4-.3V33l1.5-1.4c.2-.2.5-.3.6-.6-.1 0-.2 0-.2-.2.3-.1.5-.3.6-.5 0 .2 0 .1.2.1v-1.4c.2-.2 0-.6.2-.8v.3l.1-.3c.2-.2 0-.7.1-1.1v-.8l.2-.2.1-1.9h-.8v1.2c-.3-.3-.3-1-.4-1.4v-.3a6.2 6.2 0 0 1-.4-.3l-.8-.7 1-.5h.2v.2c.4.1.8.4 1 .7l1-.8.2-.3h.2v-.2a2.5 2.5 0 0 1 .5-.4h-.2v-.2c-.2 0-.1.1-.2 0l.4-.4-.3-.1c0-.1 0-.2.2-.2H54.4l.6-.2c.4-.2.9 0 1.3-.1l.5-.2h.9c.7-.2 1.8 0 2.6 0s1.5-.2 2 0c0 .1.2.4.4.4l.6.2c.3 0 .7-.2 1-.1l.2.2v.2c.2.1.6 0 .8.2l1.4.6h.6l.6-.3.5-.3.2.7s-.2 0-.3.2c-.2.3 0 1-.2 1.3l-.1-.1c-.1.2 0 .5 0 .8-.2.1-.1.3-.1.4l-.2.5v-.2c-.3-.5 0-1.8 0-2.4l-.3.3s-.2 0-.3.2v1.5l-.2 1v.3a6 6 0 0 0 0 2.4v3.7l.6.3h.7l.6.4h.6l.8.4.6-.2h.1l.2-.2h.2v-.2a.6.6 0 0 0 .3 0v-.1h.3V32h.3V32h1l.8-.5c-.2-.9-.1-2-.1-3v-4.7c0-.6 0-1.6-.2-2 0 0-.3 0-.4-.2l-.3-.4v8.3h-.2V23c0-.4.2-1.7 0-1.9a.6.6 0 0 0-.3 0l.3-1 .6-.2 1 .2.6.6c0 .3 0 .5.2.7l.3.3-1 .4v2.7l-.2 6.7h.3c.2 0 .3 0 .3-.2h.3v.1h.2l.3.6v.1h.2c0 .2.4.1.5.2-.5.3-1.6 0-1.9.4a1 1 0 0 0 .3 0h2.3l.3.1h1.4l.4.1H88c.4.2 1 .2 1.5.2l.3-.2c.2.2 1.5.1 1.9.1zm-15 0h-1.3v.1a.9.9 0 0 0 0 .2c.2-.1 1 0 1.3-.2m-10.6-4.8c.1-.2 0-.6 0-.8-.1.1 0 .8 0 .8m.1 2.9c0-.1 0-.2-.2-.2v.1l.2.1m.3-7.9v.5-.5zM65 34l1.2-.1c-.3-.2-1.6-.1-1.9 0h-.5l.5.1h.7m.2-.9h1l-1.1-.4-.3.2c.1 0 0 .2.2.2h.2m-2.2-.8c.4-.2.4.2.6.3.1-.2.4 0 .4-.3l-.3-.3v-.5c.3-.1.4-.1.4-.6v-.3L64 29v-.8c.3-.6 0-1.6 0-2.3 0-.6.2-1.3 0-1.9-.2-.4-.7-.8-1-1.1l-.5-.8H62a.7.7 0 0 0 0 .1l.3.3v.3a.3.3 0 0 1-.3.2h-.3l.2-.1-.2-.1-.6.1.5-.2-.2-.1c0 .1-.5.3-.8.3v-.2a3.4 3.4 0 0 1-.6.2l-.6.1v.1l-.4.1c-.1.2-.1.3-.5.3l-1.4.1c-.4.5-.2 2.1-.2 3v8.1c.2.4.2.9.2 1.4h.1l.6-.5v-.1h-.5v-.1l.9-.1h.9l.7-.3c.2-.1.5-.1.5-.4v-.2l.4-.2.5-.4.7-.4c.2 0 .3-.3.4-.4l.4-.2.2-.5M56.5 35a8 8 0 0 1-.2-1.8v-6.9h-.1l-.2 1.2V34.4l-.2.5v.2l-.2.5a2.7 2.7 0 0 0 1 .3v-1m0 1.4-.4.1.3.2c.1 0 .2 0 .2-.2h-.1m-3.2-8-.1.5v-2.7c.2-.5 0-1.2 0-1.7l-.3-.1v2.8c-.2.5 0 1.3-.1 1.8V31a.5.5 0 0 1 .2 0V30v.4h.2c0-.7.3-1.8 0-2.2m-.7 7.1c-.2-.2-.6-.3-1-.3v.1l1 .2m-.4-4.4v-5c0-.6.1-2-.3-2.1v.7l-.2.4v1c-.2.6-.2 2.8 0 3.6V31.4l.3.2.1-.4.2-.1a1 1 0 0 1 0-.1m-1.4-1a.8.8 0 0 0 0 .2c-.2.3 0 .7 0 1h.2L51 30m-.5 4.9 1 .1s.1 0 0-.1c-.2-.2-.7-.1-1 0zm.6-9.2.1-.7.1-.7c-.2.1-.3 1-.3 1.4h.1m-.6 8.3c.2-.2.2-.8 0-1.1-.2.3-.4.2-.7.4l-1.3.7-.5.3h2.6c0-.1-.2-.1-.2-.4v-.2l.1.3m-.2-2.5c-.2.3-.6.5-.9 1h.1l.5-.4.1-.3h.3v-.3z" fill="#811236" fill-rule="nonzero"/><path d="M91.6 81.4c.3 0 .8 0 1-.2h.7l-.1.3h-3.1c-.3.2-.6 0-.9.2h-.6l.1.3H82l.9-.2h1.8l.7-.2h.8c.4-.1 1.4 0 1.7-.2H89V81h-2.4c-1 .3-2.1.2-3 .4h-1.2c-.3.2-.6 0-.7.2h-.1v.3c-.6.2-1.8 0-2.5.3h-.8l.1.2h.6c.3-.2 1 0 1.3-.1H86c1 0 2.5-.2 3.2.1h.5c.4.1 1 0 1.3.2h.4V83h.2v.1h-1.2c-.2 0-.3 0-.3.2l-1 .1h-1.7l-.7.1h-.1a.6.6 0 0 1 .1-.2V83h-8.1c-.7-.2-2 0-3 0H54.7c-.5 0-1.1-.1-1.6 0h-2.3c-.5.2-1.1.2-1.6.2h.7l1.4.1h.6c.5.2 1.2 0 1.8 0h.5c.5.2 1.2 0 1.8.1h3.5c.5.2 1.3 0 2 0l3.8.1H86h-1l-2.1.1h-1a6.5 6.5 0 0 1-1.4.1H80l-.1.1H67.5l-1.2.1h-6c-.5.2-1.2 0-1.7 0-.5.2-1.1.1-1.6.1h-3v.1h6.2c.6 0 1.5 0 2 .2H73v.2h-.4v.2h-1.9v-.2h-2l-1 .2-1.6.1H65.2a.7.7 0 0 0 0-.3h-4.4l-.8.2h-2.7l-.2-.2H53.3c-.4 0-.9 0-1.1.2-.4 0-.5.1-.7-.1-.2-.2-.7-.1-1-.1l-2.5.1h-.4c-.9.3-2.2.1-3.2.1-.7 0-2 .2-2.7 0h-2.2c-.4-.2-1-.1-1.4-.2l-1-.1H37a.2.2 0 0 1 0-.1h12.3a.5.5 0 0 1 .1-.1V84c-.6-.2-1.4-.1-2-.1h-.7l-.3-.2c-.6-.3-1.3-.2-2-.4H29a2.5 2.5 0 0 0 0-.2l-.8-.2h-5.6c-.3-.1-1.3 0-1.5-.2h21.2l2.5-.1h5.6c.5-.2 1.3 0 1.6-.2h.1a.5.5 0 0 1 0-.2h-3l-.6-.1H19c-.2 0 0-.2-.2-.3l-.5-.2-.1-.2h-.9V81a.8.8 0 0 1 0-.2h12a8.2 8.2 0 0 0 1.8 0H58.9l1.5.1c.5.1 1.2 0 1.6 0h1c.6 0 1.3 0 1.8.2h.7c.6.1 1.3 0 1.8.2h.7l2.6.1h.8c.8 0 1.8.2 2.4 0a.6.6 0 0 0 0-.4h-5a.4.4 0 0 1-.2-.1c.2-.1.5 0 .8 0l1.6-.1h6.8c.2 0 .4-.1.8 0h4.1c.3-.1.6 0 .8 0H90l-.7.3v.2c.6 0 1.7-.2 2.3 0M92.4 32.4c-.4.2-.4.1-.6.5h-1.9l-.3.1-1.5-.1h-8.9l-.4-.2h-1.4l-.3-.1h-2.3a1 1 0 0 1-.3 0c.3-.4 1.4-.2 1.8-.4L76 32h-.2a.9.9 0 0 1 0-.2l5 .1 1.4.1h2.2c-.7 0-1.1-.2-1.7-.3l-.6-.1-.2-.2-1.7-.1h-.4l.1-.2h.5l.6-.2h.1c.1-.3 1.5-.3 2.1-.3h.7c-.1.2-.5.2-.8.2v.1h.2l.6.1v.1c.7 0 1.4.1 2 .3H88l.2.2h2c.3 0 .3.3.5.5 0 .2 0 .3-.3.3.1 0 .7.2.8 0l.6-.1h.2v-.2a.7.7 0 0 1 .4.2M92 74.7h.2-.1M92.7 83l-.2.2a1 1 0 0 0-.4 0v-.3h.5zM92.2 90.5h-.3.2M92.5 31.5v.4h-.3v-.4h.3M91.9 87.6c.6-.2 1.2-.1 1.7.2v.1c-.6.2-1.6 0-2.3.2h-.7c-1 .3-2.5.1-3.6.1h-6.8a678.9 678.9 0 0 0-3.5 0l-1.4.1h-2.9v.2c-.4.2-1.4 0-1.9 0h-1c-.5.2-1.5.3-2.1.3h-2.2c-1 .2-2.2 0-3.1.3h-.5l-.6.1h-.5c-1 .3-2.2.2-3.1.4h-.5l-1 .2h-.6c-.7.2-1.6.1-2.2.3h-.8c-.5.2-1.1.2-1.6.3h-1.9c-.6.2-1.5.2-2.3.2h-9.2c-1.3 0-2.6 0-3.7-.2h-6.5a5.6 5.6 0 0 0-1.4 0c-.7.1-1.6 0-2.2.2h-1.2c-1.3 0-2.2-.2-3.2-.3a.6.6 0 0 0 0-.1h1.5l.6-.1.1-.1a.3.3 0 0 1 0-.1l-1.3.2h-.6l-2-.1a.6.6 0 0 1 0-.2 11 11 0 0 1 2.5-.1l-.6-.1h-2.6a.6.6 0 0 1 0-.1h1.4-.7l-.7-.2c.1-.2.3-.2.5-.2-.2-.1-1 0-1.2.1h-.3c0-.3.1-.4.2-.5h4.6c.9-.3 2-.2 3.1-.2h13.5c.6-.3 1.5-.1 2.2-.3H41c.3-.2.7 0 1 0h.5V88h-.7v-.1c2 0 4.1.2 5.6-.2H59c.6 0 1.3 0 1.9.2.4 0 1.5-.2 1.7 0-.2.2-.6 0-1 .1l-2 .2H46.3v.2l8.2.1H59.8c.6 0 1.4 0 1.9-.2h8c.6-.2 1.4-.1 2-.1h.5l.9-.1c1.1-.4 3-.1 4.4-.1l.3-.1h1.6c.3-.2 1.3-.2 1.6 0h2l2.3-.1H87l3.2-.1h.3zm-71 1.6-1.8.1H21zM92.5 33.8a1 1 0 0 1 0 .6h-3.1v-.2h.1c.8-.1 2.1-.3 2.3-.8h.2c0 .2 0 .7.2.8.3 0 .2-.1.3-.3M93.2 69.1l-.1.2a7.4 7.4 0 0 1-1.3.1h-1c.4-.2 1.5 0 1.9-.3h.5M92.6 90.5h.1l.1-.1h.1v.2h-.2v-.1M91.5 72.1c.7 0 1.6 0 2.1.2-.6.3-2.1-.2-2.7.2.1.2 1 0 1.2.1h1.3v.1H89l-2.2.1h-.9c-.4.1-1 .2-1.2 0h-.2l.8.5H92l.2.3h.4v.1H92c-.4.2-1.7.2-2.3.1H89c-.2 0-1.3-.2-1.5 0l-.1.1v.1h.7c.5.2 1.4.6 2.1.4l-.2.2h-.7v.2h1.1l.8.3h.3l1 .4c-.2 0-.3 0-.4.2l.7.6c-.8 0-.5 0-.8.5 0 .3.2.4.4.7l.3.6v.2c-.3.2-.6 0-1 .1-.7.2-1.6.1-2.3.3h-1.9l-.2-.2h-.6v-.3l-2.3-.1h-1.8L82 78h-.5l-2.6-.5H40.5l-7.5.1h-5.1l-3.3.1h-4v-.2H23l.7-.1H25a.6.6 0 0 0 0-.2h.7l1 .2H31c.7-.2 1.7 0 2.5-.1V77c.5 0 1 .1.9-.3h-5v-.2h1.3a7.4 7.4 0 0 1 1.2-.2c-.3-.2-.8-.1-1.2-.1h-2.2l-1-.1H27l-.1-.3-.5-.2-.6-.1h-.5l-.3-.3h-4.7l-.3-.3-1-.5v-.6h1.2a.5.5 0 0 1 .1-.1c0-.3-.2-.2-.3-.3.3-.3 1.3-.2 1.7-.1l.4-.1c.7.2 1.5 0 2-.2h.7l.4-.1c0-.2-.1-.3-.3-.3h3.3l1.2-.1 2.7-.1v-.2l-1.4-.1H30l-.2-.1h-.6l-1.3-.1h-5.1v-.2c-.8 0-1.9.1-2.3-.1v-.1h2.3a9.6 9.6 0 0 1 2.2-.3l-.6-.2a.8.8 0 0 1 0-.1h1.8l1-.2-1-.1v-.1h7c.5.1 1.3 0 1.6 0h2.4l-.1-.1h1.6l2.6.1H52c.6-.2 1.2 0 1.7 0l1.5-.1h10.7c.4-.1 1-.2 1.5 0l1.6-.2h.4v.4h3.4c.9.2 1.7.1 2.5.3h.8c.3.2.6 0 1 .2l1 .1H82c.7 0 1.1.1 1.4-.3 1 0 2.5-.4 3.2 0l1-.1h.7l-.3.3h-1.2c-1 0-2.1-.2-3 .1-.5.1-.7 0-1 .3l.2.2 1.4.4H88c.9 0 2.2-.2 3 0zm-32-1.2v-.2H48.5a3 3 0 0 0-.5 0h-2c-1-.2-2 0-3 0h-1.3 1c.3.2 1 0 1.3.1h9.4c.5.2 1.4.1 2 .1zm-18.2 0c-.2-.2-.5-.1-.8-.2-.9-.2-2.1 0-3 0h1.1l2.7.1m-5-.1h1-1zm.8.2c-1 0-1.8-.3-2.8-.2h.8c.6.2 1.4.3 2 .3zm-8.9 1.8-1 .1H27h.3c.2 0 .7.1.8 0M93.7 79v.2c-.2.2-.9.1-1.2.2-.5.1-1.1 0-1.6.2l-1.2.1h-8.4c.2-.2.5-.1.8-.2l1.8-.2h.5l.1.2.7-.1h.7c.3-.1.5 0 .8 0a3 3 0 0 1 1 0h3.9c.2 0 .3-.2.3-.4.5 0 1.2.2 1.5 0a.8.8 0 0 1 .3 0M93.4 67v.2h-.8l-1.3.3c-.3 0-.5 0-.7.2h-.1c-.2.2-.5.1-.8.2h-2.3c-1 0-1.9.1-2.8.3H83c-.4.2-.8.3-1.3.3l.4.1c-.2.2-.6 0-.8 0l-1.4.4h-.5c.3.2 1.8-.1 2.1.1h4v.1h-.1v.1c.3 0 .4-.2.9 0h.4v.1h-1v.2H68.8l-2.7-.1h-4.6l-.3-.3c-.3-.3-1-.2-1.5-.4H48.2v.2c-.7.2-1.6-.2-2.3 0-.4.1-1 0-1.3.2H44c-1 .2-2.5.1-3.7.1H26.7l-1-.1-1.4-.1h-1.6c-.8-.2-1.7-.2-2.6-.2H17.8l.1-.3h1.4l.2-.4c1.2 0 2 .2 3.1.1H25.8l.9-.1a6 6 0 0 1 2-.1h14.7c.3-.2.7-.2 1.1-.2h-1l-1-.1H42l-2.7-.4-1-.1h-.6l-.6-.1h-.7c-.3-.1-.9 0-1.2-.2h-1v-.1c.3-.2 1.5-.1 1.8-.2l-1.7-.1H30.3c-1 0-2.3-.2-3.1 0-.2.1-.4 0-.6.2-.7.2-1.4.4-2.2.2l-.5-.1-.3.3h-1.4l.2.2h-3.2l-1.2-.1-.4-.1V67s.2 0 .2-.2c.7 0 1 .1 1.2-.3h5.7l.2-.2h.6l.3-.2h.7a2 2 0 0 1 0-.1l-1.3-.1H17.6v-.1l.5-.1.4-.1h1.4c.1 0 .4.2.6.1h8.7c.5-.2 1-.4 1.6-.4v-.1c-.5-.4-2.8-.2-3.8-.2H26c-.5 0-1.1 0-1.6-.2H24c-.3 0-.7 0-1-.2h-.9c-.3 0-.7 0-1-.2H19.3v-.1c0-.3-.2-.4-.4-.5.3-.3.7-.2 1-.4l-.2-.1v-.1h.3V63l-.5-.2H19v-.1l1.3-.2h.6v-.2h-.7v-.2h1.5V61.8h-3.8c0-.4 0-.4.2-.6.5 0 1-.2 1.3-.3h.4l.9-.1.8-.4-.2-.2-.6.2h-1.3l-.6.2h-.5l.1-.6h1l.4-.3h.7l.7-.3.1-.2h1.2c0-.3.2-.4.5-.5l.4-.2h1.6l1.4-.1h1.8c.5-.2 2-.3 2.5-.2h1.8l1.8.1h6l1.1.1h12.2c1.1 0 2.6 0 3.6-.2h.5c1-.2 2-.2 3-.2h7.1l.9.1c.2 0 .2 0 .2.3H78.2c1-.2 2.2 0 3.3 0h4.7v.1h-.9c-.7.3-2 0-2.8.2h-.8l-2.7.3h-1c-1.6.5-3.8.4-5.6.6a.7.7 0 0 1 0 .2H71c-.3-.1-1-.2-1.3 0h-.9l.8.2h.3l.1.1h.8l1.6.2h.4l1.7.2h.7l.8.1h.6c.9.3 2.3.2 3.3.2h4.6c.5.2 1.4.1 2 .2h1l1.4.1h1l1 .1 1.4.1c-.3.2-.8 0-1.1.2 0 .3.6 0 .8.2l.5.1-.7.1v.1h.7l.2.4h-.1l-1 .1v.2h2.2c0 .9-.4.5-.7.8v.3h-.2l-.4.1c-.2.1 0 .2-.2.4l-.4.3v.1c.2.3 1.5 0 1.8.2l-.1.2h-1.4.8v.1c-.2.1-.5 0-.8.2l-1 .3h-.4v.2c.3 0 1.2-.3 1.4 0h-.4l-1.5.4.2.1v.2h-.7a2.8 2.8 0 0 0 1.2.1v.1c.2.2 1.2 0 1.3 0 .3-.1.6.2.8 0h.3M77 69h-.2.2m-8.2-9-.1-.2H68c0 .2.6.2.8.2M23 66.8c-.1-.1-.7-.1-.8 0zM93.2 33.7v.7h-.1v-.8a.6.6 0 0 1 .1 0M93.3 32.8a1.3 1.3 0 0 1 0 .4h-.1l-.1-.3.1-.2h.1M93.2 83.1H93h.2M93.4 31.6h-.1zM93.3 37.4a.6.6 0 0 1 0-.1h.3v.1h-.2M93.8 41.7c-.2.1-.6.3-.7.6v.3c-1.3 0-2.3 0-3.2.2a1.8 1.8 0 0 1-.3 0c-.7.1-1.3 0-1.8.3v.2l-2.7.2h.1v.1a14 14 0 0 1-5.3.6H82l2.5.1h1c.2 0 .2.2.3.2h.5l1.3.2.5.1H76.5c.3.2.6 0 1 .2l1.1.1 1 .1c1 .3 2.5.2 3.8.2H86a97 97 0 0 1 2.3 0h.9v.1l-1.2.1h-1l-.2.3h-8v.2h6.3c.4.1 1 .2 1.3 0h2.1l2.8-.2h1l-.4.4c-.2.1-.3 0-.4 0H41.7V46l-5.5-.2H34c-.6.2-1.5 0-2.3 0h-5.5l-1.1-.1-1-.1h-.8v-.1l1-.2h.5l1.7-.1h1.9v-.1h-3.3V45h.2-2.2l-.6-.2c-.2 0-.6.2-.8 0h-.9.1l1.3-.2h-3.6v-.2l1-.2c.4-.1.6 0 .9-.2l.3-.1h1.8l1-.2h.8c-.2-.2-1 0-1.3 0-.9-.3-1.6-.3-2.6-.3h-1a1 1 0 0 1-.3 0v-.2H21l1.1-.1c-.1-.2-.7 0-1-.1-.4-.2-1-.1-1.6-.1H19l-1-.3.2-.3v-.3c0-.2-.4-.2-.6-.3h1l.1-.4c.4 0 .8.3 1 .6 0-.8-.6-.9-1.2-1.1l.4-.2.2-.3h3.6l.9.2c.5.1 1.1 0 1.6.2.5 0 1.7-.2 2 0h4.3c.5 0 1.5.2 1.8 0a.8.8 0 0 0 0-.2h-6.8l-1.4-.2h-.5l-1-.2H23a1 1 0 0 1-.5 0l.1-.2V40H22v-.1h-.6l-.7-.1v-.1c-.2-.1-.6 0-.7-.2h-.8v-.1c.4-.3 1.5 0 2.2-.1h2.8l1.5-.1h1.5c.4-.1 1.3 0 1.6 0H30l2.5.1H34c.4.2.8 0 1.2.1l.6.1h33.5l.1-.1v-.2c-1-.2-2.3.1-3.3 0l-.6-.1h-2.5v-.1c.3-.2 1 0 1.3-.2h3.3c.6-.2 1.3-.1 2-.1h9.3l.3.2h1.4c.4.2 1 0 1.4 0l.5.1c.4 0 1.3 0 1.9.2h1.1l1.1.1 1.1.2H89l.8.1a.6.6 0 0 1-.1.3v.3h1.2c0 .2.1.2.2.3l.1.1c-.2.2-.7 0-1 .1l-.8.1-.9.2.8.3c.3.1.8 0 1.1.2H92a5.3 5.3 0 0 0 1.7.2zM89.4 40l-.4-.1h-9.2l-1 .1h-2v.2H79.4c1 .3 2.2.2 3.2.2h5.9c.4 0 .8 0 1-.2l-.1-.2m-57.7 5.4H31h.7M93.7 60.9v.2h-.2v-.2h-.2.4" fill="#fff" fill-rule="nonzero"/><path d="M93.5 65.9a.5.5 0 0 0 0-.1l.4.1h-.4M93.6 69.1v.1h-.1V69zM93.5 71.5a.3.3 0 0 0 0-.1h.2a.8.8 0 0 1 0 .2h-.2zM93.8 61.9c0 .3 0 .5-.2.7h-.8v-.4l.6-.1-.2-.1h-.5v-.2l1 .1M93.7 61.5h-1.1v-.1h1.1v.1M93.7 55.5v-.1M31.5 52.4zM94 49.2v.5c-.3.2-1.3.2-1.8.2h-3.5c.3.2.8 0 1 .1l1.7.1h1l-.4.4h-1.8c.2.2.9 0 1.2.2H94v.4l-.9.1a3 3 0 0 1-.4.1H91.8h.2v.2h2v.9h-.6l-1.7.1c.4.2 1.8 0 2.1.2h.2a.7.7 0 0 1 0 .3l-2.4.1-.9.1h-1.3v.1h.7V53.7l.8-.1h3v.4c0 .1 0 .2-.2.2-.3.2-1.2 0-1.7 0-1.1.3-2.3.4-3.7.4-.6 0-1.9-.2-2.2 0v.2h2.4v.1l-1 .2H86c-1 .3-2.4.2-3.5.2h-4.7l-1.5-.2H70.9c-.3.2-.8.2-1.2.2H66.5l-1 .1h2.7c.5 0 1 .2 1.7 0h3.7c.5 0 1.1.2 1.6 0v.2h-8a4.3 4.3 0 0 0-1 0H62v.1c.3 0 .5 0 .6.2h1v.2h-2.8v.1H66c.8 0 1.9-.2 2.5 0h.9c.4.1.9 0 1.3.2h.6c.5 0 1 0 1.5.2h2.7l.9.1h1.2l2 .1h.8l1 .1H93.9v.8H64.7l-1.7-.1h-7.3l-2-.2H51.8l.1-.1H33.4a6 6 0 0 1-1 0c.1.2.5 0 .8.1H42.8a106.6 106.6 0 0 1 2.8 0h1.1v.1l-1.2.1H24l-.7-.4h-.7c-.6 0-1.6-.2-1.9 0-.2 0-.3 0-.3-.2H20c.2 0 .5-.2.7-.1 0 0 .3.2.5 0l.8-.2v-.1l.2-.2c0-.3-.3-.2-.3-.5h-4l-.3-.4c.4-.3 1.3-.2 1.8-.2H25V55l-4.8-.2-2.6.1v-.4a1 1 0 0 1 0-.4l.7.1h2.5c.5-.2 1.1-.3 1.6-.3v-.1h-1.8v-.1c-.2-.2-.4 0-.7-.1a3.1 3.1 0 0 0-.6-.1h-.7v-.1a.3.3 0 0 0 0-.1c.7 0 1.3 0 1.8-.2h2.7a20 20 0 0 1-1.5-.2H21l-1.6.1c-.4.2-1 0-1.4 0V53c.3-.2.8 0 1.2-.2h.2v-.1h2l.5-.2h.6c.7-.2 1.4 0 2.2 0h4.4c-.3-.2-.9 0-1.2 0-.5-.2-1.1-.2-1.6-.2h-1l-.5-.1v-.3c-.9 0-1.6.2-2.4 0h-2.1l-.3-.1-.6-.1h-1c0-.6.2-.8.5-1v-.4c-.1-.1-.5-.2-.3-.5a.6.6 0 0 1 0-.2c1 0 1.7-.2 2.4-.4.3-.1.6 0 .8 0l1.3-.1-1-.1H22l1.2-.1h1l-.1-.2h-3.2c-.5 0-.8 0-1.1-.2a.6.6 0 0 1 0-.1h2.9l1.6-.1h.6l.6-.1h1.2l1-.1h9.1l6-.2c1.3 0 3 .1 4-.3v-.2c-.4 0-.8.2-1 .3h-1l-2.2-.1h-4l-.1-.2h-2l-.1.1h-1v-.1c.8 0 1.5 0 2.1-.2H43.2V47H48.8l.8.2h3.8c.3.2.6.3 1 .3H59c.6.2 1.3.2 2 .3h.6c1.3.4 2.9.3 4.4.3H76.4c.5 0 1-.2 1.4 0H85c.2 0 .7.2 1 0h.8v.1c-.3.2-1 0-1.4.1l-1.6.2H82l-2 .1v.1c.3.2 1 0 1.4 0 .5.2 1.3.2 2 .2h2l.5-.2h1c.3 0 .7.3 1 .4h.9l.2.3h.8l1.1.1.7-.1H93c.1-.1.5-.3.7-.2h.3zm-41.8 8h.7-.7m0 0H52zM94 43.1a.6.6 0 0 1 0 .2 6.5 6.5 0 0 1-.6-.2l.6-.1v.1M93.9 69.3v.2a1.6 1.6 0 0 0-.1 0v-.2z" fill="#fff" fill-rule="nonzero"/><path d="M94 50.4h-1.3c.2 0 1-.2 1.3 0M94 82c0 .3.1.6 0 .8l-.6-.2h-.8c-.5-.2-1.1-.3-1.7-.3v-.1c.1-.2.5 0 .9 0 .6 0 1.8 0 2.1-.3h.1M93.8 45.2h.2v.1h-.2v-.1M94 29.5l-1.7-.2h-.7v-.1h.6l1-.2c.2 0 .7.2 1 .1l-.1.4M93.6 43.7l.3-.1h.1v.8c-.7 0-1.4-.1-2-.3h-1.7L88 44c.2-.3 1.2-.1 1.6-.2h1.1l2-.1zM94.2 61.7v-.2.2M94 28.1l.7.1c-.3.2-.7 0-1 0-.8 0-1.8.2-2.5 0h-8.9l-1.1.1c-.3 0-1.3 0-1.5-.2-.7-.1-1.2.2-1.6.3-.3 0-.6 0-.8.3h-.1l-.1-.5c.1-.2.5 0 .8 0l.3-.2c0-.2 0-.3-.2-.4h2a1 1 0 0 0-.3.2v.1c.3.1 1.3.3 1.5.2h.4v-.2l-1.2-.1v-.2H88c1.2 0 2.5 0 3.5.4h.8l1.7.1M94.3 64v-.1M94.6 43.2v-1 1M94.6 43.3a.3.3 0 0 0 0 .1v-.1zM95.4 90.3a.5.5 0 0 1 .1.3h-.8v-.1l-.5-.1c.2-.3.9 0 1-.2h.2M95.6 33.4c.1.2.1 1.4 0 1.6-.2-.3 0-1-.1-1.3v-.3h.1M95.9 49.6a1 1 0 0 1 0 .3 1.7 1.7 0 0 0-.4-.1v-.1l.4-.1zM95.9 53l-.1 1.5h-.2l-.1-.1.1-1.4a.8.8 0 0 1 .3 0M95.9 50v1.3l-.1 1.5h-.3v-2.5l.4-.3M95.9 55.3c0 .5-.1.3-.3.6h-.1v-1l.2-.1h.2v.5M96.1 46.6c0 .7 0 1.4-.2 2v.7l-.1.1-.2.1c-.2 0 0-1-.1-1.2v-3.1c0-.2.1-.2.2-.3l-.2-.3V43.7a3 3 0 0 0 .1-.2v-3l.3.1v2.5c.1.3 0 .6 0 .8v1.7l.2.5v.5M95.7 38.5zM95.7 38.4v.1zm.2-.1-.1 1.2a1 1 0 0 1-.3 0v-.8h-.1a.4.4 0 0 0-.2 0v-2.4l.3.2c.1.2 0 .3.2.4v1.4h.1zM95.9 56.2v.5h-.4V56h.4zM95.5 57.7h.6l-.1.4-.1.4H95.6a.4.4 0 0 0-.1 0V57.6M96.3 87.2a.9.9 0 0 1 0 .3h-.1v-.3zM96.4 39.8c.3 0 .8.3.8.5a5.9 5.9 0 0 1-.8-.5M96.5 32.3l.1-.1.2.1h-.2M96.6 91.6v-.2c.2 0 .2.1.1.2" fill="#fff" fill-rule="nonzero"/><path d="M97.3 36.8z" fill="#fff"/><path d="M99.6 83.5h-2.4l-1 .1h-.3V83H97.6c.5 0 1.7-.2 2 0v.4M98.2 31.2c.2 0 .3 0 .3.2H98v-.2h.2M98.7 34.5H98l-.7.2c-.2 0-.2-.2-.4 0l-.4-.2v-.3l.6-.1v.1l1 .2h.7v.1M96.7 79.5c.4 0 1.3-.2 1.7 0l-.2.1h-2l.5-.1M98.3 33H96.6v-.3l.4.1.2-.2h.1l1.1.1v.3M98 74.6h.5v.1a.8.8 0 0 0-.2.2h-1.6c0-.1 0-.6-.4-.3l-.2.3-.6.2v-2.3l-.2.1v-1a4.7 4.7 0 0 1 0-.9c.2-.6 0-1.6 0-2.4 0-1.6 0-3.6.2-5v-.3l.1-1.2c.1-.5 0-1.2-.1-1.6v-1.3l1.1-.1h1.2c.6.1 1.1 0 1.6.3V69l-.2 2.4v1.4l-.5.7h-.2c-.1.1 0 .2 0 .4l-.2.1-.3.6v.1M98.8 32.7v.3h-.2V32.7a.8.8 0 0 1 .2 0M98.8 37.8l-.2.2c-.1.3.2.8 0 1-.2-.2 0-.8 0-1.2-.2.1-.2.3-.4.3v1.2a3 3 0 0 1-.8-.3l-.2-.2c-.4-.1-.6 0-.8-.2v-.4c-.1-.5.2-1 .1-1.7V35h.4l.4-.2.5.1h.6v.1c-.4.1-1.1 0-1.4.2v.2c.3 0 1.3.3 1.6.1h.2v1.7zm-1.5-1v.4-.4zM99.1 55.2v1.5l-.2.2a8 8 0 0 1-1.8-.2h-.8v-.3l.8-.3c.2 0 .4-.3.6-.4l.5-.1c0-.1 0-.3.2-.4h.5c0 .1.1 0 .2 0zM98.8 74.4l-.1.1h-.1l.1-.2h.1zM98.6 76.8c.4-.1.6 0 .5.1l-.5-.1M98.1 86.2h1.2v.4l-2 .1h-.7v-.4l1.5-.1M96.7 80.9c.2-.2 2-.1 2.3 0l.1.3-.2.2-.2-.1H97a2.6 2.6 0 0 0-.7 0v-.4h.4M98.7 78.6v-.1zM99.4 87v.1c-.4.2-1 .2-1.4.3H97a.7.7 0 0 1 0-.2H98c.3-.1.7 0 .8-.2h.6M98.7 34h-1.3l-.8-.1v-.5c.2 0 .2 0 .2.2l1 .2h1a.6.6 0 0 0 0 .2M99.2 79.6a.8.8 0 0 1 0 .3h-.4c0-.2.3-.3.4-.3zM99.2 82.2a.8.8 0 0 1 0 .3c-1.2 0-2.7-.1-3.3.4 0-.3-.1-.7 0-.8l.4.1H99.2M99 74.2V74h.2l-.1.2M99 74.8v.1zM99.2 52.6v.7c-.3-.2-.1-.6-.2-1 0-.2-.2-.4-.3-.5h-.2c0 .1.2.2.1.3v.6c0 .3.2 1.3.1 1.5l-.2.3-.1.4c-.2.2-.4 0-.6 0l-.9.5c-.1 0-.3 0-.5.2v-.7l.1-.2v-.2h-.1v-.8a4.4 4.4 0 0 1 0-.8v-1c-.1-.2 0-.6 0-.8v-1.6l.2-.2v-.1h-.3v-.8l-.2-1.8V46l.2-.2v-4.5a1.3 1.3 0 0 1 0-.4c.6 0 1.3.6 1.5.9.3 0 .4 0 .5-.2l.1.3c0 .1.3.1.3.3.2.3.2.8.3 1.2v.5l.2.4v6.9zM99 75.5c.3 0 .5 0 .5.2H99v-.1M99.4 29.8v1.4c-.2-.2 0-.6-.3-.8l.2-.6h.1zM99.5 79v.1h-.2l-.1.4h-.4l-.1-.4c0-.2.5-.2.8-.2z" fill="#fff" fill-rule="nonzero"/><path d="M99.4 85.5a.8.8 0 0 0 0 .1c-.8 0-2.7.1-3 .4h-.3c0 .3.2.3.4.3l-.1.3h-.1v.1H96l-.3-1.1v-1.8l.7.1h3.1v.5l-1-.2h-1.9l-.6.1v.2h.7c.8.4 2.2 0 2.7.4v.1h-.9c-.5.2-1 0-1.6.2-.1 0-.8.1-.8 0v.4l1.6-.1h1.6M99.2 87.7h.2v.4H98v-.2c.3 0 1 0 1.1-.2M98.4 77.3l1 .2c.1.3.2.8 0 1a2 2 0 0 1-.7.1v-.1.1l-1.1.4H97l-.9.2h-.6a2 2 0 0 0 0 .1l.1.3v.3h1.5c-.2.3-.6.2-.8.3v.3l1.8-.1h1v1.4l-2.3-.1c-.3 0-.8 0-1 .2l-.1-.1-.1-1.5-.2 1.4v.6h-.1l-.1-1.2v-2.4l.2-1v-2h.7l.7-.1c-.4.3-.9.2-1.3.5V76.4a.9.9 0 0 0 .1-.1c.2 0 .2.1.3.3h.3c.4 0 .3.2.5.3h.5v.3l.4.1zm.7 4-.1-.4c-.3-.1-2-.2-2.3 0a1 1 0 0 0-.5 0l.1.3.7.1h2.1M99.5 82.3s.1.1 0 .2a1 1 0 0 1 0-.2M99.5 81.8a.6.6 0 0 0 .1 0v.4h-.1v-.4M99.8 85.5v-.1c.1 0 0 .1 0 .2M100 58.8c-.2-.2-.2-.9-.2-1.2l.1-.2v1.4M99.7 39h.3l.1-.3a.6.6 0 0 1 0 .1v10h-.2V43.5l-.1-.8v-1h.1c.2-.5 0-1.3-.2-1.5zM100.6 87.8h-.2v-.3h.1a.7.7 0 0 1 .1.3M100.8 42.8v-.4.4M101.3 26.9v-.2l.2.2v.1a.6.6 0 0 0-.2-.1M102 90.5h.4l-.9.7-.7.3H100.5c0-.3.5-.3.6-.5h.4l.4-.5M102.4 27.5h.3v.5c-.2 0-.3-.3-.4-.4v-.1h.1M102.8 87.5c.1.6.4 1.8 0 2.3l-.1-1.8a2 2 0 0 0-.3-.5h-.1v-1.2L102 85c-.1-.4 0-1.2-.2-1.5 0-.1 0-.1-.2 0l-.1.1h-.2v-4c0-.6-.1-1.5.2-2l-.1-.1c-.3 0-.2.5-.3.7h-.2v-.7l.2-.3-.1-.6-.2-.6v-.4l-.2-.4V75l-.1-.2V43.2l-.1-.7v-7.1l-.2-.1v-2.5h.1v.1c0 .2.3.2.5.2l.3-.7v-.9l-.2-.2c-.4 0-.4 0-.6.2v-2.1h.6a.5.5 0 0 1 .2 0l.1 1.2v.1h.2c0-.4.2-1 0-1.5l.8-.1.2-.2a1 1 0 0 1 .2-.4c.2.4.2 1.4.2 1.8-.3.2-.3.5-.5.7 0 .2-.3.2-.3.4v.3l-.2.5V32.5l-.2.2v1c0 .3.2.3.3.4v.3l.1.3v1.7l.2.4v13.3l-.1 3.3v25.7l-.1.4.2.4v1.7H101.9l.2 1.2V85l.1.1.6 2.3m-2-45.1v.4a1.5 1.5 0 0 0 0-.4" fill="#fff" fill-rule="nonzero"/><path d="m93.4 37.3.2.1-.2-.1m10.3-8c0 .8 0 1.4-.2 2h-.5c-.2.5-.7.9-.8 1.1h-.4v-.3l.1-.3h.1c0-.2-.1-.2 0-.4 0-.2.2-.2.3-.4.2-.3.2-.5.5-.7l-.1-1.8a.9.9 0 0 0-.3.4l-.2.2h-.8v.1c.2.4 0 1 0 1.5h-.2l-.1-1.3a.5.5 0 0 0-.2 0h-.6v2l.6-.1.1.2v1l-.2.6c-.3 0-.5 0-.5-.2v-.1l-.1 2.5h.2V39h-.2a.5.5 0 0 0 0-.2l-.2.1h-.3v1.4c.2.2.4 1 .2 1.4l-.1.2v.9c0 .3.2.5.1.8v1h-.7v-.3L99 44v-.5c0-.4-.1-.9-.3-1.2 0-.2-.2-.2-.3-.3v-.3l-.6.2c-.2-.3-1-.9-1.4-.9a1.4 1.4 0 0 0 0 .4c-.2.3 0 1.3 0 1.7-.2.6-.1 1.4-.1 2v.8l-.2.2v.6-.5l-.2-.5V44c0-.2.1-.5 0-.8v-2.5h-.2v2.9l-1-.2v-.1l-.1-1v1H94V43l-.7.1.6.2-.1.3h-1.2c-.6 0-1.5 0-2 .2h-1l-.2-1h.3c1-.2 2-.2 3.2-.2l.1-.3c0-.3.4-.5.7-.6l-.1-.1-1.8-.2h-1.6c-.3-.1-.8 0-1.1-.2l-.8-.2.9-.3h.8c.3-.2.8 0 1-.1l-.1-.2a13 13 0 0 1-.2-.3h-1.1l-.1-.3a.6.6 0 0 0 .1-.3h-.8l-1.3-.1a9.4 9.4 0 0 1-1.1-.2h-2.2c-.6-.2-1.5-.2-2-.3a2.9 2.9 0 0 0-.4 0v-1h9.5l-.8-.1c-.6-.2-1.3-.1-2-.1h-7.1c-1-.3-2.3-.3-3.5-.3V37H82.8c.8.2 1.9.1 2.8.1h1.2l-.4-.1a18.6 18.6 0 0 1-.9-.4v-.2l1.8.2v-.1c-.3-.2-1.2-.2-1.2-.6a.8.8 0 0 1 .2 0c.3.2 1 .3 1.6.3V36c-.2-.1-.4 0-.4-.3v-.1H76.6c-.2.2-.7.1-1.3.2h-2.2l-1.8.3h-1.7a.8.8 0 0 0-.3 0v-.5l1.7-.1c-.4-.2-2.1-.1-2.8-.1v-.2c1.2 0 2.5 0 3.5-.2H73l.7-.8h5.1c.4-.2.9 0 1.2-.1V34H87c.7 0 1.4 0 2-.2h.4v.4a2 2 0 0 0-.1.1c.4.1 1 0 1.6 0l1.6.1a.9.9 0 0 0 0-.6h-.1c0 .3 0 .4-.3.4l-.2-.8h-.2v-.5c.2-.4.1-.3.6-.5a.7.7 0 0 0-.4-.2v.2h-.2c-.1.1-.2.2-.6.1 0 .2-.7 0-.8 0 .2 0 .3-.1.3-.4-.2-.1-.2-.3-.5-.4h-2l-.2-.2h-2.2c-.6-.2-1.3-.3-2-.3V31H83v-.2l.8-.1-.7-.1c-.6 0-2 0-2.1.3l-.7.2h-.5a1 1 0 0 0-.1.1h.4c.3.2 1.2 0 1.7.2l.2.2h.6c.5.2 1 .3 1.7.3h-1.7l-.5.1h-1.4c-1.5-.2-3.3-.2-5-.2l-.3-.6c0-1 .4-2.1 0-3-.2.4 0 1.4 0 1.9l-.2 1H75V30a1.5 1.5 0 0 0-.4-.2l.3-.1V23h.5v.5h.2v-.2l1 .3.2.4v.2l.1 1.5h2.7l.1.1.1.3c.3.2.7 0 1 0l.3.2h1.3c.1.2.2.3.5.3h1c.8.3 1.5.2 2.2.2h5.4l2.7.1.3-.2h.3l1-.3 1.1-.2h.4l1-.4h.3c.4-.1.9 0 1.2.1l.6.4.6.3c.2-.2.2-.6.6-.6.3-.1 1 .5 1 .7h.8l.2.2v.3l.3.3c.1.3-.1.6-.1.9zm-1-1.7h-.3v-.1l-.1.1.3.4v-.4m-1-.7-.3-.2v.2a.6.6 0 0 1 .1.1h.1v-.1m-2.1 4.3v-1.4h-.1l-.2.6c.2.2 0 .6.3.8m-.7 3.3-.6-.1-1-.2v-.1h-.5v.4a.6.6 0 0 0 .3.1c.2-.2.2 0 .4 0h.7zm.1 1.1h-.2c-.3.2-1.4 0-1.7-.1v-.2h.1c.3-.2 1 0 1.4-.2l-.6-.1-.5-.1-.4.2h-.3a4 4 0 0 0 0 1.4c0 .7-.3 1.2-.2 1.6v.5c.2.2.4 0 .8.2l.2.2c.2.1.5.3.8.3v-1.2c.2 0 .2-.2.3-.3V39c.3-.4 0-.8.1-1.1l.2-.2v-2.2m0-1.7c-.3-.2-.8 0-1 0l-1-.3c0-.2 0-.2-.2-.2v.4c.4 0 .4.2.8.3.1-.2 1-.2 1.3-.1v-.1zm-.3-1h.2v-.2a.8.8 0 0 0-.2 0 .6.6 0 0 0 0 .2m0-1.5c0-.2-.1-.2-.3-.2H98v.1zm-.2 1.6.1-.3h-1l-.2-.1-.2.2h-.4a.6.6 0 0 0 0 .2h1.8m-1.2 7.2-.8-.5v.1l.8.4m-.6-7.9h.2l-.2-.2a1 1 0 0 1 0 .1v.1m-.8 7.2v-1.2h-.1V37l-.2-.4-.2-.3c-.2.2-.1.6-.1.8v1.6a.5.5 0 0 1 .2.1l.1.8a1 1 0 0 0 .3 0m-.2-6v-.1a.6.6 0 0 0-.1.3V35h.2v-1.6m-2-5.1h1c-.2-.2-.5-.1-.7-.2l-1.6-.1h-.8c-1-.3-2.3-.3-3.5-.3h-7.7l1.1.1.1.1v.1l-.4.1c-.2.1-1.2-.1-1.4-.2v-.1l.2-.1v-.1h-2c.2 0 .2.2.1.4l-.2.1-.8.1v.5h.2c.2-.2.5-.2.8-.3.4-.1 1-.4 1.5-.3.3.1 1.3.3 1.6.2h12.4m.5.8-.9-.1-1 .1h-.5v.2h.6l1.7.2.2-.3a.6.6 0 0 0 0-.1m-.8 2.6v-.1h-.1m-.1 2c-.2.2-.1.6-.1.8h.1v-.7zm0-.9-.1.2v.3h.1l.1-.4v-.1m-.8-1v-.2h-.3v.4h.2v-.2M90.2 29h-2.3c0 .2.4.1.7.1.2.2.8 0 1 0h.6m-.4 1.6a5 5 0 0 1 1.1-.1c.1 0 0 0 0 0-.2-.2-.6-.2-1-.2l-2 .2-.1.1h1.2c.2-.1.6 0 .8 0m1.1 5.5h-2.2v.1h2.8l-.6-.1m-3.9-6.8h-.7c-.4-.2-1 0-1.4-.2h-1c-.2-.1-.7-.2-1-.1l.4.2v.2H87v-.1zm-9.7-1.7.3-.1-.5-.1v.1zm0-.5-.2-.4a.9.9 0 0 0-.1.2l.1.2z" fill="#811236" fill-rule="nonzero"/><path d="m103 86.3-.1.3c-.1-.1 0-.4-.2-.6V86h.2v.4M103 66.7a.8.8 0 0 1-.1 0v-.5c.2.2.2.4 0 .5M102.9 67.9c0-.3.3-.7.5-.8l-.4.8a.6.6 0 0 0-.1 0" fill="#fff" fill-rule="nonzero"/><path d="M22.3 84.3c.3.2.8 0 1.2 0 0 .1.3.2.5.1h1.6v.2h.2v-.3l-.6-.1h-2.9m-4.9-38.7h.4-.4m86.3 40.1c.2.2 0 1.8 0 2.3V89c0 .1.3.3.2.5-.1 1-.8 1.6-1.5 2-.2 0-.3 0-.5.2 0 0 0 .2-.2.3-.3.2-.9 0-1.3 0a2 2 0 0 1-.8.1c-.2 0-.7-.2-1 0h-2L96 92l-.3-.3-.6-.2a11 11 0 0 1-.5 0l-1.9-.4h-4l-.2.2h-3.8c0 .2 0 .4-.3.4-.3.2-1 0-1.4 0l-.6.4c-.2 0-.4 0-.5.2l-.1.1c-.4.2-.6 0-1 0l-.6.1c-.1-.1-.5-.2-.5-.5v-.3c-.6-.1-1-.4-1.5-.6l-.7.3h-1.2l-.9-.1v-.2H58.8c-.3.3-.7.6-1.1.7h-.3c-.1.1 0 .3-.2.4h-.4l-.3.2h-.7l-.3-.2h-.3l-.3-.2a4.4 4.4 0 0 1-.3 0c-.2 0-.3-.2-.5-.3h-1a16 16 0 0 0-1-.3c-.3-.2-.7-.1-1-.1h-3.3l-1.9.1c.2-.2.7-.1 1-.1h.3v-.2H36.1c-.2.2-.4.2-.7.2-.2-.1-.5 0-.8 0-.2.3-1 .2-1.6.1 0 .2 0 .3-.2.4l-.5.1v.4c-.3.1-1.5.2-1.8.1-.3 0-.6-.3-.8-.5l-.5-.1-.7-.4H28c-.4.2-1 0-1.3.1H24c-.6 0-1.4 0-2-.3h-.6v.2h-.1c-.3-.3-1-.3-1.6-.3h-.6v.1H17l-.4-.1h-1.8l-.4.2c-.3.1-.4 0-.6.2l-.2.1h-.3c-.1 0-.2.1-.4 0a1.9 1.9 0 0 0-.5 0l-.1.4c-.5.2-1.6.1-2.3.1h-.3c-.4-.3-.5-.4-1.1-.5a1.3 1.3 0 0 0-.2-.2v-.3c-.4-.3-.6-.9-.7-1.4-.1-.3 0-.5.1-.7V85.5c.5-.2.7 0 .7-.8V83l-.1-3.8c-.4-.3-.6-.8-.8-1.2l-.4-.4v-.3l.2-.1h.2V77l-.1-.2c-.1-.9-.2-2.2 0-2.9v-2.3c.1-.4-.2-1.3.2-1.5h.2c0 .2 0 .5.2.6l.1-.4.3-.3v-1.5H9V76.3c.4-.4.6-1 1-1.5 0-.2.5-.3.6-.5l-.2-.8h.1V55.2c0-1.5.2-3.5 0-4.5v-.4l.1-1V46.7h.8v1.8a.8.8 0 0 0 .3 0l.7-.1c.5-.2 1.2-.2 2-.2v.3c-.5.2-1.2 0-1.6 0-.2.2-1 .2-1.3.2v1l.1.1.8-.2.7-.3 1.2-.3v.4h-.1c-.2.2-.8 0-1 .2-.4 0-.8.2-1.1.3-.2 0-.5 0-.6.3v1.4l.2.2c-.2.2 0 1 0 1.4l-.2.9c0 .2.2.4.1.7v14a14 14 0 0 0-.2 1.6v1.1h1.7l1-.2v.2c-.3 0-.5.2-.8.3h-1.7s0-.1-.1 0v1.3c0 .2.2.2.2.2v1.4l.1.2c.1.3 0 .7.2 1h.2c.5-.5 1.3-.6 2.2-.6V74a.5.5 0 0 0-.1 0h-.6l-1.2.2V74c.4 0 .6-.2 1-.3h1v-.9l.1 2.2v.4l.1.2-.1.3v.8h.4V77l-.4.1h-.7l-1.3.3c-.6.2-1.1-.1-1 .7-.2 0-.1.3-.1.5.4-.5 2-.3 3-.3h1v.2c-.3.2-1.7.3-2.5.2a1 1 0 0 1-.2 0c-.4-.2-.9 0-1.3 0V79.7a1 1 0 0 0 .2 0H13V79l.1.5c.2.1.6 0 .8 0H16l.1.4c-.3.2-1 0-1.3 0H11.5l-.1 1.1h.2c.3-.2.8 0 1.3-.2.9-.3 2-.5 3.2-.3v-.1l-.2-.1c.3 0 .3-.2.3-.4V77c-.3-.2-.4-.3-.4-.5v-.3c.1 0 .2 0 .3-.2v-7c.1-1.4-.2-2.8 0-4.1v-1.2c0-.1-.2-.1-.1-.4l.1-.1V46h-.4v-.3h.3l.1-.7h-.2v-.3s.1.1.2 0v-1.1a.5.5 0 0 0-.1 0l-.1-.2c.1-.1.2 0 .2-.4 0 0-.2 0-.2-.2-.2-.2 0-.9 0-1.2h-.2l-.1.1h-.1v-.4l-.3-.3v-.2h-.6v-.3h.6V39h-.5v.7l-.2.5h-.3v-1.2a4.4 4.4 0 0 0-.5 0v-.3h.1v-.3h-.2v-.4l-.1-.2v-.2h.2v.2c.1 0 0-.2.2-.2v1H14.1v-2l.1-.3H14c-.3-1.9-.1-4.2-.1-6.2l.7-.2h4.1l.3-.1h.4v.3H20c.3-.2 1.5 0 2-.1-.1-.2-.5-.1-.7-.1h-.7v-.3c.3-.1 1.1 0 1.6 0l.5-.1 1.3-.1v-.1h-1.9v-.9h1c.8-.2 2 0 3 0 .5 0 1.6.2 2 0a1 1 0 0 1 0-.2c-.3-.2-1-.1-1.5-.1h-3.9l-.8-.2H21l.4-.1.4-.9h1.6c0-.1.2-.2.1-.3H23a3.3 3.3 0 0 0-.7 0v-.6h3.5l1.5.2h.8l.3-.2h.3c.2 0 .6-.4.6-.6v-.5h.3c.3-.2 1 .3 1.2.4l1.6.4.5.4 1.3.3v-.9c0-.6 0-1.7.3-2.4 0-.2.2-.2.3-.4a2.4 2.4 0 0 0 .3-.4c.2 0 .4 0 .4-.2h-.6v-.2c-.2-.2.6-.8.7-.8l.5-.4 1-.5c.4-.3.8-.3 1.3-.4l.2-.2c.3-.1.6 0 .8.1h.5l.1.1h.4c.2-.2.4 0 .7 0l.1.1v.3l.8.3 1 .4c.2.2.5.1.7.2.4.2.5.6 1 .7l1.4-1 .8.2v.5c-.1 0-.2 0-.2.2l.3-.1.3.2c-.4.3-1 .5-1.6.5l-.4.3v.3l-.2.2-.2.7v1l-.1.9v.5c-.2.6 0 1.5-.1 2.2v1.9l-.2 1v.4l-.1.2-.1.5 1.6.2c.1 0 .2.2.1.3 0 .3-.5.1-.8.3.3.2.5.7.7 1v.8c-1.4-.3-3-.1-4.5-.1h-9.7l-.1.1h-.7l-.1.2h6c.3-.2 1.3 0 1.7-.1h4.9v.1c-.3.2-1.5.1-2 .1h-.6c-.3.1-1.7 0-2 .2h1.4l.1.3c-.3.2-.8.1-1.2.1h-1.5c-1.3 0-2.8 0-3.7.2-.3 0-.8 0-1 .2h-.1 1.2c.2.2.8 0 1 0 1 0 1.8.2 2.6.1l.1.3v.9H36v.3H36l.1.1H82v1h-2.8l-.3-.3H66.7c-.3.1-.7.2-1 .1h-1.5c-.3.1-1 0-1.2.2h2.4l.6.1c1 .2 2.3-.1 3.3 0V39.4l-.1.1H55.8a9 9 0 0 1-1.8 0l-.6.1h-13c-.7-.2-1.8 0-2.3 0h-1.7l-.7-.1a3.6 3.6 0 0 1-.6 0c-.5-.2-.8 0-1.2-.1l-1.4-.1-2.5-.1h-1.2c-.3 0-1.2-.1-1.6 0H21.4c-.7.2-1.8-.1-2.2.1v.1l.8.1c.1.1.5 0 .7.2.1.2.5.1.7.1h.5l.1.2h.6v.2h.4c0 .2.3 0 .4.1l1.1.2h.5l1.4.1H33.2a.8.8 0 0 1 0 .3c-.3.2-1.3 0-1.8 0h-4.2c-.4-.2-1.6 0-2 0-.6-.1-1.2 0-1.7-.2l-.9-.1h-.7c-.8-.2-1.9-.1-2.9-.1 0 0 0 .2-.2.3-.1.1-.3 0-.4.2.6.2 1.2.3 1.2 1-.2-.3-.6-.5-1-.5v.3a1.8 1.8 0 0 1-.6 0h-.4v.1c.1 0 .4.1.5.3v.3l-.3.3c.4 0 .8.2 1.1.3h2.3c.2.2.8 0 .9.2l-1 .1h-2a.8.8 0 0 0 0 .2h1.4c1 0 1.7 0 2.6.2h1.3c-.2.2-.6 0-.8.1l-1 .1h-1.8l-.3.3h-.8c-.3.2-.7.3-1.1.3v.1h3.6v.1l-1.3.1v.1c.1.1.5 0 .8 0 .2.2.6 0 .8 0l.6.1h2.2l-.2.1c.2.2.7.1 1 .1h2.3l-1.9.1-1.7.1h-.5l-1 .2.9.1h.9l1.1.3c.4 0 1-.2 1.4 0h14.1V46.4h49.9s.2.1.4 0l.4-.3h-1c-1 0-2 0-2.8.2H79v-.3h8l.1-.3h2.3v-.1h-5.9c-1.3 0-2.7 0-3.8-.3h-1c-.4-.2-.8-.1-1.1-.2l-1-.1h11.7c-.2-.2-.3-.1-.5-.2l-1.3-.2H86l-.2-.2h-5.8c1.9 0 4 0 5.4-.7l-.2-.1 2.7-.1V43c.5-.3 1.1-.2 1.7-.2l.1.9c-.4 0-1.5 0-1.6.2h3c.2.1.7 0 1 .2l2 .2v-.8H94v-.3a.4.4 0 0 0 .2 0 .8.8 0 0 0 0-.2h.5a.6.6 0 0 0 0 .1v.2h1V44.4c0 .1-.2.2-.1.3 0 .2.2.2.2.3-.1 0-.2.1-.2.3v4.3h.3v-.2c.2-.2 0-.4.1-.7.2-.6.2-1.3.2-2 0 .6 0 1.2.2 1.8v.9l.3-.1v.1l-.3.2v1.6c.1.2 0 .6 0 .8v.5c0 .1.2.1.2.3l-.2.2v1.5l.2.1v.2l-.2.2v.6h.1l.5-.1.9-.4h.6l.1-.5.2-.3c.1-.2-.1-1.2-.2-1.5l.1-.6v-.3h.1l.3.6.1.9c.2-.2.1-.6 0-.7v-6.7l.1-1.2h.7v4h.1v-1c.2-.4 0-1 0-1.6l.2-4.8V39h.2v9l.1 2v24.9l.1.4.2.4v.4l.2.6c0 .1.2.4.1.6l-.2.3v.7h.2c.1-.2 0-.6.3-.7v.1c-.2.5-.1 1.4-.1 2v4a.3.3 0 0 0 .2 0l.1-.2h.2c.3.4 0 1.2.2 1.6l.3 1.2v1.1l.1.1.3.5v1.8h.1c.4-.5.1-1.7 0-2.3l-.6-2.3h.6l.4.2c.2.1.4 0 .5.2m-.8 1a.5.5 0 0 0 0-.3V86l-.2-.2v.2c.1.2 0 .5.2.6m-.5 3.9h-.5l-.4.5h-.4c-.1.2-.5.2-.6.4a.8.8 0 0 1 .1.1h.2l.7-.3 1-.7zm-2-2.8a.3.3 0 0 1 .1.1h.1a.7.7 0 0 0 0-.3h-.1v.2m-.5-29v-1.3l-.2.2c0 .3 0 1 .2 1.2m-.2 26.6v.1a.6.6 0 0 1 0 .1s.1-.1 0-.2zm-1-6.8h.7v-1.1a6.6 6.6 0 0 1-1-.2h-1.1l-.1-.5h-.5c-.2 0-.1-.2-.5-.2H96c0-.2-.1-.3-.3-.3v.1V76.1c.3-.3.8-.2 1.2-.4v-.1h-.7l-.3.1h-.4v2.1l-.2 1v3.5h.1v-.6c.2-.2.2-1.2.2-1.4l.2 1.5h.2l.9-.1h2.3v-1.3a.8.8 0 0 0-.2 0h-.8c-.7 0-1.3.2-1.9 0v-.2h.1c.2-.1.6 0 .8-.2-.2-.2-1.2-.1-1.5-.1a.8.8 0 0 1 0-.2v-.1c-.1 0-.2 0-.2-.3H96.3l.8-.3h.5l1.1-.4m.8.3c-.3 0-.7 0-.8.2v.3h.5l.1-.4.2.1V79zm0 3.4v.2c.1-.1 0-.1 0-.2m.1.8c-.3-.2-1.5 0-2 0H95.9v.5h.2c.2-.2.7-.1 1.1-.1h2.4v-.4m-.2 4H98l-1.1.1a.6.6 0 0 0 0 .2H98c.5-.1 1-.1 1.4-.3m0-1.7h-.5c-.3.2-.8 0-1.1.1-.5 0-1.2.2-1.6 0a.7.7 0 0 1 0-.2h.8c.5-.2 1-.1 1.6-.3h1-.1c-.5-.5-2-.1-2.7-.4l-.7-.1v-.2h.6c.3-.1 1.6-.2 2-.1l.9.2V84h-3.2c0-.2-.3-.2-.5-.2-.2.4 0 1.3 0 1.8l.2 1.1h.1v-.1h.2v-.3c-.1 0-.3 0-.3-.2l.3-.1c.3-.3 2.2-.4 3-.4v-.2m.1-3.6v.4a.6.6 0 0 0 .1-.3v-.1zm-.4-6.2h.4-.4zm-1.7 11.1h1.9v-.5h-2.7v.5zm1.8-4.2a.8.8 0 0 0 0-.3.8.8 0 0 0-.2 0h-2.7l-.4-.1c-.1.1 0 .5 0 .8.6-.5 2.1-.4 3.3-.4m.2 5.2a.8.8 0 0 0-.2 0l-1 .2-.1.2h1.2l.1-.4m0-28.3c-.5-.2-1-.2-1.6-.3h-1.2l-1.1.1v1.4c.1.3.2 1 .1 1.5l-.1 1.2v.3c-.3 1.4-.1 3.4-.1 5v3.3c0 .3-.2.8 0 1v.3c.2.3 0 1.4.1 2l.6-.3c0-.1 0-.2.2-.3.3-.3.3.2.4.3h1.6a.8.8 0 0 1 .2-.2H98v-.2l.1-.6.2-.1v-.4h.3l.6-.7V59.4m-.2-4.2s-.1.1-.2 0h-.5l-.2.4-.5.1-.6.4-.8.3v.2l.8.1 1.8.2c.1 0 .2 0 .2-.2v-1.5zm.1 24.4-.5.2h.1l.4.1a.8.8 0 0 0 0-.3m0-5.7-.2.1v.1a1 1 0 0 1 0 .1c.1 0 .2 0 .2-.2zm0 3c0-.2-.2-.2-.5-.2l.4.2m-.2-2a.4.4 0 0 1 .1 0zm0-.5H98.5v.1l.2-.1zm-.7 5.2h.2a.6.6 0 0 0 0-.1c-.4-.2-1.3 0-1.7 0h-.5v.1zm-1.5 12c.1-.1.1-.2-.1-.2v.2h.1m-.4-4.5h-.1a.8.8 0 0 0 0 .3 1 1 0 0 0 0-.2zm-.4-30.4v-.5l-.4-.1v.5h.2l.2.1m0 1.4c.2-.1.2 0 .3-.3l-.7-.1v.7a.3.3 0 0 1 0 .1h.4V58m0-6.8V50l-.4.3v2.5h.3v-1.5m-.2 4.6c.2-.3.3-.1.3-.6v-.5h-.4v1zm.2-1.4V53a.8.8 0 0 0-.2 0c-.2.2-.1 1-.1 1.4zm0-4.6v-.3h-.3v.2l.4.1m-.4 40.7a.5.5 0 0 0 0-.3h-.3c-.1 0-.8-.2-1 0 0 .1.3 0 .4.2.3.2.7 0 1 .1m-1-1h.3v-.5l-.3-.3c-.1-.2-.4-.3-.5-.6a146.3 146.3 0 0 1-3.2.3H79.4c-.8.2-1.7 0-2.4.3h-.8l-2.7.4h-.4a7 7 0 0 1-.4 0h-.3a4.5 4.5 0 0 1-1.1.3c.2-.2.4-.1.6-.2l1.9-.4.8-.1c-.2-.2-1.3 0-1.6 0h-2.8a8 8 0 0 1-1.8.1l-.5.1h-2.5l-1.4.2h-1.2c-.6.3-1.6.2-2.2.4h-1c-.6.2-1.5.1-2.1.3h-1l-1 .2H55c-.3 0-.7 0-1 .2h-.5l-1.9.1v.2h5.8v-.2l.3-.1c.4.4.7.3 1.4.3l.4-.2v-.2h.4a4 4 0 0 1 1.6 0l1 .1.9.2h2.8c.4.2 1.2.1 1.8.1H84a6.8 6.8 0 0 0 1.5-.2h.8l.2-.2h.9c.2-.1 1.2-.3 1.5-.2.2 0 .1.2.3.2.4-.3 1 0 1.5-.2.5-.1 1 0 1.6-.2h1.1c.4-.1.7 0 1-.2m-.4-6.8V82l-.2-.1c-.3.3-1.5.2-2.1.2h-1v.1c.7 0 1.3.2 1.8.3.3.1.5 0 .8 0l.7.3m.1-21.3v.1zm-1.5-11.1H94c-.2-.2-1.1 0-1.3 0zm1.3-5.2h-.2v.1h.2m0 24h-.1l-.1.2.1-.2M91.6 53H94a.7.7 0 0 0 0-.3c-.4-.3-1.8 0-2.2-.2.4-.2 1.2-.1 1.7-.1h.5v-1.1h-.5l-1.3.1v-.2h-.3H92.7l.4-.1h.9v-.5h-2.6c-.3-.2-1 0-1.2-.2H92c.1-.3.2-.2.4-.3a.8.8 0 0 0-.3-.1h-.7l-1.6-.1h-1l3.4-.1c.5 0 1.5 0 1.8-.2v-.4l-.3-.1c-.2-.1-.6 0-.7.1l-1.3.1c-.2 0-.4.2-.7.1a4.6 4.6 0 0 0-1-.1H89l-.2-.2h-.4L88 49l-1-.4h-1l-.5.1h-1.3v.1h-.7c-.7 0-1.5 0-2-.2H80c.4-.2 1.6-.1 2.1-.1h.6l1-.1c.5 0 1.1 0 1.6-.2h1.4v-.1c-.2-.1-.6 0-.8 0h-1c-.6 0-1-.2-1.7 0h-1.8l-1.2-.1h-2.4c-.4-.2-.9 0-1.4 0H66c-1.5 0-3.1 0-4.3-.2H61l-2-.3h-4.6l-1-.3h-3.8l-.8-.4h-2l-1 .1h-2.6v.2h-5.7c-.6.2-1.3.2-2 .2h-.1c.2.2.7.1 1 .1H40.3c.5.2 1.2.1 1.7.1h.6c.6.2 1.5 0 2.2 0h1l1-.2v.2c-1 .4-2.7.3-4 .3l-6 .1h-9.1a7.5 7.5 0 0 1-1 .2h-2.4c-.4.2-1.2 0-1.6.2h-2.9c.3.3.6.3 1.2.2l1 .1h2.1v.1h-1c0 .2-.8.1-1 .1v.1h1v.1h-1.3c-.2.2-.5 0-.8 0-.7.3-1.4.5-2.4.5a.5.5 0 0 0 0 .2c-.2.3.2.4.3.5v.4c-.3.2-.5.4-.5 1H20l.3.2h2.1c.8.2 1.5 0 2.3 0l.1.3h1.5l1.6.2H29h-4.4l-2.2.1h-.6l-.5.1h-2v.2h-.2c-.4.2-1 0-1.2.2.5 0 1 .3 1.4.1h3.7l-1.5.1h-1.2c-.5.2-1 .2-1.8.2v.2h.7l.6.1h.7v.2h1.8l-1.6.3h-2c-.2 0-.3.2-.5.1a3 3 0 0 0-.7 0 1.3 1.3 0 0 0 0 .3v.4h7.5v.1h-.7l-1.1.1h-3.9l-1.7.1v.1s0 .3.2.3c.3.2.7 0 1 0 .3.2.7.1 1 .1h2c0 .3.2.2.3.5 0 0-.2 0-.2.2v.1c-.4 0-.5.2-.8.3l-.5-.1H20a.6.6 0 0 1 0 .1h.4c0 .2.1.2.3.1H23.3l.7.4h1.3c.6.2 1.2.1 2 .1h2.3l.5-.1.1.1h15.3l1.2-.1c-.2-.2-.8-.1-1-.1h-3.8a4 4 0 0 1-1 0h-8.6l1.1-.1h19.2c.2.2.8.1 1 .1l2 .1.9.1H66l1.2.1h26.5v-.8h-14c-.6-.2-1.4-.2-2-.2h-2.3l-1.5-.1h-1c-.5-.2-1.1-.1-1.6-.2h-.6c-.4-.1-1 0-1.3-.2h-.9c-.6-.2-1.7 0-2.5 0h-2.7a3 3 0 0 1-.8 0h-2 1.9c.1-.2.7-.1 1-.1v-.2h-1c0-.3-.3-.2-.7-.2h3.7l.5-.1h9.2v-.2c-.5.2-1 0-1.6 0h-3.8c-.5.2-1.1 0-1.6 0h-2c-.2 0-.6.1-.8 0h2.1c.5-.2 1.1 0 1.6-.1h.6L71 55h2.9c.8-.2 1.8 0 2.4 0h4.6l.3.1h1.3c1.1 0 2.5.1 3.4-.2H87.5c.3 0 .8 0 1-.2H86v-.1l.2-.1c.3-.3 1.5-.1 2-.1 1.5 0 2.7-.1 3.9-.4.4 0 1.3.2 1.6 0l.1-.2v-.4H91l-.8.1v-.2c-.2-.1-.6 0-.8 0v-.1h1.4c.2-.2.6 0 1-.2m2 8v-.2h-.4.1v.2H93.7m0 .4-1.1-.1v.1zm0 1V62l-1-.1v.1l.5.1h.2c-.2.1-.5 0-.6.2v.3zm.2 3.4c0-.2-.1-.1-.4-.1v.1zm-.2-3h-1c-.1-.2-.7-.1-1-.1a.6.6 0 0 1 0-.2h1l-.2-.5H92l.5-.1c0-.2-.1-.2-.3-.2-.3-.1-.8 0-1-.2h.1l1.1-.1c-.3-.3-1-.2-1.4-.2-.3-.2-.7 0-1 0h-1c-.4-.2-1-.2-1.5-.2h-1l-1.9-.1h-.3v-.6h.4l-.2-.1v-.6h3.9c.4-.2 1.4 0 2 0 .4 0 .8 0 1.1-.2l-.6-.1H88c-.8-.2-2-.1-3-.1H79V59c.8-.2 1.7-.1 2.6-.3h.8c.8-.2 2 .1 2.8-.1h1v-.1h-2.1l-.1-.2h-2.6l-3.3.1H68.8c0-.2 0-.3-.2-.3H57c-1 .3-2.5.3-3.6.3H34.2c-.7 0-1.3 0-1.8-.2h-1.8c-.5-.1-2 0-2.5.1h-1.8c-.4.2-1 .2-1.4.3h-1.6l-.4.1c-.3.1-.4.2-.5.5h-1.1l-.2.2-.7.2h-.7l-.4.4h-1l-.1.6h.5l.6-.1c.4-.2.9 0 1.3 0 .1-.1.5-.3.6-.2l.2.1c-.3 0-.5.3-.8.4l-.9.1h-.3l-1.4.3c-.1.2-.2.2-.2.5.2.1.6 0 .8 0h.9l2.1.1v.2l-1.5.1a2.7 2.7 0 0 0 0 .1l.7.1v.1h-.6l-1.3.3.7.1.5.1v.2h-.3v.1h.2v.1c-.3.2-.7.1-1 .3.2.2.4.3.4.6a.3.3 0 0 1 0 .2h.4l.8-.2.4.2 1.1.1h1l.9.2h.5l1.6.2H27c1 0 3.3-.2 3.8.2v.1c-.6 0-1 .2-1.5.4H20.5l-.6-.1h-1.4l-.4.1h-.5v.1c.4.2 1 0 1.6 0h.3l1.3.1h5.8v.2c-.3 0-.5-.1-.8 0l-.3.1-.6.1-.2.2H19c-.2.4-.5.4-1.2.3 0 .2-.1.2-.3.2v.2h.5c.2.3.8 0 1.2.1.6.2 1.5.2 2.2.2h1c0-.2-.2-.2-.2-.3H23.6l.3-.3.5.1c.8.2 1.5 0 2.2-.2l.6-.1c.8-.3 2.1-.2 3-.1H36v.2l-1.7.1.5.1h.4c.3.1.9 0 1.2.2h1.9c.3.2.7.1 1 .2l2.7.4h1.6l1 .1a5 5 0 0 0-1.1.1H34.6c-.2.1-.3 0-.4 0a6.7 6.7 0 0 1-1.2 0h-1.5c-.6 0-1.1.1-1.6 0h-1.1c-.7 0-1.6 0-2.1.2h-1l-1.3.1h-4.9s0 .2-.2.3H18a.7.7 0 0 0 0 .3H20l2.6.1h1.6l1.4.2h1l1.5.1h12.1c1.2 0 2.7.1 3.7-.1h.6c.4-.1 1 0 1.3-.2.7-.1 1.6.2 2.3 0v-.1c.2-.2.7 0 1 0 .7-.2 1.4-.1 2.2-.1h8.3c.6.2 1.2 0 1.6.4l.2.3H68.9v.7c-.5 0-1.3.2-1.6.1h-1.5c-.4.1-1.1 0-1.6 0H58a5.9 5.9 0 0 0-1.2 0H55.1c-.5 0-1.1 0-1.5.2-.5 0-1.1-.2-1.7 0H38.8l-1-.1H37c-.1.2-.4 0-.6 0H35c-.3 0-1.1.2-1.6 0h-5.6a8.8 8.8 0 0 1-1.4 0v.2h1c-.4 0-.7.2-1 .3h-1.8l.6.3a9.6 9.6 0 0 0-2.2.3h-2.3c.4.3 1.5.2 2.2.2v.1H28c0 .2 1 .1 1.3.1h.6l.2.2H32v.1l.1.2c-.3.2-2 0-2.7 0-.2.2-.8.1-1.2.1H25l.2.4-.4.1H24c-.5.2-1.3.4-2 .2h-.4c-.4 0-1.4 0-1.7.2.1 0 .3 0 .3.3h-.1c-.2.2-.8.1-1.1.1v.6l.9.4.3.3H23.9l1.1.1c.2 0 .2.2.3.3h.5l.6.1.5.2.1.3H30.7c.4.1 1 0 1.1.2a7.4 7.4 0 0 0-1.1.2h-1.3v.1c.3.2 1 0 1.5 0h3.4l.1.1c.2.4-.4.4-.8.3l-.1.3h-3.9c-.3.1-1.6.2-2 .1h-.7a7.5 7.5 0 0 0-1-.2h-.7v.1h-1.6l-.6.1h-2.3v.2h2.5c.2.2 1 .1 1.4.1a623.3 623.3 0 0 1 3.3 0H33l7.5-.2H79l2.6.5h.5l.5.1h1.8l2.2.1.1.3h.6l.2.3h1.9c.7-.3 1.6-.2 2.4-.4l.9-.1V78c-.2-.1-.2-.4-.3-.6-.2-.3-.4-.4-.4-.7.3-.4 0-.5.8-.4v-.1c-.1-.2-.5-.4-.7-.5v-.1c.1-.2.2-.1.4-.2l-1-.4h-.3l-.8-.3h-1.1v-.2h.7l.2-.1c-.7.1-1.6-.3-2.1-.5h-.6a.5.5 0 0 0-.1-.1v-.1c.3-.2 1.4 0 1.6 0h2.9l.7-.1-.4-.1-.2-.2h-5.7c-.2-.2-.7 0-1-.1a3.5 3.5 0 0 1-.8-.5h.2c.3.2.9.1 1.2 0h7.5v-.1h-1.3c-.2-.2-1 0-1.2-.2.6-.4 2 0 2.8-.2-.6-.3-1.5-.2-2.2-.2H91c-.7-.2-2 0-2.9 0h-3.5l-1.4-.4a.4.4 0 0 0-.1-.2c.2-.4.4-.2.9-.3.9-.3 2 0 3 0h1.2l.4-.3c-.2-.2-.6-.2-.8-.1h-1c-.7-.3-2.3.1-3.2.1-.3.4-.7.3-1.4.3H78v-.6h2.8c0-.2-.3-.1-.5-.2a1 1 0 0 0-.2 0v-.8h5.6v-.2h1v-.1h-1.4.3V69h-4.1c-.3-.2-1.8.2-2.1 0l.5-.1c.4-.2 1-.2 1.4-.3h.9l-.5-.1c.5 0 1-.2 1.3-.3h1.7a13 13 0 0 1 2.8-.4h2.4l.7-.1.1-.1.7-.2a34.5 34.5 0 0 1 1.3-.3h.7l.1-.3h-.3c-.2.2-.5 0-.8 0-.1 0-1 .2-1.3 0h-.3l-1-.1c.2-.2.6-.1.8-.1v-.1l-.3-.2 1.6-.4h.5c-.3-.2-1.2 0-1.5 0v-.1l.4-.1 1-.3c.3-.1.6 0 .8-.2-.2-.1-.6 0-.8 0v-.1h1.4l.1-.2c-.3-.2-1.6.1-1.7-.2v-.1l.3-.3c.2-.2 0-.3.2-.4h.4l.2-.1v-.3c.3-.3.6 0 .6-.7m-.2 8.7h.2a.7.7 0 0 0 0-.2h-.1a.4.4 0 0 1-.1 0v.1zm0-2.4c.1 0 .1 0 0 0V69a1 1 0 0 0 0 .1m-2.2 18.9c.7-.2 1.7 0 2.3-.2-.5-.4-1-.5-1.7-.3h-1.3l-.3.1-3.2.2h-.7a3 3 0 0 0-1.1 0H81c-.3-.2-1.3-.2-1.6 0H77.5c-1.4 0-3.2-.2-4.4.2l-.9.1H61.7c-.5.2-1.3.3-1.8.3H46.4v-.2h10.4l1.6-.1h1.2c.6 0 1.5 0 2-.2h1v-.1c-.2-.2-1.3 0-1.7 0-.6-.2-1.3-.1-1.9-.1v-.1H47.5c-1.5.4-3.6.2-5.6.2l.7.1v.1l-.6.1c-.2 0-.6-.2-.9 0a2.3 2.3 0 0 1-.6 0h-1.2c-.7.2-1.6 0-2.2.2h-1.2c-.7.2-1.8 0-2.5 0h-9.8c-1 0-2.2 0-3 .2h-1c-.8.2-2.2 0-3 0h-.7a1 1 0 0 0-.2.6h.3c.1 0 1-.2 1.3 0h-.6c.2.2.5.2.7.2h.7-1.3a.6.6 0 0 1 0 .1h.5l2 .1h.6c-.9 0-1.8 0-2.5.2v.1l2 .2h.6l1.4-.2v.1l-.1.1h-.7l-1.5.1v.1c1 .2 2 .3 3.2.3h1.2c.7-.2 1.5 0 2.2-.2a5.6 5.6 0 0 1 1.4 0h6.5c1.1.2 2.4.2 3.7.2h9.2l2.3-.1 1.3-.1h.6l1.6-.2h.8c.6-.3 1.5-.2 2.2-.4h.5c.4 0 .8 0 1.1-.2h.5c1-.2 2.2 0 3.1-.4h1.6c1-.3 2.1-.2 3.1-.4h2.2c.6 0 1.6 0 2-.2h1.1c.5-.2 1.5 0 2-.1l-.1-.2H87c1.1 0 2.6 0 3.6-.2zm2.1-9.2c-.3.3-1 .1-1.5.1 0 .2 0 .3-.3.3H87.8a2.9 2.9 0 0 0-1.1.1c-.3 0-.5-.1-.8 0h-.7c-.2 0-.4.2-.7.1v-.2h-.6a9 9 0 0 0-1.8.2l-.8.1 8.4.1c.3-.2.8 0 1.2 0 .5-.2 1.2-.2 1.6-.3.3 0 1 0 1.1-.2V79a.6.6 0 0 0-.2 0m-.2 2.5v-.2h-.7c-.1 0-.6.2-1 0h-2.2v-.1l.8-.3c-.1-.1-1.4 0-1.6 0h-5c-.2 0-.5-.1-.8 0h-4.1c-.4-.1-.6 0-.8 0H68.6a.8.8 0 0 0 .2.1c.2.2.7 0 1 0l1.6.1h2.4v.4c-.6.2-1.6 0-2.4 0h-.8c-.8-.2-1.8 0-2.6-.1h-.7c-.5-.1-1.2 0-1.8-.2h-.7l-1.9-.1H62c-.4-.1-1 0-1.6 0L59 81h-.6l-1.8-.1H55a4.5 4.5 0 0 0-1 0H48.6a3 3 0 0 0-.7 0h-2.5a13.1 13.1 0 0 1-1.8 0H31.2a8.6 8.6 0 0 1-1.8 0H17.3a.8.8 0 0 0 0 .2l.1.2.9.1.1.2.5.2c.2.1 0 .2.3.3H52V82.5h-.1c-.3.3-1.1 0-1.6.1h-5.6c-.7.2-1.8.1-2.5.1H21a.2.2 0 0 0 0 .1c.2.2 1.2 0 1.5.1l5.6.1.7.2.1.1h3.8c1 .2 3.3.1 5.1.1h6.7l1.9.4.3.2h2.7V84.2a.5.5 0 0 0-.1 0H37v.1h.1c.3.3.6.1 1 .2l1.5.1 1.5.1h.6c.7.2 2 0 2.7 0 1 0 2.3.2 3.2 0h.4c.8-.2 1.6-.2 2.5-.2h1c.2.3.3.3.7.3.2-.2.7-.2 1-.2h.5l1.3-.1h2l.3.3h1.2c.2-.2 1.1 0 1.5 0l.9-.2h.9l1.3-.1h2l.1.2v.1h2.5l.8-.2h1c.2 0 .5-.2.7-.1h.3l.1.2h1.9v-.1h.4v-.2c-2.4-.2-4.8-.1-7.2-.1h-3.5c-.5-.2-1.4-.1-2-.1h-.9c-.5-.2-1.1 0-1.7 0h-3.7V84H57c.5 0 1.1.1 1.6 0h1.7c.6-.2 1.4 0 2-.1h17.5v-.2h.7l1.4-.1H86v-.1H56l-1.8-.1h-2.9c-.5 0-1 0-1.4-.2h-.7l1.6-.1H53c.5-.2 1.1 0 1.6-.1H75.5c1 0 2.3-.2 3 0h8l.1.3a.4.4 0 0 0-.1.2H87.3c.5-.2 1.3 0 1.8 0 .2-.2.6-.2.9-.2 0-.2 0-.2.3-.2.3.2 1 .2 1.3 0v-.2l-.3.1a.7.7 0 0 1 0-.1v-.1c0-.2-.2 0-.4-.1-.4-.1-.9 0-1.3-.2h-.5c-.7-.3-2.3-.1-3.2-.1h-6.8a2.3 2.3 0 0 1-.6.1v-.1a.4.4 0 0 1 .2-.1h.5c.7-.3 1.9 0 2.6-.3l-.1-.3.8-.1.7-.1h.5c.9-.2 2-.1 3-.4h1a6 6 0 0 1 1.3 0l.1.2c-.2.2-.8.1-1.1.1-.3.2-1.3 0-1.7.2h-.8l-.7.1h-.5l-1.3.1-.9.1a.6.6 0 0 0 0 .1h6.6v-.2l.5-.1c.3-.2.6 0 1-.1h3m-.1-12.3v-.2h-.4c-.4.2-1.5 0-1.9.3H93m0 13.7h.1-.2zm-.6 0 .2-.1-.6-.1a.8.8 0 0 0 0 .2.9.9 0 0 1 .4 0m.2 7.3v.2h.1l.1-.1v-.1h-.2m-.5-15.6c0-.1.1-.1 0-.1H92h.1m0 15.9v-.1H91.9zm-1-16v-.1h-.4a.9.9 0 0 0 .5.1m-.5-3.1h.7v-.1c-.2-.2-1-.3-1.4-.3l-3.3.2v.1h4m.4 8.9.2-.4h-.2l-.3.4zm-.7-5.9v.1m.2-5v-.1M90.2 48h.8c.1-.1.2-.1.2-.3a.4.4 0 0 0-.2 0c-.2.1-.6.1-.8 0l-.1.2m.7 20.4h-4.5c-.5.2-1.1.2-1.7.2h1c.3.2.7.1 1 .1h4c0-.2.1-.2.2-.3zm-1.7-19.3c.2-.2 1.1 0 1.3-.1-.4-.2-1.7-.1-2.3-.1v.1l1 .1m.7 7.3c-.4-.3-.8-.1-1.3-.2H87c-.6-.2-1.6-.1-2.4-.1L81 56h-1.5a2 2 0 0 1-.1-.1h-6.9v.1h.7l1.5.1h.9c.4.2 1.1.2 1.9.2h12.3a.3.3 0 0 0 0-.1zm-2 4.2-.2-.1h-.1v.1zm-1.9 24.3v-.1m-.6-24.2s0-.1 0 0m-2.2-12.6h1v-.1c-.3-.2-1.1 0-1.6-.1H79.4l.1.2h1.3zm.4 31c-.4-.2-1.1-.1-1.6-.1V79h.2c.3-.2 1.1 0 1.5-.2M81 79l-.6-.2-.3-.2h-.8c-.8-.2-1.8-.1-2.7-.3l-1.4-.1c-.7-.2-1.4-.1-2-.3h-.9a5.9 5.9 0 0 0-1.2 0H42.6c-.8 0-2-.2-2.8 0h-3.7l-8.8-.2v.1c.3.2.7.1 1.1.2.9.2 2.4 0 3.4 0h10.5l1.3.1.1.3-.2.1H32.2l-.1.2h.7c.2.2.7 0 1 .2l1 .1h1c.4.1 1 0 1.6 0h5l2.2.1v.1c-.2.2-.8.1-1 .1-.3 0-.2.2-.3.2H42v.1h.6c.2.1.5 0 .8 0 .5.2 1.3.1 1.9.1H48c.6.2 1.3 0 1.8.1l.5.1h.9c.3 0 1.2.2 1.6 0h-.5l-.2-.2h-.5l-.4-.3H49.3c-.8-.3-2 0-2.7-.2.4-.2 1.4-.1 2-.1.3-.2 1 0 1.5 0 .4-.2 1-.2 1.4 0l.3.1.5.1.2.2h.5c.2.2.5.3.8.3h1.6v.1l1 .1h-1.9v.1l1.6.1h.8c.6.2 1.4 0 2 0h9.2a6 6 0 0 0-1.6-.1v-.2h.2c.5-.2 1.4-.1 2-.1h2.2c.4-.2 1-.1 1.4-.1h4.9v-.1h-.9l-1.7-.1v-.1h1.7c.2-.2 1.3-.2 1.6-.2h1.3c.6 0 1.4 0 1.9-.2m-.6-1c-.1-.2-.6-.1-.8-.1v.1h.8m1.5 6.7c-.7-.2-1.8-.2-2.7-.2v.1l.6.2.3.1v.1h.8c.6 0 1.2.2 1.7 0H84l.8-.1c-.3-.2-1.2 0-1.6-.1l-1.2-.1m-1.7 6.6c0-.1 0-.2-.3-.2v.1a.4.4 0 0 0 .2 0l.1.1m-4.2-43.9h-1.8c-.2-.1-.6 0-.8 0-.6-.2-1.3-.1-1.9-.2h-.4l-1-.1H68c-.4-.1-1.1 0-1.6 0L64 47H59.8c.3.2.7.2 1 .2h.6c1.3.4 3 .3 4.6.3h10.1zM69.6 85h-1.1v.1h1a.7.7 0 0 0 0-.1m-1-4.8c-.1 0 0 .1 0 .1v-.1m-.2.9v-.1zm-.6 4.4h-.9l-.1.1h1M67.5 58h-.3zM65.9 88c-.3-.2-.8 0-1 0-.5-.3-1.3-.2-2-.2a.8.8 0 0 0 0 .2h3m0-29.9h-1.4H66m-1 27.1h-.4v.1h.4m-.7-.3H63l-3.2.1v.1h1.8l.7-.1 2-.1zm-.5-46.4H31.3h.5c.2.2.7.1.9.1l.6.1h2.1l.8.1h2.1l1.6.1h22.6v-.2c.3 0 1 0 1.3-.2m-4.4 31-.1-.2v.1m.2 0c.1 0 .2 0 0 0m-.7 0h.1zm.3 0s.1 0 0 0m-.5 0h.1m-.4 0h.2-.1m-.6 0h.5c-.3-.2-1 0-1.4-.2-.7-.2-1.7-.1-2.6-.1H50v.1c.1.2 1.4.1 1.7.1.3.2 1.2 0 1.6 0 .8.2 2.3.1 3.3.1h1.2m-2 22c0-.2-.2-.2-.4-.2l-.3.2.6.1.2-.2zm-.8 0c0-.1 0-.2-.3-.2l-.1.1a.8.8 0 0 0 .3 0v.1M54.6 58l-1.3-.1h1.3m-.6 29.5v-.1a1 1 0 0 0-.2 0c-.2-.2-1.2 0-1.4 0v.1zm-.7-7.4L53 80l.2.1M49.5 85H49l-1.2.1.6.1c.2-.1.9 0 1.1-.2m.3 0s0-.1 0 0m-3.6.5h-.6l-1.6-.2v.1h.4c.2.2 1.5.1 1.8.1M43.5 84h1.9v-.1l-1.2-.1a87.6 87.6 0 0 0-2.2 0h-8.6v.1h.5c.2.2.5 0 .7.1l1 .1H38c.6-.2 1.3-.1 2-.1zm.7-50.2-.5-.4c-.2.2-.8.2-1.2.2h-3.7l-.5.1h3c.3.2.6 0 .9.2h-1.3c-.3.1-.5 0-.7.2H43v-.1l-.1-.1h-.2 1.5m-1.5 51.4c-.2-.1-.6 0-.8 0l-.2-.1v.1c-.7 0-1 0-1.6-.2h-1c-1-.2-2-.1-3.2-.1l.8.1c.2-.1 1.2 0 1.6 0l1 .1v.1h1c.5.2 1.2.1 1.7.1h.7m-.9-54.7v-1.5c.3-.2 0-1.2.1-1.6.2-.4.1-1.7.1-2.3v-.9l.5-1.7c0-.2.4-.5.4-.8l-1-.5-.8-.3-.4-.2-.8.3-2 .8-.4.2c-.3.1-1.4.4-1.5.6v1.6c0 .2.1.5 0 .8v5.6a2.9 2.9 0 0 0 0 .7h1.8c.6-.4 2.3-.8 3.5-.9v.4c.2 0 .5-.2.5-.3m0 .8c-.2 0-.4 0-.5.2h.6v-.2m-1 15c-.1-.2-.7-.1-.9-.1v.1h.9zM40.8 31H40c-.3.2-.8.2-1.2.3v.1h1l.9-.4zm-.5 49.1c0-.2-.5-.1-.8-.1h-2.6a2.4 2.4 0 0 0 0 .1zm0-.8c0-.1.1-.1 0-.2l-.1.1zm-.2 0c-.3-.2-.8-.1-1.2-.1h-2.4c-.3-.2-1.2 0-1.6 0-.6-.3-1.4-.2-2-.3h-.5l-.8-.1h-1l-.1.3c-.4.2-1 .2-1.6.2v.1h.5c.3.3 1 0 1.5.1.6.2 1.4 0 2.1 0h4.8c.7-.2 1.7 0 2.3-.2m-1.1-33-1.2-.1-2.4-.2v.1h.4c.2.2.4 0 .6.2H39zM37.6 88l-.2-.1v.1h.2zm-.6.2V88c0-.2-.2-.1-.5-.1h-1.8c0-.2-.5-.1-.7-.1h-2.7l-3.4.2h-1.3a87.6 87.6 0 0 0-.7-.1h-1l-.3-.1h-2.4c.3.2 1.1.1 1.6.1l.1.2H37m-1.6-51.4H31h.7c.1.2.4 0 .5.1H35.4zM30 67.5h5c0-.3-1-.1-1.3-.2-.7-.2-1.8-.2-2.6-.2l-1 .1-.1.2zm4-34.2h.6c0-.2 0-.2-.2-.2-.1 0-.3 0-.4.2zm-.1-5.5.2.1v-.1c-.1-.2.1-.9-.3-.9h-1.2v.3h-.4c-.3-.2-1.4-.5-1.8-.5l-.2.2c-.1.1-.2 0-.3.2.2.1.2.3.1.5H29.5c-.2.2 0 1.4 0 1.6l.1.6h1.6l.9-.3.3-.4.3-.3c.3-.5.5-1 1.3-1M33.7 67h.2-.2zm.1 17.7h-3.3v.1h3.4m-.5-51.4h-1.1a1 1 0 0 1 0 .1h1.1v-.1M30 33.4h1.5l.1-.2h-3.2l-.1.1c.4.2 1.3 0 1.7 0m1 4.2c-.1-.2-.7 0-1 0H29c-.5-.2-1.2-.2-1.6-.1l-.9.1a.6.6 0 0 1 .1 0c.2.2.7.1 1 .1h2.8l.8-.1zm-.6-1.5c-.2-.2-.7-.1-1-.1h-2.1c-.5-.2-1.2 0-1.7-.1-.8-.2-1.7-.2-2.6-.2h-1v.2h-1c-1 .2-2.3.2-3.4.2v.2h3.1c.3-.5 1.7-.3 2.5-.3l5 .1h2.2m-.1 48.6h-3.1l1.2.2h.9c.2-.2.7-.1 1-.1m.7 6.5h-1.3c.2.2.3.3.5.3.1-.2.3-.1.6-.1h.1v-.2m-1-24.4h-.2c-.2.2-.8 0-1 0-1 0-1.5.2-2.2.3v.1l2 .2h.4l1-.5m-1 12.8h-.5c-.3-.1-1-.2-1.1 0v.1h1.6v-.1M28 27.4v-.1h-.3v.1zm-.4 51.5v-.2h-1c-.8-.2-1.9 0-2.8 0 .4 0 .6.2 1 .3h2.1l.7-.1m-.6 1.3-.3-.1a.4.4 0 0 0 0 .1zm-.3-2.2H26h.6m-2.2-10.3-.3-.1a1.5 1.5 0 0 0-.1.1h.4zm-.1 4.9h-2l-.6-.1h-1.6l-2.4-.1c0-.2.1-.2 0-.2l-.3-.1v1.4l1-.3c.1 0 0-.2.2-.3.3-.1.2.3.6.3l1-.1c1-.3 2.5-.1 3.5-.4l.6-.1zM21.6 65l-.4-.2v.1zm-1-5.8h-.2l-.9.1v.1h.3c.2-.1.6 0 .8-.2zm0-24.5h.1c-.2-.2-.6 0-.9-.1h-1.7a.6.6 0 0 0 0 .2v.1H19.4c.4 0 1 0 1.3-.2m-1.1 28.6v-.1h-.1v.1m0-3.8-.2-.1zm-.3-11a.6.6 0 0 1 .2-.1h-.2l-.2.1zm.2 23.2v-.1l-.2-.1c-.4.3-1.2 0-1.8 0a.6.6 0 0 0 0 .3h2m.7-39.4h-1v.1h.1c.1.1.6 0 .8 0h.1M19 62.1h-1.1v.2h1.4v-.1a.8.8 0 0 0-.3 0m.2-2.8h-.8v.2h.5l.3-.1m-.4-2.8h-.2v.1h.2m-.7-16.2.6-.2h-1a1 1 0 0 1 0 .2zm.4 30.7s.2 0 .2-.2l-.2-.1-.2.3zm.2-15-1-.3v.5H18.7a.3.3 0 0 1 .1-.2zm-.4-6.7h-.5v.1h.5v-.1zm.1 24.2-1-.1v.4h.8l.3-.3zM18.3 40v-.2h-.2v.2h.2m-.1 42.5s0-.1 0 0m-.6-50 .5-.1-.8-.1a.4.4 0 0 0 0 .2zM18 71c0-.3-.3-.2-.6-.2a.4.4 0 0 0 0 .1zm-.6-28.4c0-.1.1-.1 0-.2-.1 0 0 .1 0 .2m.1 33.4s0-.1 0 0M17.1 36.2V36a.6.6 0 0 0 0-.1l-.1.3m0 1.8v.1h.1zm0-.7v-.1c0-.1 0 0-.2 0v.1zm-.1-5.3-.5-.1.3.1h.2m-.3 52.5-.5 1h.4l.2-.1v-.5l-.1-.4m-.1-1.6v1l.1.1v-1.2h-.1m0-49.2v-.2h-.2v.1zm-.3.9h.4l.4-.2v-.2l-.8-.2-.1.3v.2m.1.5h.1l.2-.3h-.3v.3m-.1-4.4h.2v-.2h-1.4v.1l.2.1h1m0 10.7.1-.3v-.3l-.1.6m0 39.7h-.3c-.3.2-1.2-.1-1.6 0l-1.7.5h-.3l-.5.1h-.3V82.5l.1.5v.7h1c.8-.3 2.2-.5 3.2-.3v.4h-1.5c-.3 0-.7 0-1 .2v.1l.4.2h2.1l.1.1c.4-.3.3-.8.3-1.4H15l-.9.1-.6.1c-.3 0-1 .3-1.4.2-.2 0-.2-.2-.5-.2.3 0 .4-.2.5-.2l.6-.1.5-.2h.9l.5-.2H16l.1-.2a.4.4 0 0 0-.2 0H13l-.6.3c-.2 0-.6-.2-.6-.4 1-.5 2.8-.4 4.3-.3V80.9m-.4-40.2c-.2.2-.2.4-.2.7h.1l.2-.1v-2.1a.6.6 0 0 0-.2 0v1.5m-.6-6.2c.2 0 .1-.5.1-.7H15c-.2.2-.1.9-.2 1.1-.2 1-.2 2.3-.2 3.6h.5v-4H15m-.1 50.7h-.2c-.1.1-.2.1-.1.4v.1h.2v-.5m-.4-50.4c.2-.7.2-1.7.1-2.4-.2.1 0 .4-.1.6 0 .2-.2 1.5 0 1.7m0 42 .1-.1v-.7c0-.2-.7-.1-1-.1-.4.2-1 0-1.4.4l.1.1c-.2.2-.3.6-.3 1a1 1 0 0 0 .1 0c.2-.2 1.6-.4 2-.5h.5M12.9 84a.9.9 0 0 0-.3 0c-.1.1-.7 0-1 .2v.2h1.3V84m-.2.9a1 1 0 0 0-.3 0v.1h.3a.2.2 0 0 1 0-.1m-.4 0H12h.3m-1 3c0-.3-.3-.5-.7-.5v.2c.3.2.4.6.6 1 0 .2.3.2.4.4v.3c.2.3.8.4 1.2.4l.7-.4.2-.5.5-.7a.3.3 0 0 1-.1 0h-.3l-.2-.2-.5-.1c-.4-.2-.8-.5-1.4-.5-.1.3-.3.2-.3.3v.3m.2-13.3v-.1l-.1-.2v.1l.1.2m0 2.2h-.1m-1.3 14.7-.1-.3-.1.2zm-.2-9.8v-.6.6m0 1.2v-1.1c-.2.2-.1.6-.2.9a10 10 0 0 0-.2 2.2c.2-.3.2-.7.3-1v-1m0 8.1h-.1V91c-.3-.2-1-1.3-1-1.8-.2-.3.2-.6.3-.7v-.8l-.3-.2L9 86v-3.6l.1-.3.2-.2v-1.3l.4-2a1 1 0 0 1 .3-.1l.1-.6-.3.1h-.7c-.2 0-.1 1-.1 1.3.2.2 0 .6 0 1v2.7l-.2.4v2.2l-.4.4v1.9c0 .9-.1 1.6.2 2.2v.4c0 .2.6.5.8.7h.5M8.4 72.2v-1l-.5.1V72.2h.5" fill="#811236" fill-rule="nonzero"/><path d="m103.2 52 .1.6-.2.6a2.6 2.6 0 0 1-.2-.1v-1.3l.3.3M103.3 38.9c-.3.1-.4.2-.5.4v-.7l.1.3.1-.3.3.2zM103.7 43c0 .2-.2.2-.2.3h-.1v-.4l.3.1M103.5 71.4l-.1.4.1.7v2.8l-.1 1-.1.5h-.2c-.2-1-.2-2-.2-3.2V71.2l.6.2M103.6 62.8v2h-.1c-.2-.2 0-1 0-1.2 0-.2-.2-.2-.1-.4v-.4h.2" fill="#fff" fill-rule="nonzero"/><path d="M103.9 38.2V44c-.2.2-.3.7-.7.7h-.3v5.5h-.8V38c0-.4.2-.8 0-1.2v-2.1l-.2-.3v-.3c-.1-.1-.3-.1-.3-.4v-1l.2-.2a.7.7 0 0 0 0-.1h.4v1l.3.3v.4l.2.3v.3c.2 1 0 2 0 2.7h.5c.2.1.7.6.7.8m-.4 5.1.2-.3h-.2v-.1l-.1.4m0-4.4v-.1l-.4-.2-.1.3v-.3c-.2.2-.1.7 0 .7 0-.2.1-.3.4-.4" fill="#811236" fill-rule="nonzero"/><path d="m104.7 58.8.2 1.1v1.4l-.2.2c-.1.5.1 1 .2 1.3 0 .4-.2 1.5 0 1.8 0 .4 0 .4-.2.7l-.2-.1c0-.6.3-1.2 0-1.7h-.4l.1-1.4v-6c.2-.7 0-1.7 0-2.2l.1-.4.5.5v4.3z" fill="#fff" fill-rule="nonzero"/><path d="M105.3 62.7v2.5c-.1.2 0 .5-.2.8 0 .2-.4.5-.6.7-.3.4-.6.9-1 1.2l-.3.4-.3.1V69.2c0 .3-.2.8 0 1.2.1.2.7.9 1 1h.2v.6c.2.2 0 1 0 1.4V78c-.2.4-.7.7-1 1l-.2.2v5.4l-.1.5-.6.1v-.1l-.1-2.4-.2-1 .2-.1c.2-.2 0-1.3 0-1.4V80l-.1-.4.2-.4v-9.3l-.1-13V50h.7l.1.3c.2.2.2 0 .4 0s.1.3.3.3l.3-.2c.2.4.2 1.2.4 1.5l.4.6.4.6s.2 0 .3.2V55l-.1.2v7.5M105 60c0-.3 0-.8-.2-1V54s-.3-.6-.4-.5V62l-.2 1.4h.4c.3.5 0 1.1 0 1.7h.2c.1-.2.2-.2.2-.6-.2-.3 0-1.4 0-1.8 0-.3-.3-.8-.2-1.3l.2-.2zm-1.4 5c.2-.5 0-1.5 0-2a.6.6 0 0 0 0-.1v.3l-.1.1v1.6h.1m-.1 7 .2-.3a.3.3 0 0 1-.1-.1l-.6-.2v1.2-.1 1.3c0 1.1 0 2.2.2 3.1h.2l.1-.4v-1l.1-1v-1.8l-.1-.7m0-19.2c-.2 0-.1-.3-.2-.5l-.3-.3V53l.2.1.2-.6m.1 14.5c-.2.1-.5.5-.5.8l.5-.8m-.5-1a.8.8 0 0 0 0 .3v.3c.2-.1.2-.3 0-.5" fill="#811236" fill-rule="nonzero"/><path d="M46.3 20.6c.2-.1 1 0 1.2.2a6.7 6.7 0 0 1-1.2-.2" fill="#fff" fill-rule="nonzero"/><path style="mix-blend-mode:multiply" fill="#cd744c" d="M118.4 187.6h29.3V217h-29.3z" transform="translate(-447.4 -708.7) scale(3.77953)"/></svg>