<?xml version="1.0" encoding="UTF-8" standalone="no"?>
<svg
   width="23.447447"
   height="37.276001"
   viewBox="0 0 23.447447 37.276001"
   version="1.1"
   xml:space="preserve"
   style="clip-rule:evenodd;fill-rule:evenodd;stroke-linejoin:round;stroke-miterlimit:2"
   id="svg154"
   sodipodi:docname="trap_spear.svg"
   inkscape:version="1.1.1 (3bf5ae0d25, 2021-09-20)"
   xmlns:inkscape="http://www.inkscape.org/namespaces/inkscape"
   xmlns:sodipodi="http://sodipodi.sourceforge.net/DTD/sodipodi-0.dtd"
   xmlns="http://www.w3.org/2000/svg"
   xmlns:svg="http://www.w3.org/2000/svg"><defs
   id="defs158" /><sodipodi:namedview
   id="namedview156"
   pagecolor="#ffffff"
   bordercolor="#666666"
   borderopacity="1.0"
   inkscape:pageshadow="2"
   inkscape:pageopacity="0.0"
   inkscape:pagecheckerboard="0"
   showgrid="false"
   inkscape:zoom="27.842105"
   inkscape:cx="12.050095"
   inkscape:cy="18.928166"
   inkscape:window-width="1920"
   inkscape:window-height="1012"
   inkscape:window-x="-8"
   inkscape:window-y="-8"
   inkscape:window-maximized="1"
   inkscape:current-layer="svg154" />
    <g
   transform="rotate(90,1041.8195,273.56546)"
   id="g152">
        <g
   id="g150">
            <g
   transform="matrix(2,0,0,2,777.973,1295.91)"
   id="g4">
                <path
   d="M 0,0.042 C 0.046,-0.013 0.392,-0.084 0.499,-0.006 H 0.512 C 0.508,0.007 0.504,0.018 0.499,0.031 0.417,0.064 0.166,0.076 0.107,0.126 0.047,0.126 0.022,0.12 -0.013,0.102 -0.007,0.071 -0.005,0.053 0,0.042"
   style="fill:#ffffff;fill-rule:nonzero"
   id="path2" />
            </g>
            <g
   transform="matrix(2,0,0,2,778.496,1295.96)"
   id="g8">
                <path
   d="M 0,0.304 C -0.022,0.279 -0.051,0.259 -0.083,0.244 -0.074,0.216 -0.07,0.217 -0.06,0.196 0.154,0.191 0.567,0 0.703,0.125 0.713,0.137 0.707,0.128 0.715,0.148 0.619,0.183 0.517,0.163 0.405,0.196 0.279,0.235 0.157,0.304 0,0.304"
   style="fill:#ffffff;fill-rule:nonzero"
   id="path6" />
            </g>
            <g
   transform="matrix(2,0,0,2,778.376,1296.54)"
   id="g12">
                <path
   d="M 0,0.013 V 0.036 H -0.011 V 0.048 C -0.04,0.033 -0.067,0.016 -0.095,0.001 c 0.004,-0.012 0.008,-0.025 0.012,-0.036 h 0.024 C -0.043,-0.018 -0.021,0 0,0.013"
   style="fill:#ffffff;fill-rule:nonzero"
   id="path10" />
            </g>
            <g
   transform="matrix(2,0,0,2,778.83,1296.35)"
   id="g16">
                <path
   d="M 0,0.29 C -0.084,0.288 -0.099,0.267 -0.155,0.242 -0.151,0.23 -0.147,0.218 -0.143,0.206 -0.022,0.221 0.144,0.142 0.286,0.099 0.407,0.062 0.516,0.098 0.631,0.063 0.695,0.043 0.826,0 0.893,0.052 0.903,0.063 0.897,0.054 0.905,0.075 0.712,0.143 0.495,0.173 0.309,0.23 0.21,0.261 0.063,0.225 0,0.29"
   style="fill:#ffffff;fill-rule:nonzero"
   id="path14" />
            </g>
            <g
   transform="matrix(2,0,0,2,780.117,1296.58)"
   id="g20">
                <path
   d="M 0,0.659 C -0.163,0.644 -0.169,0.531 -0.262,0.456 -0.299,0.427 -0.348,0.417 -0.381,0.385 -0.423,0.393 -0.419,0.399 -0.453,0.409 -0.479,0.357 -0.519,0.336 -0.56,0.302 -0.553,0.281 -0.557,0.29 -0.548,0.278 -0.466,0.224 -0.261,0.24 -0.156,0.207 -0.001,0.158 0.175,0.14 0.345,0.088 0.418,0.064 0.548,0 0.655,0.028 0.77,0.058 0.919,0.113 1.024,0.159 1.019,0.184 1.02,0.182 1.012,0.194 0.91,0.27 0.725,0.299 0.595,0.35 0.487,0.391 0.404,0.492 0.298,0.54 0.193,0.587 0.082,0.594 0,0.659"
   style="fill:#ffffff;fill-rule:nonzero"
   id="path18" />
            </g>
            <g
   transform="matrix(2,0,0,2,781.379,1297.32)"
   id="g24">
                <path
   d="M 0,0.459 C -0.107,0.514 -0.252,0.519 -0.346,0.59 -0.447,0.577 -0.49,0.482 -0.56,0.435 -0.553,0.414 -0.557,0.423 -0.549,0.411 -0.476,0.32 -0.284,0.315 -0.179,0.256 -0.117,0.222 -0.052,0.144 0.011,0.113 0.063,0.102 0.115,0.089 0.166,0.078 0.243,0.045 0.33,-0.017 0.417,-0.041 h 0.119 c 0.089,-0.025 0.166,-0.09 0.297,-0.049 0.046,0.015 0.108,0.069 0.155,0.084 C 1.071,0.02 1.117,-0.02 1.167,0.03 1.179,0.04 1.168,0.029 1.178,0.042 0.963,0.142 0.677,0.216 0.452,0.292 0.353,0.316 0.254,0.34 0.154,0.363 0.106,0.385 0.046,0.435 0,0.459"
   style="fill:#ffffff;fill-rule:nonzero"
   id="path22" />
            </g>
            <g
   transform="matrix(2,0,0,2,781.212,1297.58)"
   id="g28">
                <path
   d="M 0,0.699 C -0.074,0.682 -0.119,0.615 -0.179,0.58 -0.171,0.559 -0.176,0.568 -0.167,0.556 -0.098,0.5 0.009,0.515 0.095,0.472 0.168,0.437 0.255,0.37 0.333,0.342 0.407,0.315 0.46,0.329 0.536,0.306 0.677,0.262 0.829,0.219 0.977,0.163 1.058,0.133 1.159,0.109 1.25,0.068 1.298,0.046 1.339,0 1.393,-0.016 V -0.027 H 1.405 C 1.438,0.065 1.463,0.101 1.548,0.139 1.522,0.254 1.293,0.251 1.191,0.294 0.891,0.421 0.543,0.55 0.25,0.688 0.165,0.726 0.069,0.662 0,0.699"
   style="fill:#ffffff;fill-rule:nonzero"
   id="path26" />
            </g>
            <g
   transform="matrix(2,0,0,2,783.594,1298.85)"
   id="g32">
                <path
   d="m 0,-0.092 c -0.229,0.09 -0.597,0.378 -0.869,0.262 0.007,-0.021 0.002,-0.012 0.012,-0.024 0.069,-0.082 0.239,-0.098 0.345,-0.143 0.125,-0.053 0.273,-0.086 0.404,-0.143 0.055,-0.023 0.122,-0.074 0.179,-0.095 0.148,-0.054 0.294,-0.058 0.405,-0.143 0.025,0.016 0.043,0.034 0.06,0.059 0.012,0.011 0.001,-0.001 0.011,0.013 C 0.383,-0.209 0.191,-0.167 0,-0.092"
   style="fill:#ffffff;fill-rule:nonzero"
   id="path30" />
            </g>
            <g
   transform="matrix(2,0,0,2,783.403,1298.74)"
   id="g36">
                <path
   d="M 0,0.262 C -0.11,0.308 -0.232,0.393 -0.381,0.333 -0.377,0.322 -0.373,0.309 -0.37,0.298 -0.153,0.24 0.013,0.13 0.203,0.06 0.361,0 0.591,-0.038 0.715,-0.131 c 0.042,0.004 0.039,0 0.059,0.024 0.013,0.011 0.001,-0.001 0.012,0.012 C 0.536,0.047 0.284,0.141 0,0.262"
   style="fill:#ffffff;fill-rule:nonzero"
   id="path34" />
            </g>
            <g
   transform="matrix(2,0,0,2,785.595,1299.52)"
   id="g40">
                <path
   d="m 0,-0.084 c 0.06,0.007 0.058,0.023 0.095,0.048 v 0.024 C 0.082,-0.001 0.093,-0.013 0.083,0 0.034,-0.006 0,-0.021 -0.036,-0.036 l 0.012,-0.036 C -0.003,-0.08 -0.012,-0.074 0,-0.084"
   style="fill:#ffffff;fill-rule:nonzero"
   id="path38" />
            </g>
            <g
   transform="matrix(2,0,0,2,783.451,1298.88)"
   id="g44">
                <path
   d="M 0,0.356 C 0.054,0.287 0.179,0.291 0.261,0.249 0.301,0.23 0.354,0.186 0.393,0.166 0.469,0.127 0.549,0.125 0.619,0.082 0.703,0.032 0.78,-0.037 0.893,-0.061 0.932,-0.021 0.98,-0.001 1.012,0.047 1.025,0.057 1.013,0.046 1.024,0.058 0.945,0.112 0.859,0.177 0.762,0.214 0.702,0.221 0.643,0.23 0.583,0.237 0.536,0.251 0.474,0.293 0.428,0.309 0.309,0.349 0.208,0.35 0.119,0.415 0.056,0.417 0.023,0.411 -0.012,0.392 -0.007,0.367 -0.009,0.369 0,0.356"
   style="fill:#ffffff;fill-rule:nonzero"
   id="path42" />
            </g>
            <g
   transform="matrix(2,0,0,2,775.09,1299.4)"
   id="g48">
                <path
   d="M 0,0.06 C -0.016,0.049 -0.031,0.036 -0.047,0.024 V 0 C -0.04,0.005 0.017,0.039 0,0.06"
   style="fill:#ffffff;fill-rule:nonzero"
   id="path46" />
            </g>
            <g
   transform="matrix(2,0,0,2,785.332,1299.88)"
   id="g52">
                <path
   d="m 0,-0.121 c -0.131,0.073 -0.406,0.168 -0.523,0.119 0.007,-0.021 0.001,-0.011 0.011,-0.024 0.11,-0.088 0.328,-0.057 0.441,-0.142 0.042,0.007 0.04,0.007 0.06,0.036 0.012,0.01 0,-0.001 0.011,0.011"
   style="fill:#ffffff;fill-rule:nonzero"
   id="path50" />
            </g>
            <g
   transform="matrix(2,0,0,2,785.238,1300)"
   id="g56">
                <path
   d="M 0,0.013 C 0.003,0.005 0.007,-0.004 0.011,-0.011 0.036,-0.007 0.035,-0.009 0.047,0.001 0.06,0.011 0.048,0 0.059,0.013 0.046,0.024 0.058,0.011 0.047,0.024 0.02,0.02 0.017,0.019 0,0.013"
   style="fill:#ffffff;fill-rule:nonzero"
   id="path54" />
            </g>
            <g
   transform="matrix(2,0,0,2,776.352,1300.59)"
   id="g60">
                <path
   d="M 0,0.251 C -0.089,0.189 -0.135,0.073 -0.226,0.013 v -0.024 h 0.012 V 0.001 C -0.164,0.033 0,0.201 0.012,0.262 H 0 Z"
   style="fill:#ffffff;fill-rule:nonzero"
   id="path58" />
            </g>
            <g
   transform="matrix(-1.61602,1.17834,1.17834,1.61602,777.683,1302.57)"
   id="g64">
                <path
   d="m 0.017,-0.054 v 0.06 z"
   style="fill:#ffffff"
   id="path62" />
            </g>
            <g
   transform="matrix(2,0,0,2,777.71,1302.83)"
   id="g68">
                <path
   d="m 0,-0.095 c 0.039,0.024 0.074,0.052 0.084,0.107 H 0.072 V 0 C 0.037,-0.024 0.023,-0.059 -0.011,-0.084 V -0.107 H 0 Z"
   style="fill:#ffffff;fill-rule:nonzero"
   id="path66" />
            </g>
            <g
   transform="matrix(2,0,0,2,781.736,1294.51)"
   id="g72">
                <path
   d="M 0,5.436 C -0.159,5.402 -0.323,5.49 -0.465,5.474 -0.503,5.47 -0.538,5.458 -0.571,5.436 -0.573,5.418 -0.575,5.413 -0.536,5.4 -0.572,5.37 -0.609,5.377 -0.655,5.353 -0.671,5.333 -0.687,5.313 -0.703,5.293 -0.828,5.235 -0.952,5.355 -1.048,5.245 L -1.072,5.269 C -1.215,5.22 -1.254,5.098 -1.358,5.019 -1.385,4.998 -1.422,4.988 -1.441,4.96 -1.445,4.936 -1.449,4.912 -1.453,4.888 -1.468,4.86 -1.519,4.832 -1.536,4.804 -1.544,4.781 -1.552,4.757 -1.561,4.733 -1.624,4.638 -1.732,4.564 -1.799,4.471 -1.872,4.369 -1.928,4.266 -2.001,4.162 -2.23,3.836 -2.535,3.574 -2.775,3.256 -2.833,3.179 -2.932,3.12 -2.99,3.042 -3.116,2.87 -3.243,2.711 -3.37,2.541 -3.409,2.49 -3.475,2.45 -3.513,2.399 -3.567,2.327 -3.611,2.239 -3.68,2.184 V 2.161 c 0.013,-0.012 0.001,10e-4 0.012,-0.012 0.096,0.036 0.172,0.212 0.274,0.273 v 0.013 h 0.011 C -3.415,2.344 -3.516,2.297 -3.561,2.22 -3.636,2.093 -3.714,1.992 -3.799,1.875 -3.839,1.839 -3.879,1.804 -3.919,1.767 -3.971,1.699 -4.011,1.624 -4.073,1.565 -4.09,1.564 -4.09,1.562 -4.109,1.589 -4.146,1.575 -4.175,1.553 -4.198,1.525 -4.268,1.442 -4.287,1.311 -4.335,1.22 -4.36,1.173 -4.406,1.122 -4.431,1.077 -4.461,1.018 -4.468,0.942 -4.514,0.898 -4.534,0.894 -4.554,0.891 -4.574,0.886 -4.629,0.851 -4.701,0.749 -4.74,0.696 -4.76,0.684 -4.727,0.666 -4.717,0.648 -4.754,0.613 -4.78,0.57 -4.823,0.541 -4.819,0.504 -4.811,0.475 -4.799,0.446 -4.859,0.416 -4.945,0.384 -4.99,0.338 -5.003,0.327 -4.991,0.34 -5.002,0.327 c 0.012,-0.011 10e-4,0 0.012,-0.012 0.073,0.028 0.163,0.056 0.214,0.107 h 0.024 V 0.41 H -4.764 C -4.798,0.326 -4.928,0.313 -5.002,0.267 -5.131,0.187 -5.247,0.08 -5.359,-0.019 c 0.012,-0.016 0.023,-0.022 0.035,-0.035 0.094,0.008 0.143,0.047 0.215,0.071 0.079,0.012 0.158,0.023 0.238,0.036 0.102,0.036 0.255,0.082 0.369,0.119 0.04,0.012 0.339,0.05 0.381,0.036 0.016,-0.006 0.049,-0.045 0.059,-0.049 0.046,-0.011 0.273,0.064 0.322,0.084 0.074,0.03 0.116,0.098 0.179,0.132 0.071,0.036 0.144,0.028 0.202,0.071 0.041,0.03 0.058,0.098 0.108,0.119 0.074,0.031 0.198,-0.004 0.261,0.035 0.028,0.033 0.056,0.064 0.084,0.096 0.06,0.043 0.131,0.063 0.191,0.107 0.09,0.065 0.157,0.174 0.25,0.238 0.08,0.057 0.226,0.078 0.286,0.155 0,0.015 0.007,0.006 -0.013,0.024 0.031,0.109 0.201,0.087 0.263,0.167 0.058,0.075 0.109,0.149 0.167,0.226 0.035,0.032 0.071,0.063 0.106,0.095 0.096,0.142 0.156,0.264 0.298,0.357 -0.01,0.05 -0.006,0.044 -0.059,0.048 0.084,0.139 0.176,0.278 0.262,0.417 0.201,-0.011 0.376,0.073 0.536,0.143 0.109,0.047 0.211,0.046 0.321,0.095 0.094,0.041 0.213,0.101 0.309,0.143 C 0.069,2.935 0.11,2.923 0.166,2.947 0.23,2.974 0.314,3.021 0.381,3.042 0.441,3.061 0.5,3.048 0.547,3.077 0.574,3.101 0.56,3.11 0.572,3.125 0.617,3.178 0.701,3.169 0.762,3.209 0.787,3.225 0.786,3.274 0.81,3.292 0.841,3.304 0.873,3.316 0.905,3.328 0.965,3.368 1.015,3.448 1.059,3.507 1.098,3.558 1.16,3.564 1.215,3.602 1.252,3.627 1.281,3.684 1.322,3.709 1.371,3.739 1.434,3.72 1.489,3.745 1.51,3.754 1.54,3.792 1.56,3.804 1.692,3.885 1.82,3.942 1.941,4.03 1.973,4.067 2.005,4.102 2.036,4.138 2.083,4.171 2.123,4.175 2.155,4.221 2.173,4.253 2.157,4.301 2.179,4.364 2.202,4.426 2.303,4.512 2.274,4.614 2.267,4.641 2.235,4.66 2.227,4.685 2.238,4.694 2.273,4.745 2.274,4.757 2.277,4.77 2.252,4.787 2.25,4.793 2.231,4.873 2.241,5.026 2.263,5.09 2.299,5.202 2.426,5.286 2.453,5.364 2.463,5.377 2.457,5.367 2.465,5.388 2.307,5.486 1.998,5.459 1.738,5.459 H 0.631 C 0.409,5.459 0.208,5.48 0,5.436 M -2.025,4.078 c 0.035,0.024 0.049,0.06 0.084,0.084 v 0.011 h 0.012 C -1.939,4.119 -1.974,4.09 -2.013,4.067 V 4.054 H -2.025 Z M -2.037,4.043 C -2.04,4.03 -2.044,4.019 -2.048,4.007 -2.057,4.003 -2.064,3.999 -2.072,3.995 v 0.024 c 0.012,0.008 0.024,0.015 0.035,0.024 M -2.918,3.054 c 0.091,0.06 0.137,0.176 0.226,0.238 V 3.304 H -2.68 C -2.692,3.242 -2.856,3.074 -2.906,3.042 V 3.03 H -2.918 Z M -3.37,2.446 V 2.47 c 0.016,0.012 0.031,0.024 0.047,0.036 0.016,-0.021 -0.04,-0.055 -0.047,-0.06"
   style="fill:#ffffff;fill-rule:nonzero"
   id="path70" />
            </g>
            <g
   transform="matrix(2,0,0,2,780.734,1297.64)"
   id="g76">
                <path
   d="M 0,4.112 C -0.277,4.053 -0.636,4.153 -0.857,4.001 -0.916,3.961 -0.943,3.893 -0.987,3.834 -1.007,3.827 -1.027,3.819 -1.047,3.811 -1.099,3.766 -1.113,3.713 -1.154,3.656 -1.206,3.613 -1.258,3.569 -1.309,3.525 -1.399,3.379 -1.504,3.268 -1.595,3.132 -1.629,3.08 -1.643,3.027 -1.678,2.977 -1.765,2.857 -1.892,2.752 -1.976,2.632 -2.078,2.485 -2.146,2.313 -2.25,2.167 -2.313,2.107 -2.377,2.048 -2.441,1.988 V 1.917 C -2.461,1.875 -2.535,1.841 -2.56,1.798 -2.6,1.729 -2.612,1.661 -2.655,1.595 -2.669,1.575 -2.697,1.588 -2.714,1.571 -2.761,1.528 -2.78,1.456 -2.833,1.417 -2.924,1.351 -2.986,1.267 -3.071,1.202 -3.097,1.183 -3.134,1.177 -3.155,1.154 -3.266,1.036 -3.302,0.854 -3.393,0.715 -3.457,0.617 -3.563,0.543 -3.632,0.452 -3.713,0.344 -3.793,0.24 -3.873,0.132 l 0.176,-0.173 c 0.023,0.029 0.052,0.05 0.09,0.064 0.018,-0.026 0.018,-0.025 0.035,-0.023 0.062,0.059 0.103,0.133 0.155,0.202 0.039,0.036 0.079,0.072 0.119,0.107 0.085,0.118 0.164,0.219 0.238,0.346 0.046,0.077 0.146,0.124 0.179,0.214 H -2.893 V 0.857 C -2.995,0.796 -3.071,0.62 -3.167,0.583 -3.178,0.596 -3.166,0.584 -3.179,0.596 v 0.023 c 0.069,0.054 0.113,0.143 0.167,0.215 0.038,0.051 0.104,0.091 0.143,0.142 0.127,0.17 0.255,0.328 0.38,0.5 0.058,0.079 0.157,0.138 0.215,0.214 0.24,0.318 0.545,0.58 0.775,0.906 0.072,0.104 0.128,0.208 0.201,0.309 0.067,0.093 0.175,0.167 0.239,0.263 0.008,0.024 0.016,0.048 0.024,0.071 0.018,0.028 0.068,0.055 0.083,0.083 0.004,0.024 0.008,0.048 0.012,0.072 0.019,0.028 0.056,0.038 0.083,0.06 0.104,0.078 0.143,0.201 0.286,0.25 L -0.547,3.68 c 0.096,0.109 0.22,-0.011 0.345,0.048 0.016,0.019 0.033,0.039 0.048,0.059 0.046,0.025 0.083,0.017 0.119,0.047 -0.039,0.013 -0.037,0.018 -0.035,0.037 0.034,0.022 0.068,0.033 0.106,0.037 z"
   style="fill:#811236;fill-rule:nonzero"
   id="path74" />
            </g>
            <g
   transform="matrix(0.485071,-1.94029,-1.94029,-0.485071,785.837,1305.44)"
   id="g80">
                <path
   d="m -0.205,-0.134 c -0.034,0.146 -0.047,0.321 -0.026,0.447 0.008,-0.001 0.017,-0.004 0.026,-0.006 0.026,-0.095 0.126,-0.417 0.092,-0.468 -0.02,-0.02 -0.061,0.014 -0.092,0.027"
   style="fill:#ffffff;fill-rule:nonzero"
   id="path78" />
            </g>
            <g
   transform="matrix(2,0,0,2,786.642,1305.67)"
   id="g84">
                <path
   d="M 0,0.105 C -0.065,0.094 -0.096,0.061 -0.143,0.034 -0.139,0.025 -0.135,0.017 -0.13,0.01 -0.054,0.006 -0.007,0 0.013,0.057 0.022,0.069 0.017,0.06 0.024,0.081 0.01,0.092 0.011,0.091 0,0.105"
   style="fill:#ffffff;fill-rule:nonzero"
   id="path82" />
            </g>
            <g
   transform="matrix(1.59394,1.20804,1.20804,-1.59394,792.506,1307.2)"
   id="g88">
                <path
   d="M 0.036,-0.012 C 0.019,0.028 0.02,0.056 0.017,0.093 L 0.036,0.107 0.043,0.098 C 0.033,0.06 0.048,0.026 0.036,-0.012"
   style="fill:#ffffff;fill-rule:nonzero"
   id="path86" />
            </g>
            <g
   transform="matrix(2,0,0,2,792.525,1307.31)"
   id="g92">
                <path
   d="M 0,-0.023 H 0.011 C 0.004,-0.003 0.01,-0.011 0,0 Z"
   style="fill:#ffffff;fill-rule:nonzero"
   id="path90" />
            </g>
            <g
   transform="matrix(2,0,0,2,791.477,1305.93)"
   id="g96">
                <path
   d="m 0,1.371 c -0.011,-0.02 -0.023,-0.04 -0.035,-0.06 -0.063,0 -0.107,-0.018 -0.144,0.012 C -0.206,1.319 -0.208,1.317 -0.226,1.311 -0.264,1.215 -0.289,0.995 -0.238,0.882 -0.217,0.837 -0.156,0.794 -0.131,0.752 -0.107,0.688 -0.083,0.624 -0.06,0.561 -0.03,0.516 0.033,0.479 0.06,0.43 0.088,0.38 0.089,0.332 0.119,0.287 0.159,0.251 0.199,0.216 0.238,0.18 0.28,0.12 0.299,0.043 0.357,0.002 0.393,-0.024 0.453,-0.022 0.489,-0.047 0.51,-0.039 0.5,-0.044 0.513,-0.034 H 0.524 C 0.495,0.047 0.421,0.062 0.357,0.108 0.315,0.139 0.296,0.197 0.251,0.227 0.251,0.264 0.255,0.288 0.262,0.311 0.381,0.306 0.38,0.235 0.465,0.204 V 0.192 H 0.477 V 0.204 H 0.489 C 0.466,0.264 0.415,0.263 0.394,0.323 0.384,0.335 0.389,0.326 0.381,0.346 0.395,0.358 0.382,0.345 0.394,0.359 0.475,0.345 0.541,0.308 0.584,0.251 0.611,0.254 0.618,0.254 0.632,0.264 H 0.643 C 0.616,0.342 0.547,0.338 0.489,0.37 V 0.454 C 0.592,0.446 0.798,0.355 0.857,0.299 0.895,0.298 0.933,0.297 0.953,0.311 H 0.965 C 0.961,0.323 0.957,0.335 0.953,0.346 0.928,0.355 0.857,0.356 0.834,0.37 H 0.811 C 0.829,0.402 0.864,0.388 0.893,0.406 H 0.906 C 0.902,0.418 0.897,0.43 0.893,0.442 0.86,0.456 0.837,0.464 0.787,0.465 V 0.502 C 0.59,0.623 0.571,0.761 0.453,0.954 0.426,0.998 0.368,1.04 0.346,1.085 0.328,1.12 0.341,1.184 0.322,1.216 V 1.228 H 0.31 C 0.291,1.187 0.284,1.156 0.298,1.133 0.304,1.055 0.42,0.855 0.465,0.799 V 0.775 C 0.452,0.786 0.464,0.775 0.453,0.787 0.308,0.888 0.257,1.249 0.167,1.418 0.141,1.412 0.124,1.407 0.108,1.395 0.082,1.372 0.082,1.35 0.084,1.299 0.039,1.317 0.035,1.345 0,1.371 M 0.536,0.668 C 0.568,0.645 0.577,0.609 0.608,0.584 V 0.573 H 0.584 C 0.565,0.604 0.547,0.626 0.536,0.668 H 0.524 V 0.691 C 0.534,0.68 0.528,0.688 0.536,0.668"
   style="fill:#ffffff;fill-rule:nonzero"
   id="path94" />
            </g>
            <g
   transform="matrix(1.81813,-0.833309,-0.833309,-1.81813,794.531,1309.15)"
   id="g100">
                <ellipse
   cx="-0.024"
   cy="-0.016000001"
   rx="0.039000001"
   ry="0.029999999"
   style="fill:#ffffff"
   id="ellipse98" />
            </g>
            <g
   transform="matrix(2,0,0,2,794.431,1309.34)"
   id="g104">
                <path
   d="M 0,-0.024 H 0.011 C 0.004,-0.003 0.01,-0.013 0,0 Z"
   style="fill:#ffffff;fill-rule:nonzero"
   id="path102" />
            </g>
            <g
   transform="matrix(1.21615,-1.58776,-1.58776,-1.21615,797.863,1309.71)"
   id="g108">
                <path
   d="m -0.02,-0.043 c -0.043,0.02 -0.071,0.029 -0.093,0.064 0.032,-0.002 0.062,-0.004 0.093,-0.005 0.004,-0.012 0.008,-0.024 0.013,-0.036 -0.004,-0.007 -0.008,-0.016 -0.013,-0.023"
   style="fill:#ffffff;fill-rule:nonzero"
   id="path106" />
            </g>
            <g
   transform="matrix(2,0,0,2,794.122,1307.76)"
   id="g112">
                <path
   d="M 0,1.333 C -0.001,1.177 0.035,0.985 0.107,0.905 V 0.881 H 0.095 C 0.055,0.958 0.005,1.058 -0.024,1.143 -0.074,1.287 -0.046,1.435 -0.108,1.56 -0.141,1.555 -0.159,1.551 -0.179,1.536 -0.204,1.513 -0.204,1.492 -0.203,1.441 -0.237,1.457 -0.256,1.492 -0.274,1.524 -0.308,1.51 -0.307,1.507 -0.322,1.476 -0.404,1.485 -0.443,1.486 -0.5,1.512 -0.631,1.283 -0.553,1.048 -0.465,0.845 -0.457,0.81 -0.449,0.774 -0.441,0.737 -0.419,0.69 -0.367,0.646 -0.346,0.595 -0.33,0.547 -0.313,0.499 -0.298,0.452 -0.271,0.408 -0.216,0.369 -0.191,0.321 -0.167,0.276 -0.17,0.24 -0.143,0.202 -0.088,0.125 0.02,0.075 0.071,0 c 0.028,-0.041 0.038,-0.116 0.06,-0.156 0.054,-0.019 0.11,-0.03 0.143,-0.071 0.03,0.003 0.04,0.005 0.059,0.012 l 0.012,0.036 C 0.27,-0.109 0.189,-0.029 0.119,0.047 0.071,0.099 0.073,0.161 0.011,0.202 0.018,0.254 0.026,0.243 0.047,0.274 0.15,0.269 0.198,0.173 0.238,0.107 0.27,0.118 0.278,0.131 0.298,0.155 0.365,0.144 0.489,0.084 0.523,0.035 c 0.014,0.011 0.002,0 0.013,0.012 H 0.547 C 0.528,0.095 0.465,0.118 0.488,0.166 0.475,0.234 0.426,0.249 0.393,0.298 H 0.285 V 0.309 H 0.274 v 0.06 H 0.428 C 0.49,0.278 0.589,0.24 0.667,0.166 0.697,0.168 0.711,0.168 0.726,0.179 H 0.738 C 0.716,0.236 0.685,0.226 0.643,0.261 0.601,0.295 0.58,0.36 0.536,0.393 0.461,0.449 0.375,0.508 0.322,0.583 0.212,0.735 0.177,0.914 0.095,1.095 0.087,1.114 0.055,1.135 0.047,1.154 0.026,1.212 0.06,1.273 0.024,1.333 V 1.345 H 0.011 V 1.333 Z M 0.155,0.786 C 0.165,0.773 0.159,0.782 0.166,0.762 0.189,0.745 0.195,0.722 0.214,0.702 V 0.678 H 0.203 C 0.189,0.707 0.175,0.726 0.166,0.762 H 0.155 Z"
   style="fill:#ffffff;fill-rule:nonzero"
   id="path110" />
            </g>
            <g
   transform="matrix(2,0,0,2,795.503,1311.53)"
   id="g116">
                <path
   d="m 0,-0.035 h 0.048 v 0.023 H 0.035 C 0.023,-0.003 0.025,-0.004 0,0 Z"
   style="fill:#ffffff;fill-rule:nonzero"
   id="path114" />
            </g>
            <g
   transform="matrix(2,0,0,2,795.622,1308.69)"
   id="g120">
                <path
   d="M 0,1.464 C -0.08,1.462 -0.093,1.475 -0.119,1.523 -0.147,1.521 -0.153,1.521 -0.167,1.512 -0.217,1.495 -0.227,1.471 -0.227,1.404 -0.251,1.421 -0.27,1.439 -0.286,1.464 H -0.309 C -0.316,1.449 -0.324,1.428 -0.333,1.417 -0.388,1.381 -0.472,1.407 -0.524,1.393 -0.574,1.117 -0.487,1.121 -0.417,0.941 -0.395,0.885 -0.406,0.846 -0.381,0.797 -0.325,0.687 -0.217,0.57 -0.274,0.44 -0.225,0.406 -0.205,0.324 -0.155,0.297 -0.128,0.293 -0.099,0.29 -0.071,0.286 -0.032,0.26 0.092,0.083 0.13,0.035 0.157,0.003 0.202,0.011 0.238,-0.012 0.284,-0.043 0.299,-0.1 0.333,-0.144 0.35,-0.165 0.386,-0.173 0.405,-0.191 c 0.037,0.007 0.029,0.002 0.047,0.024 0.018,0.024 -0.134,0.161 -0.166,0.19 v 0.024 c 0.062,-0.018 0.136,-0.077 0.179,-0.119 0.036,0.007 0.029,0.002 0.047,0.024 0.013,0.011 0.001,-0.002 0.012,0.012 -0.032,0.02 -0.064,0.04 -0.096,0.059 0.077,0.062 0.211,-0.009 0.251,-0.059 0.02,0.007 0.011,0.002 0.024,0.011 0.012,0.012 0.001,-10e-4 0.011,0.013 -0.028,0.02 -0.055,0.039 -0.083,0.059 v 0.06 C 0.682,0.103 0.714,0.089 0.738,0.059 0.775,0.086 0.78,0.133 0.81,0.166 0.798,0.232 0.774,0.248 0.774,0.333 0.799,0.329 0.797,0.33 0.81,0.321 0.858,0.309 0.939,0.241 0.964,0.202 0.985,0.209 0.976,0.204 0.988,0.214 0.998,0.226 0.992,0.217 1.001,0.238 0.99,0.249 0.987,0.275 0.977,0.286 0.953,0.306 0.911,0.307 0.893,0.333 0.873,0.363 0.881,0.381 0.857,0.405 V 0.429 C 0.924,0.412 0.993,0.375 1.036,0.333 1.048,0.337 1.06,0.341 1.072,0.345 1.064,0.43 0.989,0.503 0.917,0.524 V 0.619 C 0.967,0.615 0.968,0.613 0.988,0.583 1.013,0.587 1.011,0.586 1.024,0.595 1.037,0.605 1.026,0.594 1.036,0.607 L 0.964,0.667 C 0.955,0.678 0.96,0.669 0.953,0.69 0.965,0.701 0.954,0.689 0.964,0.702 1.048,0.701 1.09,0.672 1.131,0.63 1.152,0.639 1.143,0.633 1.155,0.643 1.232,0.755 1.154,0.867 1.191,1.024 1.195,1.042 1.222,1.076 1.215,1.107 1.208,1.132 1.167,1.146 1.155,1.166 1.122,1.221 1.119,1.28 1.083,1.333 1.073,1.35 1.04,1.4 1.024,1.417 1.012,1.421 1.001,1.424 0.988,1.428 V 1.476 C 0.963,1.522 0.9,1.553 0.869,1.595 0.801,1.596 0.798,1.596 0.726,1.595 0.734,1.607 0.743,1.619 0.75,1.631 0.736,1.642 0.737,1.641 0.726,1.655 0.625,1.628 0.524,1.572 0.428,1.547 H 0.25 C 0.184,1.533 0.05,1.495 0,1.464 M -0.06,1.417 c 0.025,-0.005 0.023,-0.004 0.036,-0.013 h 0.013 V 1.381 H -0.06 Z"
   style="fill:#ffffff;fill-rule:nonzero"
   id="path118" />
            </g>
            <g
   transform="matrix(2,0,0,2,799.005,1312.72)"
   id="g124">
                <path
   d="M 0,0.442 C -0.233,0.447 -0.102,0.359 -0.214,0.275 V 0.239 C -0.167,0.218 -0.108,0.225 -0.048,0.204 -0.004,0.189 0.061,0.146 0.107,0.132 0.166,0.128 0.226,0.124 0.285,0.12 0.334,0.105 0.384,0.062 0.428,0.048 0.529,0.019 0.589,0.052 0.655,0.001 0.717,-0.001 0.728,-0.005 0.738,0.048 0.766,0.038 0.757,0.044 0.774,0.025 0.801,0.028 0.804,0.03 0.821,0.037 0.802,0.124 0.678,0.117 0.631,0.144 0.592,0.167 0.619,0.21 0.607,0.227 0.583,0.26 0.4,0.327 0.274,0.37 0.226,0.387 0.185,0.4 0.166,0.406 0.109,0.425 0.044,0.413 0,0.442"
   style="fill:#ffffff;fill-rule:nonzero"
   id="path122" />
            </g>
            <g
   transform="matrix(2,0,0,2,800.267,1313.3)"
   id="g128">
                <path
   d="M 0,-0.051 C 0.049,-0.03 0.007,0 -0.024,-0.004 -0.015,-0.031 -0.011,-0.03 0,-0.051"
   style="fill:#ffffff;fill-rule:nonzero"
   id="path126" />
            </g>
            <g
   transform="matrix(2,0,0,2,799.191,1313.28)"
   id="g132">
                <path
   d="M 0,0.18 C 0.07,0.154 0.115,0.117 0.18,0.088 c 0.023,-0.01 0.075,0.01 0.095,0 C 0.284,0.077 0.291,0.064 0.299,0.053 0.365,0.021 0.421,0.039 0.466,-0.007 0.486,0 0.478,-0.004 0.49,0.005 0.499,0.017 0.495,0.008 0.502,0.029 0.389,0.071 0.271,0.102 0.204,0.136 0.182,0.147 0.164,0.119 0.156,0.124 0.152,0.136 0.149,0.148 0.145,0.16 0.118,0.173 0.002,0.187 0.002,0.183 Z"
   style="fill:#ffffff;fill-rule:nonzero"
   id="path130" />
            </g>
            <g
   transform="matrix(2,0,0,2,799.171,1313.78)"
   id="g136">
                <path
   d="M 0,-0.067 C 0.003,-0.068 0.007,-0.069 0.01,-0.07 l 10e-4,0.003 c -0.049,0.026 -0.132,0.084 -0.226,0.048 0.008,-0.021 0.002,-0.011 0.012,-0.024 0.067,-0.041 0.159,-0.009 0.203,-0.024"
   style="fill:#ffffff;fill-rule:nonzero"
   id="path134" />
            </g>
            <g
   transform="matrix(2,0,0,2,801.792,1314.21)"
   id="g140">
                <path
   d="m 0,-0.162 c -0.132,0.089 -0.308,0.19 -0.465,0.251 -0.058,0.022 -0.173,0.006 -0.214,0.047 -0.027,-0.003 -0.03,-0.005 -0.048,-0.012 0.002,-0.046 0,-0.05 0.024,-0.071 C -0.719,0.037 -0.741,0.027 -0.762,0.017 V -0.03 c -0.033,0 -0.055,0 -0.072,0.011 -0.056,-0.01 -0.062,-0.03 -0.072,-0.083 0.073,-0.035 0.177,-0.02 0.274,-0.047 0.175,-0.05 0.457,-0.149 0.608,-0.048 0.007,0.004 0.016,0.008 0.024,0.012 z"
   style="fill:#ffffff;fill-rule:nonzero"
   id="path138" />
            </g>
            <g
   transform="matrix(2,0,0,2,802.649,1314.13)"
   id="g144">
                <path
   d="m 0,0.304 c -0.096,0.034 -0.211,0.089 -0.309,0.119 h -0.37 c -0.051,0.004 -0.127,0.018 -0.178,0 0.04,-0.117 0.261,-0.126 0.369,-0.178 0.243,-0.12 0.508,-0.178 0.762,-0.287 0.097,-0.041 0.308,-0.036 0.381,-0.095 0.025,0.005 0.023,0.004 0.035,0.012 0.011,0.012 0.005,0.003 0.013,0.024 C 0.595,-0.033 0.488,0.034 0.381,0.101 0.354,0.14 0.387,0.16 0.357,0.196 0.267,0.269 0.119,0.261 0,0.304"
   style="fill:#ffffff;fill-rule:nonzero"
   id="path142" />
            </g>
            <g
   transform="matrix(2,0,0,2,802.076,1292.17)"
   id="g148">
                <path
   d="m 0,11.5 c -0.142,0.044 -0.556,0.142 -0.762,0.095 -0.068,-0.015 -0.14,-0.044 -0.191,-0.059 -0.065,-0.021 -0.181,0 -0.214,-0.012 C -1.178,11.52 -1.203,11.481 -1.214,11.476 -1.278,11.45 -1.347,11.47 -1.405,11.441 -1.537,11.374 -1.647,11.25 -1.762,11.167 -1.801,11.139 -1.842,11.135 -1.881,11.107 -1.917,11.068 -1.953,11.028 -1.988,10.988 -2.043,10.949 -2.111,10.943 -2.167,10.905 -2.195,10.873 -2.223,10.841 -2.25,10.81 -2.322,10.768 -2.431,10.747 -2.513,10.726 h -0.178 c -0.067,-0.017 -0.095,-0.065 -0.143,-0.095 -0.029,-0.019 -0.061,-0.005 -0.095,-0.024 -0.057,-0.032 -0.088,-0.13 -0.143,-0.167 -0.044,-0.029 -0.093,-0.027 -0.12,-0.071 -0.033,-0.057 -0.042,-0.108 -0.095,-0.143 -0.031,-0.021 -0.067,-0.024 -0.095,-0.048 -0.03,-0.027 -0.038,-0.085 -0.072,-0.107 -0.048,-0.032 -0.15,-0.051 -0.19,-0.06 H -3.763 C -3.813,9.992 -3.898,9.925 -3.942,9.904 -3.953,9.908 -3.966,9.912 -3.977,9.916 -4.108,9.842 -4.152,9.647 -4.275,9.571 -4.319,9.544 -4.363,9.538 -4.407,9.511 -4.437,9.492 -4.464,9.443 -4.502,9.428 -4.528,9.417 -4.551,9.443 -4.561,9.44 -4.616,9.423 -4.769,9.314 -4.811,9.273 -4.874,9.211 -4.904,9.122 -4.954,9.047 -4.971,9.02 -5.02,9.002 -5.037,8.975 -5.036,8.94 -5.047,8.877 -5.073,8.832 -5.097,8.792 -5.14,8.787 -5.181,8.761 -5.2,8.729 -5.22,8.697 -5.24,8.666 -5.317,8.581 -5.401,8.539 -5.466,8.439 -5.496,8.393 -5.574,8.388 -5.62,8.356 -5.657,8.316 -5.693,8.276 -5.728,8.237 -5.759,8.219 -5.891,8.175 -5.918,8.165 H -5.99 C -6.104,8.119 -6.178,8.041 -6.288,7.998 -6.33,7.983 -6.404,8.011 -6.466,7.987 -6.63,7.923 -6.765,7.852 -6.848,7.677 -7.035,7.679 -7.31,7.539 -7.419,7.451 -7.434,7.438 -7.436,7.401 -7.455,7.391 H -7.538 C -7.581,7.377 -7.638,7.332 -7.681,7.308 -7.672,7.287 -7.65,7.286 -7.669,7.272 -7.698,7.232 -7.741,7.233 -7.812,7.237 c -0.082,-0.049 -0.17,0.021 -0.25,0 C -8.2,7.199 -8.395,7.175 -8.551,7.141 H -8.789 C -8.991,7.096 -9.247,7.081 -9.432,7.034 -9.491,7.038 -9.551,7.042 -9.61,7.046 -9.717,7.022 -9.869,7.009 -9.98,6.975 -10.048,6.952 -10.153,6.902 -10.229,6.891 -10.26,6.887 -10.293,6.922 -10.337,6.915 -10.419,6.9 -10.555,6.877 -10.635,6.856 -10.646,6.852 -10.659,6.85 -10.671,6.847 l 0.035,-0.203 c 0.143,0.015 0.306,-0.072 0.466,-0.038 0.207,0.044 0.409,0.023 0.631,0.023 h 1.107 c 0.26,0 0.569,0.026 0.727,-0.071 C -7.713,6.537 -7.707,6.546 -7.717,6.534 -7.744,6.455 -7.871,6.372 -7.907,6.26 -7.929,6.195 -7.939,6.042 -7.92,5.962 -7.918,5.956 -7.893,5.939 -7.896,5.927 -7.897,5.914 -7.932,5.864 -7.943,5.855 -7.935,5.83 -7.903,5.811 -7.896,5.784 -7.867,5.682 -7.968,5.596 -7.991,5.534 -8.013,5.471 -7.998,5.422 -8.015,5.391 -8.047,5.344 -8.088,5.34 -8.134,5.307 -8.165,5.272 -8.198,5.236 -8.229,5.2 -8.35,5.111 -8.478,5.054 -8.61,4.974 -8.63,4.962 -8.661,4.923 -8.681,4.914 -8.736,4.89 -8.799,4.909 -8.849,4.879 -8.889,4.854 -8.918,4.797 -8.955,4.771 -9.01,4.734 -9.072,4.728 -9.111,4.676 -9.155,4.617 -9.205,4.538 -9.265,4.498 -9.297,4.485 -9.329,4.474 -9.361,4.462 -9.384,4.444 -9.383,4.395 -9.408,4.378 -9.469,4.339 -9.553,4.348 -9.599,4.295 -9.61,4.279 -9.596,4.27 -9.623,4.247 -9.67,4.218 -9.729,4.23 -9.789,4.211 -9.856,4.191 -9.94,4.144 -10.004,4.116 -10.06,4.092 -10.101,4.105 -10.159,4.081 -10.255,4.039 -10.374,3.979 -10.468,3.938 -10.578,3.889 -10.68,3.89 -10.79,3.842 -10.949,3.773 -11.125,3.689 -11.325,3.699 -11.411,3.56 -11.503,3.422 -11.587,3.283 c 0.053,-0.005 0.049,10e-4 0.059,-0.048 -0.142,-0.093 -0.202,-0.215 -0.298,-0.358 -0.035,-0.031 -0.071,-0.062 -0.106,-0.095 -0.058,-0.077 -0.109,-0.15 -0.167,-0.226 -0.062,-0.079 -0.232,-0.057 -0.263,-0.167 0.02,-0.018 0.013,-0.009 0.013,-0.024 -0.06,-0.076 -0.206,-0.098 -0.286,-0.154 -0.093,-0.065 -0.16,-0.173 -0.25,-0.238 -0.061,-0.044 -0.131,-0.064 -0.191,-0.108 -0.028,-0.032 -0.056,-0.063 -0.084,-0.095 -0.063,-0.04 -0.187,-0.004 -0.261,-0.036 -0.05,-0.02 -0.067,-0.089 -0.108,-0.119 -0.058,-0.043 -0.131,-0.034 -0.202,-0.071 -0.063,-0.033 -0.105,-0.102 -0.179,-0.131 -0.049,-0.02 -0.276,-0.096 -0.322,-0.084 -0.011,0.003 -0.043,0.043 -0.059,0.048 -0.043,0.014 -0.341,-0.023 -0.381,-0.035 C -14.786,1.305 -14.94,1.258 -15.041,1.223 -15.121,1.21 -15.2,1.198 -15.28,1.187 -15.352,1.163 -15.4,1.123 -15.494,1.115 c -0.012,0.014 -0.024,0.02 -0.035,0.036 0.112,0.099 0.228,0.205 0.357,0.286 0.074,0.046 0.204,0.058 0.238,0.143 h 0.012 v 0.011 h -0.024 c -0.052,-0.051 -0.141,-0.078 -0.214,-0.106 -0.011,0.012 0,10e-4 -0.012,0.011 0.011,0.014 -10e-4,0.001 0.012,0.012 0.045,0.046 0.131,0.078 0.19,0.107 -0.011,0.029 -0.019,0.058 -0.023,0.095 0.043,0.029 0.069,0.072 0.106,0.108 -0.01,0.018 -0.043,0.036 -0.023,0.047 0.039,0.054 0.111,0.155 0.166,0.191 0.02,0.004 0.04,0.007 0.06,0.012 0.046,0.043 0.053,0.12 0.083,0.178 0.024,0.046 0.071,0.096 0.096,0.143 0.047,0.091 0.067,0.223 0.137,0.306 l -0.176,0.172 c -0.027,-0.036 -0.054,-0.071 -0.081,-0.109 -0.133,-0.183 -0.317,-0.329 -0.452,-0.512 -0.021,-0.028 -0.068,-0.05 -0.083,-0.083 -0.046,-0.098 -0.015,-0.245 -0.071,-0.334 -0.07,-0.108 -0.228,-0.15 -0.346,-0.214 -0.064,-0.034 -0.345,-0.316 -0.393,-0.381 -0.128,-0.172 -0.242,-0.351 -0.369,-0.523 -0.072,-0.096 -0.183,-0.178 -0.25,-0.275 -0.087,-0.126 -0.16,-0.265 -0.239,-0.393 -0.032,-0.052 -0.042,-0.112 -0.083,-0.154 0.054,-0.031 0.407,0.084 0.476,0.107 0.115,0.038 0.207,0.026 0.31,0.071 0.079,0.034 0.139,0.108 0.226,0.143 0.11,0.043 0.213,0.055 0.31,0.107 0.047,0.025 0.103,0.077 0.155,0.096 0.069,0.024 0.119,0.01 0.178,0.035 0.039,0.017 0.087,0.066 0.144,0.06 0.197,-0.02 0.294,0.218 0.476,0.25 0.03,0.005 0.117,-0.03 0.166,-0.012 0.265,0.096 0.592,0.068 0.858,0.179 0.11,0.045 0.237,0.024 0.357,0.059 0.129,0.037 0.22,0.141 0.346,0.179 0.12,0.036 0.255,0.014 0.369,0.06 0.321,0.128 0.761,0.194 1.084,0.321 0.107,0.012 0.214,0.023 0.321,0.036 0.159,0.047 0.317,0.095 0.476,0.143 0.079,0.011 0.159,0.023 0.238,0.036 0.132,0.037 0.28,0.083 0.406,0.119 h 0.154 c 0.012,0.015 0.024,0.031 0.036,0.046 h 0.167 c 0.117,0.03 0.241,0.037 0.369,0.073 0.266,0.072 0.555,0.135 0.798,0.225 0.109,0.042 0.202,0.046 0.286,0.108 0.069,0.051 0.081,0.177 0.131,0.25 0.016,0.025 0.049,0.028 0.072,0.048 0.001,10e-4 0.13,0.177 0.13,0.178 -0.038,0.029 -0.026,0.018 -0.024,0.071 0.083,0.061 0.137,0.195 0.203,0.275 0.031,0.016 0.064,0.031 0.095,0.047 0.058,0.078 0.099,0.147 0.155,0.227 0.039,0.035 0.079,0.071 0.119,0.106 0.025,0.043 0.022,0.078 0.048,0.119 0.044,0.04 0.087,0.08 0.13,0.12 0.057,0.091 0.111,0.148 0.168,0.238 0.056,0.089 0.207,0.194 0.273,0.286 0.026,0.035 0.024,0.068 0.048,0.107 0.052,0.043 0.104,0.087 0.155,0.131 0.2,0.314 0.502,0.543 0.798,0.763 0.064,0.047 0.072,0.161 0.143,0.202 0.041,0.024 0.082,0.009 0.107,0.047 0.027,0.042 0.03,0.105 0.072,0.131 0.033,0.022 0.06,0.015 0.095,0.037 0.049,0.029 0.06,0.112 0.106,0.142 0.12,0.079 0.222,0.175 0.322,0.274 0.051,0.05 0.086,0.137 0.143,0.179 0.157,0.111 0.301,0.217 0.453,0.333 0.025,0.02 0.033,0.074 0.059,0.095 0.023,0.018 0.057,0.007 0.084,0.024 0.056,0.036 0.1,0.117 0.167,0.143 h 0.106 c 0.047,0.017 0.158,0.026 0.203,0.048 0.018,-0.002 0.061,-0.025 0.095,-0.012 0.119,0.042 0.244,0.078 0.346,0.143 0.011,0.02 0.024,0.04 0.035,0.059 0.037,0.025 0.08,0.013 0.12,0.036 0.045,0.027 0.043,0.085 0.071,0.131 0.032,0.028 0.063,0.055 0.096,0.083 0.075,0.127 0.082,0.299 0.201,0.369 0.03,0.018 0.167,0.076 0.215,0.06 0.041,-0.013 0.187,-0.052 0.262,-0.023 0.062,0.022 0.229,0.139 0.262,0.19 0.012,0.017 -0.004,0.035 0.012,0.048 0.052,0.039 0.137,0.03 0.191,0.071 0.034,0.026 0.024,0.066 0.048,0.107 0.015,0.028 0.043,0.018 0.071,0.036 0.02,0.027 0.039,0.055 0.059,0.083 0.079,0.054 0.176,0.064 0.25,0.119 0.064,0.047 0.112,0.137 0.179,0.179 0.043,0.027 0.074,0.027 0.107,0.06 0.032,0.039 0.064,0.079 0.095,0.119 0.049,0.029 0.097,0.031 0.132,0.071 0.159,0.188 0.314,0.361 0.512,0.512 0.05,0.039 0.06,0.095 0.131,0.119 0.008,-0.015 0.013,-0.025 0.023,-0.036 0.018,0.101 0.083,0.099 0.155,0.144 0.062,0.038 0.098,0.136 0.167,0.166 h 0.084 c 0.025,0.01 0.106,0.04 0.154,0.059 h 0.06 C 0.52,9.861 0.553,9.92 0.584,9.94 c 0.087,0.057 0.169,0.087 0.262,0.143 0.032,0.019 0.063,0.075 0.095,0.095 0.076,0.048 0.229,0.067 0.286,0.096 0.066,0.033 0.127,0.108 0.19,0.143 h 0.06 c 0.08,0.035 0.221,0.148 0.25,0.238 H 1.715 c -0.042,0.02 -0.075,-0.018 -0.083,0.071 0.02,0.03 0.007,0.073 0,0.108 C 1.157,11.053 0.713,11.265 0.215,11.465 0.137,11.495 0.083,11.474 0,11.5 m -0.571,-0.095 c 0.051,0.018 0.127,0.004 0.178,0 h 0.37 C 0.075,11.374 0.19,11.32 0.286,11.286 0.405,11.243 0.553,11.25 0.643,11.178 0.673,11.142 0.64,11.122 0.667,11.083 0.774,11.016 0.881,10.949 0.989,10.881 0.981,10.86 0.987,10.869 0.977,10.857 0.964,10.848 0.966,10.85 0.941,10.845 0.868,10.904 0.658,10.899 0.56,10.94 c -0.254,0.109 -0.519,0.167 -0.762,0.286 -0.108,0.053 -0.329,0.062 -0.369,0.179 M -0.976,11 c 0.017,-0.012 0.039,-0.012 0.071,-0.012 v 0.047 c 0.022,0.01 0.044,0.021 0.06,0.037 -0.024,0.02 -0.023,0.024 -0.024,0.071 0.018,0.006 0.021,0.008 0.048,0.011 0.04,-0.04 0.156,-0.024 0.214,-0.047 0.156,-0.06 0.332,-0.161 0.465,-0.25 v -0.023 c -0.008,-0.005 -0.017,-0.009 -0.024,-0.013 -0.152,-0.101 -0.433,-0.002 -0.608,0.048 -0.097,0.027 -0.201,0.012 -0.274,0.047 0.01,0.053 0.016,0.074 0.072,0.084 m -0.393,-0.322 c 0.018,-0.006 0.059,-0.019 0.107,-0.035 -0.066,0.028 -0.11,0.066 -0.18,0.091 -0.004,10e-4 -0.007,0.003 -0.01,0.004 -0.044,0.014 -0.137,-0.018 -0.203,0.024 -0.01,0.012 -0.004,0.003 -0.012,0.024 0.094,0.036 0.177,-0.022 0.226,-0.048 0.001,0.004 0.117,-0.011 0.143,-0.024 0.005,-0.012 0.008,-0.024 0.012,-0.036 0.008,-0.005 0.026,0.023 0.048,0.012 0.066,-0.034 0.184,-0.065 0.298,-0.107 -0.008,-0.021 -0.003,-0.012 -0.013,-0.024 -0.011,-0.009 -0.003,-0.004 -0.023,-0.012 -0.046,0.047 -0.102,0.028 -0.167,0.06 -0.008,0.012 -0.016,0.024 -0.024,0.036 -0.02,0.009 -0.073,-0.011 -0.095,0 0.127,-0.044 0.309,-0.111 0.333,-0.144 0.012,-0.017 -0.015,-0.059 0.024,-0.082 0.048,-0.028 0.172,-0.021 0.19,-0.108 -0.017,-0.007 -0.019,-0.008 -0.047,-0.011 -0.016,0.019 -0.007,0.013 -0.035,0.023 -0.011,-0.054 -0.022,-0.049 -0.084,-0.047 -0.066,0.05 -0.126,0.018 -0.226,0.047 -0.045,0.013 -0.095,0.056 -0.143,0.072 -0.06,0.004 -0.119,0.007 -0.179,0.011 -0.046,0.014 -0.111,0.057 -0.155,0.072 -0.06,0.021 -0.119,0.014 -0.166,0.036 v 0.035 c 0.112,0.085 -0.019,0.172 0.214,0.167 0.044,-0.028 0.109,-0.017 0.167,-0.036 m 0.44,-0.119 c 0.032,0.004 0.073,-0.027 0.024,-0.047 -0.011,0.02 -0.015,0.02 -0.024,0.047 M -4.478,9.308 c 0.058,-0.025 0.097,-0.026 0.179,-0.035 0.015,0.03 0.013,0.034 0.048,0.048 0.017,-0.032 0.037,-0.067 0.071,-0.084 -0.001,0.052 -0.001,0.073 0.024,0.095 0.02,0.016 0.037,0.02 0.071,0.024 0.062,-0.124 0.034,-0.272 0.084,-0.417 0.029,-0.084 0.079,-0.185 0.119,-0.262 h 0.011 v 0.024 c -0.071,0.08 -0.107,0.273 -0.106,0.429 h 0.011 v 0.012 h 0.013 V 9.13 C -3.917,9.069 -3.952,9.009 -3.93,8.951 -3.923,8.932 -3.89,8.911 -3.882,8.892 -3.8,8.71 -3.765,8.532 -3.656,8.38 -3.602,8.304 -3.516,8.246 -3.441,8.189 -3.398,8.156 -3.376,8.092 -3.335,8.058 -3.292,8.023 -3.261,8.033 -3.239,7.975 H -3.251 C -3.266,7.964 -3.28,7.964 -3.311,7.963 -3.389,8.036 -3.487,8.074 -3.549,8.165 H -3.704 V 8.106 h 0.012 V 8.094 h 0.108 C -3.551,8.046 -3.502,8.031 -3.489,7.963 -3.512,7.915 -3.449,7.892 -3.43,7.844 H -3.441 C -3.452,7.831 -3.44,7.843 -3.454,7.832 -3.489,7.881 -3.613,7.941 -3.68,7.951 -3.699,7.928 -3.708,7.915 -3.739,7.903 -3.779,7.969 -3.827,8.065 -3.93,8.07 -3.952,8.04 -3.959,8.05 -3.966,7.998 -3.904,7.958 -3.906,7.896 -3.858,7.844 -3.788,7.768 -3.708,7.688 -3.632,7.618 -3.636,7.606 -3.64,7.594 -3.644,7.581 -3.663,7.575 -3.673,7.572 -3.704,7.57 -3.737,7.611 -3.792,7.621 -3.847,7.641 -3.868,7.681 -3.878,7.755 -3.906,7.797 -3.957,7.872 -4.065,7.922 -4.12,7.998 -4.148,8.036 -4.144,8.073 -4.168,8.117 -4.193,8.165 -4.248,8.204 -4.275,8.249 -4.291,8.296 -4.307,8.344 -4.323,8.392 -4.344,8.443 -4.396,8.487 -4.418,8.534 -4.426,8.571 -4.434,8.606 -4.442,8.642 -4.53,8.844 -4.608,9.08 -4.478,9.308 M -2.072,8.904 C -2.084,8.894 -2.075,8.9 -2.096,8.892 c -0.041,0.042 -0.083,0.07 -0.167,0.071 -0.011,-0.013 10e-4,0 -0.011,-0.012 0.007,-0.02 0.002,-0.012 0.011,-0.023 l 0.072,-0.06 C -2.202,8.855 -2.19,8.867 -2.203,8.856 -2.216,8.847 -2.214,8.849 -2.239,8.844 -2.259,8.874 -2.26,8.876 -2.31,8.88 V 8.785 C -2.238,8.764 -2.163,8.691 -2.155,8.606 -2.167,8.602 -2.179,8.598 -2.191,8.594 -2.234,8.636 -2.303,8.673 -2.369,8.69 V 8.666 C -2.346,8.643 -2.354,8.625 -2.334,8.594 -2.316,8.568 -2.274,8.567 -2.25,8.547 -2.24,8.537 -2.237,8.51 -2.226,8.499 -2.235,8.478 -2.229,8.487 -2.239,8.475 -2.251,8.466 -2.242,8.471 -2.263,8.463 -2.288,8.502 -2.369,8.57 -2.417,8.582 -2.43,8.591 -2.428,8.59 -2.453,8.594 -2.453,8.51 -2.429,8.493 -2.417,8.428 -2.447,8.395 -2.452,8.347 -2.489,8.32 -2.513,8.351 -2.545,8.364 -2.596,8.368 V 8.308 C -2.568,8.289 -2.541,8.269 -2.513,8.249 -2.523,8.236 -2.512,8.248 -2.524,8.237 -2.536,8.228 -2.528,8.232 -2.548,8.225 -2.588,8.275 -2.722,8.347 -2.799,8.284 -2.766,8.265 -2.735,8.245 -2.703,8.225 -2.714,8.212 -2.702,8.224 -2.715,8.213 -2.733,8.191 -2.726,8.196 -2.762,8.189 -2.805,8.232 -2.879,8.29 -2.941,8.308 V 8.284 C -2.909,8.256 -2.757,8.118 -2.775,8.094 -2.793,8.072 -2.786,8.077 -2.822,8.07 -2.841,8.089 -2.877,8.097 -2.894,8.117 -2.928,8.161 -2.943,8.219 -2.989,8.249 -3.025,8.272 -3.07,8.264 -3.096,8.296 c -0.039,0.048 -0.163,0.225 -0.202,0.251 -0.028,0.004 -0.056,0.007 -0.084,0.011 -0.05,0.028 -0.07,0.109 -0.119,0.143 0.057,0.13 -0.051,0.248 -0.107,0.358 -0.025,0.048 -0.014,0.087 -0.036,0.143 -0.07,0.18 -0.157,0.176 -0.107,0.452 0.052,0.014 0.136,-0.011 0.191,0.024 0.009,0.012 0.017,0.032 0.024,0.047 h 0.023 c 0.016,-0.024 0.035,-0.043 0.059,-0.059 0,0.067 0.01,0.09 0.06,0.107 0.014,0.009 0.02,0.009 0.048,0.012 0.026,-0.049 0.039,-0.062 0.119,-0.06 0.05,0.032 0.184,0.07 0.25,0.084 h 0.178 c 0.096,0.025 0.197,0.08 0.298,0.107 C -2.49,9.902 -2.491,9.903 -2.477,9.892 -2.484,9.881 -2.493,9.868 -2.501,9.857 h 0.143 C -2.327,9.814 -2.264,9.783 -2.239,9.738 V 9.69 C -2.226,9.686 -2.215,9.682 -2.203,9.678 -2.187,9.662 -2.154,9.611 -2.144,9.595 -2.108,9.542 -2.105,9.483 -2.072,9.428 -2.06,9.408 -2.019,9.394 -2.012,9.368 -2.005,9.337 -2.032,9.303 -2.036,9.285 -2.073,9.128 -1.995,9.016 -2.072,8.904 M -2.191,8.844 C -2.15,8.848 -2.126,8.831 -2.084,8.809 -2.087,8.801 -2.092,8.792 -2.096,8.785 -2.107,8.781 -2.12,8.777 -2.131,8.772 -2.151,8.796 -2.171,8.82 -2.191,8.844 M -5.132,8.296 C -5.043,8.128 -4.991,7.766 -4.847,7.665 -4.836,7.653 -4.848,7.664 -4.835,7.653 V 7.677 C -4.88,7.733 -4.996,7.933 -5.002,8.011 -5.016,8.034 -5.008,8.065 -4.99,8.106 h 0.012 V 8.094 C -4.959,8.062 -4.972,7.998 -4.954,7.963 -4.932,7.918 -4.874,7.876 -4.847,7.832 -4.729,7.639 -4.71,7.501 -4.513,7.38 V 7.343 C -4.463,7.342 -4.44,7.334 -4.407,7.32 -4.402,7.308 -4.398,7.296 -4.394,7.284 H -4.407 C -4.435,7.266 -4.47,7.28 -4.489,7.248 h 0.023 C -4.443,7.234 -4.372,7.232 -4.347,7.224 -4.343,7.213 -4.339,7.201 -4.335,7.189 H -4.347 C -4.367,7.175 -4.405,7.176 -4.442,7.177 -4.502,7.233 -4.707,7.324 -4.811,7.332 V 7.248 C -4.752,7.216 -4.683,7.22 -4.656,7.141 H -4.668 C -4.682,7.132 -4.689,7.132 -4.716,7.129 -4.759,7.186 -4.824,7.223 -4.906,7.237 -4.917,7.223 -4.905,7.236 -4.918,7.224 c 0.007,-0.02 0.002,-0.011 0.012,-0.023 0.022,-0.06 0.073,-0.06 0.095,-0.119 H -4.823 V 7.07 H -4.835 V 7.082 C -4.919,7.113 -4.918,7.184 -5.037,7.189 -5.045,7.166 -5.049,7.143 -5.049,7.105 -5.004,7.075 -4.984,7.017 -4.943,6.986 -4.879,6.94 -4.804,6.925 -4.775,6.844 H -4.787 C -4.799,6.834 -4.79,6.839 -4.811,6.831 -4.847,6.856 -4.907,6.854 -4.943,6.879 -5,6.921 -5.02,6.998 -5.062,7.058 -5.101,7.094 -5.141,7.129 -5.181,7.165 -5.211,7.21 -5.212,7.258 -5.24,7.308 -5.266,7.357 -5.329,7.394 -5.359,7.439 -5.382,7.502 -5.406,7.566 -5.43,7.629 -5.456,7.672 -5.517,7.716 -5.538,7.76 c -0.051,0.112 -0.026,0.333 0.013,0.429 0.018,0.006 0.019,0.008 0.047,0.012 0.036,-0.03 0.08,-0.012 0.143,-0.012 0.012,0.02 0.024,0.04 0.035,0.06 0.035,-0.026 0.039,-0.054 0.084,-0.072 -0.002,0.051 -0.002,0.073 0.024,0.096 0.016,0.012 0.034,0.017 0.06,0.023 M -7.991,6.784 C -8.032,6.74 -8.369,6.758 -8.467,6.76 c -0.004,0.008 -0.008,0.016 -0.012,0.024 0.118,0.051 0.29,0.081 0.44,0.083 0.02,-0.027 0.063,-0.058 0.048,-0.083 m 0.286,0.023 C -7.725,6.75 -7.772,6.756 -7.848,6.76 -7.852,6.768 -7.856,6.776 -7.86,6.784 -7.813,6.811 -7.782,6.845 -7.717,6.856 -7.706,6.841 -7.707,6.842 -7.693,6.831 -7.701,6.811 -7.696,6.82 -7.705,6.807 M -8.884,3.83 C -8.894,3.842 -8.888,3.833 -8.896,3.854 -8.778,3.903 -8.503,3.808 -8.372,3.735 -8.383,3.723 -8.371,3.734 -8.384,3.723 -8.403,3.695 -8.401,3.695 -8.443,3.688 -8.556,3.773 -8.774,3.742 -8.884,3.83 m 0.512,0.084 C -8.384,3.905 -8.383,3.906 -8.408,3.902 -8.412,3.91 -8.416,3.918 -8.419,3.926 -8.402,3.932 -8.399,3.934 -8.372,3.938 -8.361,3.925 -8.373,3.937 -8.36,3.926 -8.371,3.913 -8.359,3.925 -8.372,3.914 m -0.679,-0.31 c -0.083,0.042 -0.208,0.038 -0.262,0.107 -0.009,0.013 -0.007,0.012 -0.012,0.036 0.036,0.019 0.069,0.024 0.132,0.024 0.089,-0.066 0.19,-0.067 0.309,-0.107 C -8.839,3.648 -8.777,3.606 -8.729,3.592 -8.67,3.584 -8.61,3.576 -8.551,3.569 -8.453,3.532 -8.367,3.467 -8.289,3.413 -8.299,3.401 -8.288,3.413 -8.3,3.402 -8.332,3.354 -8.38,3.334 -8.419,3.294 -8.532,3.318 -8.61,3.387 -8.694,3.437 -8.764,3.48 -8.844,3.482 -8.92,3.521 -8.958,3.541 -9.011,3.584 -9.051,3.604 m -0.667,0.012 c 0.15,0.059 0.272,-0.025 0.381,-0.071 0.284,-0.121 0.536,-0.215 0.786,-0.358 -0.01,-0.013 10e-4,0 -0.011,-0.012 -0.02,-0.023 -0.018,-0.02 -0.06,-0.023 -0.123,0.093 -0.354,0.131 -0.512,0.19 -0.189,0.071 -0.355,0.181 -0.572,0.238 -0.003,0.012 -0.007,0.024 -0.012,0.036 m 1.441,0.024 c 0.036,0.016 0.07,0.03 0.119,0.035 0.011,-0.012 -0.001,0 0.012,-0.011 V 3.64 C -8.183,3.615 -8.18,3.599 -8.241,3.592 -8.253,3.602 -8.244,3.596 -8.265,3.604 L -8.277,3.64 M -10.11,3.509 C -9.838,3.625 -9.47,3.337 -9.241,3.247 -9.05,3.172 -8.858,3.13 -8.694,3.033 -8.705,3.02 -8.693,3.031 -8.705,3.02 -8.722,2.996 -8.74,2.977 -8.765,2.961 -8.877,3.046 -9.022,3.05 -9.17,3.104 c -0.057,0.021 -0.124,0.072 -0.179,0.095 -0.131,0.057 -0.279,0.09 -0.404,0.143 -0.106,0.045 -0.276,0.062 -0.346,0.143 -0.009,0.012 -0.004,0.004 -0.011,0.024 m -0.501,-0.226 c 0.06,0.035 0.104,0.102 0.179,0.119 0.069,-0.037 0.165,0.027 0.249,-0.012 0.294,-0.137 0.642,-0.266 0.942,-0.394 0.102,-0.043 0.33,-0.039 0.357,-0.154 -0.085,-0.038 -0.11,-0.075 -0.143,-0.167 h -0.012 v 0.012 c -0.054,0.016 -0.096,0.062 -0.143,0.084 -0.091,0.04 -0.192,0.064 -0.274,0.095 -0.147,0.055 -0.3,0.099 -0.44,0.143 -0.077,0.023 -0.129,0.009 -0.203,0.035 -0.079,0.028 -0.165,0.095 -0.238,0.131 -0.086,0.043 -0.193,0.027 -0.262,0.084 -0.009,0.012 -0.005,0.003 -0.012,0.024 m -0.084,-0.12 c 0.094,-0.07 0.24,-0.076 0.346,-0.13 0.046,-0.024 0.106,-0.075 0.155,-0.096 0.099,-0.023 0.198,-0.047 0.298,-0.071 0.225,-0.076 0.51,-0.15 0.726,-0.25 C -9.181,2.603 -9.169,2.614 -9.182,2.604 -9.231,2.554 -9.278,2.594 -9.361,2.568 -9.407,2.553 -9.469,2.499 -9.515,2.484 -9.647,2.442 -9.724,2.508 -9.813,2.532 h -0.119 c -0.087,0.025 -0.173,0.087 -0.251,0.119 -0.051,0.012 -0.102,0.024 -0.154,0.036 -0.064,0.031 -0.128,0.109 -0.19,0.143 -0.105,0.059 -0.297,0.064 -0.37,0.155 -0.009,0.012 -0.004,0.003 -0.012,0.024 0.07,0.047 0.114,0.142 0.214,0.154 M -10.98,2.866 c 0.082,-0.065 0.193,-0.072 0.298,-0.119 0.107,-0.048 0.189,-0.149 0.298,-0.191 0.129,-0.05 0.314,-0.079 0.416,-0.155 0.009,-0.012 0.007,-0.011 0.012,-0.036 -0.105,-0.045 -0.254,-0.1 -0.369,-0.13 -0.106,-0.028 -0.237,0.036 -0.31,0.059 -0.169,0.053 -0.346,0.071 -0.5,0.119 -0.106,0.034 -0.31,0.018 -0.393,0.071 -0.009,0.013 -0.004,0.004 -0.012,0.024 0.041,0.034 0.081,0.056 0.107,0.108 0.035,-0.01 0.031,-0.017 0.072,-0.024 0.033,0.031 0.082,0.042 0.119,0.071 0.094,0.075 0.099,0.188 0.262,0.203 m -0.643,-0.488 c 0.064,-0.065 0.21,-0.029 0.309,-0.06 0.186,-0.058 0.403,-0.088 0.596,-0.155 -0.008,-0.021 -0.002,-0.012 -0.012,-0.024 -0.067,-0.051 -0.198,-0.008 -0.262,0.012 -0.115,0.035 -0.224,-10e-4 -0.345,0.036 -0.142,0.043 -0.309,0.121 -0.429,0.107 -0.004,0.012 -0.008,0.024 -0.012,0.036 0.056,0.025 0.07,0.046 0.155,0.048 M -11.85,2.222 V 2.199 c -0.02,-0.013 -0.043,-0.03 -0.059,-0.048 h -0.023 c -0.005,0.012 -0.009,0.024 -0.013,0.036 0.028,0.015 0.056,0.032 0.084,0.048 V 2.222 Z m -0.023,-0.083 c 0.032,0.015 0.06,0.035 0.083,0.06 0.157,0 0.279,-0.069 0.405,-0.107 0.112,-0.034 0.213,-0.014 0.31,-0.048 -0.008,-0.021 -0.002,-0.012 -0.012,-0.024 -0.136,-0.124 -0.55,0.066 -0.763,0.072 -0.011,0.02 -0.015,0.019 -0.023,0.047 m 0.321,-0.238 c 0.004,-0.012 0.008,-0.023 0.012,-0.036 h -0.012 c -0.108,-0.078 -0.454,-0.007 -0.5,0.048 -0.005,0.011 -0.006,0.029 -0.012,0.06 0.034,0.018 0.06,0.024 0.119,0.024 0.06,-0.05 0.31,-0.062 0.393,-0.096"
   style="fill:#811236;fill-rule:nonzero"
   id="path146" />
            </g>
        </g>
    </g>
</svg>
