<?xml version="1.0" encoding="UTF-8" standalone="no"?>
<svg
   width="39.006012"
   height="43.276783"
   viewBox="0 0 39.006012 43.276783"
   version="1.1"
   xml:space="preserve"
   style="clip-rule:evenodd;fill-rule:evenodd;stroke-linejoin:round;stroke-miterlimit:2"
   id="svg154"
   sodipodi:docname="dwarf.svg"
   inkscape:version="1.1.1 (3bf5ae0d25, 2021-09-20)"
   xmlns:inkscape="http://www.inkscape.org/namespaces/inkscape"
   xmlns:sodipodi="http://sodipodi.sourceforge.net/DTD/sodipodi-0.dtd"
   xmlns="http://www.w3.org/2000/svg"
   xmlns:svg="http://www.w3.org/2000/svg"><defs
   id="defs158" /><sodipodi:namedview
   id="namedview156"
   pagecolor="#ffffff"
   bordercolor="#666666"
   borderopacity="1.0"
   inkscape:pageshadow="2"
   inkscape:pageopacity="0.0"
   inkscape:pagecheckerboard="0"
   showgrid="false"
   inkscape:zoom="5.9220193"
   inkscape:cx="-21.867541"
   inkscape:cy="49.138644"
   inkscape:window-width="1920"
   inkscape:window-height="1012"
   inkscape:window-x="-8"
   inkscape:window-y="-8"
   inkscape:window-maximized="1"
   inkscape:current-layer="svg154" />
    
<g
   style="clip-rule:evenodd;fill-rule:evenodd;stroke-linejoin:round;stroke-miterlimit:2"
   id="g1324"
   transform="matrix(0.7,0,0,0.7,1.28682e-4,-1.1226436e-4)"><g
     transform="translate(-1545.22,-458.983)"
     id="g1156">
        <g
   transform="translate(198,26.6667)"
   id="g1154">
            <g
   transform="matrix(2,0,0,2,1364.52,482.515)"
   id="g840">
                <path
   d="m 0,-19.303 c -0.096,-0.098 -0.187,-0.2 -0.287,-0.291 -0.172,-0.157 -0.231,-0.349 -0.198,-0.575 0.044,-0.299 0.136,-0.576 0.352,-0.802 0.236,-0.245 0.472,-0.487 0.779,-0.65 0.181,-0.096 0.381,-0.127 0.565,-0.191 0.038,-0.104 0.011,-0.2 0.007,-0.294 -0.018,-0.365 0.032,-0.72 0.149,-1.066 0.046,-0.134 0.12,-0.24 0.222,-0.343 0.326,-0.33 0.722,-0.513 1.17,-0.603 0.169,-0.034 0.337,-0.054 0.503,0.007 0.082,0.032 0.143,0.007 0.191,-0.063 0.036,-0.052 0.077,-0.101 0.113,-0.154 0.551,-0.799 1.214,-0.863 1.885,-0.697 0.848,0.209 1.498,0.684 1.928,1.451 0.016,0.027 0.032,0.055 0.049,0.082 0.046,0.071 0.077,0.161 0.141,0.207 0.074,0.054 0.159,-0.028 0.241,-0.04 0.042,-0.006 0.084,-0.015 0.126,-0.017 0.285,-0.011 0.262,-0.019 0.242,-0.307 -0.007,-0.106 -0.005,-0.213 -0.004,-0.319 0.001,-0.108 0.061,-0.182 0.156,-0.22 0.127,-0.053 0.258,-0.097 0.399,-0.099 0.344,-0.007 0.678,0.049 0.994,0.188 0.324,0.142 0.568,0.368 0.695,0.707 0.03,0.079 0.04,0.155 0.021,0.246 -0.058,0.271 -0.124,0.538 -0.234,0.793 -0.051,0.118 -0.08,0.232 -0.064,0.367 0.022,0.181 -0.026,0.358 -0.12,0.519 -0.081,0.138 -0.16,0.278 -0.282,0.384 -0.064,0.057 -0.087,0.111 -0.04,0.192 0.091,0.157 0.081,0.349 0.155,0.522 0.12,-0.018 0.169,-0.137 0.276,-0.157 0.093,-0.016 0.183,-0.054 0.275,-0.078 0.082,-0.022 0.165,-0.044 0.248,-0.056 0.28,-0.039 0.436,-0.096 0.671,-0.255 0.412,-0.279 0.999,-0.14 1.243,0.292 0.126,0.222 0.165,0.452 0.11,0.704 -0.048,0.221 -0.116,0.432 -0.234,0.623 -0.074,0.121 -0.172,0.18 -0.33,0.204 -0.246,0.039 -0.482,0.147 -0.72,0.23 -0.037,0.013 -0.066,0.052 -0.099,0.079 0.051,0.096 0.148,0.125 0.227,0.173 2.253,1.376 3.921,3.266 4.993,5.679 0.477,1.075 0.785,2.198 0.935,3.365 0.081,0.634 0.122,1.269 0.105,1.908 -0.02,0.777 -0.106,1.547 -0.27,2.308 -0.076,0.356 -0.083,0.297 0.25,0.394 0.225,0.065 0.446,0.14 0.653,0.251 0.669,0.36 1.003,0.927 1.023,1.68 0.011,0.4 -0.042,0.8 -0.289,1.122 -0.199,0.259 -0.325,0.539 -0.432,0.838 -0.05,0.139 -0.136,0.264 -0.205,0.396 -0.213,0.405 -0.583,0.601 -0.993,0.743 C 17.273,0.08 17.247,0.077 17.23,0.068 17.195,0.049 17.203,0.015 17.212,-0.015 c 0.037,-0.111 0.081,-0.219 0.113,-0.332 0.096,-0.341 0.019,-0.65 -0.185,-0.933 -0.045,-0.063 -0.096,-0.106 -0.179,-0.117 -0.344,-0.048 -0.651,-0.187 -0.926,-0.398 -0.014,-0.011 -0.038,-0.011 -0.057,-0.016 -0.017,0.011 -0.042,0.018 -0.051,0.033 -0.263,0.447 -0.549,0.879 -0.862,1.31 0.205,0.101 0.382,0.197 0.545,0.317 0.142,0.104 0.24,0.229 0.272,0.411 0.039,0.22 0.09,0.437 0.08,0.662 -0.014,0.34 -0.043,0.683 -0.128,1.011 -0.103,0.405 -0.3,0.771 -0.621,1.055 C 15.048,3.134 14.629,3.306 14.402,3.319 14.399,3.288 14.387,3.257 14.392,3.227 14.432,2.977 14.359,2.746 14.295,2.509 14.22,2.227 14.014,2.115 13.771,2.067 13.653,2.044 13.549,2.025 13.454,1.951 13.415,1.92 13.355,1.916 13.304,1.901 13.124,1.846 13.127,1.849 13.011,1.986 12.366,2.746 11.561,3.217 10.562,3.331 10.454,3.343 10.388,3.382 10.34,3.478 10.201,3.753 10.052,4.023 9.914,4.298 9.863,4.402 9.796,4.469 9.677,4.484 9.615,4.493 9.555,4.521 9.492,4.532 8.99,4.62 8.507,4.783 8.017,4.922 7.957,4.939 7.897,4.963 7.841,4.992 7.087,5.386 7.087,5.387 6.315,5.609 6.203,5.641 6.09,5.67 5.978,5.702 5.345,5.888 4.714,5.816 4.091,5.66 3.889,5.609 3.701,5.494 3.516,5.391 3.412,5.334 3.309,5.283 3.194,5.261 3.032,5.231 2.902,5.142 2.768,5.055 2.478,4.865 2.166,4.752 1.811,4.82 1.738,4.834 1.663,4.83 1.589,4.833 1.39,4.839 1.243,4.749 1.129,4.593 0.959,4.362 0.794,4.128 0.66,3.875 0.557,3.681 0.416,3.54 0.198,3.466 0.008,3.402 -0.176,3.325 -0.375,3.281 -1.223,3.095 -1.93,2.67 -2.477,1.991 -2.593,1.848 -2.593,1.845 -2.767,1.899 c -0.254,0.077 -0.51,0.143 -0.747,0.27 -0.1,0.054 -0.169,0.122 -0.207,0.227 -0.094,0.26 -0.188,0.52 -0.147,0.806 0.004,0.03 -0.002,0.062 -0.006,0.093 -10e-4,0.01 -0.009,0.018 -0.013,0.027 C -3.94,3.342 -3.993,3.33 -4.042,3.311 -4.121,3.28 -4.197,3.239 -4.277,3.211 -4.71,3.062 -4.963,2.734 -5.155,2.34 -5.283,2.077 -5.343,1.799 -5.379,1.514 -5.434,1.081 -5.466,0.649 -5.342,0.219 c 0.041,-0.143 0.107,-0.252 0.221,-0.337 0.118,-0.089 0.239,-0.171 0.372,-0.266 -0.297,-0.416 -0.582,-0.822 -0.83,-1.242 -0.109,-0.026 -0.178,0.037 -0.254,0.066 -0.169,0.065 -0.335,0.138 -0.516,0.157 -0.107,0.012 -0.175,0.06 -0.231,0.144 -0.192,0.29 -0.266,0.599 -0.161,0.939 0.032,0.101 0.07,0.201 0.103,0.301 0.01,0.029 0.025,0.067 -0.013,0.083 -0.026,0.01 -0.062,0.011 -0.089,0.002 -0.234,-0.077 -0.451,-0.19 -0.646,-0.34 -0.066,-0.051 -0.125,-0.115 -0.175,-0.182 -0.198,-0.266 -0.355,-0.554 -0.451,-0.873 -0.045,-0.154 -0.09,-0.304 -0.223,-0.413 -0.056,-0.046 -0.093,-0.116 -0.131,-0.179 -0.592,-0.964 -0.224,-2.279 0.781,-2.796 0.161,-0.083 0.329,-0.147 0.502,-0.2 0.121,-0.036 0.131,-0.06 0.107,-0.184 -0.051,-0.271 -0.109,-0.541 -0.154,-0.813 -0.905,-5.421 1.863,-10.787 6.816,-13.212 0.103,-0.05 0.216,-0.081 0.314,-0.177"
   style="fill-rule:nonzero"
   id="path838" />
            </g>
            <g
   transform="matrix(2,0,0,2,1366.24,485.185)"
   id="g844">
                <path
   d="m 0,-1.002 c -0.201,0.081 -0.341,0.179 -0.459,0.351 -0.216,0.314 -0.452,0.616 -0.623,0.959 -0.037,0.075 -0.093,0.14 -0.132,0.199 C -1.29,0.54 -1.331,0.497 -1.37,0.468 -1.76,0.185 -2.1,-0.146 -2.361,-0.555 c -0.067,-0.104 -0.061,-0.199 0.001,-0.296 0.056,-0.092 0.128,-0.166 0.228,-0.215 0.19,-0.094 0.376,-0.196 0.578,-0.261 0.127,-0.041 0.21,-0.116 0.275,-0.242 0.141,-0.272 0.306,-0.533 0.465,-0.796 0.044,-0.073 0.106,-0.134 0.15,-0.206 0.069,-0.113 0.175,-0.15 0.297,-0.148 0.245,0.005 0.487,-0.017 0.731,-0.024 0.311,-0.009 0.518,-0.143 0.654,-0.418 0.094,-0.189 0.203,-0.372 0.306,-0.557 0.05,-0.089 0.113,-0.142 0.229,-0.132 0.103,0.009 0.208,-0.014 0.312,-0.017 0.159,-0.004 0.313,-0.013 0.471,-0.049 0.247,-0.055 0.505,-0.058 0.758,-0.088 0.158,-0.019 0.32,-0.029 0.471,-0.075 0.251,-0.075 0.503,-0.068 0.758,-0.061 0.233,0.007 0.466,0.026 0.7,0.032 0.526,0.011 1.033,0.104 1.5,0.361 0.077,0.042 0.151,0.04 0.24,0.034 0.259,-0.017 0.49,-0.117 0.73,-0.196 0.209,-0.069 0.396,0.062 0.422,0.285 0.015,0.127 0.022,0.255 0.05,0.378 0.038,0.165 0.089,0.328 0.142,0.489 0.036,0.11 0.118,0.173 0.238,0.179 0.137,0.007 0.276,0.026 0.413,0.017 0.252,-0.016 0.506,-0.042 0.758,-0.077 0.087,-0.012 0.134,0.012 0.189,0.073 0.15,0.164 0.238,0.351 0.251,0.571 0.013,0.203 0.065,0.397 0.128,0.589 0.083,0.25 0.241,0.393 0.515,0.389 0.127,-0.002 0.255,0.008 0.382,0.006 0.086,-10e-4 0.139,0.034 0.169,0.114 0.014,0.039 0.033,0.078 0.053,0.115 0.028,0.053 0.021,0.103 -0.009,0.15 C 10.909,-0.194 10.605,0.225 10.16,0.502 10.065,0.489 10.06,0.412 10.03,0.362 9.918,0.169 9.802,-0.02 9.651,-0.187 9.566,-0.281 9.498,-0.391 9.419,-0.491 9.296,-0.648 9.193,-0.821 9.019,-0.937 8.952,-0.981 8.914,-1.068 8.862,-1.135 8.788,-1.164 8.765,-1.233 8.744,-1.278 c 0.033,0.05 0.017,0.136 0.052,0.207 0.137,0.357 0.27,0.715 0.41,1.07 C 9.35,0.368 9.419,0.754 9.475,1.143 9.489,1.232 9.484,1.311 9.426,1.384 9.079,1.826 8.754,2.287 8.313,2.648 8.047,2.866 7.758,3.038 7.424,3.129 7.343,3.152 7.307,3.114 7.331,3.031 7.359,2.929 7.399,2.829 7.418,2.725 7.453,2.538 7.458,2.358 7.404,2.164 7.308,1.827 7.168,1.506 7.06,1.172 7.012,1.023 6.997,0.882 7.032,0.737 7.066,0.593 7.118,0.453 7.165,0.313 7.199,0.212 7.24,0.114 7.275,0.014 7.354,-0.214 7.363,-0.439 7.275,-0.671 7.193,-0.888 7.136,-1.116 7.053,-1.334 7,-1.471 6.922,-1.6 6.849,-1.729 6.838,-1.749 6.793,-1.759 6.765,-1.758 c -0.048,0.001 -0.073,0.037 -0.082,0.082 -0.017,0.077 0.007,0.147 0.04,0.215 0.118,0.243 0.123,0.514 0.196,0.769 0.025,0.085 -0.006,0.165 -0.061,0.238 C 6.655,-0.181 6.443,0.085 6.184,0.309 5.791,0.65 5.397,0.99 4.997,1.323 4.843,1.452 4.675,1.566 4.511,1.682 4.403,1.759 4.386,1.758 4.291,1.679 3.826,1.29 3.364,0.899 2.901,0.509 2.649,0.297 2.41,0.072 2.199,-0.184 2.113,-0.289 2.078,-0.395 2.085,-0.532 2.104,-0.916 2.163,-1.292 2.256,-1.664 2.274,-1.736 2.303,-1.805 2.285,-1.881 2.276,-1.921 2.243,-1.932 2.215,-1.919 2.179,-1.901 2.144,-1.872 2.118,-1.841 1.988,-1.684 1.895,-1.505 1.821,-1.316 1.674,-0.938 1.56,-0.553 1.586,-0.139 1.592,-0.043 1.607,0.047 1.645,0.138 1.747,0.383 1.849,0.628 1.984,0.856 2.04,0.95 2.045,1.025 1.983,1.117 1.782,1.421 1.651,1.757 1.542,2.102 1.526,2.153 1.51,2.203 1.494,2.254 1.418,2.494 1.388,2.728 1.556,2.948 1.592,2.997 1.606,3.061 1.63,3.119 1.602,3.13 1.58,3.148 1.564,3.143 1.269,3.059 0.977,2.977 0.729,2.776 0.21,2.357 -0.198,1.844 -0.561,1.291 -0.603,1.227 -0.619,1.162 -0.609,1.081 c 0.069,-0.574 0.235,-1.119 0.486,-1.639 0.069,-0.143 0.111,-0.292 0.116,-0.45 z"
   style="fill:#ffffff;fill-rule:nonzero"
   id="path842" />
            </g>
            <g
   transform="matrix(2,0,0,2,1368.56,455.305)"
   id="g848">
                <path
   d="m 0,-1.571 c -0.418,-0.54 -0.884,-1.029 -1.477,-1.385 -0.291,-0.175 -0.574,-0.363 -0.862,-0.543 -0.108,-0.068 -0.213,-0.143 -0.339,-0.173 -0.1,-0.024 -0.135,-0.09 -0.142,-0.184 -0.005,-0.052 -0.021,-0.104 -0.025,-0.157 -0.009,-0.137 0.045,-0.236 0.166,-0.316 0.358,-0.239 0.742,-0.278 1.157,-0.207 0.63,0.109 1.148,0.424 1.623,0.829 0.275,0.235 0.52,0.501 0.775,0.757 0.538,0.543 0.926,1.185 1.271,1.859 0.029,0.057 0.057,0.11 0.065,0.176 0.019,0.158 0.063,0.314 0.066,0.472 0.002,0.166 0.069,0.28 0.189,0.381 C 2.588,0.039 2.704,0.146 2.815,0.245 2.89,0.204 2.862,0.165 2.847,0.129 2.597,-0.439 2.446,-1.033 2.391,-1.652 2.387,-1.694 2.38,-1.736 2.369,-1.777 2.264,-2.139 2.268,-2.512 2.263,-2.883 c -0.008,-0.43 0.106,-0.561 0.506,-0.709 0.373,-0.139 0.773,-0.123 1.154,0.024 0.134,0.052 0.234,0.148 0.312,0.264 0.08,0.117 0.119,0.247 0.079,0.392 C 4.177,-2.408 4.12,-1.89 4.034,-1.377 3.969,-0.991 3.933,-0.599 3.927,-0.192 4.128,-0.202 4.259,-0.335 4.429,-0.46 4.361,-0.226 4.303,-0.024 4.244,0.178 4.219,0.266 4.162,0.322 4.072,0.347 3.637,0.467 3.194,0.499 2.746,0.463 2.673,0.457 2.599,0.434 2.532,0.404 2.403,0.347 2.307,0.266 2.269,0.111 2.197,-0.187 2.105,-0.481 2.015,-0.775 1.94,-1.018 1.856,-1.259 1.776,-1.5 1.752,-1.571 1.729,-1.641 1.665,-1.699 1.484,-1.458 1.51,-1.153 1.404,-0.89 1.298,-0.625 1.206,-0.354 1.109,-0.089 1.032,-0.084 0.985,-0.133 0.931,-0.165 0.738,-0.276 0.552,-0.403 0.352,-0.499 0.08,-0.631 -0.139,-0.832 -0.37,-1.017 c -0.057,-0.045 -0.098,-0.11 -0.145,-0.168 -0.034,-0.04 -0.06,-0.089 -0.1,-0.121 -0.104,-0.086 -0.218,-0.078 -0.31,0.021 -0.13,0.14 -0.263,0.279 -0.377,0.432 -0.085,0.115 -0.162,0.156 -0.316,0.127 -0.427,-0.083 -0.862,-0.123 -1.307,-0.098 0.08,0.028 0.159,0.059 0.241,0.085 0.293,0.093 0.584,0.192 0.848,0.355 0.107,0.066 0.111,0.089 0.032,0.198 C -1.91,-0.04 -2.02,0.103 -2.127,0.249 -2.303,0.489 -2.467,0.736 -2.546,1.03 -2.559,1.08 -2.583,1.129 -2.608,1.176 -2.936,1.771 -3.225,2.386 -3.517,2.999 -3.522,3.008 -3.532,3.014 -3.558,3.036 -3.672,2.987 -3.768,2.891 -3.879,2.817 -3.923,2.788 -3.945,2.739 -3.956,2.683 -4,2.443 -4.047,2.204 -4.095,1.965 -4.113,1.877 -4.106,1.802 -4.044,1.728 -3.867,1.516 -3.712,1.284 -3.521,1.086 -3.33,0.888 -3.107,0.723 -2.897,0.544 -2.858,0.51 -2.816,0.48 -2.755,0.432 -3.219,0.47 -3.828,0.642 -4.316,0.966 -4.352,0.958 -4.357,0.927 -4.366,0.899 -4.451,0.614 -4.525,0.325 -4.625,0.046 -4.7,-0.164 -4.67,-0.373 -4.666,-0.584 c 0.001,-0.061 0.029,-0.124 0.055,-0.181 0.227,-0.502 0.529,-0.954 1.013,-1.233 0.423,-0.243 0.876,-0.417 1.391,-0.367 0.306,0.029 0.614,0.026 0.918,0.082 0.269,0.05 0.504,0.155 0.705,0.34 0.165,0.151 0.335,0.295 0.502,0.442 0.083,0.041 0.09,-0.006 0.082,-0.07"
   style="fill:#ffffff;fill-rule:nonzero"
   id="path846" />
            </g>
            <g
   transform="matrix(2,0,0,2,1370.37,469.668)"
   id="g852">
                <path
   d="m 0,-0.242 c -0.3,0.25 -0.599,0.501 -0.9,0.748 -0.064,0.052 -0.097,0.109 -0.093,0.19 0.004,0.075 0.004,0.149 0.009,0.223 0.012,0.19 0.014,0.193 -0.179,0.263 -0.239,0.086 -0.478,0.177 -0.722,0.247 -0.148,0.043 -0.275,0.106 -0.384,0.213 -0.068,0.067 -0.145,0.124 -0.22,0.183 -0.075,0.059 -0.187,0.042 -0.21,-0.04 C -2.76,1.56 -2.813,1.332 -2.864,1.105 -2.879,1.04 -2.821,1.014 -2.775,0.99 c 0.404,-0.215 0.763,-0.5 1.155,-0.734 0.136,-0.082 0.263,-0.18 0.395,-0.27 0.098,-0.067 0.12,-0.153 0.103,-0.273 -0.023,-0.151 -0.088,-0.259 -0.22,-0.328 -0.186,-0.097 -0.312,-0.251 -0.41,-0.432 -0.12,-0.225 -0.24,-0.449 -0.36,-0.674 -0.023,-0.046 -0.056,-0.091 -0.025,-0.147 0.042,-0.073 0.08,-0.147 0.124,-0.217 0.008,-0.013 0.039,-0.016 0.059,-0.015 0.077,10e-4 0.149,0.025 0.199,0.085 0.041,0.047 0.074,0.103 0.11,0.155 0.115,0.165 0.258,0.256 0.473,0.271 0.308,0.022 0.613,0.055 0.921,0.014 0.04,-0.005 0.083,0.006 0.123,0.017 0.016,0.005 0.035,0.028 0.039,0.045 0.003,0.015 -0.01,0.045 -0.023,0.05 -0.089,0.035 -0.177,0.072 -0.269,0.095 -0.311,0.078 -0.624,0.127 -0.941,0.028 -0.016,-0.005 -0.038,0.008 -0.058,0.013 0.027,0.063 0.08,0.095 0.139,0.123 0.086,0.041 0.174,0.079 0.256,0.126 0.203,0.115 0.402,0.169 0.635,0.07 0.134,-0.057 0.289,-0.067 0.435,-0.093 0.073,-0.013 0.149,-0.015 0.208,-0.069 0.052,-0.048 0.099,-0.02 0.142,0.011 0.033,0.025 0.061,0.058 0.086,0.092 0.249,0.335 0.565,0.603 0.858,0.895 0.021,0.023 0.057,0.043 0.084,0.02 C 1.481,-0.168 1.493,-0.206 1.49,-0.231 1.472,-0.368 1.455,-0.505 1.428,-0.64 1.402,-0.771 1.458,-0.797 1.553,-0.815 1.666,-0.838 1.784,-0.849 1.9,-0.852 2.059,-0.855 2.219,-0.843 2.378,-0.843 2.655,-0.844 2.883,-0.74 3.06,-0.53 3.172,-0.569 3.225,-0.663 3.292,-0.745 3.353,-0.82 3.423,-0.885 3.528,-0.893 3.572,-0.897 3.608,-0.862 3.607,-0.818 3.604,-0.719 3.556,-0.634 3.515,-0.549 3.418,-0.348 3.369,-0.132 3.286,0.117 3.435,0.044 3.502,-0.058 3.576,-0.15 3.742,-0.357 3.882,-0.582 4.089,-0.756 4.187,-0.838 4.213,-0.972 4.26,-1.101 4.441,-1.047 4.608,-1.058 4.773,-1.104 4.846,-1.125 4.918,-1.118 4.992,-1.112 5.206,-1.097 5.416,-1.134 5.624,-1.179 5.65,-1.185 5.682,-1.211 5.692,-1.235 5.709,-1.276 5.666,-1.284 5.64,-1.289 5.328,-1.345 5.03,-1.466 4.713,-1.495 c 0.003,-0.056 0.024,-0.098 0.069,-0.097 0.095,0.001 0.19,0.012 0.285,0.025 0.352,0.049 0.699,-0.012 1.046,-0.056 0.17,-0.021 0.284,-0.138 0.395,-0.253 0.073,-0.076 0.138,-0.161 0.232,-0.215 0.049,-0.028 0.104,-0.035 0.146,0.01 0.042,0.045 0.095,0.089 0.078,0.162 -0.007,0.031 -0.023,0.059 -0.036,0.088 -0.151,0.364 -0.343,0.706 -0.54,1.046 -0.055,0.096 -0.138,0.158 -0.226,0.218 -0.07,0.048 -0.146,0.089 -0.206,0.148 -0.157,0.153 -0.151,0.284 0.031,0.414 C 6.254,0.186 6.525,0.373 6.805,0.547 7.04,0.693 7.249,0.873 7.47,1.037 7.556,1.1 7.583,1.182 7.552,1.289 7.514,1.421 7.486,1.557 7.452,1.69 7.442,1.731 7.426,1.771 7.407,1.808 7.377,1.863 7.284,1.878 7.241,1.837 7.217,1.815 7.197,1.79 7.178,1.765 7.069,1.611 6.913,1.523 6.744,1.455 6.449,1.337 6.153,1.221 5.858,1.104 5.818,1.088 5.777,1.077 5.738,1.061 5.643,1.02 5.625,0.985 5.648,0.888 5.679,0.766 5.709,0.643 5.744,0.521 5.768,0.438 5.742,0.37 5.681,0.322 5.423,0.118 5.19,-0.119 4.899,-0.279 4.862,-0.299 4.824,-0.324 4.784,-0.33 4.76,-0.333 4.728,-0.305 4.707,-0.284 4.685,-0.26 4.681,-0.225 4.705,-0.199 c 0.064,0.07 0.13,0.138 0.196,0.207 0.124,0.13 0.15,0.275 0.077,0.439 C 4.96,0.486 4.946,0.526 4.93,0.565 4.781,0.925 4.88,0.86 4.482,0.878 4.283,0.886 4.12,0.943 3.96,1.072 3.655,1.317 3.318,1.524 2.997,1.748 2.801,1.884 2.599,1.876 2.392,1.868 2.31,1.865 2.225,1.85 2.141,1.839 1.96,1.815 1.79,1.762 1.645,1.642 1.507,1.527 1.366,1.413 1.227,1.299 L 1.029,1.138 C 0.826,0.972 0.608,0.856 0.331,0.902 0.238,0.918 0.14,0.911 0.044,0.912 -0.122,0.914 -0.24,0.843 -0.292,0.679 -0.294,0.669 -0.296,0.658 -0.301,0.649 -0.391,0.503 -0.374,0.376 -0.258,0.245 -0.16,0.135 -0.086,0.003 -0.003,-0.119 0.021,-0.155 0.036,-0.195 0,-0.242"
   style="fill:#ffffff;fill-rule:nonzero"
   id="path850" />
            </g>
            <g
   transform="matrix(2,0,0,2,1370.53,461.053)"
   id="g856">
                <path
   d="m 0,-1.664 c 0.082,-0.042 0.138,-0.073 0.196,-0.099 0.074,-0.034 0.113,-0.095 0.131,-0.17 0.045,-0.196 0.1,-0.391 0.132,-0.59 0.08,-0.502 0.149,-1.007 0.223,-1.517 0.085,0.063 0.09,0.162 0.115,0.25 0.102,0.357 0.214,0.712 0.303,1.071 0.062,0.253 0.215,0.397 0.446,0.494 0.58,0.243 1.135,0.213 1.675,-0.11 0.097,-0.058 0.153,-0.136 0.191,-0.241 0.123,-0.34 0.218,-0.688 0.309,-1.036 0.037,-0.142 0.055,-0.291 0.159,-0.45 0.034,0.124 0.027,0.223 0.042,0.318 0.017,0.105 0.031,0.21 0.048,0.315 0.069,0.43 0.113,0.863 0.217,1.287 0.077,0.317 0.077,0.317 0.354,0.477 -0.002,0.02 0.003,0.044 -0.007,0.059 -0.234,0.38 -0.431,0.78 -0.636,1.176 -0.05,0.098 -0.11,0.177 -0.232,0.192 C 3.616,-0.232 3.561,-0.21 3.52,-0.18 3.193,0.07 2.925,0.362 2.834,0.782 2.793,0.971 2.833,1.143 2.937,1.297 2.998,1.389 2.993,1.469 2.952,1.563 2.855,1.787 2.761,2.012 2.669,2.238 2.633,2.328 2.569,2.372 2.477,2.38 2.413,2.385 2.35,2.39 2.286,2.391 1.898,2.398 1.964,2.397 1.848,2.111 1.772,1.925 1.691,1.74 1.611,1.555 1.577,1.475 1.556,1.403 1.617,1.318 1.824,1.029 1.756,0.734 1.61,0.446 1.492,0.216 1.312,0.034 1.116,-0.131 1.062,-0.177 0.99,-0.219 0.921,-0.231 0.791,-0.252 0.718,-0.324 0.662,-0.437 0.559,-0.646 0.448,-0.852 0.336,-1.057 0.231,-1.252 0.121,-1.445 0,-1.664"
   style="fill:#ffffff;fill-rule:nonzero"
   id="path854" />
            </g>
            <g
   transform="matrix(2,0,0,2,1366.98,467.531)"
   id="g860">
                <path
   d="m 0,-5.742 c -0.064,-0.224 -0.01,-0.46 -0.059,-0.69 -0.096,0.039 -0.1,0.118 -0.106,0.19 -0.014,0.169 -0.022,0.338 -0.033,0.508 -0.005,0.084 0.008,0.17 -0.037,0.249 -0.147,-0.119 -0.05,-0.304 -0.124,-0.462 -0.134,0.031 -0.166,0.15 -0.217,0.247 -0.142,0.272 -0.271,0.551 -0.43,0.816 -0.159,0.264 -0.023,0.708 0.25,0.851 0.199,0.105 0.383,0.012 0.419,-0.221 0.027,-0.179 0.004,-0.36 0.012,-0.541 0.007,-0.123 -0.029,-0.259 0.09,-0.354 0.046,0.123 0.025,0.252 0.028,0.378 0.005,0.192 0,0.383 0,0.574 0.002,0.326 0.003,0.326 -0.204,0.613 -0.14,-0.021 -0.249,-0.103 -0.357,-0.189 -0.211,-0.165 -0.388,-0.36 -0.551,-0.572 -0.096,-0.124 -0.158,-0.113 -0.218,0.037 -0.026,0.068 -0.045,0.141 -0.056,0.214 -0.025,0.157 -0.027,0.316 -0.01,0.476 0.039,0.35 0.121,0.69 0.213,1.028 0.052,0.19 0.146,0.347 0.324,0.453 0.138,0.082 0.126,0.092 0.082,0.229 -0.044,0.138 -0.121,0.241 -0.244,0.32 -0.125,0.08 -0.244,0.167 -0.381,0.231 -0.132,0.063 -0.257,0.141 -0.41,0.225 0.153,0.045 0.255,-0.03 0.363,-0.056 0.144,-0.035 0.281,-0.096 0.422,-0.14 0.124,-0.039 0.148,-0.03 0.202,0.079 0.218,0.449 0.441,0.895 0.647,1.349 0.13,0.287 0.31,0.527 0.563,0.727 C 0.117,0.92 0.013,0.947 -0.075,0.988 -0.365,1.119 -0.659,1.241 -0.952,1.363 -1.084,1.418 -1.139,1.4 -1.217,1.277 -1.511,0.81 -1.785,0.33 -2.024,-0.168 c -0.158,-0.325 -0.312,-0.651 -0.467,-0.976 -0.014,-0.029 -0.03,-0.057 -0.043,-0.086 -0.179,-0.394 -0.179,-0.431 -0.048,-0.852 0.164,-0.529 0.389,-1.033 0.616,-1.536 0.403,-0.891 0.862,-1.751 1.371,-2.586 0.127,-0.208 0.233,-0.429 0.351,-0.643 0.055,-0.101 0.117,-0.199 0.184,-0.313 0.104,0.059 0.133,0.153 0.195,0.215 0.067,0.067 0.122,0.147 0.178,0.224 0.397,0.541 0.909,0.947 1.495,1.263 0.056,0.03 0.131,0.04 0.124,0.121 -0.007,0.083 -0.015,0.172 -0.098,0.224 -0.018,0.011 -0.038,0.02 -0.056,0.031 -0.063,0.035 -0.157,0.003 -0.197,0.085 -0.05,0.104 0.031,0.184 0.072,0.261 0.17,0.319 0.322,0.645 0.459,0.98 0.056,0.136 0.135,0.264 0.206,0.394 0.057,0.108 0.127,0.175 0.27,0.179 0.162,0.005 0.277,0.139 0.409,0.226 0.274,0.181 0.282,0.457 0.295,0.735 0.004,0.097 -0.043,0.188 -0.11,0.258 -0.07,0.072 -0.081,0.149 -0.041,0.232 0.153,0.316 0.26,0.65 0.376,0.98 0.044,0.126 0.126,0.2 0.251,0.21 0.18,0.014 0.362,0.021 0.541,0.014 0.149,-0.007 0.249,-0.09 0.301,-0.24 C 4.72,-1.089 4.824,-1.413 4.974,-1.719 5.013,-1.799 5.005,-1.872 4.95,-1.955 4.761,-2.24 4.794,-2.582 5.016,-2.83 5.193,-3.029 5.41,-3.149 5.682,-3.156 5.748,-2.949 5.587,-2.876 5.459,-2.789 5.314,-2.692 5.183,-2.588 5.147,-2.406 5.132,-2.333 5.114,-2.245 5.185,-2.201 5.27,-2.149 5.322,-2.232 5.365,-2.288 5.514,-2.48 5.666,-2.665 5.843,-2.837 6.439,-3.416 7.119,-3.883 7.796,-4.355 7.978,-4.483 8.03,-4.729 7.921,-5.046 7.875,-5.178 7.825,-5.306 7.855,-5.447 7.885,-5.586 7.952,-5.683 8.118,-5.637 8.111,-5.31 8.105,-4.982 8.096,-4.655 8.092,-4.518 8.108,-4.371 8.063,-4.248 8.015,-4.119 7.853,-4.08 7.746,-3.996 7.255,-3.609 6.759,-3.228 6.275,-2.834 6.02,-2.626 5.809,-2.371 5.589,-2.128 5.517,-2.048 5.47,-1.958 5.43,-1.857 5.308,-1.541 5.182,-1.226 5.085,-0.902 5.074,-0.861 5.058,-0.821 5.041,-0.782 4.847,-0.336 4.864,-0.431 4.491,-0.391 4.128,-0.352 3.772,-0.4 3.413,-0.402 3.305,-0.403 3.232,-0.45 3.189,-0.547 3.137,-0.662 3.062,-0.768 3.055,-0.9 L 3.054,-0.903 C 2.907,-1.288 2.76,-1.673 2.612,-2.059 2.779,-2.185 2.84,-1.969 2.962,-1.946 3.046,-2.544 2.994,-2.664 2.472,-2.889 2.137,-3.034 1.978,-3.315 1.848,-3.617 1.711,-3.938 1.609,-4.273 1.415,-4.57 1.369,-4.64 1.321,-4.737 1.347,-4.81 1.516,-5.277 1.174,-5.485 0.894,-5.717 0.602,-5.958 0.295,-6.181 0.085,-6.55 0.054,-6.248 0.175,-5.979 0,-5.742"
   style="fill:#ffffff;fill-rule:nonzero"
   id="path858" />
            </g>
            <g
   transform="matrix(2,0,0,2,1373.26,489.501)"
   id="g864">
                <path
   d="M 0,0.672 C 0.311,0.415 0.62,0.157 0.932,-0.099 1.031,-0.18 1.131,-0.256 1.259,-0.291 1.308,-0.305 1.355,-0.335 1.398,-0.365 1.746,-0.613 2.136,-0.782 2.522,-0.958 2.551,-0.971 2.58,-0.987 2.611,-0.992 2.939,-1.053 2.865,-1.111 3.033,-0.826 3.227,-0.495 3.334,-0.124 3.491,0.224 3.542,0.337 3.514,0.432 3.43,0.512 3.244,0.686 3.055,0.856 2.866,1.028 2.676,1.201 2.458,1.329 2.218,1.423 1.951,1.527 1.681,1.619 1.403,1.689 1.032,1.783 0.666,1.768 0.303,1.66 -0.012,1.567 -0.324,1.464 -0.619,1.316 -0.676,1.288 -0.737,1.262 -0.785,1.223 -1.021,1.026 -1.255,0.825 -1.487,0.623 -1.535,0.582 -1.571,0.527 -1.616,0.483 -1.709,0.392 -1.694,0.295 -1.642,0.192 c 0.004,-0.009 0.009,-0.019 0.015,-0.027 0.263,-0.36 0.474,-0.755 0.756,-1.102 0.05,-0.061 0.102,-0.065 0.167,-0.036 0.309,0.137 0.621,0.267 0.925,0.416 0.162,0.078 0.268,0.227 0.395,0.366 C 0.346,0.046 0.04,0.237 -0.085,0.588 -0.115,0.675 -0.098,0.714 0,0.672"
   style="fill:#ffffff;fill-rule:nonzero"
   id="path862" />
            </g>
            <g
   transform="matrix(2,0,0,2,1376.24,438.04)"
   id="g868">
                <path
   d="m 0,-1.143 c -0.069,0.052 -0.121,0.088 -0.169,0.128 -0.324,0.272 -0.355,0.325 -0.292,0.739 0.03,0.201 0.042,0.401 0.047,0.602 0.006,0.269 0.071,0.525 0.161,0.774 -0.049,0.073 -0.115,0.034 -0.172,0.034 -0.097,0 -0.189,0.01 -0.283,0.039 -0.264,0.08 -0.53,0.15 -0.794,0.232 C -1.58,1.429 -1.64,1.438 -1.7,1.369 -1.992,1.03 -2.269,0.68 -2.446,0.265 -2.63,-0.169 -2.645,-0.623 -2.553,-1.08 c 0.053,-0.262 0.157,-0.498 0.311,-0.724 0.329,-0.481 0.82,-0.651 1.348,-0.762 0.07,-0.015 0.149,-0.005 0.22,0.009 0.925,0.185 1.605,0.694 2.031,1.538 0.053,0.104 0.045,0.135 -0.067,0.203 -0.134,0.08 -0.255,0.188 -0.429,0.188 -0.069,0 -0.146,0.039 -0.207,0.079 C 0.493,-0.445 0.381,-0.506 0.278,-0.637 0.245,-0.678 0.207,-0.716 0.167,-0.749 0.117,-0.789 0.026,-0.74 -0.006,-0.805 -0.049,-0.895 -0.02,-0.991 0.009,-1.083 0.011,-1.092 0.006,-1.103 0,-1.143"
   style="fill:#ffffff;fill-rule:nonzero"
   id="path866" />
            </g>
            <g
   transform="matrix(2,0,0,2,1350.46,472.774)"
   id="g872">
                <path
   d="M 0,4.542 C -0.201,4.449 -0.294,4.321 -0.382,4.19 -0.771,3.613 -0.99,2.981 -0.991,2.28 -0.991,2.217 -0.99,2.153 -0.99,2.089 V 1.867 C -1.116,2.001 -1.109,2.144 -1.131,2.273 -1.155,2.407 -1.16,2.545 -1.174,2.683 -1.262,2.658 -1.25,2.581 -1.261,2.529 -1.335,2.174 -1.369,1.815 -1.289,1.456 -1.162,0.887 -0.823,0.477 -0.292,0.258 0.265,0.029 0.842,0 1.414,0.23 1.532,0.278 1.646,0.333 1.746,0.415 1.893,0.536 1.967,0.682 1.973,0.882 1.98,1.141 1.947,1.391 1.87,1.634 1.754,1.998 1.616,2.353 1.459,2.702 1.39,2.857 1.283,2.966 1.132,3.032 1.006,3.086 0.877,3.137 0.745,3.175 0.509,3.243 0.339,3.379 0.212,3.595 0.046,3.877 -0.063,4.167 0,4.542"
   style="fill:#ffffff;fill-rule:nonzero"
   id="path870" />
            </g>
            <g
   transform="matrix(2,0,0,2,1399.79,472.7)"
   id="g876">
                <path
   d="M 0,4.568 C -0.008,4.519 -0.017,4.498 -0.014,4.478 0.042,4.089 -0.14,3.779 -0.345,3.475 -0.414,3.373 -0.516,3.317 -0.622,3.268 -0.689,3.237 -0.763,3.221 -0.833,3.198 -1.204,3.082 -1.448,2.838 -1.567,2.469 -1.635,2.257 -1.712,2.047 -1.775,1.834 -1.86,1.55 -1.879,1.25 -1.972,0.967 -2.031,0.79 -1.966,0.63 -1.831,0.505 -1.769,0.449 -1.7,0.392 -1.626,0.356 -0.904,0 -0.183,0.024 0.505,0.424 1.056,0.744 1.294,1.269 1.308,1.894 1.313,2.084 1.282,2.275 1.259,2.465 1.247,2.557 1.233,2.653 1.154,2.735 1.105,2.462 1.134,2.182 0.965,1.942 V 2.31 C 0.964,3.012 0.745,3.645 0.358,4.224 0.27,4.355 0.176,4.483 0,4.568"
   style="fill:#ffffff;fill-rule:nonzero"
   id="path874" />
            </g>
            <g
   transform="matrix(2,0,0,2,1383.61,461.2)"
   id="g880">
                <path
   d="m 0,-4.423 c 0.104,-0.035 0.183,-0.067 0.265,-0.087 0.166,-0.04 0.321,-0.028 0.415,0.142 0.041,0.075 0.104,0.106 0.182,0.103 0.254,-0.01 0.51,-0.014 0.75,-0.114 0.049,-0.021 0.111,-0.031 0.142,-0.067 0.15,-0.179 0.327,-0.151 0.514,-0.085 0.139,0.05 0.281,0.094 0.419,0.149 0.222,0.088 0.403,0.234 0.534,0.435 0.086,0.134 0.161,0.275 0.249,0.407 0.159,0.241 0.257,0.481 0.096,0.765 C 3.514,-2.685 3.5,-2.574 3.469,-2.473 3.465,-2.463 3.457,-2.455 3.451,-2.446 3.388,-2.414 3.357,-2.468 3.319,-2.5 2.966,-2.789 2.624,-3.091 2.224,-3.319 1.947,-3.477 1.658,-3.607 1.36,-3.721 1.285,-3.749 1.207,-3.765 1.121,-3.772 c 0.008,0.033 0.007,0.049 0.013,0.052 0.137,0.08 0.272,0.164 0.412,0.237 0.57,0.298 1.067,0.693 1.535,1.127 0.032,0.029 0.059,0.061 0.087,0.094 0.124,0.143 0.204,0.293 0.104,0.488 C 3.239,-1.709 3.237,-1.63 3.219,-1.558 3.21,-1.519 3.154,-1.507 3.12,-1.537 3.088,-1.565 3.061,-1.598 3.029,-1.626 2.791,-1.838 2.551,-2.047 2.277,-2.212 2.225,-2.243 2.176,-2.295 2.087,-2.249 c 0.18,0.207 0.36,0.409 0.534,0.616 0.116,0.138 0.223,0.283 0.331,0.428 0.096,0.126 0.129,0.265 0.077,0.419 -0.014,0.04 -0.025,0.082 -0.033,0.123 C 2.966,-0.507 2.938,-0.35 2.909,-0.194 2.76,-0.06 2.611,0.073 2.468,0.202 2.387,0.189 2.388,0.125 2.372,0.083 2.183,-0.436 1.966,-0.943 1.713,-1.434 1.553,-1.745 1.398,-2.06 1.24,-2.372 1.073,-2.704 0.898,-3.03 0.696,-3.343 0.581,-3.521 0.486,-3.711 0.381,-3.894 0.312,-4.014 0.245,-4.133 0.13,-4.218 0.073,-4.261 0.023,-4.321 0,-4.423"
   style="fill:#ffffff;fill-rule:nonzero"
   id="path878" />
            </g>
            <g
   transform="matrix(2,0,0,2,1379.56,449.37)"
   id="g884">
                <path
   d="M 0,1.205 C 0.271,0.86 0.641,0.646 0.956,0.366 1.183,0.165 1.446,0.034 1.727,-0.069 1.856,-0.117 1.989,-0.156 2.114,-0.213 2.19,-0.247 2.235,-0.222 2.28,-0.173 2.38,-0.063 2.479,0.048 2.576,0.159 2.62,0.208 2.644,0.265 2.652,0.331 2.664,0.425 2.692,0.519 2.697,0.613 2.705,0.75 2.736,0.904 2.687,1.021 2.64,1.132 2.471,1.121 2.354,1.162 2.185,1.222 2.029,1.3 1.877,1.405 1.482,1.678 1.156,2.028 0.786,2.328 0.653,2.436 0.514,2.529 0.355,2.593 0.198,2.656 0.045,2.73 -0.105,2.797 -0.128,2.783 -0.156,2.777 -0.161,2.763 -0.252,2.459 -0.342,2.155 -0.431,1.85 -0.495,1.627 -0.443,1.383 -0.562,1.168 -0.578,1.142 -0.555,1.085 -0.535,1.051 -0.465,0.932 -0.396,0.814 -0.371,0.674 -0.362,0.627 -0.321,0.583 -0.29,0.54 0.228,-0.161 0.866,-0.731 1.605,-1.187 1.794,-1.304 1.996,-1.401 2.211,-1.465 2.643,-1.592 3.07,-1.541 3.497,-1.43 3.737,-1.368 3.853,-1.225 3.856,-0.979 3.773,-0.934 3.718,-1.009 3.651,-1.023 3.588,-1.035 3.529,-1.059 3.47,-1.082 3.252,-1.17 3.038,-1.171 2.821,-1.078 2.704,-1.027 2.581,-0.992 2.459,-0.955 2.343,-0.921 2.243,-0.874 2.197,-0.749 2.135,-0.585 1.996,-0.512 1.842,-0.458 1.762,-0.43 1.68,-0.409 1.601,-0.378 1.303,-0.261 1.022,-0.119 0.8,0.124 0.62,0.32 0.428,0.503 0.242,0.693 0.153,0.784 0.078,0.887 0.017,1 -0.013,1.057 -0.038,1.115 0,1.205"
   style="fill:#ffffff;fill-rule:nonzero"
   id="path882" />
            </g>
            <g
   transform="matrix(2,0,0,2,1382.85,460.553)"
   id="g888">
                <path
   d="M 0,4.25 C 0.118,4.187 0.185,4.097 0.242,3.993 0.318,3.854 0.407,3.721 0.495,3.589 0.756,3.2 0.957,2.779 1.16,2.359 1.183,2.311 1.208,2.264 1.23,2.216 1.261,2.147 1.311,2.124 1.384,2.148 1.524,2.196 1.663,2.248 1.805,2.29 1.925,2.325 2.042,2.377 2.197,2.381 2.065,2.255 1.93,2.194 1.797,2.135 1.64,2.064 1.506,1.962 1.365,1.867 1.293,1.818 1.234,1.76 1.205,1.676 1.127,1.449 1.069,1.461 1.297,1.319 1.453,1.222 1.527,1.072 1.571,0.906 c 0.11,-0.425 0.265,-0.89 0.216,-1.565 0.067,0.004 0.08,0.063 0.099,0.106 0.088,0.204 0.178,0.408 0.255,0.617 C 2.352,0.641 2.56,1.219 2.738,1.809 2.794,1.996 2.789,2.161 2.701,2.328 2.3,3.088 1.966,3.882 1.501,4.607 1.466,4.661 1.435,4.717 1.399,4.769 1.32,4.887 1.265,4.909 1.133,4.851 0.748,4.68 0.38,4.479 0,4.25"
   style="fill:#ffffff;fill-rule:nonzero"
   id="path886" />
            </g>
            <g
   transform="matrix(2,0,0,2,1376.39,473.425)"
   id="g892">
                <path
   d="M 0,1.033 C 0.388,0.695 0.739,0.371 1.064,0.02 1.174,-0.098 1.305,-0.188 1.436,-0.278 1.58,-0.378 1.739,-0.43 1.914,-0.43 2.18,-0.432 2.446,-0.437 2.711,-0.433 c 0.084,0.002 0.168,0.023 0.249,0.047 0.203,0.06 0.405,0.126 0.607,0.192 0.07,0.022 0.136,0.047 0.195,0.101 C 4.036,0.159 4.289,0.43 4.519,0.723 4.564,0.781 4.598,0.849 4.599,0.924 4.588,0.965 4.556,0.972 4.526,0.965 4.311,0.915 4.104,0.954 3.897,1.01 3.354,1.156 2.808,1.289 2.256,1.398 2.014,1.447 1.774,1.47 1.529,1.436 1.055,1.37 0.585,1.287 0.139,1.104 0.101,1.089 0.065,1.067 0,1.033"
   style="fill:#ffffff;fill-rule:nonzero"
   id="path890" />
            </g>
            <g
   transform="matrix(2,0,0,2,1373.62,473.661)"
   id="g896">
                <path
   d="M 0,0.842 C -0.24,0.956 -0.471,1.092 -0.72,1.175 -0.949,1.252 -1.196,1.276 -1.436,1.316 -1.68,1.358 -1.92,1.331 -2.161,1.28 -2.639,1.18 -3.114,1.076 -3.585,0.947 -3.88,0.867 -4.175,0.771 -4.51,0.862 c 0.013,-0.168 0.068,-0.289 0.158,-0.39 0.163,-0.181 0.334,-0.356 0.5,-0.534 0.069,-0.074 0.159,-0.107 0.252,-0.128 0.6,-0.136 1.201,-0.265 1.819,-0.296 0.073,-0.004 0.148,-0.005 0.22,-0.019 0.059,-0.011 0.102,0.008 0.146,0.04 0.256,0.188 0.514,0.375 0.769,0.565 0.034,0.025 0.063,0.057 0.09,0.089 0.186,0.217 0.37,0.435 0.556,0.653"
   style="fill:#ffffff;fill-rule:nonzero"
   id="path894" />
            </g>
            <g
   transform="matrix(2,0,0,2,1382.42,440.004)"
   id="g900">
                <path
   d="m 0,-0.998 c 0.012,0.219 -0.051,0.416 -0.156,0.608 -0.249,0.456 -0.61,0.81 -1.004,1.138 -0.085,0.07 -0.17,0.073 -0.264,0.02 C -1.46,0.748 -1.502,0.735 -1.539,0.715 -1.955,0.5 -2.39,0.337 -2.85,0.239 -3.028,0.201 -3.079,0.104 -3.003,-0.054 c 0.326,-0.675 0.783,-1.234 1.467,-1.576 0.228,-0.114 0.47,-0.189 0.733,-0.18 0.373,0.013 0.602,0.227 0.771,0.531 0.05,0.09 0.024,0.187 0.032,0.281"
   style="fill:#ffffff;fill-rule:nonzero"
   id="path898" />
            </g>
            <g
   transform="matrix(2,0,0,2,1366.98,462.171)"
   id="g904">
                <path
   d="m 0,-3.062 c 0.003,-0.19 0.001,-0.381 0.012,-0.571 0.006,-0.11 -0.044,-0.206 -0.056,-0.31 -0.002,-0.014 0.018,-0.032 0.03,-0.044 0.005,-0.006 0.023,-0.005 0.03,0 0.078,0.053 0.164,0.095 0.212,0.185 0.149,0.279 0.4,0.457 0.647,0.639 0.025,0.019 0.066,0.026 0.079,0.05 0.116,0.206 0.297,0.32 0.515,0.39 0.038,0.012 0.061,0.061 0.049,0.107 -0.01,0.041 -0.029,0.079 -0.047,0.117 -0.095,0.208 -0.097,0.421 0.032,0.606 0.197,0.281 0.293,0.604 0.411,0.919 0.06,0.16 0.16,0.295 0.245,0.441 0.069,0.12 0.187,0.212 0.324,0.24 0.21,0.043 0.343,0.202 0.512,0.307 0.057,0.035 0.075,0.099 0.075,0.166 0,0.212 -0.002,0.423 -0.003,0.635 0,0.011 10e-4,0.024 -0.005,0.031 C 3.044,0.87 3.027,0.901 3.002,0.912 2.96,0.931 2.915,0.916 2.898,0.872 2.846,0.737 2.784,0.618 2.612,0.621 2.076,0.142 1.529,-0.322 0.934,-0.728 0.607,-0.95 0.35,-1.244 0.08,-1.525 0.053,-1.552 0.036,-1.599 0.035,-1.638 0.018,-2.102 0.005,-2.567 -0.009,-3.032 c 0,-0.01 0.006,-0.02 0.009,-0.03"
   style="fill:#ffffff;fill-rule:nonzero"
   id="path902" />
            </g>
            <g
   transform="matrix(2,0,0,2,1364.26,478.937)"
   id="g908">
                <path
   d="m 0,-3.045 c 0.091,0.198 0.054,0.427 0.207,0.604 -0.353,0.311 -0.515,0.748 -0.798,1.096 0.041,0.042 0.072,0.029 0.1,0.014 0.047,-0.023 0.091,-0.054 0.138,-0.079 0.349,-0.184 0.694,-0.202 1.063,-0.028 0.315,0.148 0.635,0.292 0.978,0.376 0.155,0.038 0.173,0.082 0.088,0.225 -0.092,0.155 -0.198,0.301 -0.3,0.45 -0.057,0.083 -0.142,0.124 -0.239,0.145 -0.207,0.044 -0.414,0.087 -0.623,0.129 -0.03,0.007 -0.065,0 -0.094,0.01 -0.286,0.103 -0.552,0.055 -0.83,-0.063 -0.359,-0.154 -0.739,-0.26 -1.125,-0.332 -0.068,-0.013 -0.087,-0.055 -0.076,-0.113 0.03,-0.167 0.053,-0.336 0.099,-0.499 0.078,-0.275 0.15,-0.556 0.265,-0.816 0.14,-0.319 0.312,-0.626 0.626,-0.818 0.17,-0.104 0.33,-0.228 0.521,-0.301"
   style="fill:#ffffff;fill-rule:nonzero"
   id="path906" />
            </g>
            <g
   transform="matrix(2,0,0,2,1388.95,473.949)"
   id="g912">
                <path
   d="M 0,1.974 C -0.499,2.076 -0.97,2.229 -1.432,2.41 -1.548,2.456 -1.657,2.466 -1.772,2.447 -2.013,2.407 -2.25,2.351 -2.492,2.319 -2.664,2.296 -2.789,2.212 -2.876,2.072 -2.976,1.911 -3.062,1.741 -3.154,1.574 -3.188,1.513 -3.153,1.471 -3.103,1.448 c 0.155,-0.07 0.307,-0.146 0.467,-0.199 0.223,-0.074 0.44,-0.157 0.647,-0.265 0.149,-0.078 0.299,-0.09 0.46,-0.035 0.161,0.053 0.327,0.091 0.469,0.19 0.034,0.025 0.07,0.048 0.133,0.026 -0.081,-0.219 -0.276,-0.357 -0.388,-0.553 -0.114,-0.2 -0.28,-0.37 -0.414,-0.542 0.094,-0.168 0.179,-0.323 0.267,-0.477 0.035,-0.062 0.083,-0.085 0.158,-0.064 0.25,0.067 0.439,0.225 0.561,0.439 0.25,0.441 0.488,0.891 0.636,1.381 C -0.046,1.55 0.008,1.752 0,1.974"
   style="fill:#ffffff;fill-rule:nonzero"
   id="path910" />
            </g>
            <g
   transform="matrix(2,0,0,2,1360.91,481.989)"
   id="g916">
                <path
   d="m 0,-2.657 c -0.046,0.214 -0.092,0.429 -0.139,0.643 -0.012,0.055 -0.052,0.089 -0.095,0.121 -0.103,0.074 -0.197,0.158 -0.262,0.267 0.023,0.075 0.085,0.056 0.131,0.054 0.339,-0.015 0.678,-0.032 1.016,-0.052 0.331,-0.019 0.652,0.033 0.967,0.109 0.052,0.064 0.027,0.127 0.002,0.182 -0.138,0.309 -0.284,0.614 -0.466,0.902 -0.079,0.122 -0.186,0.192 -0.313,0.254 -0.349,0.173 -0.705,0.195 -1.076,0.091 -0.173,-0.048 -0.348,-0.088 -0.521,-0.133 -0.108,-0.028 -0.188,-0.089 -0.246,-0.188 -0.126,-0.218 -0.288,-0.418 -0.323,-0.682 -0.014,-0.107 -0.021,-0.207 0.015,-0.312 0.105,-0.301 0.245,-0.586 0.388,-0.869 0.03,-0.059 0.07,-0.104 0.134,-0.128 0.237,-0.09 0.474,-0.182 0.711,-0.271 0.015,-0.006 0.036,0.005 0.077,0.012"
   style="fill:#ffffff;fill-rule:nonzero"
   id="path914" />
            </g>
            <g
   transform="matrix(2,0,0,2,1390.28,479.832)"
   id="g920">
                <path
   d="m 0,-0.545 c -0.056,-0.103 -0.148,-0.187 -0.249,-0.258 -0.078,-0.053 -0.111,-0.119 -0.127,-0.208 -0.031,-0.185 -0.101,-0.364 -0.105,-0.555 0.205,-0.049 0.344,0.124 0.525,0.157 0.01,0.002 0.02,0.008 0.03,0.01 0.301,0.065 0.457,0.286 0.574,0.543 0.084,0.185 0.126,0.384 0.144,0.585 C 0.812,-0.055 0.761,0.151 0.657,0.341 0.601,0.444 0.527,0.536 0.475,0.64 0.412,0.764 0.313,0.831 0.186,0.869 -0.129,0.966 -0.451,1.031 -0.778,1.064 -0.839,1.07 -0.904,1.053 -0.964,1.034 -1.085,0.995 -1.201,0.943 -1.323,0.906 -1.498,0.852 -1.614,0.738 -1.689,0.577 -1.725,0.5 -1.751,0.419 -1.786,0.342 -1.872,0.151 -1.916,-0.064 -2.089,-0.209 -2.111,-0.227 -2.12,-0.263 -2.132,-0.292 c -0.036,-0.085 -0.01,-0.136 0.078,-0.16 0.437,-0.118 0.881,-0.106 1.327,-0.075 0.201,0.014 0.402,0.025 0.604,0.034 0.038,0.001 0.084,0.014 0.123,-0.052"
   style="fill:#ffffff;fill-rule:nonzero"
   id="path918" />
            </g>
            <g
   transform="matrix(2,0,0,2,1355.99,481.972)"
   id="g924">
                <path
   d="M 0,3.148 C -0.442,2.914 -0.719,2.537 -0.805,2.079 -0.874,1.711 -0.903,1.347 -0.837,0.973 -0.798,0.753 -0.704,0.57 -0.555,0.416 -0.369,0.226 -0.169,0.05 0.111,0.009 0.172,0 0.213,0.017 0.245,0.066 0.322,0.18 0.403,0.292 0.473,0.411 0.615,0.651 0.827,0.799 1.081,0.898 1.188,0.94 1.335,0.94 1.389,1.041 1.457,1.167 1.385,1.313 1.351,1.443 1.304,1.628 1.208,1.796 1.101,1.955 1.064,2.009 1.014,2.05 0.949,2.062 0.92,2.067 0.865,2.064 0.863,2.055 0.818,1.888 0.77,1.984 0.716,2.049 0.575,2.221 0.439,2.399 0.287,2.561 0.188,2.665 0.118,2.775 0.088,2.914 0.07,2.996 0.061,3.082 0,3.148"
   style="fill:#ffffff;fill-rule:nonzero"
   id="path922" />
            </g>
            <g
   transform="matrix(2,0,0,2,1394.09,481.877)"
   id="g928">
                <path
   d="M 0,3.214 C -0.056,3.045 -0.084,2.883 -0.162,2.75 -0.24,2.615 -0.37,2.512 -0.473,2.391 -0.556,2.295 -0.632,2.193 -0.711,2.093 -0.764,2.026 -0.818,1.923 -0.855,2.104 -0.856,2.112 -0.921,2.122 -0.941,2.108 -1.104,1.996 -1.288,1.902 -1.302,1.663 -1.307,1.58 -1.35,1.501 -1.368,1.418 -1.436,1.096 -1.431,1.081 -1.116,0.962 -0.841,0.858 -0.605,0.709 -0.456,0.445 -0.415,0.372 -0.359,0.306 -0.312,0.236 -0.17,0.025 -0.132,0 0.095,0.116 0.497,0.322 0.796,0.615 0.86,1.097 0.919,1.536 0.864,1.962 0.753,2.385 0.732,2.465 0.694,2.544 0.648,2.614 0.512,2.823 0.292,3.024 0,3.214"
   style="fill:#ffffff;fill-rule:nonzero"
   id="path926" />
            </g>
            <g
   transform="matrix(2,0,0,2,1367.47,438.068)"
   id="g932">
                <path
   d="m 0,-0.179 c 0.015,-0.237 0.018,-0.448 0.064,-0.657 0.027,-0.12 0.076,-0.221 0.168,-0.296 0.398,-0.326 0.849,-0.512 1.369,-0.504 0.137,0.002 0.159,0.043 0.114,0.182 -0.01,0.03 -0.022,0.06 -0.033,0.089 C 1.449,-0.715 1.48,-0.076 1.764,0.55 1.823,0.678 1.855,0.808 1.87,0.946 1.881,1.061 1.913,1.174 1.93,1.288 1.942,1.377 1.847,1.465 1.769,1.429 1.543,1.327 1.299,1.309 1.062,1.255 0.886,1.216 0.719,1.154 0.563,1.059 0.24,0.864 0.069,0.575 0.022,0.208 0.005,0.072 0.006,-0.067 0,-0.179"
   style="fill:#ffffff;fill-rule:nonzero"
   id="path930" />
            </g>
            <g
   transform="matrix(2,0,0,2,1383.21,461.562)"
   id="g936">
                <path
   d="m 0,-2.652 c -0.075,0.037 -0.172,0.058 -0.189,0.152 -0.019,0.104 -0.049,0.231 0.021,0.309 0.117,0.13 0.096,0.275 0.095,0.42 -0.005,0.384 0.053,0.334 -0.291,0.513 -0.121,0.063 -0.239,0.141 -0.339,0.233 -0.126,0.115 -0.25,0.225 -0.407,0.3 -0.073,0.035 -0.129,0.107 -0.191,0.164 -0.062,0.059 -0.121,0.119 -0.201,0.155 -0.228,0.102 -0.379,0.299 -0.558,0.461 -0.055,0.049 -0.091,0.126 -0.153,0.16 -0.196,0.107 -0.303,0.287 -0.42,0.464 -0.058,0.087 -0.136,0.162 -0.212,0.235 -0.079,0.076 -0.147,0.053 -0.189,-0.056 -0.088,-0.227 -0.025,-0.453 0.178,-0.627 0.048,-0.04 0.102,-0.079 0.16,-0.101 0.144,-0.054 0.215,-0.165 0.26,-0.301 0.006,-0.035 0.023,-0.057 0.06,-0.061 0.41,-0.484 0.617,-1.078 0.892,-1.635 0.061,-0.122 -0.024,-0.199 -0.081,-0.285 -0.08,-0.12 -0.109,-0.246 0.037,-0.327 0.471,-0.259 0.789,-0.695 1.195,-1.029 0.063,-0.051 0.117,-0.134 0.218,-0.095 0.101,0.04 0.141,0.125 0.136,0.229 -0.009,0.21 0.03,0.423 -0.026,0.631 0.03,0.029 0.027,0.059 0.005,0.091"
   style="fill:#ffffff;fill-rule:nonzero"
   id="path934" />
            </g>
            <g
   transform="matrix(2,0,0,2,1356.29,471.054)"
   id="g940">
                <path
   d="M 0,2.255 C 0.028,1.86 0.015,1.495 -0.152,1.148 -0.311,0.815 -0.542,0.547 -0.826,0.34 -0.838,0.286 -0.818,0.265 -0.786,0.255 -0.339,0.124 0.111,0.008 0.584,0.003 0.981,0 1.308,0.152 1.588,0.408 1.824,0.625 1.869,0.922 1.842,1.229 1.838,1.276 1.799,1.323 1.77,1.367 1.617,1.604 1.399,1.773 1.162,1.916 0.812,2.126 0.432,2.236 0,2.255"
   style="fill:#ffffff;fill-rule:nonzero"
   id="path938" />
            </g>
            <g
   transform="matrix(2,0,0,2,1395.65,474.977)"
   id="g944">
                <path
   d="m 0,-1.658 c -0.345,0.251 -0.578,0.53 -0.738,0.876 -0.158,0.34 -0.16,0.696 -0.138,1.081 -0.488,-0.052 -0.935,-0.146 -1.311,-0.459 -0.162,-0.135 -0.344,-0.243 -0.46,-0.43 -0.054,-0.086 -0.082,-0.168 -0.078,-0.267 0.013,-0.36 0.137,-0.641 0.46,-0.853 0.274,-0.179 0.555,-0.247 0.869,-0.245 0.246,0.001 0.488,0.03 0.724,0.096 0.21,0.059 0.435,0.071 0.672,0.201"
   style="fill:#ffffff;fill-rule:nonzero"
   id="path942" />
            </g>
            <g
   transform="matrix(2,0,0,2,1385.99,465.278)"
   id="g948">
                <path
   d="m 0,-2.835 c 0.004,0.311 -0.075,0.6 -0.151,0.885 -0.05,0.182 -0.184,0.332 -0.325,0.463 -0.173,0.159 -0.36,0.3 -0.573,0.4 -0.7,0.331 -1.402,0.657 -2.103,0.984 -0.048,0.023 -0.097,0.043 -0.148,0.059 -0.179,0.055 -0.28,0.013 -0.37,-0.148 -0.094,-0.168 -0.065,-0.393 0.083,-0.518 0.122,-0.102 0.253,-0.193 0.386,-0.279 0.509,-0.33 1.054,-0.594 1.601,-0.85 0.523,-0.245 1.009,-0.541 1.438,-0.928 0.031,-0.028 0.067,-0.051 0.102,-0.075 0.007,-0.004 0.02,0.002 0.06,0.007"
   style="fill:#ffffff;fill-rule:nonzero"
   id="path946" />
            </g>
            <g
   transform="matrix(2,0,0,2,1364.23,465.325)"
   id="g952">
                <path
   d="m 0,-2.862 c 0.101,-0.006 0.142,0.066 0.195,0.113 0.394,0.343 0.829,0.618 1.304,0.842 0.574,0.272 1.141,0.559 1.688,0.885 0.26,0.155 0.379,0.389 0.489,0.641 0.046,0.106 -0.028,0.18 -0.09,0.254 C 3.478,0.002 3.466,0.006 3.321,-0.063 2.481,-0.466 1.641,-0.87 0.8,-1.272 0.51,-1.411 0.316,-1.644 0.156,-1.912 0.135,-1.947 0.126,-1.991 0.117,-2.032 0.077,-2.23 0.034,-2.427 0,-2.625 -0.014,-2.703 -0.031,-2.786 0,-2.862"
   style="fill:#ffffff;fill-rule:nonzero"
   id="path950" />
            </g>
            <g
   transform="matrix(2,0,0,2,1359.05,464.592)"
   id="g956">
                <path
   d="m 0,-0.185 c 0.161,-0.178 0.111,-0.444 0.283,-0.598 0.15,0.123 0.321,0.338 0.391,0.51 0.099,0.244 0.189,0.491 0.287,0.736 C 0.996,0.55 0.996,0.625 0.932,0.699 0.884,0.755 0.841,0.815 0.795,0.874 0.651,1.059 0.538,1.261 0.441,1.475 0.407,1.55 0.4,1.643 0.305,1.705 0.091,1.448 -0.097,1.172 -0.255,0.875 -0.277,0.832 -0.279,0.79 -0.246,0.759 -0.156,0.674 -0.182,0.595 -0.24,0.505 -0.334,0.363 -0.418,0.215 -0.508,0.072 -0.574,-0.03 -0.591,-0.134 -0.574,-0.259 c 0.028,-0.202 0.087,-0.392 0.153,-0.582 0.112,-0.321 0.247,-0.632 0.421,-0.924 0.069,-0.117 0.087,-0.125 0.198,-0.067 0.169,0.09 0.348,0.152 0.529,0.213 0.06,0.02 0.12,0.04 0.174,0.071 0.226,0.131 0.234,0.148 0.121,0.397 C 0.962,-1.018 0.931,-0.87 0.831,-0.753 0.693,-0.862 0.566,-0.973 0.429,-1.07 0.32,-1.148 0.274,-1.133 0.203,-1.013 c -0.075,0.127 -0.16,0.25 -0.209,0.392 -0.057,0.175 -0.061,0.187 0.006,0.436"
   style="fill:#ffffff;fill-rule:nonzero"
   id="path954" />
            </g>
            <g
   transform="matrix(2,0,0,2,1372.64,445.599)"
   id="g960">
                <path
   d="M 0,1.535 C -0.083,1.365 -0.085,1.196 -0.068,1.026 -0.063,0.974 -0.051,0.922 -0.041,0.869 0.036,0.452 0.038,0.454 0.327,0.165 0.523,-0.032 0.762,-0.128 1.031,-0.168 1.115,-0.18 1.199,-0.192 1.283,-0.206 1.811,-0.295 2.233,-0.089 2.606,0.262 2.721,0.37 2.791,0.503 2.794,0.653 2.801,1.014 2.768,1.373 2.646,1.717 2.631,1.762 2.613,1.815 2.554,1.83 2.547,1.81 2.536,1.791 2.534,1.772 2.461,1.321 2.223,1.088 1.782,0.987 1.393,0.899 1.021,0.97 0.654,1.075 0.438,1.136 0.259,1.276 0.11,1.447 0.083,1.478 0.07,1.524 0,1.535"
   style="fill:#ffffff;fill-rule:nonzero"
   id="path958" />
            </g>
            <g
   transform="matrix(2,0,0,2,1365.43,439.553)"
   id="g964">
                <path
   d="M 0,2.112 C -0.103,2.135 -0.193,2.086 -0.272,2.007 -0.385,1.896 -0.489,1.777 -0.581,1.647 -0.688,1.495 -0.704,1.338 -0.657,1.166 -0.587,0.915 -0.462,0.697 -0.272,0.52 -0.078,0.338 0.14,0.189 0.379,0.072 0.514,0.006 0.658,-0.023 0.809,-0.018 0.877,-0.015 0.937,0.007 0.964,0.072 1.023,0.211 1.122,0.319 1.219,0.432 1.386,0.628 1.4,0.875 1.416,1.118 1.419,1.166 1.395,1.196 1.355,1.219 1.101,1.368 0.926,1.591 0.793,1.849 0.751,1.931 0.693,1.98 0.604,2.002 0.409,2.052 0.215,2.101 0,2.112"
   style="fill:#ffffff;fill-rule:nonzero"
   id="path962" />
            </g>
            <g
   transform="matrix(2,0,0,2,1372.29,444.808)"
   id="g968">
                <path
   d="M 0,2.717 C -0.133,2.602 -0.259,2.49 -0.388,2.381 -0.46,2.319 -0.532,2.255 -0.611,2.202 -0.814,2.065 -0.989,1.899 -1.169,1.733 -1.55,1.38 -1.951,1.047 -2.399,0.779 -2.591,0.664 -2.801,0.591 -3.012,0.534 -3.031,0.466 -2.993,0.429 -2.95,0.396 -2.874,0.338 -2.797,0.283 -2.722,0.224 -2.507,0.053 -2.266,0 -2.005,0.077 c 0.234,0.069 0.466,0.144 0.691,0.237 0.195,0.081 0.381,0.186 0.529,0.345 0.175,0.186 0.355,0.366 0.53,0.55 0.085,0.089 0.118,0.192 0.109,0.319 -0.015,0.211 -0.022,0.422 0.046,0.63 0.03,0.092 0.048,0.188 0.126,0.25 0.087,0.069 0.076,0.14 0.025,0.221 C 0.035,2.655 0.021,2.682 0,2.717"
   style="fill:#ffffff;fill-rule:nonzero"
   id="path966" />
            </g>
            <g
   transform="matrix(2,0,0,2,1377.82,444.455)"
   id="g972">
                <path
   d="M 0,3.157 C 0.035,2.921 0.084,2.717 0.219,2.55 0.283,2.472 0.315,2.392 0.336,2.296 0.434,1.867 0.476,1.436 0.402,1.001 0.361,0.76 0.44,0.592 0.639,0.46 1.194,0.092 1.793,0 2.433,0.167 2.553,0.199 2.64,0.35 2.608,0.462 2.603,0.481 2.591,0.504 2.576,0.514 2.301,0.702 2.091,0.958 1.866,1.196 1.755,1.313 1.638,1.417 1.508,1.512 1.022,1.867 0.619,2.299 0.327,2.829 0.254,2.963 0.155,3.064 0,3.157"
   style="fill:#ffffff;fill-rule:nonzero"
   id="path970" />
            </g>
            <g
   transform="matrix(2,0,0,2,1380.66,441.246)"
   id="g976">
                <path
   d="M 0,1.254 C -0.304,1.231 -0.574,1.192 -0.831,1.109 -0.946,1.072 -1.041,0.968 -1.141,0.889 -1.364,0.71 -1.591,0.534 -1.805,0.345 -1.965,0.205 -2.121,0.176 -2.33,0.233 -2.86,0.378 -3.33,0.635 -3.775,0.948 -3.888,1.165 -4.104,1.19 -4.31,1.225 -4.499,1.256 -4.685,1.293 -4.863,1.365 -4.92,1.389 -4.987,1.394 -5.049,1.402 -5.139,1.414 -5.17,1.376 -5.141,1.298 c 0.004,-0.009 0.009,-0.019 0.013,-0.029 0.106,-0.231 0.21,-0.464 0.357,-0.673 0.207,-0.107 0.408,-0.227 0.622,-0.318 0.541,-0.227 1.101,-0.379 1.69,-0.423 0.198,-0.015 0.382,0.018 0.558,0.097 0.464,0.208 0.925,0.423 1.387,0.636 0.068,0.032 0.134,0.067 0.176,0.132 0.107,0.169 0.214,0.338 0.338,0.534"
   style="fill:#ffffff;fill-rule:nonzero"
   id="path974" />
            </g>
            <g
   transform="matrix(2,0,0,2,1361.93,465.96)"
   id="g980">
                <path
   d="M 0,3.187 C -0.023,3.106 -0.043,3.046 -0.058,2.985 -0.156,2.6 -0.36,2.29 -0.701,2.074 -0.92,1.934 -0.952,1.939 -0.812,1.679 -0.777,1.615 -0.75,1.542 -0.735,1.471 -0.655,1.118 -0.5,0.791 -0.385,0.45 -0.327,0.278 -0.186,0.161 -0.112,0 -0.021,0.063 -0.013,0.154 0.017,0.231 0.252,0.844 0.456,1.469 0.744,2.06 0.772,2.117 0.791,2.175 0.766,2.243 0.664,2.524 0.544,2.793 0.321,3.003 0.234,3.084 0.141,3.15 0,3.187"
   style="fill:#ffffff;fill-rule:nonzero"
   id="path978" />
            </g>
            <g
   transform="matrix(2,0,0,2,1388.6,472.324)"
   id="g984">
                <path
   d="m 0,-3.048 c 0.157,0.143 0.278,0.305 0.342,0.514 0.115,0.385 0.242,0.766 0.364,1.149 0.04,0.127 0.037,0.131 -0.068,0.21 -0.025,0.019 -0.052,0.036 -0.079,0.052 -0.365,0.222 -0.576,0.552 -0.675,0.96 -0.013,0.05 -0.029,0.1 -0.048,0.163 -0.125,-0.014 -0.217,-0.08 -0.301,-0.157 -0.218,-0.198 -0.349,-0.449 -0.435,-0.726 -0.037,-0.116 -0.025,-0.228 0.044,-0.334 0.229,-0.357 0.347,-0.766 0.526,-1.146 0.099,-0.21 0.183,-0.427 0.276,-0.64 C -0.046,-3.02 -0.023,-3.03 0,-3.048"
   style="fill:#ffffff;fill-rule:nonzero"
   id="path982" />
            </g>
            <g
   transform="matrix(2,0,0,2,1356.38,476.209)"
   id="g988">
                <path
   d="M 0,0.745 C 0,0.716 0.002,0.695 0,0.674 -0.028,0.357 0.082,0.164 0.421,0.087 0.687,0.027 0.92,-0.125 1.122,-0.329 c 0.208,-0.209 0.466,-0.367 0.656,-0.6 0.031,-0.038 0.077,-0.032 0.112,0 0.085,0.081 0.187,0.085 0.296,0.085 0.145,0 0.129,0.014 0.194,0.142 0.087,0.168 0.025,0.328 0.018,0.492 C 2.396,-0.165 2.37,-0.163 2.344,-0.153 2.117,-0.065 1.891,0.025 1.662,0.108 1.39,0.207 1.185,0.375 1.067,0.646 0.999,0.801 0.938,0.964 0.84,1.1 0.742,1.233 0.602,1.336 0.48,1.453 0.465,1.467 0.449,1.482 0.436,1.498 0.259,1.712 0.225,1.685 0.129,1.451 0.035,1.223 -0.019,0.987 0,0.745"
   style="fill:#ffffff;fill-rule:nonzero"
   id="path986" />
            </g>
            <g
   transform="matrix(2,0,0,2,1360.52,488.691)"
   id="g992">
                <path
   d="m 0,-2.562 c 0.257,0.45 0.543,0.855 0.885,1.223 0.263,0.282 0.567,0.512 0.878,0.734 0.137,0.098 0.235,0.208 0.292,0.361 0.029,0.075 0.108,0.132 0.084,0.242 C 1.849,0 1.573,-0.076 1.309,-0.181 0.863,-0.357 0.444,-0.584 0.087,-0.913 c -0.142,-0.13 -0.262,-0.276 -0.382,-0.425 -0.104,-0.127 -0.129,-0.258 -0.1,-0.414 0.031,-0.167 0.054,-0.335 0.075,-0.503 0.022,-0.177 0.154,-0.238 0.32,-0.307"
   style="fill:#ffffff;fill-rule:nonzero"
   id="path990" />
            </g>
            <g
   transform="matrix(2,0,0,2,1385.48,443.029)"
   id="g996">
                <path
   d="M 0,0.172 C -0.013,0.232 -0.027,0.349 -0.064,0.458 -0.113,0.602 -0.198,0.721 -0.353,0.774 -0.514,0.828 -0.677,0.865 -0.848,0.87 -0.903,0.872 -0.955,0.865 -0.994,0.824 -1.196,0.618 -1.465,0.602 -1.725,0.562 -1.767,0.555 -1.809,0.555 -1.851,0.552 -1.943,0.546 -2.01,0.51 -2.044,0.417 -2.093,0.289 -2.154,0.165 -2.202,0.037 c -0.081,-0.21 -0.02,-0.395 0.119,-0.558 0.143,-0.167 0.266,-0.179 0.471,-0.076 0.265,0.134 0.548,0.219 0.834,0.294 0.093,0.025 0.187,0.008 0.282,-0.007 C -0.154,-0.365 0.01,-0.22 0,0.172"
   style="fill:#ffffff;fill-rule:nonzero"
   id="path994" />
            </g>
            <g
   transform="matrix(2,0,0,2,1393.2,474.329)"
   id="g1000">
                <path
   d="M 0,2.611 C -0.175,2.44 -0.342,2.281 -0.503,2.115 -0.538,2.08 -0.56,2.026 -0.574,1.976 -0.624,1.801 -0.726,1.651 -0.809,1.492 -0.911,1.295 -1.074,1.166 -1.275,1.082 -1.401,1.029 -1.529,0.978 -1.655,0.924 -1.741,0.888 -1.859,0.886 -1.898,0.798 -1.929,0.728 -1.907,0.633 -1.9,0.549 -1.89,0.423 -1.873,0.298 -1.859,0.167 -1.784,0.143 -1.716,0.111 -1.645,0.102 -1.577,0.092 -1.562,0 -1.484,0.014 c 0.128,0.122 0.266,0.238 0.386,0.37 0.317,0.346 0.71,0.563 1.152,0.697 0.084,0.025 0.13,0.07 0.143,0.147 C 0.271,1.65 0.281,2.07 0.096,2.471 0.075,2.517 0.039,2.556 0,2.611"
   style="fill:#ffffff;fill-rule:nonzero"
   id="path998" />
            </g>
            <g
   transform="matrix(2,0,0,2,1389.38,488.575)"
   id="g1004">
                <path
   d="m 0,-2.307 c 0.044,0.014 0.082,0.026 0.12,0.039 0.125,0.039 0.219,0.098 0.284,0.228 0.09,0.18 0.12,0.359 0.095,0.551 -0.006,0.049 -0.046,0.093 -0.076,0.138 -0.145,0.225 -0.327,0.416 -0.533,0.586 -0.398,0.329 -0.848,0.561 -1.338,0.717 -0.07,0.022 -0.144,0.033 -0.217,0.045 -0.018,0.003 -0.038,-0.011 -0.073,-0.022 0.11,-0.229 0.217,-0.457 0.333,-0.681 0.027,-0.053 0.079,-0.099 0.128,-0.138 0.475,-0.385 0.859,-0.849 1.195,-1.356 0.023,-0.035 0.051,-0.066 0.082,-0.107"
   style="fill:#ffffff;fill-rule:nonzero"
   id="path1002" />
            </g>
            <g
   transform="matrix(2,0,0,2,1378.2,442.521)"
   id="g1008">
                <path
   d="M 0,1.507 C -0.081,1.506 -0.123,1.454 -0.17,1.416 -0.38,1.245 -0.626,1.151 -0.876,1.062 -1.04,1.003 -1.21,0.988 -1.378,1.018 c -0.31,0.056 -0.631,0.074 -0.916,0.234 -0.015,0.009 -0.04,10e-4 -0.081,10e-4 0.018,-0.224 0.1,-0.426 0.177,-0.629 0.018,-0.046 0.06,-0.089 0.101,-0.119 0.338,-0.246 0.699,-0.44 1.123,-0.486 0.053,-0.006 0.106,-0.019 0.155,0.006 0.285,0.147 0.554,0.316 0.721,0.602 0.08,0.137 0.147,0.281 0.22,0.422 C 0.165,1.13 0.165,1.209 0.118,1.29 0.076,1.363 0.038,1.437 0,1.507"
   style="fill:#ffffff;fill-rule:nonzero"
   id="path1006" />
            </g>
            <g
   transform="matrix(2,0,0,2,1383.2,458.084)"
   id="g1012">
                <path
   d="m 0,-1.004 c -0.001,-0.191 -0.003,-0.382 -0.004,-0.573 0,-0.113 -0.034,-0.205 -0.149,-0.248 -0.012,0.006 -0.026,0.009 -0.03,0.016 -0.086,0.163 -0.271,0.197 -0.395,0.307 -0.116,0.105 -0.138,0.288 -0.274,0.383 -0.216,0.151 -0.434,0.3 -0.651,0.448 -0.079,0.054 -0.102,0.099 -0.045,0.149 0.219,0.19 0.169,0.377 0.064,0.616 -0.136,0.31 -0.339,0.584 -0.446,0.908 -0.043,0.127 -0.13,0.241 -0.203,0.357 -0.055,0.085 -0.151,0.112 -0.239,0.148 0.256,-0.558 0.479,-1.132 0.789,-1.664 0.047,-0.081 0.023,-0.14 -0.064,-0.171 -0.05,-0.018 -0.105,-0.023 -0.152,-0.045 -0.088,-0.042 -0.148,-0.174 -0.121,-0.269 0.007,-0.026 0.033,-0.057 0.058,-0.067 0.393,-0.154 0.699,-0.438 1.019,-0.698 0.325,-0.265 0.563,-0.604 0.777,-0.96 0.027,-0.045 0.051,-0.092 0.08,-0.144 0.154,0.081 0.228,0.22 0.312,0.351 0.211,0.332 0.381,0.686 0.552,1.039 0.217,0.448 0.416,0.905 0.623,1.358 C 1.49,0.324 1.387,0.262 1.36,0.329 1.34,0.376 1.296,0.413 1.264,0.456 1.115,0.651 0.942,0.822 0.747,0.972 0.681,1.023 0.607,1.065 0.532,1.106 0.497,1.125 0.454,1.13 0.418,1.14 0.251,0.962 0.189,0.765 0.209,0.526 0.23,0.272 0.213,0.016 0.216,-0.238 0.217,-0.301 0.232,-0.363 0.241,-0.426 0.374,-0.308 0.318,-0.15 0.329,-0.007 0.338,0.12 0.325,0.249 0.335,0.375 0.346,0.516 0.367,0.667 0.519,0.718 0.653,0.764 0.725,0.634 0.805,0.555 1.177,0.189 1.185,0.068 0.908,-0.378 0.701,-0.712 0.639,-1.117 0.409,-1.442 0.351,-1.524 0.334,-1.656 0.182,-1.601 0.157,-1.656 0.132,-1.711 0.107,-1.766 0.029,-1.74 0.047,-1.68 0.046,-1.632 0.038,-1.422 0.059,-1.21 0,-1.004"
   style="fill:#ffffff;fill-rule:nonzero"
   id="path1010" />
            </g>
            <g
   transform="matrix(2,0,0,2,1390.16,463.23)"
   id="g1016">
                <path
   d="M 0,2.228 C -0.081,2.193 -0.128,2.16 -0.144,2.108 -0.251,1.763 -0.4,1.437 -0.59,1.13 -0.601,1.112 -0.608,1.091 -0.612,1.071 -0.62,1.028 -0.623,0.981 -0.587,0.952 -0.335,0.755 -0.164,0.478 0.081,0.276 0.146,0.222 0.212,0.167 0.284,0.125 0.494,0 0.657,0.024 0.826,0.196 0.833,0.204 0.841,0.211 0.847,0.219 1.137,0.59 1.15,0.499 0.917,0.893 0.858,0.993 0.794,1.091 0.733,1.19 0.689,1.261 0.633,1.328 0.658,1.423 0.67,1.468 0.641,1.502 0.612,1.534 0.503,1.65 0.392,1.764 0.287,1.883 0.189,1.994 0.098,2.11 0,2.228"
   style="fill:#ffffff;fill-rule:nonzero"
   id="path1014" />
            </g>
            <g
   transform="matrix(2,0,0,2,1387.3,452.262)"
   id="g1020">
                <path
   d="m 0,-1.881 c 0.453,0.12 0.856,0.268 1.225,0.502 0.224,0.141 0.351,0.325 0.368,0.59 0.017,0.272 0.049,0.544 -0.112,0.786 C 1.391,0 1.335,-0.054 1.271,-0.088 0.999,-0.234 0.719,-0.353 0.403,-0.366 0.383,-0.367 0.361,-0.369 0.34,-0.373 0.081,-0.42 0.099,-0.418 0.143,-0.649 0.204,-0.973 0.22,-1.297 0.078,-1.611 0.044,-1.686 0.031,-1.769 0,-1.881"
   style="fill:#ffffff;fill-rule:nonzero"
   id="path1018" />
            </g>
            <g
   transform="matrix(2,0,0,2,1384.42,434.426)"
   id="g1024">
                <path
   d="M 0,1.568 C -0.07,1.512 -0.126,1.465 -0.183,1.419 -0.359,1.277 -0.555,1.171 -0.783,1.148 -0.874,1.139 -0.942,1.105 -1.002,1.04 -1.148,0.881 -1.326,0.768 -1.551,0.698 -1.554,0.585 -1.558,0.472 -1.56,0.358 -1.565,0.061 -1.536,0.065 -1.28,0.041 -0.841,0 -0.414,0.081 -0.053,0.367 0.047,0.447 0.126,0.547 0.184,0.663 0.218,0.731 0.243,0.801 0.23,0.876 0.188,1.114 0.13,1.346 0,1.568"
   style="fill:#ffffff;fill-rule:nonzero"
   id="path1022" />
            </g>
            <g
   transform="matrix(2,0,0,2,1385.46,447.974)"
   id="g1028">
                <path
   d="M 0,2.101 C 0.077,1.729 0.09,1.395 0.076,1.057 0.07,0.902 0.03,0.769 -0.057,0.644 -0.135,0.532 -0.21,0.416 -0.281,0.298 -0.341,0.197 -0.319,0.135 -0.216,0.102 0.101,0 0.38,0.035 0.619,0.299 0.928,0.64 0.94,0.656 0.912,1.118 0.896,1.386 0.799,1.632 0.715,1.882 0.696,1.937 0.653,1.959 0.602,1.981 0.424,2.058 0.233,2.058 0,2.101"
   style="fill:#ffffff;fill-rule:nonzero"
   id="path1026" />
            </g>
            <g
   transform="matrix(2,0,0,2,1383.57,459.466)"
   id="g1032">
                <path
   d="m 0,-2.292 c 0.01,-0.06 -0.015,-0.145 0.055,-0.169 0.093,-0.032 0.12,0.058 0.155,0.122 0.097,0.176 0.173,0.364 0.293,0.528 0.041,0.057 0.053,0.136 0.076,0.206 0.067,0.2 0.116,0.407 0.27,0.564 0.007,0.008 0.014,0.017 0.019,0.025 0.22,0.327 0.213,0.499 -0.048,0.795 C 0.707,-0.095 0.582,0.021 0.457,0.135 0.385,0.201 0.291,0.188 0.234,0.111 0.133,-0.026 0.054,-0.165 0.064,-0.353 0.08,-0.606 0.062,-0.861 0.059,-1.116 0.039,-1.508 0.02,-1.9 0,-2.292"
   style="fill:#ffffff;fill-rule:nonzero"
   id="path1030" />
            </g>
            <g
   transform="matrix(2,0,0,2,1357.72,483.44)"
   id="g1036">
                <path
   d="m 0,-2.023 c -0.044,0.435 0.182,0.738 0.395,1.04 0.071,0.1 0.191,0.164 0.311,0.214 0.173,0.072 0.343,0.149 0.53,0.231 C 1.11,-0.377 0.991,-0.23 0.878,-0.079 0.824,-0.009 0.748,0 0.677,-0.011 0.458,-0.047 0.241,-0.103 0.041,-0.203 -0.014,-0.23 -0.063,-0.277 -0.103,-0.325 -0.292,-0.556 -0.448,-0.806 -0.537,-1.096 -0.564,-1.185 -0.563,-1.264 -0.509,-1.337 -0.342,-1.567 -0.17,-1.794 0,-2.023"
   style="fill:#ffffff;fill-rule:nonzero"
   id="path1034" />
            </g>
            <g
   transform="matrix(2,0,0,2,1392.41,483.452)"
   id="g1040">
                <path
   d="m 0,-2.01 c 0.169,0.225 0.318,0.428 0.473,0.629 0.08,0.104 0.076,0.203 0.035,0.325 -0.091,0.265 -0.236,0.496 -0.408,0.713 -0.053,0.066 -0.115,0.123 -0.196,0.157 -0.187,0.078 -0.38,0.131 -0.578,0.168 C -0.773,0 -0.856,-0.03 -0.92,-0.122 c -0.097,-0.137 -0.208,-0.265 -0.327,-0.414 0.117,-0.088 0.248,-0.128 0.37,-0.166 0.497,-0.159 0.684,-0.566 0.844,-1.003 C 0.002,-1.798 -0.093,-1.89 0,-2.01"
   style="fill:#ffffff;fill-rule:nonzero"
   id="path1038" />
            </g>
            <g
   transform="matrix(2,0,0,2,1366.51,457.819)"
   id="g1044">
                <path
   d="M 0,-0.293 C -0.003,-0.007 -0.007,0.28 -0.011,0.567 -0.014,0.788 -0.09,0.901 -0.288,0.975 -0.315,0.985 -0.351,0.984 -0.379,0.976 -0.491,0.944 -0.593,0.903 -0.684,0.817 -0.846,0.661 -0.895,0.455 -0.961,0.256 c -0.031,-0.092 0.018,-0.179 0.075,-0.264 0.2,-0.299 0.362,-0.618 0.498,-0.951 0.055,-0.134 0.161,-0.22 0.275,-0.298 0.032,-0.021 0.092,0.013 0.094,0.055 0.008,0.191 0.013,0.382 0.019,0.573 0.03,0.112 0.031,0.224 0,0.336"
   style="fill:#ffffff;fill-rule:nonzero"
   id="path1042" />
            </g>
            <g
   transform="matrix(2,0,0,2,1397.88,475.614)"
   id="g1048">
                <path
   d="m 0,-1.658 c -0.062,0.074 -0.154,0.059 -0.234,0.074 -0.654,0.124 -1.07,0.582 -1.112,1.244 -0.014,0.212 -0.002,0.425 -0.002,0.633 -0.076,0.058 -0.127,-0.003 -0.17,-0.037 -0.074,-0.058 -0.138,-0.13 -0.201,-0.201 -0.104,-0.117 -0.15,-0.252 -0.136,-0.411 0.051,-0.594 0.279,-1.083 0.82,-1.388 0.047,-0.026 0.095,-0.048 0.138,-0.08 0.25,-0.185 0.494,-0.138 0.735,0.018 0.062,0.04 0.13,0.073 0.162,0.148"
   style="fill:#ffffff;fill-rule:nonzero"
   id="path1046" />
            </g>
            <g
   transform="matrix(2,0,0,2,1355.02,471.687)"
   id="g1052">
                <path
   d="M 0,2.296 C 0,2.07 0.002,1.882 0,1.694 -0.004,1.422 -0.091,1.18 -0.233,0.948 -0.43,0.626 -0.717,0.457 -1.076,0.387 -1.167,0.369 -1.258,0.352 -1.379,0.329 -1.221,0.13 -1.027,0.062 -0.827,0.011 -0.78,0 -0.721,0.019 -0.674,0.038 -0.011,0.3 0.402,0.765 0.492,1.487 0.538,1.855 0.406,2.085 0,2.296"
   style="fill:#ffffff;fill-rule:nonzero"
   id="path1050" />
            </g>
            <g
   transform="matrix(2,0,0,2,1385.3,441.614)"
   id="g1056">
                <path
   d="M 0,1.635 C 0.268,1.363 0.336,1.205 0.341,0.873 0.345,0.57 0.23,0.339 -0.061,0.217 -0.081,0.209 -0.101,0.202 -0.12,0.191 -0.136,0.181 -0.151,0.167 -0.181,0.142 0.019,0.06 0.218,0.016 0.421,-0.012 0.496,-0.022 0.566,-0.006 0.633,0.036 0.751,0.11 0.859,0.192 0.941,0.306 1.017,0.413 1.055,0.526 1.061,0.659 1.075,0.937 1.001,1.179 0.819,1.392 0.702,1.528 0.543,1.583 0.38,1.626 0.26,1.657 0.135,1.651 0,1.635"
   style="fill:#ffffff;fill-rule:nonzero"
   id="path1054" />
            </g>
            <g
   transform="matrix(2,0,0,2,1358.55,473.168)"
   id="g1060">
                <path
   d="M 0,-1.212 C 0.414,-1.564 0.499,-1.57 0.938,-1.298 1.361,-1.035 1.519,-0.651 1.416,-0.156 1.358,0.125 1.206,0.268 0.897,0.358 0.864,0.319 0.89,0.279 0.892,0.239 0.9,0.113 0.916,-0.015 0.906,-0.14 0.878,-0.511 0.716,-0.803 0.38,-0.99 0.252,-1.06 0.106,-1.102 0,-1.212"
   style="fill:#ffffff;fill-rule:nonzero"
   id="path1058" />
            </g>
            <g
   transform="matrix(2,0,0,2,1391.67,473.302)"
   id="g1064">
                <path
   d="m 0,-1.288 c -0.1,0.097 -0.201,0.133 -0.295,0.178 -0.469,0.227 -0.655,0.612 -0.626,1.116 0.005,0.084 0.023,0.167 0.032,0.251 0.004,0.04 -0.053,0.072 -0.089,0.052 -0.195,-0.113 -0.379,-0.241 -0.437,-0.477 -0.108,-0.436 -0.023,-0.863 0.396,-1.149 0.062,-0.042 0.127,-0.079 0.191,-0.116 0.319,-0.183 0.32,-0.184 0.629,0.003 0.063,0.037 0.12,0.085 0.199,0.142"
   style="fill:#ffffff;fill-rule:nonzero"
   id="path1062" />
            </g>
            <g
   transform="matrix(2,0,0,2,1387.87,440.891)"
   id="g1068">
                <path
   d="M 0,1.575 C 0.01,1.414 0.015,1.268 0.029,1.124 0.058,0.836 -0.058,0.609 -0.259,0.417 -0.304,0.374 -0.352,0.334 -0.39,0.301 -0.391,0.217 -0.327,0.206 -0.295,0.17 -0.16,0.019 0.015,0 0.2,0.033 0.391,0.068 0.568,0.14 0.695,0.293 0.78,0.394 0.804,0.52 0.786,0.652 0.755,0.887 0.659,1.098 0.533,1.297 0.522,1.315 0.51,1.335 0.493,1.345 0.34,1.434 0.193,1.537 0,1.575"
   style="fill:#ffffff;fill-rule:nonzero"
   id="path1066" />
            </g>
            <g
   transform="matrix(2,0,0,2,1391.47,461.837)"
   id="g1072">
                <path
   d="M 0,0.215 C -0.033,0.189 -0.065,0.162 -0.098,0.136 -0.176,0.075 -0.252,0.084 -0.332,0.136 -0.598,0.31 -0.864,0.483 -1.067,0.733 -1.094,0.767 -1.126,0.793 -1.183,0.797 -1.254,0.604 -1.326,0.407 -1.399,0.211 -1.424,0.143 -1.409,0.092 -1.354,0.043 c 0.234,-0.211 0.511,-0.339 0.807,-0.43 0.355,-0.111 0.285,-0.195 0.494,0.196 0.054,0.103 0.093,0.213 0.139,0.32 C 0.105,0.206 0.07,0.228 0,0.215"
   style="fill:#ffffff;fill-rule:nonzero"
   id="path1070" />
            </g>
            <g
   transform="matrix(2,0,0,2,1382.92,440.089)"
   id="g1076">
                <path
   d="m 0,-1.469 c 0.347,0.118 0.643,0.415 0.734,0.727 C 0.75,-0.689 0.752,-0.64 0.727,-0.59 0.631,-0.402 0.518,-0.224 0.368,-0.073 0.319,-0.024 0.269,0 0.203,-0.053 0.105,-0.132 0.003,-0.206 -0.094,-0.279 -0.093,-0.306 -0.099,-0.33 -0.09,-0.343 0.099,-0.604 0.087,-0.896 0.042,-1.193 0.028,-1.285 -0.016,-1.372 0,-1.469"
   style="fill:#ffffff;fill-rule:nonzero"
   id="path1074" />
            </g>
            <g
   transform="matrix(2,0,0,2,1391.96,467.417)"
   id="g1080">
                <path
   d="M 0,1.346 C -0.071,1.375 -0.12,1.321 -0.175,1.296 -0.301,1.24 -0.419,1.154 -0.55,1.124 -0.718,1.087 -0.782,0.999 -0.776,0.821 -0.624,0.753 -0.538,0.613 -0.466,0.455 -0.391,0.292 -0.297,0.139 -0.205,-0.029 -0.04,0.277 0.038,0.821 0,1.346"
   style="fill:#ffffff;fill-rule:nonzero"
   id="path1078" />
            </g>
            <g
   transform="matrix(2,0,0,2,1358.41,470.245)"
   id="g1084">
                <path
   d="m 0,-1.402 c 0.187,0.26 0.334,0.464 0.482,0.668 0.032,0.045 0.044,0.094 0.041,0.149 C 0.517,-0.501 0.514,-0.417 0.51,-0.33 0.293,-0.222 0.08,-0.116 -0.153,0 -0.196,-0.472 -0.129,-0.902 0,-1.402"
   style="fill:#ffffff;fill-rule:nonzero"
   id="path1082" />
            </g>
            <g
   transform="matrix(2,0,0,2,1366.9,466.228)"
   id="g1088">
                <path
   d="m 0,-0.964 c 0.127,0 0.222,0.073 0.327,0.119 0.042,0.018 0.062,0.055 0.071,0.099 0.006,0.031 0.019,0.063 0.016,0.093 -0.023,0.246 0.138,0.362 0.322,0.461 0.108,0.058 0.2,0.044 0.288,-0.044 0.03,-0.03 0.053,-0.066 0.08,-0.099 0.096,-0.124 0.097,-0.124 0.224,-0.07 0.058,0.025 0.114,0.055 0.173,0.079 0.046,0.019 0.071,0.055 0.064,0.097 -0.01,0.051 -0.037,0.112 -0.089,0.123 C 1.121,-0.032 0.762,0 0.402,-0.067 0.289,-0.088 0.22,-0.176 0.165,-0.266 0.035,-0.477 -0.047,-0.704 0,-0.964"
   style="fill:#ffffff;fill-rule:nonzero"
   id="path1086" />
            </g>
            <g
   transform="matrix(2,0,0,2,1364.86,449.11)"
   id="g1092">
                <path
   d="M 0,0.424 C -0.48,0.479 -0.957,0.54 -1.459,0.5 -1.4,0.262 -1.315,0.047 -1.116,-0.116 -0.731,0.033 -0.362,0.208 0,0.424"
   style="fill:#ffffff;fill-rule:nonzero"
   id="path1090" />
            </g>
            <g
   transform="matrix(2,0,0,2,1372.01,444.543)"
   id="g1096">
                <path
   d="M 0,1.175 C -0.215,0.891 -0.405,0.64 -0.595,0.39 -0.382,0.192 -0.161,0.092 0.257,0 0.318,0.086 0.247,0.16 0.225,0.232 0.164,0.433 0.084,0.628 0.122,0.848 0.14,0.956 0.062,1.044 0,1.175"
   style="fill:#ffffff;fill-rule:nonzero"
   id="path1094" />
            </g>
            <g
   transform="matrix(2,0,0,2,1383.16,466.182)"
   id="g1100">
                <path
   d="m 0,-0.931 c 0.195,0.236 0.167,0.37 -0.08,0.599 -0.047,0.043 -0.11,0.073 -0.144,0.123 -0.123,0.183 -0.305,0.209 -0.5,0.201 -0.158,-0.007 -0.317,-0.018 -0.475,-0.036 -0.099,-0.012 -0.193,-0.172 -0.156,-0.267 0.03,-0.078 0.118,-0.081 0.184,-0.108 0.041,-0.017 0.079,0.013 0.101,0.054 0.005,0.009 0.011,0.018 0.016,0.027 0.07,0.11 0.153,0.233 0.296,0.197 0.163,-0.042 0.312,-0.132 0.374,-0.311 0.01,-0.03 0.023,-0.062 0.022,-0.092 -0.015,-0.26 0.16,-0.334 0.362,-0.387"
   style="fill:#ffffff;fill-rule:nonzero"
   id="path1098" />
            </g>
            <g
   transform="matrix(2,0,0,2,1373.16,475.801)"
   id="g1104">
                <path
   d="M 0,0.349 C 0.258,0.19 0.542,0.114 0.819,0.02 0.922,-0.015 1.035,0.001 1.133,0.03 1.375,0.099 1.608,0.191 1.823,0.315 1.819,0.34 1.82,0.353 1.814,0.358 1.807,0.364 1.794,0.364 1.783,0.363 1.19,0.334 0.597,0.349 0,0.349"
   style="fill:#ffffff;fill-rule:nonzero"
   id="path1102" />
            </g>
            <g
   transform="matrix(0.302404,1.97701,1.97701,-0.302404,1356.71,469.502)"
   id="g1108">
                <path
   d="M 0.507,-0.12 C 0.336,0.066 0.223,0.222 0.107,0.405 0.25,0.46 0.4,0.381 0.507,0.495 0.539,0.53 0.592,0.467 0.589,0.435 0.571,0.27 0.542,0.105 0.507,-0.12"
   style="fill:#ffffff;fill-rule:nonzero"
   id="path1106" />
            </g>
            <g
   transform="matrix(2,0,0,2,1368.21,441.975)"
   id="g1112">
                <path
   d="M 0,0.297 C 0.015,0.271 0.023,0.235 0.044,0.222 0.31,0.048 0.6,-0.021 0.915,0.019 0.946,0.022 0.972,0.05 0.969,0.084 0.968,0.098 0.943,0.116 0.926,0.119 0.64,0.186 0.353,0.251 0.065,0.314 0.047,0.318 0.026,0.304 0,0.297"
   style="fill:#ffffff;fill-rule:nonzero"
   id="path1110" />
            </g>
            <g
   transform="matrix(2,0,0,2,1393.44,469.676)"
   id="g1116">
                <path
   d="m 0,0.42 c -0.199,0.024 -0.344,0.024 -0.489,0.011 -0.064,-0.005 -0.104,-0.075 -0.07,-0.132 0.056,-0.094 0.051,-0.2 0.07,-0.323 0.128,0.029 0.182,0.125 0.254,0.192 0.069,0.065 0.13,0.138 0.235,0.252"
   style="fill:#ffffff;fill-rule:nonzero"
   id="path1114" />
            </g>
            <g
   transform="matrix(1.41421,-1.41421,-1.41421,-1.41421,1391.13,462.725)"
   id="g1120">
                <path
   d="m 0.283,0.04 h 0.122 c -0.054,-0.294 -0.23,-0.53 -0.369,-0.785 -0.031,0.154 0.06,0.272 0.102,0.402 0.043,0.131 0.097,0.255 0.145,0.383"
   style="fill:#ffffff;fill-rule:nonzero"
   id="path1118" />
            </g>
            <g
   transform="matrix(2,0,0,2,1383.83,482.149)"
   id="g1124">
                <path
   d="M 0,0.447 C -0.1,0.335 -0.135,0.196 -0.184,0 -0.046,0.136 0.02,0.252 0.066,0.382 0.044,0.403 0.022,0.425 0,0.447"
   style="fill-rule:nonzero"
   id="path1122" />
            </g>
            <g
   transform="matrix(2,0,0,2,1373.26,491.021)"
   id="g1128">
                <path
   d="m 0,-0.088 c -0.046,0.083 -0.113,0.14 -0.207,0.172 0.032,-0.137 0.032,-0.137 0.122,-0.256 0.018,0.039 0.041,0.072 0.085,0.084"
   style="fill-rule:nonzero"
   id="path1126" />
            </g>
            <g
   transform="matrix(2,0,0,2,1368.56,452.509)"
   id="g1132">
                <path
   d="m 0,-0.173 c 0.058,0.015 0.066,0.07 0.088,0.113 0.006,0.013 0,0.042 -0.011,0.051 C 0.066,0 0.041,-0.001 0.025,-0.006 -0.024,-0.023 -0.065,-0.049 -0.082,-0.103 -0.04,-0.11 -0.013,-0.134 0,-0.173"
   style="fill:#7d898a;fill-rule:nonzero"
   id="path1130" />
            </g>
            <g
   transform="matrix(2,0,0,2,1380.27,481.061)"
   id="g1136">
                <path
   d="m 0,-1.339 c 0,0.076 0.008,0.109 -0.001,0.137 -0.096,0.292 -0.192,0.583 -0.292,0.873 -0.021,0.059 -0.052,0.117 -0.089,0.168 -0.093,0.134 -0.208,0.161 -0.355,0.076 -0.327,-0.188 -0.682,-0.277 -1.052,-0.332 -0.284,-0.042 -0.568,-0.059 -0.854,-0.075 -0.61,-0.032 -1.173,0.126 -1.712,0.394 -0.175,0.088 -0.234,0.082 -0.354,-0.061 -0.229,-0.274 -0.372,-0.589 -0.44,-0.94 -0.009,-0.047 0.011,-0.084 0.048,-0.108 0.036,-0.023 0.081,-0.033 0.12,-0.009 0.153,0.097 0.318,0.167 0.489,0.224 0.268,0.09 0.541,0.089 0.817,0.056 0.062,-0.007 0.124,-0.029 0.187,-0.033 0.645,-0.04 1.29,-0.084 1.934,-0.009 0.179,0.02 0.358,0.048 0.532,0.092 0.168,0.04 0.315,0.009 0.457,-0.074 0.091,-0.054 0.179,-0.112 0.267,-0.171 0.087,-0.059 0.172,-0.12 0.298,-0.208"
   style="fill-rule:nonzero"
   id="path1134" />
            </g>
            <g
   transform="matrix(2,0,0,2,1376.42,457.601)"
   id="g1140">
                <path
   d="M 0,1.326 C 0.113,0.86 0.241,0.469 0.436,0.103 0.49,0.002 0.536,0 0.599,0.082 0.625,0.116 0.651,0.15 0.673,0.186 0.928,0.601 0.905,0.517 0.584,0.79 0.4,0.947 0.226,1.118 0,1.326"
   style="fill-rule:nonzero"
   id="path1138" />
            </g>
            <g
   transform="matrix(2,0,0,2,1373.75,457.582)"
   id="g1144">
                <path
   d="M 0,1.295 C -0.079,1.281 -0.109,1.236 -0.145,1.198 -0.327,1.004 -0.527,0.831 -0.736,0.666 -0.86,0.568 -0.863,0.54 -0.784,0.398 -0.733,0.306 -0.676,0.215 -0.616,0.128 -0.53,0.002 -0.482,0 -0.417,0.127 -0.228,0.495 -0.092,0.883 0,1.295"
   style="fill-rule:nonzero"
   id="path1142" />
            </g>
            <g
   transform="matrix(2,0,0,2,1373.08,465.63)"
   id="g1148">
                <path
   d="M 0,0.048 C 0.012,0.033 0.023,0.014 0.038,0.005 0.05,-0.002 0.07,0.002 0.085,0.002 0.076,0.013 0.069,0.028 0.058,0.034 0.041,0.043 0.02,0.045 0.002,0.05 Z"
   style="fill:#ffffff;fill-rule:nonzero"
   id="path1146" />
            </g>
            <g
   transform="matrix(2,0,0,2,1383.37,454.011)"
   id="g1152">
                <path
   d="M 0,0.01 C -0.009,0.015 -0.018,0.024 -0.026,0.023 -0.033,0.022 -0.041,0.012 -0.048,0.006 -0.029,-0.014 -0.014,-0.013 0,0.01"
   style="fill:#ffffff;fill-rule:nonzero"
   id="path1150" />
            </g>
        </g>
    </g></g></svg>
