<?xml version="1.0" encoding="UTF-8" standalone="no"?>
<svg
   width="46.194286"
   height="38.354404"
   viewBox="0 0 46.194286 38.354405"
   version="1.1"
   xml:space="preserve"
   style="clip-rule:evenodd;fill-rule:evenodd;stroke-linejoin:round;stroke-miterlimit:2"
   id="svg154"
   sodipodi:docname="elf.svg"
   inkscape:version="1.1.1 (3bf5ae0d25, 2021-09-20)"
   xmlns:inkscape="http://www.inkscape.org/namespaces/inkscape"
   xmlns:sodipodi="http://sodipodi.sourceforge.net/DTD/sodipodi-0.dtd"
   xmlns="http://www.w3.org/2000/svg"
   xmlns:svg="http://www.w3.org/2000/svg"><defs
   id="defs158" /><sodipodi:namedview
   id="namedview156"
   pagecolor="#ffffff"
   bordercolor="#666666"
   borderopacity="1.0"
   inkscape:pageshadow="2"
   inkscape:pageopacity="0.0"
   inkscape:pagecheckerboard="0"
   showgrid="false"
   inkscape:zoom="5.9220193"
   inkscape:cx="28.11541"
   inkscape:cy="1.8574745"
   inkscape:window-width="1920"
   inkscape:window-height="1012"
   inkscape:window-x="-8"
   inkscape:window-y="-8"
   inkscape:window-maximized="1"
   inkscape:current-layer="svg154" />
    
<g
   style="clip-rule:evenodd;fill-rule:evenodd;stroke-linejoin:round;stroke-miterlimit:2"
   id="g1904"
   transform="matrix(0.6,0,0,0.6,-1.586028e-5,-2.0364572e-4)"><g
     transform="translate(-12.9918,-457.951)"
     id="g1820">
        <g
   id="g1818">
            <g
   transform="matrix(2,0,0,2,32.4864,465.038)"
   id="g1672">
                <path
   d="m 0,24.949 c -0.02,0.646 0.131,1.178 0.348,1.697 0.13,0.311 0.336,0.566 0.583,0.791 0.141,0.128 0.292,0.246 0.435,0.372 C 1.428,27.863 1.56,27.9 1.507,28.001 1.465,28.08 1.342,28.035 1.258,28.027 1.08,28.012 0.909,27.963 0.744,27.889 0.15,27.619 -0.404,27.288 -0.897,26.857 -1.438,26.387 -1.899,25.856 -2.292,25.253 -2.73,24.579 -2.975,23.839 -3.134,23.07 c -0.099,-0.482 -0.074,-0.986 -0.018,-1.478 0.023,-0.205 -0.019,-0.368 -0.124,-0.537 -0.273,-0.444 -0.504,-0.91 -0.718,-1.384 -0.056,-0.125 -0.127,-0.17 -0.263,-0.157 -0.163,0.016 -0.329,0.012 -0.495,0.013 -0.016,0 -0.042,-0.027 -0.046,-0.046 -0.005,-0.02 0.002,-0.055 0.017,-0.066 0.118,-0.096 0.238,-0.191 0.36,-0.281 0.11,-0.079 0.132,-0.17 0.083,-0.296 -0.184,-0.474 -0.337,-0.957 -0.468,-1.447 -0.392,-1.469 -0.545,-2.964 -0.483,-4.482 0.013,-0.316 0.047,-0.632 0.069,-0.948 0.005,-0.068 -0.019,-0.12 -0.098,-0.135 -0.074,-0.016 -0.15,-0.032 -0.22,-0.061 -0.308,-0.127 -0.503,-0.356 -0.523,-0.688 -0.011,-0.17 -0.085,-0.281 -0.193,-0.393 C -7.025,9.89 -7.726,9.035 -8.406,8.163 -8.814,7.64 -9.156,7.077 -9.47,6.495 -9.578,6.293 -9.662,6.081 -9.718,5.859 -9.753,5.722 -9.757,5.583 -9.728,5.444 -9.71,5.362 -9.617,5.325 -9.551,5.375 c 0.03,0.023 0.058,0.048 0.085,0.075 1.286,1.23 2.735,2.235 4.303,3.075 0.179,0.096 0.361,0.188 0.541,0.282 0.059,0.032 0.107,-0.001 0.125,-0.045 C -4.429,8.598 -4.375,8.429 -4.308,8.264 -4.219,8.041 -4.122,7.82 -4.032,7.596 -3.985,7.48 -4.011,7.435 -4.145,7.423 -4.388,7.4 -4.618,7.329 -4.855,7.275 -4.995,7.243 -5.119,7.19 -5.23,7.1 -5.368,6.989 -5.51,6.88 -5.65,6.77 -6.116,6.403 -6.505,5.977 -6.742,5.424 -6.836,5.203 -6.989,5.009 -7.066,4.779 -7.088,4.713 -7.027,4.65 -6.96,4.672 c 0.217,0.072 0.431,0.155 0.65,0.223 0.243,0.075 0.489,0.14 0.735,0.205 0.048,0.013 0.1,0.007 0.152,0.011 C -5.418,4.981 -5.522,4.934 -5.588,4.865 -6.473,3.944 -7.236,2.934 -7.86,1.82 -8.109,1.374 -8.28,0.898 -8.44,0.416 -8.45,0.385 -8.434,0.344 -8.428,0.285 c 0.245,0.164 0.477,0.317 0.706,0.474 0.685,0.469 1.407,0.868 2.178,1.177 0.509,0.205 1.004,0.435 1.473,0.721 0.177,0.108 0.333,0.23 0.471,0.382 0.358,0.397 0.683,0.82 0.997,1.251 0.088,0.121 0.164,0.254 0.311,0.363 C -1.96,4.207 -1.568,3.826 -1.281,3.361 -0.585,2.231 0.283,1.235 1.165,0.249 1.411,-0.026 1.66,-0.296 1.948,-0.53 2.088,-0.643 2.195,-0.785 2.3,-0.929 c 0.651,-0.9 1.425,-1.688 2.243,-2.436 0.131,-0.119 0.264,-0.189 0.44,-0.177 0.127,0.009 0.257,0.003 0.381,0.026 0.225,0.043 0.448,0.094 0.667,0.159 0.678,0.2 1.234,0.59 1.709,1.103 0.043,0.046 0.088,0.094 0.121,0.147 0.116,0.194 0.278,0.261 0.507,0.253 0.408,-0.013 0.815,-0.017 1.223,0.017 0.137,0.011 0.28,-0.02 0.416,-0.048 0.411,-0.083 0.823,-0.171 1.242,-0.202 0.094,-0.008 0.171,-0.038 0.246,-0.09 0.271,-0.191 0.57,-0.336 0.861,-0.493 0.212,-0.115 0.418,-0.243 0.628,-0.362 0.133,-0.074 0.27,-0.141 0.403,-0.216 0.099,-0.054 0.187,-0.038 0.289,0.003 0.679,0.275 1.285,0.673 1.859,1.118 0.373,0.288 0.681,0.648 0.982,1.009 0.131,0.158 0.271,0.291 0.456,0.394 0.288,0.161 0.544,0.375 0.785,0.602 0.641,0.602 1.257,1.226 1.794,1.922 0.341,0.443 0.65,0.91 0.861,1.432 0.072,0.179 0.176,0.332 0.306,0.477 1.308,1.453 2.288,3.101 2.947,4.938 0.03,0.083 0.06,0.167 0.092,0.249 0.009,0.023 0.028,0.042 0.042,0.063 0.094,0 0.167,-0.055 0.245,-0.096 1.61,-0.844 3.09,-1.87 4.41,-3.119 0.046,-0.043 0.093,-0.086 0.147,-0.12 0.036,-0.024 0.072,0.004 0.097,0.032 0.044,0.052 0.045,0.117 0.048,0.18 0.012,0.302 -0.091,0.575 -0.224,0.836 -0.25,0.486 -0.519,0.96 -0.844,1.401 -0.701,0.953 -1.452,1.864 -2.265,2.724 -0.079,0.083 -0.156,0.168 -0.236,0.25 -0.065,0.066 -0.105,0.138 -0.106,0.235 -0.002,0.355 -0.184,0.598 -0.496,0.746 -0.099,0.047 -0.132,0.108 -0.124,0.206 0.013,0.152 0.021,0.304 0.034,0.456 0.047,0.57 0.043,1.14 0.01,1.71 -0.073,1.245 -0.292,2.465 -0.667,3.656 -0.026,0.084 -0.051,0.162 -0.031,0.258 0.121,0.573 0.138,1.157 0.147,1.739 0.017,0.94 -0.043,1.875 -0.189,2.804 -0.036,0.228 -0.095,0.445 -0.22,0.643 -0.088,0.138 -0.159,0.286 -0.239,0.431 -0.12,-0.038 -0.065,-0.13 -0.067,-0.191 -0.026,-0.928 -0.125,-1.845 -0.387,-2.74 -0.029,-0.096 -0.041,-0.198 -0.108,-0.282 -0.086,0.028 -0.104,0.098 -0.11,0.171 -0.006,0.076 -0.005,0.152 -0.003,0.228 0.028,0.956 -0.113,1.895 -0.254,2.837 -0.058,0.391 -0.218,0.716 -0.42,1.042 -0.72,1.157 -1.649,2.124 -2.708,2.974 -0.04,0.032 -0.083,0.06 -0.124,0.087 -0.011,0.007 -0.025,0.006 -0.063,0.013 0.026,-0.23 0.096,-0.437 0.173,-0.644 0.146,-0.392 0.285,-0.787 0.366,-1.199 0.099,-0.511 0.173,-1.025 0.196,-1.545 0.003,-0.058 -0.006,-0.116 -0.012,-0.226 -2.819,2.51 -6.06,3.869 -9.805,3.958 C 6.24,28.503 2.941,27.32 0,24.949"
   style="fill-rule:nonzero"
   id="path1670" />
            </g>
            <g
   transform="matrix(2,0,0,2,46.8816,506.305)"
   id="g1676">
                <path
   d="m 0,-7.778 c 0.061,-0.009 0.123,-0.035 0.18,0.017 0.08,0.075 0.164,0.145 0.253,0.222 0.06,-0.118 -0.008,-0.19 -0.048,-0.263 -0.126,-0.223 -0.287,-0.422 -0.482,-0.585 -0.244,-0.204 -0.498,-0.396 -0.757,-0.579 -0.191,-0.135 -0.422,-0.18 -0.647,-0.218 -0.376,-0.065 -0.746,-0.163 -1.13,-0.183 -0.197,-0.01 -0.368,-0.097 -0.528,-0.203 -0.095,-0.063 -0.185,-0.13 -0.291,-0.206 -0.006,0.052 -0.021,0.089 -0.011,0.118 0.14,0.409 0.059,0.324 -0.275,0.446 -0.024,0.008 -0.049,0.014 -0.074,0.019 -0.436,0.077 -0.537,-0.004 -0.501,-0.432 0.027,-0.328 0.073,-0.655 0.071,-0.985 0,-0.058 0.035,-0.092 0.097,-0.09 0.343,0.012 0.688,0.009 1.027,0.082 0.697,0.15 1.386,0.329 2.067,0.539 0.402,0.124 0.792,0.278 1.169,0.464 0.087,0.043 0.167,0.11 0.27,0.107 0.049,-0.061 0.002,-0.099 -0.023,-0.135 -0.125,-0.178 -0.279,-0.329 -0.45,-0.463 -0.11,-0.086 -0.229,-0.165 -0.326,-0.263 -0.208,-0.208 -0.467,-0.291 -0.747,-0.346 -0.818,-0.164 -1.642,-0.194 -2.472,-0.143 -0.102,0.006 -0.203,0.015 -0.305,0.02 -0.317,0.015 -0.322,0.003 -0.316,-0.301 0.003,-0.149 0.076,-0.264 0.142,-0.386 0.109,-0.206 0.282,-0.367 0.452,-0.51 0.131,-0.11 0.345,-0.04 0.521,-0.038 0.625,0.007 1.251,0.024 1.866,0.138 0.537,0.098 1.07,0.227 1.6,0.359 0.355,0.088 0.638,0.314 0.892,0.562 0.218,0.212 0.41,0.451 0.613,0.679 0.025,0.028 0.042,0.064 0.069,0.09 0.298,0.295 0.246,0.271 0.548,0.031 0.229,-0.181 0.433,-0.393 0.65,-0.588 0.133,-0.119 0.27,-0.232 0.404,-0.349 0.334,-0.295 0.729,-0.453 1.162,-0.537 1.167,-0.229 2.341,-0.358 3.532,-0.305 0.064,0.003 0.128,0.003 0.191,0.007 0.317,0.022 0.517,0.191 0.59,0.496 0.006,0.024 0.008,0.05 0.012,0.075 0.039,0.211 0.077,0.423 0.114,0.626 -0.056,0.095 -0.139,0.067 -0.209,0.062 -0.419,-0.027 -0.838,-0.065 -1.258,-0.089 -0.704,-0.04 -1.399,0.038 -2.089,0.172 -0.103,0.02 -0.199,0.045 -0.282,0.109 -0.242,0.185 -0.487,0.367 -0.722,0.561 -0.145,0.12 -0.281,0.253 -0.356,0.431 0.04,0.035 0.078,0.025 0.112,0.009 0.99,-0.491 2.061,-0.714 3.13,-0.954 0.515,-0.116 1.038,-0.095 1.556,-0.144 0.084,-0.008 0.144,0.022 0.162,0.119 0.062,0.337 0.097,0.677 0.098,1.02 0,0.138 -0.028,0.185 -0.161,0.219 C 8.69,-9.171 8.291,-9.126 7.912,-9.325 7.849,-9.476 7.986,-9.597 7.947,-9.734 7.849,-9.772 7.813,-9.682 7.76,-9.642 7.53,-9.47 7.277,-9.38 6.988,-9.348 6.609,-9.307 6.233,-9.231 5.859,-9.155 5.583,-9.1 5.335,-8.979 5.109,-8.801 c -0.31,0.245 -0.634,0.471 -0.866,0.798 -0.093,0.132 -0.201,0.259 -0.218,0.44 0.199,-0.108 0.199,-0.108 0.332,-0.295 0.003,0.008 -0.001,-0.001 -0.001,0 0.014,0.035 0.031,0.069 0.041,0.105 0.009,0.036 0.011,0.074 0.02,0.136 0.148,-0.008 0.292,-0.077 0.44,-0.028 0.133,0.044 0.269,0.076 0.403,0.117 0.579,0.176 1.167,0.244 1.774,0.172 C 7.549,-7.415 7.988,-7.611 8.346,-7.984 8.601,-8.25 8.851,-8.52 9.105,-8.787 9.147,-8.832 9.173,-8.898 9.267,-8.896 9.299,-8.775 9.251,-8.659 9.237,-8.54 9.224,-8.427 9.213,-8.313 9.193,-8.201 9.031,-7.297 8.738,-6.436 8.324,-5.616 8.083,-5.14 7.816,-4.68 7.533,-4.228 7.424,-4.053 7.295,-3.9 7.121,-3.788 7.095,-3.771 7.082,-3.75 7.099,-3.726 c 0.013,0.018 0.036,0.041 0.054,0.04 0.269,-0.021 0.519,-0.078 0.74,-0.26 0.372,-0.309 0.738,-0.624 1.089,-0.956 0.139,-0.132 0.189,-0.121 0.285,0.046 0.116,0.203 0.153,0.417 0.156,0.654 C 9.43,-3.597 9.275,-3.025 9.124,-2.449 9.056,-2.19 8.956,-1.947 8.825,-1.712 8.42,-0.991 7.953,-0.312 7.441,0.337 7.126,0.736 6.799,1.125 6.483,1.523 6.08,2.034 5.59,2.463 5.143,2.931 5.004,3.077 4.831,3.191 4.671,3.315 4.27,3.626 3.891,3.968 3.409,4.16 3.29,4.208 3.173,4.256 3.045,4.267 2.702,4.295 2.359,4.319 2.016,4.343 1.691,4.367 1.393,4.293 1.109,4.127 0.735,3.907 0.383,3.656 0.036,3.4 -1.017,2.624 -1.891,1.674 -2.693,0.65 -3.116,0.109 -3.536,-0.431 -3.907,-1.009 -4.039,-1.214 -4.123,-1.434 -4.189,-1.668 -4.336,-2.183 -4.397,-2.711 -4.461,-3.239 -4.48,-3.39 -4.493,-3.543 -4.529,-3.69 -4.627,-4.092 -4.567,-4.494 -4.53,-4.896 c 0.102,-1.111 0.254,-2.217 0.232,-3.336 0,-0.013 -0.003,-0.027 0.003,-0.037 0.01,-0.021 0.022,-0.047 0.039,-0.054 0.019,-0.008 0.054,-0.004 0.068,0.009 0.103,0.096 0.205,0.191 0.3,0.293 0.382,0.411 0.853,0.618 1.412,0.672 0.541,0.052 1.067,0.007 1.586,-0.148 0.134,-0.041 0.271,-0.07 0.404,-0.113 C -0.324,-7.661 -0.164,-7.684 0,-7.622 0.036,-7.608 0.081,-7.615 0.091,-7.658 0.107,-7.727 0.088,-7.782 -0.001,-7.78 0.027,-7.786 -0.005,-7.777 0,-7.778"
   style="fill:#ffffff;fill-rule:nonzero"
   id="path1674" />
            </g>
            <g
   transform="matrix(2,0,0,2,67.5328,493.981)"
   id="g1680">
                <path
   d="m 0,-4.523 c 0.059,-0.054 0.041,-0.113 0.008,-0.17 -0.142,-0.239 -0.277,-0.484 -0.43,-0.717 -0.314,-0.477 -0.622,-0.956 -0.869,-1.472 -0.081,-0.172 -0.176,-0.34 -0.236,-0.519 -0.247,-0.732 -0.593,-1.426 -0.821,-2.166 -0.137,-0.447 -0.298,-0.888 -0.432,-1.335 -0.147,-0.493 -0.419,-0.922 -0.681,-1.354 -0.222,-0.364 -0.585,-0.6 -0.951,-0.801 -0.309,-0.169 -0.646,-0.103 -0.961,0.022 -0.101,0.04 -0.212,0.087 -0.276,0.206 0.066,0.074 0.131,-0.002 0.194,-0.002 0.089,0 0.179,-0.017 0.267,-0.007 0.073,0.008 0.144,0.043 0.214,0.068 0.073,0.026 0.142,0.056 0.195,0.141 -0.509,0.107 -1.045,0.156 -1.318,0.673 -0.046,-0.022 -0.062,-0.024 -0.068,-0.032 -0.512,-0.697 -0.955,-1.433 -1.333,-2.209 -0.091,-0.187 -0.048,-0.349 0.066,-0.495 0.125,-0.16 0.263,-0.31 0.405,-0.455 0.213,-0.218 0.432,-0.43 0.652,-0.642 0.493,-0.472 1.088,-0.788 1.702,-1.071 0.161,-0.074 0.333,-0.124 0.495,-0.198 0.189,-0.088 0.369,-0.077 0.551,0.013 0.079,0.039 0.164,0.071 0.239,0.118 0.538,0.34 1.066,0.691 1.494,1.172 0.287,0.322 0.597,0.624 0.881,0.949 0.658,0.75 1.163,1.598 1.589,2.495 0.188,0.138 0.173,0.372 0.276,0.577 0.011,0.024 0.07,-0.047 0.028,-0.018 -0.01,0.007 -0.019,0 -0.029,-0.02 -0.107,-0.225 -0.167,-0.461 -0.181,-0.709 -0.047,-0.158 -0.087,-0.318 -0.141,-0.473 -0.06,-0.167 -0.129,-0.331 -0.201,-0.492 -0.067,-0.151 -0.143,-0.298 -0.212,-0.447 -0.066,-0.144 -0.175,-0.27 -0.234,-0.488 0.106,0.09 0.162,0.135 0.214,0.184 0.579,0.553 1.139,1.126 1.637,1.755 0.356,0.449 0.669,0.925 0.916,1.443 0.027,0.056 0.058,0.115 0.069,0.175 0.053,0.335 0.114,0.67 0.149,1.007 0.087,0.845 0.131,1.692 0.177,2.54 0.05,0.911 0.13,1.821 0.216,2.729 0.07,0.745 0.245,1.474 0.41,2.203 0.236,1.053 0.556,2.08 0.965,3.078 C 4.751,1.014 4.876,1.292 5.007,1.566 5.324,2.23 5.6,2.911 5.86,3.599 6.05,4.102 6.152,4.612 6.151,5.155 6.148,6.133 6.107,7.106 5.982,8.077 5.884,8.048 5.887,7.963 5.88,7.893 5.821,7.271 5.644,6.677 5.476,6.078 5.365,5.685 5.209,5.315 5.012,4.96 4.912,4.78 4.847,4.59 4.8,4.393 4.681,3.901 4.561,3.409 4.452,2.914 4.279,2.134 4.038,1.373 3.834,0.602 3.552,-0.463 3.226,-1.516 2.993,-2.594 2.801,-3.486 2.594,-4.374 2.478,-5.28 2.457,-5.441 2.414,-5.599 2.366,-5.83 c -0.042,0.292 -0.035,0.511 -0.013,0.729 0.086,0.857 0.13,1.718 0.279,2.568 0.089,0.513 0.197,1.02 0.328,1.523 0.234,0.894 0.489,1.783 0.733,2.675 C 3.877,2.337 4.072,3.006 4.346,3.648 4.65,4.362 4.746,5.11 4.768,5.874 4.788,6.609 4.805,7.345 4.72,8.077 4.661,8.581 4.594,9.083 4.529,9.586 4.516,9.687 4.478,9.779 4.426,9.869 3.837,10.885 3.135,11.813 2.264,12.608 2.256,12.617 2.24,12.617 2.224,12.623 2.16,12.572 2.207,12.516 2.222,12.466 2.533,11.382 2.629,10.276 2.563,9.155 2.554,9.017 2.546,8.867 2.488,8.746 2.301,8.349 2.234,7.924 2.165,7.5 2.104,7.125 2.035,6.752 1.964,6.379 1.858,5.818 1.833,5.246 1.809,4.677 1.774,3.841 1.768,3.004 1.735,2.168 1.708,1.447 1.661,0.727 1.623,0.006 1.521,-0.003 1.538,0.076 1.533,0.127 1.489,0.671 1.456,1.215 1.405,1.757 1.361,2.224 1.292,2.687 1.241,3.153 1.126,4.211 1.005,5.269 0.905,6.329 0.85,6.909 0.861,7.493 0.879,8.077 c 0.004,0.137 0,0.273 0,0.408 C 0.8,8.499 0.794,8.435 0.778,8.395 0.311,7.274 0.027,6.111 -0.042,4.897 -0.086,4.1 -0.155,3.305 -0.233,2.51 -0.28,2.033 -0.352,1.554 -0.281,1.07 -0.261,0.931 -0.232,0.797 -0.175,0.669 -0.108,0.518 -0.054,0.362 0.023,0.216 0.274,-0.265 0.36,-0.787 0.426,-1.316 c -0.093,-0.043 -0.111,0.04 -0.139,0.08 -0.153,0.218 -0.294,0.445 -0.449,0.662 -0.503,0.707 -1.093,1.336 -1.743,1.91 -0.028,0.024 -0.063,0.038 -0.094,0.056 -0.035,-0.034 -0.033,-0.07 -0.013,-0.104 0.569,-0.943 0.937,-1.965 1.171,-3.035 0.064,-0.296 0.088,-0.602 0.109,-0.904 0.053,-0.785 0.083,-1.57 -0.037,-2.353 -0.007,-0.049 -0.001,-0.101 -0.001,-0.173 0.325,0.161 0.509,0.463 0.78,0.662 l 0.014,-0.027 z"
   style="fill:#ffffff;fill-rule:nonzero"
   id="path1678" />
            </g>
            <g
   transform="matrix(2,0,0,2,34.13,519.033)"
   id="g1684">
                <path
   d="m 0,-25.595 c -0.035,0.067 -0.068,0.137 -0.107,0.202 -0.357,0.594 -0.413,1.241 -0.322,1.909 0.073,0.541 0.23,1.063 0.397,1.583 0.22,0.687 0.467,1.366 0.608,2.077 0.035,0.177 0.051,0.349 0.023,0.527 -0.123,0.781 -0.328,1.535 -0.7,2.24 -0.145,0.273 -0.32,0.517 -0.568,0.706 -0.06,0.046 -0.131,0.083 -0.152,0.164 -0.008,0.034 -0.008,0.076 0.039,0.091 0.024,0.006 0.051,0.015 0.074,0.013 0.345,-0.032 0.679,-0.084 0.973,-0.294 0.312,-0.221 0.618,-0.447 0.903,-0.688 0.099,0.033 0.109,0.113 0.135,0.182 0.113,0.298 0.174,0.609 0.212,0.924 0.01,0.085 0.028,0.183 -0.117,0.162 -0.008,-10e-4 -0.03,0.041 -0.028,0.061 0.002,0.037 0.007,0.082 0.029,0.107 0.186,0.205 0.192,0.453 0.198,0.71 0.022,1.09 0.019,2.18 -0.011,3.27 -0.007,0.277 -0.055,0.554 -0.089,0.831 -0.091,0.742 -0.19,1.483 -0.277,2.225 -0.072,0.617 -0.136,1.235 -0.198,1.852 -0.042,0.404 -0.085,0.808 -0.108,1.213 -0.032,0.57 -0.025,1.14 0.06,1.737 C 0.813,-3.891 0.793,-4.044 0.745,-4.172 0.554,-4.683 0.417,-5.211 0.296,-5.742 0.176,-6.277 0.141,-6.82 0.138,-7.366 0.136,-7.658 0.143,-7.949 0.145,-8.241 c 0.002,-0.201 0.001,-0.403 -0.02,-0.607 -0.136,0.926 -0.43,1.821 -0.536,2.752 -0.02,0.187 -0.075,0.373 -0.138,0.552 -0.326,0.927 -0.496,1.88 -0.561,2.861 -0.047,0.706 0.04,1.391 0.176,2.075 0.046,0.232 0.133,0.454 0.199,0.678 C -0.806,0.104 -0.845,0.063 -0.883,0.037 -1.44,-0.329 -1.92,-0.78 -2.347,-1.289 -2.52,-1.496 -2.624,-1.744 -2.736,-1.984 -3.011,-2.573 -3.237,-3.178 -3.36,-3.815 c -0.096,-0.501 -0.076,-1.007 -0.064,-1.516 0.014,-0.596 0.22,-1.142 0.385,-1.697 0.264,-0.886 0.533,-1.771 0.855,-2.64 0.168,-0.453 0.236,-0.932 0.317,-1.406 0.111,-0.65 0.21,-1.301 0.31,-1.952 0.017,-0.112 0.013,-0.226 0.021,-0.38 -0.122,0.096 -0.127,0.205 -0.151,0.301 -0.105,0.404 -0.199,0.812 -0.307,1.215 -0.101,0.38 -0.21,0.757 -0.323,1.134 -0.134,0.449 -0.297,0.888 -0.508,1.309 -0.125,0.249 -0.229,0.508 -0.34,0.764 -0.036,0.085 -0.082,0.158 -0.17,0.195 -0.364,0.151 -0.727,0.303 -1.09,0.453 -0.008,0.003 -0.022,-0.011 -0.052,-0.026 0.132,-0.14 0.256,-0.28 0.388,-0.411 0.446,-0.445 0.787,-0.963 1.076,-1.516 0.123,-0.236 0.211,-0.487 0.26,-0.752 0.102,-0.548 0.222,-1.093 0.317,-1.642 0.083,-0.487 0.13,-0.979 0.134,-1.475 0.004,-0.57 0.077,-1.138 0.065,-1.71 -0.009,-0.405 -0.027,-0.809 -0.051,-1.214 -0.074,-1.24 -0.141,-2.481 -0.063,-3.724 0.027,-0.418 0.028,-0.837 0.045,-1.255 0.005,-0.139 0.014,-0.278 0.029,-0.417 0.047,-0.449 0.222,-0.838 0.476,-1.219 0.528,-0.795 1.081,-1.568 1.708,-2.287 0.075,-0.016 0.109,0.01 0.093,0.088"
   style="fill:#ffffff;fill-rule:nonzero"
   id="path1682" />
            </g>
            <g
   transform="matrix(2,0,0,2,34.3104,459.068)"
   id="g1688">
                <path
   d="m 0,13.257 c -0.042,-0.089 0.033,-0.144 0.067,-0.203 0.407,-0.732 0.6,-1.53 0.728,-2.346 C 0.852,10.339 0.788,9.974 0.696,9.618 0.613,9.299 0.522,8.982 0.416,8.67 0.188,7.997 0.028,7.306 -0.144,6.618 -0.261,6.147 -0.202,5.684 0.003,5.246 0.159,4.914 0.33,4.587 0.512,4.268 0.749,3.849 1.009,3.442 1.25,3.025 1.737,2.184 2.35,1.442 3.033,0.755 3.201,0.585 3.377,0.417 3.59,0.296 4.028,0.048 4.181,0 4.678,0.046 5.049,0.08 5.401,0.191 5.702,0.426 6.223,0.834 6.724,1.261 7.12,1.799 7.3,2.044 7.508,2.269 7.7,2.505 7.805,2.634 7.888,2.774 7.946,2.932 8.002,3.085 7.996,3.229 7.917,3.37 7.311,4.454 6.735,5.557 5.95,6.532 5.703,6.839 5.458,7.146 5.219,7.459 4.925,7.843 4.533,8.095 4.096,8.283 3.944,8.347 3.786,8.398 3.63,8.452 3.566,8.473 3.534,8.422 3.513,8.38 3.473,8.297 3.482,8.206 3.496,8.119 3.536,7.881 3.587,7.645 3.577,7.402 3.575,7.365 3.586,7.327 3.594,7.29 3.652,7.041 3.695,6.99 3.95,6.979 4.306,6.964 4.663,6.971 5.02,6.968 c 0.063,0 0.127,0.001 0.19,-0.001 0.009,0 0.018,-0.013 0.025,-0.021 C 5.256,6.922 5.256,6.899 5.234,6.88 5.058,6.732 4.853,6.628 4.652,6.52 4.496,6.435 4.335,6.358 4.18,6.272 4.134,6.247 4.104,6.199 4.141,6.145 4.451,5.68 4.834,5.301 5.393,5.151 5.527,5.116 5.671,5.122 5.81,5.11 6.025,5.092 6.241,5.076 6.456,5.058 6.49,5.055 6.506,5.039 6.496,5.014 6.487,4.992 6.478,4.959 6.46,4.952 6.389,4.926 6.317,4.904 6.243,4.887 5.551,4.73 4.906,4.817 4.317,5.235 3.985,5.471 3.665,5.72 3.385,6.018 3.228,6.185 3.086,6.363 2.962,6.555 2.837,6.749 2.756,6.954 2.705,7.183 2.568,7.792 2.481,8.403 2.489,9.027 2.49,9.115 2.476,9.205 2.481,9.293 2.531,10.187 2.165,10.942 1.696,11.666 1.273,12.319 0.688,12.802 0.062,13.244 0.046,13.255 0.021,13.253 0,13.257"
   style="fill:#ffffff;fill-rule:nonzero"
   id="path1686" />
            </g>
            <g
   transform="matrix(2,0,0,2,51.3272,472.45)"
   id="g1692">
                <path
   d="M 0,6.28 C -0.928,4.537 -2.13,3.007 -3.537,1.624 -3.094,1.077 -2.658,0.538 -2.222,0 c 0.11,0.006 0.145,0.099 0.198,0.164 0.47,0.584 0.985,1.127 1.53,1.642 0.157,0.149 0.323,0.286 0.478,0.423 C 0.137,2.208 0.216,2.101 0.308,2.018 0.863,1.514 1.392,0.985 1.869,0.406 1.942,0.318 2.012,0.227 2.094,0.147 2.215,0.03 2.302,0.037 2.412,0.172 2.588,0.388 2.758,0.61 2.934,0.826 3.142,1.081 3.354,1.334 3.578,1.604 3.528,1.731 3.409,1.809 3.313,1.902 2.284,2.912 1.416,4.049 0.636,5.256 0.472,5.511 0.334,5.783 0.181,6.046 0.138,6.12 0.123,6.215 0,6.28"
   style="fill:#ffffff;fill-rule:nonzero"
   id="path1690" />
            </g>
            <g
   transform="matrix(2,0,0,2,17.7364,490.162)"
   id="g1696">
                <path
   d="m 0,-4.472 c 0.5,0.472 1.033,0.902 1.594,1.301 0.331,0.236 0.639,0.505 0.969,0.742 0.393,0.283 0.771,0.582 1.128,0.909 0.122,0.113 0.218,0.238 0.299,0.385 0.307,0.558 0.662,1.083 1.123,1.53 C 5.204,0.485 5.294,0.59 5.417,0.617 5.59,0.656 5.602,0.759 5.582,0.896 5.522,1.309 5.463,1.723 5.402,2.136 5.395,2.187 5.363,2.245 5.31,2.234 5.269,2.225 5.224,2.176 5.205,2.134 5.186,2.093 5.186,2.035 5.195,1.989 5.216,1.877 5.236,1.763 5.278,1.658 5.354,1.467 5.3,1.316 5.167,1.176 4.94,0.94 4.764,0.822 4.478,1.161 4.431,1.218 4.371,1.262 4.325,1.305 4.225,1.276 4.183,1.211 4.134,1.153 3.621,0.539 3.111,-0.077 2.596,-0.69 2.52,-0.78 2.5,-0.849 2.571,-0.957 2.625,-1.037 2.654,-1.143 2.669,-1.241 2.736,-1.676 2.506,-2.083 2.099,-2.253 1.948,-2.316 1.796,-2.282 1.658,-2.211 1.569,-2.166 1.493,-2.101 1.388,-2.029 1.144,-2.288 0.892,-2.538 0.66,-2.804 0.128,-3.419 -0.4,-4.038 -0.921,-4.662 c -0.334,-0.4 -0.635,-0.825 -0.892,-1.279 -0.137,-0.242 -0.264,-0.489 -0.303,-0.773 0.08,-0.003 0.117,0.048 0.159,0.088 1.205,1.146 2.556,2.09 4.021,2.878 1.03,0.554 2.074,1.083 3.134,1.579 0.093,0.043 0.182,0.092 0.274,0.133 0.064,0.029 0.106,0.072 0.111,0.141 0.026,0.337 0.105,0.672 0.066,1.049 C 5.222,-1.05 4.873,-1.326 4.497,-1.554 4.116,-1.784 3.731,-2.009 3.356,-2.248 2.981,-2.487 2.615,-2.741 2.246,-2.989 1.876,-3.237 1.501,-3.478 1.14,-3.738 0.779,-3.998 0.433,-4.278 0.08,-4.548 -0.001,-4.578 -0.029,-4.554 0,-4.472"
   style="fill:#ffffff;fill-rule:nonzero"
   id="path1694" />
            </g>
            <g
   transform="matrix(2,0,0,2,80.2252,481.436)"
   id="g1700">
                <path
   d="M 0,3.814 C -0.392,4.368 -1.504,5.668 -1.776,5.889 -1.797,5.858 -1.828,5.83 -1.838,5.796 -1.952,5.406 -2.06,5.016 -2.174,4.627 -2.209,4.509 -2.201,4.407 -2.125,4.305 -2.056,4.214 -1.988,4.118 -1.943,4.015 -1.755,3.576 -1.403,3.291 -1.037,3.011 -0.432,2.547 0.185,2.096 0.753,1.586 0.847,1.501 0.956,1.433 1.061,1.361 1.523,1.042 1.946,0.677 2.365,0.305 2.445,0.234 2.546,0.172 2.573,0.003 1.982,0.386 1.494,0.845 0.936,1.207 0.381,1.566 -0.156,1.953 -0.714,2.309 -1.281,2.672 -1.863,3.011 -2.454,3.37 -2.565,3.096 -2.596,2.82 -2.641,2.55 -2.651,2.482 -2.612,2.435 -2.546,2.404 -2.282,2.279 -2.018,2.151 -1.756,2.022 -0.773,1.541 0.201,1.044 1.147,0.495 2.341,-0.198 3.44,-1.018 4.443,-1.964 4.48,-1.999 4.519,-2.031 4.558,-2.063 4.567,-2.07 4.582,-2.071 4.595,-2.075 4.652,-2.021 4.612,-1.964 4.596,-1.91 4.487,-1.569 4.308,-1.263 4.117,-0.962 3.699,-0.307 3.194,0.282 2.69,0.87 2.26,1.372 1.812,1.858 1.371,2.35 1.311,2.416 1.25,2.481 1.184,2.54 1.132,2.586 1.074,2.595 1.017,2.537 0.935,2.454 0.832,2.41 0.719,2.375 0.472,2.3 0.262,2.363 0.094,2.546 -0.156,2.82 -0.222,3.147 -0.129,3.501 -0.101,3.609 -0.044,3.709 0,3.814"
   style="fill:#ffffff;fill-rule:nonzero"
   id="path1698" />
            </g>
            <g
   transform="matrix(2,0,0,2,51.3664,476.324)"
   id="g1704">
                <path
   d="m 0,-5.839 c 0.208,0.426 0.387,0.801 0.573,1.174 0.395,0.796 0.859,1.552 1.365,2.283 0.126,0.182 0.17,0.184 -0.007,0.386 C 1.354,-1.335 0.742,-0.708 0.123,-0.087 0.088,-0.053 0.045,-0.027 0.011,0 -0.024,-0.019 -0.05,-0.027 -0.066,-0.043 c -0.652,-0.642 -1.287,-1.301 -1.888,-1.991 -0.119,-0.135 -0.121,-0.141 -0.012,-0.29 0.604,-0.835 1.1,-1.733 1.561,-2.652 0.135,-0.27 0.258,-0.547 0.405,-0.863"
   style="fill:#ffffff;fill-rule:nonzero"
   id="path1702" />
            </g>
            <g
   transform="matrix(2,0,0,2,16.8232,477.273)"
   id="g1708">
                <path
   d="m 0,-5.101 c 0.791,0.589 1.654,1.048 2.592,1.351 0.469,0.152 0.867,0.422 1.285,0.661 0.073,0.042 0.129,0.121 0.181,0.191 0.5,0.673 1.006,1.34 1.437,2.06 0.13,0.218 0.257,0.439 0.288,0.698 0.006,0.051 -0.014,0.098 -0.062,0.128 C 5.683,0.011 5.646,-0.002 5.615,-0.023 5.385,-0.185 5.126,-0.293 4.873,-0.411 4.514,-0.577 4.142,-0.708 3.746,-0.753 3.393,-0.792 3.087,-0.931 2.816,-1.158 2.581,-1.354 2.358,-1.559 2.161,-1.794 1.966,-2.028 1.747,-2.243 1.555,-2.479 1,-3.159 0.518,-3.889 0.071,-4.643 0.013,-4.74 -0.032,-4.847 -0.082,-4.949 -0.124,-5.036 -0.143,-5.112 0,-5.101"
   style="fill:#ffffff;fill-rule:nonzero"
   id="path1706" />
            </g>
            <g
   transform="matrix(2,0,0,2,63.4726,476.701)"
   id="g1712">
                <path
   d="M 0,2.277 C -0.755,2.221 -1.504,2.22 -2.252,2.283 -2.997,2.346 -3.747,2.38 -4.52,2.562 -4.429,2.3 -4.312,2.098 -4.175,1.908 c 0.322,-0.441 0.67,-0.861 1.04,-1.262 0.258,-0.28 0.529,-0.547 0.792,-0.823 0.08,-0.084 0.165,-0.108 0.273,-0.063 0.505,0.209 1.025,0.377 1.551,0.524 0.14,0.039 0.206,0.11 0.226,0.26 0.074,0.538 0.138,1.079 0.301,1.601 C 0.018,2.176 0.005,2.215 0,2.277"
   style="fill:#ffffff;fill-rule:nonzero"
   id="path1710" />
            </g>
            <g
   transform="matrix(2,0,0,2,48.6332,476.194)"
   id="g1716">
                <path
   d="M 0,2.809 C -0.236,2.839 -0.426,2.752 -0.622,2.724 -1.037,2.663 -1.454,2.615 -1.873,2.582 -2.572,2.527 -3.27,2.478 -3.972,2.493 -4.099,2.495 -4.123,2.468 -4.14,2.342 -4.144,2.304 -4.153,2.266 -4.151,2.228 -4.131,1.722 -4.109,1.216 -4.088,0.71 -4.082,0.566 -4.023,0.491 -3.869,0.45 -3.451,0.339 -3.043,0.193 -2.645,0.027 -2.509,-0.03 -2.412,-0.007 -2.306,0.1 -1.641,0.766 -1.018,1.469 -0.445,2.215 -0.299,2.404 -0.138,2.582 0,2.809"
   style="fill:#ffffff;fill-rule:nonzero"
   id="path1714" />
            </g>
            <g
   transform="matrix(2,0,0,2,27.2396,475.567)"
   id="g1720">
                <path
   d="M 0,1.999 C -0.694,1.963 -1.384,1.869 -2.071,1.742 -2.173,1.724 -2.261,1.683 -2.346,1.622 -2.717,1.354 -3.065,1.06 -3.397,0.747 -3.527,0.623 -3.631,0.48 -3.717,0.324 -3.758,0.248 -3.858,0.16 -3.814,0.092 c 0.062,-0.093 0.18,-0.004 0.271,0.005 0.43,0.044 0.859,0.091 1.285,0.151 0.467,0.066 0.922,0.174 1.33,0.426 0.389,0.239 0.782,0.47 1.167,0.715 0.138,0.087 0.257,0.204 0.384,0.309 0.052,0.044 0.078,0.1 0.046,0.167 C 0.641,1.922 0.612,1.983 0.538,1.988 0.437,1.996 0.335,1.997 0.234,1.999 0.158,2 0.082,1.999 0,1.999"
   style="fill:#ffffff;fill-rule:nonzero"
   id="path1718" />
            </g>
            <g
   transform="matrix(2,0,0,2,57.8726,472.378)"
   id="g1724">
                <path
   d="M 0,0.458 C 0.473,0.391 0.88,0.399 1.287,0.403 1.354,0.404 1.416,0.42 1.429,0.497 1.497,0.896 1.555,1.294 1.488,1.707 1.308,1.71 1.159,1.632 1.017,1.554 0.716,1.39 0.435,1.201 0.185,0.959 -0.183,0.602 -0.5,0.217 -0.734,-0.24 c -0.091,-0.179 -0.222,-0.339 -0.329,-0.51 -0.094,-0.149 -0.077,-0.224 0.087,-0.288 0.176,-0.068 0.36,-0.127 0.545,-0.161 0.289,-0.053 0.583,-0.036 0.877,-0.023 0.194,0.009 0.338,0.096 0.425,0.272 0.1,0.203 0.204,0.404 0.305,0.604 C 1.022,-0.197 0.86,-0.104 0.679,-0.035 0.431,0.062 0.203,0.193 0,0.458"
   style="fill:#ffffff;fill-rule:nonzero"
   id="path1722" />
            </g>
            <g
   transform="matrix(2,0,0,2,27.202,497.409)"
   id="g1728">
                <path
   d="m 0,-2.373 c 0.142,-0.008 0.261,0.121 0.23,0.244 -0.071,0.281 -0.176,0.551 -0.232,0.838 -0.068,0.346 -0.162,0.687 -0.243,1.03 -0.017,0.076 -0.042,0.14 -0.107,0.192 -0.066,0.051 -0.128,0.077 -0.207,0.037 -0.237,-0.121 -0.475,-0.241 -0.682,-0.41 -0.096,-0.078 -0.109,-0.115 -0.042,-0.225 0.135,-0.228 0.266,-0.46 0.423,-0.674 0.24,-0.325 0.501,-0.635 0.752,-0.952 0.032,-0.04 0.063,-0.08 0.108,-0.08"
   style="fill:#ffffff;fill-rule:nonzero"
   id="path1726" />
            </g>
            <g
   transform="matrix(2,0,0,2,49.238,464.229)"
   id="g1732">
                <path
   d="m 0,-1.063 c 0.241,0.028 0.455,0.037 0.662,0.082 0.13,0.028 0.249,0.022 0.375,0.002 0.363,-0.058 0.727,-0.112 1.091,-0.165 0.06,-0.009 0.123,-0.026 0.2,0.021 -0.079,0.145 -0.209,0.248 -0.31,0.372 -0.113,0.136 -0.229,0.27 -0.337,0.41 C 1.581,-0.214 1.49,-0.082 1.377,0.072 1.26,-0.099 1.213,-0.267 1.139,-0.422 1.116,-0.468 1.037,-0.472 1.014,-0.429 0.983,-0.373 0.957,-0.316 0.93,-0.259 0.87,-0.135 0.832,0.001 0.737,0.107 0.664,-0.026 0.599,-0.163 0.517,-0.29 0.435,-0.417 0.336,-0.533 0.248,-0.657 0.163,-0.777 0.05,-0.88 0,-1.063"
   style="fill:#ffffff;fill-rule:nonzero"
   id="path1730" />
            </g>
            <g
   transform="matrix(2,0,0,2,21.559,488.236)"
   id="g1736">
                <path
   d="m 0,-1.07 c 0.221,-0.004 0.498,0.256 0.538,0.508 0.013,0.087 0.022,0.179 -0.017,0.261 -0.126,0.262 -0.341,0.305 -0.568,0.179 -0.19,-0.105 -0.326,-0.28 -0.342,-0.517 C -0.409,-0.933 -0.294,-1.064 0,-1.07"
   style="fill:#ffffff;fill-rule:nonzero"
   id="path1734" />
            </g>
            <g
   transform="matrix(2,0,0,2,82.205,488.057)"
   id="g1740">
                <path
   d="m 0,-0.369 c -0.006,0.322 -0.141,0.509 -0.37,0.626 -0.283,0.146 -0.582,-0.051 -0.569,-0.368 0.007,-0.141 0.055,-0.269 0.138,-0.384 0.155,-0.215 0.438,-0.277 0.671,-0.147 0.132,0.074 0.129,0.203 0.13,0.273"
   style="fill:#ffffff;fill-rule:nonzero"
   id="path1738" />
            </g>
            <g
   transform="matrix(2,0,0,2,58.5674,489.285)"
   id="g1744">
                <path
   d="M 0,0.856 C -0.243,0.84 -0.47,0.753 -0.701,0.686 -0.882,0.633 -1.061,0.57 -1.241,0.512 l 0.013,0.01 c 0.478,-0.383 0.547,-0.423 0.986,-0.573 0.018,0.387 0.155,0.7 0.555,0.829 C 0.346,0.791 0.371,0.822 0.409,0.827 0.43,0.826 0.45,0.832 0.467,0.845 0.494,0.859 0.503,0.872 0.494,0.886 0.485,0.9 0.476,0.907 0.467,0.907 0.391,0.905 0.316,0.904 0.239,0.902 0.165,0.855 0.076,0.892 0,0.856"
   style="fill:#ffffff;fill-rule:nonzero"
   id="path1742" />
            </g>
            <g
   transform="matrix(2,0,0,2,46.8004,489.913)"
   id="g1748">
                <path
   d="m 0,0.279 c -0.119,-0.013 -0.23,-0.034 -0.356,0.01 -0.304,0.102 -0.607,0.22 -0.932,0.25 -0.111,0.004 -0.25,0.112 -0.31,-0.081 0.385,-0.137 0.51,-0.45 0.537,-0.83 0.42,0.137 0.763,0.356 1.051,0.661 z"
   style="fill:#ffffff;fill-rule:nonzero"
   id="path1746" />
            </g>
            <g
   transform="matrix(2,0,0,2,60.7398,489.044)"
   id="g1752">
                <path
   d="M 0,0.89 C 0.348,0.656 0.471,0.309 0.476,-0.101 0.717,-0.104 0.904,0.01 1.1,0.086 1.149,0.105 1.165,0.157 1.158,0.213 1.14,0.345 1.075,0.451 0.989,0.547 0.747,0.818 0.435,0.941 0.081,0.973 0.003,0.994 -0.019,0.961 0,0.89"
   style="fill:#ffffff;fill-rule:nonzero"
   id="path1750" />
            </g>
            <g
   transform="matrix(2,0,0,2,41.7492,488.967)"
   id="g1756">
                <path
   d="M 0,1.006 C -0.324,0.971 -0.608,0.852 -0.834,0.612 -0.904,0.538 -0.962,0.458 -1,0.363 c -0.066,-0.17 -0.051,-0.21 0.124,-0.28 0.023,-0.01 0.047,-0.018 0.071,-0.025 0.131,-0.043 0.263,-0.084 0.394,-0.126 0.132,0.098 0.073,0.252 0.107,0.379 0.073,0.268 0.221,0.474 0.454,0.623 C 0.156,1.074 0.075,1.033 0,1.006"
   style="fill:#ffffff;fill-rule:nonzero"
   id="path1754" />
            </g>
            <g
   transform="matrix(2,0,0,2,27.7584,490.959)"
   id="g1760">
                <path
   d="m 0,-0.905 c 0.255,0.113 0.417,0.254 0.592,0.372 0.026,0.017 0.034,0.063 0.047,0.096 0.005,0.011 0.004,0.025 0.002,0.037 C 0.621,-0.266 0.68,-0.123 0.588,0 0.416,-0.005 0.386,-0.168 0.311,-0.269 0.185,-0.439 0.061,-0.617 0,-0.905"
   style="fill:#ffffff;fill-rule:nonzero"
   id="path1758" />
            </g>
            <g
   transform="matrix(2,0,0,2,41.7492,491.059)"
   id="g1764">
                <path
   d="m 0,-0.04 0.15,-0.072 c 0.259,0.068 0.519,0.091 0.777,-0.003 0.036,0.065 0.096,0.069 0.162,0.068 0.05,-0.002 0.1,0.008 0.149,0.013 -0.01,0.007 -0.019,0.019 -0.029,0.021 C 0.804,0.071 0.4,0.075 0,-0.04"
   style="fill:#ffffff;fill-rule:nonzero"
   id="path1762" />
            </g>
            <g
   transform="matrix(2,0,0,2,68.8736,470.774)"
   id="g1768">
                <path
   d="M 0,-0.878 C 0.142,-0.633 0.173,-0.361 0.226,0 0.045,-0.27 -0.043,-0.48 -0.094,-0.708 -0.001,-0.731 -0.033,-0.822 0,-0.878"
   style="fill-rule:nonzero"
   id="path1766" />
            </g>
            <g
   transform="matrix(2,0,0,2,34.13,466.755)"
   id="g1772">
                <path
   d="M 0,0.544 C -0.017,0.5 -0.035,0.458 -0.093,0.456 -0.025,0.287 0.117,0.179 0.277,0 0.236,0.255 0.13,0.405 0,0.544"
   style="fill-rule:nonzero"
   id="path1770" />
            </g>
            <g
   transform="matrix(-0.431526,-1.95289,-1.95289,0.431526,59.8948,490.532)"
   id="g1776">
                <path
   d="m -0.234,-0.381 c -0.033,-0.02 -0.066,-0.041 -0.099,-0.061 -0.058,0.245 0.037,0.468 0.099,0.696 0.02,-0.003 0.04,-0.008 0.061,-0.013 -0.054,-0.205 -0.063,-0.413 -0.061,-0.622"
   style="fill:#ffffff;fill-rule:nonzero"
   id="path1774" />
            </g>
            <g
   transform="matrix(0.877351,-1.79729,-1.79729,-0.877351,16.6911,466.888)"
   id="g1780">
                <path
   d="m -0.053,-0.1 c -0.056,0.079 -0.116,0.015 -0.173,0.007 0.015,0.108 0.104,0.161 0.173,0.228 0.002,0.004 0.047,-0.018 0.05,-0.032 0.015,-0.074 0.006,-0.145 -0.05,-0.203"
   style="fill:#788989;fill-rule:nonzero"
   id="path1778" />
            </g>
            <g
   transform="matrix(-0.0958896,-1.9977,-1.9977,0.0958896,55.803,490.358)"
   id="g1784">
                <path
   d="m -0.109,-0.141 v 0.25 z"
   style="fill:#ffffff"
   id="path1782" />
            </g>
            <g
   transform="matrix(-0.556792,-1.92093,-1.92093,0.556792,46.9765,490.546)"
   id="g1788">
                <path
   d="M -0.083,0.074 H 0.061 L 0.054,0.085 C 0.012,0.032 -0.034,0.037 -0.084,0.073 c -0.001,0.001 0.001,0.001 0.001,0.001"
   style="fill:#ffffff;fill-rule:nonzero"
   id="path1786" />
            </g>
            <g
   transform="matrix(1.99254,-0.172582,-0.172582,-1.99254,56.1203,490.563)"
   id="g1792">
                <path
   d="M -0.006,-0.001 C -0.061,0.044 -0.05,0.082 0.007,0.116 0.006,0.117 -0.005,0.126 -0.006,0.127 0.037,0.082 -0.016,0.044 -0.013,0.002 c 10e-4,-0.001 0.007,-0.003 0.007,-0.003"
   style="fill:#f4f9f7;fill-rule:nonzero"
   id="path1790" />
            </g>
            <g
   transform="matrix(2,0,0,2,51.3414,498.244)"
   id="g1796">
                <path
   d="M 0,2.369 C -0.127,2.376 -0.242,2.319 -0.356,2.264 -0.61,2.142 -0.831,1.971 -1.045,1.791 -1.268,1.602 -1.477,1.4 -1.669,1.179 -1.76,1.073 -1.795,0.954 -1.741,0.827 -1.619,0.549 -1.477,0.28 -1.264,0.056 c 0.035,-0.038 0.085,-0.065 0.132,-0.031 0.047,0.036 0.029,0.092 0.009,0.139 -0.062,0.152 -0.137,0.299 -0.189,0.454 -0.069,0.207 -0.007,0.342 0.193,0.427 0.314,0.135 0.633,0.263 0.95,0.392 C -0.06,1.482 0.047,1.501 0.163,1.452 0.503,1.31 0.845,1.175 1.184,1.03 1.341,0.962 1.4,0.826 1.358,0.66 1.318,0.499 1.254,0.348 1.176,0.203 1.152,0.16 1.142,0.109 1.13,0.061 1.128,0.053 1.142,0.037 1.153,0.032 1.175,0.021 1.207,0.001 1.219,0.009 1.271,0.043 1.325,0.08 1.365,0.127 1.53,0.322 1.644,0.55 1.757,0.776 1.834,0.927 1.805,1.068 1.691,1.196 1.341,1.584 0.958,1.935 0.506,2.203 0.354,2.292 0.194,2.378 0,2.369"
   style="fill-rule:nonzero"
   id="path1794" />
            </g>
            <g
   transform="matrix(2,0,0,2,56.1524,508.699)"
   id="g1800">
                <path
   d="m 0,-1.346 c 0.169,0.076 0.319,0.005 0.472,-0.058 0.029,-0.013 0.078,-0.011 0.105,0.006 0.052,0.034 0.028,0.092 0.012,0.135 -0.057,0.152 -0.18,0.251 -0.322,0.305 -0.142,0.053 -0.222,0.15 -0.303,0.267 -0.167,0.24 -0.376,0.444 -0.617,0.612 -0.206,0.143 -0.428,0.204 -0.684,0.163 -0.3,-0.048 -0.604,-0.08 -0.908,-0.101 C -2.614,-0.041 -2.984,0 -3.343,0.071 -3.719,0.144 -4.018,0.035 -4.288,-0.204 c -0.17,-0.152 -0.339,-0.307 -0.463,-0.5 -0.071,-0.111 -0.156,-0.186 -0.281,-0.237 -0.156,-0.063 -0.278,-0.176 -0.336,-0.34 -0.012,-0.031 -0.01,-0.075 0.003,-0.105 0.017,-0.043 0.065,-0.033 0.1,-0.023 0.06,0.018 0.121,0.038 0.177,0.068 0.115,0.062 0.22,0.016 0.328,-0.019 0.064,0.011 0.127,0.004 0.191,-0.002 0.861,-0.128 1.726,0.056 2.584,-0.018 0.525,-0.045 1.038,-0.034 1.556,0.03 0.142,0.039 0.285,0.062 0.429,0.004"
   style="fill-rule:nonzero"
   id="path1798" />
            </g>
            <g
   transform="matrix(2,0,0,2,56.1524,504.911)"
   id="g1804">
                <path
   d="M 0,0.548 C -0.128,0.725 -0.15,0.732 -0.314,0.641 -0.81,0.289 -1.329,0.029 -1.971,0.171 -2.232,0.23 -2.507,0.231 -2.767,0.173 -3.202,0.077 -3.6,0.15 -3.98,0.363 -4.192,0.482 -4.42,0.555 -4.651,0.623 -4.707,0.617 -4.74,0.583 -4.76,0.534 c 0.378,-0.309 0.817,-0.497 1.277,-0.645 0.227,-0.073 0.457,-0.053 0.676,0.013 0.277,0.083 0.545,0.087 0.822,0.003 0.287,-0.087 0.571,-0.069 0.857,0.038 0.405,0.151 0.794,0.325 1.128,0.605"
   style="fill-rule:nonzero"
   id="path1802" />
            </g>
            <g
   transform="matrix(2,0,0,2,67.5328,484.947)"
   id="g1808">
                <path
   d="m 0,-0.006 0.018,-0.002 c 0,0 -0.01,0.009 -0.009,0.01 C 0.01,0.002 0,-0.006 0,-0.006"
   style="fill-rule:nonzero"
   id="path1806" />
            </g>
            <g
   transform="matrix(2,0,0,2,55.928,508.304)"
   id="g1812">
                <path
   d="m 0,-0.715 c 0.021,0.055 -0.007,0.099 -0.037,0.139 -0.209,0.278 -0.474,0.489 -0.779,0.656 -0.14,0.076 -0.285,0.088 -0.441,0.059 -0.224,-0.042 -0.449,-0.083 -0.676,-0.112 -0.434,-0.056 -0.864,0.002 -1.285,0.097 -0.245,0.054 -0.451,0.013 -0.649,-0.117 -0.245,-0.161 -0.475,-0.339 -0.648,-0.581 -0.072,-0.102 -0.048,-0.165 0.066,-0.188 0.227,-0.044 0.457,-0.042 0.684,-0.024 0.266,0.019 0.531,0.055 0.796,0.086 0.379,0.043 0.754,0.063 1.133,-0.04 0.561,-0.153 1.134,-0.077 1.703,-0.031 0.038,0.004 0.074,0.02 0.109,0.032 0.01,0.003 0.016,0.016 0.024,0.024"
   style="fill:#ffffff;fill-rule:nonzero"
   id="path1810" />
            </g>
            <g
   transform="matrix(2,0,0,2,46.85,505.028)"
   id="g1816">
                <path
   d="M 0,0.565 C 0.365,0.284 0.787,0.119 1.221,-0.02 1.344,-0.058 1.472,-0.065 1.596,-0.03 2.047,0.099 2.495,0.092 2.945,-0.032 3.057,-0.063 3.172,-0.056 3.283,-0.024 3.709,0.099 4.111,0.276 4.494,0.532 4.43,0.553 4.384,0.568 4.337,0.583 L 3.423,0.512 C 3.282,0.501 3.145,0.513 3.005,0.538 2.512,0.626 2.017,0.63 1.524,0.539 1.346,0.505 1.17,0.501 0.992,0.523 0.662,0.565 0.331,0.576 0,0.565"
   style="fill:#ffffff;fill-rule:nonzero"
   id="path1814" />
            </g>
        </g>
    </g></g></svg>
