<?xml version="1.0" encoding="UTF-8" standalone="no"?>
<svg
   width="34.750252"
   height="41.434856"
   viewBox="0 0 34.750252 41.434857"
   version="1.1"
   xml:space="preserve"
   style="clip-rule:evenodd;fill-rule:evenodd;stroke-linejoin:round;stroke-miterlimit:2"
   id="svg154"
   sodipodi:docname="wizard.svg"
   inkscape:version="1.1.1 (3bf5ae0d25, 2021-09-20)"
   xmlns:inkscape="http://www.inkscape.org/namespaces/inkscape"
   xmlns:sodipodi="http://sodipodi.sourceforge.net/DTD/sodipodi-0.dtd"
   xmlns="http://www.w3.org/2000/svg"
   xmlns:svg="http://www.w3.org/2000/svg"><defs
   id="defs158" /><sodipodi:namedview
   id="namedview156"
   pagecolor="#ffffff"
   bordercolor="#666666"
   borderopacity="1.0"
   inkscape:pageshadow="2"
   inkscape:pageopacity="0.0"
   inkscape:pagecheckerboard="0"
   showgrid="false"
   inkscape:zoom="5.9220193"
   inkscape:cx="-23.556154"
   inkscape:cy="3.5460877"
   inkscape:window-width="1920"
   inkscape:window-height="1012"
   inkscape:window-x="-8"
   inkscape:window-y="-8"
   inkscape:window-maximized="1"
   inkscape:current-layer="svg154" />
    
<g
   style="clip-rule:evenodd;fill-rule:evenodd;stroke-linejoin:round;stroke-miterlimit:2"
   id="g1668"
   transform="matrix(0.55,0,0,0.55,1.5413807e-5,1.6301201e-4)"><g
     transform="translate(-12.2335,-639.329)"
     id="g1548">
        <g
   transform="translate(0,-183)"
   id="g1546">
            <g
   transform="matrix(2,0,0,2,67.5552,828.063)"
   id="g1328">
                <path
   d="m 0,31.889 c -0.944,-0.802 -1.243,-1.778 -1.275,-2.869 -0.052,-0.033 -0.1,-0.017 -0.149,0.01 -0.664,0.362 -1.311,0.751 -1.932,1.183 -0.363,0.253 -0.659,0.56 -0.9,0.92 -0.546,0.815 -0.959,1.69 -1.16,2.655 -0.055,0.263 -0.08,0.533 -0.123,0.799 -0.005,0.038 -0.025,0.079 -0.076,0.075 C -5.64,34.661 -5.673,34.657 -5.689,34.641 -5.817,34.518 -5.91,34.368 -5.981,34.207 -6.113,33.911 -6.232,33.609 -6.281,33.286 -6.4,32.497 -6.5,31.707 -6.387,30.907 -6.381,30.87 -6.392,30.829 -6.394,30.796 -6.467,30.742 -6.532,30.779 -6.59,30.8 c -1.034,0.368 -2.095,0.621 -3.182,0.765 -1.183,0.157 -2.368,0.175 -3.556,0.069 -1.107,-0.099 -2.189,-0.316 -3.25,-0.646 -0.037,-0.012 -0.077,-0.018 -0.117,-0.021 -0.049,-0.003 -0.078,0.037 -0.077,0.074 0.004,0.107 0.022,0.215 0.029,0.322 0.032,0.487 0.033,0.969 -0.068,1.451 -0.111,0.529 -0.209,1.06 -0.384,1.572 -0.05,0.152 -0.092,0.307 -0.194,0.412 -0.096,0.017 -0.081,-0.045 -0.08,-0.073 0.023,-0.498 -0.126,-0.962 -0.303,-1.415 -0.527,-1.353 -1.382,-2.466 -2.501,-3.381 -0.367,-0.3 -0.745,-0.581 -1.148,-0.831 -0.262,-0.163 -0.508,-0.352 -0.754,-0.525 -0.116,0.07 -0.106,0.175 -0.122,0.26 -0.081,0.441 -0.229,0.86 -0.385,1.277 -0.152,0.408 -0.37,0.781 -0.641,1.121 -0.084,0.105 -0.181,0.199 -0.277,0.293 -0.036,0.034 -0.086,0.076 -0.138,0.027 -0.032,-0.032 -0.021,-0.074 0.002,-0.11 0.014,-0.023 0.024,-0.049 0.038,-0.072 0.132,-0.226 0.197,-0.476 0.22,-0.731 0.074,-0.828 0.039,-1.646 -0.256,-2.437 -0.115,-0.307 -0.268,-0.585 -0.487,-0.832 -0.468,-0.529 -0.994,-0.992 -1.556,-1.415 -0.228,-0.17 -0.443,-0.355 -0.646,-0.551 -0.502,-0.485 -0.717,-1.108 -0.765,-1.783 -0.06,-0.841 0.008,-1.674 0.26,-2.484 0.052,-0.163 0.053,-0.306 0,-0.47 -0.312,-0.966 -0.523,-1.957 -0.633,-2.965 -0.109,-0.994 -0.132,-1.992 -0.053,-2.992 0.119,-1.533 0.446,-3.015 0.992,-4.45 0.444,-1.166 1.022,-2.262 1.728,-3.291 0.069,-0.099 0.135,-0.203 0.21,-0.297 0.082,-0.103 0.12,-0.212 0.074,-0.338 -0.165,-0.444 -0.066,-0.833 0.192,-1.221 0.283,-0.426 0.521,-0.882 0.783,-1.323 0.249,-0.419 0.542,-0.807 0.853,-1.181 0.753,-0.907 1.566,-1.752 2.517,-2.456 0.445,-0.329 0.878,-0.672 1.324,-1 0.797,-0.587 1.644,-1.086 2.564,-1.455 0.075,-0.031 0.151,-0.059 0.226,-0.088 0.247,-0.099 0.465,-0.066 0.676,0.108 0.293,0.241 0.58,0.487 0.847,0.754 0.091,0.089 0.186,0.136 0.319,0.145 0.647,0.04 1.286,0.146 1.917,0.296 0.175,0.041 0.34,0.04 0.518,0.003 0.833,-0.176 1.672,-0.322 2.528,-0.272 0.19,0.012 0.301,-0.064 0.402,-0.206 0.25,-0.354 0.559,-0.658 0.839,-0.986 0.291,-0.339 0.639,-0.377 1.025,-0.254 0.231,0.073 0.455,0.17 0.674,0.275 0.6,0.285 1.139,0.67 1.672,1.063 0.926,0.686 1.771,1.458 2.507,2.348 0.198,0.239 0.425,0.453 0.646,0.67 0.662,0.646 1.199,1.388 1.709,2.154 C 0.525,4.306 0.833,4.951 1.156,5.589 1.251,5.777 1.273,5.975 1.235,6.18 1.23,6.207 1.219,6.232 1.214,6.259 c -0.111,0.609 -0.111,0.61 0.22,1.126 1.212,1.891 1.981,3.951 2.319,6.17 0.207,1.355 0.231,2.717 0.081,4.08 -0.073,0.657 -0.18,1.31 -0.345,1.952 -0.049,0.193 -0.032,0.366 0.023,0.553 0.159,0.53 0.309,1.062 0.374,1.615 0.041,0.343 0.017,0.674 -0.052,1.005 -0.13,0.629 -0.4,1.202 -0.736,1.744 C 2.983,24.687 2.856,24.862 2.726,25.035 2.48,25.362 2.19,25.645 1.814,25.819 1.67,25.887 1.578,25.982 1.509,26.122 1.242,26.656 0.9,27.14 0.496,27.581 c -0.101,0.11 -0.172,0.239 -0.232,0.377 -0.478,1.098 -0.576,2.238 -0.389,3.411 0.023,0.144 0.068,0.285 0.125,0.52"
   style="fill-rule:nonzero"
   id="path1326" />
            </g>
            <g
   transform="matrix(2,0,0,2,49.8296,846.304)"
   id="g1332">
                <path
   d="m 0,-6.298 c 0.505,0.075 0.943,0.303 1.388,0.613 -0.555,0.224 -1.011,0.546 -1.381,0.974 -0.368,0.425 -0.762,0.833 -0.995,1.365 0.086,0.063 0.11,-0.008 0.136,-0.033 0.226,-0.214 0.445,-0.435 0.672,-0.647 0.419,-0.39 0.9,-0.684 1.435,-0.891 0.125,-0.048 0.23,-0.049 0.338,0.03 0.293,0.217 0.592,0.419 0.842,0.693 0.272,0.3 0.562,0.582 0.776,0.93 0.062,0.101 0.136,0.198 0.154,0.353 -0.142,0 -0.272,-0.002 -0.401,0 -0.122,0.002 -0.243,0.003 -0.364,0.013 -0.135,0.01 -0.269,0.024 -0.402,0.046 -0.12,0.019 -0.238,0.048 -0.356,0.078 -0.131,0.033 -0.26,0.071 -0.388,0.112 -0.117,0.036 -0.233,0.071 -0.345,0.117 -0.124,0.053 -0.245,0.114 -0.363,0.178 -0.107,0.057 -0.211,0.121 -0.313,0.186 -0.108,0.069 -0.234,0.117 -0.308,0.235 0.692,-0.15 1.392,-0.188 2.093,-0.215 0.079,-0.004 0.17,-0.005 0.238,0.028 0.308,0.149 0.644,0.2 0.966,0.296 0.155,0.046 0.219,0.13 0.225,0.286 0.011,0.283 0.034,0.566 0.046,0.85 0.002,0.033 -0.02,0.078 -0.045,0.102 C 3.607,-0.562 3.579,-0.606 3.554,-0.635 3.501,-0.696 3.44,-0.752 3.398,-0.82 3.283,-1.012 3.118,-1.04 2.914,-0.999 2.53,-0.925 2.138,-0.877 1.772,-0.737 1.581,-0.664 1.434,-0.685 1.3,-0.835 1.255,-0.885 1.203,-0.929 1.156,-0.978 1.005,-1.136 0.829,-1.154 0.638,-1.066 0.493,-0.999 0.349,-0.927 0.208,-0.859 0.091,-0.938 0.06,-1.064 0.018,-1.172 -0.21,-1.738 -0.663,-2.095 -1.13,-2.439 -1.225,-2.508 -1.346,-2.55 -1.461,-2.583 c -0.233,-0.067 -0.47,-0.122 -0.713,-0.135 -0.057,-0.003 -0.105,0.029 -0.134,0.078 -0.035,0.06 0.012,0.098 0.049,0.135 0.047,0.047 0.101,0.089 0.145,0.139 0.255,0.291 0.251,0.339 -0.072,0.542 -0.307,0.193 -0.601,0.408 -0.942,0.543 -0.3,-0.181 -0.601,-0.36 -0.9,-0.545 -0.16,-0.099 -0.315,-0.208 -0.474,-0.309 -0.06,-0.038 -0.162,-0.007 -0.163,0.057 -0.005,0.195 -0.141,0.314 -0.24,0.454 -0.166,0.231 -0.287,0.486 -0.395,0.75 -0.105,-0.052 -0.191,-0.09 -0.274,-0.134 -0.29,-0.157 -0.571,-0.107 -0.772,0.124 -0.197,0.226 -0.38,0.228 -0.636,0.143 -0.319,-0.105 -0.656,-0.159 -0.981,-0.244 -0.13,-0.035 -0.236,-0.011 -0.346,0.055 -0.135,0.081 -0.259,0.189 -0.437,0.222 0.011,-0.396 0.075,-0.765 0.176,-1.131 0.029,-0.106 0.099,-0.144 0.198,-0.173 0.351,-0.102 0.71,-0.177 1.072,-0.203 0.662,-0.045 1.323,-0.033 1.963,0.177 0.038,0.013 0.076,0.015 0.126,-0.04 -0.36,-0.349 -0.788,-0.587 -1.242,-0.788 -0.46,-0.204 -0.929,-0.365 -1.429,-0.358 -0.087,-0.093 -0.014,-0.161 0.01,-0.23 0.149,-0.423 0.39,-0.797 0.611,-1.184 0.187,-0.33 0.459,-0.436 0.803,-0.421 0.31,0.012 0.619,0.05 0.917,0.146 0.32,0.104 0.642,0.208 0.936,0.377 0.034,0.019 0.069,0.043 0.118,0.014 0.023,-0.091 -0.069,-0.123 -0.109,-0.18 -0.038,-0.055 -0.088,-0.102 -0.136,-0.149 -0.058,-0.058 -0.116,-0.113 -0.178,-0.165 -0.291,-0.243 -0.6,-0.46 -0.925,-0.655 -0.069,-0.042 -0.14,-0.081 -0.208,-0.124 -0.073,-0.045 -0.074,-0.104 -0.016,-0.154 0.11,-0.096 0.242,-0.098 0.379,-0.111 0.136,-0.015 0.296,0.071 0.407,-0.079 -0.065,-0.128 -0.208,-0.163 -0.305,-0.252 -0.226,-0.206 -0.439,-0.142 -0.66,0.005 -0.589,0.392 -1.114,0.852 -1.541,1.421 -0.456,0.607 -0.823,1.265 -1.141,1.953 -0.062,0.133 -0.095,0.283 -0.205,0.391 -0.09,-0.147 0.059,-0.306 -0.019,-0.471 -0.132,0.096 -0.162,0.225 -0.189,0.357 -0.081,0.397 -0.125,0.8 -0.15,1.204 -0.058,0.974 0.017,1.944 0.115,2.912 0.044,0.43 0.08,0.864 0.052,1.294 -0.059,0.907 -0.407,1.661 -1.202,2.178 -0.445,0.29 -0.921,0.424 -1.446,0.451 -0.928,0.05 -1.747,-0.262 -2.53,-0.715 -0.119,-0.069 -0.217,-0.162 -0.309,-0.26 -0.597,-0.638 -1.05,-1.368 -1.386,-2.173 -0.014,-0.033 -0.005,-0.075 -0.009,-0.146 0.115,0.114 0.208,0.207 0.302,0.299 0.223,0.219 0.479,0.392 0.751,0.547 0.482,0.273 0.994,0.313 1.528,0.221 0.32,-0.056 0.627,-0.148 0.925,-0.28 0.497,-0.22 0.863,-0.594 1.207,-0.996 0.118,-0.138 0.19,-0.298 0.191,-0.479 0.007,-0.702 0.026,-1.405 -0.134,-2.097 -0.039,-0.17 -0.098,-0.325 -0.198,-0.473 -0.095,0.061 -0.053,0.131 -0.055,0.187 -0.002,0.067 0.008,0.135 0.012,0.203 0.053,0.919 -0.175,1.766 -0.661,2.543 -0.101,0.16 -0.226,0.303 -0.342,0.452 -0.052,0.066 -0.12,0.105 -0.209,0.102 -0.405,-0.017 -0.811,-0.024 -1.188,-0.21 0.063,-0.088 0.163,-0.088 0.248,-0.118 0.14,-0.049 0.285,-0.086 0.42,-0.145 0.482,-0.211 0.644,-0.602 0.447,-1.088 -0.071,-0.174 -0.165,-0.339 -0.255,-0.504 -0.325,-0.592 -0.625,-1.196 -0.926,-1.799 -0.242,-0.485 -0.265,-0.98 -0.184,-1.498 0.132,-0.854 0.468,-1.634 0.877,-2.382 0.886,-1.619 2.028,-3.024 3.503,-4.146 0.625,-0.475 1.295,-0.879 1.992,-1.24 0.036,-0.018 0.073,-0.034 0.11,-0.05 0.535,-0.234 0.63,-0.228 1.119,0.09 0.648,0.422 1.235,0.917 1.735,1.51 0.418,0.495 0.841,0.985 1.156,1.558 0.183,0.333 0.352,0.669 0.489,1.021 0.205,0.529 0.392,1.063 0.519,1.617 0.055,0.24 0.063,0.477 0.009,0.721 -0.118,0.543 -0.17,1.094 -0.117,1.65 0.007,0.065 0.031,0.128 0.05,0.191 0.002,0.004 0.026,0.007 0.038,0.003 0.053,-0.013 0.016,0.044 0.033,-0.007 0.017,-0.051 0.034,-0.104 0.037,-0.157 0.066,-1.139 0.331,-2.24 0.644,-3.332 0.093,-0.326 0.214,-0.639 0.356,-0.945 0.44,-0.957 0.917,-1.895 1.484,-2.785 0.364,-0.571 0.779,-1.102 1.227,-1.609 0.126,-0.142 0.259,-0.214 0.449,-0.224 0.248,-0.013 0.482,0.002 0.704,0.129 0.221,0.127 0.458,0.23 0.673,0.369 1.116,0.719 2.167,1.522 3.077,2.494 0.947,1.013 1.729,2.142 2.299,3.409 0.356,0.791 0.591,1.62 0.712,2.482 0.031,0.224 0,0.425 -0.089,0.63 C 8.648,-1.852 8.476,-1.61 8.313,-1.362 7.831,-0.634 7.601,0.174 7.536,1.037 7.486,1.692 7.73,2.25 8.085,2.775 8.129,2.84 8.215,2.878 8.212,2.996 7.708,2.985 7.236,2.881 6.816,2.589 6.241,2.19 5.938,1.616 5.773,0.955 5.747,0.849 5.769,0.741 5.786,0.633 5.857,0.177 6.003,-0.257 6.164,-0.686 6.185,-0.718 6.202,-0.75 6.217,-0.784 6.232,-0.804 6.241,-0.827 6.244,-0.852 6.272,-1.039 6.359,-1.197 6.488,-1.335 6.508,-1.385 6.411,-1.347 6.465,-1.341 6.373,-1.199 6.306,-1.038 6.157,-0.938 L 6.156,-0.936 C 6.126,-0.914 6.105,-0.885 6.093,-0.85 5.575,-0.074 5.436,0.79 5.496,1.701 5.504,1.827 5.538,1.94 5.609,2.042 5.693,2.164 5.775,2.287 5.868,2.424 5.934,2.277 5.786,2.159 5.859,2.009 c 0.069,0.058 0.106,0.134 0.153,0.2 0.489,0.678 1.146,1.035 1.986,1.08 0.772,0.042 1.467,-0.154 2.1,-0.588 0.051,-0.035 0.09,-0.093 0.162,-0.087 0.045,0.059 0.004,0.103 -0.02,0.148 C 9.91,3.372 9.492,3.913 8.983,4.387 8.513,4.824 7.959,5.083 7.34,5.206 6.804,5.311 6.267,5.292 5.734,5.164 5.264,5.052 4.91,4.781 4.644,4.387 4.382,4.001 4.254,3.56 4.137,3.116 3.933,2.348 3.937,1.567 4.005,0.784 4.029,0.502 4.09,0.223 4.112,-0.059 4.146,-0.502 4.152,-0.945 4.093,-1.389 4.027,-1.884 3.969,-2.38 3.827,-2.861 3.639,-3.496 3.414,-4.116 3.043,-4.669 2.818,-5.005 2.587,-5.337 2.293,-5.622 1.966,-5.939 1.594,-6.17 1.155,-6.289 0.83,-6.378 0.505,-6.471 0.161,-6.445 0.044,-6.423 -0.057,-6.333 -0.175,-6.347 -0.141,-6.298 -0.048,-6.36 0,-6.298"
   style="fill:#ffffff;fill-rule:nonzero"
   id="path1330" />
            </g>
            <g
   transform="matrix(2,0,0,2,29.8816,861.023)"
   id="g1336">
                <path
   d="m 0,0.454 c -0.045,-0.849 -0.085,-1.698 -0.094,-2.548 -0.002,-0.226 0.052,-0.382 0.225,-0.523 0.266,-0.216 0.454,-0.496 0.58,-0.816 0.04,-0.101 0.093,-0.195 0.135,-0.294 0.044,-0.104 0.121,-0.139 0.226,-0.113 0.235,0.059 0.476,0.103 0.704,0.183 0.622,0.22 1.237,0.459 1.834,0.746 0.509,0.246 1.045,0.434 1.568,0.649 0.16,0.065 0.313,0.058 0.473,-10e-4 0.307,-0.114 0.594,-0.258 0.815,-0.507 0.014,-0.015 0.012,-0.048 0.012,-0.072 0,-0.031 -0.022,-0.045 -0.055,-0.045 -0.162,0.003 -0.324,0 -0.485,0.008 C 5.691,-2.868 5.458,-2.921 5.224,-2.999 4.302,-3.304 3.402,-3.664 2.508,-4.044 2.409,-4.085 2.306,-4.121 2.209,-4.167 2.043,-4.246 1.874,-4.263 1.698,-4.21 1.492,-4.149 1.278,-4.165 1.033,-4.109 1.129,-4.63 1.144,-5.111 1.139,-5.586 1.282,-5.65 1.404,-5.6 1.499,-5.539 c 0.334,0.212 0.665,0.127 0.96,-0.039 0.233,-0.131 0.406,-0.13 0.63,-0.002 0.233,0.132 0.481,0.242 0.744,0.312 0.227,0.06 0.46,0.105 0.677,0.028 0.165,-0.058 0.26,-0.043 0.393,0.071 0.276,0.235 0.555,0.474 0.896,0.619 0.106,0.045 0.158,0.139 0.21,0.236 0.129,0.237 0.262,0.471 0.397,0.705 0.03,0.053 0.061,0.112 0.157,0.136 -0.083,-0.292 -0.161,-0.57 -0.237,-0.837 0.038,-0.026 0.051,-0.042 0.059,-0.039 0.49,0.142 0.988,0.116 1.486,0.077 0.071,-0.006 0.136,-0.014 0.176,0.058 0.046,0.081 0.098,0.156 0.029,0.258 -0.129,0.19 -0.25,0.385 -0.323,0.605 -0.014,0.04 -0.008,0.083 0.03,0.107 0.019,0.012 0.053,0.012 0.074,0.003 0.098,-0.045 0.193,-0.098 0.291,-0.14 0.124,-0.054 0.192,-0.135 0.198,-0.277 0.003,-0.078 0.038,-0.156 0.066,-0.232 0.068,-0.19 0.108,-0.4 0.218,-0.562 0.104,-0.154 0.321,-0.186 0.49,-0.266 0.29,-0.137 0.499,-0.364 0.709,-0.593 0.076,-0.084 0.151,-0.117 0.242,-0.042 0.161,0.133 0.334,0.139 0.531,0.095 0.342,-0.077 0.688,-0.133 1.033,-0.198 0.04,-0.007 0.086,-0.005 0.117,-0.026 0.28,-0.184 0.558,-0.12 0.845,-0.015 0.137,0.05 0.291,0.055 0.436,0.088 0.101,0.022 0.241,-0.04 0.298,0.063 0.047,0.086 0.026,0.209 0.038,0.314 0.033,0.278 0.068,0.556 0.102,0.836 -0.122,0.055 -0.23,0.025 -0.328,-0.007 -0.207,-0.067 -0.397,-0.03 -0.59,0.05 -0.585,0.243 -1.169,0.489 -1.76,0.718 -0.452,0.175 -0.912,0.329 -1.37,0.489 -0.288,0.1 -0.588,0.062 -0.884,0.062 -0.066,10e-4 -0.133,10e-4 -0.199,0.01 -0.014,0.002 -0.036,0.049 -0.03,0.062 0.017,0.037 0.045,0.068 0.074,0.096 0.238,0.23 0.527,0.373 0.837,0.475 0.165,0.056 0.317,0.016 0.472,-0.047 0.636,-0.258 1.282,-0.494 1.898,-0.804 0.531,-0.268 1.1,-0.442 1.66,-0.638 0.063,-0.022 0.131,-0.029 0.196,-0.046 0.091,-0.024 0.158,-0.004 0.19,0.092 0.016,0.052 0.041,0.101 0.056,0.152 0.146,0.48 0.446,0.858 0.792,1.207 0.047,0.047 0.099,0.09 0.15,0.135 0.065,0.057 0.097,0.126 0.088,0.215 -0.077,0.74 -0.069,1.482 -0.076,2.224 -10e-4,0.135 -0.053,0.227 -0.144,0.317 -0.268,0.267 -0.538,0.532 -0.848,0.749 -0.208,0.146 -0.35,0.324 -0.405,0.58 -0.054,0.25 -0.138,0.493 -0.208,0.738 -0.056,0.15 -0.008,0.321 -0.083,0.43 0.027,-0.078 0.07,-0.187 0.174,-0.257 0.128,-0.205 0.264,-0.407 0.382,-0.619 0.275,-0.498 0.619,-0.946 1.017,-1.355 0.089,0.028 0.058,0.105 0.055,0.165 -0.052,0.81 -0.032,1.618 0.07,2.424 0.025,0.201 0.062,0.4 0.092,0.6 0.059,0.395 -0.023,0.75 -0.317,1.033 C 14.179,5.298 13.92,5.535 13.658,5.767 13.558,5.856 13.442,5.93 13.328,6 13.06,6.163 13.055,6.162 12.905,5.89 12.708,5.534 12.465,5.211 12.217,4.892 12.126,4.775 12.021,4.724 11.871,4.736 11.561,4.761 11.25,4.751 10.942,4.8 10.81,4.821 10.673,4.822 10.539,4.824 10.092,4.835 9.65,4.77 9.208,4.718 9.037,4.698 8.859,4.674 8.694,4.563 8.814,4.423 8.97,4.349 9.129,4.291 9.304,4.227 9.428,4.121 9.516,3.958 9.605,3.792 9.71,3.634 9.808,3.473 9.854,3.397 9.87,3.314 9.808,3.248 9.605,3.032 9.395,2.823 9.185,2.613 9.172,2.601 9.129,2.598 9.118,2.609 9.102,2.625 9.091,2.661 9.099,2.682 9.166,2.857 9.238,3.031 9.307,3.206 9.36,3.341 9.337,3.457 9.254,3.584 9.141,3.754 9.014,3.855 8.801,3.872 8.587,3.889 8.382,3.966 8.19,4.071 8.084,4.129 7.969,4.172 7.866,4.235 7.561,4.422 7.263,4.425 6.951,4.242 6.613,4.044 6.258,3.879 5.858,3.846 5.681,3.831 5.631,3.671 5.54,3.559 5.458,3.457 5.435,3.352 5.495,3.223 5.575,3.053 5.636,2.874 5.701,2.697 5.709,2.677 5.698,2.641 5.684,2.624 5.654,2.589 5.621,2.594 5.587,2.63 5.401,2.824 5.212,3.017 5.026,3.212 4.952,3.288 4.931,3.371 4.994,3.467 5.039,3.534 5.081,3.604 5.12,3.675 5.29,3.986 5.47,4.281 5.855,4.374 5.936,4.394 6.03,4.447 6.079,4.567 5.883,4.684 5.659,4.709 5.44,4.734 4.81,4.807 4.18,4.875 3.545,4.772 3.333,4.737 3.113,4.754 2.898,4.736 2.749,4.724 2.643,4.772 2.549,4.888 2.304,5.194 2.077,5.511 1.877,5.849 1.836,5.918 1.802,5.993 1.756,6.058 1.724,6.102 1.673,6.131 1.616,6.098 1.488,6.023 1.356,5.954 1.236,5.868 0.893,5.624 0.579,5.343 0.311,5.024 0.091,4.764 -0.002,4.439 0.071,4.086 0.101,3.941 0.137,3.795 0.141,3.648 0.155,2.947 0.158,2.245 0.102,1.545 0.099,1.505 0.085,1.466 0.077,1.426 0.003,1.258 0.054,1.081 0.044,0.908 0.041,0.836 0.007,0.732 0.112,0.702 0.204,0.676 0.255,0.76 0.302,0.824 0.851,1.557 1.438,2.267 1.76,3.144 1.71,3.012 1.653,2.883 1.619,2.747 1.449,2.075 1.157,1.494 0.555,1.089 0.327,0.936 0.169,0.68 0,0.454"
   style="fill:#ffffff;fill-rule:nonzero"
   id="path1334" />
            </g>
            <g
   transform="matrix(2,0,0,2,67.6434,880.554)"
   id="g1340">
                <path
   d="m 0,-5.262 c 0.021,-0.512 0.055,-1.024 0.06,-1.537 0.005,-0.42 -0.094,-0.831 -0.176,-1.24 -0.123,-0.622 -0.266,-1.239 -0.408,-1.857 -0.142,-0.611 -0.124,-1.231 -0.121,-1.852 0,-0.073 0.032,-0.121 0.099,-0.16 0.485,-0.279 0.882,-0.664 1.257,-1.073 0.016,-0.017 0.047,-0.02 0.082,-0.034 0.079,0.113 0.085,0.247 0.102,0.377 0.143,1.09 0.444,2.138 0.829,3.163 0.152,0.402 0.356,0.785 0.534,1.178 0.144,0.32 0.274,0.646 0.428,0.961 0.303,0.622 0.511,1.275 0.696,1.939 0.128,0.457 0.193,0.923 0.225,1.396 0.02,0.316 -0.042,0.619 -0.159,0.91 -0.251,0.629 -0.58,1.217 -1.005,1.747 C 2.317,-1.187 2.164,-1.053 2.018,-0.911 1.973,-0.868 1.924,-0.816 1.82,-0.827 1.895,-1.045 1.979,-1.254 2.039,-1.469 2.101,-1.695 2.208,-1.889 2.353,-2.071 2.521,-2.285 2.598,-2.549 2.71,-2.794 3.073,-3.589 3.075,-4.417 2.954,-5.255 2.802,-6.319 2.469,-7.332 2.011,-8.297 1.689,-8.977 1.345,-9.648 1.03,-10.34 c -0.098,0.063 -0.053,0.143 -0.039,0.202 0.085,0.353 0.178,0.703 0.267,1.055 0.02,0.078 0.045,0.157 0.052,0.236 0.046,0.607 0.251,1.184 0.33,1.786 0.078,0.601 0.193,1.199 0.257,1.803 0.097,0.899 0.147,1.803 0.063,2.707 -0.038,0.405 -0.153,0.795 -0.294,1.175 -0.25,0.672 -0.564,1.313 -0.969,1.907 -0.09,0.133 -0.194,0.26 -0.306,0.375 -0.318,0.328 -0.51,0.717 -0.648,1.149 -0.217,0.675 -0.337,1.36 -0.31,2.07 0.005,0.108 -0.002,0.215 -0.005,0.323 -0.001,0.01 -0.01,0.019 -0.017,0.029 -0.032,0.01 -0.05,-0.001 -0.062,-0.03 C -0.899,3.886 -1.057,3.308 -1.045,2.686 -1.035,2.119 -1.048,1.552 -0.961,0.989 -0.858,0.765 -1.04,0.508 -0.933,0.372 c -0.02,0.036 0,0.192 -0.104,0.296 -0.008,0.026 -0.014,0.053 -0.023,0.078 -0.167,0.417 -0.281,0.845 -0.242,1.3 C -1.291,2.182 -1.34,2.277 -1.457,2.345 -1.619,2.442 -1.774,2.552 -1.94,2.642 -2.575,2.978 -3.151,3.399 -3.71,3.847 -4.379,4.382 -4.838,5.072 -5.19,5.844 -5.465,6.449 -5.663,7.076 -5.753,7.753 -5.859,7.718 -5.857,7.631 -5.878,7.57 -5.972,7.302 -6.018,7.021 -6.054,6.741 -6.207,5.566 -6.164,4.402 -5.882,3.244 c 0.314,-1.291 0.775,-2.523 1.375,-3.707 0.275,-0.541 0.559,-1.078 0.671,-1.682 0.066,-0.359 0.344,-0.492 0.625,-0.626 0.025,-0.012 0.092,0.01 0.104,0.034 0.221,0.445 0.451,0.883 0.525,1.388 0.099,0.673 0.089,1.348 0.056,2.02 -0.026,0.524 -0.173,1.031 -0.45,1.49 0.055,0.067 0.092,-10e-4 0.132,-0.021 0.036,-0.017 0.068,-0.044 0.097,-0.07 0.448,-0.419 0.816,-0.899 1.107,-1.437 0.322,-0.596 0.564,-1.227 0.764,-1.87 0.21,-0.676 0.251,-1.377 0.215,-2.082 -0.113,-0.02 -0.114,0.059 -0.117,0.118 -0.027,0.474 -0.141,0.931 -0.261,1.389 -0.222,0.851 -0.54,1.665 -0.955,2.442 -0.062,0.116 -0.124,0.232 -0.225,0.327 -0.072,-0.092 -0.04,-0.172 -0.023,-0.241 0.065,-0.266 0.054,-0.535 0.046,-0.805 -0.005,-0.135 -0.013,-0.271 -0.002,-0.405 0.042,-0.517 -0.029,-1.024 -0.147,-1.525 -0.161,-0.682 -0.323,-1.364 -0.565,-2.024 -0.037,-0.102 -0.059,-0.209 -0.107,-0.305 -0.319,-0.635 -0.452,-1.326 -0.612,-2.007 -0.182,-0.777 -0.246,-1.573 -0.33,-2.364 -0.036,-0.339 0.018,-0.675 0.081,-1.006 0.098,-0.517 0.216,-1.029 0.327,-1.544 0.011,-0.052 0.032,-0.103 0.051,-0.152 0.08,-0.207 0.152,-0.241 0.37,-0.204 0.252,0.043 0.504,0.093 0.759,0.112 0.379,0.03 0.753,-0.02 1.122,-0.118 0.13,-0.033 0.171,-0.004 0.179,0.133 0.034,0.539 0.073,1.077 0.092,1.617 0.019,0.512 0.017,1.025 0.019,1.538 0.001,0.284 0.033,0.562 0.076,0.841 0.023,-0.004 0.04,-0.001 0.05,-0.008 0.081,-0.069 0.136,-0.073 0.161,-0.007 0.159,0.416 0.331,0.827 0.47,1.248 0.106,0.322 0.116,0.663 0.136,1 0.056,0.358 0.021,0.716 0.021,1.006 C 0.013,-4.546 -0.092,-4.911 0,-5.262"
   style="fill:#ffffff;fill-rule:nonzero"
   id="path1338" />
            </g>
            <g
   transform="matrix(2,0,0,2,18.4934,895.133)"
   id="g1344">
                <path
   d="m 0,-20.636 c 0.056,0.072 0.116,0.141 0.167,0.216 0.342,0.497 0.771,0.899 1.297,1.197 0.058,0.033 0.114,0.073 0.175,0.103 0.072,0.035 0.094,0.094 0.078,0.165 -0.032,0.145 -0.066,0.29 -0.106,0.432 -0.174,0.612 -0.286,1.23 -0.313,1.871 -0.028,0.686 -0.134,1.37 -0.181,2.056 -0.071,1.038 -0.082,2.076 0.007,3.115 0.087,1.011 0.26,2.006 0.517,2.988 0.019,0.073 0.01,0.168 0.134,0.18 0.029,-0.187 0.014,-0.371 -0.013,-0.556 -0.121,-0.856 -0.257,-1.709 -0.33,-2.57 -0.049,-0.566 -0.063,-1.133 -0.049,-1.7 0.003,-0.108 0.014,-0.216 0.032,-0.323 0.056,-0.343 0.117,-0.687 0.176,-1.031 0.075,0.026 0.094,0.094 0.113,0.157 0.081,0.272 0.127,0.551 0.168,0.831 0.028,0.201 0.046,0.406 0.106,0.597 0.157,0.499 0.167,1.007 0.147,1.522 -0.059,1.485 0.223,2.899 0.907,4.226 0.334,0.649 0.812,1.172 1.385,1.616 0.097,0.075 0.199,0.135 0.323,0.159 0.196,0.036 0.39,0.084 0.597,0.131 C 5.297,-5.409 5.177,-5.431 5.088,-5.482 4.954,-5.56 4.862,-5.665 4.786,-5.798 4.48,-6.337 4.298,-6.908 4.292,-7.531 4.29,-7.76 4.287,-7.989 4.281,-8.219 4.271,-8.587 4.338,-8.945 4.432,-9.298 4.51,-9.586 4.697,-9.789 4.951,-9.933 c 0.069,-0.039 0.129,-0.01 0.151,0.072 0.044,0.156 0.081,0.313 0.125,0.469 0.026,0.091 0.043,0.19 0.093,0.266 0.205,0.313 0.277,0.671 0.366,1.024 0.089,0.355 0.233,0.685 0.393,1.015 0.447,0.922 0.865,1.86 1.105,2.863 0.195,0.816 0.265,1.649 0.334,2.485 C 7.57,-1.127 7.392,-0.57 7.233,0 7.129,-0.023 7.131,-0.1 7.111,-0.153 6.489,-1.876 5.387,-3.221 3.889,-4.256 3.479,-4.539 3.071,-4.827 2.662,-5.113 2.618,-5.145 2.579,-5.182 2.537,-5.217 2.405,-5.327 2.336,-5.456 2.361,-5.64 2.431,-6.151 2.274,-6.628 2.115,-7.102 2.091,-7.175 2.071,-7.258 1.976,-7.304 1.948,-7.166 1.981,-7.04 2.005,-6.913 2.234,-5.65 2.062,-4.441 1.516,-3.284 1.477,-3.201 1.456,-3.102 1.351,-3.065 1.31,-3.154 1.343,-3.243 1.349,-3.333 1.389,-3.889 1.34,-4.438 1.209,-4.98 1.099,-5.432 0.896,-5.835 0.612,-6.207 c -0.33,-0.433 -0.709,-0.814 -1.12,-1.165 -0.246,-0.21 -0.489,-0.422 -0.752,-0.612 -0.771,-0.554 -1.112,-1.332 -1.129,-2.265 -0.019,-1.1 0.236,-2.14 0.681,-3.139 0.315,-0.704 0.686,-1.376 1.062,-2.047 0.09,-0.161 0.147,-0.344 0.307,-0.513 0.094,0.349 0.118,0.678 0.194,0.996 0.077,0.324 0.15,0.649 0.315,0.956 0,-0.109 0.009,-0.219 -0.002,-0.328 -0.049,-0.483 -0.089,-0.968 -0.16,-1.448 -0.168,-1.14 -0.199,-2.285 -0.154,-3.434 0.019,-0.471 0.045,-0.942 0.068,-1.414 0.026,-0.005 0.052,-0.01 0.078,-0.016"
   style="fill:#ffffff;fill-rule:nonzero"
   id="path1342" />
            </g>
            <g
   transform="matrix(2,0,0,2,30.5734,884.376)"
   id="g1348">
                <path
   d="m 0,-6.315 c 0.199,0.107 0.3,0.249 0.421,0.366 0.253,0.246 0.527,0.462 0.846,0.616 0.134,0.064 0.19,0.048 0.27,-0.075 0.073,-0.114 0.139,-0.231 0.21,-0.346 0.128,-0.206 0.242,-0.423 0.389,-0.615 0.359,-0.468 0.27,-0.414 0.756,-0.331 0.792,0.136 1.586,0.132 2.377,0.007 0.238,-0.038 0.47,-0.117 0.7,-0.191 0.086,-0.028 0.151,-0.029 0.227,0.017 0.139,0.084 0.279,0.166 0.424,0.238 0.279,0.139 0.557,0.182 0.844,0.002 0.17,-0.107 0.354,-0.24 0.541,-0.258 0.187,-0.017 0.383,0.109 0.579,0.147 0.692,0.133 1.39,0.185 2.093,0.101 0.254,-0.031 0.508,-0.067 0.761,-0.108 0.119,-0.018 0.211,0.007 0.284,0.106 0.118,0.163 0.247,0.32 0.357,0.489 0.161,0.249 0.308,0.508 0.465,0.759 0.063,0.101 0.135,0.119 0.242,0.067 0.306,-0.148 0.577,-0.346 0.82,-0.584 0.143,-0.141 0.285,-0.284 0.426,-0.425 0.1,0.053 0.054,0.123 0.037,0.174 -0.179,0.537 -0.364,1.072 -0.544,1.609 -0.057,0.17 -0.147,0.318 -0.268,0.448 -0.101,0.108 -0.205,0.215 -0.315,0.314 -1.145,1.03 -2.205,2.146 -3.303,3.224 C 9.524,-0.451 9.422,-0.324 9.31,-0.207 9.189,-0.08 9.064,0.043 8.941,0.167 8.694,0.416 8.413,0.537 8.047,0.557 7.304,0.598 6.565,0.593 5.823,0.534 5.666,0.522 5.54,0.469 5.421,0.374 5.21,0.205 5.013,0.022 4.827,-0.176 4.514,-0.511 4.2,-0.846 3.875,-1.17 3.216,-1.827 2.552,-2.48 1.884,-3.129 1.613,-3.393 1.332,-3.645 1.053,-3.9 0.797,-4.133 0.621,-4.406 0.525,-4.744 0.403,-5.171 0.243,-5.588 0.1,-6.009 0.07,-6.095 0.043,-6.183 0,-6.315"
   style="fill:#ffffff;fill-rule:nonzero"
   id="path1346" />
            </g>
            <g
   transform="matrix(2,0,0,2,22.607,882.672)"
   id="g1352">
                <path
   d="m 0,-12.694 c 0.13,0.036 0.233,0.065 0.336,0.094 0.569,0.157 1.147,0.138 1.726,0.074 0.233,-0.025 0.432,-0.146 0.646,-0.227 0.127,-0.048 0.156,-0.037 0.215,0.089 0.1,0.209 0.172,0.428 0.21,0.653 0.096,0.585 0.191,1.171 0.157,1.77 C 3.259,-9.703 3.252,-9.163 3.229,-8.624 3.223,-8.476 3.202,-8.328 3.18,-8.182 2.974,-6.835 2.658,-5.512 2.297,-4.197 2.072,-3.38 1.906,-2.546 1.928,-1.687 1.942,-1.13 2,-0.584 2.184,-0.055 2.2,-0.008 2.242,0.04 2.192,0.107 1.826,-0.181 1.543,-0.539 1.317,-0.938 0.799,-1.855 0.505,-2.842 0.38,-3.887 0.286,-4.685 0.335,-5.478 0.419,-6.27 0.459,-6.656 0.587,-7.032 0.677,-7.413 0.762,-7.767 0.85,-8.12 0.935,-8.474 0.947,-8.525 0.95,-8.577 0.958,-8.633 0.856,-8.661 0.835,-8.586 0.815,-8.536 0.738,-8.349 0.664,-8.162 0.598,-7.971 0.494,-7.664 0.399,-7.355 0.296,-7.048 0.276,-6.989 0.265,-6.915 0.178,-6.895 0.075,-7.302 0.05,-7.718 0.016,-8.13 c -0.067,-0.834 -0.125,-1.67 -0.152,-2.505 -0.017,-0.524 0.023,-1.052 0.049,-1.577 0.008,-0.158 0.056,-0.315 0.087,-0.482"
   style="fill:#ffffff;fill-rule:nonzero"
   id="path1350" />
            </g>
            <g
   transform="matrix(2,0,0,2,44.7492,825.922)"
   id="g1356">
                <path
   d="M 0,3.383 C -0.149,3.29 -0.227,3.161 -0.314,3.043 -0.515,2.772 -0.714,2.5 -0.907,2.223 -1.41,1.501 -1.987,0.841 -2.579,0.193 -2.595,0.176 -2.599,0.149 -2.615,0.11 c 0.081,-0.062 0.174,-0.023 0.26,-0.021 0.094,0.004 0.19,0.011 0.281,0.035 0.508,0.135 1.022,0.243 1.538,0.344 0.385,0.075 0.75,0.22 1.112,0.366 C 0.597,0.842 0.634,0.841 0.647,0.828 0.677,0.796 0.672,0.758 0.633,0.73 0.492,0.627 0.351,0.522 0.21,0.419 0.146,0.373 0.061,0.353 0.021,0.263 0.053,0.243 0.082,0.207 0.116,0.202 0.741,0.111 1.366,0 1.998,0.035 2.043,0.116 1.997,0.17 1.962,0.226 1.678,0.669 1.391,1.11 1.112,1.556 0.841,1.99 0.579,2.429 0.314,2.867 0.209,3.038 0.105,3.21 0,3.383"
   style="fill:#ffffff;fill-rule:nonzero"
   id="path1354" />
            </g>
            <g
   transform="matrix(2,0,0,2,40.7154,847.826)"
   id="g1360">
                <path
   d="M 0,0.013 C 0.105,0.137 0.205,0.251 0.126,0.441 0.085,0.542 0.202,0.64 0.291,0.581 0.453,0.472 0.589,0.536 0.741,0.589 1.356,0.799 1.976,0.849 2.597,0.611 2.664,0.586 2.726,0.57 2.785,0.616 3.029,0.8 3.27,0.988 3.526,1.186 3.354,1.362 3.176,1.474 2.977,1.561 2.403,1.813 1.798,1.878 1.197,1.763 0.58,1.644 0.073,1.306 -0.228,0.734 c -0.356,-0.675 -0.488,-1.393 -0.325,-2.15 0.033,-0.155 0.066,-0.312 0.174,-0.449 0.087,0.048 0.051,0.121 0.052,0.174 0.011,0.508 0.19,0.946 0.552,1.304 0.084,0.083 0.136,0.155 0.07,0.279 C 0.233,0.008 0.17,-0.05 0.101,-0.086 -0.165,-0.18 -0.18,-0.445 -0.284,-0.639 -0.234,-0.41 -0.062,-0.222 0,0.013"
   style="fill:#ffffff;fill-rule:nonzero"
   id="path1358" />
            </g>
            <g
   transform="matrix(2,0,0,2,41.7702,843.906)"
   id="g1364">
                <path
   d="M 0,2.107 C -0.057,2.019 -0.009,1.946 0.019,1.873 0.141,1.559 0.261,1.244 0.391,0.932 0.437,0.823 0.43,0.728 0.39,0.621 0.346,0.505 0.278,0.407 0.211,0.306 c -0.16,-0.24 -0.305,-0.49 -0.458,-0.745 0.144,-0.044 0.203,0.05 0.279,0.094 0.257,0.148 0.51,0.302 0.765,0.456 0.074,0.045 0.139,0.052 0.225,0.009 0.216,-0.11 0.428,-0.226 0.63,-0.363 0.201,-0.135 0.394,-0.283 0.619,-0.376 0.068,0.074 0.004,0.128 -0.02,0.183 C 2.132,-0.163 2.014,0.109 1.886,0.377 1.791,0.575 1.789,0.755 1.908,0.948 2.129,1.303 2.332,1.669 2.545,2.029 2.667,2.236 2.793,2.44 2.912,2.639 2.843,2.726 2.801,2.671 2.765,2.643 2.402,2.363 2.041,2.081 1.68,1.798 1.562,1.707 1.449,1.611 1.333,1.518 1.101,1.333 1.099,1.404 0.953,1.506 0.645,1.723 0.349,1.956 0,2.107"
   style="fill:#ffffff;fill-rule:nonzero"
   id="path1362" />
            </g>
            <g
   transform="matrix(2,0,0,2,23.765,844.635)"
   id="g1368">
                <path
   d="m 0,-6.001 c -0.34,0.551 -0.676,1.104 -0.951,1.691 -0.278,0.589 -0.501,1.193 -0.625,1.833 -0.123,0.63 -0.017,1.234 0.206,1.825 0.067,0.175 0.148,0.346 0.23,0.516 0.047,0.098 -0.001,0.147 -0.069,0.202 -0.079,0.064 -0.145,0.045 -0.212,-0.018 -0.08,-0.074 -0.153,-0.15 -0.208,-0.246 -0.358,-0.637 -0.671,-1.291 -0.842,-2.008 -0.033,-0.137 -0.047,-0.26 0.01,-0.39 0.066,-0.149 0.112,-0.306 0.189,-0.448 0.603,-1.103 1.276,-2.159 2.156,-3.069 0.092,-0.018 0.128,0.022 0.116,0.112"
   style="fill:#ffffff;fill-rule:nonzero"
   id="path1366" />
            </g>
            <g
   transform="matrix(2,0,0,2,47.3986,849.759)"
   id="g1372">
                <path
   d="m 0,-3.888 c 0.743,0.538 1.161,1.255 1.173,2.181 0.006,0.422 -0.096,0.827 -0.289,1.204 -0.05,0.095 -0.102,0.192 -0.17,0.274 C 0.5,0.027 0.475,0.005 0.331,-0.253 0.155,-0.57 -0.038,-0.877 -0.223,-1.189 -0.291,-1.305 -0.352,-1.424 -0.419,-1.54 -0.478,-1.641 -0.483,-1.73 -0.428,-1.842 -0.221,-2.266 -0.178,-2.719 -0.256,-3.18 -0.284,-3.352 -0.259,-3.498 -0.167,-3.639 -0.062,-3.689 -0.22,-3.915 0,-3.888"
   style="fill:#ffffff;fill-rule:nonzero"
   id="path1370" />
            </g>
            <g
   transform="matrix(2,0,0,2,55.7008,849.402)"
   id="g1376">
                <path
   d="m 0,-2.236 c 0.152,-0.007 0.296,0.091 0.387,0.295 0.026,0.06 -0.007,0.102 -0.046,0.14 -0.253,0.242 -0.506,0.483 -0.76,0.724 -0.049,0.047 -0.105,0.086 -0.147,0.138 -0.196,0.252 -0.456,0.41 -0.744,0.535 -0.209,0.091 -0.415,0.193 -0.615,0.303 -0.195,0.108 -0.378,0.102 -0.569,-0.005 -0.08,-0.045 -0.133,-0.097 -0.105,-0.19 0.056,-0.183 0.059,-0.372 0.071,-0.56 0.01,-0.145 0.073,-0.251 0.189,-0.338 0.13,-0.095 0.261,-0.193 0.375,-0.306 C -1.43,-2.026 -0.752,-2.166 0,-2.236"
   style="fill:#ffffff;fill-rule:nonzero"
   id="path1374" />
            </g>
            <g
   transform="matrix(2,0,0,2,32.6382,848.921)"
   id="g1380">
                <path
   d="m 0,-1.647 c 0.109,-0.144 0.271,-0.19 0.403,-0.279 0.057,-0.038 0.126,-0.037 0.195,-0.022 0.092,0.02 0.185,0.032 0.277,0.052 0.87,0.183 0.87,0.184 1.544,0.78 0.122,0.107 0.238,0.22 0.365,0.318 0.187,0.143 0.338,0.301 0.33,0.557 -10e-4,0.052 0.029,0.104 0.046,0.155 0.029,0.085 0.127,0.171 0.043,0.257 C 3.107,0.268 2.976,0.317 2.835,0.299 2.743,0.287 2.65,0.261 2.563,0.23 2.12,0.067 1.695,-0.132 1.303,-0.398 1.215,-0.457 1.127,-0.524 1.058,-0.604 0.765,-0.939 0.447,-1.247 0.106,-1.532 0.067,-1.565 0.036,-1.607 0,-1.647"
   style="fill:#ffffff;fill-rule:nonzero"
   id="path1378" />
            </g>
            <g
   transform="matrix(2,0,0,2,66.649,844.192)"
   id="g1384">
                <path
   d="m 0,-4.653 c 0.52,0.74 0.943,1.533 1.333,2.347 0.082,0.173 0.099,0.327 0.034,0.501 C 1.292,-1.604 1.226,-1.399 1.151,-1.197 1.009,-0.821 0.863,-0.445 0.719,-0.068 0.608,0 0.559,-0.142 0.471,-0.14 0.392,-0.137 0.313,-0.127 0.213,-0.118 0.23,-0.283 0.329,-0.406 0.396,-0.541 0.509,-0.769 0.641,-0.987 0.706,-1.237 0.754,-1.425 0.759,-1.61 0.722,-1.796 0.667,-2.073 0.597,-2.347 0.541,-2.624 0.408,-3.272 0.189,-3.891 -0.076,-4.497 -0.111,-4.578 -0.132,-4.652 0,-4.653"
   style="fill:#ffffff;fill-rule:nonzero"
   id="path1382" />
            </g>
            <g
   transform="matrix(2,0,0,2,19.9146,852.098)"
   id="g1388">
                <path
   d="m 0,-2.019 c 0.224,0.201 0.468,0.278 0.7,0.378 0.222,0.096 0.487,0.022 0.715,0.198 -0.42,0.325 -0.882,0.288 -1.338,0.202 -0.032,0.1 0.005,0.154 0.053,0.205 0.338,0.357 0.759,0.546 1.242,0.604 0.12,0.014 0.242,0.015 0.362,0.018 0.036,0.001 0.056,0.008 0.052,0.041 -0.003,0.024 -0.005,0.056 -0.02,0.071 -0.1,0.092 -0.204,0.171 -0.345,0.194 C 0.728,0 0.118,-0.187 -0.428,-0.614 -0.503,-0.672 -0.498,-0.743 -0.472,-0.829 -0.354,-1.23 -0.203,-1.616 0,-2.019"
   style="fill:#ffffff;fill-rule:nonzero"
   id="path1386" />
            </g>
            <g
   transform="matrix(2,0,0,2,66.0614,850.723)"
   id="g1392">
                <path
   d="m 0,-0.36 c 0.222,-0.129 0.422,-0.29 0.586,-0.486 0.139,-0.164 0.309,-0.137 0.48,-0.112 0.069,0.01 0.11,0.077 0.135,0.139 0.145,0.364 0.236,0.744 0.291,1.13 C 1.514,0.462 1.433,0.564 1.287,0.616 1.193,0.648 1.103,0.65 1.01,0.622 0.8,0.561 0.604,0.478 0.451,0.314 0.267,0.118 0.083,-0.076 0,-0.36"
   style="fill:#ffffff;fill-rule:nonzero"
   id="path1390" />
            </g>
            <g
   transform="matrix(2,0,0,2,65.8614,845.246)"
   id="g1396">
                <path
   d="M 0,1.373 C 0.008,1.327 0.022,1.22 0.048,1.115 0.118,0.827 0.191,0.54 0.27,0.253 0.302,0.137 0.345,0.021 0.399,-0.087 c 0.07,-0.14 0.21,-0.255 0.345,-0.244 0.164,0.012 0.328,0.114 0.42,0.275 C 1.19,-0.012 1.206,0.05 1.196,0.099 1.157,0.296 1.134,0.503 1.054,0.684 0.947,0.929 0.791,1.154 0.657,1.387 0.57,1.538 0.432,1.618 0.273,1.664 0.102,1.715 -0.011,1.617 0,1.373"
   style="fill:#ffffff;fill-rule:nonzero"
   id="path1394" />
            </g>
            <g
   transform="matrix(2,0,0,2,29.8816,867.817)"
   id="g1400">
                <path
   d="m 0,-2.943 c 0.085,0.065 0.176,0.124 0.254,0.196 0.278,0.256 0.55,0.518 0.827,0.774 0.182,0.167 0.32,0.355 0.393,0.598 0.105,0.349 0.234,0.689 0.352,1.034 0.034,0.101 0.073,0.202 0.039,0.316 C 1.745,0 1.746,-0.116 1.72,-0.169 1.52,-0.582 1.308,-0.987 1.061,-1.374 1.003,-1.465 0.955,-1.564 0.884,-1.643 0.593,-1.963 0.339,-2.307 0.156,-2.685 0.05,-2.684 0.061,-2.625 0.062,-2.575 0.066,-2.374 0.111,-2.173 0.077,-1.971 0.007,-2.027 -0.001,-2.105 -0.001,-2.186 0,-2.438 0,-2.691 0,-2.943"
   style="fill-rule:nonzero"
   id="path1398" />
            </g>
            <g
   transform="matrix(2,0,0,2,56.8482,849.207)"
   id="g1404">
                <path
   d="m 0,-1.485 c 0.027,0.03 0.041,0.039 0.04,0.046 -0.04,0.386 -0.082,0.772 -0.12,1.159 -0.01,0.109 -0.071,0.163 -0.167,0.198 -0.17,0.064 -0.338,0.082 -0.507,0 -0.096,-0.046 -0.208,-0.061 -0.3,-0.166 C -0.822,-0.755 -0.462,-1.16 0,-1.485"
   style="fill:#ffffff;fill-rule:nonzero"
   id="path1402" />
            </g>
            <g
   transform="matrix(2,0,0,2,21.457,844.775)"
   id="g1408">
                <path
   d="M 0,1.514 C -0.035,1.522 -0.073,1.53 -0.112,1.538 -0.376,1.59 -0.543,1.482 -0.654,1.241 -0.778,0.976 -0.967,0.743 -1.042,0.452 c -0.028,-0.106 -0.045,-0.205 0,-0.313 0.072,-0.17 0.241,-0.215 0.385,-0.092 0.166,0.142 0.313,0.312 0.341,0.528 0.035,0.274 0.162,0.507 0.271,0.749 0.026,0.059 0.072,0.112 0.045,0.19"
   style="fill:#ffffff;fill-rule:nonzero"
   id="path1406" />
            </g>
            <g
   transform="matrix(2,0,0,2,32.1714,848.085)"
   id="g1412">
                <path
   d="m 0,-0.367 c 0,-0.175 0,-0.349 -0.001,-0.523 0,-0.035 0.014,-0.055 0.046,-0.055 0.026,-0.001 0.058,-0.003 0.075,0.011 0.043,0.032 0.085,0.068 0.116,0.11 0.25,0.349 0.506,0.695 0.719,1.069 C 0.983,0.294 1.002,0.358 0.949,0.386 0.775,0.476 0.615,0.581 0.39,0.461 0.003,0.255 -0.005,0.272 -0.007,-0.166 v -0.201 z"
   style="fill:#ffffff;fill-rule:nonzero"
   id="path1410" />
            </g>
            <g
   transform="matrix(2,0,0,2,41.6536,843.062)"
   id="g1416">
                <path
   d="M 0,1.826 C -0.343,1.592 -0.475,1.277 -0.534,0.926 -0.581,0.648 -0.572,0.366 -0.527,0.087 -0.521,0.047 -0.504,0 -0.461,0.004 -0.43,0.007 -0.391,0.039 -0.373,0.068 -0.159,0.407 0.035,0.757 0.198,1.125 0.232,1.202 0.247,1.27 0.207,1.352 0.137,1.496 0.079,1.645 0,1.826"
   style="fill:#ffffff;fill-rule:nonzero"
   id="path1414" />
            </g>
            <g
   transform="matrix(2,0,0,2,69.7374,847.164)"
   id="g1420">
                <path
   d="m 0,-1.036 c -0.004,0.027 -0.005,0.054 -0.013,0.079 -0.11,0.388 -0.271,0.754 -0.463,1.108 C -0.522,0.235 -0.593,0.299 -0.685,0.326 -0.717,0.335 -0.761,0.318 -0.792,0.3 -0.809,0.291 -0.825,0.248 -0.817,0.232 c 0.187,-0.395 0.201,-0.824 0.244,-1.248 0.003,-0.026 0.01,-0.054 0.022,-0.077 0.056,-0.1 0.053,-0.278 0.192,-0.274 0.147,0.003 0.252,0.137 0.343,0.254 0.014,0.019 0.011,0.051 0.016,0.077"
   style="fill:#ffffff;fill-rule:nonzero"
   id="path1418" />
            </g>
            <g
   transform="matrix(2,0,0,2,21.9066,848.163)"
   id="g1424">
                <path
   d="m 0,-1.463 c 0.177,0.325 0.339,0.618 0.496,0.914 0.078,0.147 0.097,0.306 0.065,0.47 C 0.551,-0.026 0.487,0 0.439,-0.032 0.137,-0.225 -0.08,-0.497 -0.27,-0.792 -0.353,-0.922 -0.325,-1.081 -0.292,-1.225 -0.262,-1.358 -0.137,-1.397 0,-1.463"
   style="fill:#ffffff;fill-rule:nonzero"
   id="path1422" />
            </g>
            <g
   transform="matrix(2,0,0,2,36.8934,846.115)"
   id="g1428">
                <path
   d="M 0,-0.352 C 0.085,-0.427 0.13,-0.475 0.183,-0.512 0.472,-0.714 0.661,-0.707 0.95,-0.494 1.024,-0.44 1.059,-0.37 1.031,-0.285 0.971,-0.103 0.982,0.087 0.959,0.272 0.955,0.307 0.96,0.362 0.904,0.361 0.869,0.361 0.826,0.347 0.799,0.325 0.542,0.111 0.287,-0.108 0,-0.352"
   style="fill:#ffffff;fill-rule:nonzero"
   id="path1426" />
            </g>
            <g
   transform="matrix(2,0,0,2,42.185,848.431)"
   id="g1432">
                <path
   d="m 0,0.075 c 0.165,-0.154 0.339,-0.238 0.574,-0.212 0.185,0.02 0.385,0.017 0.563,-0.033 0.198,-0.056 0.338,0 0.477,0.12 0.041,0.036 0.084,0.068 0.123,0.105 C 1.778,0.094 1.755,0.159 1.694,0.176 1.604,0.201 1.513,0.235 1.421,0.246 0.974,0.301 0.532,0.293 0.101,0.146 0.065,0.133 0.036,0.101 0,0.075"
   style="fill:#ffffff;fill-rule:nonzero"
   id="path1430" />
            </g>
            <g
   transform="matrix(2,0,0,2,50.7304,844.718)"
   id="g1436">
                <path
   d="M 0,0.91 C -0.076,0.857 -0.054,0.768 -0.076,0.696 -0.241,0.181 -0.291,0.269 0.235,0.047 0.347,0 0.441,0.005 0.529,0.094 0.595,0.16 0.67,0.218 0.753,0.291 0.515,0.505 0.297,0.701 0.076,0.895 0.06,0.909 0.026,0.905 0,0.91"
   style="fill:#ffffff;fill-rule:nonzero"
   id="path1434" />
            </g>
            <g
   transform="matrix(2,0,0,2,72.1984,871.866)"
   id="g1440">
                <path
   d="M 0,1.915 C 0.053,1.538 0.061,1.243 0.054,0.947 0.052,0.894 0.057,0.836 0.078,0.788 0.189,0.533 0.305,0.28 0.432,0 0.498,0.228 0.514,0.394 0.449,0.639 0.342,1.048 0.28,1.475 0,1.915"
   style="fill:#ffffff;fill-rule:nonzero"
   id="path1438" />
            </g>
            <g
   transform="matrix(-1.9635,-0.380351,-0.380351,1.9635,45.7746,845.63)"
   id="g1444">
                <path
   d="m -0.104,-0.845 c -0.175,0.255 -0.16,0.528 -0.1,0.803 0.006,0.029 0.069,0.04 0.1,0.007 C 0,-0.143 0.094,-0.249 0.019,-0.424 -0.037,-0.558 -0.064,-0.705 -0.104,-0.845"
   style="fill:#ffffff;fill-rule:nonzero"
   id="path1442" />
            </g>
            <g
   transform="matrix(2,0,0,2,23.765,830.629)"
   id="g1448">
                <path
   d="M 0,1.002 C -0.025,0.95 -0.056,0.905 -0.116,0.89 0.117,0.557 0.377,0.251 0.705,0.008 L 0.698,0 C 0.699,0.025 0.711,0.059 0.699,0.076 0.469,0.387 0.264,0.717 0,1.002"
   style="fill:#ffffff;fill-rule:nonzero"
   id="path1446" />
            </g>
            <g
   transform="matrix(2,0,0,2,40.7154,846.158)"
   id="g1452">
                <path
   d="M 0,0.847 C -0.255,0.622 -0.349,0.33 -0.36,0 -0.188,0.24 -0.087,0.521 0.101,0.748 0.068,0.781 0.034,0.814 0,0.847"
   style="fill-rule:nonzero"
   id="path1450" />
            </g>
            <g
   transform="matrix(2,0,0,2,66.649,834)"
   id="g1456">
                <path
   d="M 0,0.443 C -0.075,0.471 -0.051,0.546 -0.076,0.599 -0.24,0.375 -0.34,0.117 -0.48,-0.156 -0.234,0.006 -0.183,0.071 0,0.443"
   style="fill:#ffffff;fill-rule:nonzero"
   id="path1454" />
            </g>
            <g
   transform="matrix(2,0,0,2,47.3986,841.987)"
   id="g1460">
                <path
   d="m 0,-0.002 c -0.108,0.048 -0.054,0.204 -0.167,0.249 0,-0.027 -0.005,-0.055 0,-0.08 C -0.15,0.075 -0.168,0.005 -0.274,-0.007 -0.35,-0.015 -0.442,0.03 -0.49,-0.064 -0.519,-0.121 -0.566,-0.176 -0.543,-0.249 -0.268,-0.205 -0.268,-0.205 0,-0.002"
   style="fill:#ffffff;fill-rule:nonzero"
   id="path1458" />
            </g>
            <g
   transform="matrix(1.52699,1.29163,1.29163,-1.52699,61.9111,844.006)"
   id="g1464">
                <path
   d="M 0.225,-0.086 C 0.15,0.157 0.143,0.405 0.159,0.665 0.188,0.641 0.222,0.629 0.225,0.611 0.274,0.376 0.359,0.148 0.347,-0.097 0.305,-0.092 0.266,-0.089 0.225,-0.086"
   style="fill-rule:nonzero"
   id="path1462" />
            </g>
            <g
   transform="matrix(2,0,0,2,56.1472,867.342)"
   id="g1468">
                <path
   d="m 0,-0.353 c -0.031,0.204 -0.155,0.359 -0.263,0.525 -0.019,-0.255 0.052,-0.482 0.172,-0.697 0.029,0.058 0.003,0.145 0.091,0.172"
   style="fill-rule:nonzero"
   id="path1466" />
            </g>
            <g
   transform="matrix(2,0,0,2,67.6434,872.082)"
   id="g1472">
                <path
   d="M 0,-1.026 C 0.064,-0.678 -0.023,-0.335 -0.037,0.012 -0.06,-0.336 -0.113,-0.683 -0.066,-1.033 -0.043,-1.038 -0.021,-1.036 0,-1.026"
   style="fill-rule:nonzero"
   id="path1470" />
            </g>
            <g
   transform="matrix(-1.9462,0.460782,0.460782,1.9462,65.9533,881.327)"
   id="g1476">
                <path
   d="M 0.252,0.23 C 0.189,0.053 0.1,-0.104 -0.101,-0.283 0.047,0.039 0.075,0.328 0.252,0.559 0.246,0.509 0.247,0.459 0.236,0.41 0.221,0.347 0.208,0.286 0.252,0.23"
   style="fill-rule:nonzero"
   id="path1474" />
            </g>
            <g
   transform="matrix(2,0,0,2,43.8802,847.256)"
   id="g1480">
                <path
   d="M 0,0.209 C -0.035,0.203 -0.074,0.198 -0.111,0.19 -0.146,0.183 -0.155,0.164 -0.143,0.139 -0.137,0.127 -0.134,0.114 -0.126,0.104 -0.062,0.022 0.021,0 0.114,0.04 0.145,0.054 0.171,0.09 0.183,0.123 0.201,0.173 0.153,0.186 0.119,0.195 0.082,0.205 0.042,0.205 0,0.209"
   style="fill:#ffffff;fill-rule:nonzero"
   id="path1478" />
            </g>
            <g
   transform="matrix(2,0,0,2,49.8296,833.466)"
   id="g1484">
                <path
   d="M 0,0.121 C -0.065,0.145 -0.127,0.147 -0.187,0.107 -0.065,-0.014 -0.066,-0.016 0.161,-0.026 0.108,0.023 0.054,0.072 0,0.121"
   style="fill:#ffffff;fill-rule:nonzero"
   id="path1482" />
            </g>
            <g
   transform="matrix(2,0,0,2,57.5598,858.72)"
   id="g1488">
                <path
   d="m 0,-1.291 c -0.106,0.075 -0.202,0.019 -0.268,0.088 0.012,0.017 0.02,0.042 0.037,0.052 0.226,0.122 0.467,0.206 0.717,0.267 0.063,0.015 0.122,0.05 0.179,0.081 0.026,0.014 0.022,0.045 -0.005,0.067 C 0.64,-0.721 0.615,-0.695 0.594,-0.697 0.28,-0.734 0.076,-0.548 -0.144,-0.364 -0.662,0.07 -1.275,0.244 -1.946,0.239 -2.513,0.234 -3.078,0.217 -3.634,0.086 -3.832,0.039 -4.036,0.049 -4.238,0.08 c -0.103,0.015 -0.145,-0.053 -0.1,-0.149 0.035,-0.072 0.071,-0.146 0.118,-0.211 0.253,-0.352 0.538,-0.674 0.901,-0.921 0.136,-0.093 0.283,-0.156 0.443,-0.185 0.721,-0.131 1.449,-0.149 2.179,-0.128 0.241,0.006 0.474,0.075 0.697,0.223"
   style="fill-rule:nonzero"
   id="path1486" />
            </g>
            <g
   transform="matrix(2,0,0,2,40.5304,856.078)"
   id="g1492">
                <path
   d="M 0,1.398 C -0.261,1.388 -0.515,1.36 -0.766,1.411 -0.964,1.451 -1.162,1.5 -1.362,1.515 -1.925,1.556 -2.488,1.602 -3.052,1.499 -3.571,1.403 -4.016,1.164 -4.394,0.805 -4.512,0.694 -4.623,0.631 -4.783,0.643 -4.848,0.649 -4.916,0.629 -4.981,0.613 -5.003,0.609 -5.03,0.584 -5.038,0.563 -5.055,0.516 -5.014,0.493 -4.98,0.482 -4.904,0.455 -4.824,0.439 -4.748,0.414 -4.519,0.34 -4.285,0.276 -4.081,0.139 -4.136,0.031 -4.261,0.123 -4.322,0.043 c 0.006,-0.06 0.052,-0.083 0.099,-0.099 0.192,-0.066 0.381,-0.139 0.586,-0.141 0.674,-0.007 1.345,0.004 2.014,0.108 0.276,0.042 0.515,0.142 0.731,0.313 0.287,0.227 0.527,0.5 0.741,0.794 0.078,0.106 0.153,0.22 0.151,0.38"
   style="fill-rule:nonzero"
   id="path1490" />
            </g>
            <g
   transform="matrix(2,0,0,2,45.8916,867.711)"
   id="g1496">
                <path
   d="m 0,-4.448 c 0.028,0.332 0.073,0.665 0.081,0.998 0.019,0.761 0.117,1.506 0.381,2.223 0.067,0.181 0.056,0.331 -0.049,0.496 C 0.262,-0.494 0.133,-0.242 -0.004,0 -0.085,-0.001 -0.09,-0.056 -0.09,-0.109 c 0.005,-1.336 0.01,-2.671 0.015,-4.007 0.001,-0.107 0.009,-0.214 0.014,-0.32 0.02,-0.004 0.04,-0.008 0.061,-0.012"
   style="fill-rule:nonzero"
   id="path1494" />
            </g>
            <g
   transform="matrix(2,0,0,2,43.4152,863.442)"
   id="g1500">
                <path
   d="M 0,1.319 C -0.013,1.323 -0.029,1.334 -0.038,1.33 -0.504,1.114 -0.523,1.073 -0.348,0.598 c 0.069,-0.189 0.155,-0.372 0.236,-0.557 0.017,-0.039 0.05,-0.056 0.094,-0.048 0.059,0.01 0.049,0.059 0.05,0.094 0.003,0.39 0.003,0.78 0.002,1.171 0,0.02 -0.022,0.041 -0.034,0.061"
   style="fill:#05070a;fill-rule:nonzero"
   id="path1498" />
            </g>
            <g
   transform="matrix(2,0,0,2,45.344,857.026)"
   id="g1504">
                <path
   d="m 0,-0.906 c 0.093,-0.009 0.146,0.033 0.195,0.079 0.266,0.25 0.558,0.464 0.876,0.64 0.024,0.013 0.048,0.027 0.067,0.046 0.028,0.029 0.051,0.066 0.024,0.106 C 1.148,-0.016 1.12,0.009 1.101,0.007 0.77,-0.031 0.429,-0.03 0.184,-0.322 0.038,-0.497 -0.015,-0.687 0,-0.906"
   style="fill:#070609;fill-rule:nonzero"
   id="path1502" />
            </g>
            <g
   transform="matrix(2,0,0,2,17.3392,879.458)"
   id="g1508">
                <path
   d="m 0,-6.604 c -0.187,0.717 -0.333,1.387 -0.416,2.07 -0.151,1.24 -0.143,2.476 0.118,3.704 0.053,0.252 0.147,0.489 0.235,0.73 0.015,0.041 0.002,0.08 -0.04,0.093 -0.022,0.007 -0.06,0 -0.076,-0.015 -0.538,-0.494 -0.935,-1.075 -1.081,-1.804 -0.185,-0.916 -0.135,-1.825 0.11,-2.723 0.1,-0.365 0.242,-0.716 0.404,-1.058 0.243,-0.515 0.244,-0.514 0.746,-0.997"
   style="fill-rule:nonzero"
   id="path1506" />
            </g>
            <g
   transform="matrix(2,0,0,2,44.1732,881.87)"
   id="g1512">
                <path
   d="m 0,-4.932 c 0.928,0.081 1.864,0.019 2.789,0.146 0.482,0.065 0.962,0.135 1.434,0.254 0.14,0.035 0.239,0.1 0.313,0.228 0.144,0.247 0.249,0.507 0.315,0.786 0.034,0.143 0.006,0.256 -0.077,0.377 -0.618,0.906 -1.268,1.783 -2.12,2.49 C 2.436,-0.471 2.229,-0.276 2.015,-0.09 1.934,-0.02 1.847,-0.021 1.766,-0.099 1.687,-0.173 1.596,-0.236 1.529,-0.319 1.111,-0.837 0.745,-1.385 0.56,-2.034 0.534,-2.125 0.525,-2.226 0.426,-2.269 0.295,-2.326 0.16,-2.309 0.031,-2.259 c -0.068,0.026 -0.091,0.098 -0.105,0.162 -0.056,0.253 -0.16,0.487 -0.275,0.716 -0.213,0.425 -0.477,0.819 -0.809,1.157 -0.246,0.249 -0.24,0.262 -0.529,0.025 -1.029,-0.847 -1.899,-1.837 -2.628,-2.954 -0.082,-0.126 -0.105,-0.242 -0.062,-0.381 0.032,-0.103 0.052,-0.21 0.087,-0.312 0.185,-0.536 0.314,-0.663 0.867,-0.765 0.678,-0.124 1.357,-0.238 2.048,-0.251 0.459,-0.009 0.913,-0.108 1.375,-0.07"
   style="fill-rule:nonzero"
   id="path1510" />
            </g>
            <g
   transform="matrix(2,0,0,2,48.0542,844.776)"
   id="g1516">
                <path
   d="m 0,0.249 c 0.024,0.297 -0.052,0.596 -0.166,0.885 -0.024,0.059 -0.073,0.11 -0.117,0.158 -0.013,0.014 -0.054,0.015 -0.074,0.005 -0.02,-0.009 -0.045,-0.042 -0.042,-0.059 0.015,-0.064 0.039,-0.127 0.062,-0.19 0.235,-0.65 0.225,-1.357 -0.029,-2.001 -0.016,-0.041 -0.019,-0.082 0.023,-0.093 0.042,-0.012 0.068,0.03 0.085,0.067 0.182,0.383 0.256,0.789 0.258,1.228"
   style="fill-rule:nonzero"
   id="path1514" />
            </g>
            <g
   transform="matrix(2,0,0,2,56.899,857.896)"
   id="g1520">
                <path
   d="m 0,-0.291 c -0.395,0.539 -0.961,0.653 -1.613,0.687 0.111,-0.098 0.188,-0.168 0.267,-0.234 0.213,-0.18 0.37,-0.38 0.34,-0.686 -0.013,-0.13 0.045,-0.163 0.175,-0.137 0.303,0.061 0.594,0.148 0.831,0.37"
   style="fill:#ffffff;fill-rule:nonzero"
   id="path1518" />
            </g>
            <g
   transform="matrix(2,0,0,2,52.6492,856.844)"
   id="g1524">
                <path
   d="M 0,0.912 C -0.437,0.853 -0.875,0.794 -1.312,0.733 -1.347,0.728 -1.39,0.707 -1.41,0.679 c -0.024,-0.033 0,-0.071 0.031,-0.1 0.208,-0.19 0.415,-0.38 0.669,-0.51 C -0.574,0 -0.497,0.017 -0.465,0.155 -0.396,0.456 -0.245,0.695 0,0.912"
   style="fill:#ffffff;fill-rule:nonzero"
   id="path1522" />
            </g>
            <g
   transform="matrix(2,0,0,2,35.3974,857.209)"
   id="g1528">
                <path
   d="M 0,0.573 C 0.303,0.722 0.579,0.601 0.839,0.463 0.994,0.38 1.077,0.22 1.129,0.044 1.192,-0.166 1.254,-0.182 1.449,-0.071 1.671,0.056 1.86,0.228 2.047,0.401 2.078,0.429 2.1,0.463 2.078,0.502 2.067,0.522 2.04,0.54 2.017,0.542 1.381,0.632 0.747,0.755 0.1,0.737 -0.046,0.732 -0.197,0.751 -0.331,0.667 -0.246,0.545 -0.114,0.588 0,0.573"
   style="fill:#ffffff;fill-rule:nonzero"
   id="path1526" />
            </g>
            <g
   transform="matrix(2,0,0,2,35.3974,856.801)"
   id="g1532">
                <path
   d="m 0,0.777 c -0.084,0.125 -0.218,0.07 -0.331,0.094 -0.481,-0.01 -0.838,-0.245 -1.129,-0.61 0.22,-0.214 0.489,-0.296 0.765,-0.362 0.101,-0.024 0.152,0.008 0.181,0.106 0.012,0.038 0.02,0.078 0.025,0.118 0.04,0.257 0.178,0.445 0.399,0.577 0.033,0.021 0.06,0.051 0.09,0.077"
   style="fill:#ffffff;fill-rule:nonzero"
   id="path1530" />
            </g>
            <g
   transform="matrix(1.9657,-0.368835,-0.368835,-1.9657,16.4421,877.217)"
   id="g1536">
                <path
   d="M -0.187,-0.031 C -0.47,0.622 -0.472,1.293 -0.304,1.97 -0.192,1.986 -0.204,1.896 -0.187,1.845 -0.099,1.588 -0.063,1.332 -0.105,1.054 -0.159,0.696 -0.162,0.33 -0.187,-0.031"
   style="fill:#ffffff;fill-rule:nonzero"
   id="path1534" />
            </g>
            <g
   transform="matrix(2,0,0,2,45.5414,876.193)"
   id="g1540">
                <path
   d="M 0,0.622 C 0.382,0.702 0.713,0.755 1.034,0.846 1.288,0.918 1.476,0.85 1.663,0.687 1.958,0.429 2.25,0.17 2.435,-0.187 2.363,-0.259 2.317,-0.183 2.269,-0.154 2.177,-0.098 2.09,-0.033 2,0.027 1.758,0.188 1.498,0.273 1.201,0.257 0.851,0.237 0.502,0.226 0.154,0.169 -0.233,0.106 -0.628,0.105 -1.015,0.171 -1.363,0.23 -1.712,0.238 -2.062,0.257 -2.361,0.273 -2.619,0.183 -2.861,0.022 -2.99,-0.063 -3.119,-0.147 -3.249,-0.233 c -0.048,0.087 0.003,0.124 0.028,0.165 0.211,0.338 0.507,0.593 0.813,0.839 0.124,0.1 0.26,0.135 0.416,0.098 0.262,-0.06 0.525,-0.119 0.788,-0.177 0.089,-0.02 0.181,-0.033 0.265,-0.049 0.059,0.102 0.007,0.173 -0.024,0.24 -0.24,0.515 -0.549,0.989 -0.904,1.432 C -1.901,2.357 -1.941,2.394 -1.98,2.431 -2.049,2.493 -2.125,2.498 -2.201,2.446 -2.256,2.407 -2.307,2.363 -2.358,2.319 -3.249,1.566 -4.021,0.705 -4.708,-0.236 c -0.135,-0.186 -0.161,-0.358 -0.11,-0.565 0.089,-0.358 0.22,-0.62 0.662,-0.687 0.746,-0.115 1.489,-0.245 2.243,-0.293 0.283,-0.017 0.565,-0.044 0.847,-0.063 0.513,-0.034 1.024,0.008 1.536,0.032 0.85,0.039 1.695,0.125 2.532,0.278 0.105,0.019 0.21,0.044 0.314,0.072 0.43,0.118 0.386,0.018 0.563,0.526 0.03,0.089 0.035,0.186 0.064,0.275 C 3.979,-0.547 3.959,-0.45 3.89,-0.357 3.353,0.371 2.808,1.092 2.136,1.705 1.917,1.906 1.698,2.105 1.477,2.303 1.416,2.357 1.352,2.406 1.288,2.454 1.225,2.5 1.161,2.487 1.102,2.444 1.07,2.42 1.038,2.394 1.012,2.363 0.625,1.893 0.292,1.387 0.043,0.829 0.022,0.782 0.021,0.725 0,0.622"
   style="fill:#ffffff;fill-rule:nonzero"
   id="path1538" />
            </g>
            <g
   transform="matrix(2,0,0,2,36.5606,874.782)"
   id="g1544">
                <path
   d="m 0,-0.396 c 0.093,-0.059 0.187,-0.026 0.273,-0.001 0.439,0.128 0.878,0.091 1.318,0.003 0.316,-0.064 0.635,-0.118 0.952,-0.18 0.339,-0.067 0.676,-0.064 0.994,0.072 0.355,0.152 0.694,0.153 1.049,0.002 0.318,-0.135 0.655,-0.142 0.993,-0.075 0.317,0.062 0.636,0.116 0.953,0.18 0.44,0.088 0.878,0.127 1.318,-0.001 0.064,-0.019 0.132,-0.022 0.199,-0.027 0.026,-0.003 0.052,0.011 0.078,0.017 C 7.962,0.044 7.634,0.246 7.2,0.134 6.766,0.022 6.324,-0.018 5.883,-0.062 5.574,-0.093 5.265,-0.046 4.96,0.014 4.841,0.036 4.725,0.072 4.608,0.101 4.248,0.193 3.885,0.207 3.529,0.1 2.896,-0.089 2.256,-0.099 1.61,0.005 1.385,0.043 1.156,0.056 0.937,0.134 0.649,0.237 0.409,0.148 0.207,-0.069 0.118,-0.164 -0.007,-0.239 0,-0.396"
   style="fill-rule:nonzero"
   id="path1542" />
            </g>
        </g>
    </g></g></svg>
